<svg width="19" height="24" viewBox="0 0 19 24" fill="none" xmlns="http://www.w3.org/2000/svg">
<path d="M1 3.2V20.8C1 21.3835 1.22388 21.9431 1.6224 22.3556C2.02091 22.7682 2.56141 23 3.125 23H15.875C16.4386 23 16.9791 22.7682 17.3776 22.3556C17.7761 21.9431 18 21.3835 18 20.8V7.9762C18 7.68312 17.9434 7.39299 17.8335 7.12287C17.7237 6.85275 17.5628 6.60807 17.3604 6.4032L12.6429 1.627C12.2459 1.22512 11.7127 1.00007 11.1575 1H3.125C2.56141 1 2.02091 1.23178 1.6224 1.64436C1.22388 2.05695 1 2.61652 1 3.2V3.2Z" stroke="black" stroke-opacity="0.5" stroke-linecap="round" stroke-linejoin="round"/>
<path d="M6.3125 13.1H12.6875" stroke="black" stroke-opacity="0.5" stroke-linecap="round" stroke-linejoin="round"/>
<path d="M6.3125 17.5H9.5" stroke="black" stroke-opacity="0.5" stroke-linecap="round" stroke-linejoin="round"/>
<path d="M11.625 1V5.4C11.625 5.98348 11.8489 6.54305 12.2474 6.95563C12.6459 7.36821 13.1864 7.6 13.75 7.6H18" stroke="black" stroke-opacity="0.5" stroke-linejoin="round"/>
</svg>
