<svg width="19" height="16" viewBox="0 0 19 16" fill="none" xmlns="http://www.w3.org/2000/svg">
<path d="M12.6948 14.9837H0.684229C0.502839 14.9834 0.328952 14.9134 0.200689 14.789C0.0724271 14.6646 0.000256563 14.496 0 14.32V0.663139C0 0.297707 0.306957 0 0.684229 0H17.5102C17.8869 0 18.1939 0.297707 18.1939 0.663139V12.0179C18.1939 12.0802 18.1684 12.1401 18.1229 12.1842C18.0774 12.2283 18.0157 12.253 17.9514 12.253C17.8871 12.253 17.8255 12.2283 17.78 12.1842C17.7345 12.1401 17.709 12.0802 17.709 12.0179V0.663139C17.709 0.611998 17.688 0.562952 17.6507 0.52679C17.6135 0.490627 17.5629 0.470312 17.5102 0.470312H0.684229C0.658079 0.47025 0.632173 0.475192 0.607995 0.484855C0.583817 0.494518 0.561842 0.508711 0.543329 0.526623C0.524815 0.544535 0.510127 0.565813 0.500105 0.589239C0.490083 0.612664 0.484925 0.637777 0.484925 0.663139V14.32C0.484925 14.4263 0.574151 14.5133 0.684229 14.5133H12.6948C12.7592 14.5133 12.8208 14.5381 12.8663 14.5822C12.9118 14.6263 12.9373 14.6861 12.9373 14.7485C12.9373 14.8109 12.9118 14.8707 12.8663 14.9148C12.8208 14.9589 12.7592 14.9837 12.6948 14.9837Z" fill="#808080"/>
<path d="M8.41538 14.9837C8.35107 14.9837 8.2894 14.9589 8.24393 14.9148C8.19846 14.8707 8.17291 14.8109 8.17291 14.7485V0.235156C8.17291 0.172789 8.19846 0.112976 8.24393 0.0688756C8.2894 0.0247753 8.35107 0 8.41538 0C8.47968 0 8.54135 0.0247753 8.58682 0.0688756C8.63229 0.112976 8.65784 0.172789 8.65784 0.235156V14.7485C8.65784 14.8109 8.63229 14.8707 8.58682 14.9148C8.54135 14.9589 8.47968 14.9837 8.41538 14.9837Z" fill="#808080"/>
<path d="M3.78 14.9837C3.71569 14.9837 3.65402 14.9589 3.60855 14.9148C3.56308 14.8707 3.53754 14.8109 3.53754 14.7485V0.235156C3.53754 0.172789 3.56308 0.112976 3.60855 0.0688756C3.65402 0.0247753 3.71569 0 3.78 0C3.8443 0 3.90598 0.0247753 3.95145 0.0688756C3.99692 0.112976 4.02246 0.172789 4.02246 0.235156V14.7485C4.02246 14.8788 3.91432 14.9837 3.78 14.9837Z" fill="#808080"/>
<path d="M12.6949 11.5429C12.6305 11.5429 12.5689 11.5181 12.5234 11.474C12.4779 11.4299 12.4524 11.3701 12.4524 11.3077V0.235156C12.4524 0.172789 12.4779 0.112976 12.5234 0.0688756C12.5689 0.0247753 12.6305 0 12.6949 0C12.7592 0 12.8208 0.0247753 12.8663 0.0688756C12.9118 0.112976 12.9373 0.172789 12.9373 0.235156V11.3077C12.9373 11.3701 12.9118 11.4299 12.8663 11.474C12.8208 11.5181 12.7592 11.5429 12.6949 11.5429Z" fill="#808080"/>
<path d="M17.9117 2.74051H0.394257C0.329952 2.74051 0.268281 2.71573 0.22281 2.67163C0.177339 2.62753 0.151794 2.56772 0.151794 2.50535C0.151794 2.44298 0.177339 2.38317 0.22281 2.33907C0.268281 2.29497 0.329952 2.2702 0.394257 2.2702H17.9122C17.944 2.27023 17.9755 2.27634 18.0049 2.28818C18.0343 2.30003 18.0611 2.31738 18.0835 2.33924C18.106 2.36109 18.1239 2.38704 18.136 2.41558C18.1482 2.44412 18.1544 2.4747 18.1544 2.50559C18.1544 2.53647 18.1481 2.56704 18.1358 2.59556C18.1236 2.62408 18.1057 2.64998 18.0832 2.6718C18.0607 2.69361 18.0339 2.71091 18.0045 2.7227C17.9751 2.73449 17.9435 2.74054 17.9117 2.74051Z" fill="#808080"/>
<path d="M17.7424 5.2294H0.394257C0.329952 5.2294 0.268281 5.20462 0.22281 5.16052C0.177339 5.11642 0.151794 5.05661 0.151794 4.99424C0.151794 4.93188 0.177339 4.87206 0.22281 4.82796C0.268281 4.78386 0.329952 4.75909 0.394257 4.75909H17.7424C17.8067 4.75909 17.8684 4.78386 17.9139 4.82796C17.9594 4.87206 17.9849 4.93188 17.9849 4.99424C17.9849 5.05661 17.9594 5.11642 17.9139 5.16052C17.8684 5.20462 17.8067 5.2294 17.7424 5.2294Z" fill="#808080"/>
<path d="M12.6949 7.71874H0.394257C0.329952 7.71874 0.268281 7.69396 0.22281 7.64986C0.177339 7.60576 0.151794 7.54595 0.151794 7.48358C0.151794 7.42122 0.177339 7.3614 0.22281 7.3173C0.268281 7.2732 0.329952 7.24843 0.394257 7.24843H12.6949C12.7592 7.24843 12.8208 7.2732 12.8663 7.3173C12.9118 7.3614 12.9373 7.42122 12.9373 7.48358C12.9373 7.54595 12.9118 7.60576 12.8663 7.64986C12.8208 7.69396 12.7592 7.71874 12.6949 7.71874Z" fill="#808080"/>
<path d="M12.4694 10.194H0.242462C0.178157 10.194 0.116486 10.1692 0.0710156 10.1251C0.0255451 10.081 0 10.0212 0 9.95886C0 9.89649 0.0255451 9.83668 0.0710156 9.79258C0.116486 9.74848 0.178157 9.7237 0.242462 9.7237H12.4694C12.5337 9.7237 12.5953 9.74848 12.6408 9.79258C12.6863 9.83668 12.7118 9.89649 12.7118 9.95886C12.7118 10.0212 12.6863 10.081 12.6408 10.1251C12.5953 10.1692 12.5337 10.194 12.4694 10.194Z" fill="#808080"/>
<path d="M10.2246 12.666H0.242462C0.178157 12.666 0.116486 12.6412 0.0710156 12.5971C0.0255451 12.553 0 12.4932 0 12.4308C0 12.3684 0.0255451 12.3086 0.0710156 12.2645C0.116486 12.2204 0.178157 12.1957 0.242462 12.1957H10.2246C10.2889 12.1957 10.3506 12.2204 10.3961 12.2645C10.4416 12.3086 10.4671 12.3684 10.4671 12.4308C10.4671 12.4932 10.4416 12.553 10.3961 12.5971C10.3506 12.6412 10.2889 12.666 10.2246 12.666Z" fill="#808080"/>
<path d="M15.0356 16C14.9713 15.9999 14.9096 15.9752 14.8639 15.9313L11.1295 12.309C11.0854 12.2646 11.0609 12.2052 11.0615 12.1436C11.062 12.0819 11.0875 12.0229 11.1325 11.9793C11.1774 11.9357 11.2382 11.911 11.3018 11.9105C11.3654 11.9099 11.4266 11.9336 11.4724 11.9765L15.0356 15.4328L18.5891 11.9859C18.6349 11.9431 18.6961 11.9193 18.7597 11.9199C18.8232 11.9204 18.8841 11.9452 18.929 11.9888C18.974 12.0324 18.9995 12.0913 19 12.153C19.0006 12.2146 18.9761 12.274 18.932 12.3184L15.2068 15.9318C15.1612 15.9755 15.0997 16 15.0356 16Z" fill="#808080"/>
<path d="M15.0356 16C14.9712 16 14.9096 15.9752 14.8641 15.9311C14.8186 15.887 14.7931 15.8272 14.7931 15.7648V6.07078C14.7931 6.00841 14.8186 5.9486 14.8641 5.9045C14.9096 5.8604 14.9712 5.83562 15.0356 5.83562C15.0999 5.83562 15.1615 5.8604 15.207 5.9045C15.2525 5.9486 15.278 6.00841 15.278 6.07078V15.7644C15.2781 15.7953 15.2719 15.8259 15.2597 15.8545C15.2475 15.8831 15.2297 15.9091 15.2072 15.931C15.1847 15.9528 15.1579 15.9702 15.1285 15.9821C15.099 15.9939 15.0674 16 15.0356 16Z" fill="#808080"/>
<path d="M0.294373 0.337708H3.71552V2.4099H0.294373V0.337708Z" fill="#808080"/>
</svg>
