<?xml version="1.0" encoding="UTF-8"?>
<svg width="66px" height="74px" viewBox="0 0 66 74" version="1.1" xmlns="http://www.w3.org/2000/svg" xmlns:xlink="http://www.w3.org/1999/xlink">
    <!-- Generator: Sketch 54 (76480) - https://sketchapp.com -->
    <title>Customer Retention</title>
    <desc>Created with Sketch.</desc>
    <g id="Page-1" stroke="none" stroke-width="1" fill="none" fill-rule="evenodd">
        <g id="Frontend-Development" transform="translate(-438.000000, -1975.000000)" fill-rule="nonzero">
            <g id="Group-4" transform="translate(391.000000, 1926.000000)">
                <g id="Customer-Retention" transform="translate(47.000000, 49.000000)">
                    <g id="Group" transform="translate(1.791855, 47.227642)" fill="#D4E1F4">
                        <path d="M6.57013575,4.68847154 C6.57610759,2.73895591 7.80762531,1.00729933 9.63823982,0.374361789 C7.76163753,-0.281892468 5.67945502,0.368779742 4.50114117,1.97968088 C3.32282732,3.59058202 3.32282732,5.78651148 4.50114117,7.39741261 C5.67945502,9.00831375 7.76163753,9.65898596 9.63823982,9.00273171 C7.80760199,8.36973767 6.57608931,6.6380278 6.57013575,4.68847154 L6.57013575,4.68847154 Z" id="Path"/>
                        <path d="M9.47980995,14.5149797 L6.49338462,14.5149797 C2.90889292,14.5191239 0.00411433994,17.4450138 -1.42108547e-14,21.0555569 L-1.42108547e-14,24.9674797 L2.98642534,24.9674797 L2.98642534,21.0555569 C2.99053968,17.4450138 5.89531826,14.5191239 9.47980995,14.5149797 L9.47980995,14.5149797 Z" id="Path"/>
                        <path d="M55.7546199,14.5149797 L52.6188733,14.5149797 C49.0342892,14.5189583 46.1293718,17.4449209 46.1253394,21.0555569 L46.1253394,24.9674797 L49.261086,24.9674797 L49.261086,21.0555569 C49.2651184,17.4449209 52.1700358,14.5189583 55.7546199,14.5149797 L55.7546199,14.5149797 Z" id="Path"/>
                        <path d="M52.8447964,4.68847154 C52.8502085,2.76779898 54.0457737,1.05491885 55.8382398,0.399780488 C53.9553011,-0.294124126 51.8434689,0.340131592 50.6452686,1.95940799 C49.4470683,3.57868439 49.4470683,5.79840911 50.6452686,7.41768551 C51.8434689,9.0369619 53.9553011,9.67121762 55.8382398,8.97731301 C54.0457224,8.32215571 52.8501459,6.60919928 52.8447964,4.68847154 L52.8447964,4.68847154 Z" id="Path"/>
                    </g>
                    <path d="M9.937181,58.2877846 C13.2683127,58.3057405 16.0420247,55.7175793 16.278521,52.3706563 C16.5150174,49.0237333 14.1331855,46.0659627 10.8331086,45.6085163 L10.8331086,36.9351748 L55.1665928,36.9351748 L55.1665928,45.6089675 C51.8654228,46.0826169 49.4895351,49.0463879 49.7252406,52.3967133 C49.9609462,55.7470387 52.7280277,58.3437078 56.0625204,58.3437078 C59.397013,58.3437078 62.1640946,55.7470387 62.3998001,52.3967133 C62.6355057,49.0463879 60.2596179,46.0826169 56.958448,45.6089675 L56.958448,36.3973211 C56.958448,35.6868008 56.463448,35.1302967 55.8316697,35.1302967 L33.8959276,35.1302967 L33.8959276,26.5120041 C33.8959276,26.0136008 33.4948072,25.609565 33,25.609565 C32.5051928,25.609565 32.1040724,26.0136008 32.1040724,26.5120041 L32.1040724,35.1302967 L10.3031674,35.1302967 C9.60777426,35.1300458 9.04343053,35.6968761 9.04170136,36.3973211 L9.04170136,45.6089675 C5.74162446,46.0664139 3.35979255,49.0241845 3.59628891,52.3711075 C3.83278526,55.7180305 6.6064973,58.3061917 9.93762896,58.2882358 L9.937181,58.2877846 Z M60.6244344,51.9161138 C60.6356227,53.7769676 59.5313627,55.4608626 57.8277576,56.1807889 C56.1241525,56.9007152 54.1576591,56.5144895 52.8473666,55.202624 C51.5370742,53.8907585 51.1417614,51.9123427 51.8461876,50.1920379 C52.5506137,48.471733 54.2156567,47.3492943 56.0631176,47.3493211 C58.5734958,47.344572 60.6139823,49.3875082 60.6244344,51.9161138 L60.6244344,51.9161138 Z M9.937181,47.3493211 C12.4376019,47.3646666 14.4536785,49.4161322 14.44351,51.9347515 C14.4333415,54.4533709 12.400767,56.4882523 9.90030492,56.483113 C7.39984286,56.4779737 5.37552967,54.434754 5.37556561,51.9161138 C5.38601785,49.3873906 7.4266864,47.3444059 9.937181,47.3493211 L9.937181,47.3493211 Z" id="Shape" fill="#0B75FF"/>
                    <path d="M0.895927602,74 L18.978733,74 C19.4735402,74 19.8746606,73.5959643 19.8746606,73.097561 L19.8746606,68.2831992 C19.8695587,63.6763205 16.1632084,59.942966 11.5895701,59.9377439 L8.28523982,59.9377439 C3.71157731,59.9429658 0.00518421057,63.6762962 -1.42108547e-14,68.2831992 L-1.42108547e-14,73.097561 C-1.42108547e-14,73.5959643 0.40112045,74 0.895927602,74 L0.895927602,74 Z M1.7918552,68.2831992 C1.79596954,64.6726561 4.70074812,61.7467662 8.28523982,61.742622 L11.5892715,61.742622 C15.1738556,61.7466006 18.078773,64.6725632 18.0828054,68.2831992 L18.0828054,72.195122 L1.7918552,72.195122 L1.7918552,68.2831992 Z" id="Shape" fill="#0B75FF"/>
                    <path d="M57.7147602,59.9377439 L54.4107285,59.9377439 C49.8369736,59.9428002 46.1304416,63.6762033 46.1253394,68.2831992 L46.1253394,73.097561 C46.1253394,73.5959643 46.5264598,74 47.021267,74 L65.1040724,74 C65.5988795,74 66,73.5959643 66,73.097561 L66,68.2831992 C65.9948979,63.6762619 62.2884568,59.9428831 57.7147602,59.9377439 L57.7147602,59.9377439 Z M64.2081448,72.195122 L47.9171946,72.195122 L47.9171946,68.2831992 C47.9212266,64.6726804 50.8259624,61.7467664 54.4104299,61.742622 L57.7144615,61.742622 C61.2991039,61.7465177 64.2041123,64.6725045 64.2081448,68.2831992 L64.2081448,72.195122 Z" id="Shape" fill="#0B75FF"/>
                    <path d="M22.4296968,27.4148943 L43.3512489,27.4148943 C43.846056,27.4148943 44.2471765,27.0108586 44.2471765,26.5124553 L44.2471765,20.5058211 C44.2471765,16.265561 40.8738597,12.8134309 36.7197421,12.7920732 L29.1001765,12.7920732 C24.9281403,12.7920732 21.5337692,16.2524756 21.5337692,20.5059715 L21.5337692,26.5126057 C21.5338517,27.0109503 21.934948,27.4148943 22.4296968,27.4148943 Z M32.8905475,18.7765976 L33.6829955,22.2771585 L32.8766606,23.1698211 L32.0961584,22.2839268 L32.8905475,18.7765976 Z M33.168733,14.5968008 L32.8905475,15.8594634 L32.612362,14.5968008 L33.168733,14.5968008 Z M23.3256244,20.5058211 C23.3256244,17.247565 25.9160498,14.5968008 29.1001765,14.5968008 L30.776905,14.5968008 L31.2656335,16.8152967 C31.2671267,16.8222154 31.2687692,16.8291341 31.2704118,16.8360528 C31.3003213,16.9571845 31.3488925,17.0728466 31.4143575,17.1788293 L30.2471131,22.3353659 C30.18279,22.6193753 30.2585287,22.9171942 30.4504887,23.1350772 L32.1988914,25.1192398 C32.3676641,25.3107721 32.6092784,25.4210569 32.8635204,25.4226098 L32.8690452,25.4226098 C33.1214129,25.4226197 33.362081,25.3154188 33.5318824,25.1273618 L35.3237376,23.1430488 C35.5207999,22.9246881 35.5994232,22.6230741 35.5342805,22.3353659 L34.3670362,17.1789797 C34.4325627,17.0730291 34.4811381,16.957357 34.5109819,16.8362033 C34.5126244,16.8292846 34.514267,16.8223659 34.5157602,16.8154472 L35.004638,14.5969512 L36.6807692,14.5969512 C39.8648959,14.5969512 42.4553213,17.2477154 42.4553213,20.5059715 L42.4553213,25.6101667 L23.3256244,25.6101667 L23.3256244,20.5058211 Z" id="Shape" fill="#43D92D"/>
                    <path d="M40.2517873,18.1608333 L37.5662443,18.1608333 C37.0714372,18.1608333 36.6703167,18.564869 36.6703167,19.0632724 C36.6703167,19.5616757 37.0714372,19.9657114 37.5662443,19.9657114 L40.2517873,19.9657114 C40.7465945,19.9657114 41.1477149,19.5616757 41.1477149,19.0632724 C41.1477149,18.564869 40.7465945,18.1608333 40.2517873,18.1608333 Z" id="Path" fill="#43D92D"/>
                    <path d="M32.8905475,12.4184634 C36.250276,12.4184634 38.9828552,9.63293496 38.9828552,6.20923171 C38.9828552,2.78552846 36.2501267,0 32.8905475,0 C29.5309683,0 26.7974932,2.78537805 26.7974932,6.20923171 C26.7974932,9.63308537 29.530819,12.4184634 32.8905475,12.4184634 Z M32.8905475,1.80487805 C35.2622172,1.80487805 37.191,3.78061789 37.191,6.20923171 C37.191,8.63784553 35.2616199,10.6135854 32.8905475,10.6135854 C30.5194751,10.6135854 28.5893484,8.63784553 28.5893484,6.20923171 C28.5893484,3.78061789 30.5188778,1.80487805 32.8905475,1.80487805 Z" id="Shape" fill="#43D92D"/>
                </g>
            </g>
        </g>
    </g>
</svg>