<?xml version="1.0" encoding="UTF-8"?>
<svg width="67px" height="73px" viewBox="0 0 67 73" version="1.1" xmlns="http://www.w3.org/2000/svg" xmlns:xlink="http://www.w3.org/1999/xlink">
    <!-- Generator: Sketch 54 (76480) - https://sketchapp.com -->
    <title>Customized Web Applications</title>
    <desc>Created with Sketch.</desc>
    <g id="Page-1" stroke="none" stroke-width="1" fill="none" fill-rule="evenodd">
        <g id="Php-Development" transform="translate(-389.000000, -1553.000000)" fill-rule="nonzero">
            <g id="Group-4" transform="translate(389.000000, 1553.000000)">
                <g id="Customized-Web-Applications">
                    <path d="M57.1340115,39.3871435 L19.2267285,39.3871435 C16.2644562,39.3835854 13.8640203,36.9686525 13.8599783,33.9895067 L13.8599783,0.686204945 C11.098795,0.9423881 8.98483503,3.27141823 8.98180348,6.0619848 L8.98180348,38.8966341 C8.98534025,41.8762881 11.3857762,44.291221 14.3475431,44.2947792 L55.8415858,44.2947792 L57.1340115,39.3871435 Z" id="Path" fill="#D4E1F4"/>
                    <polygon id="Path" fill="#0635C9" points="32.4116947 44.7613984 34.6736924 44.7613984 34.6736924 45.1075508 32.4116947 45.1075508"/>
                    <g id="Group" transform="translate(0.000000, 4.033868)" fill="#43D92D">
                        <path d="M62.6280843,53.3501421 L60.1927863,53.3501421 L60.1927863,50.9067444 C60.1912705,48.8471132 58.5310238,47.1768396 56.4832514,47.1748064 L34.6736924,47.1748064 L34.6736924,41.0736827 L32.4116947,41.0736827 L32.4116947,47.1748064 L10.6026408,47.1748064 C8.55436327,47.1768396 6.89512702,48.8471132 6.89260068,50.9067444 L6.89260068,53.3501421 L4.45730279,53.3501421 C2.04928813,53.3526836 0.097007722,55.316246 0.0944815116,57.7393117 L0.0944815116,64.4473458 C0.097007722,66.8699031 2.04928813,68.8339739 4.45730279,68.8365154 L11.3670819,68.8365154 C13.7756017,68.8339739 15.7273769,66.8699031 15.7299031,64.4473458 L15.7299031,57.7393117 C15.7273769,55.316246 13.7756017,53.3526836 11.3670819,53.3501421 L9.15459855,53.3501421 L9.15459855,50.9067444 C9.1561142,50.1031221 9.80333769,49.4514817 10.6026408,49.4509735 L32.4116947,49.4509735 L32.4116947,53.3501421 L30.0880566,53.3501421 C27.6795367,53.3526836 25.7277615,55.316246 25.7252353,57.7393117 L25.7252353,64.4473458 C25.7277615,66.8699031 27.6795367,68.8339739 30.0880566,68.8365154 L36.9978358,68.8365154 C39.4058503,68.8339739 41.3581307,66.8699031 41.360657,64.4473458 L41.360657,57.7393117 C41.3581307,55.316246 39.4058503,53.3526836 36.9978358,53.3501421 L34.6736924,53.3501421 L34.6736924,49.4509735 L56.4832514,49.4509735 C57.2825546,49.4514817 57.9302832,50.1031221 57.9307884,50.9067444 L57.9307884,53.3501421 L55.7193155,53.3501421 C53.3102904,53.3526836 51.3590206,55.316246 51.3564944,57.7393117 L51.3564944,64.4473458 C51.3590206,66.8699031 53.3102904,68.8339739 55.7193155,68.8365154 L62.6280843,68.8365154 C65.0366041,68.8339739 66.9883793,66.8699031 66.9909056,64.4473458 L66.9909056,57.7393117 C66.9883793,55.316246 65.0366041,53.3526836 62.6280843,53.3501421 L62.6280843,53.3501421 Z M11.3670819,55.626309 C12.5266273,55.6273257 13.4663896,56.5732718 13.4674002,57.7393117 L13.4674002,64.4473458 C13.4663896,65.6133857 12.5266273,66.5593318 11.3670819,66.5603485 L4.45730279,66.5603485 C3.29775733,66.5593318 2.35799503,65.6133857 2.35647925,64.4473458 L2.35647925,57.7393117 C2.35799503,56.5732718 3.29775733,55.6273257 4.45730279,55.626309 L11.3670819,55.626309 Z M36.9978358,55.626309 C38.1573811,55.6273257 39.0971435,56.5732718 39.0986592,57.7393117 L39.0986592,64.4473458 C39.0971435,65.6133857 38.1573811,66.5593318 36.9978358,66.5603485 L30.0880566,66.5603485 C28.9285111,66.5593318 27.9887488,65.6133857 27.9877382,64.4473458 L27.9877382,57.7393117 C27.9887488,56.5732718 28.9285111,55.6273257 30.0880566,55.626309 L36.9978358,55.626309 Z M64.7289077,64.4473458 C64.7278973,65.6133857 63.788135,66.5593318 62.6280843,66.5603485 L55.7193155,66.5603485 C54.5587597,66.5593318 53.6189973,65.6133857 53.6184921,64.4473458 L53.6184921,57.7393117 C53.6189973,56.5732718 54.5587597,55.6273257 55.7193155,55.626309 L62.6280843,55.626309 C63.788135,55.6273257 64.7278973,56.5732718 64.7289077,57.7393117 L64.7289077,64.4473458 Z" id="Shape"/>
                        <path d="M61.7651198,58.1429019 L58.206149,61.6389887 L56.5817749,60.0444519 C56.2952989,59.7476047 55.8713955,59.6291709 55.4737648,59.737947 C55.0766394,59.8457066 54.7689431,60.1628857 54.6709249,60.5644427 C54.5724014,60.966508 54.6992188,61.3909383 55.0013574,61.6720281 L57.4159402,64.0437556 C57.8550012,64.4753022 58.5562862,64.4753022 58.9958525,64.0437556 L63.3460425,59.7714949 C63.7926822,59.332832 63.8017767,58.6120628 63.365242,58.1622173 C62.9287072,57.7123719 62.2127699,57.7042391 61.7651198,58.1429019 L61.7651198,58.1429019 Z" id="Path"/>
                        <path d="M29.3706036,61.6720281 L31.7846811,64.0437556 C32.2242474,64.4753022 32.9260376,64.4753022 33.3656039,64.0437556 L37.7147835,59.7714949 C38.1624336,59.332832 38.1705176,58.6120628 37.7344881,58.1622173 C37.2984587,57.7123719 36.5820162,57.7042391 36.1348712,58.1429019 L32.5748899,61.6389887 L30.9510211,60.0444519 C30.6645451,59.7476047 30.2401363,59.6291709 29.8435163,59.737947 C29.4458856,59.8457066 29.1381893,60.1628857 29.0396658,60.5644427 C28.9421528,60.966508 29.0679597,61.3909383 29.3706036,61.6720281 L29.3706036,61.6720281 Z" id="Path"/>
                        <path d="M30.6650503,0.0706537201 C29.0512865,0.0681122531 27.7406717,1.38257576 27.7386507,3.00659401 C27.7361245,4.63010386 29.0426972,5.94863389 30.6569664,5.95117536 L30.6665661,5.95117536 C32.2803299,5.95270029 33.5909447,4.63823665 33.5934709,3.0147268 C33.5949867,1.39121682 32.2884139,0.0731951872 30.6746501,0.0706537201 L30.6650503,0.0706537201 Z M31.3259154,3.01167694 C31.3259154,3.37816127 31.0303451,3.67500842 30.6665661,3.67500842 L30.6630293,3.67500842 C30.4882134,3.67450002 30.3204709,3.6038463 30.1971902,3.47880459 C30.0739096,3.35376288 30.0046905,3.18449891 30.005701,3.00811894 C30.0067116,2.64265127 30.3017767,2.34682066 30.6650503,2.34682066 L30.6680819,2.34682066 C31.0323661,2.34732892 31.3264207,2.64519274 31.3259154,3.01167694 Z" id="Shape"/>
                        <path d="M22.6275564,0.0447303922 L22.6179567,0.0447303922 C21.0041928,0.0421889251 19.693578,1.35614416 19.6910518,2.97965414 C19.6880204,4.60367226 20.9945931,5.9216939 22.608357,5.92474376 L22.6179567,5.92474376 C24.228689,5.9257603 25.5367776,4.61434666 25.5413248,2.99388641 L25.5413248,2.98422881 C25.5387986,1.36478523 24.236773,0.051846656 22.6275564,0.0447303922 Z M23.0832906,3.45643939 C22.9595046,3.58046457 22.7922675,3.64959336 22.6179567,3.64908509 L22.6169462,3.64908509 C22.2521567,3.6485767 21.9565863,3.35071301 21.9570915,2.98422881 C21.9575969,2.61723621 22.2536724,2.31988079 22.6179567,2.32038906 L22.6199776,2.32038906 C22.9842619,2.32242226 23.2788217,2.62028607 23.2788217,2.98727854 C23.2793271,3.16416691 23.2085923,3.33343088 23.0832906,3.45643939 Z" id="Shape"/>
                        <path d="M14.570863,0.0188070642 C12.9570991,0.0162655971 11.6459791,1.3307291 11.6434529,2.95423908 C11.6404214,4.5787656 12.9469941,5.8978039 14.5612633,5.90034537 L14.570863,5.90034537 C16.1856374,5.90288683 17.4962521,4.58842333 17.4987783,2.96440508 C17.5013046,1.34038683 16.1947318,0.0213485312 14.580968,0.0188070642 L14.570863,0.0188070642 Z M15.2317281,2.96135522 C15.2307176,3.32733115 14.9351472,3.62367003 14.570863,3.6241783 L14.5698525,3.6241783 C14.2040525,3.62367003 13.9089874,3.32580635 13.9094926,2.95881375 C13.9099979,2.59182128 14.2060735,2.29395747 14.570863,2.29446573 L14.572884,2.29446573 C14.7482053,2.29599066 14.9154425,2.36613612 15.0397337,2.49168623 C15.1635195,2.61571128 15.2332439,2.78497524 15.2317281,2.96135522 Z" id="Shape"/>
                        <path d="M3.74035506,61.6720281 L6.15392736,64.0437556 C6.59349354,64.4753022 7.29528388,64.4753022 7.73434484,64.0437556 L12.0840296,59.7714949 C12.5316799,59.332832 12.5402691,58.6120628 12.1037343,58.1622173 C11.6671996,57.7123719 10.9512624,57.7042391 10.5041175,58.1429019 L6.9441361,61.6389887 L5.32026719,60.0444519 C5.03429657,59.7476047 4.60938257,59.6291709 4.21225715,59.737947 C3.81462663,59.8457066 3.50743551,60.1628857 3.40941723,60.5644427 C3.31089373,60.966508 3.43771115,61.3909383 3.74035506,61.6720281 L3.74035506,61.6720281 Z" id="Path"/>
                    </g>
                    <path d="M58.911476,4.38916976 L58.911476,40.718381 C58.9089496,43.1414466 56.9576798,45.1050092 54.5486547,45.1075508 L34.6736924,45.1075508 L34.6736924,44.7613984 L32.4116947,44.7613984 L32.4116947,45.1075508 L12.5367323,45.1075508 C10.1287178,45.1050092 8.17643735,43.1414466 8.17391101,40.718381 L8.17391101,4.38916976 C8.17643735,1.96610406 10.1287178,0.00254149305 12.5367323,-2.84217094e-14 L54.5486547,-2.84217094e-14 C56.9576798,0.00254149305 58.9089496,1.96610406 58.911476,4.38916976 Z M56.6494781,40.718381 L56.6494781,13.9426666 L10.4359089,13.9426666 L10.4359089,40.718381 C10.4374245,41.8849292 11.377187,42.8303672 12.5367323,42.831892 L54.5486547,42.831892 C55.7092106,42.8303672 56.6489729,41.8849292 56.6494781,40.718381 L56.6494781,40.718381 Z M56.6494781,11.6670078 L56.6494781,4.38916976 C56.6489729,3.22262143 55.7092106,2.2771836 54.5486547,2.27565867 L12.5367323,2.27565867 C11.377187,2.2771836 10.4374245,3.22262143 10.4359089,4.38916976 L10.4359089,11.6670078 L56.6494781,11.6670078 Z" id="Shape" fill="#24527a"/>
                </g>
            </g>
        </g>
    </g>
</svg>