<?xml version="1.0" encoding="UTF-8"?>
<svg width="49px" height="58px" viewBox="0 0 49 58" version="1.1" xmlns="http://www.w3.org/2000/svg" xmlns:xlink="http://www.w3.org/1999/xlink">
    <!-- Generator: Sketch 54 (76480) - https://sketchapp.com -->
    <title>Developing business</title>
    <desc>Created with Sketch.</desc>
    <g id="Page-1" stroke="none" stroke-width="1" fill="none" fill-rule="evenodd">
        <g id="Biztalk" transform="translate(-1197.000000, -1445.000000)" fill-rule="nonzero">
            <g id="Group-4" transform="translate(1169.000000, 1413.000000)">
                <g id="Developing-business" transform="translate(28.000000, 32.000000)">
                    <path d="M40.075733,25.5836862 L16.1412693,25.5836862 C13.8313708,25.5809659 11.9591415,23.7373767 11.9559842,21.4628135 L11.9559842,0.505976679 C9.80236796,0.7018386 8.15311697,2.48014049 8.15114374,4.61013885 L8.15114374,25.2090614 C8.1535116,27.4840132 10.025741,29.3276024 12.3360341,29.329934 L40.1625564,29.329934 L40.075733,25.5836862 Z" id="Path" fill="#D4E1F4"/>
                    <path d="M41.8007571,3.35063791 L41.8007571,26.7238824 C41.7987838,28.5736895 40.2766108,30.0725772 38.398067,30.0745202 L23.2746054,30.0745202 L23.2746054,29.2393868 L21.510116,29.2393868 L21.510116,30.0745202 L10.6717864,30.0745202 C8.79324256,30.0725772 7.27106959,28.5736895 7.26909635,26.7238824 L7.26909635,3.35063791 C7.27106959,1.50083088 8.79324256,0.00194306964 10.6717864,2.84217094e-14 L38.398067,2.84217094e-14 C40.2766108,0.00194306964 41.7987838,1.50083088 41.8007571,3.35063791 Z M40.0366624,26.7238824 L40.0366624,9.45655558 L9.03319102,9.45655558 L9.03319102,26.7238824 C9.034375,27.6145878 9.76724385,28.3362457 10.6717864,28.3374116 L38.398067,28.3374116 C39.3026095,28.3362457 40.0354784,27.6145878 40.0366624,26.7238824 Z M40.0366624,7.71905824 L40.0366624,3.35063791 C40.0354784,2.4603211 39.3026095,1.73827452 38.398067,1.73749734 L10.6717864,1.73749734 C9.76724385,1.73827452 9.034375,2.4603211 9.03319102,3.35063791 L9.03319102,7.71905824 L40.0366624,7.71905824 Z" id="Shape" fill="#24527a"/>
                    <polygon id="Path" fill="#0635C9" points="21.510116 29.2393868 23.2746054 29.2393868 23.2746054 30.0745202 21.510116 30.0745202"/>
                    <g id="Group" transform="translate(0.000000, 2.586621)" fill="#43D92D">
                        <path d="M48.9254108,42.4892126 C48.9246214,42.2583753 48.8299049,42.0372534 48.6629671,41.875201 L43.2743879,36.6292882 C43.1291559,36.4893868 42.9397229,36.4019485 42.7372665,36.3825177 L42.6251853,36.3724137 C42.595981,36.370082 42.5644088,36.3685275 42.5383618,36.3685275 L39.1743476,36.3848494 L39.1743476,34.1149496 C39.1719797,32.2655312 37.6498067,30.7666434 35.7716575,30.7639232 L23.2746054,30.7639232 L23.2746054,27.4878993 L21.510116,27.4878993 L21.510116,30.7639232 L9.01306384,30.7639232 C7.13491465,30.7666434 5.61274167,32.2655312 5.61037371,34.1149496 L5.61037371,36.5150353 L3.07591812,36.527471 C1.4160116,36.535632 0.0769571773,37.8674153 0.0852448454,39.5019297 L0.161018041,52.4187125 C0.169700437,54.0466204 1.51191207,55.3624705 3.16550416,55.3636364 L3.17931701,55.3636364 L13.9825226,55.3127278 C14.7801144,55.3096189 15.5429768,54.9940635 16.1041721,54.4360125 C16.6649726,53.8779615 16.9775371,53.1232714 16.9731959,52.3378806 L16.913998,42.7013963 L16.913998,42.6131808 C16.9132088,42.3827321 16.8184923,42.1616102 16.6515544,41.9991691 L11.2629752,36.7532563 C11.1177433,36.613355 10.9283103,36.5259166 10.7258537,36.5068744 L10.6137726,36.4963818 C10.5845683,36.4940502 10.5529961,36.4924957 10.526949,36.4924957 L7.37486311,36.5076517 L7.37486311,34.1149496 C7.37644171,33.2246329 8.10891594,32.502975 9.01306384,32.5014204 L35.7716575,32.5014204 C36.6762,32.502975 37.4086743,33.2246329 37.4102529,34.1149496 L37.4102529,36.3922331 L35.0873309,36.4035029 C33.4274243,36.4116638 32.0883698,37.7434472 32.0966575,39.3779615 L32.1724307,52.2947443 C32.1807185,53.9226522 33.5233247,55.2381137 35.1769169,55.2396682 L35.1907297,55.2396682 L45.9939353,55.1887597 C46.7915271,55.1852621 47.5543895,54.8697068 48.1155848,54.3116557 C48.6763853,53.7539933 48.9889497,52.9989146 48.9846085,52.2135238 L48.9254108,42.5774281 L48.9254108,42.4892126 Z M13.9055654,41.7683319 L12.7752819,41.7745497 L12.7697567,41.7745497 C12.087798,41.7737726 11.5333119,41.2308774 11.5289707,40.5585737 L11.5238402,39.4502439 L13.9055654,41.7683319 Z M9.75303638,38.2338792 L9.76448136,40.5671232 C9.77474227,42.195031 11.1169539,43.5101039 12.7697567,43.5120471 L12.7843588,43.5120471 L15.1546392,43.5007772 L15.2087065,52.3479846 C15.2106798,52.672478 15.0816286,52.98337 14.8499678,53.2138186 C14.6179124,53.4438786 14.30298,53.5744533 13.9734456,53.5756191 L3.17142397,53.6265276 L3.16550416,53.6265276 C2.48275615,53.6253618 1.92905928,53.0824667 1.92550744,52.410163 L1.84973424,39.4922143 C1.84657702,38.8175788 2.39948454,38.2684659 3.08499514,38.2649683 L9.75303638,38.2338792 Z M45.9169781,41.6443637 L44.7866946,41.6505816 L44.7811695,41.6505816 C44.098816,41.6494158 43.5447245,41.1065207 43.5403834,40.4342169 L43.5352529,39.3262757 L45.9169781,41.6443637 Z M46.8609858,53.0902391 C46.629325,53.3202991 46.3143927,53.4504851 45.9848582,53.4512624 L35.1828366,53.5021708 L35.1769169,53.5021708 C34.4941688,53.5013937 33.9404719,52.9584986 33.9369201,52.2858062 L33.8611469,39.3682461 C33.8579897,38.6936106 34.4108972,38.1441091 35.0964078,38.1410002 L41.764449,38.109911 L41.775894,40.4431551 C41.7861549,42.071063 43.1283666,43.3861359 44.7811695,43.3880789 L44.7957716,43.3880789 L47.1660518,43.3768091 L47.2201192,52.2240164 C47.2224871,52.5481213 47.0930412,52.8597904 46.8609858,53.0902391 L46.8609858,53.0902391 Z" id="Shape"/>
                        <path d="M23.8571118,0.128631564 L23.8507974,0.128631564 C22.6948614,0.127077105 21.7563789,1.04809442 21.7548003,2.18634751 C21.752827,3.324212 22.6881524,4.24872693 23.8440882,4.25028139 L23.8507974,4.25028139 C25.0067332,4.25183585 25.9448212,3.33042984 25.9463998,2.19256534 C25.9483731,1.05431226 25.0126531,0.130574614 23.8571118,0.128631564 Z M24.0824582,2.4179621 C24.0208923,2.47858593 23.9372262,2.51278404 23.8507974,2.51278404 L23.8492188,2.51278404 C23.6680735,2.51161827 23.5216575,2.36705352 23.5216575,2.18867925 C23.5212629,2.10318396 23.5563869,2.0207976 23.6179526,1.96017367 C23.679913,1.89954974 23.7635793,1.86535163 23.8507974,1.86612881 L23.8515866,1.86612881 C24.032732,1.86690609 24.1795425,2.01185943 24.1795425,2.18984511 C24.1783585,2.27572899 24.1440238,2.35772676 24.0824582,2.4179621 Z" id="Shape"/>
                        <path d="M18.411308,0.111143918 C17.2553721,0.109589358 16.3164948,1.03138405 16.3145216,2.16963714 C16.312943,3.30827881 17.2490577,4.23201646 18.4049936,4.23395961 L18.411308,4.23395961 C19.5672439,4.23551407 20.5061211,3.31410806 20.5073051,2.17585498 C20.5092784,1.03760189 19.5735583,0.113086967 18.4176224,0.111143918 L18.411308,0.111143918 Z M18.7400531,2.17391183 C18.7392639,2.3522861 18.5924533,2.49607367 18.411308,2.49685085 L18.4097294,2.49685085 C18.3229059,2.49568508 18.2392397,2.46109828 18.177674,2.40125163 C18.1165029,2.34023911 18.0817735,2.25785265 18.0821681,2.17196878 C18.0821681,2.08608491 18.1172922,2.00369854 18.1792526,1.94307461 C18.2408183,1.88245069 18.3240899,1.84864116 18.411308,1.84864116 L18.4120973,1.84864116 C18.4993154,1.84902985 18.5829817,1.88361656 18.6445474,1.94462907 C18.7057185,2.00564159 18.7400531,2.08802796 18.7400531,2.17391183 Z" id="Shape"/>
                        <path d="M12.97024,0.0940447616 C11.8143041,0.0921017118 10.8754268,1.01389631 10.8742429,2.15214939 C10.8722696,3.29079117 11.8079897,4.21452881 12.9643202,4.21647186 L12.9718186,4.21647186 C14.1277546,4.21802642 15.0666317,3.29700901 15.0686051,2.15836723 C15.069789,1.02011415 14.134069,0.0955993208 12.978133,0.0940447616 L12.97024,0.0940447616 Z M13.2997745,2.15642418 C13.2985905,2.33440987 13.1525693,2.47819734 12.9718186,2.47936321 L12.97024,2.47936321 C12.8830219,2.47936321 12.798961,2.4447765 12.7373953,2.38376399 C12.6758296,2.32313996 12.6418895,2.24075369 12.6430735,2.15525831 C12.6430735,1.97688414 12.7894894,1.8319307 12.97024,1.83154211 L12.9718186,1.83154211 C13.0590367,1.83270798 13.142703,1.8665175 13.205058,1.92714143 C13.2662291,1.98815395 13.3001691,2.07054031 13.2997745,2.15642418 Z" id="Shape"/>
                    </g>
                </g>
            </g>
        </g>
    </g>
</svg>