<?xml version="1.0" encoding="UTF-8"?>
<svg width="59px" height="48px" viewBox="0 0 59 48" version="1.1" xmlns="http://www.w3.org/2000/svg" xmlns:xlink="http://www.w3.org/1999/xlink">
    <!-- Generator: Sketch 54 (76480) - https://sketchapp.com -->
    <title>Dynamic Message</title>
    <desc>Created with Sketch.</desc>
    <g id="Page-1" stroke="none" stroke-width="1" fill="none" fill-rule="evenodd">
        <g id="Biztalk" transform="translate(-1197.000000, -1866.000000)" fill-rule="nonzero">
            <g id="Group-4" transform="translate(1169.000000, 1839.000000)">
                <g id="Dynamic-Message" transform="translate(28.000000, 27.000000)">
                    <path d="M41.6257669,44.0045541 L7.84253579,44.0045541 C5.6443635,44.0021984 3.8632972,42.2218907 3.8609407,40.0246546 L3.8609407,17.4205401 C3.86046942,16.9654523 3.93917759,16.513191 4.09235209,16.084485 C2.50782046,16.6507538 1.44973799,18.1507538 1.44785276,19.8326004 L1.44785276,42.4367149 C1.45020926,44.633951 3.23127556,46.4142587 5.42944785,46.4166144 L39.2126789,46.4166144 C40.8952421,46.4147299 42.3958812,45.3570981 42.9628626,43.7732412 C42.5335027,43.9268215 42.08152,44.0050251 41.6257669,44.0045541 Z" id="Path" fill="#D4E1F4"/>
                    <path d="M39.5506055,13.8043342 L39.5633308,13.8043342 L48.9668328,13.6639447 C49.4329547,13.6568781 49.8057579,13.2733983 49.7986883,12.8070037 C49.7916188,12.3406093 49.4079755,11.9684359 48.9413822,11.9755025 L39.5383516,12.115892 C39.0722297,12.1191897 38.6965986,12.5003141 38.6998978,12.9662375 C38.7031969,13.4326319 39.0840124,13.8076319 39.5506055,13.8043342 L39.5506055,13.8043342 Z" id="Path" fill="#2282FF"/>
                    <path d="M44.0925837,17.6942525 L39.6227154,17.7616207 C39.1565935,17.7649183 38.7809624,18.1455716 38.7842616,18.6119661 C38.7875607,19.0778894 39.1683761,19.4533605 39.6349693,19.4500629 L39.6476946,19.4500629 L44.1180343,19.3831658 C44.5846275,19.3798681 44.9602585,18.9992148 44.9569594,18.5328204 C44.9536602,18.0664258 44.5728447,17.6914258 44.1062516,17.6947236 L44.0925837,17.6942525 Z" id="Path" fill="#2282FF"/>
                    <path d="M55.955833,23.7130968 C59.8078188,18.6887563 60.0123658,11.7644472 56.4634298,6.52198492 C52.9144939,1.27952261 46.4076399,-1.1056847 40.3094086,0.600188382 C34.2107059,2.30653266 29.8883563,7.72094846 29.5772942,14.0431846 C29.5617411,14.356941 29.5565567,14.6702261 29.5617411,14.986338 C29.5650402,15.2360238 29.575409,15.4842965 29.5919047,15.7316269 C29.8209595,19.3709171 31.4036059,22.7925565 34.0283103,25.3247487 C34.3082662,25.5961055 34.5962343,25.8542714 34.8931573,26.1001884 L24.8317118,34.6300251 C23.5285499,35.7408919 21.6117475,35.7423052 20.3071719,34.6328517 L1.76504183,18.9384422 L1.38988206,18.6213882 C1.17685164,18.4418969 0.8893549,18.3787688 0.620710284,18.4527324 C0.352065789,18.5262248 0.137150145,18.7273869 0.0457166748,18.9902639 L0.0457166748,18.9916771 C0.00282783742,19.1179334 -0.00989742495,19.2526696 0.00942612474,19.3850503 C0.0372332229,19.5899812 0.140449198,19.7770101 0.299279491,19.9093907 L1.68916155,21.0866834 L19.2156266,35.9208543 C21.1489248,37.566897 23.991844,37.5654837 25.9237283,35.9184988 L36.1986755,27.2072864 C36.2222409,27.1870289 36.2448636,27.1658291 36.2660723,27.1432161 L36.2844533,27.125314 C38.4227697,28.5141332 40.8891152,29.3178392 43.4355828,29.455402 C43.7890626,29.4756596 44.1444274,29.4831973 44.5007349,29.4780151 C44.7095236,29.4742462 44.9173696,29.4671796 45.1247444,29.455402 C46.5791955,29.3710741 48.0133803,29.0705088 49.3792258,28.562657 L57.2335442,29.8157977 C57.2778469,29.8228643 57.3226211,29.8266332 57.3673952,29.8266332 C57.6530068,29.8261621 57.9192948,29.6815327 58.0752972,29.4422111 C58.2308282,29.2028894 58.2553361,28.9009108 58.1398661,28.6399183 L55.955833,23.7130968 Z M49.4235285,26.8596106 C49.3792258,26.8534862 49.3344517,26.8501884 49.2896776,26.8501884 C49.1855189,26.8501884 49.0818315,26.8695038 48.9842711,26.906721 C44.8909765,28.4981156 40.2702901,27.9177136 36.6982601,25.3629083 C36.6775227,25.3464195 36.6572565,25.3318154 36.6365191,25.3172111 C36.1312788,24.9506909 35.6524317,24.5483668 35.2046907,24.1135364 C30.1051572,19.1970791 29.8577215,11.1124372 34.6476067,5.89353021 C39.4370207,0.674623116 47.5161522,0.225188503 52.8555806,4.88065327 C58.1950089,9.53611803 58.8468255,17.5976758 54.3246421,23.0497802 C54.1205666,23.2961683 54.0739072,23.6367776 54.2039877,23.9293341 L55.9657304,27.9040515 L49.4235285,26.8596106 Z" id="Shape" fill="#43D92D"/>
                    <path d="M45.1247444,29.455402 L45.1247444,42.3161118 C45.1261583,43.6394472 44.662393,44.9208543 43.814513,45.9365578 C43.7730381,46.0147612 43.7202518,46.0858982 43.6575681,46.1476131 C43.6184496,46.1857726 43.576032,46.2201634 43.5307866,46.2503141 C42.464692,47.3592965 40.9923313,47.9853957 39.4539877,47.9844535 L5.67075665,47.9844535 C4.13005659,47.9849246 2.65581068,47.356941 1.58924463,46.245603 C1.54494191,46.2163945 1.50393823,46.1834171 1.46576246,46.1466708 C1.40307864,46.084485 1.34982106,46.0128769 1.30928867,45.9342023 C0.462351389,44.9189698 -0.000942612474,43.6385051 1.79412378e-16,42.3161118 L1.79412378e-16,19.7115264 C1.79412378e-16,19.6017588 0.0037704499,19.4919912 0.00942612474,19.3850503 C0.0169670245,19.2521984 0.0287496503,19.1217022 0.0457166748,18.9916771 L0.0457166748,18.9902639 C0.411921591,16.1636307 2.81888257,14.0464824 5.67075665,14.0431846 L29.5772942,14.0431846 C29.5617411,14.356941 29.5565567,14.6702261 29.5617411,14.986338 C29.5650402,15.2360238 29.575409,15.4842965 29.5919047,15.7316269 L5.67075665,15.7316269 C3.47211308,15.7320979 1.68963283,17.5138191 1.68916155,19.7115264 L1.68916155,42.3161118 C1.688219,42.9803706 1.85459007,43.634265 2.17319309,44.2170226 L12.2633883,33.9007538 C12.5895322,33.5672111 13.1244648,33.5610867 13.4576782,33.8875628 C13.7913632,34.2135678 13.7970187,34.7478016 13.4708749,35.0813442 L3.28170536,45.4979585 C3.96981247,46.0171169 4.80873757,46.2974246 5.67075665,46.2960113 L39.4539877,46.2960113 C40.3136503,46.2969535 41.1506902,46.0185301 41.838326,45.5026696 L31.5921284,35.0822864 C31.2655131,34.7496859 31.2702262,34.2154523 31.6029685,33.8885051 C31.9357106,33.5620289 32.4706432,33.56674 32.7972584,33.8993404 L42.9482522,44.223147 C43.2682691,43.6385051 43.4360541,42.9827262 43.4355828,42.3161118 L43.4355828,29.455402 C43.7890626,29.4756596 44.1444274,29.4831973 44.5007349,29.4780151 C44.7095236,29.4742462 44.9173696,29.4671796 45.1247444,29.455402 Z" id="Path" fill="#2282FF"/>
                </g>
            </g>
        </g>
    </g>
</svg>