<?xml version="1.0" encoding="UTF-8"?>
<svg width="65px" height="66px" viewBox="0 0 65 66" version="1.1" xmlns="http://www.w3.org/2000/svg" xmlns:xlink="http://www.w3.org/1999/xlink">
    <!-- Generator: Sketch 54 (76480) - https://sketchapp.com -->
    <title>iOS Application</title>
    <desc>Created with Sketch.</desc>
    <g id="Page-1" stroke="none" stroke-width="1" fill="none" fill-rule="evenodd">
        <g id="iOs-Development" transform="translate(-400.000000, -1422.000000)" fill-rule="nonzero">
            <g id="Group-4" transform="translate(392.000000, 1422.000000)">
                <g id="iOS-Application" transform="translate(8.000000, 0.000000)">
                    <rect id="Rectangle" fill="#D4E1F4" x="1.49769585" y="10.6615385" width="4.49308756" height="42.7954751"/>
                    <path d="M12.281106,1.49321267 L7.78801843,1.49321267 C4.31557734,1.49708038 1.50157517,4.30265914 1.49769585,7.76470588 L1.49769585,9.01900452 L5.99078341,9.01900452 L5.99078341,7.76470588 C5.99466273,4.30265914 8.80866489,1.49708038 12.281106,1.49321267 Z" id="Path" fill="#D4E1F4"/>
                    <path d="M5.99078341,58.2352941 L5.99078341,55.0995475 L1.49769585,55.0995475 L1.49769585,58.2352941 C1.50157517,61.6973409 4.31557734,64.5029196 7.78801843,64.5067873 L12.281106,64.5067873 C8.80866489,64.5029196 5.99466273,61.6973409 5.99078341,58.2352941 L5.99078341,58.2352941 Z" id="Path" fill="#D4E1F4"/>
                    <path d="M6.96428571,66 L30.9274194,66 C34.7305171,65.9956388 37.812446,62.9229353 37.8168203,59.1312217 L37.8168203,50.5609276 L36.0195853,50.5609276 L36.0195853,53.4570136 L1.87211982,53.4570136 L1.87211982,10.7511312 L8.31221198,10.7511312 C8.80850473,10.7511312 9.21082949,10.3500108 9.21082949,9.85520362 C9.21082949,9.36039647 8.80850473,8.95927602 8.31221198,8.95927602 L1.87211982,8.95927602 L1.87211982,6.86877828 C1.87525629,4.06616739 4.15326034,1.79498229 6.96428571,1.7918552 L30.9274194,1.7918552 C33.7384447,1.79498229 36.0164488,4.06616739 36.0195853,6.86877828 L37.8168203,6.86877828 C37.812446,3.07706472 34.7305171,0.00436118053 30.9274194,0 L6.96428571,0 C3.16118801,0.00436118053 0.0792590671,3.07706472 0.0748847926,6.86877828 L0.0748847926,59.1312217 C0.0792590671,62.9229353 3.16118801,65.9956388 6.96428571,66 Z M1.87211982,55.2488688 L36.0195853,55.2488688 L36.0195853,59.1312217 C36.0164488,61.9338326 33.7384447,64.2050177 30.9274194,64.2081448 L6.96428571,64.2081448 C4.15326034,64.2050177 1.87525629,61.9338326 1.87211982,59.1312217 L1.87211982,55.2488688 Z" id="Shape" fill="#24527a"/>
                    <path d="M15.9504608,8.95927602 C15.4541681,8.95927602 15.0518433,9.36039647 15.0518433,9.85520362 C15.0518433,10.3500108 15.4541681,10.7511312 15.9504608,10.7511312 L19.030023,10.7511312 C19.5263158,10.7511312 19.9286406,10.3500108 19.9286406,9.85520362 C19.9286406,9.36039647 19.5263158,8.95927602 19.030023,8.95927602 L15.9504608,8.95927602 Z" id="Path" fill="#24527a"/>
                    <path d="M11.2617742,8.95927602 C10.7654814,8.95927602 10.3631567,9.36039647 10.3631567,9.85520362 C10.3631567,10.3500108 10.7654814,10.7511312 11.2617742,10.7511312 L12.9266129,10.7511312 C13.4229057,10.7511312 13.8252304,10.3500108 13.8252304,9.85520362 C13.8252304,9.36039647 13.4229057,8.95927602 12.9266129,8.95927602 L11.2617742,8.95927602 Z" id="Path" fill="#24527a"/>
                    <path d="M18.9458525,62.8642534 C20.6828772,62.8642534 22.0910138,61.4603318 22.0910138,59.7285068 C22.0910138,57.9966818 20.6828772,56.5927602 18.9458525,56.5927602 C17.2088279,56.5927602 15.8006912,57.9966818 15.8006912,59.7285068 C15.8025897,61.4595472 17.2096149,62.8623606 18.9458525,62.8642534 Z M18.9458525,58.3846154 C19.6902917,58.3846154 20.2937788,58.9862961 20.2937788,59.7285068 C20.2937788,60.4707175 19.6902917,61.0723982 18.9458525,61.0723982 C18.2014134,61.0723982 17.5979263,60.4707175 17.5979263,59.7285068 C17.598834,58.9866713 18.2017897,58.3855204 18.9458525,58.3846154 Z" id="Shape" fill="#24527a"/>
                    <path d="M25.9727419,51.7266787 L59.0342281,51.7266787 C59.1513889,51.7267037 59.2674124,51.7037714 59.3757028,51.6591855 C62.5589939,51.195361 64.9205328,48.4757077 64.9251152,45.2682353 L64.9251152,26.6757964 C64.9251152,26.1809892 64.5227904,25.7798688 64.0264977,25.7798688 L53.7657834,25.7798688 L53.7657834,8.69781448 C53.7638025,6.941573 52.336307,5.51835054 50.5747926,5.51637557 L21.3879954,5.51637557 C19.626481,5.51835054 18.1989855,6.941573 18.1970046,8.69781448 L18.1970046,43.9740679 C18.2018741,48.2536458 21.6803152,51.7217414 25.9727419,51.7266787 Z M63.1278802,45.2677873 C63.1278803,46.9351588 62.2356775,48.4758736 60.787356,49.3095594 C59.3390346,50.1432452 57.554629,50.1432452 56.1063075,49.3095594 C54.6579861,48.4758736 53.7657833,46.9351588 53.7657834,45.2677873 L53.7657834,27.571724 L63.1278802,27.571724 L63.1278802,45.2677873 Z M19.9942396,8.69781448 C19.9951474,7.9307438 20.6186217,7.30913587 21.3879954,7.30823077 L50.5747926,7.30823077 C51.3441663,7.30913587 51.9676406,7.9307438 51.9685484,8.69781448 L51.9685484,45.2677873 C51.9680283,47.0318803 52.6934905,48.7189285 53.9754608,49.9348235 L25.9727419,49.9348235 C22.6724217,49.9310382 19.9979537,47.264509 19.9942396,43.9740679 L19.9942396,8.69781448 Z" id="Shape" fill="#43D92D"/>
                    <path d="M23.9096659,21.4037104 L46.4896774,21.4037104 C46.9859702,21.4037104 47.3882949,21.00259 47.3882949,20.5077828 C47.3882949,20.0129757 46.9859702,19.6118552 46.4896774,19.6118552 L23.9096659,19.6118552 C23.4133732,19.6118552 23.0110484,20.0129757 23.0110484,20.5077828 C23.0110484,21.00259 23.4133732,21.4037104 23.9096659,21.4037104 Z" id="Path" fill="#43D92D"/>
                    <path d="M23.9096659,32.3743439 L46.4896774,32.3743439 C46.9859702,32.3743439 47.3882949,31.9732234 47.3882949,31.4784163 C47.3882949,30.9836091 46.9859702,30.5824887 46.4896774,30.5824887 L23.9096659,30.5824887 C23.4133732,30.5824887 23.0110484,30.9836091 23.0110484,31.4784163 C23.0110484,31.9732234 23.4133732,32.3743439 23.9096659,32.3743439 Z" id="Path" fill="#43D92D"/>
                    <path d="M23.9096659,47.2303167 L33.079159,47.2303167 C33.5754517,47.2303167 33.9777765,46.8291963 33.9777765,46.3343891 C33.9777765,45.839582 33.5754517,45.4384615 33.079159,45.4384615 L23.9096659,45.4384615 C23.4133732,45.4384615 23.0110484,45.839582 23.0110484,46.3343891 C23.0110484,46.8291963 23.4133732,47.2303167 23.9096659,47.2303167 L23.9096659,47.2303167 Z" id="Path" fill="#43D92D"/>
                    <path d="M23.9096659,38.0881222 L33.079159,38.0881222 C33.5754517,38.0881222 33.9777765,37.6870017 33.9777765,37.1921946 C33.9777765,36.6973874 33.5754517,36.296267 33.079159,36.296267 L23.9096659,36.296267 C23.4133732,36.296267 23.0110484,36.6973874 23.0110484,37.1921946 C23.0110484,37.6870017 23.4133732,38.0881222 23.9096659,38.0881222 L23.9096659,38.0881222 Z" id="Path" fill="#43D92D"/>
                    <path d="M23.9096659,42.6592941 L33.079159,42.6592941 C33.5754517,42.6592941 33.9777765,42.2581737 33.9777765,41.7633665 C33.9777765,41.2685594 33.5754517,40.8674389 33.079159,40.8674389 L23.9096659,40.8674389 C23.4133732,40.8674389 23.0110484,41.2685594 23.0110484,41.7633665 C23.0110484,42.2581737 23.4133732,42.6592941 23.9096659,42.6592941 L23.9096659,42.6592941 Z" id="Path" fill="#43D92D"/>
                    <path d="M23.9096659,26.6604163 L46.4896774,26.6604163 C46.9859702,26.6604163 47.3882949,26.2592958 47.3882949,25.7644887 C47.3882949,25.2696815 46.9859702,24.8685611 46.4896774,24.8685611 L23.9096659,24.8685611 C23.4133732,24.8685611 23.0110484,25.2696815 23.0110484,25.7644887 C23.0110484,26.2592958 23.4133732,26.6604163 23.9096659,26.6604163 L23.9096659,26.6604163 Z" id="Path" fill="#43D92D"/>
                    <path d="M40.4592051,37.7075023 C40.3543664,37.3957195 39.9832373,37.1941357 39.512212,37.1941357 C39.0491244,37.1941357 38.6824885,37.3957195 38.5777995,37.7091448 L36.0152419,46.0285792 C36.0018941,46.0737599 35.9962244,46.1208492 35.9984677,46.1678959 C35.9984677,46.5641946 36.5376382,46.8075882 36.9234447,46.8075882 C37.2896313,46.8075882 37.4236751,46.6255656 37.4719009,46.4711674 L37.9844124,44.7017104 L41.0530415,44.7017104 L41.5660023,46.47281 C41.6347465,46.6918643 41.8198618,46.8075882 42.101129,46.8075882 C42.5354608,46.8075882 43.0389862,46.5282081 43.0389862,46.1678959 C43.0369036,46.1208278 43.027088,46.0744193 43.0099309,46.0305204 L40.4592051,37.7075023 Z M40.7004839,43.4608507 L38.3240899,43.4608507 L39.512212,39.3976697 L40.7004839,43.4608507 Z" id="Shape" fill="#43D92D"/>
                    <path d="M44.5871544,37.2705882 C44.2056912,37.2705882 43.9069009,37.4945701 43.9069009,37.7818643 L43.9069009,46.2957149 C43.9069009,46.5824118 44.2064401,46.806991 44.5871544,46.806991 L46.8667972,46.806991 C48.7838479,46.806991 49.8397235,45.7635339 49.8397235,43.8687964 L49.8397235,40.2089321 C49.8397235,38.3141946 48.7839977,37.2705882 46.8667972,37.2705882 L44.5871544,37.2705882 Z M46.8667972,45.4505566 L45.4218203,45.4505566 L45.4218203,38.6265747 L46.8667972,38.6265747 C47.834159,38.6265747 48.3246544,39.1587557 48.3246544,40.2084842 L48.3246544,43.8683484 C48.3246544,44.9189729 47.834159,45.4511538 46.8667972,45.4511538 L46.8667972,45.4505566 Z" id="Shape" fill="#43D92D"/>
                </g>
            </g>
        </g>
    </g>
</svg>