<?xml version="1.0" encoding="UTF-8"?>
<svg width="57px" height="57px" viewBox="0 0 57 57" version="1.1" xmlns="http://www.w3.org/2000/svg" xmlns:xlink="http://www.w3.org/1999/xlink">
    <!-- Generator: Sketch 54 (76480) - https://sketchapp.com -->
    <title>Migration/upgrading</title>
    <desc>Created with Sketch.</desc>
    <g id="Page-1" stroke="none" stroke-width="1" fill="none" fill-rule="evenodd">
        <g id="Biztalk" transform="translate(-419.000000, -1443.000000)" fill-rule="nonzero">
            <g id="Group-4" transform="translate(391.000000, 1413.000000)">
                <g id="Migration/upgrading" transform="translate(28.000000, 30.000000)">
                    <path d="M21.0933825,38.3772028 C18.8257023,38.3740832 16.9882064,36.5273232 16.9854911,34.2481187 L16.9854911,15.5371949 C16.9858789,15.3453439 16.9994556,15.153883 17.0262208,14.9635919 C14.9994284,15.252148 13.4916499,16.994794 13.4893225,19.052902 L13.4893225,37.7626559 C13.4920378,40.0422504 15.3295337,41.8890105 17.596826,41.89213 L40.5630035,41.89213 L42.1762916,38.3772028 L21.0933825,38.3772028 Z" id="Path" fill="#D4E1F4"/>
                    <path d="M43.4866276,18.5631362 L43.4866276,38.5238205 C43.4846881,40.3830587 41.9858314,41.8901804 40.1359225,41.89213 L16.8396396,41.89213 C14.9897308,41.8901804 13.4908741,40.3830587 13.4889346,38.5238205 L13.4889346,18.5631362 C13.4908741,16.7035081 14.9897308,15.1967765 16.8396396,15.1948268 L40.1359225,15.1948268 C41.9858314,15.1967765 43.4846881,16.7035081 43.4866276,18.5631362 Z M41.7492106,38.5238205 L41.7492106,23.7380418 L15.2263515,23.7380418 L15.2263515,38.5238205 C15.2267395,39.4191248 15.9486267,40.144415 16.8396396,40.1455847 L40.1359225,40.1455847 C41.0261596,40.144415 41.7480469,39.4191248 41.7492106,38.5238205 L41.7492106,38.5238205 Z M41.7492106,21.9914965 L41.7492106,18.5631362 C41.7480469,17.667442 41.0261596,16.941762 40.1359225,16.9413721 L16.8396396,16.9413721 C15.9486267,16.941762 15.2267395,17.667442 15.2263515,18.5631362 L15.2263515,21.9914965 L41.7492106,21.9914965 Z" id="Shape" fill="#24527a"/>
                    <g id="Group" fill="#43D92D">
                        <path d="M56.1066597,27.6702058 C55.6268238,27.6702058 55.2377572,28.0609265 55.2377572,28.5432835 C55.2377572,34.7909164 52.5596758,41.5123276 48.0735791,46.5226782 C43.0347208,52.1506951 36.1447899,55.2495554 28.6699015,55.2495554 C23.9952839,55.2495554 19.3152357,53.9171273 15.1355823,51.3969393 C12.1118794,49.5704562 9.44465919,47.2062445 7.26386928,44.4193369 L15.3822885,44.6887861 C15.6964898,44.7055536 15.9940113,44.5499672 16.1619732,44.2828577 C16.3295473,44.0153582 16.3407965,43.6780593 16.191066,43.4004214 C16.0409475,43.1223936 15.7535115,42.94809 15.4396981,42.9438006 L5.87013418,42.6271686 C5.53188287,42.4427266 5.11372362,42.5035574 4.84180363,42.7769059 C4.56988374,43.0506445 4.50898301,43.4710007 4.69207317,43.8106392 L5.00782616,53.4304811 C5.01209302,53.7463332 5.18548563,54.0352794 5.46206035,54.1857966 C5.7382472,54.3363137 6.07378316,54.3250055 6.3394967,54.156551 C6.60559803,53.9884865 6.75959544,53.6886219 6.74369145,53.3727698 L6.5113376,46.2618077 C8.70764373,48.88572 11.3193938,51.1263203 14.2422419,52.8939224 C18.6911,55.5774956 23.6810826,56.9961006 28.6699015,56.9961006 C36.6436329,56.9961006 43.9928408,53.6909615 49.3652957,47.6905512 C51.7644749,44.9991791 53.6721812,41.9026585 55.0007486,38.5448774 C56.292853,35.2650845 56.9751742,31.8070887 56.9751742,28.5432835 C56.9751742,28.0609265 56.5861076,27.6702058 56.1066597,27.6702058 Z" id="Path"/>
                        <path d="M28.3048848,1.83740149 C32.9798903,1.83740149 37.6599385,3.1698295 41.8399799,5.6896276 C44.862907,7.51611074 47.530515,9.88071232 49.7116929,12.6672299 L41.5924978,12.3973908 C41.2790723,12.3814032 40.980775,12.5369897 40.813201,12.8040992 C40.6456269,13.0712087 40.6347656,13.4081176 40.7844961,13.6861454 C40.9342267,13.9637833 41.2216627,14.1380869 41.5358641,14.1431562 L51.1054279,14.4597882 C51.4432913,14.6442303 51.8614506,14.5830096 52.1333706,14.3096609 C52.4052905,14.0363124 52.4661912,13.6159562 52.2827132,13.2755377 L51.967736,3.65608581 C51.9634691,3.34023374 51.7893007,3.05167738 51.5135017,2.90077033 C51.236927,2.75025309 50.9010031,2.76117144 50.6356775,2.93001582 C50.3699641,3.09847029 50.2151908,3.39833491 50.2318706,3.71340715 L50.4634486,10.8243693 C48.2675305,8.20123687 45.6553925,5.96063654 42.7333202,4.19264448 C38.2840742,1.50946122 33.2940917,0.0908562231 28.3048848,0.0908562231 C20.3315413,0.0908562231 12.9823334,3.39521538 7.60987854,9.39601576 C5.21069929,12.0877778 3.30260502,15.1835184 1.97442558,18.5416895 C0.682709059,21.8214823 1.42108547e-13,25.2798682 1.42108547e-13,28.5432835 C1.42108547e-13,29.0252504 0.388678631,29.4167511 0.868902439,29.4167511 C1.34873827,29.4167511 1.737417,29.0252504 1.737417,28.5432835 C1.737417,22.2956504 4.41549845,15.5738494 8.90198304,10.5638888 C13.9400656,4.93626179 20.8307722,1.83740149 28.3048848,1.83740149 L28.3048848,1.83740149 Z" id="Path"/>
                        <path d="M38.6490908,25.3656551 L30.8774567,25.3656551 C30.3980087,25.3656551 30.0089421,25.7567658 30.0089421,26.2387327 C30.0089421,26.7214796 30.3980087,27.1122003 30.8774567,27.1122003 L38.6490908,27.1122003 C39.1289266,27.1122003 39.5176054,26.7214796 39.5176054,26.2387327 C39.5176054,25.7567658 39.1289266,25.3656551 38.6490908,25.3656551 L38.6490908,25.3656551 Z" id="Path"/>
                        <path d="M38.6490908,28.9609102 L30.8774567,28.9609102 C30.3980087,28.9609102 30.0089421,29.3524107 30.0089421,29.8343778 C30.0089421,30.3167346 30.3980087,30.7074554 30.8774567,30.7074554 L38.6490908,30.7074554 C39.1289266,30.7074554 39.5176054,30.3167346 39.5176054,29.8343778 C39.5176054,29.3524107 39.1289266,28.9609102 38.6490908,28.9609102 Z" id="Path"/>
                        <path d="M38.6490908,32.5553853 L30.8774567,32.5553853 C30.3980087,32.5553853 30.0089421,32.946496 30.0089421,33.4288529 C30.0089421,33.9108198 30.3980087,34.3019306 30.8774567,34.3019306 L38.6490908,34.3019306 C39.1289266,34.3019306 39.5176054,33.9108198 39.5176054,33.4288529 C39.5176054,32.946496 39.1289266,32.5553853 38.6490908,32.5553853 Z" id="Path"/>
                        <path d="M38.6490908,36.1494705 L30.8774567,36.1494705 C30.3980087,36.1494705 30.0089421,36.5401913 30.0089421,37.0229381 C30.0089421,37.505295 30.3980087,37.8960158 30.8774567,37.8960158 L38.6490908,37.8960158 C39.1289266,37.8960158 39.5176054,37.505295 39.5176054,37.0229381 C39.5176054,36.5401913 39.1289266,36.1494705 38.6490908,36.1494705 L38.6490908,36.1494705 Z" id="Path"/>
                        <path d="M28.6004669,21.4323213 C29.6540111,21.4311515 30.508561,20.5736714 30.513216,19.514982 L30.513216,19.5099127 C30.5139917,18.4492735 29.6602175,17.587894 28.6055096,17.5851644 L28.5993031,17.5851644 C27.5422678,17.5836047 26.6842267,18.4438143 26.6834508,19.5060133 C26.6818992,20.5686022 27.537613,21.4311515 28.5942604,21.4323213 L28.6004669,21.4323213 Z M28.4243589,19.5075731 C28.4235832,19.4607802 28.4425904,19.415937 28.4767258,19.3839618 C28.5089218,19.350037 28.5535305,19.3313198 28.6004669,19.3317097 C28.647791,19.33015 28.6927877,19.349257 28.7245958,19.3839618 C28.7575675,19.4167168 28.7761868,19.46156 28.775799,19.5083529 C28.7761868,19.5559258 28.7571796,19.6011589 28.7234321,19.633134 C28.6912361,19.6678388 28.6462394,19.6869459 28.5993031,19.6857761 C28.5023275,19.6846062 28.4243589,19.6050583 28.4243589,19.5075731 Z" id="Shape"/>
                        <path d="M17.3035714,37.0229381 C17.3035714,37.505295 17.6922501,37.8960158 18.172086,37.8960158 L27.1450553,37.8960158 C27.6248911,37.8960158 28.0135697,37.505295 28.0135697,37.0229381 L28.0135697,26.2387327 C28.0135697,25.7567658 27.6248911,25.3656551 27.1450553,25.3656551 L18.172086,25.3656551 C17.692638,25.366435 17.3039593,25.7567658 17.3035714,26.2387327 L17.3035714,37.0229381 Z M19.0409884,27.1122003 L26.2761528,27.1122003 L26.2761528,36.1494705 L19.0409884,36.1494705 L19.0409884,27.1122003 Z" id="Shape"/>
                        <path d="M23.9080057,21.4175035 C24.9627137,21.4178935 25.8188153,20.5600236 25.8219186,19.4997743 L25.8219186,19.494705 C25.8207548,18.4348457 24.9685322,17.5754159 23.9142122,17.5699567 L23.9080057,17.5699567 C22.8513584,17.568007 21.9933171,18.4282167 21.9913776,19.4904157 C21.989826,20.5530046 22.844764,21.4155539 23.9021873,21.4175035 L23.9080057,21.4175035 Z M23.7318979,19.4935352 C23.7318979,19.4467423 23.7509051,19.4018991 23.7838768,19.3687541 C23.8168486,19.3356091 23.8614574,19.316502 23.9080057,19.316502 C24.0053694,19.3168919 24.0841137,19.3960499 24.0845016,19.4935352 C24.0848894,19.541108 24.0658822,19.5863411 24.0321346,19.619486 C23.9817073,19.6697885 23.9060662,19.6849961 23.8405107,19.6573104 C23.7745671,19.6300145 23.7318979,19.5648944 23.7318979,19.4935352 Z" id="Shape"/>
                        <path d="M19.2108898,21.4022959 L19.2174843,21.4022959 C20.2714163,21.4019059 21.1259664,20.5444259 21.1298454,19.4849565 L21.1298454,19.4771576 C21.1282938,18.4188581 20.2764591,17.5602082 19.2233027,17.5563089 L19.2174843,17.5563089 C18.1604489,17.5543591 17.3024077,18.4141788 17.301244,19.4763778 C17.2993045,20.5381869 18.1542424,21.400736 19.2108898,21.4022959 Z M19.0933553,19.3539363 C19.1259391,19.3204015 19.1709359,19.3020742 19.2174843,19.3028541 C19.3132962,19.3028541 19.3912647,19.3808423 19.3924284,19.4771576 L19.3924284,19.4798873 C19.3924284,19.5266802 19.373809,19.5715234 19.3408373,19.6046683 C19.3078656,19.6370335 19.2632568,19.6557506 19.2174843,19.6557506 L19.2159326,19.6557506 C19.1189569,19.6553607 19.0409884,19.5762027 19.0409884,19.4787174 C19.0406006,19.4315346 19.0592199,19.3866914 19.0933553,19.3539363 Z" id="Shape"/>
                    </g>
                </g>
            </g>
        </g>
    </g>
</svg>