<?xml version="1.0" encoding="UTF-8"?>
<svg width="53px" height="47px" viewBox="0 0 53 47" version="1.1" xmlns="http://www.w3.org/2000/svg" xmlns:xlink="http://www.w3.org/1999/xlink">
    <!-- Generator: Sketch 54 (76480) - https://sketchapp.com -->
    <title>Setting-up business</title>
    <desc>Created with Sketch.</desc>
    <g id="Page-1" stroke="none" stroke-width="1" fill="none" fill-rule="evenodd">
        <g id="Biztalk" transform="translate(-419.000000, -1878.000000)" fill-rule="nonzero">
            <g id="Group-4" transform="translate(391.000000, 1839.000000)">
                <g id="Setting-up-business" transform="translate(28.000000, 39.000000)">
                    <path d="M52.1146096,33.4032817 L8.66973516,33.4032817 C6.56425571,33.4032817 4.82178995,31.7419391 4.82178995,29.6664239 L4.82178995,28.7266624 L1.35004795,28.7266624 L1.35004795,31.9474746 C1.35004795,34.0231091 3.09311872,35.6843325 5.19859817,35.6843325 L48.6438356,35.6843325 C50.1774924,35.6883929 51.5657683,34.7902626 52.1723288,33.4016117 C52.152968,33.4020888 52.1338493,33.4032817 52.1146096,33.4032817 Z" id="Path" fill="#D4E1F4"/>
                    <path d="M8.66973516,0.921152284 L5.19859817,0.921152284 C3.08477444,0.92121946 1.36659594,2.60188862 1.35004795,4.68568528 L1.35004795,30.1119695 L4.82118493,30.1119695 L4.82118493,4.68568528 C4.83773293,2.60188862 6.55591143,0.92121946 8.66973516,0.921152284 L8.66973516,0.921152284 Z" id="Path" fill="#D4E1F4"/>
                    <path d="M26.076484,25.6883629 C26.33859,25.8374029 26.66141,25.8374029 26.923516,25.6883629 L35.3938356,20.8674036 C35.655939,20.7182231 35.8173871,20.4425132 35.8173516,20.1441523 L35.8173516,10.5021142 C35.8173439,10.203796 35.6559016,9.92814136 35.3938356,9.77898223 L26.923516,4.95790355 C26.6614434,4.80874064 26.3385566,4.80874064 26.076484,4.95790355 L17.6061644,9.77898223 C17.3440984,9.92814136 17.1826561,10.203796 17.1826484,10.5021142 L17.1826484,20.1441523 C17.1826129,20.4425132 17.344061,20.7182231 17.6061644,20.8674036 L26.076484,25.6883629 Z M18.8767123,11.9477817 L25.652968,15.8046447 L25.652968,23.5188477 L18.8767123,19.6621041 L18.8767123,11.9477817 Z M26.5,14.3582614 L23.875895,12.8647589 L30.6521507,9.00825381 L33.2762557,10.5017563 L26.5,14.3582614 Z M27.347032,23.5188477 L27.347032,15.8046447 L34.1232877,11.9477817 L34.1232877,19.6621041 L27.347032,23.5188477 Z M26.5,6.64525127 L28.9574817,8.04391878 L22.181226,11.9004239 L19.7237443,10.5017563 L26.5,6.64525127 Z" id="Shape" fill="#43D92D"/>
                    <path d="M38.0138265,47 C38.4816293,47 38.8608584,46.6261464 38.8608584,46.1649746 C38.8608584,45.7038028 38.4816293,45.3299492 38.0138265,45.3299492 L34.1232877,45.3299492 L34.1232877,36.9796954 L48.5761941,36.9796954 C50.9947123,36.9796954 53,35.0602107 53,32.6760939 L53,4.32376142 C53,1.93964467 50.9947123,0 48.5761941,0 L4.42380594,0 C2.00528767,0 0,1.93964467 0,4.32376142 L0,32.6760939 C0,35.0602107 2.00528767,36.9796954 4.42380594,36.9796954 L18.8767123,36.9796954 L18.8767123,45.3299492 L15.6230205,45.3299492 C15.1552177,45.3299492 14.7759886,45.7038028 14.7759886,46.1649746 C14.7759886,46.6261464 15.1552177,47 15.6230205,47 L38.0138265,47 Z M4.42380594,1.67005076 L48.5761941,1.67005076 C50.0696302,1.66868448 51.2864571,2.85161921 51.3059361,4.32376142 L51.3059361,28.6294416 L1.69406393,28.6294416 L1.69406393,4.32376142 C1.71354289,2.85161921 2.93036983,1.66868448 4.42380594,1.67005076 Z M1.69406393,32.6760939 L1.69406393,30.2994924 L51.3059361,30.2994924 L51.3059361,32.6760939 C51.3059361,34.1394162 50.0605571,35.3096447 48.5761941,35.3096447 L4.42380594,35.3096447 C2.93944292,35.3096447 1.69406393,34.1394162 1.69406393,32.6760939 Z M20.5707763,36.9796954 L32.4292237,36.9796954 L32.4292237,45.3299492 L20.5707763,45.3299492 L20.5707763,36.9796954 Z" id="Shape" fill="#2382FF"/>
                </g>
            </g>
        </g>
    </g>
</svg>