<svg
        version="1.1" id="Layer_1" xmlns="http://www.w3.org/2000/svg" xmlns:xlink="http://www.w3.org/1999/xlink" x="0px" y="0px"
        color="#717a94"
        fill="#717a94"
        height="20"
        viewBox="0 0 16 16"
        width="20"
      >
        <desc>dynamic</desc>
        <g strokeWidth="1">
          <g transform="">
            <path
              clipRule="evenodd"
              d="M0 11.74c0 .879.72 1.593 1.605 1.593h12.79c.885 0 1.605-.714 1.605-1.593V4.26c0-.879-.72-1.593-1.605-1.593H1.605C.72 2.667 0 3.38 0 4.26v7.478Zm1-7.48a.6.6 0 0 1 .605-.593h12.79A.6.6 0 0 1 15 4.26v7.479a.6.6 0 0 1-.605.594H1.605A.6.6 0 0 1 1 11.74V4.26Zm10.685 6.407H11.667a.5.5 0 0 1-.407-.21L9.5 8.873a.5.5 0 0 1 .669-.744l.999.899V5.833a.5.5 0 0 1 1 0v3.213l.996-.915a.501.501 0 0 1 .676.738l-1.816 1.666a.5.5 0 0 1-.338.132Zm-4.185 0a.5.5 0 0 1-.5-.5V7.136l-1.628 1.81a.516.516 0 0 1-.743 0L3 7.136v3.03a.5.5 0 0 1-1 0V5.834a.5.5 0 0 1 .872-.334L5 7.864l2.128-2.365A.5.5 0 0 1 8 5.833v4.334a.5.5 0 0 1-.5.5Z"
              fill="currentColor"
              fillRule="evenodd"
            ></path>
          </g>
        </g>
      </svg>