      <svg
        version="1.1" id="Layer_1" xmlns="http://www.w3.org/2000/svg" xmlns:xlink="http://www.w3.org/1999/xlink" x="0px" y="0px"
        data-icon="docs"
        color="#717a94"
        fill="#717a94"
        height="20"
        viewBox="0 0 16 16"
        width="20"
      >
          <desc>dynamic</desc>
          <g strokeWidth="1">
            <g transform="">
              <path
                clipRule="evenodd"
                d="M3.47585 1.94142C3.18103 1.94142 2.94203 2.18027 2.94203 2.4749V14.5251C2.94203 14.8197 3.18103 15.0586 3.47585 15.0586H13.5242C13.819 15.0586 14.058 14.8197 14.058 14.5251V4.67824L11.3194 1.94142H3.47585ZM2 2.4749C2 1.66033 2.66076 1 3.47585 1H11.7096L15 4.28829V14.5251C15 15.3397 14.3392 16 13.5242 16H3.47585C2.66076 16 2 15.3397 2 14.5251V2.4749ZM5.0148 5.01379L9.97615 5.01705L9.97554 5.95847L5.01418 5.95521L5.0148 5.01379ZM5.01449 8.02469H11.9855V8.96611H5.01449V8.02469ZM5.01501 11.0348L11.986 11.0424L11.985 11.9838L5.01398 11.9762L5.01501 11.0348Z"
                fill="currentColor"
                fillRule="evenodd"
              ></path>
            </g>
          </g>
        </svg>