<svg version="1.0" xmlns="http://www.w3.org/2000/svg" width="300" height="300" viewBox="0 0 300.000000 300.000000" preserveAspectRatio="xMidYMid meet">
  <g transform="translate(0.000000,300.000000) scale(0.100000,-0.100000)" fill="#FFE873" stroke="none">
    <path d="M1861 2928 c-24 -12 -52 -38 -70 -65 -32 -47 -38 -74 -95 -372 -20 -102 -41 -188 -47 -192 -6 -3 -104 -37 -218 -73 -269 -87 -324 -111 -361 -152 -49 -57 -39 -135 27 -195 31 -29 63 -46 268 -143 77 -37 145 -74 152 -82 10 -14 19 -12 78 17 82 42 177 117 173 136 -2 8 -39 30 -83 48 -44 18 -137 57 -207 86 -71 28 -128 55 -128 59 0 4 26 16 58 27 65 22 328 107 383 123 39 11 40 13 54 115 16 105 68 371 76 379 8 8 21 -11 104 -148 82 -136 138 -218 151 -223 8 -3 57 6 108 20 51 14 108 29 126 32 19 3 82 19 139 35 58 16 107 27 109 25 6 -6 -39 -66 -118 -155 -37 -41 -99 -115 -139 -163 l-71 -89 105 -205 c59 -113 104 -207 102 -210 -4 -4 -74 14 -325 84 -50 15 -94 24 -96 22 -2 -2 6 -51 18 -109 l22 -104 210 -68 c192 -63 215 -68 277 -64 78 4 111 22 140 77 32 60 19 100 -106 348 l-116 228 176 209 c96 115 188 229 204 253 39 61 40 122 3 156 -38 35 -94 33 -261 -11 -76 -20 -190 -49 -253 -64 -63 -16 -123 -31 -132 -35 -19 -7 -41 20 -123 156 -89 146 -168 261 -191 275 -45 30 -80 33 -123 12z"/>
    <path d="M401 1612 c-5 -27 -60 -284 -121 -573 -61 -288 -113 -532 -116 -541 -5 -17 5 -18 119 -18 l124 0 44 213 45 212 204 6 c211 6 234 10 327 58 127 64 216 237 217 421 1 109 -23 164 -92 210 -84 56 -116 60 -443 60 l-297 0 -11 -48z m504 -163 c67 -17 90 -48 89 -119 -2 -101 -55 -179 -143 -209 -19 -6 -96 -11 -174 -11 l-139 0 6 23 c3 12 20 91 37 175 l32 152 124 0 c68 0 144 -5 168 -11z"/>
    <path d="M1325 1328 c3 -13 32 -219 65 -458 l60 -435 -28 -45 c-34 -55 -80 -80 -148 -80 l-51 0 -12 -63 c-6 -34 -14 -74 -18 -89 l-5 -28 94 0 c133 0 185 17 242 81 58 65 119 166 406 679 128 228 239 425 246 438 l14 22 -123 0 -123 0 -153 -315 c-85 -173 -156 -313 -158 -311 -4 4 -52 551 -53 599 l0 27 -130 0 c-130 0 -130 0 -125 -22z"/>
  </g>
</svg>