<svg version="1.0" xmlns="http://www.w3.org/2000/svg" width="300" height="300" viewBox="0 0 300.000000 300.000000" preserveAspectRatio="xMidYMid meet">
  <g transform="translate(0.000000,300.000000) scale(0.100000,-0.100000)" fill="#8abbff" stroke="none">
    <path d="M1861 2928 c-24 -12 -52 -38 -70 -65 -32 -47 -38 -74 -95 -372 -20 -102 -41 -188 -47 -192 -6 -3 -104 -37 -218 -73 -269 -87 -324 -111 -361 -152 -49 -57 -39 -135 27 -195 31 -29 63 -46 268 -143 77 -37 145 -74 152 -82 10 -14 19 -12 78 17 82 42 177 117 173 136 -2 8 -39 30 -83 48 -44 18 -137 57 -207 86 -71 28 -128 55 -128 59 0 4 26 16 58 27 65 22 328 107 383 123 39 11 40 13 54 115 16 105 68 371 76 379 8 8 21 -11 104 -148 82 -136 138 -218 151 -223 8 -3 57 6 108 20 51 14 108 29 126 32 19 3 82 19 139 35 58 16 107 27 109 25 6 -6 -39 -66 -118 -155 -37 -41 -99 -115 -139 -163 l-71 -89 105 -205 c59 -113 104 -207 102 -210 -4 -4 -74 14 -325 84 -50 15 -94 24 -96 22 -2 -2 6 -51 18 -109 l22 -104 210 -68 c192 -63 215 -68 277 -64 78 4 111 22 140 77 32 60 19 100 -106 348 l-116 228 176 209 c96 115 188 229 204 253 39 61 40 122 3 156 -38 35 -94 33 -261 -11 -76 -20 -190 -49 -253 -64 -63 -16 -123 -31 -132 -35 -19 -7 -41 20 -123 156 -89 146 -168 261 -191 275 -45 30 -80 33 -123 12z"/>
    <path d="M393 1285 c-173 -47 -280 -179 -271 -335 6 -113 51 -146 272 -201 157 -39 193 -63 182 -121 -17 -90 -159 -143 -287 -108 -49 14 -70 40 -76 95 l-6 45 -87 0 -88 0 -6 -35 c-19 -100 33 -189 139 -236 61 -27 214 -37 294 -20 177 38 301 171 305 324 2 122 -45 159 -279 221 -169 44 -185 53 -185 104 0 76 67 121 178 122 101 0 152 -35 152 -105 0 -25 1 -25 90 -25 l90 0 0 63 c-1 37 -8 76 -18 97 -22 45 -90 96 -154 115 -63 19 -175 18 -245 0z"/>
    <path d="M1297 1286 c-145 -42 -277 -153 -339 -286 -55 -117 -72 -190 -72 -310 -1 -86 3 -113 20 -151 31 -66 78 -114 142 -146 48 -24 72 -28 157 -31 98 -3 152 6 232 39 30 12 32 11 60 -21 15 -18 33 -40 39 -48 13 -17 20 -14 93 49 l42 37 -41 47 -40 47 29 33 c44 51 97 151 123 235 18 59 23 98 23 185 0 100 -3 115 -27 160 -34 65 -90 118 -153 146 -62 28 -214 36 -288 15z m209 -173 c89 -64 97 -240 17 -405 l-35 -73 -38 44 -39 45 -55 -48 c-31 -26 -56 -50 -56 -53 0 -3 14 -23 31 -45 17 -21 29 -41 27 -43 -14 -15 -108 -23 -151 -13 -97 20 -146 107 -133 238 16 178 104 322 222 366 59 22 171 15 210 -13z"/>
    <path d="M1990 1261 c0 -4 -40 -199 -90 -432 -49 -232 -90 -429 -90 -436 0 -10 62 -13 313 -13 l314 0 11 65 c7 35 15 71 18 80 5 13 -20 15 -215 15 -142 0 -221 4 -221 10 0 10 134 647 146 696 6 24 6 24 -90 24 -53 0 -96 -4 -96 -9z"/>
  </g>
</svg>
