<?xml version="1.0" encoding="UTF-8"?>
<svg width="65px" height="81px" viewBox="0 0 65 81" version="1.1" xmlns="http://www.w3.org/2000/svg" xmlns:xlink="http://www.w3.org/1999/xlink">
    <!-- Generator: Sketch 54 (76480) - https://sketchapp.com -->
    <title>Cost Efficient</title>
    <desc>Created with Sketch.</desc>
    <g id="Page-1" stroke="none" stroke-width="1" fill="none" fill-rule="evenodd">
        <g id="Java-App-Development" transform="translate(-1020.000000, -2188.000000)" fill-rule="nonzero">
            <g id="Group-5" transform="translate(391.000000, 2026.000000)">
                <g id="Group-4" transform="translate(585.000000, 114.000000)">
                    <g id="Cost-Efficient" transform="translate(44.000000, 48.000000)">
                        <path d="M48.2510587,18.9477439 C42.4611668,13.2923776 34.0477612,11.180084 26.2462826,13.4231622 C18.444804,15.6662403 12.470127,21.9153899 10.6198603,29.7674518 C8.76959355,37.6195136 11.3318673,45.851736 17.3213393,51.2983537 C20.2339416,53.97214 21.8893283,57.7322899 21.8877551,61.6707988 L21.8877551,72.3211463 C21.8786107,73.444075 22.3227835,74.5238696 23.1210761,75.3193787 C23.9193687,76.1148877 25.0052831,76.5598451 26.136301,76.554878 L31.505102,76.554878 L31.505102,79.8640244 C31.505102,80.409574 31.950533,80.8518293 32.5,80.8518293 C33.049467,80.8518293 33.494898,80.409574 33.494898,79.8640244 L33.494898,76.554878 L38.863699,76.554878 C39.9947169,76.5598451 41.0806313,76.1148877 41.8789239,75.3193787 C42.6772165,74.5238696 43.1213893,73.444075 43.1122449,72.3211463 L43.1122449,61.6554878 C43.1122449,57.7427927 44.8367347,53.9280549 47.7973852,51.1893659 C52.2914386,47.0444972 54.8822417,41.2548065 54.9679299,35.165286 C55.053618,29.0757655 52.6267325,23.216472 48.2510587,18.9485671 L48.2510587,18.9477439 Z M38.863699,74.5792683 L26.136301,74.5792683 C25.5328506,74.5847601 24.9527292,74.3481094 24.5274772,73.9229756 C24.1022251,73.4978417 23.8678701,72.9202426 23.877551,72.3211463 L23.877551,71.945122 L35.2253571,71.945122 C35.7748241,71.945122 36.2202551,71.5028666 36.2202551,70.9573171 C36.2202551,70.4117675 35.7748241,69.9695122 35.2253571,69.9695122 L23.877551,69.9695122 L23.877551,67.1707317 L26.630102,67.1707317 C27.179569,67.1707317 27.625,66.7284764 27.625,66.1829268 C27.625,65.6373773 27.179569,65.195122 26.630102,65.195122 L23.877551,65.195122 L23.877551,62.7256098 L41.122449,62.7256098 L41.122449,65.195122 L30.0517219,65.195122 C29.502255,65.195122 29.056824,65.6373773 29.056824,66.1829268 C29.056824,66.7284764 29.502255,67.1707317 30.0517219,67.1707317 L41.122449,67.1707317 L41.122449,69.9695122 L38.6471429,69.9695122 C38.0976759,69.9695122 37.6522449,70.4117675 37.6522449,70.9573171 C37.6522449,71.5028666 38.0976759,71.945122 38.6471429,71.945122 L41.122449,71.945122 L41.122449,72.3211463 C41.1321299,72.9202426 40.8977749,73.4978417 40.4725228,73.9229756 C40.0472708,74.3481094 39.4671494,74.5847601 38.863699,74.5792683 Z M46.4672066,49.7766402 C43.3728936,52.6376957 41.4921472,56.5613948 41.2073469,60.75 L23.7946429,60.75 C23.5799591,56.5947016 21.7294195,52.6895352 18.6419005,49.8762439 C14.4192115,46.0120508 12.0141673,40.572228 12.0075893,34.8705 C12.0043833,23.6305811 21.1780453,14.5157626 32.4986735,14.5108537 C32.5626786,14.5108537 32.6271811,14.5090427 32.691352,14.5097012 C41.0807889,14.5961554 48.5717514,19.7458543 51.6054513,27.5122916 C54.6391512,35.2787289 52.6041404,44.0965636 46.4672066,49.7766402 L46.4672066,49.7766402 Z" id="Shape" fill="#24527a"/>
                        <path d="M32.3341837,1.13597561 L32.3341837,7.70026829 C32.3341837,8.24581786 32.7796147,8.68807317 33.3290816,8.68807317 C33.8785486,8.68807317 34.3239796,8.24581786 34.3239796,7.70026829 L34.3239796,1.13597561 C34.3239796,0.59042604 33.8785486,0.148170732 33.3290816,0.148170732 C32.7796147,0.148170732 32.3341837,0.59042604 32.3341837,1.13597561 Z" id="Path" fill="#24527a"/>
                        <path d="M64.005102,31.445122 L57.3933418,31.445122 C56.8438749,31.445122 56.3984439,31.8873773 56.3984439,32.4329268 C56.3984439,32.9784764 56.8438749,33.4207317 57.3933418,33.4207317 L64.005102,33.4207317 C64.554569,33.4207317 65,32.9784764 65,32.4329268 C65,31.8873773 64.554569,31.445122 64.005102,31.445122 Z" id="Path" fill="#24527a"/>
                        <path d="M7.60665816,31.445122 L0.994897959,31.445122 C0.445430989,31.445122 0,31.8873773 0,32.4329268 C0,32.9784764 0.445430989,33.4207317 0.994897959,33.4207317 L7.60665816,33.4207317 C8.15612513,33.4207317 8.60155612,32.9784764 8.60155612,32.4329268 C8.60155612,31.8873773 8.15612513,31.445122 7.60665816,31.445122 L7.60665816,31.445122 Z" id="Path" fill="#24527a"/>
                        <path d="M55.0422321,8.63769512 L49.8828571,13.760122 C49.4942925,14.145871 49.4942554,14.7713305 49.8827743,15.157125 C50.2712932,15.5429194 50.9012439,15.5429563 51.2898087,15.1572073 L56.4491837,10.0347805 C56.8377484,9.64903147 56.8377855,9.02357193 56.4492665,8.63777748 C56.0607476,8.25198302 55.4307969,8.25194615 55.0422321,8.63769512 L55.0422321,8.63769512 Z" id="Path" fill="#24527a"/>
                        <path d="M8.55081633,8.63785976 C8.16231561,9.02361626 8.16231561,9.64902399 8.55081633,10.0347805 L13.7101913,15.1572073 C14.0987561,15.5429563 14.7287068,15.5429195 15.1172258,15.157125 C15.5057447,14.7713305 15.5057076,14.145871 15.1171429,13.760122 L9.95776786,8.63769512 C9.56919559,8.25200966 8.93929702,8.25208337 8.55081633,8.63785976 L8.55081633,8.63785976 Z" id="Path" fill="#24527a"/>
                        <path d="M34.1931505,27.7313049 L34.2760587,26.9064878 C34.329998,26.3635296 33.9304093,25.8799603 33.3835523,25.8264055 C32.8366953,25.7728508 32.3496537,26.1695906 32.2957143,26.7125488 L32.2139668,27.5370366 C30.1623778,27.8376202 28.6585623,29.6098881 28.7084718,31.6683124 C28.7583813,33.7267367 30.3463473,35.4251049 32.4101276,35.6273232 C33.5731659,35.7351147 34.4279851,36.758604 34.3194196,37.9133506 C34.210854,39.0680972 33.1800154,39.9168219 32.016977,39.8090305 C32.0096811,39.8090305 32.002551,39.806561 31.9952551,39.8057378 C31.9879592,39.8049146 31.98,39.8057378 31.9722066,39.8045854 C30.82068,39.678367 29.985229,38.6565756 30.0974872,37.5117256 C30.1514266,36.9687674 29.7518378,36.4851981 29.2049809,36.4316433 C28.6581239,36.3780886 28.1710822,36.7748284 28.1171429,37.3177866 C27.934951,39.178681 29.0491047,40.9246758 30.8216071,41.5559634 L30.7255995,42.5223659 C30.6996996,42.7831075 30.7791933,43.043384 30.9465899,43.2459277 C31.1139865,43.4484715 31.3555712,43.5766878 31.6181888,43.6023659 C31.651352,43.6056585 31.6845153,43.6071402 31.7176786,43.6071402 C32.2288749,43.6065464 32.656425,43.2214055 32.7066071,42.7163049 L32.8029464,41.7459512 C34.8524835,41.4450477 36.354461,39.6742275 36.3043889,37.6177763 C36.2543169,35.5613252 34.66791,33.8646348 32.6061224,33.6624146 C31.7545808,33.5791341 31.0374223,32.9947385 30.789076,32.1817461 C30.5407297,31.3687537 30.8101066,30.4872809 31.4715896,29.9483807 C32.1330725,29.4094806 33.0563844,29.3192877 33.8109617,29.7198613 C34.565539,30.120435 35.0027699,30.9328834 34.9187628,31.7783415 C34.8648692,32.3212997 35.2644951,32.8048321 35.811352,32.8583414 C36.358209,32.9118508 36.8452136,32.5150741 36.8991071,31.9721159 C37.0831329,30.1103939 35.9684593,28.3629058 34.1946429,27.7322927 L34.1931505,27.7313049 Z" id="Path" fill="#43D92D"/>
                        <path d="M33.8951786,20.6663598 C28.8347465,20.1610908 23.887913,22.3781708 20.9223123,26.4805602 C17.9567117,30.5829496 17.4241042,35.9457173 19.5255711,40.5441964 C21.6270381,45.1426756 26.0424559,48.276364 31.1048214,48.7621646 C31.5801616,48.808811 32.0539541,48.8319695 32.526199,48.8316402 C40.1020348,48.8177491 46.3363252,42.9085008 46.7015008,35.3954073 C47.0666763,27.8823137 41.4344625,21.4044862 33.8951786,20.6663598 L33.8951786,20.6663598 Z M44.6685969,35.9055549 C44.0202226,42.4199719 38.2862901,47.2507116 31.7070661,46.8254221 C25.1278422,46.4001327 20.0731712,40.8720039 20.2810032,34.3291097 C20.4888351,27.7862155 25.8843087,22.5853143 32.477449,22.5724939 C32.8830357,22.5724939 33.2905017,22.5924695 33.6998469,22.6324207 C36.9271751,22.9483342 39.8959168,24.5242387 41.952964,27.0134433 C44.0100112,29.5026479 44.9868558,32.7012434 44.6685969,35.9055549 L44.6685969,35.9055549 Z" id="Shape" fill="#43D92D"/>
                        <path d="M27.1938776,72.3211463 L27.1938776,71.945122 L23.877551,71.945122 L23.877551,72.3211463 C23.8678701,72.9202426 24.1022251,73.4978417 24.5274772,73.9229756 C24.9527292,74.3481094 25.5328506,74.5847601 26.136301,74.5792683 L29.4526276,74.5792683 C28.8491771,74.5847601 28.2690558,74.3481094 27.8438037,73.9229756 C27.4185517,73.4978417 27.1841966,72.9202426 27.1938776,72.3211463 L27.1938776,72.3211463 Z" id="Path" fill="#D4E1F4"/>
                        <path d="M27.1938776,67.1707317 L29.9464286,67.1707317 C29.9641709,67.1707317 29.9815816,67.1690854 29.9989923,67.1680976 C29.4709109,67.1409767 29.0567458,66.7079443 29.0567458,66.1829268 C29.0567458,65.6579094 29.4709109,65.2248769 29.9989923,65.1977561 C29.9824107,65.1967683 29.9641709,65.195122 29.9464286,65.195122 L27.1938776,65.195122 L27.1938776,62.7256098 L23.877551,62.7256098 L23.877551,65.195122 L26.630102,65.195122 C27.179569,65.195122 27.625,65.6373773 27.625,66.1829268 C27.625,66.7284764 27.179569,67.1707317 26.630102,67.1707317 L23.877551,67.1707317 L23.877551,69.9695122 L27.1938776,69.9695122 L27.1938776,67.1707317 Z" id="Path" fill="#D4E1F4"/>
                        <path d="M21.957398,49.8762439 C17.7347089,46.0120508 15.3296647,40.572228 15.3230867,34.8705 C15.3204825,24.2624522 23.5234495,15.430753 34.1729209,14.5758841 C33.6821046,14.536372 33.1882483,14.5144207 32.691352,14.5100305 C32.6271811,14.5100305 32.5626786,14.5111829 32.4986735,14.5111829 C21.177851,14.5156374 12.0037375,23.6303884 12.0067602,34.8705 C12.0133382,40.572228 14.4183824,46.0120508 18.6410714,49.8762439 C21.7288971,52.6893972 23.5797429,56.5945814 23.7946429,60.75 L27.1109694,60.75 C26.8960694,56.5945814 25.0452237,52.6893972 21.957398,49.8762439 Z" id="Path" fill="#D4E1F4"/>
                        <path d="M41.9142219,42.4533841 C37.0509922,46.4103459 29.9582121,46.0611474 25.5131114,41.645909 C21.0680106,37.2306707 20.719243,30.1883142 24.7066327,25.3613963 C19.514712,29.6301334 18.7819524,37.2657054 23.0685084,42.4311355 C27.3550644,47.5965655 35.043632,48.342953 40.2567219,44.0997256 C40.875058,43.5958622 41.4426574,43.0335776 41.9515306,42.4207866 C41.9392602,42.4314878 41.9273214,42.4426829 41.9142219,42.4533841 Z" id="Path" fill="#D4E1F4"/>
                    </g>
                </g>
            </g>
        </g>
    </g>
</svg>