<?xml version="1.0" encoding="UTF-8"?>
<svg width="69px" height="71px" viewBox="0 0 69 71" version="1.1" xmlns="http://www.w3.org/2000/svg" xmlns:xlink="http://www.w3.org/1999/xlink">
    <!-- Generator: Sketch 54 (76480) - https://sketchapp.com -->
    <title>Efficient performance </title>
    <desc>Created with Sketch.</desc>
    <g id="Page-1" stroke="none" stroke-width="1" fill="none" fill-rule="evenodd">
        <g id="MicrosoftDotNet" transform="translate(-809.000000, -2182.000000)" fill-rule="nonzero">
            <g id="Group-4" transform="translate(781.000000, 2130.000000)">
                <g id="Efficient-performance-" transform="translate(28.000000, 52.000000)">
                    <path d="M4.89123377,25.8386076 C4.89543367,22.3233794 7.73653219,19.4752149 11.241474,19.4725738 L8.25446104,19.4725738 C4.74888738,19.4725738 1.90705844,22.3227442 1.90705844,25.8386076 C1.90705844,29.354471 4.74888738,32.2046414 8.25446104,32.2046414 L11.241474,32.2046414 C7.73653219,32.2020003 4.89543367,29.3538357 4.89123377,25.8386076 L4.89123377,25.8386076 Z" id="Path" fill="#D4E1F4"/>
                    <path d="M4.89123377,45.1613924 C4.89543367,41.6461643 7.73653219,38.7979997 11.241474,38.7953586 L8.25446104,38.7953586 C4.74888738,38.7953586 1.90705844,41.645529 1.90705844,45.1613924 C1.90705844,48.6772558 4.74888738,51.5274262 8.25446104,51.5274262 L11.241474,51.5274262 C7.73653219,51.5247851 4.89543367,48.6766206 4.89123377,45.1613924 L4.89123377,45.1613924 Z" id="Path" fill="#D4E1F4"/>
                    <path d="M40.3370714,5.86304219 C38.1592565,5.86493384 36.3932896,7.63327102 36.3879416,9.81747257 C36.3688635,11.6595703 37.6362846,13.2643714 39.4285714,13.6675 L39.4285714,30.740154 C37.4908532,31.1195226 35.9838604,32.6526476 35.6332727,34.6012658 L27.4805195,34.6012658 L27.4805195,33.9324578 C31.512987,33.5076561 34.7703247,30.0428861 34.7703247,25.8255759 C34.7596979,21.3189074 31.1124062,17.6720357 26.6189156,17.6751055 L8.25446104,17.6751055 C3.92586427,17.6825427 0.363153069,21.0922974 0.1532615,25.4284994 C-0.056630068,29.7647013 3.16000902,33.5045361 7.46753247,33.9324578 L7.46753247,37.0675422 C3.16000902,37.4954639 -0.056630068,41.2352987 0.1532615,45.5715006 C0.363153069,49.9077026 3.92586427,53.3174573 8.25446104,53.3248945 L26.6189156,53.3248945 C31.1124644,53.3279642 34.7597802,49.6810013 34.7703247,45.1742743 C34.7703247,40.9571139 31.512987,37.4923439 27.4805195,37.0675422 L27.4805195,36.3987342 L35.6332727,36.3987342 C35.9898476,38.3279674 37.5022541,39.8329945 39.4285714,40.1755148 L39.4285714,57.248019 C37.6359851,57.6512689 36.3684953,59.2565316 36.3879416,61.0989451 C36.3899058,63.1052079 37.88842,64.7925997 39.8752518,65.0258073 C41.8620836,65.259015 43.7085874,63.9642501 44.1723961,62.0126582 L50.3311688,62.0126582 L50.3311688,60.2151899 L44.1797143,60.2151899 C43.8458718,58.7369288 42.6947645,57.5826175 41.2207792,57.248019 L41.2207792,40.1755148 C43.142607,39.817873 44.6530506,38.3216293 45.0334026,36.3987342 L49.8831169,36.3987342 L49.8831169,34.6012658 L45.048487,34.6012658 C44.6881386,32.6459425 43.1682728,31.1128129 41.2207792,30.740154 L41.2207792,13.6675 C42.6694151,13.3490763 43.8102897,12.2302013 44.1601494,10.7848101 L50.3311688,10.7848101 L50.3311688,8.98734177 L44.191961,8.98734177 C43.7996498,7.16618321 42.1947947,5.86548501 40.3370714,5.86304219 Z M9.25974026,36.9978903 L9.25974026,34.0021097 L25.6883117,34.0021097 L25.6883117,36.9978903 L9.25974026,36.9978903 Z M1.90422078,25.8386076 C1.90842068,22.3233794 4.74951921,19.4752149 8.25446104,19.4725738 L26.6189156,19.4725738 C30.1244892,19.4725738 32.9663182,22.3227442 32.9663182,25.8386076 C32.9663182,29.354471 30.1244892,32.2046414 26.6189156,32.2046414 L8.25446104,32.2046414 C4.74951921,32.2020003 1.90842068,29.3538357 1.90422078,25.8386076 Z M32.9691558,45.1613924 C32.9649559,48.6766206 30.1238574,51.5247851 26.6189156,51.5274262 L8.25446104,51.5274262 C5.98675246,51.5274262 3.89130329,50.3140671 2.75744898,48.3444093 C1.62359468,46.3747516 1.62359468,43.9480332 2.75744898,41.9783755 C3.89130329,40.0087177 5.98675246,38.7953586 8.25446104,38.7953586 L26.6189156,38.7953586 C30.1238574,38.7979997 32.9649559,41.6461643 32.9691558,45.1613924 Z M42.4877208,61.0989451 C42.4877208,61.9713549 41.9637319,62.7578615 41.1600893,63.0917182 C40.3564467,63.425575 39.4314141,63.2410344 38.8163327,62.6241476 C38.2012513,62.0072608 38.0172509,61.079513 38.3501305,60.2735115 C38.6830102,59.46751 39.467215,58.9419831 40.3370714,58.9419831 C41.5242963,58.9433039 42.4864038,59.9082354 42.4877208,61.0989451 L42.4877208,61.0989451 Z M43.3340909,35.4585084 C43.3340084,37.1185555 41.9921606,38.4642303 40.3369719,38.4641751 C38.6817832,38.46412 37.3400245,37.1183558 37.340052,35.4583087 C37.3400794,33.7982616 38.6818827,32.4525422 40.3370714,32.4525422 C41.9913542,32.4543579 43.3320332,33.798771 43.3340909,35.4579093 L43.3340909,35.4585084 Z M40.3370714,11.9742848 C39.467215,11.9742848 38.6830102,11.4487579 38.3501305,10.6427564 C38.0172509,9.83675495 38.2012513,8.90900713 38.8163327,8.29212031 C39.4314141,7.67523349 40.3564467,7.49069298 41.1600893,7.82454972 C41.9637319,8.15840646 42.4877208,8.94491308 42.4877208,9.81732278 C42.4864038,11.0080325 41.5242963,11.972964 40.3370714,11.9742848 Z" id="Shape" fill="#24527a"/>
                    <path d="M26.8084416,29.7367173 C28.3920772,29.7367173 29.819775,28.7799501 30.4257922,27.3125613 C31.0318093,25.8451724 30.6967989,24.1561442 29.5769781,23.0330793 C28.4571573,21.9100144 26.7730595,21.5740851 25.3099883,22.181937 C23.8469171,22.789789 22.8930045,24.2217139 22.8930649,25.8099979 C22.8955342,27.977697 24.6470865,29.7343235 26.8084416,29.7367173 L26.8084416,29.7367173 Z M26.8084416,23.6804473 C27.9810159,23.6804473 28.9315829,24.6337821 28.9316104,25.8097982 C28.9316379,26.9858143 27.9811154,27.9391938 26.8085411,27.9392489 C25.6359668,27.9393041 24.6853552,26.986014 24.6852727,25.8099979 C24.6865895,24.6344855 25.6363695,23.6818506 26.8084416,23.6804473 L26.8084416,23.6804473 Z" id="Shape" fill="#24527a"/>
                    <path d="M9.55844156,27.626789 L9.55844156,23.993057 C9.55844156,23.4966998 9.15724218,23.0943228 8.66233766,23.0943228 C8.16743315,23.0943228 7.76623377,23.4966998 7.76623377,23.993057 L7.76623377,27.626789 C7.76623377,28.1231462 8.16743315,28.5255232 8.66233766,28.5255232 C9.15724218,28.5255232 9.55844156,28.1231462 9.55844156,27.626789 Z" id="Path" fill="#24527a"/>
                    <path d="M12.0974026,28.5255232 C12.5923071,28.5255232 12.9935065,28.1231462 12.9935065,27.626789 L12.9935065,23.993057 C12.9935065,23.4966998 12.5923071,23.0943228 12.0974026,23.0943228 C11.6024981,23.0943228 11.2012987,23.4966998 11.2012987,23.993057 L11.2012987,27.626789 C11.2012987,28.1231462 11.6024981,28.5255232 12.0974026,28.5255232 L12.0974026,28.5255232 Z" id="Path" fill="#24527a"/>
                    <path d="M15.6818182,28.5255232 C16.1767227,28.5255232 16.5779221,28.1231462 16.5779221,27.626789 L16.5779221,23.993057 C16.5779221,23.4966998 16.1767227,23.0943228 15.6818182,23.0943228 C15.1869137,23.0943228 14.7857143,23.4966998 14.7857143,23.993057 L14.7857143,27.626789 C14.7857143,28.1231462 15.1869137,28.5255232 15.6818182,28.5255232 Z" id="Path" fill="#24527a"/>
                    <path d="M22.8924675,45.1900021 C22.8923851,47.3586936 24.645201,49.1168556 26.8075455,49.117021 C28.9698899,49.1171865 30.7229733,47.3592927 30.7232208,45.1906012 C30.7234682,43.0219098 28.970786,41.2636136 26.8084416,41.2632827 C24.6469213,41.2655112 22.8951017,43.0221378 22.8924675,45.1900021 L22.8924675,45.1900021 Z M26.8084416,43.0607511 C27.6671968,43.0607511 28.4413906,43.5795791 28.7700081,44.3753001 C29.0986255,45.171021 28.9169488,46.086926 28.3096958,46.6959186 C27.7024428,47.3049112 26.7892056,47.4870567 25.9958365,47.1574188 C25.2024675,46.8277808 24.6852123,46.051278 24.6852727,45.1900021 C24.6866719,44.0145725 25.6364519,43.0620717 26.8084416,43.0607511 L26.8084416,43.0607511 Z" id="Shape" fill="#24527a"/>
                    <path d="M8.66233766,42.4744768 C8.16743315,42.4744768 7.76623377,42.8768538 7.76623377,43.373211 L7.76623377,47.006943 C7.76623377,47.5033002 8.16743315,47.9056772 8.66233766,47.9056772 C9.15724218,47.9056772 9.55844156,47.5033002 9.55844156,47.006943 L9.55844156,43.373211 C9.55844156,42.8768538 9.15724218,42.4744768 8.66233766,42.4744768 Z" id="Path" fill="#24527a"/>
                    <path d="M12.0974026,42.4744768 C11.6024981,42.4744768 11.2012987,42.8768538 11.2012987,43.373211 L11.2012987,47.006943 C11.2012987,47.5033002 11.6024981,47.9056772 12.0974026,47.9056772 C12.5923071,47.9056772 12.9935065,47.5033002 12.9935065,47.006943 L12.9935065,43.373211 C12.9935065,42.8768538 12.5923071,42.4744768 12.0974026,42.4744768 L12.0974026,42.4744768 Z" id="Path" fill="#24527a"/>
                    <path d="M15.6818182,42.4744768 C15.1869137,42.4744768 14.7857143,42.8768538 14.7857143,43.373211 L14.7857143,47.006943 C14.7857143,47.5033002 15.1869137,47.9056772 15.6818182,47.9056772 C16.1767227,47.9056772 16.5779221,47.5033002 16.5779221,47.006943 L16.5779221,43.373211 C16.5779221,42.8768538 16.1767227,42.4744768 15.6818182,42.4744768 Z" id="Path" fill="#24527a"/>
                    <path d="M59.0308442,0 C53.5868945,-1.06431507e-15 49.1737013,4.42614697 49.1737013,9.88607595 C49.1737013,15.3460049 53.5868945,19.7721519 59.0308442,19.7721519 C64.4747938,19.7721519 68.887987,15.3460049 68.887987,9.88607595 C68.8818963,4.42867925 64.472269,0.00610863147 59.0308442,0 Z M59.0308442,17.9746835 C54.5767035,17.9746835 50.9659091,14.3532906 50.9659091,9.88607595 C50.9659091,5.41886133 54.5767035,1.79746835 59.0308442,1.79746835 C63.4849848,1.79746835 67.0957792,5.41886133 67.0957792,9.88607595 C67.0907585,14.3512032 63.4829035,17.9696481 59.0308442,17.9746835 L59.0308442,17.9746835 Z" id="Shape" fill="#43D92D"/>
                    <path d="M63.390539,8.98734177 L59.8896104,8.98734177 L59.8896104,5.48227848 C59.8896104,4.9859213 59.488411,4.5835443 58.9935065,4.5835443 C58.498602,4.5835443 58.0974026,4.9859213 58.0974026,5.48227848 L58.0974026,8.98734177 L54.6711494,8.98734177 C54.1762448,8.98734177 53.7750455,9.38971877 53.7750455,9.88607595 C53.7750455,10.3824331 54.1762448,10.7848101 54.6711494,10.7848101 L58.0974026,10.7848101 L58.0974026,14.2906224 C58.0974026,14.7869795 58.498602,15.1893565 58.9935065,15.1893565 C59.488411,15.1893565 59.8896104,14.7869795 59.8896104,14.2906224 L59.8896104,10.7848101 L63.390539,10.7848101 C63.8854435,10.7848101 64.2866429,10.3824331 64.2866429,9.88607595 C64.2866429,9.38971877 63.8854435,8.98734177 63.390539,8.98734177 L63.390539,8.98734177 Z" id="Path" fill="#43D92D"/>
                    <path d="M58.2840909,25.6139241 C52.8401412,25.6139241 48.4269481,30.040071 48.4269481,35.5 C48.4269481,40.959929 52.8401412,45.3860759 58.2840909,45.3860759 C63.7280406,45.3860759 68.1412338,40.959929 68.1412338,35.5 C68.135143,30.0426033 63.7255157,25.6200327 58.2840909,25.6139241 Z M58.2840909,43.5886076 C53.8299503,43.5886076 50.2191558,39.9672146 50.2191558,35.5 C50.2191558,31.0327854 53.8299503,27.4113924 58.2840909,27.4113924 C62.7382316,27.4113924 66.349026,31.0327854 66.349026,35.5 C66.3440053,39.9651272 62.7361503,43.5835722 58.2840909,43.5886076 L58.2840909,43.5886076 Z" id="Shape" fill="#43D92D"/>
                    <path d="M62.6437857,34.6012658 L53.9243961,34.6012658 C53.4294916,34.6012658 53.0282922,35.0036428 53.0282922,35.5 C53.0282922,35.9963572 53.4294916,36.3987342 53.9243961,36.3987342 L62.6437857,36.3987342 C63.1386902,36.3987342 63.5398896,35.9963572 63.5398896,35.5 C63.5398896,35.0036428 63.1386902,34.6012658 62.6437857,34.6012658 Z" id="Path" fill="#43D92D"/>
                    <path d="M58.2840909,51.2278481 C52.8401412,51.2278481 48.4269481,55.6539951 48.4269481,61.1139241 C48.4269481,66.573853 52.8401412,71 58.2840909,71 C63.7280406,71 68.1412338,66.573853 68.1412338,61.1139241 C68.135143,55.6565273 63.7255157,51.2339567 58.2840909,51.2278481 Z M58.2840909,69.2025316 C53.8299503,69.2025316 50.2191558,65.5811387 50.2191558,61.1139241 C50.2191558,56.6467094 53.8299503,53.0253165 58.2840909,53.0253165 C62.7382316,53.0253165 66.349026,56.6467094 66.349026,61.1139241 C66.3440053,65.5790513 62.7361503,69.1974962 58.2840909,69.2025316 L58.2840909,69.2025316 Z" id="Shape" fill="#43D92D"/>
                    <path d="M62.4342468,57.3865738 L56.9025974,62.9346097 L54.1340844,60.1581203 C53.9076871,59.9310851 53.57772,59.8424321 53.2684786,59.9255559 C52.9592371,60.0086797 52.7177025,60.2509518 52.6348584,60.5611107 C52.5520143,60.8712697 52.6404468,61.2021948 52.8668442,61.42923 L56.2689026,64.8412743 C56.6188481,65.1922237 57.1861973,65.1922237 57.5361429,64.8412743 L63.701487,58.657384 C64.0515082,58.3064181 64.0515751,57.7373229 63.7016364,57.3862743 C63.3516976,57.0352256 62.784268,57.0351586 62.4342468,57.3861245 L62.4342468,57.3865738 Z" id="Path" fill="#43D92D"/>
                </g>
            </g>
        </g>
    </g>
</svg>