<?xml version="1.0" encoding="UTF-8"?>
<svg width="65px" height="74px" viewBox="0 0 65 74" version="1.1" xmlns="http://www.w3.org/2000/svg" xmlns:xlink="http://www.w3.org/1999/xlink">
    <!-- Generator: Sketch 54 (76480) - https://sketchapp.com -->
    <title>Extensibility</title>
    <desc>Created with Sketch.</desc>
    <g id="Page-1" stroke="none" stroke-width="1" fill="none" fill-rule="evenodd">
        <g id="Java-App-Development" transform="translate(-438.000000, -2189.000000)" fill-rule="nonzero">
            <g id="Group-5" transform="translate(391.000000, 2026.000000)">
                <g id="Group-4" transform="translate(0.000000, 114.000000)">
                    <g id="Extensibility" transform="translate(47.000000, 49.000000)">
                        <path d="M7.28090278,63.8777061 C5.46421296,63.217898 4.81481481,62.4800122 4.81481481,62.0483959 L4.81481481,58.7655143 C4.40856481,58.6539102 4.01946759,58.5317347 3.6521875,58.3983837 C3.00762928,58.1730016 2.38863957,57.8797994 1.80555556,57.5236735 L1.80555556,62.0483959 C1.80555556,62.4800122 2.4549537,63.217898 4.27164352,63.8777061 C6.14641204,64.5585061 8.66335648,64.9334898 11.3500231,64.9334898 C11.858588,64.9334898 12.3612847,64.920049 12.8546528,64.8936204 C10.7430556,64.7805061 8.8005787,64.4296857 7.28090278,63.8777061 Z" id="Path" fill="#D4E1F4"/>
                        <path d="M7.28090278,56.6942694 C5.46421296,56.0346122 4.81481481,55.2965755 4.81481481,54.8657143 L4.81481481,51.5816245 C4.40856481,51.4700204 4.01976852,51.3478449 3.65248843,51.2144939 C3.00785489,50.9889986 2.38877188,50.6957493 1.80555556,50.3396327 L1.80555556,54.8657143 C1.80555556,55.2973306 2.4549537,56.0353673 4.27164352,56.6950245 C6.14641204,57.3759755 8.66335648,57.7508082 11.3500231,57.7508082 C11.858588,57.7508082 12.3612847,57.7373673 12.8546528,57.7109388 C10.7430556,57.5970694 8.8005787,57.246249 7.28090278,56.6942694 Z" id="Path" fill="#D4E1F4"/>
                        <path d="M7.27623843,49.5103796 C5.57600694,48.8927061 4.81481481,48.1468163 4.81481481,47.6815224 C4.81481481,47.2162286 5.57600694,46.4704898 7.27623843,45.8528163 C8.79591435,45.3006857 10.7344792,44.9497143 12.8445718,44.8366 C12.3513542,44.8101714 11.8488079,44.7964286 11.3399421,44.7964286 C8.65417824,44.7964286 6.14219907,45.1715633 4.26697917,45.8535714 C2.56674769,46.4704898 1.80555556,47.2163796 1.80555556,47.6815224 C1.80555556,48.1466653 2.56674769,48.8927061 4.26697917,49.5103796 C6.14219907,50.1916327 8.65417824,50.5666163 11.3399421,50.5666163 C11.8488079,50.5666163 12.3513542,50.5530245 12.8445718,50.5265959 C10.7344792,50.4134816 8.79621528,50.0632653 7.27623843,49.5103796 Z" id="Path" fill="#D4E1F4"/>
                        <path d="M7.28090278,71.1109796 C5.46421296,70.4510204 4.81481481,69.7132857 4.81481481,69.2816694 L4.81481481,65.948951 C4.40856481,65.8373469 4.01946759,65.7151714 3.6521875,65.5818204 C3.00762928,65.3564383 2.38863957,65.0632361 1.80555556,64.7071102 L1.80555556,69.2816694 C1.80555556,69.7132857 2.4549537,70.4513224 4.27164352,71.1109796 C6.14641204,71.7919306 8.66335648,72.1669143 11.3500231,72.1669143 C11.858588,72.1669143 12.3612847,72.1533224 12.8546528,72.1268939 C10.7430556,72.0137796 8.8005787,71.6629592 7.28090278,71.1109796 Z" id="Path" fill="#D4E1F4"/>
                        <path d="M28.4566088,13.7309265 C26.6400694,13.0712694 26.0300926,12.3332327 26.0300926,11.9017673 L26.0300926,8.62658776 C25.6140625,8.51271837 25.216088,8.38767347 24.8402315,8.25115102 C24.2013303,8.03301806 23.5905681,7.73933183 23.0208333,7.3762898 L23.0208333,11.9017673 C23.0208333,12.3332327 23.6308102,13.0712694 25.4473495,13.7309265 C27.3221181,14.4118776 29.7996412,14.7868612 32.4861574,14.7868612 C32.9959259,14.7868612 33.4978202,14.7734707 33.9918403,14.7466898 C31.890625,14.6338776 29.9756829,14.2826041 28.4566088,13.7309265 Z" id="Path" fill="#D4E1F4"/>
                        <path d="M28.4566088,20.9143633 C26.6400694,20.2547061 26.0300926,19.5166694 26.0300926,19.0852041 L26.0300926,15.8104776 C25.613912,15.6966082 25.2159375,15.5715633 24.8399306,15.4350408 C24.2011172,15.2169906 23.5904509,14.9233526 23.0208333,14.5603306 L23.0208333,19.0852041 C23.0208333,19.5166694 23.6308102,20.2547061 25.4473495,20.9143633 C27.3221181,21.5953143 29.7996412,21.970298 32.4861574,21.970298 C32.9959259,21.970298 33.4978202,21.9569075 33.9918403,21.9301265 C31.890625,21.8168612 29.9756829,21.4660408 28.4566088,20.9143633 Z" id="Path" fill="#D4E1F4"/>
                        <path d="M28.4362963,6.54703673 C26.7360648,5.92936327 25.9748727,5.18347347 25.9748727,4.71833061 C25.9748727,4.25318776 26.7359144,3.50714694 28.4362963,2.88947347 C29.9559722,2.33734286 31.8946875,1.98637143 34.0046296,1.87310612 C33.511412,1.84667755 33.0088657,1.83308571 32.5,1.83308571 C29.8142361,1.83308571 27.3022569,2.20837143 25.427037,2.88947347 C23.7268056,3.50714694 22.9656134,4.25303673 22.9656134,4.71833061 C22.9656134,5.18362449 23.7266551,5.92936327 25.427037,6.54703673 C27.3022569,7.2282898 29.8140856,7.60417959 32.5,7.60417959 C33.0088657,7.60417959 33.511412,7.59058776 34.0046296,7.56400816 C31.894537,7.45013878 29.9562731,7.09916735 28.4362963,6.54703673 Z" id="Path" fill="#D4E1F4"/>
                        <path d="M28.4566088,28.1476367 C26.6400694,27.4879796 26.0300926,26.7499429 26.0300926,26.3184776 L26.0300926,22.9939143 C25.613912,22.8800449 25.2159375,22.755 24.8399306,22.6184776 C24.2011172,22.4004274 23.5904509,22.1067894 23.0208333,21.7437673 L23.0208333,26.3184776 C23.0208333,26.7499429 23.6308102,27.4879796 25.4473495,28.1476367 C27.3221181,28.8285878 29.7996412,29.2035714 32.4861574,29.2035714 C32.9959259,29.2035714 33.4978202,29.190181 33.9918403,29.1634 C31.890625,29.0501347 29.9756829,28.6993143 28.4566088,28.1476367 Z" id="Path" fill="#D4E1F4"/>
                        <path d="M49.5760417,63.8777061 C47.7593519,63.217898 47.0949074,62.4800122 47.0949074,62.0483959 L47.0949074,58.7596245 C46.6957292,58.6495306 46.3132523,58.5294694 45.9522917,58.3983837 C45.2988412,58.1793113 44.6725442,57.8858281 44.0856481,57.5236735 L44.0856481,62.0482449 C44.0856481,62.4798612 44.7500926,63.2177469 46.5667824,63.8775551 C48.4414005,64.5583551 50.9735417,64.9333388 53.6600579,64.9333388 C54.1686227,64.9333388 54.6708681,64.919898 55.1637847,64.8934694 C53.0478241,64.7805061 51.0958681,64.4296857 49.5760417,63.8777061 Z" id="Path" fill="#D4E1F4"/>
                        <path d="M49.5760417,56.6942694 C47.7593519,56.0346122 47.0949074,55.2965755 47.0949074,54.8657143 L47.0949074,51.5764898 C46.6960301,51.4663959 46.3135532,51.3461837 45.9525926,51.215249 C45.2990067,50.9958896 44.6726084,50.7021023 44.0856481,50.3396327 L44.0856481,54.8657143 C44.0856481,55.2973306 44.7500926,56.0353673 46.5667824,56.6950245 C48.4414005,57.3759755 50.9735417,57.7508082 53.6600579,57.7508082 C54.1686227,57.7508082 54.6708681,57.7373673 55.1637847,57.7109388 C53.0478241,57.5970694 51.0958681,57.246249 49.5760417,56.6942694 Z" id="Path" fill="#D4E1F4"/>
                        <path d="M49.5963542,49.5103796 C47.8961227,48.8927061 47.135081,48.1468163 47.135081,47.6815224 C47.135081,47.2162286 47.8961227,46.4704898 49.5963542,45.8528163 C51.1160301,45.3006857 53.0545949,44.9497143 55.1646875,44.8366 C54.6713696,44.8102218 54.1698264,44.7968313 53.6600579,44.7964286 C50.974294,44.7964286 48.4624653,45.1715633 46.5870949,45.8535714 C44.8868634,46.4712449 44.1258218,47.2171347 44.1258218,47.6822776 C44.1258218,48.1474204 44.8868634,48.8934612 46.5870949,49.5111347 C48.4624653,50.1923878 50.974294,50.5673714 53.6600579,50.5673714 C54.1689236,50.5673714 54.6704668,50.5540313 55.1646875,50.527351 C53.0545949,50.4134816 51.1164815,50.0632653 49.5963542,49.5103796 Z" id="Path" fill="#D4E1F4"/>
                        <path d="M49.5760417,71.1109796 C47.7593519,70.4510204 47.0949074,69.7132857 47.0949074,69.2816694 L47.0949074,65.9430612 C46.6957292,65.8329673 46.3132523,65.7129061 45.9522917,65.5818204 C45.2988138,65.3628171 44.6725091,65.0693304 44.0856481,64.7071102 L44.0856481,69.2816694 C44.0856481,69.7132857 44.7500926,70.4513224 46.5667824,71.1109796 C48.4414005,71.7919306 50.9733912,72.1669143 53.6600579,72.1669143 C54.1686227,72.1669143 54.6708681,72.1533224 55.1637847,72.1268939 C53.0476736,72.0137796 51.0958681,71.6629592 49.5760417,71.1109796 Z" id="Path" fill="#D4E1F4"/>
                        <path d="M13.0359606,54.2163265 L9.64467593,54.2163265 C9.14608553,54.2163265 8.74189815,54.6220114 8.74189815,55.122449 C8.74189815,55.6228866 9.14608553,56.0285714 9.64467593,56.0285714 L13.036713,56.0285714 C13.5353034,56.0285714 13.9394907,55.6228866 13.9394907,55.122449 C13.9394907,54.6220114 13.5353034,54.2163265 13.036713,54.2163265 L13.0359606,54.2163265 Z" id="Path" fill="#24527a"/>
                        <path d="M13.0033102,61.6163265 L9.61127315,61.6163265 C9.11268275,61.6163265 8.70849537,62.0220114 8.70849537,62.522449 C8.70849537,63.0228866 9.11268275,63.4285714 9.61127315,63.4285714 L13.0033102,63.4285714 C13.5019006,63.4285714 13.906088,63.0228866 13.906088,62.522449 C13.906088,62.0220114 13.5019006,61.6163265 13.0033102,61.6163265 L13.0033102,61.6163265 Z" id="Path" fill="#24527a"/>
                        <path d="M13.0033102,68.5632653 L9.61127315,68.5632653 C9.11268275,68.5632653 8.70849537,68.9689501 8.70849537,69.4693878 C8.70849537,69.9698254 9.11268275,70.3755102 9.61127315,70.3755102 L13.0033102,70.3755102 C13.5019006,70.3755102 13.906088,69.9698254 13.906088,69.4693878 C13.906088,68.9689501 13.5019006,68.5632653 13.0033102,68.5632653 L13.0033102,68.5632653 Z" id="Path" fill="#24527a"/>
                        <path d="M55.3560764,54.2163265 L51.9640394,54.2163265 C51.465449,54.2163265 51.0612616,54.6220114 51.0612616,55.122449 C51.0612616,55.6228866 51.465449,56.0285714 51.9640394,56.0285714 L55.3560764,56.0285714 C55.8546668,56.0285714 56.2588542,55.6228866 56.2588542,55.122449 C56.2588542,54.6220114 55.8546668,54.2163265 55.3560764,54.2163265 L55.3560764,54.2163265 Z" id="Path" fill="#24527a"/>
                        <path d="M55.3234259,61.6163265 L51.9315394,61.6163265 C51.432949,61.6163265 51.0287616,62.0220114 51.0287616,62.522449 C51.0287616,63.0228866 51.432949,63.4285714 51.9315394,63.4285714 L55.3234259,63.4285714 C55.8220163,63.4285714 56.2262037,63.0228866 56.2262037,62.522449 C56.2262037,62.0220114 55.8220163,61.6163265 55.3234259,61.6163265 Z" id="Path" fill="#24527a"/>
                        <path d="M55.3234259,68.5632653 L51.9315394,68.5632653 C51.432949,68.5632653 51.0287616,68.9689501 51.0287616,69.4693878 C51.0287616,69.9698254 51.432949,70.3755102 51.9315394,70.3755102 L55.3234259,70.3755102 C55.8220163,70.3755102 56.2262037,69.9698254 56.2262037,69.4693878 C56.2262037,68.9689501 55.8220163,68.5632653 55.3234259,68.5632653 Z" id="Path" fill="#24527a"/>
                        <path d="M34.1960185,11.3265306 L30.8039815,11.3265306 C30.3053911,11.3265306 29.9012037,11.7322155 29.9012037,12.2326531 C29.9012037,12.7330907 30.3053911,13.1387755 30.8039815,13.1387755 L34.1960185,13.1387755 C34.6946089,13.1387755 35.0987963,12.7330907 35.0987963,12.2326531 C35.0987963,11.7322155 34.6946089,11.3265306 34.1960185,11.3265306 Z" id="Path" fill="#24527a"/>
                        <path d="M30.771331,20.3877551 L34.1635185,20.3877551 C34.6621089,20.3877551 35.0662963,19.9820703 35.0662963,19.4816327 C35.0662963,18.981195 34.6621089,18.5755102 34.1635185,18.5755102 L30.771331,18.5755102 C30.2727406,18.5755102 29.8685532,18.981195 29.8685532,19.4816327 C29.8685532,19.9820703 30.2727406,20.3877551 30.771331,20.3877551 L30.771331,20.3877551 Z" id="Path" fill="#24527a"/>
                        <path d="M34.1635185,25.6734694 L30.771331,25.6734694 C30.2727406,25.6734694 29.8685532,26.0791542 29.8685532,26.5795918 C29.8685532,27.0800294 30.2727406,27.4857143 30.771331,27.4857143 L34.1635185,27.4857143 C34.6621089,27.4857143 35.0662963,27.0800294 35.0662963,26.5795918 C35.0662963,26.0791542 34.6621089,25.6734694 34.1635185,25.6734694 Z" id="Path" fill="#24527a"/>
                        <path d="M43.1609028,57.5387755 L21.8390972,57.5387755 C21.3405068,57.5387755 20.9363194,57.9444603 20.9363194,58.444898 C20.9363194,58.9453356 21.3405068,59.3510204 21.8390972,59.3510204 L43.1609028,59.3510204 C43.6594932,59.3510204 44.0636806,58.9453356 44.0636806,58.444898 C44.0636806,57.9444603 43.6594932,57.5387755 43.1609028,57.5387755 Z" id="Path" fill="#43D92D"/>
                        <polygon id="Rectangle" fill="#43D92D" transform="translate(18.931733, 36.594927) rotate(-44.064000) translate(-18.931733, -36.594927) " points="8.4238016 35.7098451 29.4430078 35.6709988 29.4396649 37.4800083 8.42045872 37.5188546"/>
                        <polygon id="Rectangle" fill="#43D92D" transform="translate(46.068149, 36.594214) rotate(-45.936000) translate(-46.068149, -36.594214) " points="45.1830676 26.0862823 46.9920771 26.0829394 46.9532308 47.1021456 45.1442213 47.1054885"/>
                        <path d="M19.0472569,44.148702 C16.9800463,43.3978286 14.2399653,42.9841837 11.3500231,42.9841837 C8.46008102,42.9841837 5.72481481,43.3978286 3.65760417,44.148702 C0.638715278,45.2457143 0,46.6751224 0,47.6815224 L0,69.2816694 C0,70.2885224 0.633599537,71.7188367 3.6521875,72.8155469 C5.71894676,73.5662694 8.44909722,73.9796122 11.3399421,73.9796122 C14.230787,73.9796122 16.9809491,73.5662694 19.0477083,72.8155469 C22.0662963,71.7195918 22.7199074,70.2885224 22.7199074,69.2816694 L22.7199074,47.6815224 C22.7199074,46.6751224 22.0661458,45.2457143 19.0472569,44.148702 Z M20.9143519,61.8987347 L20.9143519,62.0483959 C20.9143519,62.4800122 20.2497569,63.217898 18.4332176,63.8777061 C16.5584491,64.5585061 14.0363889,64.9334898 11.3500231,64.9334898 C8.66365741,64.9334898 6.14641204,64.5585061 4.27164352,63.8777061 C2.45510417,63.217898 1.80555556,62.4800122 1.80555556,62.0483959 L1.80555556,57.5236735 C2.38863957,57.8797994 3.00762928,58.1730016 3.6521875,58.3983837 C5.71909722,59.1489551 8.44924769,59.562298 11.3399421,59.562298 C14.2306366,59.562298 16.9809491,59.1489551 19.0475579,58.3983837 C19.7010813,58.179375 20.3274353,57.8858888 20.9143519,57.5236735 L20.9143519,61.8987347 Z M20.9143519,54.8649592 C20.9143519,55.2965755 20.2497569,56.0346122 18.4332176,56.6942694 C16.5585995,57.3752204 14.0365394,57.7500531 11.3500231,57.7500531 C8.66350694,57.7500531 6.14641204,57.3752204 4.27164352,56.6942694 C2.45510417,56.0346122 1.80555556,55.2965755 1.80555556,54.8657143 L1.80555556,50.3396327 C2.38877188,50.6957493 3.00785489,50.9889986 3.65248843,51.2144939 C5.71984954,51.9653673 8.45,52.3788612 11.3399421,52.3788612 C14.2298843,52.3788612 16.9800463,51.9653673 19.0472569,51.2144939 C19.7008684,50.9954019 20.3273183,50.7018674 20.9143519,50.3396327 L20.9143519,54.8649592 Z M4.26697917,45.8528163 C6.14219907,45.1715633 8.65417824,44.7956735 11.3399421,44.7956735 C14.025706,44.7956735 16.5375347,45.1708082 18.4129051,45.8528163 C20.1131366,46.4704898 20.8741782,47.2163796 20.8741782,47.6815224 C20.8741782,48.1466653 20.1131366,48.8927061 18.4129051,49.5103796 C16.5375347,50.1916327 14.025706,50.5666163 11.3399421,50.5666163 C8.65417824,50.5666163 6.14219907,50.1916327 4.26697917,49.5103796 C2.56674769,48.8927061 1.80555556,48.1468163 1.80555556,47.6815224 C1.80555556,47.2162286 2.56674769,46.4704898 4.26697917,45.8528163 Z M18.4332176,71.1109796 C16.5584491,71.7919306 14.0365394,72.1669143 11.3500231,72.1669143 C8.66350694,72.1669143 6.14641204,71.7919306 4.27164352,71.1109796 C2.45510417,70.4510204 1.80555556,69.7132857 1.80555556,69.2816694 L1.80555556,64.7071102 C2.38863957,65.0632361 3.00762928,65.3564383 3.6521875,65.5818204 C5.71909722,66.3323918 8.44924769,66.7457347 11.3399421,66.7457347 C14.2306366,66.7457347 16.9809491,66.3323918 19.0477083,65.5818204 C19.7011862,65.3628171 20.3274909,65.0693304 20.9143519,64.7071102 L20.9143519,69.2816694 C20.9143519,69.7132857 20.2497569,70.4510204 18.4332176,71.1109796 Z" id="Shape" fill="#24527a"/>
                        <path d="M61.3475116,44.148702 C59.2801505,43.3978286 56.55,42.9841837 53.6600579,42.9841837 C50.7701157,42.9841837 48.0199537,43.3978286 45.9527431,44.148702 C42.9338542,45.2457143 42.2800926,46.6751224 42.2800926,47.6815224 L42.2800926,69.2816694 C42.2800926,70.2885224 42.9337037,71.7188367 45.9522917,72.8155469 C48.0190509,73.5662694 50.7592824,73.9796122 53.6499769,73.9796122 C56.5406713,73.9796122 59.276088,73.5662694 61.3426968,72.8155469 C64.3614352,71.7195918 65,70.2885224 65,69.2816694 L65,47.6815224 C65,46.6751224 64.36625,45.2457143 61.3475116,44.148702 Z M63.1944444,61.8987347 L63.1944444,62.0483959 C63.1944444,62.4800122 62.5500116,63.217898 60.7334722,63.8777061 C58.8587037,64.5585061 56.3465741,64.9334898 53.6600579,64.9334898 C50.9735417,64.9334898 48.4415509,64.5585061 46.5667824,63.8777061 C44.7502431,63.217898 44.0856481,62.4800122 44.0856481,62.0483959 L44.0856481,57.5236735 C44.6725511,57.8857758 45.2988479,58.1792081 45.9522917,58.3982327 C48.0190509,59.1488041 50.7592824,59.5621469 53.6499769,59.5621469 C56.5406713,59.5621469 59.276088,59.1488041 61.3426968,58.3982327 C61.9888521,58.1728403 62.6095318,57.8797004 63.1944444,57.5236735 L63.1944444,61.8987347 Z M63.1944444,54.8649592 C63.1944444,55.2965755 62.5500116,56.0346122 60.7334722,56.6942694 C58.8587037,57.3752204 56.3465741,57.7500531 53.6600579,57.7500531 C50.9735417,57.7500531 48.4415509,57.3752204 46.5667824,56.6942694 C44.7502431,56.0346122 44.0856481,55.2965755 44.0856481,54.8657143 L44.0856481,50.3396327 C44.6726817,50.7018674 45.2991316,50.9954019 45.9527431,51.2144939 C48.0199537,51.9653673 50.7600347,52.3788612 53.6499769,52.3788612 C56.539919,52.3788612 59.2751852,51.9653673 61.3423958,51.2144939 C61.9886324,50.9889397 62.6094056,50.695702 63.1944444,50.3396327 L63.1944444,54.8649592 Z M46.5870949,45.8528163 C48.4624653,45.1715633 50.974294,44.7956735 53.6600579,44.7956735 C56.3458218,44.7956735 58.8578009,45.1708082 60.7330208,45.8528163 C62.4332523,46.4704898 63.1944444,47.2163796 63.1944444,47.6815224 C63.1944444,48.1466653 62.4332523,48.8927061 60.7330208,49.5103796 C58.8578009,50.1916327 56.3458218,50.5666163 53.6600579,50.5666163 C50.974294,50.5666163 48.4624653,50.1916327 46.5870949,49.5103796 C44.8868634,48.8927061 44.1258218,48.1468163 44.1258218,47.6815224 C44.1258218,47.2162286 44.8868634,46.4704898 46.5870949,45.8528163 Z M60.7334722,71.1109796 C58.8587037,71.7919306 56.3465741,72.1669143 53.6600579,72.1669143 C50.9735417,72.1669143 48.4415509,71.7919306 46.5667824,71.1109796 C44.7502431,70.4510204 44.0856481,69.7132857 44.0856481,69.2816694 L44.0856481,64.7071102 C44.6725091,65.0693304 45.2988138,65.3628171 45.9522917,65.5818204 C48.0190509,66.3323918 50.7592824,66.7457347 53.6499769,66.7457347 C56.5406713,66.7457347 59.2759375,66.3323918 61.3426968,65.5818204 C61.9888582,65.35638 62.6095381,65.0631894 63.1944444,64.7071102 L63.1944444,69.2816694 C63.1944444,69.7132857 62.5500116,70.4510204 60.7334722,71.1109796 Z" id="Shape" fill="#24527a"/>
                        <path d="M43.7847222,26.3184776 L43.7847222,4.71833061 C43.7847222,3.71193061 43.1786574,2.28191837 40.1597685,1.18535918 C38.0925579,0.434334694 35.3760995,0.0208408163 32.4861574,0.0208408163 C29.5962153,0.0208408163 26.9005208,0.434334694 24.8333102,1.18535918 C21.8144213,2.28191837 21.2152778,3.71193061 21.2152778,4.71833061 L21.2152778,26.3184776 C21.2152778,27.3251796 21.8211921,28.7554939 24.8399306,29.8523551 C26.9065394,30.6029265 29.6229977,31.0164204 32.5135417,31.0164204 C35.4040856,31.0164204 38.100081,30.6029265 40.1666898,29.8523551 C43.1857292,28.7554939 43.7847222,27.3251796 43.7847222,26.3184776 Z M41.9791667,11.9017673 C41.9791667,12.3332327 41.3622685,13.0712694 39.5457292,13.7309265 C37.6709606,14.4118776 35.1728241,14.7868612 32.4861574,14.7868612 C29.7994907,14.7868612 27.3221181,14.4118776 25.4473495,13.7309265 C23.6308102,13.0712694 23.0208333,12.3332327 23.0208333,11.9017673 L23.0208333,7.3762898 C23.5905681,7.73933183 24.2013303,8.03301806 24.8402315,8.25115102 C26.9074421,9.00202449 29.6239005,9.41566939 32.5138426,9.41566939 C35.4037847,9.41566939 38.0994792,9.00202449 40.1666898,8.25115102 C40.8034494,8.0331282 41.4119328,7.73942045 41.9791667,7.3762898 L41.9791667,11.9017673 Z M23.0208333,18.9353918 L23.0208333,14.5603306 C23.5904509,14.9233526 24.2011172,15.2169906 24.8399306,15.4350408 C26.9066898,16.1856122 29.6231481,16.5991061 32.5135417,16.5991061 C35.4039352,16.5991061 38.0999306,16.1856122 40.1666898,15.4350408 C40.8034654,15.2171221 41.411955,14.923462 41.9791667,14.5603306 L41.9791667,19.0852041 C41.9791667,19.5166694 41.3622685,20.2547061 39.5457292,20.9143633 C37.6709606,21.5953143 35.1728241,21.970298 32.4861574,21.970298 C29.7994907,21.970298 27.3221181,21.5953143 25.4473495,20.9143633 C23.6308102,20.2547061 23.0208333,19.5166694 23.0208333,19.0852041 L23.0208333,18.9353918 Z M25.427037,2.88947347 C27.3022569,2.20837143 29.8142361,1.83308571 32.5,1.83308571 C35.1857639,1.83308571 37.6977431,2.20837143 39.572963,2.88947347 C41.2731944,3.50714694 42.0343866,4.25303673 42.0343866,4.71833061 C42.0343866,5.18362449 41.2733449,5.92936327 39.572963,6.54703673 C37.6977431,7.2282898 35.1859144,7.60417959 32.5,7.60417959 C29.8140856,7.60417959 27.3022569,7.2290449 25.427037,6.54703673 C23.7268056,5.92936327 22.9656134,5.18347347 22.9656134,4.71833061 C22.9656134,4.25318776 23.7266551,3.50714694 25.427037,2.88947347 Z M39.5457292,28.1476367 C37.6709606,28.8285878 35.1728241,29.2035714 32.4861574,29.2035714 C29.7994907,29.2035714 27.3221181,28.8285878 25.4473495,28.1476367 C23.6308102,27.4879796 23.0208333,26.7499429 23.0208333,26.3184776 L23.0208333,21.7437673 C23.5904509,22.1067894 24.2011172,22.4004274 24.8399306,22.6184776 C26.9066898,23.369049 29.6231481,23.7825429 32.5135417,23.7825429 C35.4039352,23.7825429 38.0999306,23.369049 40.1666898,22.6184776 C40.8034654,22.4005588 41.411955,22.1068987 41.9791667,21.7437673 L41.9791667,26.3184776 C41.9791667,26.7499429 41.3622685,27.4879796 39.5457292,28.1476367 Z" id="Shape" fill="#24527a"/>
                    </g>
                </g>
            </g>
        </g>
    </g>
</svg>