<?xml version="1.0" encoding="UTF-8"?>
<svg width="66px" height="71px" viewBox="0 0 66 71" version="1.1" xmlns="http://www.w3.org/2000/svg" xmlns:xlink="http://www.w3.org/1999/xlink">
    <!-- Generator: Sketch 54 (76480) - https://sketchapp.com -->
    <title>Legacy Systems Migration</title>
    <desc>Created with Sketch.</desc>
    <g id="Page-1" stroke="none" stroke-width="1" fill="none" fill-rule="evenodd">
        <g id="Java-App-Development" transform="translate(-387.000000, -1635.000000)" fill-rule="nonzero">
            <g id="Group-23" transform="translate(387.000000, 1635.000000)">
                <g id="Legacy-Systems-Migration">
                    <path d="M56.2812651,38.3080437 L18.9397624,38.3080437 C16.0217031,38.304583 13.6570946,35.9558127 13.6531129,33.0582873 L13.6531129,0.667404809 C10.9331413,0.916569248 8.85073302,3.18179033 8.84774671,5.89590303 L8.84774671,37.8309729 C8.85123069,40.7289926 11.2158392,43.0777629 14.1334007,43.0812236 L55.0081293,43.0812236 L56.2812651,38.3080437 Z" id="Path" fill="#D4E1F4"/>
                    <polygon id="Path" fill="#0635C9" points="31.927938 43.5350587 34.1561746 43.5350587 34.1561746 43.8717274 31.927938 43.8717274"/>
                    <g id="Group" transform="translate(0.000000, 3.923351)" fill="#43D92D">
                        <path d="M61.6933368,51.8884944 L59.2943865,51.8884944 L59.2943865,49.5120391 C59.2928933,47.5088361 57.6574265,45.8843234 55.6402178,45.8823459 L34.1561746,45.8823459 L34.1561746,39.9483763 L31.927938,39.9483763 L31.927938,45.8823459 L10.4443925,45.8823459 C8.4266862,45.8843234 6.79221468,47.5088361 6.78972605,49.5120391 L6.78972605,51.8884944 L4.39077588,51.8884944 C2.01870174,51.8909662 0.0955598456,53.8007324 0.0930713398,56.1574128 L0.0930713398,62.6816651 C0.0955598456,65.0378509 2.01870174,66.9481116 4.39077588,66.9505835 L11.1974239,66.9505835 C13.5699957,66.9481116 15.49264,65.0378509 15.4951285,62.6816651 L15.4951285,56.1574128 C15.49264,53.8007324 13.5699957,51.8909662 11.1974239,51.8884944 L9.01796275,51.8884944 L9.01796275,49.5120391 C9.01945578,48.7304339 9.65701922,48.0966466 10.4443925,48.0961523 L31.927938,48.0961523 L31.927938,51.8884944 L29.6389811,51.8884944 C27.2664093,51.8909662 25.3437651,53.8007324 25.3412765,56.1574128 L25.3412765,62.6816651 C25.3437651,65.0378509 27.2664093,66.9481116 29.6389811,66.9505835 L36.4456293,66.9505835 C38.8177033,66.9481116 40.7408452,65.0378509 40.7433338,62.6816651 L40.7433338,56.1574128 C40.7408452,53.8007324 38.8177033,51.8909662 36.4456293,51.8884944 L34.1561746,51.8884944 L34.1561746,48.0961523 L55.6402178,48.0961523 C56.4275911,48.0966466 57.0656521,48.7304339 57.0661498,49.5120391 L57.0661498,51.8884944 L54.887684,51.8884944 C52.5146145,51.8909662 50.5924681,53.8007324 50.5899796,56.1574128 L50.5899796,62.6816651 C50.5924681,65.0378509 52.5146145,66.9481116 54.887684,66.9505835 L61.6933368,66.9505835 C64.0659085,66.9481116 65.9885527,65.0378509 65.9910413,62.6816651 L65.9910413,56.1574128 C65.9885527,53.8007324 64.0659085,51.8909662 61.6933368,51.8884944 L61.6933368,51.8884944 Z M11.1974239,54.1023006 C12.3396627,54.1032894 13.2653987,55.0233192 13.2663942,56.1574128 L13.2663942,62.6816651 C13.2653987,63.8157587 12.3396627,64.7357885 11.1974239,64.7367773 L4.39077588,64.7367773 C3.24853707,64.7357885 2.32280107,63.8157587 2.32130792,62.6816651 L2.32130792,56.1574128 C2.32280107,55.0233192 3.24853707,54.1032894 4.39077588,54.1023006 L11.1974239,54.1023006 Z M36.4456293,54.1023006 C37.5878679,54.1032894 38.5136041,55.0233192 38.5150971,56.1574128 L38.5150971,62.6816651 C38.5136041,63.8157587 37.5878679,64.7357885 36.4456293,64.7367773 L29.6389811,64.7367773 C28.4967423,64.7357885 27.5710063,63.8157587 27.5700108,62.6816651 L27.5700108,56.1574128 C27.5710063,55.0233192 28.4967423,54.1032894 29.6389811,54.1023006 L36.4456293,54.1023006 Z M63.7628046,62.6816651 C63.7618093,63.8157587 62.8360733,64.7357885 61.6933368,64.7367773 L54.887684,64.7367773 C53.7444498,64.7357885 52.8187138,63.8157587 52.8182161,62.6816651 L52.8182161,56.1574128 C52.8187138,55.0233192 53.7444498,54.1032894 54.887684,54.1023006 L61.6933368,54.1023006 C62.8360733,54.1032894 63.7618093,55.0233192 63.7628046,56.1574128 L63.7628046,62.6816651 Z" id="Shape"/>
                        <path d="M60.8432523,56.5499457 L57.3374005,59.9502492 L55.7372708,58.3993984 C55.4550706,58.110684 55.037494,57.995495 54.6457982,58.1012909 C54.2546,58.2060982 53.9514961,58.5145875 53.8549409,58.9051429 C53.7578879,59.2961927 53.8828126,59.7089948 54.1804416,59.9823835 L56.5589859,62.2891321 C56.9914937,62.7088555 57.6823118,62.7088555 58.1153174,62.2891321 L62.4005792,58.1339197 C62.8405526,57.707275 62.8495114,57.0062528 62.4194921,56.5687319 C61.9894728,56.131211 61.2842211,56.123301 60.8432523,56.5499457 L60.8432523,56.5499457 Z" id="Path"/>
                        <path d="M28.9322364,59.9823835 L31.3102829,62.2891321 C31.7432885,62.7088555 32.4346042,62.7088555 32.8676099,62.2891321 L37.1518763,58.1339197 C37.5928451,57.707275 37.6008084,57.0062528 37.1712868,56.5687319 C36.7417653,56.131211 36.0360159,56.123301 35.5955448,56.5499457 L32.0886975,59.9502492 L30.4890655,58.3993984 C30.2068653,58.110684 29.788791,57.995495 29.3980906,58.1012909 C29.0063948,58.2060982 28.7032909,58.5145875 28.6062379,58.9051429 C28.5101804,59.2961927 28.6341096,59.7089948 28.9322364,59.9823835 L28.9322364,59.9823835 Z" id="Path"/>
                        <path d="M30.207363,0.0687180018 C28.6176852,0.066246164 27.3266318,1.34469697 27.324641,2.92422157 C27.3221525,4.5032517 28.6092241,5.78565762 30.1993997,5.78812946 L30.2088562,5.78812946 C31.798534,5.78961261 33.0895874,4.51116168 33.0920759,2.93213155 C33.093569,1.35310129 31.8064973,0.0711898396 30.2168195,0.0687180018 L30.207363,0.0687180018 Z M30.8583645,2.92916524 C30.8583645,3.28560891 30.5672056,3.57432326 30.2088562,3.57432326 L30.2053722,3.57432326 C30.0331655,3.57382879 29.8679266,3.50511079 29.7464859,3.38349488 C29.6250453,3.26187896 29.5568593,3.09725236 29.5578547,2.92570472 C29.5588502,2.57024986 29.8495114,2.2825242 30.207363,2.2825242 L30.2103493,2.2825242 C30.5691964,2.28301854 30.8588621,2.5727217 30.8583645,2.92916524 Z" id="Shape"/>
                        <path d="M22.2898317,0.043504902 L22.2803753,0.043504902 C20.6906974,0.0410330642 19.399644,1.31898953 19.3971555,2.89801978 C19.3941693,4.47754425 20.6812409,5.75945571 22.2709188,5.76242201 L22.2803753,5.76242201 C23.8670668,5.7634107 25.1556317,4.4879262 25.160111,2.91186212 L25.160111,2.90246912 C25.1576225,1.32739385 23.8750301,0.0504261996 22.2898317,0.043504902 Z M22.7387639,3.36174242 C22.6168255,3.48236965 22.4520844,3.5496045 22.2803753,3.54911016 L22.2793798,3.54911016 C21.9200349,3.54861569 21.6288761,3.25891266 21.6293737,2.90246912 C21.6298715,2.54553111 21.9215281,2.25632242 22.2803753,2.25681676 L22.282366,2.25681676 C22.6412132,2.25879425 22.9313766,2.54849741 22.9313766,2.9054353 C22.9318744,3.07747741 22.8621954,3.24210401 22.7387639,3.36174242 Z" id="Shape"/>
                        <path d="M14.3533875,0.0182918021 C12.7637095,0.0158199643 11.4721585,1.29427077 11.46967,2.87330102 C11.4666838,4.45331996 12.7537554,5.73622023 14.343931,5.73869207 L14.3533875,5.73869207 C15.9440607,5.74116391 17.235114,4.4627131 17.2376025,2.8831885 C17.2400911,1.30366391 15.9530194,0.0207636399 14.3633416,0.0182918021 L14.3533875,0.0182918021 Z M15.0043889,2.8802222 C15.0033934,3.23617139 14.7122346,3.5243914 14.3533875,3.52488574 L14.352392,3.52488574 C13.9920517,3.5243914 13.7013905,3.23468837 13.7018882,2.87775036 C13.702386,2.52081248 13.9940426,2.23110932 14.3533875,2.23160366 L14.3553783,2.23160366 C14.5280828,2.23308681 14.6928239,2.30131047 14.81526,2.42342085 C14.9371984,2.54404795 15.0058821,2.70867455 15.0043889,2.8802222 Z" id="Shape"/>
                        <path d="M3.68452887,59.9823835 L6.0620777,62.2891321 C6.49508319,62.7088555 7.18639904,62.7088555 7.61890685,62.2891321 L11.9036709,58.1339197 C12.3446399,57.707275 12.3531009,57.0062528 11.9230816,56.5687319 C11.4930623,56.131211 10.7878107,56.123301 10.3473396,56.5499457 L6.84049228,59.9502492 L5.24086022,58.3993984 C4.95915782,58.110684 4.54058582,57.995495 4.14938764,58.1012909 C3.75769191,58.2060982 3.45508573,58.5145875 3.35853041,58.9051429 C3.26147741,59.2961927 3.38640203,59.7089948 3.68452887,59.9823835 L3.68452887,59.9823835 Z" id="Path"/>
                    </g>
                    <path d="M58.0322002,4.26891854 L58.0322002,39.6028089 C58.0297116,41.9594891 56.1075652,43.8692555 53.7344957,43.8717274 L34.1561746,43.8717274 L34.1561746,43.5350587 L31.927938,43.5350587 L31.927938,43.8717274 L12.3496169,43.8717274 C9.97754286,43.8692555 8.05440097,41.9594891 8.05191234,39.6028089 L8.05191234,4.26891854 C8.05440097,1.91223819 9.97754286,0.0024718631 12.3496169,-2.84217094e-14 L53.7344957,-2.84217094e-14 C56.1075652,0.0024718631 58.0297116,1.91223819 58.0322002,4.26891854 Z M55.8039635,39.6028089 L55.8039635,13.5606758 L10.280149,13.5606758 L10.280149,39.6028089 C10.2816421,40.7373969 11.2073782,41.6569324 12.3496169,41.6584155 L53.7344957,41.6584155 C54.8777298,41.6569324 55.8034658,40.7373969 55.8039635,39.6028089 L55.8039635,39.6028089 Z M55.8039635,11.3473638 L55.8039635,4.26891854 C55.8034658,3.13433044 54.8777298,2.21479501 53.7344957,2.21331186 L12.3496169,2.21331186 C11.2073782,2.21479501 10.2816421,3.13433044 10.280149,4.26891854 L10.280149,11.3473638 L55.8039635,11.3473638 Z" id="Shape" fill="#0B75FF"/>
                </g>
            </g>
        </g>
    </g>
</svg>