<?xml version="1.0" encoding="UTF-8"?>
<svg width="54px" height="55px" viewBox="0 0 54 55" version="1.1" xmlns="http://www.w3.org/2000/svg" xmlns:xlink="http://www.w3.org/1999/xlink">
    <!-- Generator: Sketch 54 (76480) - https://sketchapp.com -->
    <title>SWIFT protocol</title>
    <desc>Created with Sketch.</desc>
    <g id="Page-1" stroke="none" stroke-width="1" fill="none" fill-rule="evenodd">
        <g id="Biztalk" transform="translate(-419.000000, -1654.000000)" fill-rule="nonzero">
            <g id="Group-4" transform="translate(391.000000, 1626.000000)">
                <g id="SWIFT-protocol" transform="translate(28.000000, 28.000000)">
                    <path d="M4.09821429,19.1958425 L4.09821429,7.16083151 C4.09821429,6.89533917 4.37472321,6.73960613 4.640625,6.73960613 L2.22991071,6.73960613 C1.96400893,6.73960613 1.6875,6.89533917 1.6875,7.16083151 L1.6875,19.1958425 C1.71090134,19.4847155 1.94059219,19.7140526 2.22991071,19.7374179 L4.640625,19.7374179 C4.35130647,19.7140526 4.12161562,19.4847155 4.09821429,19.1958425 Z" id="Path" fill="#D4E1F4"/>
                    <path d="M4.09821429,52.8938731 L4.09821429,40.8588621 C4.09821429,40.5933698 4.37472321,40.4376368 4.640625,40.4376368 L2.22991071,40.4376368 C1.96400893,40.4376368 1.6875,40.5933698 1.6875,40.8588621 L1.6875,52.8938731 C1.71090134,53.1827461 1.94059219,53.4120833 2.22991071,53.4354486 L4.640625,53.4354486 C4.35130647,53.4120833 4.12161562,53.1827461 4.09821429,52.8938731 L4.09821429,52.8938731 Z" id="Path" fill="#D4E1F4"/>
                    <path d="M4.09821429,36.0448578 L4.09821429,24.0098468 C4.09821429,23.7443545 4.37472321,23.5886214 4.640625,23.5886214 L2.22991071,23.5886214 C1.96400893,23.5886214 1.6875,23.7443545 1.6875,24.0098468 L1.6875,36.0448578 C1.71090134,36.3337308 1.94059219,36.563068 2.22991071,36.5864333 L4.640625,36.5864333 C4.35130647,36.563068 4.12161562,36.3337308 4.09821429,36.0448578 L4.09821429,36.0448578 Z" id="Path" fill="#D4E1F4"/>
                    <path d="M30.2795357,44.232035 C28.7484249,44.232035 27.5072143,45.4713343 27.5072143,47.0000875 C27.5072143,48.5288407 28.7484249,49.76814 30.2795357,49.76814 C31.8106466,49.76814 33.0518571,48.5288407 33.0518571,47.0000875 C33.0501301,45.4720492 31.8099306,44.2337594 30.2795357,44.232035 L30.2795357,44.232035 Z M30.2795357,48.3239387 C29.5472653,48.3239387 28.9536429,47.7312304 28.9536429,47.0000875 C28.9536429,46.2689447 29.5472653,45.6762363 30.2795357,45.6762363 C31.0118061,45.6762363 31.6054286,46.2689447 31.6054286,47.0000875 C31.6046314,47.7309004 31.0114757,48.3231428 30.2795357,48.3239387 L30.2795357,48.3239387 Z" id="Shape" fill="#24527a"/>
                    <path d="M37.2706071,44.232035 C35.7394963,44.232035 34.4982857,45.4713343 34.4982857,47.0000875 C34.4982857,48.5288407 35.7394963,49.76814 37.2706071,49.76814 C38.801718,49.76814 40.0429286,48.5288407 40.0429286,47.0000875 C40.0412015,45.4720492 38.801002,44.2337594 37.2706071,44.232035 L37.2706071,44.232035 Z M37.2706071,48.3239387 C36.7343335,48.3239387 36.2508649,48.0013927 36.0456419,47.5067034 C35.8404188,47.0120142 35.9538566,46.4426022 36.3330593,46.0639834 C36.712262,45.6853646 37.2825522,45.5721015 37.7780044,45.7770085 C38.2734566,45.9819155 38.5965,46.4646397 38.5965,47.0000875 C38.5957028,47.7309004 38.0025471,48.3231428 37.2706071,48.3239387 L37.2706071,48.3239387 Z" id="Shape" fill="#24527a"/>
                    <path d="M4.45982143,44.4727352 C4.06040121,44.4727352 3.73660714,44.7960307 3.73660714,45.1948359 L3.73660714,48.8053392 C3.73660714,49.2041443 4.06040121,49.5274398 4.45982143,49.5274398 C4.85924165,49.5274398 5.18303571,49.2041443 5.18303571,48.8053392 L5.18303571,45.1948359 C5.18303571,44.7960307 4.85924165,44.4727352 4.45982143,44.4727352 L4.45982143,44.4727352 Z" id="Path" fill="#24527a"/>
                    <path d="M6.99107143,45.1948359 L6.99107143,48.8053392 C6.99107143,49.2041443 7.31486549,49.5274398 7.71428571,49.5274398 C8.11370594,49.5274398 8.4375,49.2041443 8.4375,48.8053392 L8.4375,45.1948359 C8.4375,44.7960307 8.11370594,44.4727352 7.71428571,44.4727352 C7.31486549,44.4727352 6.99107143,44.7960307 6.99107143,45.1948359 Z" id="Path" fill="#24527a"/>
                    <path d="M10.8482143,44.4727352 C10.4487941,44.4727352 10.125,44.7960307 10.125,45.1948359 L10.125,48.8053392 C10.125,49.2041443 10.4487941,49.5274398 10.8482143,49.5274398 C11.2476345,49.5274398 11.5714286,49.2041443 11.5714286,48.8053392 L11.5714286,45.1948359 C11.5714286,44.7960307 11.2476345,44.4727352 10.8482143,44.4727352 L10.8482143,44.4727352 Z" id="Path" fill="#24527a"/>
                    <path d="M13.9821429,44.4727352 C13.5827226,44.4727352 13.2589286,44.7960307 13.2589286,45.1948359 L13.2589286,48.8053392 C13.2589286,49.2041443 13.5827226,49.5274398 13.9821429,49.5274398 C14.3815631,49.5274398 14.7053571,49.2041443 14.7053571,48.8053392 L14.7053571,45.1948359 C14.7053571,44.7960307 14.3815631,44.4727352 13.9821429,44.4727352 L13.9821429,44.4727352 Z" id="Path" fill="#24527a"/>
                    <path d="M17.2366071,44.4727352 C16.8371869,44.4727352 16.5133929,44.7960307 16.5133929,45.1948359 L16.5133929,48.8053392 C16.5133929,49.2041443 16.8371869,49.5274398 17.2366071,49.5274398 C17.6360274,49.5274398 17.9598214,49.2041443 17.9598214,48.8053392 L17.9598214,45.1948359 C17.9598214,44.7960307 17.6360274,44.4727352 17.2366071,44.4727352 L17.2366071,44.4727352 Z" id="Path" fill="#24527a"/>
                    <path d="M41.7906964,38.1509847 C42.873107,38.1259188 43.7412541,37.2495317 43.7544643,36.1685777 L43.7544643,27.4398249 L42.3080357,27.4398249 L42.3080357,36.1685777 C42.2957619,36.4523849 42.0741977,36.6828857 41.7906964,36.7067834 L37.6504152,36.7067834 C37.5510937,36.345733 37.2839866,36.2253829 36.9692679,36.2253829 L6.83533929,36.2253829 C6.52062054,36.2253829 6.25351339,36.345733 6.15419196,36.7067834 L2.01391071,36.7067834 C1.74776786,36.7067834 1.56696429,36.43407 1.56696429,36.1685777 L1.56696429,24.1335667 C1.56140957,24.0154781 1.60750487,23.9008039 1.69328323,23.8193153 C1.77906158,23.7378266 1.89606241,23.6975608 2.01391071,23.7089716 L6.20975893,23.7089716 C6.334875,23.8293217 6.56775,24.0700219 6.83533929,24.0700219 L29.4107143,24.0700219 L29.4107143,22.6258206 L7.59375,22.6258206 L7.59375,20.8205689 L27.4821429,20.8205689 L27.4821429,19.3763676 L6.83533929,19.3763676 C6.52062054,19.3763676 6.25363393,19.4967177 6.15419196,19.8577681 L2.01391071,19.8577681 C1.74776786,19.8577681 1.56696429,19.5850547 1.56696429,19.3195624 L1.56696429,7.28455142 C1.56140957,7.16646277 1.60750487,7.05178863 1.69328323,6.97029994 C1.77906158,6.88881126 1.89606241,6.84854551 2.01391071,6.85995624 L29.1696429,6.85995624 L29.1696429,5.41575492 L2.01391071,5.41575492 C1.51225942,5.40484441 1.0276199,5.59751641 0.670776054,5.94972795 C0.31393221,6.30193949 0.115390526,6.78358011 0.120535714,7.28455142 L0.120535714,19.3195624 C0.120535714,20.3814114 0.950544643,21.3019694 2.01391071,21.3019694 L6.14732143,21.3019694 L6.14732143,22.2647702 L2.01391071,22.2647702 C1.51225942,22.2538597 1.0276199,22.4465317 0.670776054,22.7987433 C0.31393221,23.1509548 0.115390526,23.6325954 0.120535714,24.1335667 L0.120535714,36.1685777 C0.120535714,37.2304267 0.950544643,38.1509847 2.01391071,38.1509847 L6.14732143,38.1509847 L6.14732143,39.1137856 L2.01391071,39.1137856 C1.51225942,39.102875 1.0276199,39.295547 0.670776054,39.6477586 C0.31393221,39.9999701 0.115390526,40.4816107 0.120535714,40.9825821 L0.120535714,53.017593 C0.120535714,54.079442 0.950544643,55 2.01391071,55 L41.7906964,55 C42.873107,54.9749341 43.7412541,54.098547 43.7544643,53.017593 L43.7544643,40.9825821 C43.7544643,39.9208534 42.8540625,39.1137856 41.7906964,39.1137856 L37.7276786,39.1137856 L37.7276786,38.1509847 L41.7906964,38.1509847 Z M36.28125,39.4748359 L7.59375,39.4748359 L7.59375,37.6695842 L36.28125,37.6695842 L36.28125,39.4748359 Z M42.3080357,40.9825821 L42.3080357,53.017593 C42.2957619,53.3014002 42.0741977,53.531901 41.7906964,53.5557987 L2.01391071,53.5557987 C1.74776786,53.5557987 1.56696429,53.2830853 1.56696429,53.017593 L1.56696429,40.9825821 C1.56140957,40.8644934 1.60750487,40.7498193 1.69328323,40.6683306 C1.77906158,40.5868419 1.89606241,40.5465761 2.01391071,40.5579869 L6.20975893,40.5579869 C6.33475446,40.678337 6.56775,40.9190372 6.83533929,40.9190372 L36.9692679,40.9190372 C37.2368571,40.9190372 37.4698527,40.678337 37.5948482,40.5579869 L41.7906964,40.5579869 C42.0565982,40.5579869 42.3080357,40.7172101 42.3080357,40.9825821 Z" id="Shape" fill="#24527a"/>
                    <path d="M27.5072143,30.1510722 C27.5072143,31.6798254 28.7484249,32.9191247 30.2795357,32.9191247 C31.8106466,32.9191247 33.0518571,31.6798254 33.0518571,30.1510722 C33.0518571,28.622319 31.8106466,27.3830197 30.2795357,27.3830197 C28.7491408,27.3847441 27.5089414,28.6230339 27.5072143,30.1510722 Z M30.2795357,28.827221 C31.0118061,28.827221 31.6054286,29.4199294 31.6054286,30.1510722 C31.6054286,30.882215 31.0118061,31.4749234 30.2795357,31.4749234 C29.5472653,31.4749234 28.9536429,30.882215 28.9536429,30.1510722 C28.9545063,29.4202868 29.5476233,28.8280831 30.2795357,28.827221 Z" id="Shape" fill="#24527a"/>
                    <path d="M37.2706071,32.9191247 C38.3919065,32.9191247 39.4027955,32.2447104 39.8318982,31.21036 C40.2610009,30.1760097 40.0238128,28.985421 39.2309344,28.1937635 C38.4380561,27.402106 37.2456312,27.1652832 36.2096857,27.5937251 C35.1737401,28.0221671 34.4982857,29.0314995 34.4982857,30.1510722 C34.5000128,31.6791106 35.7402122,32.9174003 37.2706071,32.9191247 L37.2706071,32.9191247 Z M37.2706071,28.827221 C38.0028775,28.827221 38.5965,29.4199294 38.5965,30.1510722 C38.5965,30.882215 38.0028775,31.4749234 37.2706071,31.4749234 C36.5383367,31.4749234 35.9447143,30.882215 35.9447143,30.1510722 C35.9455777,29.4202868 36.5386947,28.8280831 37.2706071,28.827221 Z" id="Shape" fill="#24527a"/>
                    <path d="M3.73660714,28.3458206 L3.73660714,31.9563239 C3.73660714,32.355129 4.06040121,32.6784245 4.45982143,32.6784245 C4.85924165,32.6784245 5.18303571,32.355129 5.18303571,31.9563239 L5.18303571,28.3458206 C5.18303571,27.9470154 4.85924165,27.6237199 4.45982143,27.6237199 C4.06040121,27.6237199 3.73660714,27.9470154 3.73660714,28.3458206 Z" id="Path" fill="#24527a"/>
                    <path d="M6.99107143,28.3458206 L6.99107143,31.9563239 C6.99107143,32.355129 7.31486549,32.6784245 7.71428571,32.6784245 C8.11370594,32.6784245 8.4375,32.355129 8.4375,31.9563239 L8.4375,28.3458206 C8.4375,27.9470154 8.11370594,27.6237199 7.71428571,27.6237199 C7.31486549,27.6237199 6.99107143,27.9470154 6.99107143,28.3458206 Z" id="Path" fill="#24527a"/>
                    <path d="M10.125,28.3458206 L10.125,31.9563239 C10.125,32.355129 10.4487941,32.6784245 10.8482143,32.6784245 C11.2476345,32.6784245 11.5714286,32.355129 11.5714286,31.9563239 L11.5714286,28.3458206 C11.5714286,27.9470154 11.2476345,27.6237199 10.8482143,27.6237199 C10.4487941,27.6237199 10.125,27.9470154 10.125,28.3458206 Z" id="Path" fill="#24527a"/>
                    <path d="M13.2589286,28.3458206 L13.2589286,31.9563239 C13.2589286,32.355129 13.5827226,32.6784245 13.9821429,32.6784245 C14.3815631,32.6784245 14.7053571,32.355129 14.7053571,31.9563239 L14.7053571,28.3458206 C14.7053571,27.9470154 14.3815631,27.6237199 13.9821429,27.6237199 C13.5827226,27.6237199 13.2589286,27.9470154 13.2589286,28.3458206 Z" id="Path" fill="#24527a"/>
                    <path d="M16.5133929,28.3458206 L16.5133929,31.9563239 C16.5133929,32.355129 16.8371869,32.6784245 17.2366071,32.6784245 C17.6360274,32.6784245 17.9598214,32.355129 17.9598214,31.9563239 L17.9598214,28.3458206 C17.9598214,27.9470154 17.6360274,27.6237199 17.2366071,27.6237199 C16.8371869,27.6237199 16.5133929,27.9470154 16.5133929,28.3458206 Z" id="Path" fill="#24527a"/>
                    <path d="M3.73660714,11.4968053 L3.73660714,15.1073085 C3.73660714,15.5061137 4.06040121,15.8294092 4.45982143,15.8294092 C4.85924165,15.8294092 5.18303571,15.5061137 5.18303571,15.1073085 L5.18303571,11.4968053 C5.18303571,11.0980001 4.85924165,10.7747046 4.45982143,10.7747046 C4.06040121,10.7747046 3.73660714,11.0980001 3.73660714,11.4968053 L3.73660714,11.4968053 Z" id="Path" fill="#24527a"/>
                    <path d="M6.99107143,11.4968053 L6.99107143,15.1073085 C6.99107143,15.5061137 7.31486549,15.8294092 7.71428571,15.8294092 C8.11370594,15.8294092 8.4375,15.5061137 8.4375,15.1073085 L8.4375,11.4968053 C8.4375,11.0980001 8.11370594,10.7747046 7.71428571,10.7747046 C7.31486549,10.7747046 6.99107143,11.0980001 6.99107143,11.4968053 L6.99107143,11.4968053 Z" id="Path" fill="#24527a"/>
                    <path d="M10.125,11.4968053 L10.125,15.1073085 C10.125,15.5061137 10.4487941,15.8294092 10.8482143,15.8294092 C11.2476345,15.8294092 11.5714286,15.5061137 11.5714286,15.1073085 L11.5714286,11.4968053 C11.5714286,11.0980001 11.2476345,10.7747046 10.8482143,10.7747046 C10.4487941,10.7747046 10.125,11.0980001 10.125,11.4968053 L10.125,11.4968053 Z" id="Path" fill="#24527a"/>
                    <path d="M13.2589286,11.4968053 L13.2589286,15.1073085 C13.2589286,15.5061137 13.5827226,15.8294092 13.9821429,15.8294092 C14.3815631,15.8294092 14.7053571,15.5061137 14.7053571,15.1073085 L14.7053571,11.4968053 C14.7053571,11.0980001 14.3815631,10.7747046 13.9821429,10.7747046 C13.5827226,10.7747046 13.2589286,11.0980001 13.2589286,11.4968053 L13.2589286,11.4968053 Z" id="Path" fill="#24527a"/>
                    <path d="M16.5133929,11.4968053 L16.5133929,15.1073085 C16.5133929,15.5061137 16.8371869,15.8294092 17.2366071,15.8294092 C17.6360274,15.8294092 17.9598214,15.5061137 17.9598214,15.1073085 L17.9598214,11.4968053 C17.9598214,11.0980001 17.6360274,10.7747046 17.2366071,10.7747046 C16.8371869,10.7747046 16.5133929,11.0980001 16.5133929,11.4968053 L16.5133929,11.4968053 Z" id="Path" fill="#24527a"/>
                    <path d="M53.2697946,17.6748578 L50.6633304,15.6922101 C50.7284893,15.2665192 50.7634113,14.8367598 50.7678348,14.4061488 C50.7635768,13.9784124 50.7290578,13.5515108 50.6645357,13.1286324 L53.4563839,11.1464661 C53.4616875,11.1427352 53.4669911,11.138884 53.4720536,11.1350328 C53.9169158,10.8007574 54.0424894,10.1878448 53.7648348,9.70599562 L50.8441339,4.80112691 C50.4758973,4.18962801 49.879125,4.16050328 49.4700268,4.39193654 L46.3791295,5.81206783 C45.6919909,5.31269132 44.9544893,4.8863445 44.1786295,4.53996718 L43.870058,1.14609409 C43.8670561,1.1029783 43.8616234,1.06006565 43.8537857,1.01756018 C43.73325,0.50571116 43.3070357,0.119748359 42.8171786,0.119748359 L37.1139107,0.119748359 C36.5664655,0.123901682 36.1116638,0.542431207 36.0629598,1.08688184 L35.7527009,4.52516411 C34.9690841,4.86256661 34.2278903,5.29073959 33.5443661,5.80087527 L30.4446696,4.38074398 C30.4335804,4.37568928 30.4224911,4.37268053 30.4110402,4.36810722 C29.9204598,4.17193654 29.3232054,4.36955142 29.087317,4.79847921 L26.2365268,9.69889497 C25.9501683,10.1841749 26.0786662,10.807153 26.5337679,11.1399672 C26.5387098,11.143698 26.5436518,11.1474289 26.5485937,11.150919 L29.333692,13.128151 C29.2689415,13.550968 29.234301,13.9778372 29.2300312,14.405547 C29.234224,14.8314306 29.2685821,15.2564847 29.3328482,15.6775274 L26.4158839,17.6606565 C26.4062411,17.6673961 26.3967188,17.6741357 26.3874375,17.6812363 C25.9475052,18.0141595 25.82337,18.6213622 26.0974286,19.0998031 L28.9570179,24.013698 C29.086984,24.2408925 29.2928667,24.4151866 29.5386027,24.5060503 C29.8018558,24.5951733 30.091098,24.5635889 30.3288348,24.4197593 L33.4205759,22.999628 C34.1075162,23.498782 34.8447227,23.9250411 35.6202321,24.271488 L35.9295268,27.6653611 C35.9325858,27.7003896 35.9380224,27.7351705 35.9457991,27.7694639 C36.0456816,28.2655092 36.4745759,28.6275311 36.9810804,28.643326 L42.6853125,28.643326 C43.227807,28.6501306 43.6848042,28.2402673 43.7360223,27.7009847 L44.0468839,24.2744967 C44.8300854,23.9388858 45.5711758,23.5127455 46.2549777,23.0048031 L49.3543125,24.4281838 C49.3663661,24.4337199 49.3784196,24.4387746 49.3904732,24.4435886 C49.8787634,24.6361488 50.4745714,24.439256 50.7102187,24.0141794 L53.5649866,19.1075055 C53.8471942,18.6247191 53.7199579,18.0072061 53.2697946,17.6748578 Z M49.644683,22.9713457 L46.4530179,21.5051204 C46.2018172,21.3896966 45.9066867,21.4273954 45.6926786,21.6022429 L45.5310402,21.734628 C44.9551205,22.2051969 44.2133438,22.6317177 43.2634018,23.0386214 L43.0804286,23.116849 C42.8358536,23.2231009 42.6688876,23.454195 42.6450536,23.719442 L42.3296116,27.1991247 L37.3381071,27.1991247 L37.0213393,23.7188403 C36.9972397,23.4542048 36.8301642,23.2239006 36.5858438,23.1185339 L36.4032321,23.0393435 C35.5840933,22.6908485 34.810736,22.2435942 34.1003973,21.7075492 L33.9410491,21.5879212 C33.728722,21.4288151 33.4461569,21.3986479 33.2049375,21.5093326 L30.022192,22.9712254 L27.5142054,18.661488 L30.3467946,16.7358862 C30.3523393,16.7319147 30.358125,16.7280635 30.3636696,16.7238512 L30.535192,16.6000109 C30.7526534,16.4429167 30.8650918,16.1784933 30.82725,15.9131729 L30.7977188,15.7065317 C30.7255095,15.2765309 30.6849412,14.8418268 30.6763393,14.4059081 C30.6850779,13.9675114 30.7260497,13.5303474 30.7989241,13.0979431 L30.8276116,12.896477 C30.8657424,12.6290124 30.7511527,12.3626674 30.5306116,12.2061488 L27.6432991,10.1564661 L30.1541786,5.84095186 L33.3462054,7.30717724 C33.5973733,7.42255027 33.8924417,7.3848535 34.1064241,7.2100547 L34.268183,7.07766958 C34.845067,6.60637856 35.5867232,6.17997812 36.5353393,5.77391685 L36.7189152,5.69544858 C36.9656572,5.57882281 37.131604,5.33991379 37.1545313,5.06830416 L37.4694911,1.56455142 L42.4612366,1.56455142 L42.7774018,5.06890591 C42.8008471,5.33687022 42.967506,5.57126036 43.2131384,5.68172867 L43.3963527,5.76705689 C44.2154835,6.11628859 44.9886582,6.56444356 45.6985848,7.10149891 L45.857933,7.22281182 C46.0702115,7.38246965 46.3530903,7.41301529 46.5946473,7.30236324 L49.7800446,5.83950766 L52.3516741,10.158512 L49.4678571,12.2063895 C49.247449,12.3629455 49.1329624,12.6292209 49.1710982,12.8965974 L49.1999062,13.0987856 C49.2724802,13.5310153 49.3132499,13.967972 49.3218884,14.4061488 C49.3136653,14.8440193 49.2729736,15.2806804 49.2001473,15.7125492 L49.1720625,15.9071554 C49.1347623,16.1663709 49.2408236,16.4254526 49.4492946,16.5843654 L52.1613482,18.6468053 L49.644683,22.9713457 Z" id="Shape" fill="#43D92D"/>
                    <path d="M39.9325179,6.70771335 C35.6092634,6.70771335 32.2225714,10.0895514 32.2225714,14.4060284 C32.2225714,18.7225055 35.609625,22.1045842 39.9325179,22.1045842 C44.2554107,22.1045842 47.6429464,18.7227462 47.6429464,14.4060284 C47.6429464,10.0893107 44.2561339,6.70771335 39.9325179,6.70771335 Z M39.9325179,20.6603829 C36.4731198,20.6603165 33.6687589,17.8602199 33.6687589,14.4061488 C33.6687589,10.9520777 36.4731198,8.15198113 39.9325179,8.15191466 C43.3919159,8.1518482 46.1963847,10.951837 46.1965179,14.4059081 C46.2146427,16.0701589 45.5605132,17.671527 44.381837,18.8484109 C43.2031608,20.0252948 41.5993356,20.6784479 39.9325179,20.6603829 L39.9325179,20.6603829 Z" id="Shape" fill="#43D92D"/>
                    <path d="M39.9327589,10.5426696 C38.367386,10.5426209 36.9561386,11.4841344 36.3571414,12.928142 C35.7581442,14.3721497 36.0893734,16.0342456 37.1963626,17.1393237 C38.3033518,18.2444018 39.9680729,18.5748102 41.4141955,17.9764655 C42.8603182,17.3781208 43.8030199,15.9688705 43.8026786,14.4059081 C43.8136308,13.3778746 43.4094027,12.3887682 42.6812429,11.6618655 C41.9530832,10.9349629 40.9623758,10.5315421 39.9327589,10.5426696 L39.9327589,10.5426696 Z M39.9327589,16.8265098 C38.5943137,16.8265763 37.5092044,15.7433353 37.5090269,14.4069511 C37.5088494,13.0705668 38.593671,11.9870386 39.9321162,11.9867506 C41.2705614,11.9864626 42.3558506,13.0695239 42.35625,14.4059081 C42.3632904,15.0498304 42.1102322,15.6694351 41.654215,16.124818 C41.1981978,16.580201 40.5776753,16.8329619 39.9327589,16.8260284 L39.9327589,16.8265098 Z" id="Shape" fill="#43D92D"/>
                </g>
            </g>
        </g>
    </g>
</svg>