<svg color="#717a94" data-icon="FOLDER" fill="#717a94" width="300" height="300" viewBox="0 0 16 16" xmlns="http://www.w3.org/2000/svg">
  <desc>
    dynamic
  </desc>
  <g stroke-width="1">
    <g transform="">
      <path clip-rule="evenodd" d="M2.146 3.146A.5.5 0 0 1 2.5 3h3.793l2 2H13.5a.5.5 0 0 1 .5.5V7H2V3.5a.5.5 0 0 1 .146-.354ZM2 8v4.5a.5.5 0 0 0 .5.5h11a.5.5 0 0 0 .5-.5V8H2Zm.5-6A1.5 1.5 0 0 0 1 3.5v9A1.5 1.5 0 0 0 2.5 14h11a1.5 1.5 0 0 0 1.5-1.5v-7A1.5 1.5 0 0 0 13.5 4H8.707l-2-2H2.5Z" fill="currentColor" fill-rule="evenodd"/>
    </g>
  </g>
</svg>