<svg color="#717a94" data-icon="all-projects" fill="#717a94" height="300" viewBox="0 0 16 16" width="300" xmlns="http://www.w3.org/2000/svg">
  <desc>
    dynamic
  </desc>
  <g stroke-width="1">
    <g transform="">
      <path clip-rule="evenodd" d="M12 1H4V2H12V1ZM2 3H14V4H2V3ZM1 6H15V15H1V6ZM0 6C0 5.44771 0.447715 5 1 5H15C15.5523 5 16 5.44772 16 6V15C16 15.5523 15.5523 16 15 16H1C0.447715 16 0 15.5523 0 15V6ZM5 9H4V12H5H11H12V9H11V11H5V9Z" fill="currentColor" fill-rule="evenodd"/>
    </g>
  </g>
</svg>