<?xml version="1.0" encoding="UTF-8"?>
<svg width="55px" height="71px" viewBox="0 0 55 71" version="1.1" xmlns="http://www.w3.org/2000/svg" xmlns:xlink="http://www.w3.org/1999/xlink">
    <!-- Generator: Sketch 54 (76480) - https://sketchapp.com -->
    <title>Enterprise Solution Integration </title>
    <desc>Created with Sketch.</desc>
    <g id="Page-1" stroke="none" stroke-width="1" fill="none" fill-rule="evenodd">
        <g id="Enterprise-Software-Solutions" transform="translate(-1198.000000, -1320.000000)" fill-rule="nonzero">
            <g id="Group-4" transform="translate(1170.000000, 1267.000000)">
                <g id="Enterprise-Solution-Integration-" transform="translate(28.000000, 53.000000)">
                    <path d="M31.0242308,62.9765525 L24.3183104,62.9765525 C23.8176127,62.9765525 23.411717,63.3772389 23.411717,63.8715105 C23.411717,64.3657822 23.8176127,64.7664685 24.3183104,64.7664685 L31.0242308,64.7664685 C31.5249285,64.7664685 31.9308242,64.3657822 31.9308242,63.8715105 C31.9308242,63.3772389 31.5249285,62.9765525 31.0242308,62.9765525 Z" id="Path" fill="#24527a"/>
                    <path d="M6.22693681,25.265708 C7.08693011,25.2659051 7.93939363,25.1075157 8.74046703,24.7986891 L8.74046703,64.6593718 C8.74429776,68.1506572 11.6103846,70.97996 15.1470604,70.9837416 L40.195783,70.9837416 C43.7323899,70.979796 46.5983795,68.1505892 46.6023764,64.6593718 L46.6023764,24.9232374 C49.8205808,25.9744336 53.3355445,24.561378 54.8942308,21.5898172 L54.9017857,21.5749013 C54.964722,21.4505936 54.9974687,21.3135256 54.9974313,21.1745567 L54.9974313,15.7003971 C54.9974313,15.6981597 54.9974313,15.6960714 54.9974313,15.693834 C54.9974313,15.6878676 54.9974313,15.6819013 54.9965247,15.6759349 C54.9954124,15.6386216 54.991981,15.6014109 54.98625,15.5645126 C54.9848901,15.5566071 54.9841346,15.5487017 54.9826236,15.5409454 C54.9754581,15.4999684 54.9653596,15.4595443 54.9524038,15.4199769 C54.9507418,15.4150546 54.9486264,15.4102815 54.9469643,15.4050609 C54.933727,15.3675523 54.917926,15.3309738 54.8996703,15.2955777 C54.8975549,15.2914013 54.8958929,15.2872248 54.8936264,15.2830483 C54.8740727,15.2467559 54.8519577,15.2118659 54.8274451,15.1786366 C54.8221566,15.1714769 54.8168681,15.1644664 54.8114286,15.1574559 C54.785817,15.124817 54.7579482,15.0939667 54.728022,15.0651261 C54.7248489,15.0619937 54.7212225,15.0591597 54.7180495,15.0560273 C54.6880296,15.0277976 54.6561266,15.0015862 54.6225549,14.9775693 C54.6192308,14.9751828 54.6166621,14.9723487 54.6133379,14.9699622 L46.6019231,9.38989916 L46.6019231,6.34062815 C46.5979262,2.84941082 43.7319366,0.0202040285 40.1953297,0.0162584034 L15.1467582,0.0162584034 C11.6100824,0.020039968 8.74399556,2.84934276 8.74016484,6.34062815 L8.74016484,9.35633824 L0.39875,14.9607143 C0.147803327,15.1298991 -0.000426749242,15.4120784 0.00407967033,15.7120315 C0.00407967033,15.7251576 0.00226648352,15.7378361 0.00226648352,15.7509622 L0.00226648352,21.1747059 C0.00255883373,21.3197005 0.0382159244,21.4624937 0.106222527,21.5910105 C1.28658526,23.8524068 3.64992795,25.2712885 6.22693681,25.265708 Z M40.195783,69.193229 L15.1467582,69.193229 C12.611029,69.1905161 10.5560998,67.1619603 10.5533516,64.6587752 L10.5533516,58.4594013 L44.7891896,58.4594013 L44.7891896,64.6593718 C44.7862751,67.1624647 42.7314188,69.1908817 40.195783,69.1936765 L40.195783,69.193229 Z M44.7891896,56.6690378 L10.5536538,56.6690378 L10.5536538,23.7611345 C10.9166307,23.4727867 11.2489007,23.1486794 11.5453159,22.793834 C12.855793,24.3590203 14.8054806,25.2652236 16.8624863,25.2652236 C18.919492,25.2652236 20.8691795,24.3590203 22.1796566,22.793834 C23.4901171,24.360097 25.4405019,25.2670289 27.4983379,25.2670289 C29.5561739,25.2670289 31.5065587,24.360097 32.8170192,22.793834 C34.1273648,24.3599688 36.0775846,25.2668274 38.1352473,25.2668274 C40.1929099,25.2668274 42.1431297,24.3599688 43.4534753,22.793834 C43.8416162,23.2595937 44.2910867,23.6720433 44.7899451,24.0202248 L44.7891896,56.6690378 Z M48.7721566,23.4777311 C46.870729,23.4972427 45.1230012,22.4493196 44.2639698,20.7746597 C44.1106179,20.4738872 43.7993683,20.2834045 43.4582744,20.2815793 C43.1171806,20.2797541 42.8038575,20.4668947 42.6472115,20.7660084 C41.7745003,22.431273 40.0336546,23.4768593 38.1343637,23.476514 C36.2350727,23.4761686 34.4946172,22.4299494 33.6225275,20.7643676 C33.469125,20.4718273 33.1653288,20.2861248 32.8316758,20.2809412 L32.8165659,20.2809412 C32.4880877,20.2812542 32.1853593,20.4565679 32.0248077,20.739458 C32.0199725,20.7481092 32.0152885,20.7567605 32.0107555,20.7655609 C31.1376879,22.4313248 29.3960307,23.4769719 27.4961269,23.4760301 C25.5962231,23.4750882 23.8556306,22.4277148 22.9842582,20.7610861 C22.8280469,20.46547 22.5183175,20.280086 22.1805632,20.2800462 L22.1789011,20.2800462 C21.8406077,20.2806625 21.5308027,20.4671617 21.3753571,20.763771 C20.5027798,22.4289302 18.7622254,23.4746016 16.8630907,23.4746016 C14.9639559,23.4746016 13.2234016,22.4289302 12.3508242,20.763771 C12.1949528,20.4663252 11.8839006,20.2796738 11.5446585,20.2800192 C11.2054164,20.2803646 10.894755,20.4676492 10.7395055,20.7654118 C9.88426742,22.3972131 8.19359065,23.4367298 6.33283717,23.4748626 C4.47208368,23.5129953 2.73916131,22.543639 1.81605769,20.9482815 L1.81605769,16.5961008 L53.1851511,16.5961008 L53.1851511,20.9484307 C52.2948478,22.5261623 50.6015431,23.4966771 48.7721566,23.4777311 Z M15.1467582,1.80632353 L40.195783,1.80632353 C42.7314777,1.80911842 44.7863583,3.83762623 44.7891896,6.34077731 L44.7891896,8.93466387 L10.5536538,8.93466387 L10.5536538,6.34062815 C10.5564849,3.83761761 12.6112059,1.8092006 15.1467582,1.80632353 Z M9.92629121,10.7245798 L45.0392582,10.7245798 C45.2099117,10.9027534 45.4473897,11.0036474 45.695783,11.0035084 C45.7205632,11.0035084 45.7448901,11.0018676 45.769217,10.9999286 L51.2337088,14.8060357 L3.85196429,14.8060357 L9.92629121,10.7245798 Z" id="Shape" fill="#24527a"/>
                    <path d="M27.5,27.981458 C24.8939096,27.9739099 22.393634,28.9985061 20.5591209,30.8257836 C18.7886377,32.5833008 17.722433,34.9140528 17.5575412,37.3873172 C17.4692102,38.7445554 17.6710664,40.104958 18.15,41.3801723 C18.6521211,42.7015991 19.4214135,43.9083264 20.411044,44.9268908 L26.8390934,51.6859118 C27.0104567,51.8660696 27.2496569,51.9682588 27.5,51.9682588 C27.7503431,51.9682588 27.9895433,51.8660696 28.1609066,51.6859118 L34.588956,44.9268908 C35.5785353,43.9084011 36.3478235,42.7017819 36.85,41.3804706 C37.3289116,40.1052508 37.5307671,38.7448528 37.4424588,37.3876155 C37.2776028,34.9142987 36.2113954,32.5834879 34.4408791,30.8259328 C32.606391,28.9986005 30.1061123,27.9739493 27.5,27.981458 Z M35.146511,40.7668277 C34.7280801,41.8607272 34.0886672,42.8591989 33.2671429,43.7015441 L27.5,49.7656303 L21.7328571,43.7015441 C20.9112956,42.8591705 20.2718789,41.8606424 19.853489,40.7666786 C19.4614656,39.7258184 19.295595,38.6152 19.3666484,37.5069433 C19.5024091,35.4649824 20.3822531,33.5405303 21.8436126,32.089166 C23.3422205,30.6053551 25.3774682,29.7713849 27.5,29.7713849 C29.6225318,29.7713849 31.6577795,30.6053551 33.1563874,32.089166 C34.6177469,33.5405303 35.4975909,35.4649824 35.6333516,37.5069433 C35.704372,38.6152473 35.5385027,39.7259077 35.146511,40.7668277 L35.146511,40.7668277 Z" id="Shape" fill="#43D92D"/>
                    <path d="M27.5,32.5445504 C24.878283,32.5445504 22.745522,34.6957311 22.745522,37.3398845 C22.745522,39.9840378 24.878283,42.1353676 27.5,42.1353676 C30.121717,42.1353676 32.254478,39.9840378 32.254478,37.3398845 C32.254478,34.6957311 30.121717,32.5445504 27.5,32.5445504 Z M27.5,40.3456008 C25.8782555,40.3456008 24.5587088,38.9973466 24.5587088,37.3400336 C24.5587088,35.6827206 25.8782555,34.3346155 27.5,34.3346155 C29.1217445,34.3346155 30.4412912,35.6828697 30.4412912,37.3400336 C30.4412912,38.9971975 29.1217445,40.3454517 27.5,40.3454517 L27.5,40.3456008 Z" id="Shape" fill="#43D92D"/>
                    <path d="M15.0866209,64.6593718 L15.0866209,58.4594013 L10.5536538,58.4594013 L10.5536538,64.6593718 C10.556402,67.162557 12.6113312,69.1911128 15.1470604,69.1938256 L19.6800275,69.1938256 C17.1442982,69.1911128 15.089369,67.162557 15.0866209,64.6593718 L15.0866209,64.6593718 Z" id="Path" fill="#D4E1F4"/>
                    <path d="M11.5453159,22.7930882 C11.2489007,23.1479336 10.9166307,23.4720409 10.5536538,23.7603887 L10.5536538,56.6694853 L15.0866209,56.6694853 L15.0866209,25.0348088 C13.6973208,24.6725101 12.4585125,23.8883184 11.5453159,22.7930882 Z" id="Path" fill="#D4E1F4"/>
                    <path d="M9.37039835,20.9481324 L9.37039835,16.5961008 L1.8154533,16.5961008 L1.8154533,20.9481324 C2.62492014,22.3448123 4.06343383,23.2739135 5.68403482,23.4467558 C7.30463581,23.619598 8.91097803,23.0152403 10.003956,21.8214622 C9.76238253,21.5530491 9.55003202,21.2603338 9.37039835,20.9481324 Z" id="Path" fill="#D4E1F4"/>
                    <path d="M22.7017033,1.80632353 L15.1467582,1.80632353 C12.611029,1.80903639 10.5560998,3.8375922 10.5533516,6.34077731 L10.5533516,8.93466387 L18.1082967,8.93466387 L18.1082967,6.34062815 C18.1111281,3.83750129 20.166033,1.80903623 22.7017033,1.80632353 Z" id="Path" fill="#D4E1F4"/>
                    <polygon id="Path" fill="#D4E1F4" points="9.92629121 10.724729 3.85196429 14.8061849 11.4069093 14.8061849 17.4812363 10.724729"/>
                </g>
            </g>
        </g>
    </g>
</svg>