<?xml version="1.0" encoding="UTF-8"?>
<svg width="72px" height="70px" viewBox="0 0 72 70" version="1.1" xmlns="http://www.w3.org/2000/svg" xmlns:xlink="http://www.w3.org/1999/xlink">
    <!-- Generator: Sketch 54 (76480) - https://sketchapp.com -->
    <title>Enterprise Solution  Outsourcing </title>
    <desc>Created with Sketch.</desc>
    <g id="Page-1" stroke="none" stroke-width="1" fill="none" fill-rule="evenodd">
        <g id="Enterprise-Software-Solutions" transform="translate(-420.000000, -1893.000000)" fill-rule="nonzero">
            <g id="Group-4" transform="translate(392.000000, 1830.000000)">
                <g id="Enterprise-Solution--Outsourcing-" transform="translate(28.000000, 63.000000)">
                    <g id="Group" transform="translate(2.086957, 16.085106)" fill="#D4E1F4">
                        <path d="M9.9194488,0.141954787 L6.93808234,0.141954787 C5.81250007,0.143118426 4.90003886,1.05477057 4.89829193,2.17935498 L4.89829193,3.11660568 L7.87965839,3.11660568 L7.87965839,2.17935498 C7.88140532,1.05477057 8.79386653,0.143118426 9.9194488,0.141954787 Z" id="Path"/>
                        <polygon id="Path" points="4.29503106 5.20171206 1.43012422 8.1408743 4.41149068 8.1408743 7.27639752 5.20171206"/>
                        <path d="M9.9194488,34.9232048 C8.79386653,34.9220411 7.88140532,34.010389 7.87965839,32.8852227 L7.87965839,32.2854057 L4.89829193,32.2854057 L4.89829193,35.2682014 C4.90003886,36.3933677 5.81250007,37.3050199 6.93808234,37.3061835 L20.9802019,37.3061835 C22.1063665,37.3050199 23.0188277,36.3933677 23.0199922,35.2682014 L23.0199922,34.9232048 L9.9194488,34.9232048 Z" id="Path"/>
                        <path d="M4.91925466,15.6766954 C4.91226708,15.683095 4.9052795,15.6889129 4.89829193,15.6953124 L4.89829193,30.2002993 L7.87965839,30.2002993 L7.87965839,16.8361869 C6.7826087,16.833278 5.7263198,16.419631 4.91925466,15.6766954 Z" id="Path"/>
                        <path d="M2.98136646,13.7056184 L2.98136646,10.2259807 L0,10.2259807 L0,13.7056184 C0.363354037,14.2583112 0.945069913,14.629488 1.59957302,14.7266456 C2.25407612,14.8243849 2.91906052,14.637633 3.42740691,14.2146775 C3.25388199,14.0680684 3.10364899,13.8970246 2.98136646,13.7056184 Z" id="Path"/>
                        <path d="M8.82763975,13.5025764 C8.64829193,13.1564163 8.29076094,12.9394115 7.90062112,12.9394115 C7.51048129,12.9394115 7.15295031,13.156998 6.97360248,13.5031582 C6.83385093,13.7748504 6.64227488,14.0162899 6.40993789,14.2140957 C7.27406832,14.9314328 8.52717391,14.9314328 9.39130435,14.2140957 C9.15838509,14.0157081 8.96680904,13.7742686 8.82763975,13.5025764 Z" id="Path"/>
                        <path d="M20.7583462,13.5153757 C20.585986,13.1709608 20.238354,12.9498837 19.853455,12.9394115 C19.4685558,12.9289395 19.1092779,13.1308177 18.9182841,13.4653424 C18.9112965,13.4775599 18.904309,13.490359 18.8973214,13.5031582 C18.7581522,13.7748504 18.5659938,14.0168716 18.3330745,14.2146775 C19.1977872,14.9314328 20.4503106,14.9314328 21.314441,14.2146775 C21.0850155,14.0203624 20.896351,13.7824135 20.7583462,13.5153757 Z" id="Path"/>
                        <path d="M14.7897904,13.5031582 C14.7717391,13.4688331 14.7519411,13.4356716 14.7303959,13.4030918 C14.525427,13.095911 14.1731366,12.9202128 13.8039596,12.9405752 C13.4353649,12.9609376 13.1046195,13.1744514 12.9351709,13.5025764 C12.7954193,13.7742686 12.6038431,14.0157081 12.3709239,14.213514 C13.2350543,14.9314328 14.4887422,14.9314328 15.3522903,14.213514 C15.1205358,14.0157081 14.9289597,13.7742686 14.7897904,13.5031582 Z" id="Path"/>
                        <path d="M26.7210792,13.5153757 C26.5522128,13.1779422 26.2138974,12.9580286 25.8371507,12.9399933 C25.4598215,12.9225399 25.1022903,13.1098737 24.9025622,13.4298537 C24.8874224,13.4542886 24.8734472,13.4787234 24.8606367,13.5037401 C24.7208852,13.7754323 24.529309,14.0168716 24.2963897,14.2152592 C25.1605201,14.9320146 26.4136257,14.9320146 27.2783386,14.2152592 C27.048913,14.0203624 26.8596662,13.7824135 26.7210792,13.5153757 Z" id="Path"/>
                    </g>
                    <path d="M27.1944877,51.3533078 L27.1944877,31.2562333 L25.1075311,31.2562333 L25.1075311,46.2854057 L6.98524845,46.2854057 L6.98524845,31.254488 L4.89829193,31.254488 L4.89829193,51.3533078 C4.90120338,53.6298206 6.74708855,55.4740691 9.02503886,55.4763963 L23.0671585,55.4763963 C25.345691,55.4740691 27.191576,53.6298206 27.1944877,51.3533078 L27.1944877,51.3533078 Z M23.0677407,53.3912899 L9.02562112,53.3912899 C7.8994566,53.3901263 6.98699538,52.4784741 6.98583071,51.3533078 L6.98583071,48.370512 L25.1075311,48.370512 L25.1075311,51.3533078 C25.1057842,52.4784741 24.193323,53.3901263 23.0677407,53.3912899 Z" id="Shape" fill="#24527a"/>
                    <path d="M4.89829193,18.2644614 L4.89829193,20.0185339 C4.89829193,20.594498 5.36587737,21.0610871 5.94177019,21.0610871 C6.51824527,21.0610871 6.98524845,20.594498 6.98524845,20.0185339 L6.98524845,18.2644614 C6.98699538,17.139877 7.8994566,16.2282248 9.02503886,16.2270612 L23.0671585,16.2270612 C24.193323,16.2282248 25.1057842,17.139877 25.1069487,18.2644614 L25.1069487,20.4025099 C25.1069487,20.9784741 25.5745342,21.4450631 26.150427,21.4450631 C26.7269022,21.4450631 27.1939052,20.9784741 27.1939052,20.4025099 L27.1939052,18.2644614 C27.191576,15.9885305 25.345691,14.1442819 23.0671585,14.1419548 L9.02503886,14.1419548 C6.74708855,14.1442819 4.90120338,15.9885305 4.89829193,18.2644614 Z" id="Path" fill="#24527a"/>
                    <path d="M17.9260481,49.8639461 L14.1667313,49.8639461 C13.5902562,49.8639461 13.1232531,50.3305353 13.1232531,50.9064993 C13.1232531,51.4824635 13.5902562,51.9490525 14.1667313,51.9490525 L17.9260481,51.9490525 C18.5025233,51.9490525 18.9695264,51.4824635 18.9695264,50.9064993 C18.9695264,50.3305353 18.5025233,49.8639461 17.9260481,49.8639461 Z" id="Path" fill="#24527a"/>
                    <path d="M66.525233,47.911486 C66.5240683,48.8307014 65.7781444,49.5759642 64.8581134,49.5771277 L56.4153727,49.5771277 L56.4153727,40.6293218 C56.4153727,40.0533578 55.9483695,39.5867686 55.3718944,39.5867686 L49.9512811,39.5867686 C49.3753881,39.5867686 48.9078028,40.0533578 48.9078028,40.6293218 L48.9078028,49.5771277 L47.2412655,49.5771277 C46.3212344,49.5759642 45.5753106,48.8307014 45.5741459,47.911486 L45.5741459,31.4383312 L43.4871894,31.4383312 L43.4871894,47.911486 C43.4895187,49.9820479 45.1688664,51.6599069 47.2412655,51.662234 L64.8581134,51.662234 C66.9305125,51.6599069 68.6098602,49.9820479 68.6121895,47.911486 L68.6121895,31.4383312 L66.525233,31.4383312 L66.525233,47.911486 Z M50.9947594,41.6712933 L54.3284161,41.6712933 L54.3284161,49.5765459 L50.9947594,49.5765459 L50.9947594,41.6712933 Z" id="Shape" fill="#24527a"/>
                    <path d="M63.5031056,43.0256816 C64.0795808,43.0256816 64.5465839,42.5590924 64.5465839,41.9831284 L64.5465839,37.9217089 C64.5465839,37.3463264 64.0795808,36.8791557 63.5031056,36.8791557 L59.4374999,36.8791557 C58.8616071,36.8791557 58.3940217,37.3463264 58.3940217,37.9217089 L58.3940217,41.9837101 C58.3940217,42.5596741 58.8616071,43.0262633 59.4374999,43.0262633 L63.5031056,43.0256816 Z M60.4809782,38.964262 L62.4596273,38.964262 L62.4596273,40.9411569 L60.4809782,40.9411569 L60.4809782,38.964262 Z" id="Shape" fill="#24527a"/>
                    <path d="M47.2272903,13.6107879 C47.1224767,14.0151263 47.2692158,14.4433177 47.6005434,14.6981383 L51.2614518,17.5145445 C51.4868012,17.6879156 51.7732919,17.7618018 52.054542,17.7193317 C52.335792,17.6768617 52.5873448,17.5215259 52.7509705,17.2888131 L55.4120729,13.5153757 C55.6525622,13.1738697 55.6665373,12.7218252 55.4464286,12.3669381 C55.2269022,12.0114695 54.8157997,11.8218085 54.402368,11.8840592 L52.7509705,12.1342254 C51.3680124,5.60779591 45.8897516,0.742935468 39.2399068,0.137300532 C32.5906444,-0.468916298 26.3216227,3.32546543 23.7798914,9.49468085 C23.5609473,10.0275931 23.8159938,10.6367188 24.3493789,10.8548869 C24.8821817,11.0736369 25.4918478,10.8188165 25.7107919,10.2859043 C27.8955745,4.98296206 33.2736802,1.71043883 38.9924302,2.20553528 C44.7111801,2.70004983 49.4458463,6.84757306 50.6861413,12.4472241 L48.0815217,12.8410904 C47.6680901,12.9033411 47.332104,13.2064495 47.2272903,13.6107879 Z M52.0423137,14.3502326 L52.0458075,14.3502326 C52.0475544,14.3502326 52.0504658,14.3490691 52.052795,14.3490691 L52.2985249,14.3118351 L51.6731366,15.1984707 L50.8125001,14.5369847 L52.0423137,14.3502326 Z" id="Shape" fill="#24527a"/>
                    <path d="M54.0920032,54.6845911 C53.8159938,54.663647 53.542896,54.7538231 53.3332687,54.935339 C53.1242236,55.1162732 52.9955358,55.372839 52.9763198,55.6491855 C52.5553184,61.3686835 48.4664208,66.153258 42.8781056,67.4645943 C37.2903727,68.7759309 31.4965061,66.310339 28.5716227,61.3756649 L30.9229425,60.1899933 C31.2961956,60.0014961 31.5209627,59.6087933 31.4941771,59.1922374 C31.4673913,58.7750997 31.1942935,58.4149768 30.8000777,58.2759309 L26.443323,56.7400266 C26.1748836,56.6451961 25.8796584,56.664395 25.6257764,56.7923869 C25.3718944,56.9203791 25.1809006,57.1466922 25.0982144,57.4183844 L23.7472827,61.8329454 C23.625,62.2320479 23.7531056,62.6660571 24.0727872,62.9354222 C24.3924689,63.2047872 24.8420032,63.2571475 25.2152562,63.0692321 L26.7059395,62.316988 C29.4281832,67.0038231 34.4359471,69.8935339 39.8588898,69.9063331 C47.8404504,69.9057514 54.4693324,63.7534076 55.0568712,55.8004488 C55.0993789,55.2262301 54.6673136,54.7264794 54.0920032,54.6845911 L54.0920032,54.6845911 Z M26.6925466,59.9875333 L26.6861413,59.9904422 C26.6832298,59.9921876 26.6803184,59.9939328 26.6774069,59.9956782 L26.4578804,60.1062167 L26.775233,59.0683177 L27.7994953,59.4296044 L26.6925466,59.9875333 Z" id="Shape" fill="#24527a"/>
                    <path d="M31.8977097,25.2155918 C31.8959627,25.1795213 31.8924689,25.142869 31.886646,25.1073803 C31.8854814,25.0980718 31.8843168,25.0887633 31.8825698,25.078873 C31.8744177,25.0346576 31.863354,24.9904422 31.8493789,24.9468085 C31.8482144,24.942736 31.8464674,24.9392454 31.8453028,24.9345911 C31.8319099,24.8956117 31.8156057,24.8566323 31.7975544,24.8193982 C31.7940605,24.8112534 31.7899844,24.8031083 31.7859084,24.7949635 C31.765528,24.7548206 31.742236,24.7152592 31.7171972,24.6780252 C31.7137035,24.6733709 31.7102096,24.6692986 31.7067159,24.6646443 C31.6828415,24.6309009 31.6566382,24.5983211 31.6286879,24.5680684 C31.6246119,24.5634142 31.6217003,24.5587599 31.6176241,24.5541057 L26.8922749,19.5304188 C26.6948758,19.3209773 26.4200311,19.2017121 26.1317934,19.2017121 L5.94177019,19.2017121 C5.66052015,19.2017121 5.39091607,19.3157413 5.19468164,19.5170379 L0.295807453,24.5407248 C0.108889789,24.7332945 0.00349378882,24.9904422 0.00174690186,25.2586436 C0.00174690186,25.2714429 0,25.284242 0,25.2970411 L0,30.0664894 C0,30.2282248 0.0378493416,30.3882147 0.110054311,30.5330784 L0.117041888,30.5464594 C0.747670807,31.7635472 1.90993789,32.6170213 3.26086957,32.8555518 C4.61180124,33.0935007 5.99650614,32.6891622 7.00621118,31.7618018 C8.69196432,33.3081782 11.2820264,33.3081782 12.9677796,31.7618018 C14.6535326,33.3093418 17.2441771,33.3093418 18.9305125,31.7618018 C20.6162655,33.3093418 23.20691,33.3093418 24.8932454,31.7618018 C25.9012034,32.6879986 27.282997,33.0929188 28.6315993,32.8572972 C29.9802019,32.6216755 31.1430513,31.7722739 31.7760092,30.5592587 C31.8575311,30.4074135 31.9006211,30.2381151 31.9006211,30.0659076 L31.9006211,25.2685339 C31.9006211,25.2621344 31.8994566,25.2557347 31.8994566,25.2493351 C31.8994566,25.2382812 31.8982919,25.2272273 31.8977097,25.2155918 Z M6.38198758,21.2868184 L25.6805125,21.2868184 L28.4446816,24.2259807 L3.51708075,24.2259807 L6.38198758,21.2868184 Z M27.8757764,30.838514 C27.0128106,30.8478225 26.2191382,30.3684342 25.8272515,29.6004821 C25.6583851,29.2630486 25.3200699,29.0431349 24.9427407,29.0250997 C24.5659938,29.0076463 24.2084628,29.1949801 24.0087345,29.5149601 C23.9935947,29.539395 23.9796195,29.5638298 23.9662268,29.5888464 C23.570264,30.3538897 22.78125,30.8350232 21.9188664,30.8373504 C21.0570651,30.8402592 20.2651397,30.3631982 19.8645186,29.6004821 C19.6921583,29.2560672 19.3445264,29.0349901 18.9596273,29.0245179 C18.5747283,29.0140459 18.2154502,29.2159241 18.0244564,29.5504488 C18.017469,29.5626663 18.0104813,29.5754654 18.0034939,29.5882646 C17.6063665,30.3556349 16.814441,30.8373504 15.9497283,30.8373504 C15.0855979,30.8373504 14.29309,30.3556349 13.8959627,29.5882646 C13.8779115,29.5539395 13.8581134,29.520778 13.8365682,29.4881982 C13.6315993,29.1810174 13.279309,29.0053191 12.9107143,29.0256816 C12.5415372,29.046044 12.2107919,29.2595578 12.0413432,29.5876828 C11.6442158,30.3544714 10.8517081,30.8367686 9.98699538,30.8367686 C9.12286494,30.8367686 8.33035707,30.3544714 7.93322981,29.5876828 C7.75388199,29.2415227 7.39635101,29.0245179 7.00621118,29.0245179 C6.61607135,29.0245179 6.25854037,29.2421044 6.07919255,29.5882646 C5.70069883,30.3184009 4.96292706,30.7931349 4.14130435,30.8344415 C3.31968164,30.8763298 2.53707294,30.4789727 2.08695652,29.7907248 L2.08695652,26.3110871 L29.8136646,26.3110871 L29.8136646,29.7889794 C29.392663,30.4498837 28.6595496,30.8466589 27.8757764,30.838514 Z" id="Shape" fill="#43D92D"/>
                    <path d="M71.9988355,25.3086769 C71.9988355,25.297623 71.9976708,25.2859874 71.9970885,25.2749335 C71.9953416,25.2388631 71.9918478,25.2022108 71.9860248,25.1661403 C71.9848603,25.1568317 71.9836957,25.1475232 71.9819487,25.1382147 C71.9737966,25.0934176 71.9627329,25.0497839 71.9487578,25.0061503 C71.9475932,25.0020778 71.9458463,24.9980053 71.9446816,24.9939328 C71.9312887,24.9543716 71.9149845,24.9159741 71.8969333,24.8781582 C71.8934394,24.8700133 71.8893633,24.8624502 71.8852873,24.8543051 C71.8649068,24.8135805 71.8416149,24.7746011 71.816576,24.737367 C71.8130823,24.7327128 71.8095885,24.7280585 71.8060948,24.7234043 C71.7822204,24.689661 71.756017,24.6576629 71.7280667,24.6268284 C71.7239908,24.622756 71.7210792,24.6181018 71.717003,24.6134475 L66.9916538,19.5897606 C66.7942547,19.3797374 66.5194099,19.2610539 66.2311723,19.2610539 L46.0411491,19.2610539 C45.759899,19.2610539 45.490295,19.3745014 45.2940605,19.5763796 L40.3951863,24.6000665 C40.2082687,24.7926363 40.1028727,25.0497839 40.1011258,25.3179854 C40.1011258,25.3307846 40.0993789,25.3435837 40.0993789,25.356383 L40.0993789,30.1258312 C40.0993789,30.2672041 40.1284937,30.4074135 40.1843943,30.5377326 C40.1942935,30.5604222 40.2047748,30.5836934 40.2164208,30.6058012 C40.8470497,31.8223071 42.0093168,32.6763631 43.3602484,32.9143119 C44.7111801,33.1528424 46.095885,32.7485039 47.1055901,31.8211436 C48.7913432,33.3675199 51.3814053,33.3675199 53.0671585,31.8211436 C54.7529115,33.3681018 57.343556,33.3681018 59.0298914,31.8211436 C60.7156444,33.3681018 63.3062889,33.3681018 64.9926243,31.8211436 C66.0005823,32.7473404 67.3829581,33.1522606 68.7327251,32.9160571 C70.0819099,32.6798537 71.2441771,31.8298704 71.8771351,30.6156915 C71.9574923,30.4650099 72,30.2962933 72,30.1252493 L72,25.327294 C72,25.3220578 71.9988355,25.3150764 71.9988355,25.3086769 L71.9988355,25.3086769 Z M46.4813665,21.3461603 L65.7798914,21.3461603 L68.5440605,24.2847408 L43.6164596,24.2847408 L46.4813665,21.3461603 Z M67.9751553,30.8978557 C67.1121895,30.9065824 66.3185171,30.4260305 65.9260481,29.6580784 C65.7525233,29.3125 65.4013975,29.0914229 65.0141693,29.083278 C64.6275233,29.0757147 64.267663,29.2822473 64.0801631,29.6208443 C64.0755047,29.6295711 64.0708463,29.6388796 64.0656057,29.6481881 C63.6690605,30.4138131 62.8794642,30.8949468 62.0164985,30.8966922 C61.154115,30.8990193 60.3621895,30.4207945 59.9621507,29.6569149 C59.7897904,29.3136635 59.441576,29.0931683 59.0572593,29.083278 C58.6729425,29.0733876 58.3142469,29.2758477 58.1238353,29.6097906 C58.1162655,29.622008 58.1086957,29.6348071 58.1028727,29.6476064 C57.7057453,30.4149768 56.9132376,30.8966922 56.0491072,30.8966922 C55.1843943,30.8966922 54.3924689,30.4149768 53.9953416,29.6476064 C53.8159938,29.3014461 53.4584628,29.083278 53.068323,29.083278 C52.6776009,29.0826961 52.3200699,29.3002826 52.1407221,29.6470246 C51.7435947,30.414395 50.951087,30.8961103 50.0863743,30.8961103 C49.2222438,30.8961103 48.429736,30.414395 48.0326087,29.6470246 C47.8532609,29.3002826 47.4945652,29.0826961 47.1038431,29.083278 C46.7131212,29.0844415 46.3550078,29.3031915 46.1768245,29.6505153 C45.7977484,30.3800699 45.0599767,30.8536403 44.238354,30.8937833 C43.4167313,30.934508 42.6358696,30.5365691 42.1863354,29.8483211 L42.1863354,26.3698471 L69.9130435,26.3698471 L69.9130435,29.8483211 C69.4920419,30.5092254 68.7589285,30.9060007 67.9751553,30.8978557 L67.9751553,30.8978557 Z" id="Shape" fill="#43D92D"/>
                    <polygon id="Path" fill="#D4E1F4" points="46.4813665 21.3461603 43.6164596 24.2847408 46.5978261 24.2847408 49.4627329 21.3461603"/>
                    <path d="M48.5555123,44.9327626 L48.5555123,32.7071975 C48.0192158,32.5093917 47.5265917,32.2086103 47.1055901,31.8211436 C46.6636257,32.228391 46.1424689,32.5408078 45.5741459,32.7374502 L45.5741459,47.911486 C45.5753106,48.8307014 46.3212344,49.5759642 47.2412655,49.5771277 L48.9078028,49.5771277 L48.9078028,45.9532081 C48.679542,45.6617354 48.5555123,45.3027759 48.5555123,44.9327626 Z" id="Path" fill="#D4E1F4"/>
                    <path d="M45.1677019,29.8483211 L45.1677019,26.3698471 L42.1863354,26.3698471 L42.1863354,29.8483211 C42.5491072,30.4015957 43.1314053,30.7739362 43.7859084,30.8716755 C44.4409938,30.9688331 45.1065606,30.7820812 45.6149068,30.358544 C45.4413821,30.211353 45.2905668,30.0397273 45.1677019,29.8483211 Z" id="Path" fill="#D4E1F4"/>
                    <path d="M56.9761258,29.6476064 C56.7973602,29.3014461 56.4398293,29.083278 56.0491072,29.083278 C55.6589674,29.0826961 55.300854,29.3002826 55.1215063,29.6470246 C54.982337,29.9187167 54.7907609,30.1601562 54.5578417,30.3579621 C55.421972,31.075881 56.6750776,31.075881 57.5392081,30.3579621 C57.3068712,30.1601562 57.1158774,29.9192986 56.9761258,29.6476064 Z" id="Path" fill="#D4E1F4"/>
                    <path d="M51.0139752,29.6470246 C50.8340451,29.2997007 50.4753494,29.0826961 50.0846273,29.083278 C49.6939052,29.0838597 49.3363743,29.3031915 49.158191,29.6505153 C49.0184394,29.9204621 48.828028,30.160738 48.5962733,30.3579621 C49.4604037,31.075881 50.7135093,31.075881 51.5776398,30.3579621 C51.3447205,30.1601562 51.1531444,29.9187167 51.0139752,29.6470246 Z" id="Path" fill="#D4E1F4"/>
                    <path d="M62.9435171,29.6569149 C62.7705746,29.3136635 62.4229425,29.0931683 62.0380435,29.083278 C61.6537267,29.0733876 61.2950311,29.2758477 61.1046195,29.6097906 C61.097632,29.622008 61.0900621,29.6348071 61.0836568,29.6476064 C60.9444877,29.9192986 60.7529115,30.160738 60.5205746,30.358544 C61.3847049,31.075881 62.6378105,31.075881 63.5019411,30.358544 C63.2725155,30.1630652 63.0826864,29.9245346 62.9435171,29.6569149 L62.9435171,29.6569149 Z" id="Path" fill="#D4E1F4"/>
                    <path d="M68.9068323,29.6580784 C68.7333075,29.3125 68.3821817,29.0914229 67.9955358,29.083278 C67.6083074,29.0757147 67.2490295,29.2822473 67.0615295,29.6208443 C67.0562889,29.6295711 67.0516305,29.6388796 67.0463897,29.6481881 C66.9072206,29.9192986 66.7156444,30.160738 66.4833075,30.358544 C67.3474378,31.0764628 68.6011258,31.0764628 69.4652562,30.358544 C69.2358307,30.1630652 69.0460016,29.9251163 68.9068323,29.6580784 L68.9068323,29.6580784 Z" id="Path" fill="#D4E1F4"/>
                </g>
            </g>
        </g>
    </g>
</svg>