<?xml version="1.0" encoding="UTF-8"?>
<svg width="76px" height="76px" viewBox="0 0 76 76" version="1.1" xmlns="http://www.w3.org/2000/svg" xmlns:xlink="http://www.w3.org/1999/xlink">
    <!-- Generator: Sketch 54 (76480) - https://sketchapp.com -->
    <title>Google Cloud</title>
    <desc>Created with Sketch.</desc>
    <g id="Page-1" stroke="none" stroke-width="1" fill="none" fill-rule="evenodd">
        <g id="Cloud-Services" transform="translate(-1199.000000, -2694.000000)" fill-rule="nonzero">
            <g id="Group-4" transform="translate(1171.000000, 2645.000000)">
                <g id="Google-Cloud" transform="translate(28.000000, 49.000000)">
                    <g id="Group" transform="translate(17.995772, 18.477801)" fill="#D7E1D6">
                        <path d="M4.25416218,7.15700982 C1.70091181,10.399412 0.222813201,14.3585821 0.0269886765,18.4809394 L2.27646014,18.4809394 C2.44655119,14.8883126 3.59262685,11.4099168 5.59041362,8.41919934 C5.1297238,8.01813561 4.68409756,7.59761492 4.25416218,7.15700982 Z" id="Path"></path>
                        <path d="M2.27646014,20.4090578 L0.0269886765,20.4090578 C0.222813201,24.5320429 1.70091181,28.4905853 4.25416218,31.7329876 C4.68284219,31.2917548 5.12784083,30.8712341 5.59041362,30.4714257 C3.59262685,27.4807082 2.44655119,24.0016847 2.27646014,20.4090578 L2.27646014,20.4090578 Z" id="Path"></path>
                        <path d="M12.21581,35.7699855 C10.2494053,34.7701507 8.46125128,33.4521009 6.92478194,31.8685584 C6.43898656,32.287196 5.97013742,32.7296842 5.52325581,33.197278 C8.14742993,35.950119 11.5046907,37.894556 15.1977406,38.8008721 C14.0974828,37.9014601 13.097648,36.8853066 12.21581,35.7699855 L12.21581,35.7699855 Z" id="Path"></path>
                        <path d="M13.4522661,1.70530519 C14.0008259,1.13163984 14.5845335,0.591867112 15.200251,0.0897529471 C11.5059461,0.996069015 8.14805769,2.94050604 5.52325581,5.69334703 C5.78561038,5.96825445 6.05549683,6.23437496 6.33165962,6.49233615 C8.3307016,4.39977529 10.759679,2.76664905 13.4522661,1.70530519 Z" id="Path"></path>
                    </g>
                    <path d="M68.5410941,30.53419 C65.7713069,19.0451903 56.8010373,10.0742931 45.3120374,7.3051335 C45.265592,3.25683796 41.9710954,0 37.9227999,0 C33.8751321,0 30.5806356,3.25683796 30.53419,7.3051335 C19.0451903,10.0742931 10.0742931,19.0451903 7.3051335,30.53419 C3.25683796,30.5806356 0,33.8751321 0,37.9227999 C0,41.9710954 3.25683796,45.265592 7.3051335,45.3120374 C10.0742931,56.8010373 19.0451903,65.7713069 30.53419,68.5410941 C30.5806356,72.5887619 33.8751321,75.8462276 37.9227999,75.8462276 C41.9710954,75.8462276 45.265592,72.5887619 45.3120374,68.5410941 C56.8010373,65.7713069 65.7713069,56.8010373 68.5410941,45.3120374 C72.5887619,45.265592 75.8462276,41.9710954 75.8462276,37.9227999 C75.8462276,33.8751321 72.5887619,30.5806356 68.5410941,30.53419 Z M37.9227999,1.93125657 C40.9386231,1.9350225 43.3826638,4.37843552 43.385802,7.39425868 C43.3864298,7.58568983 43.3763875,7.77649321 43.3556752,7.96666883 C43.062566,10.7471261 40.7164376,12.8572608 37.9202893,12.8560056 C35.124141,12.8547502 32.7805233,10.742105 32.489297,7.96102008 C32.4692125,7.77272727 32.4597978,7.58380686 32.4597978,7.39425868 C32.4635637,4.37843552 34.9069767,1.9350225 37.9227999,1.93125657 L37.9227999,1.93125657 Z M1.93125657,37.9227999 C1.9350225,34.9069767 4.37843552,32.4635637 7.39425868,32.4597978 C7.58568983,32.4597978 7.77649321,32.4698401 7.96666883,32.4899246 C10.7471261,32.7836614 12.8572608,35.1297899 12.8560056,37.9253105 C12.8547502,40.7214588 10.742105,43.0650767 7.96164769,43.3563029 C7.77335488,43.3763875 7.58380686,43.3864298 7.39425868,43.385802 C4.37843552,43.3826638 1.9350225,40.9386231 1.93125657,37.9227999 L1.93125657,37.9227999 Z M37.9227999,73.9143432 C34.9069767,73.9112051 32.4635637,71.4671643 32.4597978,68.4513411 C32.4597978,68.2605378 32.4698401,68.0697344 32.4899246,67.8795587 C32.7836614,65.0984739 35.1297899,62.988339 37.9259381,62.9895944 C40.7220864,62.9914772 43.0657043,65.103495 43.3563029,67.8845799 C43.3763875,68.0728725 43.3864298,68.2624207 43.385802,68.4513411 C43.3826638,71.4671643 40.9386231,73.9112051 37.9227999,73.9143432 L37.9227999,73.9143432 Z M45.0835757,66.6129757 C44.243162,63.3448401 41.2970071,61.0602206 37.9227999,61.0602206 C34.5485927,61.0602206 31.6024379,63.3448401 30.7620243,66.6129757 C20.1573732,63.968717 11.876883,55.6882268 9.23325189,45.0835757 C12.5013875,44.243162 14.7853792,41.2970071 14.7853792,37.9227999 C14.7853792,34.5485927 12.5013875,31.6024379 9.23325189,30.7620243 C11.8775106,20.1573732 20.1573732,11.876883 30.7626519,9.23325189 C31.6030655,12.5013875 34.5492205,14.7853792 37.9234277,14.7853792 C41.2976349,14.7853792 44.2437896,12.5013875 45.0842033,9.23325189 C55.6888544,11.876883 63.9693446,20.1573732 66.6123481,30.7626519 C63.3448401,31.6030655 61.0602206,34.5492205 61.0602206,37.9234277 C61.0602206,41.2976349 63.3448401,44.2437896 66.6123481,45.0842033 C63.968717,55.6888544 55.6882268,63.9693446 45.0835757,66.6129757 Z M68.4513411,43.385802 C68.2605378,43.3864298 68.0691068,43.3763875 67.8795587,43.3556752 C65.0991015,43.0619384 62.9889668,40.7164376 62.990222,37.9202893 C62.9914772,35.1247688 65.103495,32.7811509 67.8845799,32.4899246 C68.0728725,32.4698401 68.2617931,32.4597978 68.4513411,32.4597978 C71.4684197,32.4597978 73.9143432,34.9057215 73.9143432,37.9227999 C73.9143432,40.9398784 71.4684197,43.385802 68.4513411,43.385802 Z" id="Shape" fill="#24527a"></path>
                    <path d="M16.0707915,37.9227999 C16.0707915,49.9722847 25.8739429,59.7748084 37.9227999,59.7748084 C49.9722847,59.7748084 59.7748084,49.9722847 59.7748084,37.9227999 C59.7748084,25.8739429 49.9722847,16.0707915 37.9227999,16.0707915 C25.8739429,16.0707915 16.0707915,25.8739429 16.0707915,37.9227999 Z M26.3647596,28.9525304 C25.5582386,31.547833 25.1163781,34.2423031 25.0529863,36.9587407 L18.0227603,36.9587407 C18.2185849,32.8363834 19.6966835,28.8772132 22.2499339,25.6348111 C23.4819965,26.903277 24.8640658,28.0173428 26.3647596,28.9525304 Z M53.5994319,25.6392045 C56.1507995,28.8809792 57.6276427,32.8382664 57.8228396,36.9587407 L50.7932413,36.9587407 C50.7292217,34.2492072 50.2898718,31.5622688 49.4871169,28.9732425 C50.9890658,28.0349168 52.3705074,26.9152022 53.5994319,25.6392045 L53.5994319,25.6392045 Z M49.4877445,46.8729849 C50.2904996,44.2839588 50.7292217,41.5963926 50.7932413,38.8868591 L57.822212,38.8868591 C57.6270151,43.0079612 56.1501719,46.9652484 53.5988041,50.207023 C52.3705074,48.9310254 50.9896934,47.8113108 49.4877445,46.8729849 L49.4877445,46.8729849 Z M22.2499339,50.2107889 C19.6966835,46.9683866 18.2185849,43.0098442 18.0227603,38.8868591 L25.0529863,38.8868591 C25.1170057,41.6039245 25.5582386,44.2983946 26.3653872,46.8936971 C24.8640658,47.8282572 23.4819965,48.9423229 22.2499339,50.2107889 L22.2499339,50.2107889 Z M26.9817323,38.8868591 L36.9587407,38.8868591 L36.9587407,43.6186575 C33.8707386,43.7510902 30.8461284,44.538154 28.0857558,45.9283827 C27.4141782,43.6393697 27.0432413,41.2719014 26.9817323,38.8868591 L26.9817323,38.8868591 Z M36.9587407,45.5480311 L36.9587407,57.4996036 C33.2255219,55.4447013 30.3986191,52.0522925 28.7209302,47.7680035 C31.2741808,46.4411667 34.0847647,45.6836019 36.9587407,45.5480311 Z M38.8868591,57.4996036 L38.8868591,45.5442653 C41.7639733,45.6647727 44.5795785,46.4166886 47.1340843,47.7466635 C45.457023,52.0403673 42.6263544,55.4415631 38.8868591,57.4996036 L38.8868591,57.4996036 Z M38.8868591,43.614264 L38.8868591,38.8868591 L48.8638676,38.8868591 C48.8029863,41.2643697 48.4339323,43.623051 47.7667481,45.9051599 C45.0051202,44.5136759 41.9767442,43.7322608 38.8868591,43.614264 Z M48.8638676,36.9587407 L38.8868591,36.9587407 L38.8868591,32.2313358 C41.9767442,32.1127114 45.0051202,31.3312963 47.7661205,29.9398124 C48.4339323,32.2225489 48.8029863,34.5818577 48.8638676,36.9587407 Z M38.8868591,30.3013346 L38.8868591,18.3472516 C42.6263544,20.4040367 45.4563953,23.8052326 47.1334567,28.0989363 C44.5789508,29.4282836 41.7639733,30.1801995 38.8868591,30.3013346 L38.8868591,30.3013346 Z M36.9587407,18.3472516 L36.9587407,30.2975687 C34.0847647,30.1626255 31.2741808,29.4050607 28.7209302,28.0775965 C30.3992467,23.7945627 33.2255219,20.4015261 36.9587407,18.3478792 L36.9587407,18.3472516 Z M36.9587407,32.2269423 L36.9587407,36.9587407 L26.9817323,36.9587407 C27.0432413,34.5736984 27.4141782,32.2068577 28.0857558,29.9178449 C30.8461284,31.3080734 33.8707386,32.095765 36.9587407,32.2275701 L36.9587407,32.2269423 Z M23.5190275,51.6744517 C24.5747224,50.5691728 25.7546907,49.5887949 27.0350818,48.7534024 C28.4290764,52.1903739 30.5178713,55.0982425 33.1935122,57.2780458 C29.5004624,56.3717297 26.1432016,54.4272925 23.5190275,51.6744517 Z M42.6520877,57.2780458 C45.3333774,55.0944767 47.4246829,52.1790764 48.8180497,48.7345732 C50.0990684,49.5737315 51.2777815,50.5591305 52.3303383,51.6713135 C49.7055364,54.4260373 46.3470204,56.3711021 42.6520877,57.2780458 L42.6520877,57.2780458 Z M52.3303383,24.1742865 C51.2777815,25.2870969 50.0990684,26.2724961 48.8180497,27.1110267 C47.4240553,23.6658958 45.332122,20.7511232 42.6508324,18.5675542 C46.3463926,19.4738703 49.7049088,21.4195627 52.3303383,24.1742865 Z M33.195395,18.5669266 C30.5184989,20.7461021 28.429704,23.6552259 27.0357096,27.0915698 C25.7546907,26.2568049 24.5747224,25.2764271 23.5190275,24.1711483 C26.1438294,21.4176797 29.5010902,19.4732425 33.195395,18.5675542 L33.195395,18.5669266 Z" id="Shape" fill="#43D92D"></path>
                </g>
            </g>
        </g>
    </g>
</svg>