<?xml version="1.0" encoding="UTF-8"?>
<svg width="72px" height="74px" viewBox="0 0 72 74" version="1.1" xmlns="http://www.w3.org/2000/svg" xmlns:xlink="http://www.w3.org/1999/xlink">
    <!-- Generator: Sketch 54 (76480) - https://sketchapp.com -->
    <title>Integration of Latest Technologies</title>
    <desc>Created with Sketch.</desc>
    <g id="Page-1" stroke="none" stroke-width="1" fill="none" fill-rule="evenodd">
        <g id="Mobile-Apps" transform="translate(-1023.000000, -1846.000000)" fill-rule="nonzero">
            <g id="Group-5" transform="translate(0.000000, 1157.000000)">
                <g id="Group-4" transform="translate(976.000000, 637.000000)">
                    <g id="Integration-of-Latest-Technologies" transform="translate(47.000000, 52.000000)">
                        <rect id="Rectangle" fill="#D4E1F4" x="50.4" y="41.3795918" width="3" height="23.8612245"/>
                        <path d="M53.4,38.1610449 C53.3906432,37.6108844 53.60323,37.0804101 53.9891853,36.6908331 C54.3751406,36.3012561 54.9014846,36.0858656 55.44795,36.0938776 L52.44795,36.0938776 C51.9014846,36.0858656 51.3751406,36.3012561 50.9891853,36.6908331 C50.60323,37.0804101 50.3906432,37.6108844 50.4,38.1610449 L50.4,39.5673469 L53.4,39.5673469 L53.4,38.1610449 Z" id="Path" fill="#D4E1F4"/>
                        <path d="M53.4,70.0011306 L53.4,67.0530612 L50.4,67.0530612 L50.4,70.0011306 C50.4,71.1670082 51.2901,72.1877551 52.44795,72.1877551 L55.44795,72.1877551 C54.2901,72.1877551 53.4,71.1670082 53.4,70.0011306 Z" id="Path" fill="#D4E1F4"/>
                        <path d="M17.97,5.88979592 L14.97,5.88979592 C14.2610461,5.88342862 13.5791999,6.16372614 13.077282,6.66786608 C12.5753641,7.17200601 12.2953505,7.85782652 12.3,8.57161633 L12.3,10.4204082 L15.3,10.4204082 L15.3,8.57161633 C15.2953505,7.85782652 15.5753641,7.17200601 16.077282,6.66786608 C16.5791999,6.16372614 17.2610461,5.88342862 17.97,5.88979592 Z" id="Path" fill="#D4E1F4"/>
                        <path d="M4.8,41.6967347 L4.8,14.9946653 C4.792508,13.4875713 5.99184221,12.2554893 7.4886,12.2326531 L4.4886,12.2326531 C2.99184221,12.2554893 1.792508,13.4875713 1.8,14.9946653 L1.8,41.6967347 C1.79883971,42.4146713 2.0818449,43.1034864 2.58641096,43.6108046 C3.09097702,44.1181229 3.77551654,44.4021301 4.4886,44.4 L7.4886,44.4000119 C6.77551654,44.4021301 6.09097702,44.1181229 5.58641096,43.6108046 C5.0818449,43.1034864 4.79883971,42.4146713 4.8,41.6967347 L4.8,41.6967347 Z" id="Path" fill="#D4E1F4"/>
                        <path d="M27.3,41.6967347 L27.3,39.8693878 L33.2886,39.8693878 C35.7699,39.8693878 37.8,37.7717143 37.8,35.2735347 L37.8,14.1039469 C37.7979041,13.8625918 37.7008032,13.631929 37.53,13.4625633 L28.43205,4.32477143 C28.42995,4.32265714 28.42605,4.32114694 28.4238,4.31903265 C28.2542806,4.14130908 28.0200889,4.04089735 27.77535,4.04100408 C27.74655,4.04100408 27.71805,4.06093878 27.69,4.06365714 C27.6615,4.06078776 27.6324,4.07755102 27.6036,4.07755102 L14.97,4.07755102 C13.7838044,4.07170426 12.6444225,4.54310295 11.8050541,5.38699021 C10.9656858,6.23087747 10.4958658,7.37734428 10.5,8.57161633 L10.5,10.4204082 L4.4886,10.4204082 C2.0073,10.4204082 -1.95879651e-16,12.4964857 -1.95879651e-16,14.9946653 L-1.95879651e-16,41.6967347 C-0.000638365785,42.8951476 0.472176452,44.0446083 1.31419435,44.8916743 C2.15621226,45.7387403 3.29828536,46.2138492 4.4886,46.2122449 L22.8075,46.2122449 C23.9982218,46.2140087 25.1407878,45.7390765 25.9834593,44.8920889 C26.8261308,44.0451014 27.2997624,42.895558 27.3,41.6967347 Z M18.15,13.5545347 L24.2505,19.6326699 L20.8935,19.6326531 C19.3959356,19.6378737 18.1728297,18.4292715 18.15,16.9216857 L18.15,13.5545347 Z M28.65,7.13148571 L34.7316,13.2897959 L31.3746,13.2897959 C29.88585,13.2897959 28.65,11.9973633 28.65,10.4984857 L28.65,7.13148571 Z M12.3,8.57161633 C12.2953505,7.85782652 12.5753641,7.17200601 13.077282,6.66786608 C13.5791999,6.16372614 14.2610461,5.88342862 14.97,5.88979592 L26.85,5.88979592 L26.85,10.4984857 C26.85,12.9966653 28.8933,15.1020408 31.3746,15.1020408 L36,15.1020408 L36,35.2735347 C36,36.7724122 34.77735,38.0571429 33.2886,38.0571429 L27.3,38.0571429 L27.3,20.5269959 C27.3013647,20.2868156 27.2075968,20.0559916 27.03945,19.8856122 L17.94645,10.7479714 L17.94015,10.7417796 C17.771076,10.5642573 17.5373362,10.4639394 17.29305,10.4640531 C17.2644,10.4640531 17.2365,10.4439673 17.2086,10.4465347 C17.17995,10.4438163 17.1516,10.4204082 17.12265,10.4204082 L12.3,10.4204082 L12.3,8.57161633 Z M1.8,41.6967347 L1.8,14.9946653 C1.792508,13.4875713 2.99184221,12.2554893 4.4886,12.2326531 L16.35,12.2326531 L16.35,16.9216857 C16.35,19.4198653 18.4122,21.444898 20.8935,21.444898 L25.5,21.444898 L25.5,41.6967347 C25.5002827,42.415082 25.2164601,43.103979 24.7112407,43.6112183 C24.2060213,44.1184577 23.52099,44.4022884 22.8075,44.4 L4.4886,44.4 C3.77551654,44.4021301 3.09097702,44.1181229 2.58641096,43.6108046 C2.0818449,43.1034864 1.79883971,42.4146713 1.8,41.6967347 Z" id="Shape" fill="#24527a"/>
                        <path d="M17.91435,29.7510204 L16.11435,29.7510204 C15.6172937,29.7510204 15.21435,30.1567052 15.21435,30.6571429 C15.21435,31.1575805 15.6172937,31.5632653 16.11435,31.5632653 L17.91435,31.5632653 C18.4114063,31.5632653 18.81435,31.1575805 18.81435,30.6571429 C18.81435,30.1567052 18.4114063,29.7510204 17.91435,29.7510204 Z" id="Path" fill="#24527a"/>
                        <path d="M21.11805,25.2204082 L6.17805,25.2204082 C5.68099373,25.2204082 5.27805,25.626093 5.27805,26.1265306 C5.27805,26.6269682 5.68099373,27.0326531 6.17805,27.0326531 L21.11805,27.0326531 C21.6151063,27.0326531 22.01805,26.6269682 22.01805,26.1265306 C22.01805,25.626093 21.6151063,25.2204082 21.11805,25.2204082 L21.11805,25.2204082 Z" id="Path" fill="#24527a"/>
                        <path d="M12.4848,29.7510204 L6.17805,29.7510204 C5.68099373,29.7510204 5.27805,30.1567052 5.27805,30.6571429 C5.27805,31.1575805 5.68099373,31.5632653 6.17805,31.5632653 L12.4848,31.5632653 C12.9818563,31.5632653 13.3848,31.1575805 13.3848,30.6571429 C13.3848,30.1567052 12.9818563,29.7510204 12.4848,29.7510204 L12.4848,29.7510204 Z" id="Path" fill="#24527a"/>
                        <path d="M72,38.2081633 C72,36.0396003 70.2539105,34.2816327 68.1,34.2816327 L53.1,34.2816327 C50.9460895,34.2816327 49.2,36.0396003 49.2,38.2081633 L49.2,70.0734694 C49.2,72.2420324 50.9460895,74 53.1,74 L68.1,74 C70.2539105,74 72,72.2420324 72,70.0734694 L72,38.2081633 Z M53.1114,36.0938776 L68.1114,36.0938776 C68.6620619,36.0842761 69.1934658,36.2978252 69.5862151,36.6865442 C69.9789645,37.0752633 70.2001228,37.6065538 70.2,38.1610449 L70.2,39.5673469 L68.4615,39.5673469 C67.9644437,39.5673469 67.5615,39.9730318 67.5615,40.4734694 C67.5615,40.973907 67.9644437,41.3795918 68.4615,41.3795918 L70.2,41.3795918 L70.2000001,65.2408163 L51,65.2408163 L51,41.3795918 L61.5789,41.3795918 C62.0759563,41.3795918 62.4789,40.973907 62.4789,40.4734694 C62.4789,39.9730318 62.0759563,39.5673469 61.5789,39.5673469 L51,39.5673469 L51,38.1610449 C51.0050666,37.6041728 51.2310194,37.0724444 51.6275704,36.6842009 C52.0241215,36.2959574 52.558365,36.0834152 53.1114,36.0938776 Z M68.1114,72.1877551 L53.1114,72.1877551 C51.9534,72.1877551 51,71.1670082 51,70.0011306 L51,67.0530612 L70.2,67.0530612 L70.2,70.0011306 C70.2,71.1670082 69.27,72.1877551 68.1114,72.1877551 Z" id="Shape" fill="#24527a"/>
                        <path d="M64.32225,41.3795918 L65.67495,41.3795918 C66.1720063,41.3795918 66.57495,40.973907 66.57495,40.4734694 C66.57495,39.9730318 66.1720063,39.5673469 65.67495,39.5673469 L64.32225,39.5673469 C63.8251937,39.5673469 63.42225,39.9730318 63.42225,40.4734694 C63.42225,40.973907 63.8251937,41.3795918 64.32225,41.3795918 L64.32225,41.3795918 Z" id="Path" fill="#24527a"/>
                        <path d="M60.6114,67.9572204 C59.9642402,67.9572204 59.3808039,68.349712 59.1331466,68.9516771 C58.8854892,69.5536421 59.0223827,70.2465339 59.4799938,70.7072579 C59.9376049,71.167982 60.6258149,71.3058068 61.2237126,71.0564647 C61.8216103,70.8071226 62.21145,70.2197174 62.21145,69.5681551 C62.210458,68.6788745 61.494672,67.9582191 60.6114,67.9572204 L60.6114,67.9572204 Z M60.6114,69.7694653 C60.5009902,69.7693819 60.4115448,69.6792154 60.4116,69.5680545 C60.4116552,69.4568936 60.5011902,69.3668172 60.6116,69.366845 C60.7220098,69.3668727 60.8115,69.4569942 60.8115,69.5681551 C60.8113346,69.6793256 60.7218194,69.7693822 60.6114,69.7694653 Z" id="Shape" fill="#24527a"/>
                        <path d="M37.96275,68.235702 L38.83275,72.3736612 C38.9080692,72.7322861 39.1905755,73.0098986 39.548499,73.0770112 C39.9064225,73.1441238 40.2692512,72.9875152 40.46775,72.6802327 L44.3145,66.7283673 C44.5854357,66.3089431 44.4674539,65.7478104 44.05095,65.474898 L38.13855,61.6012245 C37.8334191,61.4012495 37.4386755,61.4060627 37.1384444,61.613419 C36.8382134,61.8207754 36.691643,62.1898239 36.7671,62.5484245 L37.5879,66.4524531 C32.5374727,66.9435557 27.5101536,65.3101141 23.6976089,61.9393163 C19.8850642,58.5685184 17.6267237,53.7604654 17.4579,48.654849 C17.4510868,48.328369 17.2703183,48.0308338 16.98473,47.8760367 C16.6991418,47.7212396 16.3529154,47.7331284 16.0784662,47.9071561 C15.8040171,48.0811838 15.6438036,48.3904276 15.6591,48.7166163 C15.8394022,54.3599972 18.3473825,59.6724637 22.5800066,63.3766534 C26.8126306,67.0808432 32.3869896,68.8416527 37.96275,68.235702 L37.96275,68.235702 Z M42.31485,66.4989673 L40.1439,69.8590204 L39.5646,67.1036531 C39.5646,67.1015388 39.5646,67.0994245 39.5646,67.0973102 C39.5589834,67.0611209 39.5511688,67.0253123 39.5412,66.9900857 L38.9787,64.3138531 L42.31485,66.4989673 Z" id="Shape" fill="#43D92D"/>
                        <path d="M36.0549,7.69056327 L41.96715,11.5634816 C42.2722809,11.7634567 42.6670245,11.7586434 42.9672556,11.5512871 C43.2674866,11.3439308 43.414057,10.9748822 43.3386,10.6162816 L42.5178,6.71210204 C47.5682525,6.22099837 52.5955947,7.85445995 56.4081442,11.2252907 C60.2206937,14.5961214 62.4790168,19.404214 62.6478,24.5098571 C62.6639701,24.9979929 63.0614931,25.3853957 63.5466,25.3857755 C63.5571,25.3857755 63.56745,25.3857755 63.5778,25.3857755 C64.0745052,25.368717 64.4634554,24.9495361 64.4466,24.449449 C64.260129,18.8081773 61.750441,13.4994445 57.5193858,9.79634123 C53.2883306,6.09323798 47.7175404,4.3297763 42.14295,4.92885306 L41.27295,0.790893878 C41.1976308,0.432268965 40.9151245,0.154656506 40.557201,0.0875438944 C40.1992775,0.0204312827 39.8364488,0.177039903 39.63795,0.484322449 L35.79135,6.43694286 C35.520312,6.85639735 35.6383036,7.41764444 36.0549,7.69056327 Z M39.96195,3.3062898 L40.54125,6.06226122 C40.54125,6.06407347 40.54125,6.06603673 40.54125,6.068 C40.5468462,6.10367093 40.55456,6.13897227 40.56435,6.17371429 L41.12715,8.85070204 L37.791,6.66573878 L39.96195,3.3062898 Z" id="Shape" fill="#43D92D"/>
                    </g>
                </g>
            </g>
        </g>
    </g>
</svg>