<?xml version="1.0" encoding="UTF-8"?>
<svg width="54px" height="53px" viewBox="0 0 54 53" version="1.1" xmlns="http://www.w3.org/2000/svg" xmlns:xlink="http://www.w3.org/1999/xlink">
    <!-- Generator: Sketch 54 (76480) - https://sketchapp.com -->
    <title>Specialists</title>
    <desc>Created with Sketch.</desc>
    <g id="Page-1" stroke="none" stroke-width="1" fill="none" fill-rule="evenodd">
        <g id="About-Us" transform="translate(-1360.000000, -2137.000000)" fill-rule="nonzero">
            <g id="Specialists" transform="translate(1360.000000, 2137.000000)">
                <g id="Group" transform="translate(1.306452, 33.286585)" fill="#D4E1F4">
                    <path d="M4.92684677,3.43088821 C4.92684677,1.92555894 5.95447984,0.646880081 7.37143548,0.205321138 C7.01919527,0.0955049744 6.65203733,0.0397038661 6.28272581,0.0398577236 C4.33447984,0.0398577236 2.74942742,1.56102236 2.74942742,3.43088821 C2.74942742,5.30075407 4.33447984,6.82202642 6.28272581,6.82202642 C6.65203733,6.82218028 7.01919527,6.76637917 7.37143548,6.65656301 C5.95447984,6.21489634 4.92684677,4.93621748 4.92684677,3.43088821 L4.92684677,3.43088821 Z" id="Path"></path>
                    <path d="M6.91178226,10.6646341 L4.7343629,10.6646341 C2.12073784,10.6675434 0.0027599593,12.7633445 7.10542736e-15,15.3494248 L7.10542736e-15,18.4207317 L2.17741935,18.4207317 L2.17741935,15.3494248 C2.18017931,12.7633445 4.2981572,10.6675434 6.91178226,10.6646341 Z" id="Path"></path>
                    <path d="M24.3376694,3.43088821 C24.3376694,1.92555894 25.3651935,0.646880081 26.7822581,0.205321138 C26.4300179,0.0955049744 26.0628599,0.0397038661 25.6935484,0.0398577236 C23.7447581,0.0398577236 22.16025,1.56102236 22.16025,3.43088821 C22.16025,5.30075407 23.7453024,6.82202642 25.6935484,6.82202642 C26.0628599,6.82218028 26.4300179,6.76637917 26.7822581,6.65656301 C25.3651935,6.21489634 24.3376694,4.93621748 24.3376694,3.43088821 L24.3376694,3.43088821 Z" id="Path"></path>
                    <path d="M43.7484919,3.43088821 C43.7484919,1.92555894 44.7760161,0.646880081 46.1930806,0.205321138 C45.8408404,0.0955049744 45.4736825,0.0397038661 45.104371,0.0398577236 C43.156125,0.0398577236 41.5710726,1.56102236 41.5710726,3.43088821 C41.5710726,5.30075407 43.156125,6.82202642 45.104371,6.82202642 C45.4736825,6.82218028 45.8408404,6.76637917 46.1930806,6.65656301 C44.7760161,6.21489634 43.7484919,4.93621748 43.7484919,3.43088821 Z" id="Path"></path>
                    <path d="M26.322496,10.6646341 L24.1450766,10.6646341 C21.531639,10.6675431 19.4137625,12.7630993 19.4108226,15.3489939 L19.4108226,18.4207317 L21.5882419,18.4207317 L21.5882419,15.3494248 C21.5909419,12.7633619 23.7088886,10.6675435 26.322496,10.6646341 L26.322496,10.6646341 Z" id="Path"></path>
                    <path d="M45.7333185,10.6646341 L43.5558992,10.6646341 C40.9424439,10.667543 38.8245362,12.7630819 38.8215363,15.3489939 L38.8215363,18.4207317 L40.9989556,18.4207317 L40.9989556,15.3494248 C41.0017156,12.7633445 43.1196935,10.6675434 45.7333185,10.6646341 L45.7333185,10.6646341 Z" id="Path"></path>
                </g>
                <path d="M15.1783548,52.3536585 L15.1783548,48.6360102 C15.1748149,45.3363628 12.4724417,42.662277 9.13764919,42.6585366 L6.04081452,42.6585366 C2.70600435,42.6622769 0.00359987982,45.3363453 0,48.6360102 L0,52.3536585 C0,52.7106231 0.292459155,53 0.653225806,53 L14.525129,53 C14.8858957,53 15.1783548,52.7106231 15.1783548,52.3536585 L15.1783548,52.3536585 Z M13.8719032,51.7073171 L1.30645161,51.7073171 L1.30645161,48.6360102 C1.30921157,46.0499299 3.42718946,43.9541288 6.04081452,43.9512195 L9.13764919,43.9512195 C11.7510868,43.9541284 13.8689633,46.0496847 13.8719032,48.6355793 L13.8719032,51.7073171 Z" id="Shape" fill="#24527a"></path>
                <path d="M47.9591855,42.6585366 L44.8623508,42.6585366 C41.5277104,42.6622765 38.8253761,45.3360827 38.8215363,48.6355793 L38.8215363,52.3536585 C38.8215363,52.7106231 39.1139954,53 39.4747621,53 L53.3467742,53 C53.7075408,53 54,52.7106231 54,52.3536585 L54,48.6360102 C53.9964001,45.3363453 51.2939957,42.6622769 47.9591855,42.6585366 L47.9591855,42.6585366 Z M52.6935484,51.7073171 L40.1279879,51.7073171 L40.1279879,48.6360102 C40.1307479,46.0499299 42.2487257,43.9541288 44.8623508,43.9512195 L47.9591855,43.9512195 C50.5728105,43.9541288 52.6907884,46.0499299 52.6935484,48.6360102 L52.6935484,51.7073171 Z" id="Shape" fill="#24527a"></path>
                <path d="M25.4515282,42.6585366 C22.1169055,42.6622766 19.4146024,45.3361001 19.4108226,48.6355793 L19.4108226,52.3536585 C19.4108226,52.7106231 19.7032817,53 20.0640484,53 L33.9359516,53 C34.2967183,53 34.5891774,52.7106231 34.5891774,52.3536585 L34.5891774,48.6360102 C34.5856375,45.3363628 31.8832643,42.662277 28.5484718,42.6585366 L25.4515282,42.6585366 Z M33.2827258,48.6355793 L33.2827258,51.7073171 L20.7172742,51.7073171 L20.7172742,48.6360102 C20.7199742,46.0499473 22.8379208,43.9541289 25.4515282,43.9512195 L28.5484718,43.9512195 C31.1620792,43.9541289 33.2800258,46.0499473 33.2827258,48.6360102 L33.2827258,48.6355793 Z" id="Shape" fill="#24527a"></path>
                <path d="M27.6532258,21.366002 L26.3467742,21.366002 L26.3467742,27.5310224 L9.88025806,27.5310224 C8.25918134,27.5283974 6.94195344,28.8248032 6.93595161,30.4287866 L6.93595161,32.0778191 C4.57530242,32.3875244 2.74942742,34.3496016 2.74942742,36.717689 C2.74942742,39.3003618 4.92053226,41.4015102 7.58917742,41.4015102 C10.2578226,41.4015102 12.4289274,39.3009004 12.4289274,36.717689 C12.4289274,34.3496016 10.6030524,32.3872012 8.24240323,32.0778191 L8.24240323,30.4285711 C8.24773999,29.5382445 8.98043867,28.8202072 9.88025806,28.8234898 L26.3467742,28.8234898 L26.3467742,32.0773882 C23.986125,32.3870935 22.16025,34.3491707 22.16025,36.7172581 C22.16025,39.2999309 24.3313548,41.4010793 27,41.4010793 C29.6686452,41.4010793 31.83975,39.3004695 31.83975,36.7172581 C31.83975,34.3491707 30.013875,32.3867703 27.6532258,32.0773882 L27.6532258,28.8237053 L44.1197419,28.8237053 C45.0195613,28.8204226 45.75226,29.53846 45.7575968,30.4287866 L45.7575968,32.0778191 C43.3969476,32.3875244 41.5710726,34.3496016 41.5710726,36.717689 C41.5710726,39.3003618 43.7421774,41.4015102 46.4108226,41.4015102 C49.0794677,41.4015102 51.2505726,39.3009004 51.2505726,36.717689 C51.2505726,34.3496016 49.4246976,32.3872012 47.0640484,32.0778191 L47.0640484,30.4285711 C47.0580466,28.8245878 45.7408187,27.528182 44.1197419,27.5308069 L27.6532258,27.5308069 L27.6532258,21.366002 Z M11.1224758,36.7174736 C11.1224758,38.5873394 9.53742339,40.1086118 7.58917742,40.1086118 C5.64093145,40.1086118 4.05587903,38.5873394 4.05587903,36.7174736 C4.05587903,34.8476077 5.64093145,33.3264431 7.58917742,33.3264431 C9.53742339,33.3264431 11.1224758,34.8476077 11.1224758,36.7174736 Z M30.5332984,36.7174736 C30.5332984,38.5873394 28.948246,40.1086118 27,40.1086118 C25.051754,40.1086118 23.4667016,38.5873394 23.4667016,36.7174736 C23.4667016,34.8476077 25.051754,33.3264431 27,33.3264431 C28.948246,33.3264431 30.5332984,34.8476077 30.5332984,36.7174736 Z M49.944121,36.7174736 C49.944121,38.5873394 48.3590685,40.1086118 46.4108226,40.1086118 C44.4625766,40.1086118 42.8775242,38.5873394 42.8775242,36.7174736 C42.8775242,34.8476077 44.4629032,33.3264431 46.4108226,33.3264431 C48.3587419,33.3264431 49.944121,34.8476077 49.944121,36.7174736 Z" id="Shape" fill="#24527a"></path>
                <path d="M27,5.4325 C23.9015043,5.45139156 21.4033464,7.94872207 21.4160553,11.0145951 C21.4287643,14.0804682 23.9475422,16.557438 27.0460902,16.5511796 C30.1446383,16.5449212 32.653175,14.0577972 32.6532339,10.9918984 C32.6401529,7.91352453 30.111184,5.42653291 27,5.4325 L27,5.4325 Z M27,15.2585061 C24.6229561,15.239682 22.7096057,13.3210616 22.7223035,10.9690276 C22.7350013,8.61699361 24.6689579,6.718708 27.0460693,6.72501173 C29.4231808,6.73131546 31.3468262,8.63983083 31.3467823,10.9918984 C31.3344857,13.3566475 29.3899583,15.2653088 27,15.2585061 L27,15.2585061 Z" id="Shape" fill="#43D92D"></path>
                <path d="M32.7607984,19.747563 C33.0880534,20.067261 33.614249,20.067261 33.941504,19.747563 L35.8895323,17.833315 C36.0475019,17.6781891 36.1363492,17.4670843 36.1363492,17.2468679 C36.1363492,17.0266515 36.0475019,16.8155467 35.8895323,16.6604207 L35.107621,15.8921362 C35.6329092,15.0567036 36.0195803,14.1434196 36.2529435,13.1869817 L37.3591815,13.1869817 C37.82104,13.1868044 38.1956077,12.8167626 38.1965081,12.3597724 L38.1965081,9.65278659 C38.1956077,9.19579635 37.82104,8.82575455 37.3591815,8.82557724 L36.2595847,8.82557724 C36.0287071,7.8656194 35.6434769,6.94859205 35.1186169,6.10954268 L35.8894234,5.35203049 C36.0473931,5.19690452 36.1362404,4.98579975 36.1362404,4.76558333 C36.1362404,4.54536691 36.0473931,4.33426215 35.8894234,4.17913618 L33.9416129,2.26510366 C33.6144045,1.94508894 33.0878979,1.94508894 32.7606895,2.26510366 L31.9883589,3.02390854 C31.1307664,2.50249875 30.1944068,2.12017015 29.2147621,1.89141057 L29.2147621,0.82720935 C29.2138617,0.370219112 28.8392941,0.000177318924 28.3774355,2.84217094e-14 L25.623,2.84217094e-14 C25.1611414,0.000177318924 24.7865738,0.370219112 24.7856734,0.82720935 L24.7856734,1.89130285 C23.8058853,2.12004186 22.869379,2.50237031 22.0116411,3.02380081 L21.2394194,2.26510366 C20.912211,1.94508894 20.3857044,1.94508894 20.058496,2.26510366 L18.1104677,4.1796748 C17.9524915,4.33481922 17.8636416,4.5459418 17.8636416,4.76617581 C17.8636416,4.98640982 17.9524915,5.1975324 18.1104677,5.35267683 L18.8812742,6.1100813 C18.3563638,6.94910503 17.97113,7.86614069 17.7403065,8.82611585 L16.6407097,8.82611585 C16.1788511,8.82629317 15.8042835,9.19633497 15.8033831,9.6533252 L15.8033831,12.3602033 C15.8042835,12.8171935 16.1788511,13.1872353 16.6407097,13.1874126 L17.7470565,13.1874126 C17.9804001,14.1438568 18.3670724,15.0571439 18.892379,15.8925671 L18.1105766,16.6607439 C17.9525669,16.8158925 17.8636956,17.0270383 17.8636956,17.2472988 C17.8636956,17.4675593 17.9525669,17.678705 18.1105766,17.8338537 L20.0587137,19.7481016 C20.3859687,20.0677997 20.9121643,20.0677997 21.2394194,19.7481016 L22.0298226,18.9714146 C22.8825246,19.4872757 23.8126178,19.8658639 24.7853468,20.0930325 L24.7853468,21.1858882 C24.7862473,21.642861 25.1608324,22.0128719 25.6226734,22.0129898 L28.3771089,22.0129898 C28.8389498,22.0128719 29.213535,21.642861 29.2144355,21.1858882 L29.2144355,20.0923862 C30.1871752,19.8652507 31.1172735,19.4866603 31.9699597,18.9707683 L32.7607984,19.747563 Z M28.5863589,18.9041951 C28.1936062,18.9798794 27.9096615,19.3196565 27.9083105,19.7155691 L27.9083105,20.7196606 L26.0916895,20.7196606 L26.0916895,19.7155691 C26.0903699,19.3195492 25.8063027,18.9796895 25.4134234,18.9040874 C24.347623,18.700139 23.333681,18.2877617 22.4310121,17.6911199 C22.0995392,17.4732879 21.6591204,17.5152337 21.3757258,17.791626 L20.6489032,18.5058333 L19.3681452,17.2465447 L20.0856048,16.5414939 C20.3702629,16.2608701 20.4129193,15.8195756 20.1871815,15.4906504 C19.578355,14.6065781 19.1562098,13.6099697 18.9460524,12.5605691 C18.8676925,12.1733537 18.5244898,11.8943601 18.1253831,11.893437 L17.1105968,11.893437 L17.1105968,10.1182602 L18.1198306,10.1182602 C18.5200403,10.1175997 18.8639655,9.83712138 18.9410444,9.44854268 C19.1481896,8.39600619 19.5685258,7.39585232 20.1767298,6.50833537 C20.4012879,6.17946338 20.3582079,5.73914496 20.0740645,5.459 L19.3681452,4.76558333 L20.6493387,3.50661789 L21.3586331,4.20369715 C21.6425148,4.48068071 22.0840038,4.52221344 22.4155524,4.30312602 C23.322116,3.70084115 24.3416613,3.28477833 25.41375,3.07960163 C25.8067715,3.00428436 26.0909995,2.66433206 26.092125,2.26822764 L26.092125,1.29268293 L27.908746,1.29268293 L27.908746,2.26822764 C27.9098511,2.66426524 28.1939682,3.00419408 28.5869032,3.07960163 C29.659072,3.28473673 30.6786966,3.70080172 31.5853185,4.30312602 C31.9169031,4.52214245 32.3583645,4.48056732 32.6422379,4.20358943 L33.3515323,3.50661789 L34.6318548,4.76558333 L33.9259355,5.45921545 C33.64202,5.73940217 33.5990394,6.17954725 33.8234879,6.50833537 C34.4317105,7.39584238 34.8520484,8.39600014 35.0591734,9.44854268 C35.1362523,9.83712138 35.4801774,10.1175997 35.8803871,10.1182602 L36.889621,10.1182602 L36.889621,11.8941911 L35.8748347,11.8941911 C35.475728,11.8951141 35.1325253,12.1741078 35.0541653,12.5613232 C34.8439821,13.6107159 34.421839,14.6073194 33.8130363,15.4914045 C33.5873713,15.8203461 33.6301202,16.2616067 33.9148306,16.5421402 L34.6318548,17.2465447 L33.3510968,18.5058333 L32.6243831,17.791626 C32.3409612,17.515222 31.9005305,17.4732345 31.5689879,17.6910122 C30.6662721,18.2877589 29.652252,18.7002111 28.5863589,18.9041951 L28.5863589,18.9041951 Z" id="Shape" fill="#43D92D"></path>
            </g>
        </g>
    </g>
</svg>