<?xml version="1.0" encoding="UTF-8"?>
<svg width="80px" height="69px" viewBox="0 0 80 69" version="1.1" xmlns="http://www.w3.org/2000/svg" xmlns:xlink="http://www.w3.org/1999/xlink">
    <!-- Generator: Sketch 54 (76480) - https://sketchapp.com -->
    <title>web-programming(2)</title>
    <desc>Created with Sketch.</desc>
    <g id="Page-1" stroke="none" stroke-width="1" fill="none" fill-rule="evenodd">
        <g id="eCommerce" transform="translate(-438.000000, -2965.000000)" fill-rule="nonzero">
            <g id="Group-5" transform="translate(391.000000, 2423.000000)">
                <g id="Group-4" transform="translate(0.000000, 477.000000)">
                    <g id="web-programming(2)" transform="translate(47.000000, 65.000000)">
                        <path d="M41.018075,49.412419 C41.0191638,48.6788776 41.0599957,47.9458841 41.1405706,47.2167254 L13.2899608,47.2167254 C10.0974521,47.2134385 7.50979958,44.610161 7.50598871,41.3971514 L7.50598871,2.34141571 C4.53016111,2.6169731 2.25174216,5.12766768 2.24847554,8.13469413 L2.24847554,46.6875239 C2.25228655,49.8999857 4.83885017,52.503811 8.03190328,52.507098 L41.2603441,52.507098 C41.0991943,51.4837556 41.018075,50.4483613 41.018075,49.412419 Z" id="Path" fill="#D4E1F4"/>
                        <path d="M61.6528746,8.27055541 L61.6528746,29.6977419 C61.2630662,29.6730897 60.8694468,29.6610376 60.4720166,29.6610376 C60.0489982,29.6610376 59.6308797,29.6747332 59.2149391,29.7026725 L59.2149391,16.7416159 L2.43848,16.7416159 L2.43848,46.5812452 C2.44229101,49.7734375 5.0130662,52.360828 8.18543122,52.3646627 L41.2069904,52.3646627 C41.307709,53.0143864 41.4416376,53.6591797 41.6065985,54.2957556 C41.6523302,54.4710604 41.7013284,54.6463653 41.7519599,54.8183832 L8.18543122,54.8183832 C3.666703,54.812905 0.00544425087,51.1282155 -1.13686838e-13,46.5812452 L-1.13686838e-13,8.27055541 C0.00489981882,3.72248955 3.666703,0.0378000793 8.18543122,0.0334174573 L53.4674433,0.0334174573 C57.9861716,0.0383480122 61.6474302,3.72358514 61.6528746,8.27055541 L61.6528746,8.27055541 Z M59.2149391,14.2884431 L59.2149391,8.27055541 C59.2105837,5.07726753 56.6398084,2.49042485 53.4674433,2.48713796 L8.18543122,2.48713796 C5.01252181,2.48987706 2.44174648,5.07726753 2.43848,8.27055541 L2.43848,14.2884431 L59.2149391,14.2884431 Z" id="Shape" fill="#24527a"/>
                        <g id="Group" transform="translate(4.181185, 4.908537)" fill="#43D92D">
                            <path d="M56.2908319,64.0081936 C66.8287239,64.0016197 75.4562283,55.5738377 75.7752613,44.9744665 C76.0942944,34.376191 67.9899826,25.4383813 57.4716899,24.7892053 C57.0818815,24.7645531 56.6882622,24.752501 56.2908319,24.752501 C55.8678135,24.752501 55.4496951,24.7661966 55.0337544,24.7941359 C49.2198389,25.1825457 43.8812064,28.1616331 40.4747387,32.9184213 C37.0682709,37.6757574 35.9505661,43.7150104 37.4254138,49.387219 C37.4711455,49.5625239 37.5201437,49.7378287 37.5707752,49.9098466 C40.0119774,58.2669588 47.6339286,64.007098 56.2908319,64.0081936 L56.2908319,64.0081936 Z M39.7021994,48.4356422 C38.4723431,43.3227658 39.6379574,37.9244713 42.8647649,33.7850848 C46.0921168,29.6462462 51.0246079,27.2215605 56.2527221,27.2062215 L56.2908319,27.2062215 C65.148628,27.2078649 72.5321211,34.0277724 73.2921385,42.9080602 C74.051067,51.7872523 67.9339068,59.7762243 59.2073171,61.3013768 C50.4801829,62.8265292 42.0443162,57.3811214 39.7844077,48.7632431 C39.7560976,48.6547733 39.7283318,48.5457556 39.7021994,48.4356422 L39.7021994,48.4356422 Z" id="Shape"/>
                            <path d="M60.9864983,49.997499 C61.4231272,50.513005 62.1923999,50.5743617 62.7052482,50.1355516 L68.4026567,45.2533108 C68.6737805,45.0199362 68.8311193,44.6786395 68.8311193,44.3187167 C68.8311193,43.9593417 68.6737805,43.618045 68.4026567,43.3852182 L62.7052482,38.5040729 C62.1923999,38.0647152 61.4231272,38.1266197 60.9864983,38.6421255 C60.5493249,39.1587271 60.6113894,39.9328077 61.1236934,40.3721656 L65.7322517,44.3187167 L61.1236934,48.2674591 C60.6119338,48.7073648 60.5509582,49.4808974 60.9864983,49.997499 Z" id="Path"/>
                            <path d="M54.0216682,54.0629288 C54.1044208,54.0815549 54.1893511,54.0908679 54.2742814,54.0908679 C54.8502831,54.0897723 55.3473433,53.6838319 55.4671167,53.1168303 L59.0167682,36.150605 C59.1093206,35.7205602 58.9666813,35.2735328 58.6422038,34.9793493 C58.3166376,34.6846179 57.8593206,34.5876524 57.4444686,34.725705 C57.0296167,34.8637576 56.7192945,35.2149152 56.6321865,35.6460556 L53.0809016,52.6100895 C53.0144817,52.9278297 53.0754573,53.2598133 53.251851,53.5326315 C53.4287891,53.8049019 53.7053572,53.9960937 54.0216682,54.0629288 L54.0216682,54.0629288 Z" id="Path"/>
                            <path d="M50.6674651,50.4280917 C51.1781359,50.4286395 51.635453,50.1081603 51.8113023,49.6255239 C51.9882404,49.1428877 51.8466899,48.6005383 51.4579705,48.2674591 L46.8515897,44.3187167 L51.4579705,40.3721656 C51.8015026,40.0916778 51.9664634,39.6468417 51.8896995,39.2085795 C51.81348,38.7697694 51.507513,38.4076553 51.089939,38.2619332 C50.6718205,38.1156631 50.2085148,38.208246 49.8780488,38.5040729 L44.1817291,43.3852182 C43.9089721,43.618045 43.7510888,43.9593417 43.7510888,44.3187167 C43.7510888,44.6786395 43.9089721,45.020484 44.1817291,45.2533108 L49.8780488,50.1355516 C50.0985409,50.3245523 50.3783755,50.4280917 50.6674651,50.4280917 Z" id="Path"/>
                            <path d="M23.1206446,6.99630815 L23.1309887,6.99630815 C25.0125218,6.99904726 26.5407231,5.46622516 26.5434452,3.57238468 C26.5461672,1.679092 25.0228658,0.141339488 23.1407883,0.138600384 L23.1309887,0.138600384 C21.2489112,0.135313488 19.7212544,1.66813545 19.7185323,3.56252385 C19.7147213,5.45581654 21.2380226,6.99356905 23.1206446,6.99630815 Z M22.4466464,2.87554779 C22.6273954,2.69312119 22.8745645,2.59067737 23.1309887,2.59232088 L23.1320775,2.59232088 C23.6677918,2.59232088 24.1016987,3.02948735 24.1011541,3.56854985 C24.1000654,4.10651677 23.6661586,4.54313545 23.1309887,4.54258765 L23.1271777,4.54258765 C22.735736,4.54149193 22.3824042,4.30318696 22.2332318,3.93833362 C22.0846036,3.57348041 22.1679008,3.15439222 22.4466464,2.87554779 Z" id="Shape"/>
                            <path d="M13.2888719,6.96453407 L13.2997604,6.96453407 C15.1763937,6.96343849 16.6996951,5.43609474 16.7078615,3.54718468 C16.7127613,1.65443979 15.1927264,0.115043756 13.3117378,0.107374238 L13.2997604,0.107374238 C11.4176829,0.104087341 9.8900262,1.6369093 9.88621519,3.53074977 C9.88349296,5.42459039 11.4067944,6.96179497 13.2888719,6.96453407 Z M12.616507,2.84432165 C12.797256,2.66189504 13.0433363,2.55999901 13.2997604,2.5605468 L13.303027,2.5605468 C13.8381968,2.56219032 14.2710148,2.99935693 14.269926,3.53841943 L14.269926,3.54061074 C14.2672039,4.076934 13.8338414,4.5119093 13.2997604,4.51136151 L13.2975827,4.51136151 C12.9055967,4.50971799 12.5528092,4.27141288 12.4036368,3.90655968 C12.2544643,3.54170633 12.3388502,3.12261814 12.616507,2.84432165 Z" id="Shape"/>
                            <path d="M3.45927693,6.93440351 L3.46962105,6.93440351 C4.84592767,6.93495145 6.08776139,6.10225327 6.61694244,4.82307546 C7.14557923,3.54444557 6.8575784,2.07078887 5.88686843,1.08853376 C5.25152446,0.440453506 4.38479972,0.0766958841 3.47996516,0.0772436768 L3.46962105,0.0772436768 C1.58808794,0.0745045732 0.0598868293,1.60732667 0.0571645993,3.50061935 C0.0544425087,5.39445983 1.57774383,6.93166441 3.45927693,6.93440351 Z M2.78745645,2.81254771 C2.96820557,2.63121669 3.21374132,2.52986845 3.46962105,2.53041638 L3.47288767,2.53041638 C4.00860195,2.5320599 4.4408754,2.9703221 4.43978662,3.50883666 C4.43706453,4.04570785 4.00370202,4.48013522 3.46962105,4.48123095 L3.46635456,4.48123095 C2.93172906,4.47739612 2.5,4.04022965 2.50163331,3.50116715 C2.50108878,3.24259245 2.60344084,2.99497431 2.78745645,2.81254771 Z" id="Shape"/>
                        </g>
                    </g>
                </g>
            </g>
        </g>
    </g>
</svg>