<?xml version="1.0" encoding="UTF-8"?>
<svg width="44px" height="57px" viewBox="0 0 44 57" version="1.1" xmlns="http://www.w3.org/2000/svg" xmlns:xlink="http://www.w3.org/1999/xlink">
    <!-- Generator: Sketch 54 (76480) - https://sketchapp.com -->
    <title>Year of Opration</title>
    <desc>Created with Sketch.</desc>
    <g id="Page-1" stroke="none" stroke-width="1" fill="none" fill-rule="evenodd">
        <g id="About-Us" transform="translate(-536.000000, -2135.000000)" fill-rule="nonzero">
            <g id="Year-of-Opration" transform="translate(536.000000, 2135.000000)">
                <path d="M18.6578552,34.97425 C18.3494222,34.9748437 18.0557042,34.8382813 17.8555758,34.601375 L12.2837649,28.0196563 C11.9052867,27.5725626 11.9576734,26.9010313 12.400899,26.51925 C12.8441245,26.1380626 13.5098459,26.1909063 13.8883241,26.6374063 L18.7908818,32.4288437 L30.9675193,22.4360313 C31.4195741,22.0649374 32.0841182,22.1338126 32.4514127,22.5898126 C32.8192958,23.0458126 32.7510167,23.7161563 32.2989619,24.0866563 L19.3223994,34.7355626 C19.1352204,34.8899374 18.9003639,34.97425 18.6578552,34.97425 Z" id="Path" fill="#43D92D"></path>
                <path d="M18.3099851,55.5185937 L21.169467,56.7755626 C21.4366974,56.893125 21.7410103,56.8937187 22.0088292,56.77675 L25.2308968,55.373125 C36.5440389,50.580375 43.904056,39.41075 43.9052333,27.0334374 L43.9052333,12.4527187 C43.9052333,12.0596563 43.6903895,11.6980626 43.3466395,11.5134063 L22.1595142,0.125281288 C21.8451947,-0.043937424 21.4684824,-0.041562576 21.1565176,0.131218712 L0.555650685,11.5193437 C0.21778674,11.706375 0.00824058219,12.0638126 0.00824058219,12.4527187 L0.00824058219,27.3285313 C0.0206014932,39.5568126 7.20285741,50.6195626 18.3099851,55.5185937 L18.3099851,55.5185937 Z M2.1178297,13.0826874 L21.6703767,2.272875 L41.7956443,13.0904063 L41.7956443,27.0334374 C41.7932898,38.5575313 34.9388913,48.955875 24.4050728,53.4155313 L24.3974208,53.4190937 L21.5920912,54.6410313 L19.154056,53.568125 C8.81506849,49.008125 2.12901323,38.7113126 2.11724097,27.3285313 L2.1178297,13.0826874 Z" id="Shape" fill="#24527a"></path>
                <path d="M28.9256208,47.3349374 L28.9185573,47.3379063 L26.1126392,48.5604374 L23.674604,47.488125 C13.3356164,42.928125 6.64956118,32.6313126 6.63778892,21.2485313 L6.63778892,10.5835937 L2.11724097,13.0826874 L2.11724097,27.3285313 C2.12901323,38.7113126 8.81506849,49.008125 19.154056,53.568125 L21.5915025,54.6404374 L24.3974208,53.4179063 L24.4044841,53.4149374 C30.2435252,50.9348437 35.0954623,46.5612813 38.1921554,40.9865626 C35.549283,43.6988126 32.3996147,45.8565 28.9256208,47.3349374 Z" id="Path" fill="#D4E1F4"></path>
            </g>
        </g>
    </g>
</svg>