<svg width="338" height="391" viewBox="0 0 338 391" fill="none" xmlns="http://www.w3.org/2000/svg">
<g id="Group 1">
<path id="Vector 5" d="M127.5 251L169 275L211 251" stroke="#000" stroke-width="2.75"/>
<path id="Vector 3" d="M197.5 148L202 149.5L233.5 167.5V199.5M233.5 199.5L219.5 191.5L191 209M233.5 199.5L247.5 209M191 209V240L219.5 255M191 209L219.5 224M219.5 255L247.5 240V209M219.5 255V224M247.5 209L219.5 224" stroke="#000" stroke-width="2.75"/>
<path id="Vector 4" d="M139.5 147L135 148.5L103.5 166.5V199.5M103.5 199.5L117.5 191.5L146 208M103.5 199.5L89.5 208M146 208V240.5L117.5 256.5M146 208L117.5 224M117.5 256.5L89.5 240.5V208M117.5 256.5V224M89.5 208L117.5 224" stroke="#000" stroke-width="2.75"/>
<path id="Vector 1" d="M329.5 102.5L169 10L8 102.5V288L169 381.5L329.5 288V102.5Z" stroke="#000" stroke-width="16"/>
<path id="Vector 2" d="M139.5 133.5L168.5 148.5M139.5 133.5L168.5 116L197.5 132.132M139.5 133.5V164.38L168.5 180.5M168.5 148.5L197.5 132.132M168.5 148.5V180.5M197.5 132.132V164.38L168.5 180.5" stroke="#000" stroke-width="2.75"/>
</g>
</svg>