<?xml version="1.0" encoding="UTF-8"?>
<svg width="74px" height="58px" viewBox="0 0 74 58" version="1.1" xmlns="http://www.w3.org/2000/svg" xmlns:xlink="http://www.w3.org/1999/xlink">
    <!-- Generator: Sketch 54 (76480) - https://sketchapp.com -->
    <title>Airlines</title>
    <desc>Created with Sketch.</desc>
    <g id="Page-1" stroke="none" stroke-width="1" fill="none" fill-rule="evenodd">
        <g id="Blog-Detail" transform="translate(-810.000000, -2421.000000)" fill-rule="nonzero">
            <g id="Group-6" transform="translate(781.000000, 2394.000000)">
                <g id="Airlines" transform="translate(29.000000, 27.000000)">
                    <path d="M39.9847661,47.7133711 C33.8568822,47.7150532 28.4539913,43.6877292 26.6941604,37.8065314 C24.9343296,31.9253335 27.2346043,25.583991 32.352621,22.2074227 C27.3020528,24.0030482 23.7353146,28.5526484 23.1904309,33.8943758 C22.6455472,39.2361033 25.2199714,44.4145796 29.8035779,47.1967778 C34.3871845,49.978976 40.1601865,49.8672945 44.6331895,46.9098918 C43.1411524,47.4427706 41.5687575,47.7145589 39.9847661,47.7133711 L39.9847661,47.7133711 Z" id="Path" fill="#D4E1F4"></path>
                    <path d="M45.8048065,27.3513351 C45.5257661,27.155514 45.168939,27.1083687 44.8487742,27.2250206 C39.7780433,29.0687661 34.2219567,29.0687661 29.1512258,27.2250206 C28.8311718,27.1084214 28.4744792,27.155501 28.1954809,27.3511689 C27.9164825,27.5468367 27.7502251,27.8665137 27.75,28.207732 L27.75,34.2593144 C27.7500393,34.6993063 28.0247827,35.0922722 28.4374839,35.2426237 C33.9692501,37.2544913 40.0307499,37.2544913 45.5625161,35.2426237 C45.9750118,35.0923472 46.2497098,34.6996851 46.25,34.2599124 L46.25,28.207732 C46.2497865,27.8666254 46.0836479,27.5470327 45.8048065,27.3513351 L45.8048065,27.3513351 Z M44.1612903,33.514433 C39.5086732,35.041123 34.4913268,35.041123 29.8387097,33.514433 L29.8387097,29.6557887 C34.5117015,31.0486898 39.4882985,31.0486898 44.1612903,29.6557887 L44.1612903,33.514433 Z" id="Shape" fill="#1AE5BE"></path>
                    <path d="M45.9516129,11.6597938 L38.7381048,11.6597938 C38.1613236,11.6597938 37.69375,12.1282794 37.69375,12.7061856 C37.69375,13.2840918 38.1613236,13.7525773 38.7381048,13.7525773 L45.9516129,13.7525773 C46.5283942,13.7525773 46.9959677,13.2840918 46.9959677,12.7061856 C46.9959677,12.1282794 46.5283942,11.6597938 45.9516129,11.6597938 Z" id="Path" fill="#1AE5BE"></path>
                    <path d="M35.2638347,13.7525773 C35.8406159,13.7525773 36.3081895,13.2840918 36.3081895,12.7061856 C36.3081895,12.1282794 35.8406159,11.6597938 35.2638347,11.6597938 L28.0483871,11.6597938 C27.4716058,11.6597938 27.0040323,12.1282794 27.0040323,12.7061856 C27.0040323,13.2840918 27.4716058,13.7525773 28.0483871,13.7525773 L35.2638347,13.7525773 Z" id="Path" fill="#1AE5BE"></path>
                    <path d="M33.2701613,51.3757423 C31.4574202,51.3757423 29.9879032,52.8481254 29.9879032,54.6644021 C29.9879032,56.4806787 31.4574202,57.9530619 33.2701613,57.9530619 C35.0829024,57.9530619 36.5524194,56.4806787 36.5524194,54.6644021 C36.5503639,52.8489792 35.0820503,51.3778017 33.2701613,51.3757423 L33.2701613,51.3757423 Z M33.2701613,55.8602784 C32.6109827,55.8602784 32.0766129,55.3248663 32.0766129,54.6644021 C32.0766129,54.0039378 32.6109827,53.4685258 33.2701613,53.4685258 C33.9293399,53.4685258 34.4637097,54.0039378 34.4637097,54.6644021 C34.4629697,55.3245589 33.9290331,55.8595369 33.2701613,55.8602784 L33.2701613,55.8602784 Z" id="Shape" fill="#1AE5BE"></path>
                    <path d="M40.7298387,51.3757423 C38.9170976,51.3757423 37.4475806,52.8481254 37.4475806,54.6644021 C37.4475806,56.4806787 38.9170976,57.9530619 40.7298387,57.9530619 C42.5425798,57.9530619 44.0120968,56.4806787 44.0120968,54.6644021 C44.0100413,52.8489792 42.5417277,51.3778017 40.7298387,51.3757423 L40.7298387,51.3757423 Z M40.7298387,55.8602784 C40.0706601,55.8602784 39.5362903,55.3248663 39.5362903,54.6644021 C39.5362903,54.0039378 40.0706601,53.4685258 40.7298387,53.4685258 C41.3890173,53.4685258 41.9233871,54.0039378 41.9233871,54.6644021 C41.9226471,55.3245589 41.3887105,55.8595369 40.7298387,55.8602784 L40.7298387,55.8602784 Z" id="Shape" fill="#1AE5BE"></path>
                    <path d="M45.8048065,27.3513351 C45.5257661,27.155514 45.168939,27.1083687 44.8487742,27.2250206 C39.7780433,29.0687661 34.2219567,29.0687661 29.1512258,27.2250206 C28.8311718,27.1084214 28.4744792,27.155501 28.1954809,27.3511689 C27.9164825,27.5468367 27.7502251,27.8665137 27.75,28.207732 L27.75,34.2593144 C27.7500393,34.6993063 28.0247827,35.0922722 28.4374839,35.2426237 C33.9692501,37.2544913 40.0307499,37.2544913 45.5625161,35.2426237 C45.9750118,35.0923472 46.2497098,34.6996851 46.25,34.2599124 L46.25,28.207732 C46.2497865,27.8666254 46.0836479,27.5470327 45.8048065,27.3513351 L45.8048065,27.3513351 Z M44.1612903,33.514433 C39.5086732,35.041123 34.4913268,35.041123 29.8387097,33.514433 L29.8387097,29.6557887 C34.5117015,31.0486898 39.4882985,31.0486898 44.1612903,29.6557887 L44.1612903,33.514433 Z" id="Shape" fill="#43D92D"></path>
                    <path d="M45.9516129,11.6597938 L38.7381048,11.6597938 C38.1613236,11.6597938 37.69375,12.1282794 37.69375,12.7061856 C37.69375,13.2840918 38.1613236,13.7525773 38.7381048,13.7525773 L45.9516129,13.7525773 C46.5283942,13.7525773 46.9959677,13.2840918 46.9959677,12.7061856 C46.9959677,12.1282794 46.5283942,11.6597938 45.9516129,11.6597938 Z" id="Path" fill="#43D92D"></path>
                    <path d="M35.2638347,13.7525773 C35.8406159,13.7525773 36.3081895,13.2840918 36.3081895,12.7061856 C36.3081895,12.1282794 35.8406159,11.6597938 35.2638347,11.6597938 L28.0483871,11.6597938 C27.4716058,11.6597938 27.0040323,12.1282794 27.0040323,12.7061856 C27.0040323,13.2840918 27.4716058,13.7525773 28.0483871,13.7525773 L35.2638347,13.7525773 Z" id="Path" fill="#43D92D"></path>
                    <path d="M33.2701613,51.3757423 C31.4574202,51.3757423 29.9879032,52.8481254 29.9879032,54.6644021 C29.9879032,56.4806787 31.4574202,57.9530619 33.2701613,57.9530619 C35.0829024,57.9530619 36.5524194,56.4806787 36.5524194,54.6644021 C36.5503639,52.8489792 35.0820503,51.3778017 33.2701613,51.3757423 L33.2701613,51.3757423 Z M33.2701613,55.8602784 C32.6109827,55.8602784 32.0766129,55.3248663 32.0766129,54.6644021 C32.0766129,54.0039378 32.6109827,53.4685258 33.2701613,53.4685258 C33.9293399,53.4685258 34.4637097,54.0039378 34.4637097,54.6644021 C34.4629697,55.3245589 33.9290331,55.8595369 33.2701613,55.8602784 L33.2701613,55.8602784 Z" id="Shape" fill="#43D92D"></path>
                    <path d="M40.7298387,51.3757423 C38.9170976,51.3757423 37.4475806,52.8481254 37.4475806,54.6644021 C37.4475806,56.4806787 38.9170976,57.9530619 40.7298387,57.9530619 C42.5425798,57.9530619 44.0120968,56.4806787 44.0120968,54.6644021 C44.0100413,52.8489792 42.5417277,51.3778017 40.7298387,51.3757423 L40.7298387,51.3757423 Z M40.7298387,55.8602784 C40.0706601,55.8602784 39.5362903,55.3248663 39.5362903,54.6644021 C39.5362903,54.0039378 40.0706601,53.4685258 40.7298387,53.4685258 C41.3890173,53.4685258 41.9233871,54.0039378 41.9233871,54.6644021 C41.9226471,55.3245589 41.3887105,55.8595369 40.7298387,55.8602784 L40.7298387,55.8602784 Z" id="Shape" fill="#43D92D"></path>
                    <path d="M72.8425565,42.0271289 C72.8127177,42.0162663 72.782879,42.0066495 72.7530403,41.9982784 L52.9179073,36.5365619 C52.9487406,36.1304622 52.9643065,35.7203265 52.9646048,35.3061546 C52.9551101,27.9584554 47.9587816,21.5589136 40.843375,19.7806907 L38.0339113,0.938762887 C37.95764,0.426104723 37.5182835,0.0466481376 37.0009698,0.0466481376 C36.483656,0.0466481376 36.0442995,0.426104723 35.9680282,0.938762887 L33.1585645,19.7806907 C26.0431294,21.558903 21.0467507,27.9584303 21.0371855,35.3061546 C21.0371855,35.7066735 21.0521048,36.103555 21.0819435,36.496799 L1.244125,41.9978299 C1.21428629,42.006201 1.18444758,42.015768 1.15460887,42.0268299 C0.594507131,42.2377769 0.193383203,42.7374409 0.107792643,43.3308069 C0.0222020832,43.9241728 0.26571196,44.5171856 0.743282258,44.8783969 L2.86556048,46.4838608 C3.15090806,46.699288 3.49847439,46.8158242 3.85575806,46.815866 C3.92741471,46.8158325 3.99893821,46.8096813 4.06955242,46.7974794 L10.2943548,46.1718866 L10.2943548,47.9845361 L12.3830645,47.9845361 L12.3830645,45.9627577 L24.1245968,44.790799 C27.1372357,48.8780362 31.9046922,51.2931316 36.9758327,51.3009708 C42.0469732,51.30881 46.8218446,48.9084655 49.8470565,44.8305619 L61.6169355,45.979201 L61.6169355,47.9845361 L63.7056452,47.9845361 L63.7056452,46.1838454 L69.9419355,46.7983763 C70.0151785,46.8103667 70.0892737,46.8163658 70.1634879,46.8163144 C70.5179313,46.8162453 70.8625535,46.6996066 71.1444355,46.4843093 L73.2610444,44.8795928 C73.738742,44.5173508 73.9814807,43.9230835 73.8943227,43.3292156 C73.8071647,42.7353478 73.4039602,42.2362514 72.8424073,42.0271289 L72.8425565,42.0271289 Z M37.0008952,8.17501031 L38.6745484,19.3990567 C37.5618845,19.2820601 36.440055,19.2820601 35.3273911,19.3990567 L37.0008952,8.17501031 Z M3.982125,44.7064897 L2.72889919,43.7580103 L21.376004,38.5867423 C21.6840758,40.0609426 22.1998825,41.4837379 22.9079234,42.8123711 L3.982125,44.7064897 Z M37.0008952,49.2082165 C29.3379443,49.2082165 23.1258952,42.9840514 23.1258952,35.3061546 C23.1258952,27.6282579 29.3379443,21.4040928 37.0008952,21.4040928 C44.6638461,21.4040928 50.8758952,27.6282579 50.8758952,35.3061546 C50.8671801,42.9804315 44.6602332,49.1994844 37.0008952,49.2082165 L37.0008952,49.2082165 Z M70.018621,44.7067887 L51.0735766,42.8509381 C51.7861356,41.5227842 52.306227,40.0996967 52.6181774,38.6245619 L71.2697581,43.7602526 L70.018621,44.7067887 Z" id="Shape" fill="#24527a"></path>
                    <path d="M11.3995806,46.5922371 C9.58683957,46.5922371 8.11732258,48.0646203 8.11732258,49.8808969 C8.11732258,51.6971736 9.58683957,53.1695567 11.3995806,53.1695567 C13.2123217,53.1695567 14.6818387,51.6971736 14.6818387,49.8808969 C14.6797832,48.065474 13.2114696,46.5942966 11.3995806,46.5922371 L11.3995806,46.5922371 Z M11.3995806,51.0767732 C10.7404021,51.0767732 10.2060323,50.5413611 10.2060323,49.8808969 C10.2060323,49.2204327 10.7404021,48.6850206 11.3995806,48.6850206 C12.0587592,48.6850206 12.593129,49.2204327 12.593129,49.8808969 C12.592389,50.5410538 12.0584525,51.0760318 11.3995806,51.0767732 Z" id="Shape" fill="#43D92D"></path>
                    <path d="M62.5866935,46.5922371 C60.7739525,46.5922371 59.3044355,48.0646203 59.3044355,49.8808969 C59.3044355,51.6971736 60.7739525,53.1695567 62.5866935,53.1695567 C64.3994346,53.1695567 65.8689516,51.6971736 65.8689516,49.8808969 C65.8668961,48.065474 64.3985825,46.5942966 62.5866935,46.5922371 L62.5866935,46.5922371 Z M62.5866935,51.0767732 C61.927515,51.0767732 61.3931452,50.5413611 61.3931452,49.8808969 C61.3931452,49.2204327 61.927515,48.6850206 62.5866935,48.6850206 C63.2458721,48.6850206 63.7802419,49.2204327 63.7802419,49.8808969 C63.779502,50.5410538 63.2455654,51.0760318 62.5866935,51.0767732 Z" id="Shape" fill="#43D92D"></path>
                </g>
            </g>
        </g>
    </g>
</svg>