<?xml version="1.0" encoding="UTF-8"?>
<svg width="79px" height="70px" viewBox="0 0 79 70" version="1.1" xmlns="http://www.w3.org/2000/svg" xmlns:xlink="http://www.w3.org/1999/xlink">
    <!-- Generator: Sketch 54 (76480) - https://sketchapp.com -->
    <title>Android Application Development</title>
    <desc>Created with Sketch.</desc>
    <g id="Page-1" stroke="none" stroke-width="1" fill="none" fill-rule="evenodd">
        <g id="Mobile-Apps" transform="translate(-438.000000, -1401.000000)" fill-rule="nonzero">
            <g id="Android-Application-Development" transform="translate(438.000000, 1401.000000)">
                <path d="M66.4615577,45.1444647 C66.7257829,45.491085 66.7410139,45.9687691 66.4999665,46.3320217 L66.5416863,46.3872415 C66.8833909,46.834987 67.5224316,46.9201452 67.9681045,46.5768514 C68.4144398,46.2335576 68.4985415,45.591545 68.1568367,45.1437995 L61.9723797,37.0304897 C61.5167734,36.4343826 61.3677744,35.6559838 61.5717374,34.9321395 C61.7750385,34.2089607 62.3074621,33.6241636 63.0067646,33.3560485 C62.0154238,32.9741675 60.8929637,33.3008289 60.2578962,34.1557368 C59.622829,35.0099795 59.6307756,36.1848958 60.2771007,37.0304897 L66.4615577,45.1444647 Z" id="Path" fill="#DAE5F3"/>
                <path d="M56.1216805,62.9704607 L34.7816943,35.6360249 C34.3260881,35.0399179 34.1770888,34.2628498 34.3797277,33.5396707 C34.5830288,32.8158264 35.1141278,32.2316948 35.8127682,31.9629144 C34.8220896,31.5830292 33.700954,31.9096906 33.0672111,32.7639333 C32.433468,33.618176 32.4414146,34.7910965 33.0864153,35.6360249 L54.4264016,62.9704607 C56.9891865,66.3322119 61.0611672,68.1777486 65.2662536,67.8830215 C61.6545149,67.6488366 58.3202454,65.8578544 56.1216805,62.9704607 Z" id="Path" fill="#DAE5F3"/>
                <path d="M61.0783848,49.2866103 C61.3419478,49.6332307 61.3571789,50.1109146 61.1161312,50.4741675 L61.157851,50.5293873 C61.1816909,50.5593256 61.2061929,50.5885987 61.2326816,50.6158759 C61.2412906,50.6245247 61.2498994,50.6325083 61.2585082,50.6411573 C61.2770503,50.6577897 61.2955924,50.6757527 61.3147969,50.6923852 C61.3253924,50.7010341 61.3366501,50.7090176 61.3472455,50.7176665 C61.3657877,50.7323031 61.3843298,50.7456091 61.4035341,50.7582498 C61.4154541,50.7662332 61.4273739,50.7735515 61.4392938,50.7808698 C61.4591604,50.7935105 61.479027,50.8041553 61.4995557,50.8154653 C61.5114757,50.821453 61.5233955,50.8274408 61.5353156,50.8334284 C61.5584932,50.8440732 61.5816708,50.8533873 61.6048484,50.8627015 C61.6154439,50.866028 61.6247149,50.8706851 61.6353104,50.8740116 C61.6690836,50.885987 61.7028568,50.8959664 61.7379543,50.9039499 C61.7425899,50.9052806 61.7478876,50.9052806 61.7525232,50.9066111 C61.782323,50.9132642 61.8127851,50.9185866 61.843247,50.921913 C61.8551671,50.9232437 61.8670869,50.923909 61.8796691,50.9252395 C61.9028468,50.9272354 61.9266865,50.9285661 61.9498642,50.9292313 C61.9558243,50.9292313 61.961122,50.9298966 61.9670819,50.9298966 C61.9730418,50.9298966 61.9776774,50.9285661 61.9829752,50.9285661 C62.0313171,50.9285661 62.079659,50.9245742 62.1273387,50.9172559 L62.1326364,50.9159254 C62.179654,50.9079418 62.2260093,50.8966318 62.2717024,50.8819951 C62.279649,50.8793339 62.2882578,50.8766727 62.2968666,50.8740116 C62.3425598,50.8580444 62.3869283,50.8394161 62.4299724,50.816796 C62.4385814,50.8128041 62.4471902,50.8074818 62.4551368,50.8028246 C62.5001677,50.7788739 62.5438741,50.7509315 62.5849316,50.7196624 C63.0306045,50.3763686 63.1153685,49.7350213 62.7736638,49.2866103 L55.5581327,39.8207498 C55.1031886,39.223312 54.9548517,38.4462439 55.1588151,37.7223996 C55.362116,36.9985554 55.8932152,36.4137583 56.5925178,36.1443127 C56.420341,36.0784481 56.241542,36.0318773 56.0594321,36.0072612 C55.1078242,35.8801894 54.1740964,36.3419061 53.6926636,37.17619 C53.211893,38.0111391 53.2794394,39.0549917 53.8628537,39.8207498 L61.0783848,49.2866103 Z" id="Path" fill="#DAE5F3"/>
                <path d="M55.6945497,53.4287561 C55.7031585,53.4407315 55.7111052,53.4527068 55.7183896,53.4640168 C55.7289851,53.4793187 55.7395806,53.4939554 55.7495137,53.5092571 C55.7587849,53.524559 55.7660693,53.537865 55.7733538,53.5518362 C55.780638,53.5658074 55.7912335,53.5831052 55.7991801,53.5990724 C55.8071268,53.6150395 55.8124245,53.6283455 55.8183844,53.6436474 C55.8250067,53.6582839 55.8329533,53.6749164 55.8389132,53.6915489 C55.8448732,53.7081813 55.8495087,53.7228179 55.8541443,53.7381196 C55.8594421,53.7540868 55.865402,53.7700539 55.8693754,53.7866865 C55.8733486,53.8026537 55.8766597,53.8186208 55.8799709,53.834588 C55.8832819,53.8505551 55.8872551,53.8671875 55.8899042,53.8831547 C55.8925529,53.8997871 55.8938774,53.9164195 55.8958641,53.9323867 C55.8978506,53.9490191 55.9004997,53.9649862 55.9011619,53.9809534 C55.9024862,53.997586 55.9024862,54.0142184 55.9024862,54.0308508 C55.9031484,54.0474834 55.9038107,54.0634505 55.9024862,54.0794177 C55.901824,54.0953848 55.9004997,54.1120172 55.8991752,54.1286496 C55.8978506,54.1446168 55.8971885,54.1612492 55.8952019,54.1772164 C55.8932152,54.1931835 55.8899042,54.2091507 55.8872551,54.2251178 C55.8846064,54.2404197 55.8819574,54.2577174 55.8786463,54.2736845 C55.8746731,54.2903171 55.8700376,54.3049536 55.8660642,54.3202555 C55.8620909,54.3355574 55.8574554,54.352855 55.8521576,54.3688222 C55.8468599,54.3847893 55.8415621,54.3987607 55.8356022,54.4133972 C55.8296423,54.4280337 55.8236822,54.4453315 55.8170601,54.4606334 C55.810438,54.4759351 55.8031535,54.4899065 55.7958691,54.504543 C55.7885847,54.5191796 55.7813002,54.5344814 55.7733538,54.549118 C55.765407,54.5644199 55.756136,54.5777259 55.7475272,54.5916971 L55.7303094,54.6176437 L55.7813002,54.6828429 C55.8031535,54.7107855 55.8263312,54.7380627 55.8514954,54.7633439 C55.8534821,54.7660053 55.8567932,54.768001 55.8594421,54.7713276 C55.8832819,54.7952782 55.9084461,54.8178984 55.9336105,54.839188 C55.9428817,54.8465063 55.9508281,54.8524939 55.9607614,54.8598122 C55.9812902,54.875114 56.001819,54.8904159 56.0236722,54.9050525 C56.0342677,54.9117054 56.0448632,54.9183585 56.0554587,54.9243461 C56.0766497,54.9376521 56.0978407,54.9496273 56.1196938,54.9602721 C56.1302893,54.9662599 56.141547,54.9715823 56.1521425,54.9762393 C56.1759825,54.9875495 56.19916,54.9968636 56.2229999,55.0061778 C56.2329332,55.0095043 56.2428665,55.013496 56.253462,55.0174878 C56.2812751,55.0268021 56.3097505,55.0341202 56.338226,55.0421038 C56.3441859,55.0434345 56.3494836,55.0454303 56.3554436,55.0467609 C56.3918656,55.0547445 56.4282877,55.0613974 56.4647095,55.0653893 L56.4713318,55.0653893 C56.505105,55.0687157 56.5382158,55.0707117 56.5713268,55.0707117 L56.5799356,55.0707117 C56.583909,55.0707117 56.5878822,55.0700464 56.5925178,55.0700464 C56.6395352,55.0693812 56.6865527,55.0653893 56.7335703,55.0587364 L56.7441658,55.0574057 C56.7925077,55.0487569 56.8395252,55.0374469 56.8858806,55.022145 C56.8951516,55.0194838 56.9030982,55.0168226 56.9123693,55.013496 C56.9587245,54.9975288 57.0037554,54.9782352 57.0474617,54.9556152 C57.054084,54.9522887 57.0593817,54.9489621 57.066004,54.9456356 C57.1077236,54.9223502 57.1481189,54.8964035 57.1865276,54.8677958 C57.1898387,54.8651346 57.1944742,54.8631387 57.1977853,54.8604775 C57.2017587,54.8578163 57.2017587,54.857151 57.2037454,54.8551551 C57.2057319,54.8538244 57.2077186,54.8524939 57.2097053,54.8511634 C57.220963,54.8418491 57.2308963,54.8318696 57.242154,54.8225555 C57.2534116,54.812576 57.2699671,54.7992701 57.2825492,54.7872948 C57.2951314,54.7746541 57.3057269,54.7633439 57.3163224,54.7513686 C57.3275801,54.7387279 57.3408245,54.7254219 57.3520823,54.7127814 C57.36334,54.6994753 57.3726109,54.6868347 57.3825443,54.6735288 C57.3931398,54.6608881 57.4037352,54.6469169 57.4136686,54.6329456 C57.4236017,54.6189743 57.4315485,54.6043378 57.4401573,54.5903666 C57.4494283,54.5763952 57.4580372,54.562424 57.466646,54.5477875 C57.4745927,54.5338161 57.4818769,54.517849 57.4891614,54.5032125 C57.4964458,54.4879106 57.5037303,54.4739394 57.5103524,54.4593027 C57.5169746,54.4446663 57.5222724,54.4280337 57.5282323,54.4120665 C57.5341922,54.3960994 57.5401521,54.3827936 57.5454499,54.3674917 C57.5507476,54.3521898 57.554721,54.3348921 57.5593566,54.318925 C57.5633298,54.3022924 57.5679654,54.2883212 57.5712764,54.272354 C57.5745877,54.2570521 57.5772364,54.2397545 57.5805476,54.223122 C57.5831965,54.2071549 57.5858453,54.191853 57.5884942,54.1758858 C57.5904809,54.1599187 57.5911431,54.1432863 57.5924674,54.1273191 C57.5931296,54.1106865 57.5951163,54.0947194 57.5957787,54.078087 C57.5957787,54.0621198 57.5957787,54.0454874 57.5957787,54.0295203 C57.5957787,54.0128877 57.5957787,53.9962553 57.5944541,53.9796229 C57.5931296,53.9636557 57.5911431,53.9470233 57.5891564,53.9310562 C57.5871697,53.915089 57.5858453,53.8984566 57.5831965,53.881824 C57.5805476,53.8658569 57.5765742,53.8498897 57.5732631,53.8332573 C57.5692899,53.8172901 57.5666409,53.801323 57.5626677,53.7853558 C57.5580321,53.7693887 57.5527343,53.7527563 57.5474366,53.7367891 C57.5421388,53.720822 57.5381656,53.7055201 57.5322057,53.6902182 C57.5262456,53.6749164 57.5189612,53.6582839 57.5116769,53.6416515 C57.5050546,53.6256843 57.4990947,53.6123783 57.4924724,53.5977417 C57.4851881,53.5831052 57.4752548,53.5658074 57.466646,53.5505057 C57.4573749,53.5345385 57.4507528,53.5218978 57.442144,53.5079266 C57.433535,53.4939554 57.4222774,53.4779882 57.4116819,53.4626863 C57.4037352,53.4513763 57.3957886,53.4394009 57.3871798,53.4274254 L50.1723109,43.9622301 C49.7160425,43.3654578 49.5677056,42.5877243 49.7710067,41.86388 C49.9749697,41.1400357 50.5067311,40.5559041 51.2060337,40.2877889 C50.215355,39.9059079 49.0922327,40.2325691 48.4578276,41.0874773 C47.8227602,41.9417198 47.8307068,43.115971 48.4770319,43.9622301 L55.6945497,53.4287561 Z" id="Path" fill="#DAE5F3"/>
                <g id="Group" fill="#24527a">
                    <path d="M70.1766027,15.9252395 C68.879317,15.9272354 67.723746,16.7508743 67.2919796,17.9803451 L63.3656871,17.9803451 C61.8088117,17.9876634 60.4645084,19.076091 60.1274393,20.6029501 C59.9963201,21.1924043 59.4778031,21.6128727 58.8765089,21.6155337 L55.8779842,21.6155337 L55.8779842,7.20052088 C55.8733486,3.26461759 52.6986739,0.0751786375 48.7809902,0.0705215085 L24.4616836,0.0705215085 C20.5439998,0.0758438929 17.369325,3.26528285 17.3646896,7.20052088 L17.3646896,21.6161991 L14.3668271,21.6161991 C13.7655328,21.6135379 13.2463537,21.1930695 13.1158967,20.6029501 C12.7781652,19.076091 11.4338619,17.9876634 9.8769867,17.9803451 L5.95069399,17.9803451 C5.45535483,16.5665868 4.01701641,15.7170012 2.5462295,15.9698145 C1.0754426,16.2219625 -2.84217094e-14,17.5033264 -2.84217094e-14,19.0022429 C-2.84217094e-14,20.5011596 1.0754426,21.7825235 2.5462295,22.0346715 C4.01701641,22.2874848 5.45535483,21.4378992 5.95069399,20.0241407 L9.8769867,20.0241407 C10.478281,20.0268021 10.9974601,20.4472705 11.1279171,21.0367245 C11.4656484,22.5635835 12.8099517,23.6526764 14.3668271,23.6599947 L17.3646896,23.6599947 L17.3646896,29.8073487 L17.156753,29.8073487 C16.3283178,29.8086792 15.5806733,29.3077099 15.2634707,28.5392906 C14.6317144,27.0077745 13.1430476,26.0104927 11.4927995,26.0138191 L10.8279322,26.0138191 C10.3325929,24.5993956 8.89425467,23.7504753 7.42346759,24.0026233 C5.95268068,24.2554364 4.87723809,25.5361352 4.87723809,27.035717 C4.87723809,28.5346334 5.95268068,29.8153323 7.42346759,30.0681456 C8.89425467,30.3209588 10.3325929,29.4713731 10.8279322,28.0576148 L11.4927995,28.0576148 C12.3212347,28.0556188 13.068217,28.5565884 13.3854194,29.3250077 C14.017838,30.8565237 15.5065048,31.8538055 17.156753,31.8511444 L17.3646896,31.8511444 L17.3646896,34.1171494 L13.7522885,34.100517 C12.180182,34.0998518 10.7352217,34.9654045 9.98890156,36.3558775 C9.59753047,37.0850442 8.83862833,37.5394426 8.01416653,37.5381121 L6.63410332,37.5381121 C6.11823536,36.1323374 4.66930161,35.3040412 3.20315011,35.5774787 C1.73633659,35.8515815 0.67943594,37.1469169 0.700626927,38.6451681 C0.721817914,40.1434193 1.81514045,41.4081509 3.2885764,41.6396746 C4.76201218,41.8711983 6.18710606,41.0023191 6.66257875,39.5819077 L8.01350418,39.5819077 C9.58494828,39.5832382 11.030571,38.7170203 11.7768911,37.3272125 C12.1669377,36.5993765 12.9231911,36.1449779 13.7463285,36.1443127 L17.3633651,36.1616103 L17.3633651,42.4493423 L17.1123843,42.4493423 C15.0111655,42.4579911 13.1635764,43.8471334 12.562282,45.8696395 C12.2185908,47.0252624 11.1636768,47.8182976 9.963075,47.82362 L8.4883147,47.82362 C7.99297554,46.4091963 6.55463712,45.560276 5.08385021,45.812424 C3.6130633,46.0652372 2.53762071,47.3459359 2.53762071,48.8455178 C2.53762071,50.3444343 3.6130633,51.625133 5.08385021,51.8779463 C6.55463712,52.1307595 7.99297554,51.281174 8.4883147,49.8674156 L9.963075,49.8674156 C12.0649561,49.8581014 13.9125452,48.4689591 14.5138395,46.4457877 C14.8568687,45.2908303 15.9124446,44.497795 17.1123843,44.4924726 L17.3646896,44.4924726 L17.3646896,60.6459094 C17.369325,64.5824779 20.5439998,67.7719169 24.4616836,67.7765738 L48.7809902,67.7765738 C50.9047245,67.7792352 52.9178682,66.823867 54.2641581,65.1732626 C54.4992455,64.8918415 54.5654675,64.5053033 54.4383216,64.160679 C54.3111756,63.8160545 54.0092041,63.5672332 53.648295,63.5080215 C53.287386,63.44881 52.923166,63.589188 52.6933762,63.8746008 C51.7324973,65.0521784 50.2961458,65.7347741 48.7809902,65.7327782 L24.4616836,65.7327782 C21.6671222,65.7287865 19.4029976,63.4541324 19.3990244,60.6465746 L19.3990244,56.7825235 L47.7055476,56.7825235 L47.7055476,54.7387279 L19.3990244,54.7387279 L19.3990244,11.2768021 L44.0693066,11.2768021 C44.6308678,11.2768021 45.086474,10.819077 45.086474,10.2549043 C45.086474,9.69073153 44.6308678,9.23300647 44.0693066,9.23300647 L19.3990244,9.23300647 L19.3990244,7.20052088 C19.4029976,4.39296309 21.6671222,2.118309 24.4616836,2.11431713 L48.7809902,2.11431713 C51.5755516,2.118309 53.8403384,4.39296309 53.8436494,7.20052088 L53.8436494,9.23300647 L51.8205723,9.23300647 C51.2590112,9.23300647 50.8034049,9.69073153 50.8034049,10.2549043 C50.8034049,10.819077 51.2590112,11.2768021 51.8205723,11.2768021 L53.8436494,11.2768021 L53.8436494,35.0831622 C53.8436494,35.647335 54.2992556,36.10506 54.8608168,36.10506 C55.422378,36.10506 55.8779842,35.647335 55.8779842,35.0831622 L55.8779842,31.8511444 L56.0859208,31.8511444 C57.7361688,31.8538055 59.2248356,30.8565237 59.8572542,29.3250077 C60.1744568,28.5565884 60.9214391,28.0556188 61.7498743,28.0576148 L62.4147415,28.0576148 C62.9100808,29.4713731 64.3484191,30.3209588 65.819206,30.0681456 C67.2899929,29.8159976 68.3654355,28.5346334 68.3654355,27.035717 C68.3654355,25.5361352 67.2899929,24.2554364 65.819206,24.0026233 C64.3484191,23.7498098 62.9100808,24.5993956 62.4147415,26.0138191 L61.7498743,26.0138191 C60.0996262,26.0104927 58.6109593,27.0077745 57.9792029,28.5392906 C57.6620003,29.3077099 56.9143558,29.8086792 56.0859208,29.8073487 L55.8779842,29.8073487 L55.8779842,23.6599947 L58.8758467,23.6599947 C60.4327219,23.6526764 61.7770252,22.5635835 62.1147567,21.0367245 C62.2452136,20.4472705 62.7643928,20.0268021 63.3656871,20.0241407 L67.2919796,20.0241407 C67.8098344,21.4991066 69.3481675,22.348027 70.8653098,21.9974148 C72.3824521,21.6461375 73.3956461,20.2064325 73.2194961,18.6522962 C73.0433459,17.09816 71.7341403,15.9245742 70.1766027,15.9252395 L70.1766027,15.9252395 Z M3.06540869,20.0354509 C2.49788761,20.0354509 2.03764581,19.5730687 2.03764581,19.0022429 C2.03764581,18.4320825 2.49788761,17.9690351 3.06607103,17.9697003 C3.63359212,17.9697003 4.09383391,18.4320825 4.09383391,19.0022429 C4.09317156,19.5730687 3.63292994,20.0347855 3.06540869,20.0354509 Z M7.94264678,28.068925 C7.3751257,28.068925 6.9148839,27.6065428 6.9148839,27.035717 C6.9148839,26.4655566 7.3751257,26.0025091 7.94264678,26.0031744 C8.5108302,26.0031744 8.971072,26.4655566 8.971072,27.035717 C8.97040965,27.6058775 8.51016803,28.0682595 7.94264678,28.068925 Z M3.76404909,39.6331356 C3.19586566,39.6331356 2.73562404,39.1707535 2.73562404,38.6005931 C2.73562404,38.0297673 3.19586566,37.5673852 3.76338691,37.5673852 C4.33157017,37.5673852 4.79181196,38.0297673 4.79181196,38.6005931 C4.79048744,39.1700882 4.33090799,39.631805 3.76404909,39.6324704 L3.76404909,39.6331356 Z M5.60236722,49.8787257 C5.03484614,49.8787257 4.57460435,49.4163435 4.57460435,48.8461831 C4.57460435,48.2760227 5.03484614,47.8136405 5.6030294,47.8136405 C6.17055065,47.8136405 6.63079227,48.2760227 6.63079227,48.8461831 C6.62946792,49.4156782 6.1698883,49.877395 5.60236722,49.8780604 L5.60236722,49.8787257 Z M65.2993646,26.0025091 C65.8675479,26.0025091 66.3277897,26.4648913 66.3277897,27.035717 C66.3277897,27.6058775 65.8675479,28.0682595 65.2993646,28.0682595 C64.7318436,28.0682595 64.2716018,27.6058775 64.2716018,27.035717 C64.2722639,26.4655566 64.7318436,26.0031744 65.2993646,26.0025091 Z M70.1766027,20.0354509 C69.6090817,20.0354509 69.1488399,19.5730687 69.1488399,19.0022429 C69.1488399,18.4320825 69.6090817,17.9690351 70.1772649,17.9697003 C70.7447862,17.9697003 71.2050278,18.4320825 71.2050278,19.0022429 C71.2043656,19.5730687 70.7441238,20.0347855 70.1766027,20.0354509 Z" id="Shape"/>
                    <path d="M49.76902,10.2549043 C49.76902,9.69073153 49.3140759,9.23300647 48.7518526,9.23300647 L47.0625335,9.23300647 C46.5009724,9.23300647 46.0453661,9.69073153 46.0453661,10.2549043 C46.0453661,10.819077 46.5009724,11.2768021 47.0625335,11.2768021 L48.7518526,11.2768021 C49.3140759,11.2768021 49.76902,10.819077 49.76902,10.2549043 L49.76902,10.2549043 Z" id="Path"/>
                    <path d="M33.3241516,61.2573183 C33.3241516,63.0868879 34.8002364,64.5698374 36.6213368,64.5698374 C38.4424373,64.5705026 39.918522,63.0868879 39.918522,61.2579836 C39.918522,59.428414 38.4424373,57.9454645 36.6213368,57.9454645 C34.8015608,57.9474605 33.3261383,59.4290793 33.3241516,61.2573183 Z M37.8841872,61.2573183 C37.8848494,61.9585424 37.319315,62.5260418 36.6219991,62.5260418 C35.9240209,62.526707 35.3584864,61.9585424 35.3591487,61.2573183 C35.3591487,60.5567595 35.9240209,59.9885949 36.6219991,59.9892601 C37.3186527,59.9899254 37.8835251,60.5574248 37.8841872,61.2573183 Z" id="Shape"/>
                    <path d="M47.7545517,34.0206813 C47.7538895,28.3410318 44.0673199,23.3253498 38.6649427,21.6534558 C33.2619032,19.9808964 27.4052441,22.0426551 24.223285,26.7376634 C21.0413259,31.4320065 21.2777378,37.6625227 24.8060371,42.1000608 C28.3349987,46.5375989 34.3307235,48.1456243 39.591386,46.0652372 L38.8444038,44.1638155 C33.8459798,46.1464035 28.1561998,44.1618195 25.4556733,39.4947536 C22.7558091,34.8270225 23.8557538,28.8779274 28.0442848,25.4962173 C32.2334781,22.1145073 38.2530428,22.3154274 42.2091353,25.9699096 C46.1645655,29.6237265 46.8685036,35.6333637 43.8653433,40.1101543 L45.550689,41.2551322 C46.9903518,39.1201908 47.7578629,36.5993765 47.7545517,34.0206813 L47.7545517,34.0206813 Z" id="Path"/>
                    <path d="M43.2282894,38.5486999 C45.3646057,34.5595726 44.4090246,29.6097551 40.9416493,26.7137127 C37.4749364,23.8170051 32.4566457,23.7750912 28.9422528,26.6132527 C25.4278602,29.4514142 24.390164,34.3839339 26.4602585,38.408322 C28.5310153,42.4327099 33.1367439,44.4345917 37.474274,43.1951415 L36.9173484,41.2291857 C33.5049373,42.2071738 29.879954,40.6337439 28.2495725,37.4682559 C26.6185287,34.3021024 27.4337195,30.4207535 30.1991433,28.1866827 C32.9639048,25.9526117 36.9127129,25.9852113 39.6403903,28.2645225 C42.3687299,30.5438337 43.1203477,34.4384884 41.437651,37.5773646 L43.2282894,38.5486999 Z" id="Path"/>
                </g>
                <path d="M65.661598,32.8890093 C64.6338351,31.5391196 62.928623,30.8991028 61.2724149,31.2430618 C59.6162067,31.5863556 58.3017033,32.8517526 57.8904658,34.5003611 C56.6150332,33.7878269 55.0720645,33.7558926 53.7681564,34.4138725 C52.4649107,35.0725174 51.5695915,36.3359185 51.3775483,37.7889294 C51.3596683,37.9253155 51.3484107,38.0610363 51.3437751,38.1974225 C49.0763395,37.6744982 46.7949973,39.0157391 46.1394011,41.2584588 L38.4709128,31.4932139 C37.5159938,30.2271517 35.9584563,29.5718331 34.3903232,29.7767449 C32.8221902,29.9809915 31.4831848,31.0141993 30.8818903,32.4831774 C30.2799339,33.9528208 30.5083994,35.6333637 31.4792114,36.8867853 L45.6692261,55.0653893 C43.6276069,55.6455292 41.9733856,57.1510987 41.1979278,59.1356829 C40.9999245,59.6439704 41.2350121,60.2194534 41.7316757,60.4416628 L54.6681112,66.2290906 C60.2737895,71.2707194 68.7779976,71.1982018 74.2982497,66.062766 C79.8185019,60.9266651 80.5423065,52.4141766 75.9683645,46.4118575 L65.661598,32.8890093 Z M47.0804135,56.8730041 L51.5490629,62.5965633 L43.5375452,59.0126026 C44.3315451,57.7931113 45.6361151,57.0053984 47.0804135,56.8730041 Z M72.0208808,65.3229546 C66.513873,69.5482626 58.6414213,68.4950957 54.4264016,62.9704607 L33.0864153,35.6360249 C32.2924155,34.5881805 32.4950544,33.0919252 33.5380482,32.2948982 C34.5810421,31.4972058 36.0703711,31.7001217 36.864371,32.7479661 L54.0880079,54.6828429 C54.1098613,54.7107855 54.133701,54.7373974 54.1582032,54.7626786 C54.160852,54.7660053 54.1635009,54.768001 54.1661498,54.7706622 C54.1899896,54.7946129 54.2151539,54.8172332 54.2409804,54.8385227 C54.2495892,54.845841 54.2575358,54.8524939 54.2674692,54.8591468 C54.287998,54.875114 54.309189,54.8904159 54.3303799,54.9043873 C54.3409754,54.9110401 54.3515709,54.917693 54.3621664,54.9243461 C54.3833574,54.9369868 54.4045484,54.9489621 54.4264016,54.9602721 C54.4376592,54.9655945 54.4482547,54.9709169 54.4595126,54.9762393 C54.4826901,54.986884 54.5058678,54.9968636 54.5297076,55.0055126 C54.5396409,55.0095043 54.5502364,55.013496 54.5601697,55.0168226 C54.5879828,55.0268021 54.6171204,55.0341202 54.6449337,55.0414386 C54.6508936,55.0434345 54.6568535,55.044765 54.6628135,55.0460957 C54.6985733,55.0547445 54.7349954,55.0607322 54.7714173,55.064724 L54.7780395,55.064724 C54.8124749,55.0687157 54.8449236,55.0700464 54.8780346,55.0707117 L54.8866433,55.0707117 C54.8906166,55.0707117 54.89459,55.0693812 54.8992255,55.0693812 C54.9462429,55.0693812 54.9932605,55.0653893 55.040278,55.058071 L55.0508735,55.0567405 C55.0992154,55.0487569 55.1468951,55.0367814 55.1932503,55.022145 C55.2018593,55.0188183 55.2098059,55.0161573 55.2190769,55.013496 C55.2654322,54.9975288 55.3111253,54.9782352 55.3548318,54.9549497 C55.3607917,54.9522887 55.3667516,54.9482968 55.3727115,54.9449704 C55.4144313,54.9216849 55.4548266,54.8957382 55.4932354,54.8671306 C55.4972086,54.8644692 55.501182,54.8624734 55.5051552,54.8598122 C55.5084664,54.857151 55.5084664,54.8564858 55.5104529,54.8551551 C55.5124396,54.8531592 55.5144263,54.8524939 55.5164129,54.8511634 C55.5276707,54.8418491 55.5382662,54.8312044 55.5495239,54.8218901 C55.5607815,54.812576 55.5766748,54.7986048 55.589257,54.7866294 C55.6025013,54.7746541 55.6124347,54.7626786 55.6236923,54.7507034 C55.6342878,54.7387279 55.6475322,54.7254219 55.659452,54.712116 C55.6707099,54.69881 55.6793187,54.6861695 55.6899142,54.6735288 C55.6998475,54.6602228 55.7111052,54.6462514 55.7203763,54.6322802 C55.7303094,54.618309 55.7382561,54.6043378 55.7475272,54.5903666 C55.756136,54.5757299 55.765407,54.562424 55.7733538,54.5477875 C55.7813002,54.5331509 55.7885847,54.517849 55.7958691,54.5025471 C55.8031535,54.4879106 55.810438,54.4739394 55.8170601,54.4593027 C55.8236822,54.4440008 55.8296423,54.4273684 55.8356022,54.4114013 C55.8415621,54.3960994 55.8468599,54.3821282 55.8521576,54.3668264 C55.8574554,54.3515245 55.8614288,54.3348921 55.8660642,54.3182595 C55.8706997,54.3016271 55.8746731,54.2876559 55.8786463,54.272354 C55.8819574,54.2570521 55.8846064,54.2397545 55.8872551,54.223122 C55.8899042,54.2064895 55.8932152,54.191853 55.8952019,54.1758858 C55.8971885,54.1592534 55.8978506,54.1432863 55.8991752,54.1266537 C55.9004997,54.1100213 55.9024862,54.0940541 55.9024862,54.078087 C55.9031484,54.0614546 55.9024862,54.0454874 55.9024862,54.0288548 C55.9024862,54.0128877 55.9024862,53.9962553 55.9011619,53.9796229 C55.9004997,53.9629905 55.8978506,53.9470233 55.8958641,53.9310562 C55.8945396,53.9144237 55.8925529,53.8984566 55.8899042,53.881824 C55.8872551,53.8651916 55.8832819,53.8492245 55.8799709,53.8332573 C55.8766597,53.8166249 55.8733486,53.8006577 55.8693754,53.7846906 C55.865402,53.7687234 55.8594421,53.7527563 55.8541443,53.7367891 C55.8488466,53.7201565 55.8448732,53.7048548 55.8389132,53.6895529 C55.8329533,53.674251 55.8256689,53.6576186 55.8183844,53.6416515 C55.8117623,53.6256843 55.8064646,53.6117131 55.7991801,53.5970764 C55.7918957,53.58244 55.7819626,53.5658074 55.7733538,53.5498402 C55.7647448,53.5345385 55.7581227,53.5212326 55.7495137,53.5072612 C55.7409049,53.4939554 55.7289851,53.4773228 55.7183896,53.4626863 C55.710443,53.4507109 55.7031585,53.4387356 55.6945497,53.4274254 L48.4790186,43.9615649 C47.6942899,42.9157162 47.8962665,41.4294404 48.9313136,40.6330787 C49.9663609,39.8367169 51.4470812,40.0283228 52.2477031,41.0621959 L59.462572,50.5280566 C59.4864119,50.5579949 59.5109139,50.5866028 59.5374027,50.6145454 C59.5460116,50.6231942 59.5546204,50.6311778 59.5632292,50.6398266 C59.5817713,50.6564591 59.6003135,50.6744221 59.6195179,50.6910545 C59.6301134,50.6997036 59.6413711,50.707687 59.6519666,50.716336 C59.6705087,50.7309724 59.6890508,50.7442784 59.7082551,50.7569191 C59.7201751,50.7649027 59.732095,50.772221 59.7440148,50.7795393 C59.7638814,50.7921799 59.7837481,50.8028246 59.8042767,50.8141346 C59.8161967,50.8201225 59.8281166,50.8261101 59.8400366,50.8320977 C59.8632143,50.8427425 59.8863918,50.8520568 59.9095695,50.8613709 C59.920165,50.8646975 59.9294359,50.8693544 59.9400314,50.8726809 C59.9738046,50.8846563 60.0075778,50.8946358 60.0426753,50.9026194 C60.0473109,50.9039499 60.0526086,50.9039499 60.0572442,50.9052806 C60.087044,50.9119335 60.1175061,50.9165906 60.1479681,50.9205823 C60.1598881,50.921913 60.1718079,50.9225783 60.1843901,50.923909 C60.2075678,50.9259047 60.2314075,50.9272354 60.2545852,50.9279007 C60.2605453,50.9279007 60.265843,50.9285661 60.271803,50.9285661 C60.2777629,50.9285661 60.2823984,50.9272354 60.2876962,50.9272354 C60.3360381,50.9272354 60.38438,50.9232437 60.4320597,50.9159254 L60.4373575,50.9145947 C60.484375,50.9066111 60.5307304,50.8953011 60.5764234,50.8806646 C60.58437,50.8780033 60.5929788,50.8753422 60.6015876,50.8726809 C60.6472808,50.8567137 60.6916493,50.8374201 60.7346935,50.8154653 C60.7433024,50.8114736 60.7519112,50.8061512 60.7598578,50.8014941 C60.8048887,50.7775434 60.8485952,50.7496008 60.8896526,50.7183317 C61.3353255,50.3750381 61.4200895,49.7336906 61.0783848,49.2852798 L53.8628537,39.8207498 C53.3436745,39.144807 53.223813,38.2413321 53.5489623,37.4522887 C53.8741114,36.6632451 54.5946049,36.1090519 55.437609,35.9992778 C56.2806129,35.8895035 57.1169947,36.2414461 57.6315384,36.9213808 L64.8464073,46.3865762 C65.188112,46.8343218 65.8271526,46.9194799 66.2728255,46.5761861 C66.7191608,46.2328923 66.8032626,45.591545 66.4615577,45.1431342 L60.2771007,37.0298244 C59.7579215,36.3538816 59.6380599,35.4504067 59.9632091,34.6613633 C60.2883584,33.8723198 61.0088519,33.3181265 61.8518558,33.2083524 C62.6948598,33.0992435 63.5319038,33.4505209 64.0457852,34.1304554 L74.3532139,47.6526383 C78.5583003,53.1812652 77.5146442,61.0863366 72.0208808,65.3229546 L72.0208808,65.3229546 Z" id="Shape" fill="#43D92D"/>
            </g>
        </g>
    </g>
</svg>