<?xml version="1.0" encoding="UTF-8"?>
<svg width="84px" height="71px" viewBox="0 0 84 71" version="1.1" xmlns="http://www.w3.org/2000/svg" xmlns:xlink="http://www.w3.org/1999/xlink">
    <!-- Generator: Sketch 54 (76480) - https://sketchapp.com -->
    <title>Boost Revenue</title>
    <desc>Created with Sketch.</desc>
    <g id="Page-1" stroke="none" stroke-width="1" fill="none" fill-rule="evenodd">
        <g id="Mobile-Apps" transform="translate(-808.000000, -2531.000000)" fill-rule="nonzero">
            <g id="Group-4" transform="translate(780.000000, 2480.000000)">
                <g id="Boost-Revenue" transform="translate(28.000000, 51.000000)">
                    <path d="M33.6653902,47.4406298 C30.5628537,45.3259904 27.9800244,40.3706683 27.9800244,36.6199567 L27.9800244,20.7321707 L24.9268293,22.2320457 L24.9268293,38.6011298 C24.9268293,42.2741851 27.4563902,47.126762 30.494561,49.1973678 L41.9848049,57.0566923 L44.8570244,55.0958293 L33.6653902,47.4406298 Z" id="Path" fill="#D4E1F4"/>
                    <path d="M74.6522683,25.5279135 C74.4629383,25.239278 74.1408951,25.0654048 73.795622,25.0654048 C73.4503488,25.0654048 73.1283056,25.239278 72.9389756,25.5279135 L63.7589024,39.5202043 C63.5524573,39.8397071 63.5354022,40.2459491 63.7143415,40.5816202 C63.891676,40.9158875 64.2371751,41.1269497 64.6156341,41.1322115 L72.4465854,41.1322115 C71.3741742,48.9410796 67.4658838,56.0827993 61.4661463,61.1970505 C55.8007561,66.0530409 48.6838049,68.8324519 41.9402439,68.8324519 C37.5421951,68.8324519 32.9437073,67.6438846 28.6419512,65.4019231 C24.1746782,63.069431 20.3001325,59.7466134 17.3145854,55.6875529 C17.1028811,55.3809082 16.7412751,55.2134048 16.370383,55.2501788 C15.9994908,55.2869528 15.677845,55.5222006 15.5305222,55.8644429 C15.3831994,56.2066851 15.4334494,56.6019106 15.6617317,56.8964303 C18.8332266,61.208087 22.9491646,64.7375329 27.6947317,67.2148125 C32.2874146,69.6088438 37.2137073,70.8740433 41.9402439,70.8740433 C49.1657805,70.8740433 56.7686341,67.9224231 62.799561,62.7529063 C69.235813,57.2351887 73.4070322,49.5357978 74.5127805,41.1322115 L82.9756098,41.1322115 C83.3535871,41.1255712 83.6982854,40.9147022 83.8762103,40.5812696 C84.0541353,40.2478369 84.0373448,39.8442043 83.8323415,39.5266899 L74.6522683,25.5279135 Z M66.5124634,39.0841346 L73.7955366,27.9832163 L81.0787805,39.0841346 L66.5124634,39.0841346 Z" id="Shape" fill="#24527a"/>
                    <path d="M10.2044634,45.9346106 C10.5497092,45.9345784 10.8717146,45.7607026 11.0610244,45.4720865 L20.2409268,31.4797957 C20.4474261,31.1603244 20.4645466,30.7540815 20.2856585,30.4183798 C20.1082961,30.0841387 19.7628143,29.873087 19.3843659,29.8677885 L11.5532439,29.8677885 C12.6257751,22.0588819 16.5341852,14.9171655 22.5340244,9.80294952 C28.1992439,4.94695913 35.3161951,2.16840144 42.0597561,2.16840144 C46.4578049,2.16840144 51.0562927,3.35696875 55.3580488,5.59893029 C59.8253218,7.93142233 63.6998675,11.25424 66.6854146,15.3133005 C66.8975314,15.6188989 67.2587336,15.785489 67.6289733,15.7484792 C67.9992129,15.7114694 68.320265,15.47668 68.4676488,15.1351453 C68.6150325,14.7936107 68.5655699,14.3990414 68.338439,14.1044231 C65.1668821,9.79275876 61.0508871,6.26331411 56.3052683,3.78604087 C51.7125854,1.39200962 46.7862927,0.126810096 42.0597561,0.126810096 C34.8342195,0.126810096 27.2313659,3.07843029 21.200439,8.24794712 C14.7643705,13.7654532 10.5931688,21.464508 9.48721951,29.8677885 L1.02439024,29.8677885 C0.646193748,29.8739355 0.301116237,30.0847446 0.123119733,30.4183779 C-0.0548767707,30.7520112 -0.0377584306,31.1559225 0.167829268,31.4733101 L9.34773171,45.4685024 C9.53667604,45.7580649 9.85862806,45.9332241 10.2044634,45.9346106 Z M17.4873659,31.9158654 L10.2044634,43.0167837 L2.92121951,31.9158654 L17.4873659,31.9158654 Z" id="Shape" fill="#24527a"/>
                    <path d="M29.3477561,50.8895913 L41.4376098,59.1423173 C41.605039,59.2582281 41.803853,59.3203287 42.0075122,59.3203293 C42.2122826,59.3203225 42.4122396,59.2582553 42.581,59.1423173 L54.6537805,50.8895913 C58.298561,48.4054447 61.1219512,43.007738 61.1219512,38.6011298 L61.1219512,21.6191587 C61.1340142,21.2336175 60.9225781,20.8756954 60.5790244,20.7000841 L42.4367317,11.7846346 C42.154789,11.6451205 41.8238696,11.6451205 41.5419268,11.7846346 L23.4182439,20.6736298 C23.0750731,20.8496402 22.8645696,21.2080515 22.8780488,21.593387 L22.8780488,38.6011298 C22.8780488,43.007738 25.7033171,48.4054447 29.3477561,50.8895913 Z M24.9268293,22.2320457 L42,13.8443173 L59.0731707,22.2566226 L59.0731707,38.6011298 C59.0731707,42.3375048 56.5885122,47.0909207 53.4977561,49.1975385 L41.9851463,57.0560096 L30.4949024,49.1966851 C27.4563902,47.126762 24.9268293,42.2741851 24.9268293,38.6011298 L24.9268293,22.2320457 Z" id="Shape" fill="#43D92D"/>
                    <path d="M42.030561,42.9109663 C42.0203171,42.9109663 42.0102439,42.9094303 42,42.9094303 C41.9897561,42.9094303 41.9796829,42.910625 41.969439,42.9109663 C40.1910886,42.8926445 38.7584346,41.4475465 38.7560976,39.6697139 C38.7560976,39.1041531 38.2974624,38.6456755 37.7317073,38.6456755 C37.1659522,38.6456755 36.7073171,39.1041531 36.7073171,39.6697139 C36.7107408,42.1956865 38.497184,44.3681127 40.9756098,44.8602236 L40.9756098,46.4751322 C40.9756098,47.040693 41.4342449,47.4991707 42,47.4991707 C42.5657551,47.4991707 43.0243902,47.040693 43.0243902,46.4751322 L43.0243902,44.8602236 C45.6958768,44.3325399 47.5308275,41.8645447 47.2660355,39.1552417 C47.0012436,36.4459387 44.7231381,34.3796542 42,34.3788486 C40.2084422,34.3788486 38.7560976,32.9270027 38.7560976,31.1360601 C38.7560976,29.3451175 40.2084422,27.8932716 42,27.8932716 C43.7915578,27.8932716 45.2439024,29.3451175 45.2439024,31.1360601 C45.2439024,31.7016209 45.7025376,32.1600986 46.2682927,32.1600986 C46.8340478,32.1600986 47.2926829,31.7016209 47.2926829,31.1360601 C47.2891925,28.6101115 45.5027796,26.4377221 43.0243902,25.9455505 L43.0243902,24.5257212 C43.0243902,23.9601603 42.5657551,23.5016827 42,23.5016827 C41.4342449,23.5016827 40.9756098,23.9601603 40.9756098,24.5257212 L40.9756098,25.9464038 C38.3041232,26.4740875 36.4691725,28.9420827 36.7339645,31.6513857 C36.9987564,34.3606887 39.2768619,36.4269732 42,36.4277788 C43.7644571,36.4569505 45.1819096,37.8907724 45.1902242,39.6548452 C45.1985387,41.418918 43.7946647,42.8660285 42.030561,42.9118197 L42.030561,42.9109663 Z" id="Path" fill="#43D92D"/>
                </g>
            </g>
        </g>
    </g>
</svg>