<?xml version="1.0" encoding="UTF-8"?>
<svg width="50px" height="46px" viewBox="0 0 50 46" version="1.1" xmlns="http://www.w3.org/2000/svg" xmlns:xlink="http://www.w3.org/1999/xlink">
    <!-- Generator: Sketch 54 (76480) - https://sketchapp.com -->
    <title>Brainstorming</title>
    <desc>Created with Sketch.</desc>
    <g id="Page-1" stroke="none" stroke-width="1" fill="none" fill-rule="evenodd">
        <g id="About-Us" transform="translate(-1244.000000, -1475.000000)" fill="#F6FAFE" fill-rule="nonzero">
            <g id="Group-14" transform="translate(1227.000000, 1456.000000)">
                <g id="Group-4" transform="translate(0.500000, 0.000000)">
                    <g id="Brainstorming" transform="translate(17.000000, 19.000000)">
                        <path d="M20.1423048,36.4612949 C20.815915,35.7080951 21.1882449,34.7297965 21.1874683,33.715482 C21.1874683,33.3380991 20.8842467,33.0323564 20.5103638,33.0323564 C20.1360928,33.0323564 19.8328712,33.3380991 19.8328712,33.715482 C19.8386948,34.8859953 19.106071,35.9308449 18.0092704,36.3148829 C17.9688926,36.3646004 17.9277383,36.4135349 17.885031,36.4612949 C18.6681272,36.9850899 19.663595,37.0641681 20.518517,36.6703431 C20.3876775,36.6108388 20.2618851,36.5407645 20.1423048,36.4612949 Z" id="Path"></path>
                        <g id="Group" transform="translate(7.951318, 7.816993)">
                            <path d="M0.0566841542,20.0239992 C0.0613432292,22.1144812 1.34256144,23.9861282 3.27953064,24.73189 L3.27953064,25.9192368 C3.27525989,26.9609546 3.68214376,27.9615672 4.41049696,28.7002825 C5.13885015,29.4393893 6.12849421,29.8559198 7.16162213,29.8578772 C7.81814938,29.8586601 8.46380578,29.6895425 9.03685979,29.3665748 C10.2019919,30.3597495 11.831857,30.5832823 13.2179022,29.9400871 C14.6039475,29.2965005 15.4953648,27.9024544 15.5046828,26.3639535 L15.5046828,3.45007827 C15.4883763,2.1938317 14.7868123,1.04915577 13.6799173,0.47290305 C12.5730223,-0.103349673 11.2413317,-0.0176163965 10.2159689,0.69604434 C9.19099421,1.40970518 8.63968209,2.63502522 8.78178089,3.88305081 C7.06494831,3.45712489 5.25260678,3.97465616 4.01215459,5.24499597 C2.77170229,6.51572712 2.28716883,8.35135823 2.7363717,10.0754187 C1.61705278,10.6031284 0.82968589,11.6565904 0.635561905,12.8869996 C0.441437919,14.1178003 0.865404704,15.3654343 1.76730477,16.2172862 C0.676328016,17.1760111 0.052413501,18.564968 0.0566841542,20.0239992 L0.0566841542,20.0239992 Z M2.22194317,14.9152369 C1.44156469,13.7282816 1.7610928,12.128319 2.93670766,11.3387119 C3.01474547,11.287037 3.09511283,11.2400599 3.17819785,11.1969975 C3.19955151,11.2365367 3.21896396,11.2772502 3.24109407,11.3156148 C3.40609943,11.6029582 3.77105252,11.7012186 4.05602658,11.5348413 C4.34100055,11.3684641 4.43845081,11.000868 4.27344545,10.7131332 C3.36960417,9.1350933 3.68757918,7.13425926 5.0347997,5.91990055 C6.38202021,4.70515049 8.38965039,4.61002179 9.84402734,5.6916701 C10.1092007,5.88897402 10.482307,5.83260147 10.677984,5.56522331 C10.873661,5.29823671 10.8177533,4.92163671 10.5529681,4.72433279 C10.4380467,4.63899096 10.3207959,4.55912995 10.2004389,4.48474946 C10.029998,4.16687092 9.94070106,3.81141068 9.94070106,3.45007827 C9.95467799,2.24276618 10.9291805,1.27151416 12.1265371,1.27151416 C13.3235056,1.27151416 14.2980081,2.24276618 14.311985,3.45007827 L14.311985,26.3639535 C14.3022788,27.3884463 13.731166,28.3232912 12.8281012,28.7926709 C11.9250365,29.2624421 10.8383304,29.1892361 10.0051502,28.602805 C10.6791487,27.8746596 11.0526433,26.9151518 11.0499255,25.9192368 C11.0499255,25.5860907 10.7820344,25.3155808 10.4512472,25.3155808 C10.1208481,25.3155808 9.85256875,25.5860907 9.85256875,25.9192368 C9.85839249,26.8924462 9.34706994,27.7940156 8.51233675,28.2821861 C7.67760366,28.7703568 6.64758172,28.7703568 5.81246041,28.2821861 C4.97772722,27.7940156 4.46640467,26.8924462 4.47222841,25.9192368 L4.47222841,25.0348925 C4.66907006,25.0611213 4.8674648,25.0744315 5.06585953,25.074823 C5.22271171,25.0744315 5.3729637,25.0102295 5.48283781,24.8974844 C5.59271201,24.7843478 5.65289047,24.6316721 5.65017271,24.4735158 C5.64745495,24.1403697 5.37839913,23.8718172 5.04800008,23.8722086 C3.67243759,23.8917825 2.39277227,23.1632455 1.6985849,21.9653288 C1.00478575,20.7674121 1.0040092,19.2856754 1.69664359,18.0869757 C2.38888974,16.8882761 3.66777861,16.1581734 5.0433412,16.1761812 C5.3729637,16.1757898 5.63969009,15.9064542 5.63930176,15.5744826 C5.63891354,15.2421194 5.37179894,14.9731754 5.04256466,14.9735668 C4.25519777,14.9731754 3.47909005,15.1606924 2.77791426,15.5212418 C2.56127184,15.3509497 2.37335983,15.1462077 2.22194317,14.9152369 Z" id="Shape"></path>
                            <path d="M11.5061169,15.468784 C11.5857077,14.7457278 11.3764421,14.0203228 10.9249097,13.4526825 C10.71875,13.1939168 10.3437024,13.1524203 10.0866823,13.3599027 C9.82966219,13.5677764 9.78850786,13.9463337 9.99466756,14.2054909 C10.335161,14.6345486 10.424458,15.2139332 10.2283928,15.7271583 C10.2050979,15.7381195 10.181803,15.7482979 10.1588965,15.7600422 C9.12227434,16.286186 8.52864322,17.4152029 8.67850688,18.5755378 C8.72160243,18.9047692 9.02132987,19.1369145 9.34784639,19.0934606 C9.67436301,19.0500069 9.90420581,18.7481788 9.86149848,18.4185559 C9.78307244,17.8062874 10.0723172,17.2049802 10.5983931,16.8886676 C11.1244691,16.572355 11.786432,16.6009328 12.2837776,16.9614822 C12.5512804,17.1556543 12.9239985,17.094584 13.1165695,16.8252485 C13.3087522,16.5555215 13.2485738,16.1797045 12.981071,15.9855324 C12.5497274,15.6727431 12.0372401,15.493447 11.5061169,15.468784 L11.5061169,15.468784 Z" id="Path"></path>
                            <path d="M5.18505169,13.9103179 C5.42110645,14.1397229 5.79615394,14.1338508 6.0252203,13.8977907 C6.25428655,13.6613392 6.25118057,13.2831734 6.01862011,13.0506365 C5.87923906,12.9132284 5.7802358,12.7398046 5.73209305,12.5495472 C6.03958545,12.0296671 6.12888243,11.4080031 5.98095998,10.8215721 C5.93009947,10.6113494 5.77091785,10.4449721 5.56436993,10.3858592 C5.35782201,10.3271378 5.13574417,10.3846848 4.98277442,10.5365775 C4.83019299,10.6884702 4.77001463,10.9116115 4.82592234,11.1206597 C4.95054991,11.613528 4.71565981,12.1271446 4.26296273,12.3518519 C4.07039173,12.4450232 3.94188163,12.6352805 3.92635171,12.8502008 C3.91121002,13.0655127 4.01098982,13.272212 4.18841912,13.3923951 C4.36584842,13.5129698 4.59375,13.5282373 4.78515623,13.4327172 C4.79292118,13.4291939 4.80029792,13.4244962 4.80767466,13.4205814 C4.91094857,13.6002689 5.03751746,13.7650803 5.18505169,13.9103179 Z" id="Path"></path>
                            <path d="M8.49991282,7.94030844 C8.85438329,7.84909445 9.23059555,7.94813796 9.49576884,8.20220588 C9.76094223,8.4562738 9.87819317,8.83013344 9.80636722,9.1918573 C9.78501365,9.29912168 9.74735353,9.40247136 9.69494012,9.49838306 C9.59088967,9.68668301 9.5947721,9.91687092 9.70503452,10.1016476 C9.81529695,10.2864243 10.0152447,10.397212 10.228781,10.3925143 C10.4427057,10.3878166 10.6376062,10.2684164 10.7397154,10.0789419 C10.9291805,9.73170278 11.0254659,9.34100964 11.019254,8.9448359 C11.5678483,8.90529684 12.0830533,8.66493061 12.4674189,8.26836531 C12.6976499,8.03113088 12.6933792,7.65022472 12.4581009,7.41807936 C12.2224344,7.1859341 11.8450573,7.19024036 11.6148263,7.42747478 C11.3628534,7.68624042 10.9986768,7.79937707 10.6465359,7.72812838 C10.1173539,6.91738159 9.13586304,6.53451797 8.20329137,6.77527576 C7.99557868,6.82734205 7.83134986,6.98784717 7.77350094,7.19572097 C7.71526369,7.40320332 7.77194785,7.62673606 7.92219984,7.78058622 C8.07245183,7.93443627 8.29258845,7.99511508 8.49991282,7.93991689 L8.49991282,7.94030844 Z" id="Path"></path>
                            <path d="M6.27525199,21.8255719 C6.50975376,22.061632 6.68213586,22.3528901 6.77648015,22.672726 C6.7807508,22.6922999 6.78618632,22.7114822 6.79278651,22.7306645 C6.95740365,23.3566347 6.81297541,24.0241013 6.40492676,24.5244077 C6.19876716,24.7808245 6.23603897,25.1574245 6.48878832,25.3672556 C6.74153778,25.5774782 7.11503238,25.5426369 7.32546273,25.2893519 C7.74904129,24.7706461 8.00062598,24.1309742 8.04449797,23.4603758 C8.91339698,23.653765 9.82345023,23.4713371 10.5529681,22.9569376 C10.728068,22.8340142 10.8247417,22.6261404 10.806494,22.4116115 C10.7878581,22.1970826 10.6574068,22.0087827 10.4636711,21.9183517 C10.2703236,21.8275293 10.0431985,21.847886 9.86887522,21.971984 C9.27485577,22.3896888 8.50263058,22.4495846 7.85270342,22.1277914 C7.69313358,21.6948188 7.44271357,21.3013855 7.11813836,20.9752859 C6.88518958,20.7404003 6.50781245,20.7407918 6.27486367,20.9756774 C6.04230321,21.210563 6.04230321,21.5914692 6.27564021,21.8259633 L6.27525199,21.8255719 Z" id="Path"></path>
                            <path d="M30.4332055,6.64491427 L28.3743265,6.79758987 C27.6296669,5.83573328 26.748344,4.98936204 25.7594764,4.28587963 L25.8200431,2.21262255 C25.8274198,1.95738017 25.6744501,1.72562636 25.4387835,1.63362947 L21.4460415,0.0802525621 C21.2111514,-0.010961329 20.9448133,0.056372549 20.7801962,0.248587307 L19.4461762,1.80783628 C18.4844859,1.70566106 17.5146425,1.70487816 16.552564,1.80509602 C16.2454599,1.8356311 16.0090168,2.09243938 16.0016402,2.4032714 L16.0016402,27.9372958 C16.0090168,28.2426471 16.2369184,28.4963235 16.5374224,28.5335138 C17.6978955,28.7045888 18.8777811,28.6861894 20.0324306,28.4790986 L21.4623479,29.9780603 C21.6366712,30.1600966 21.9045623,30.2137289 22.1347934,30.1127281 L26.0576509,28.382404 C26.2894349,28.2802288 26.4319219,28.0418199 26.4136742,27.7873604 L26.2622576,25.7113631 C27.2161828,24.960512 28.055575,24.0718613 28.7532566,23.0747719 L30.8094178,23.1358422 C31.0621673,23.1417143 31.2912335,22.9882557 31.3836365,22.7510212 L32.9242044,18.7254732 C33.0146663,18.4886302 32.9478876,18.2200777 32.7572579,18.0540918 L31.2116427,16.7085886 C31.3393763,15.4973618 31.3079282,14.2747821 31.1184632,13.0721678 L32.6062294,11.6334933 C32.7863765,11.458895 32.8399547,11.1891681 32.7397867,10.9581972 L31.0237307,7.00350621 C30.9220097,6.76979505 30.6855667,6.62612342 30.4332055,6.64491427 L30.4332055,6.64491427 Z M17.1943379,8.48641753 C17.4925124,8.46136307 17.6850834,8.44726983 17.9230794,8.44726983 C21.6160941,8.44844428 24.6087094,11.467899 24.6075447,15.1916191 C24.6063799,18.9149476 21.6118233,21.9328363 17.9188086,21.9316619 C17.6804244,21.9316619 17.4925124,21.9175688 17.1943379,21.8921228 L17.1943379,8.48641753 Z M30.0643699,12.4250579 C29.9199417,12.5648148 29.854716,12.7687738 29.8908231,12.9672522 C30.1249366,14.2575572 30.1591024,15.5768315 29.9909911,16.8780977 C29.9649784,17.0785334 30.0406868,17.2785777 30.1924918,17.4105051 L31.6604574,18.6878915 L30.4227228,21.9214835 L28.4632353,21.8631536 C28.2578521,21.8576729 28.0637282,21.9586737 27.9495832,22.1309232 C27.2313245,23.2180521 26.3313657,24.1709048 25.2893081,24.9468103 C25.124691,25.0697338 25.0342292,25.2689951 25.0493709,25.47452 L25.1934108,27.451474 L22.0388961,28.8427798 L20.681193,27.4154582 C20.5689893,27.2972324 20.4133018,27.2306815 20.2510142,27.2306815 C20.2094716,27.2306815 20.1683174,27.2338133 20.1275513,27.2404684 C19.0074559,27.4471678 18.1882528,27.4953193 17.1943379,27.4009735 L17.1943379,23.1021752 C17.4925124,23.123315 17.6854716,23.1346678 17.9230794,23.1346678 C22.2745626,23.1334933 25.8014072,19.5753676 25.8002424,15.1877042 C25.7990777,10.8000408 22.2706801,7.24387255 17.9188086,7.245047 C17.6812008,7.245047 17.4925124,7.25561688 17.1943379,7.27714799 L17.1943379,2.95642702 C17.99607,2.90749254 18.800908,2.93489581 19.5975928,3.03824548 C19.7990936,3.0644744 20.000206,2.98813655 20.1341516,2.83467794 L21.4048872,1.35450708 L24.6137566,2.60253268 L24.5570725,4.57831225 C24.5512487,4.7857945 24.651805,4.98153252 24.8230223,5.09623497 C25.9011869,5.82046569 26.8465707,6.72790708 27.6164665,7.77862886 C27.7379881,7.94422315 27.9356063,8.03582859 28.1394365,8.020561 L30.1000887,7.87532337 L31.4803103,11.0560661 L30.0643699,12.4250579 Z" id="Shape"></path>
                        </g>
                        <path d="M45.4929561,20.2091674 C45.3826937,20.0396583 45.1955581,19.9378744 44.9944457,19.9378744 C44.7933332,19.9378744 44.6058094,20.0396583 44.4959353,20.2091674 L41.1861213,25.2971814 C41.0657645,25.4760859 41.05567,25.7074483 41.1597205,25.8961398 C41.2661004,26.0863971 41.4683776,26.2018825 41.6846318,26.1952273 L44.2408564,26.1952273 C43.634413,31.4672351 41.072753,36.313317 37.0703046,39.760655 C33.3978671,42.9355256 28.7839281,44.7648931 24.4110912,44.7648931 C21.5586334,44.7648931 18.5768889,43.9940768 15.7881037,42.5279991 C12.8929386,41.0043743 10.3817508,38.8328568 8.44672287,36.1802151 C8.25143412,35.9124455 7.87793962,35.8545071 7.612378,36.0514196 C7.34681639,36.2479405 7.28935569,36.6245405 7.48425612,36.8923101 C9.52760522,39.6944955 12.1793388,41.9881536 15.2367916,43.5982945 C18.1952412,45.1536289 21.3676154,45.9757284 24.4110912,45.9757284 C29.0646314,45.9757284 33.961603,44.0492749 37.8464123,40.6904105 C42.1008336,37.0160165 44.8146869,31.8512731 45.4401544,26.2382898 C45.4409308,26.2292858 45.4409308,26.1952273 45.4417074,26.1952273 L48.3038714,26.1952273 C48.5209021,26.203057 48.7235674,26.0875715 48.8287827,25.8961398 C48.9339979,25.7050995 48.9239034,25.4702138 48.80277,25.2889604 L45.4929561,20.2091674 Z M42.7891972,24.992613 L44.9940574,21.6020391 L47.1996942,24.992613 L42.7891972,24.992613 Z" id="Shape"></path>
                        <path d="M7.73972334,19.5013787 C7.63644933,19.3056407 7.43533693,19.1823257 7.21558853,19.1799768 L4.73196628,19.1799768 C5.46847266,14.1299361 7.98897849,9.51795681 11.8295274,6.19275942 C15.501965,3.01788873 20.1159039,1.19987402 24.4887408,1.19987402 C27.3411987,1.19987402 30.3229431,1.97656247 33.11134,3.4426402 C36.0068934,4.96743938 38.5180812,7.13973997 40.4531091,9.79316449 C40.576572,9.97206901 40.7870025,10.0695465 41.0020918,10.0480154 C41.2175694,10.0260928 41.4043167,9.88829319 41.4901195,9.68785746 C41.5759223,9.48742173 41.5471919,9.25605937 41.4151876,9.08302691 C39.3718385,6.28123295 36.7201049,3.98757484 33.6626521,2.37782539 C30.7045908,0.822491124 27.5322166,0.000391476035 24.4891291,0.000391476035 C19.8355888,0.000391476035 14.9386172,1.92097293 11.0534198,5.27983731 C6.93954419,8.82621863 4.26063329,13.7729099 3.52606803,19.1799768 L0.595960661,19.1799768 C0.37621226,19.1827172 0.17509986,19.3056407 0.0714376268,19.5013787 C-0.0322246065,19.6967252 -0.0225183327,19.9339597 0.0974502657,20.1199108 L3.4072642,25.2094907 C3.5171384,25.3789998 3.70466219,25.4811751 3.90538637,25.4815666 C4.10649877,25.4815666 4.29402257,25.3797828 4.40467321,25.2102737 L7.71409892,20.1195193 C7.83406752,19.9335682 7.84416202,19.6967252 7.73972334,19.5013787 Z M3.90577459,23.7727737 L1.70013789,20.3825912 L6.11063485,20.3825912 L3.90577459,23.7727737 Z" id="Shape"></path>
                    </g>
                </g>
            </g>
        </g>
    </g>
</svg>