<?xml version="1.0" encoding="UTF-8"?>
<svg width="62px" height="66px" viewBox="0 0 62 66" version="1.1" xmlns="http://www.w3.org/2000/svg" xmlns:xlink="http://www.w3.org/1999/xlink">
    <!-- Generator: Sketch 54 (76480) - https://sketchapp.com -->
    <title>Cross-Platform Development</title>
    <desc>Created with Sketch.</desc>
    <g id="Page-1" stroke="none" stroke-width="1" fill="none" fill-rule="evenodd">
        <g id="Mobile-Apps" transform="translate(-438.000000, -1851.000000)" fill-rule="nonzero">
            <g id="Group-5" transform="translate(0.000000, 1157.000000)">
                <g id="Group-4" transform="translate(391.000000, 637.000000)">
                    <g id="Cross-Platform-Development" transform="translate(47.000000, 57.000000)">
                        <path d="M5.89756098,6.86877828 C5.90072782,4.06616739 8.20078534,1.79498229 11.0390244,1.7918552 L6.50243902,1.7918552 C3.66419997,1.79498229 1.36414245,4.06616739 1.36097561,6.86877828 L1.36097561,8.95927602 L5.89756098,8.95927602 L5.89756098,6.86877828 Z" id="Path" fill="#D4E1F4"/>
                        <rect id="Rectangle" fill="#D4E1F4" x="1.36097561" y="10.7511312" width="4.53658537" height="42.7058824"/>
                        <path d="M5.89756098,59.1312217 L5.89756098,55.2488688 L1.36097561,55.2488688 L1.36097561,59.1312217 C1.36414245,61.9338326 3.66419997,64.2050177 6.50243902,64.2081448 L11.0390244,64.2081448 C8.20078534,64.2050177 5.90072782,61.9338326 5.89756098,59.1312217 L5.89756098,59.1312217 Z" id="Path" fill="#D4E1F4"/>
                        <path d="M29.4604341,10.7511312 L31.1413902,10.7511312 C31.6424876,10.7511312 32.0487073,10.3500108 32.0487073,9.85520362 C32.0487073,9.36039647 31.6424876,8.95927602 31.1413902,8.95927602 L29.4604341,8.95927602 C28.9593368,8.95927602 28.5531171,9.36039647 28.5531171,9.85520362 C28.5531171,10.3500108 28.9593368,10.7511312 29.4604341,10.7511312 L29.4604341,10.7511312 Z" id="Path" fill="#24527a"/>
                        <path d="M19.072561,62.8642534 C20.8264018,62.8642534 22.2481707,61.4603318 22.2481707,59.7285068 C22.2481707,57.9966818 20.8264018,56.5927602 19.072561,56.5927602 C17.3187201,56.5927602 15.8969512,57.9966818 15.8969512,59.7285068 C15.8988681,61.4595472 17.3195147,62.8623606 19.072561,62.8642534 L19.072561,62.8642534 Z M19.072561,58.3846154 C19.824207,58.3846154 20.4335366,58.9862961 20.4335366,59.7285068 C20.4335366,60.4707175 19.824207,61.0723982 19.072561,61.0723982 C18.3209149,61.0723982 17.7115854,60.4707175 17.7115854,59.7285068 C17.7125019,58.9866713 18.3212949,58.3855204 19.072561,58.3846154 Z" id="Shape" fill="#24527a"/>
                        <path d="M55.3614634,1.7918552 L35.3853659,1.7918549 L35.3853659,3.58371041 L55.3614634,3.58371041 C58.0160772,3.58146047 60.1727905,5.69921748 60.1853659,8.32047964 L60.1853659,10.3031674 L58.2173951,10.3031674 C57.7162977,10.3031674 57.310078,10.7042879 57.310078,11.199095 C57.310078,11.6939022 57.7162977,12.0950226 58.2173951,12.0950226 L60.1853659,12.0950226 L60.1853659,52.2624434 L37.3512195,52.2624434 L37.3512195,54.0542986 L60.1853659,54.0542986 L60.1853659,57.6795204 C60.1727905,60.3007825 58.0160772,62.4185395 55.3614634,62.4162896 L35.3853659,62.4162896 L35.3853659,64.2081451 L55.3614634,64.2081448 C59.0177853,64.2092398 61.9862537,61.2899194 62,57.6795204 L62,8.32047964 C61.9862537,4.71008057 59.0177853,1.79076022 55.3614634,1.7918552 Z" id="Path" fill="#43D92D"/>
                        <path d="M55.3339415,12.0950226 C55.8350388,12.0950226 56.2412585,11.6939022 56.2412585,11.199095 C56.2412585,10.7042879 55.8350388,10.3031674 55.3339415,10.3031674 L53.7461366,10.3031674 C53.2450392,10.3031674 52.8388195,10.7042879 52.8388195,11.199095 C52.8388195,11.6939022 53.2450392,12.0950226 53.7461366,12.0950226 L55.3339415,12.0950226 Z" id="Path" fill="#43D92D"/>
                        <path d="M50.9336049,12.0950226 C51.4347023,12.0950226 51.840922,11.6939022 51.840922,11.199095 C51.840922,10.7042879 51.4347023,10.3031674 50.9336049,10.3031674 L37.2293366,10.3031674 C36.7282392,10.3031674 36.3220195,10.7042879 36.3220195,11.199095 C36.3220195,11.6939022 36.7282392,12.0950226 37.2293366,12.0950226 L50.9336049,12.0950226 Z" id="Path" fill="#43D92D"/>
                        <path d="M46.9851122,58.2436561 C46.9851734,57.0256467 46.2421739,55.9275396 45.1025863,55.4613997 C43.9629988,54.9952597 42.6512559,55.2528896 41.7790444,56.1141523 C40.9068329,56.975415 40.6459279,58.2706917 41.1179936,59.3959741 C41.5900594,60.5212565 42.7021262,61.2549292 43.9356195,61.2548688 C45.6190133,61.2529761 46.9831955,59.9059184 46.9851122,58.2436561 Z M42.7006098,58.2436561 C42.7005486,57.7503981 43.0014103,57.3056758 43.4628969,57.1168723 C43.9243836,56.9280688 44.4556081,57.0323677 44.8088498,57.3811325 C45.1620915,57.7298972 45.2677814,58.2544405 45.0766342,58.7101573 C44.885487,59.1658741 44.4351481,59.4630136 43.9356195,59.4630136 C43.2539123,59.4622731 42.7014431,58.9168058 42.7006098,58.2436561 L42.7006098,58.2436561 Z" id="Shape" fill="#43D92D"/>
                        <path d="M38.1073171,6.86877828 C38.1073171,3.07525679 34.9929661,0 31.1512195,0 L6.95609756,0 C3.11435096,0 0,3.07525679 0,6.86877828 L0,59.1312217 C0,62.9247432 3.11435096,66 6.95609756,66 L31.1512195,66 C34.9929661,66 38.1073171,62.9247432 38.1073171,59.1312217 L38.1073171,6.86877828 Z M6.975,1.7918552 L31.170122,1.7918552 C32.5312973,1.79407072 33.835802,2.33026667 34.7965254,3.28243086 C35.7572489,4.23459506 36.2954528,5.52469057 36.2926829,6.86877828 L36.2926829,8.95927602 L34.1945122,8.95927602 C33.6934148,8.95927602 33.2871951,9.36039647 33.2871951,9.85520362 C33.2871951,10.3500108 33.6934148,10.7511312 34.1945122,10.7511312 L36.2926829,10.7511312 L36.2926936,53.4570136 L1.81463415,53.4570136 L1.81463415,10.7511312 L26.4823171,10.7511312 C26.9834145,10.7511312 27.3896341,10.3500108 27.3896341,9.85520362 C27.3896341,9.36039647 26.9834145,8.95927602 26.4823171,8.95927602 L1.81463415,8.95927602 L1.81463415,6.86877828 C1.82670225,4.06253725 4.1330595,1.79347364 6.975,1.7918552 Z M1.81463415,55.2488688 L36.2926936,55.2488688 L36.2926829,59.1312217 C36.2954528,60.4753094 35.7572489,61.7654049 34.7965254,62.7175691 C33.835802,63.6697333 32.5312973,64.2059293 31.170122,64.2081448 L6.975,64.2081448 C4.1330595,64.2065264 1.82670225,61.9374628 1.81463415,59.1312217 L1.81463415,55.2488688 Z" id="Shape" fill="#24527a"/>
                    </g>
                </g>
            </g>
        </g>
    </g>
</svg>