<?xml version="1.0" encoding="UTF-8"?>
<svg width="45px" height="47px" viewBox="0 0 45 47" version="1.1" xmlns="http://www.w3.org/2000/svg" xmlns:xlink="http://www.w3.org/1999/xlink">
    <!-- Generator: Sketch 54 (76480) - https://sketchapp.com -->
    <title>Design</title>
    <desc>Created with Sketch.</desc>
    <g id="Page-1" stroke="none" stroke-width="1" fill="none" fill-rule="evenodd">
        <g id="About-Us" transform="translate(-411.000000, -1684.000000)" fill="#FFFFFF" fill-rule="nonzero">
            <g id="Group-14" transform="translate(391.000000, 1666.000000)">
                <g id="Group-4" transform="translate(0.500000, 0.000000)">
                    <g id="Design" transform="translate(20.000000, 18.000000)">
                        <path d="M40.4114771,7.7744 L29.5377248,7.7744 C29.2033138,7.7744 28.9322202,8.04302915 28.9322202,8.3744 C28.9322202,8.70577085 29.2033138,8.9744 29.5377248,8.9744 L40.4114771,8.9744 C41.7065365,8.97577777 42.7560585,10.0157139 42.7575046,11.299 L42.7575046,31.7965 L1.24249541,31.7965 L1.24249541,11.299 C1.24394154,10.0157139 2.29346347,8.97577777 3.58852294,8.9744 L14.4623761,8.9744 C14.7967871,8.9744 15.0678807,8.70577085 15.0678807,8.3744 C15.0678807,8.04302915 14.7967871,7.7744 14.4623761,7.7744 L3.58852294,7.7744 C1.62498735,7.77660424 0.0337664139,9.3533148 0.0314862385,11.299 L0.0314862385,35.0667 C0.0337109203,37.012408 1.62496433,38.5891507 3.58852294,38.5913 L15.748367,38.5913 L15.748367,45.7744 L12.928633,45.7744 C12.5942221,45.7744 12.3231284,46.0430292 12.3231284,46.3744 C12.3231284,46.7057708 12.5942221,46.9744 12.928633,46.9744 L31.6024954,46.9744 C31.9369064,46.9744 32.208,46.7057708 32.208,46.3744 C32.208,46.0430292 31.9369064,45.7744 31.6024954,45.7744 L28.2520367,45.7744 L28.2520367,38.5913 L40.4114771,38.5913 C42.3750357,38.5891507 43.9662891,37.012408 43.9685138,35.0667 L43.9685138,11.299 C43.9662336,9.3533148 42.3750127,7.77660424 40.4114771,7.7744 L40.4114771,7.7744 Z M27.0406239,45.7744 L16.9589725,45.7744 L16.9589725,38.5913 L27.0406239,38.5913 L27.0406239,45.7744 Z M40.4114771,37.3913 L3.58852294,37.3913 C2.29346347,37.3899222 1.24394154,36.3499861 1.24249541,35.0667 L1.24249541,32.9967 L42.7575046,32.9967 L42.7575046,35.0667 C42.7560585,36.3499861 41.7065365,37.3899222 40.4114771,37.3913 L40.4114771,37.3913 Z" id="Shape"></path>
                        <g id="Group" transform="translate(6.256881, 0.000000)">
                            <path d="M28.4990826,0.1468 C27.1020455,0.137692852 25.886544,1.09242831 25.5766147,2.4423 L18.7547982,2.4423 L18.7547982,0.6256 C18.7547982,0.29422915 18.4837045,0.0256 18.1492936,0.0256 L13.2716514,0.0256 C12.9372404,0.0256 12.6661468,0.29422915 12.6661468,0.6256 L12.6661468,2.4423 L5.78357798,2.4423 C5.51658169,1.08191573 4.32048677,0.0954852262 2.9219633,0.0823 C1.31081651,0.082 -5.68434189e-14,1.41 -5.68434189e-14,3.0423 C-5.68434189e-14,4.6746 1.31081651,6.0023 2.92206422,6.0023 C4.32060201,5.98915343 5.51671836,5.00270524 5.7836789,3.6423 L11.3431193,3.6423 C8.74935228,5.1726744 7.16304033,7.94570289 7.17018349,10.937 C7.17018349,11.2683708 7.44127712,11.537 7.77568807,11.537 C8.11009902,11.537 8.38119266,11.2683708 8.38119266,10.937 C8.37371227,8.08562198 10.0490964,5.49315979 12.665844,4.307 L12.665844,5.4589 C12.665844,5.79027085 12.9369377,6.0589 13.2713486,6.0589 L18.1489908,6.0589 C18.4834018,6.0589 18.7544954,5.79027085 18.7544954,5.4589 L18.7544954,4.2773 C21.4088203,5.44625445 23.1152036,8.0590616 23.1040367,10.9373 C23.1040367,11.2686708 23.3751303,11.5373 23.7095413,11.5373 C24.0439522,11.5373 24.3150459,11.2686708 24.3150459,10.9373 C24.3203495,9.10450148 23.7223208,7.31998464 22.6116606,5.8544 C21.9380693,4.9647044 21.0962163,4.21337778 20.1330275,3.6423 L25.5765138,3.6423 C25.8864512,4.99220849 27.1020078,5.94695425 28.4990826,5.9378 C30.1464587,5.9378 31.4862385,4.6389 31.4862385,3.0423 C31.4862385,1.4457 30.146156,0.1468 28.4990826,0.1468 L28.4990826,0.1468 Z M2.92206422,4.8025 C1.97858716,4.8025 1.21100917,4.0125 1.21100917,3.0425 C1.21100917,2.0725 1.97858716,1.2825 2.92206422,1.2825 C3.86554128,1.2825 4.63301835,2.0725 4.63301835,3.0425 C4.63301835,4.0125 3.86513761,4.8025 2.92206422,4.8025 Z M13.877156,4.8589 L13.877156,3.6111 C13.9190281,3.48952792 13.9202667,3.35782417 13.8806881,3.2355 C13.8796789,3.2324 13.8782661,3.2294 13.877156,3.2263 L13.877156,1.2256 L17.543789,1.2256 L17.543789,3.1929 C17.5406606,3.2016 17.5368257,3.21 17.5336972,3.2189 C17.4945058,3.34416421 17.4980525,3.47873364 17.543789,3.6018 L17.543789,4.8589 L13.877156,4.8589 Z M28.4990826,4.7378 C27.519578,4.7378 26.7229358,3.9771 26.7229358,3.0423 C26.7229358,2.1075 27.5201835,1.3468 28.4990826,1.3468 C29.4779817,1.3468 30.2752294,2.1074 30.2752294,3.0423 C30.2752294,3.9772 29.4779817,4.7378 28.4990826,4.7378 Z" id="Shape"></path>
                            <path d="M9.1856055,14.2559 C8.90772383,13.7178141 8.69878711,13.1474285 8.56365138,12.558 C8.48433931,12.2408186 8.16346441,12.0448511 7.84187559,12.1171908 C7.52028677,12.1895306 7.31625089,12.503574 7.38291743,12.8236 C7.5404297,13.5106669 7.78401617,14.1755234 8.10800917,14.8027 C8.20517981,14.995965 8.39965384,15.122588 8.61723874,15.134262 C8.83482363,15.145936 9.04195801,15.0408602 9.15961938,14.8591215 C9.27728075,14.6773827 9.28732043,14.4470133 9.18590826,14.2559 L9.1856055,14.2559 Z" id="Path"></path>
                            <path d="M23.5419174,12.6677 C23.2220557,12.5711296 22.8837474,12.7497592 22.7862477,13.0667 C22.6083192,13.644897 22.358157,14.1987902 22.041578,14.7155 C21.9293228,14.8987415 21.9242499,15.1274066 22.02827,15.3153594 C22.1322901,15.5033122 22.3296002,15.6219982 22.5458755,15.6267094 C22.7621508,15.6314207 22.9645339,15.5214415 23.076789,15.3382 C23.4456883,14.7359311 23.7372409,14.0903692 23.9446789,13.4165 C24.0421274,13.0995166 23.8618065,12.7642704 23.5419174,12.6677 Z" id="Path"></path>
                            <path d="M21.0873028,17.5769 C21.3215165,17.3924505 21.5458582,17.1960168 21.7594128,16.9884 C21.9164061,16.8385652 21.9800119,16.6166798 21.9259512,16.4074393 C21.8718906,16.1981987 21.7085075,16.0338981 21.4981667,15.9772522 C21.2878258,15.9206063 21.0629921,15.9803582 20.9094862,16.1337 C20.7469083,16.2924 20.5759541,16.4437 20.398844,16.587 L16.1793853,10.52 C16.0655605,10.3563029 15.8773023,10.2590981 15.6766909,10.2604397 C15.4760795,10.2617814 15.2891626,10.3614954 15.177578,10.5267 L11.0850734,16.585 C10.77137,16.3309534 10.4792112,16.0518521 10.2115321,15.7505 C9.99076515,15.5015853 9.60816166,15.47714 9.35696331,15.6959 C9.10576495,15.91466 9.08109543,16.2937853 9.30186239,16.5427 C9.63897527,16.9222935 10.0094158,17.2714962 10.4088257,17.5862 L9.19236697,19.387 C9.07426441,19.5618568 9.05722403,19.7852381 9.14745872,19.9757 L11.980211,25.9586 C11.8158258,26.0718373 11.7189973,26.2586366 11.7218624,26.457 L11.7610183,29.6305 C11.765107,29.9589774 12.0350068,30.223125 12.3665229,30.2231 L12.3704587,30.2231 L19.3064128,30.18 C19.4676214,30.1790001 19.6217722,30.1143395 19.7347099,30.0003449 C19.8476476,29.8863503 19.9100471,29.7324343 19.9080826,29.5727 L19.8688257,26.3992 C19.8662883,26.1973874 19.7614083,26.0103948 19.589789,25.9017 L22.342211,19.8936 C22.4300297,19.7018307 22.4099599,19.4784778 22.2893303,19.3051 L21.0873028,17.5769 Z M15.7370642,19.7459 L15.7449358,19.7459 C16.4229924,19.7494424 16.9713854,20.2939844 16.9735461,20.9658829 C16.9757069,21.6377813 16.4308274,22.1857755 15.7528073,22.1936 L15.7448349,22.1936 C15.0667858,22.1900199 14.5184267,21.6454587 14.5162937,20.9735675 C14.5141606,20.3016763 15.0590513,19.7537072 15.7370642,19.7459 L15.7370642,19.7459 Z M12.9646606,29.0194 L12.9405413,27.073 C12.989139,27.0694075 13.0371202,27.060006 13.0834404,27.045 L18.4968532,27.0113 C18.5514359,27.0284994 18.6082238,27.0378612 18.6654862,27.0391 L18.6895046,28.9838 L12.9646606,29.0194 Z M18.3005688,25.8125 L13.263578,25.8439 L10.3890459,19.7729 L15.0877615,12.8172 L15.1244954,18.625 C13.9345876,18.9340423 13.1613734,20.0706224 13.3186141,21.279541 C13.4758548,22.4884596 14.5146331,23.3936246 15.7447339,23.3936 L15.7602752,23.3936 C16.9932697,23.3860434 18.0278241,22.4702853 18.1739468,21.2570865 C18.3200695,20.0438877 17.5320716,18.9125868 16.3355046,18.6177 L16.2987706,12.8063 L19.759633,17.7822 L21.0973945,19.7056 L18.3005688,25.8125 Z" id="Shape"></path>
                        </g>
                    </g>
                </g>
            </g>
        </g>
    </g>
</svg>