<?xml version="1.0" encoding="UTF-8"?>
<svg width="61px" height="79px" viewBox="0 0 61 79" version="1.1" xmlns="http://www.w3.org/2000/svg" xmlns:xlink="http://www.w3.org/1999/xlink">
    <!-- Generator: Sketch 54 (76480) - https://sketchapp.com -->
    <title>Microsoft Azure Cloud  Services</title>
    <desc>Created with Sketch.</desc>
    <g id="Page-1" stroke="none" stroke-width="1" fill="none" fill-rule="evenodd">
        <g id="Cloud-Services" transform="translate(-419.000000, -2695.000000)" fill-rule="nonzero">
            <g id="Group-4" transform="translate(391.000000, 2645.000000)">
                <g id="Microsoft-Azure-Cloud--Services" transform="translate(28.000000, 50.000000)">
                    <path d="M9.6083815,26.8917756 C9.6207685,24.1322569 11.4253574,21.6980811 14.0700202,20.8735556 C14.5612561,20.7253164 14.8747232,20.247295 14.8134798,19.7398178 C14.7712535,19.3858187 14.7502365,19.0296296 14.7505405,18.6731422 C14.7635296,13.9449449 18.4222201,10.0199859 23.1563757,9.65555556 C23.5152627,9.62942154 23.8361928,9.42340482 24.0082601,9.1087 C25.891881,5.65878956 29.2118323,3.21551696 33.0766329,2.43495556 C27.3377971,1.27403594 21.5108216,3.98258846 18.7192428,9.1087 C18.5471755,9.42340482 18.2262454,9.62942154 17.8673584,9.65555556 C13.1337416,10.0199424 9.47524617,13.9440809 9.46152312,18.6717378 C9.46121915,19.0282252 9.48223613,19.3844143 9.52446243,19.7384133 C9.58570588,20.2458906 9.27223871,20.723912 8.78100289,20.8721511 C5.79913283,21.7871174 3.93420453,24.7322531 4.39038482,27.8059116 C4.84656511,30.8795702 7.48729375,33.1616339 10.6074769,33.1785956 L15.8964942,33.1785956 C12.4206508,33.1620815 9.61096064,30.3529689 9.6083815,26.8917756 Z" id="Path" fill="#DAE5F3"></path>
                    <path d="M34.7573064,53.4859844 C36.789324,54.5668537 38.0646489,56.6681213 38.0809249,58.9620889 L38.0809249,67.8171111 C35.2292725,68.4038752 33.2937115,71.0542279 33.611952,73.9364504 C33.9301924,76.8186729 36.3978021,78.9869502 39.3093601,78.9427365 C42.2209182,78.8985229 44.6209827,76.6563273 44.8508149,73.765782 C45.080647,70.8752367 43.0648261,68.2848879 40.1965318,67.7849844 L40.1965318,58.9620889 C40.1808573,55.8940322 38.4791773,53.0808895 35.7629249,51.6326444 C33.730935,50.551834 32.4556084,48.4506308 32.4393064,46.1567156 L32.4393064,33.3555556 L30.3236994,33.3555556 L30.3236994,46.1567156 C30.3393616,49.2247307 32.0410543,52.037827 34.7573064,53.4859844 L34.7573064,53.4859844 Z M42.7528902,73.3188467 C42.7528902,75.2579798 41.174241,76.8299578 39.2268786,76.8299578 C37.2795162,76.8299578 35.7008671,75.2579798 35.7008671,73.3188467 C35.7008671,71.3797135 37.2795162,69.8077356 39.2268786,69.8077356 C41.1733147,69.8099607 42.7506556,71.380636 42.7528902,73.3188467 Z" id="Shape" fill="#43D92D"></path>
                    <path d="M11.3273121,72.4410689 C11.3186579,69.732749 9.37420428,67.4145759 6.69942197,66.9237089 L6.69942197,54.8042311 C6.70808513,52.8909531 8.04548089,51.2384069 9.92113873,50.8233333 C12.7669302,50.1940974 14.7962141,47.6869789 14.8092486,44.7842222 L14.8092486,33.7066667 L12.6936416,33.7066667 L12.6936416,44.7842222 C12.6848634,46.6973492 11.3474639,48.3496814 9.47192486,48.7645933 C6.62616155,49.3942266 4.59699705,51.9014163 4.58381503,54.8042311 L4.58381503,66.9237089 C2.11560694,67.4182489 0.0440751445,69.7034556 0.0440751445,72.4410689 C0.0440751445,75.5436819 2.56991378,78.0588467 5.68569364,78.0588467 C8.8014735,78.0588467 11.3273121,75.5436819 11.3273121,72.4410689 Z M5.72976879,75.95218 C3.78240637,75.95218 2.20375723,74.380202 2.20375723,72.4410689 C2.20375723,70.5019358 3.78240637,68.9299578 5.72976879,68.9299578 C7.6771312,68.9299578 9.25578035,70.5019358 9.25578035,72.4410689 C9.2535458,74.3792796 7.67620487,75.9499549 5.72976879,75.95218 L5.72976879,75.95218 Z" id="Shape" fill="#43D92D"></path>
                    <path d="M48.8893844,47.6457778 C51.9846811,48.5661174 54.1105942,51.3949873 54.1242775,54.6116467 L54.1242775,56.3903756 C51.6560694,56.8849156 49.5845376,59.1701222 49.5845376,61.9077356 C49.5832359,64.8756328 51.9026836,67.3314788 54.8776507,67.5121173 C57.8526177,67.6927558 60.4545388,65.5357328 60.8153843,62.5896669 C61.1762298,59.643601 59.1712409,56.927065 56.2398844,56.3903756 L56.2398844,54.6116467 C56.2229236,50.4612036 53.4801591,46.8107975 49.4863382,45.6232022 C46.3910414,44.7028626 44.2651284,41.8739927 44.2514451,38.6573333 L44.2514451,33.7066667 L42.1358382,33.7066667 L42.1358382,38.6573333 C42.1527989,42.8077764 44.8955635,46.4581825 48.8893844,47.6457778 L48.8893844,47.6457778 Z M58.7962428,61.9077356 C58.7962428,63.8468687 57.2175936,65.4188467 55.2702312,65.4188467 C53.3228688,65.4188467 51.7442197,63.8468687 51.7442197,61.9077356 C51.7442197,59.9686024 53.3228688,58.3966244 55.2702312,58.3966244 C57.2166673,58.3988496 58.7940082,59.9695249 58.7962428,61.9077356 L58.7962428,61.9077356 Z" id="Shape" fill="#43D92D"></path>
                    <path d="M11.1510116,61.5566244 C11.1497099,64.5245217 13.4691576,66.9803676 16.4441246,67.1610061 C19.4190917,67.3416446 22.0210128,65.1846217 22.3818583,62.2385558 C22.7427038,59.2924899 20.7377149,56.5759539 17.8063584,56.0392644 L17.8063584,51.1988467 C17.8022387,48.8587975 19.2158739,46.7473055 21.3866705,45.8510733 C24.3467874,44.6289917 26.2744299,41.7497468 26.2687861,38.5588467 L26.2687985,33.7066667 L24.1531792,33.7066667 L24.1531792,38.5588467 C24.157323,40.8988607 22.7436677,43.0103135 20.5728671,43.9064444 C17.6127542,45.1286273 15.6851318,48.0079114 15.6907514,51.1988467 L15.6907514,56.0392644 C13.2225434,56.5338044 11.1510116,58.8190111 11.1510116,61.5566244 Z M20.3627168,61.5566244 C20.3627168,63.4957576 18.7840676,65.0677356 16.8367052,65.0677356 C14.8893428,65.0677356 13.3106936,63.4957576 13.3106936,61.5566244 C13.3106936,59.6174913 14.8893428,58.0455133 16.8367052,58.0455133 C18.7831413,58.0477384 20.3604822,59.6184137 20.3627168,61.5566244 Z" id="Shape" fill="#43D92D"></path>
                    <path d="M10.6074769,35.2866667 L44.2514451,35.2866667 C51.3297986,35.2748597 57.0932797,29.6175449 57.2067559,22.5699995 C57.3202321,15.5224541 51.7418495,9.68405828 44.6675145,9.44629333 C42.389001,4.10347367 37.2859214,0.491329063 31.4696404,0.104359936 C25.6533593,-0.282609192 20.1130585,2.62140945 17.141,7.61489778 C11.5524526,8.33360123 7.36326148,13.0637756 7.34591618,18.6748978 C7.34591618,18.8328978 7.3492659,18.9908978 7.35596532,19.1478444 C3.66606316,20.7022162 1.58282498,24.6262911 2.37090506,28.5379131 C3.15898514,32.4495352 6.60101793,35.2698142 10.6074769,35.2866667 Z M8.78100289,20.8735556 C9.27223871,20.7253164 9.58570588,20.247295 9.52446243,19.7398178 C9.48223613,19.3858187 9.46121915,19.0296296 9.46152312,18.6731422 C9.47451228,13.9449449 13.1332028,10.0199859 17.8673584,9.65555556 C18.2262454,9.62942154 18.5471755,9.42340482 18.7192428,9.1087 C21.2203854,4.52941321 26.1795681,1.82950462 31.4008839,2.20448335 C36.6221996,2.57946208 41.1409857,5.96004903 42.956341,10.8493333 C43.1129329,11.2743508 43.5253485,11.5516699 43.9797659,11.5375111 C44.0695029,11.5348778 44.1602977,11.5334733 44.2514451,11.5334733 C50.2247477,11.5749656 55.0450837,16.4085317 55.0450837,22.3567367 C55.0450837,28.3049416 50.2247477,33.1385078 44.2514451,33.18 L10.6074769,33.18 C7.48729375,33.1630384 4.84656511,30.8809746 4.39038482,27.8073161 C3.93420453,24.7336576 5.79913283,21.7885218 8.78100289,20.8735556 Z" id="Shape" fill="#0D76FF"></path>
                </g>
            </g>
        </g>
    </g>
</svg>