<?xml version="1.0" encoding="UTF-8"?>
<svg width="69px" height="71px" viewBox="0 0 69 71" version="1.1" xmlns="http://www.w3.org/2000/svg" xmlns:xlink="http://www.w3.org/1999/xlink">
    <!-- Generator: Sketch 54 (76480) - https://sketchapp.com -->
    <title>Quality Assurance</title>
    <desc>Created with Sketch.</desc>
    <g id="Page-1" stroke="none" stroke-width="1" fill="none" fill-rule="evenodd">
        <g id="eCommerce" transform="translate(-1023.000000, -2954.000000)" fill-rule="nonzero">
            <g id="Group-5" transform="translate(391.000000, 2423.000000)">
                <g id="Group-4" transform="translate(585.000000, 477.000000)">
                    <g id="Quality-Assurance" transform="translate(47.000000, 54.000000)">
                        <path d="M62.0201302,44.2913287 L61.8670272,44.3744149 L45.3121034,55.7981689 C42.7012014,57.0760565 39.7544039,57.4879764 36.89551,56.9736617 L24.9342603,54.7601776 C23.6186218,54.4336844 22.2284692,54.622676 21.0467231,55.2897054 C21.0327517,55.2973118 21.0193626,55.3055033 21.0053912,55.3142801 L15.9919935,58.5002225 L16.9944401,61.8055282 L22.4956719,58.3100607 C22.5096433,58.3012839 22.5230325,58.2930924 22.5370038,58.285486 C23.71875,57.6184565 25.1089025,57.429465 26.424541,57.7559582 L38.3857907,59.9694422 C41.2446847,60.483757 44.1914822,60.0718371 46.8023842,58.7939495 L66.7209182,45.0484656 C65.505408,43.7553649 63.5767751,43.4440845 62.0201302,44.2913287 L62.0201302,44.2913287 Z" id="Path" fill="#D4E1F4"/>
                        <path d="M55.0297819,41.444167 L55.0099892,41.454699 L54.1757813,41.9064065 C52.1365416,40.1709603 49.2334047,39.9076592 46.9176482,41.2475689 L42.4241023,43.7038749 L36.4437686,43.7038749 C35.1485049,43.7021195 33.8707057,43.4078076 32.7046774,42.842588 L31.8821123,42.4429555 C27.1062281,40.1071828 21.430354,40.664796 17.1946966,43.8846749 C17.175486,43.8993028 17.1562753,43.9145157 17.1382289,43.931484 L15.1519641,45.7084735 C14.4015845,46.3784283 13.5144017,46.8757746 12.5527049,47.1648207 L11.4250978,43.4440845 C11.3104161,43.0661014 10.9634601,42.8074812 10.5699328,42.8074812 L0.964607482,42.8074812 C0.708465473,42.8074812 0.464548536,42.9174825 0.295145488,43.11057 C0.125160337,43.3030723 0.0459891706,43.5599371 0.0768426026,43.8150465 L3.27861771,70.2019053 C3.33333903,70.6530278 3.71464123,70.9918083 4.16638259,70.9918083 L18.5732063,70.9918083 C18.856709,70.9918083 19.1233294,70.8566473 19.2921504,70.6278679 C19.4603891,70.3990885 19.5116175,70.1036063 19.4289535,69.8309434 L17.535249,63.5883686 L23.4300081,59.8436428 C24.2188091,59.4053929 25.1444131,59.2854447 26.0182067,59.5072027 C26.036253,59.5118836 26.0548815,59.5159793 26.0740923,59.5194901 L38.0644489,61.7388252 C41.3232738,62.3245236 44.6828091,61.8482414 47.65231,60.3778515 C47.6907313,60.3591278 47.726824,60.3374785 47.7617525,60.3134889 L68.5011053,46.0010302 C68.8911396,45.731878 69.0052392,45.2041056 68.7613223,44.7968667 C67.1936167,42.1726332 63.848635,41.25342 61.1707867,42.7103524 L60.8174271,42.9016844 C59.3888532,41.1592168 56.9147543,40.483996 55.0297819,41.444167 L55.0297819,41.444167 Z M55.84769,43.0432819 C56.9374579,42.4944455 58.3101461,42.9443978 59.1868504,43.7852057 L51.3221264,48.0495121 L50.8604887,48.2940895 C50.6113323,47.5837619 50.2474943,46.919073 49.7829458,46.3269383 L55.84769,43.0432819 Z M47.7832916,42.8203537 L47.8042489,42.8086515 C49.2392262,41.9748648 51.0112632,41.9918332 52.4299406,42.852535 L48.4317967,45.0168694 C47.6691922,44.457501 46.7994735,44.0643047 45.8773623,43.8612704 L47.7832916,42.8203537 Z M4.95751215,69.19434 L1.97462203,44.6049495 L9.9074565,44.6049495 L17.3658461,69.19434 L4.95751215,69.19434 Z M66.7203361,45.0484656 L46.8023842,58.7939495 C44.1914822,60.0718371 41.2446847,60.483757 38.3857907,59.9694422 L26.424541,57.7559582 C25.1089025,57.429465 23.71875,57.6184565 22.5370038,58.285486 C22.5230325,58.2930924 22.5096433,58.3012839 22.4956719,58.3100607 L16.9944401,61.8055282 L13.0748853,48.8862244 C14.2834098,48.5199433 15.3982097,47.893872 16.341278,47.0501384 L18.2996001,45.2977238 C21.9985235,42.5026371 26.9426464,42.0245995 31.1037899,44.0602091 L31.926355,44.4598414 C33.335136,45.1426688 34.8795559,45.4984177 36.4437686,45.5001731 L44.4208456,45.5001731 C46.838477,45.5036837 48.9138094,47.2309385 49.3684614,49.6182011 L43.5866377,49.3549002 C41.485109,49.2601117 39.3789231,49.3578257 37.2948586,49.6474569 C36.9758453,49.6884147 36.7028213,49.8984705 36.5805718,50.1974634 C36.4583221,50.4964564 36.5054755,50.8387477 36.7039855,51.0932719 C36.9024957,51.3477963 37.222091,51.4753511 37.53994,51.427957 C39.5163083,51.1535387 41.5130518,51.0605056 43.5057202,51.1506131 L50.3097834,51.4601381 C50.3231725,51.4601381 50.3371439,51.4613084 50.3505332,51.4613084 C50.8441887,51.4613084 51.2447017,51.0587504 51.2447017,50.5625742 C51.2447017,50.416881 51.2382981,50.272943 51.2295659,50.1295903 L52.1627379,49.6351695 L62.0201302,44.2913287 C63.5767751,43.4440845 65.505408,43.7553649 66.7209182,45.0484656 L66.7203361,45.0484656 Z" id="Shape" fill="#24527a"/>
                        <path d="M7.80010634,65.4759445 C7.80010634,67.0387824 9.06044141,68.3055528 10.6153399,68.3055528 C12.1696561,68.3055528 13.4299913,67.0387824 13.4299913,65.4759445 C13.4299913,63.9136916 12.1696561,62.6469211 10.6153399,62.6469211 C9.06102352,62.6486765 7.80185265,63.9142767 7.80010634,65.4759445 L7.80010634,65.4759445 Z M10.6153399,64.4443895 C11.1823451,64.4443895 11.6416544,64.9060439 11.6416544,65.4759445 C11.6416544,66.0464301 11.1823451,66.5080845 10.6153399,66.5080845 C10.0477524,66.5080845 9.58844327,66.0464301 9.58844327,65.4759445 C9.58902538,64.906629 10.0483345,64.4455598 10.6153399,64.4443895 Z" id="Shape" fill="#24527a"/>
                        <g id="Group" transform="translate(18.628510, 0.000000)" fill="#43D92D">
                            <path d="M7.74247435,32.445123 C10.0547381,34.1419518 12.6196511,35.4607974 15.341742,36.3519251 C15.5029951,36.3993193 15.6741445,36.3999043 15.8359797,36.3536805 C18.6384061,35.468989 21.2877295,34.1530689 23.689643,32.4533145 C28.8963115,28.7536426 31.6475094,23.8404453 31.6475094,18.2467612 L31.6475094,9.5572423 C31.6475094,9.19739752 31.435028,8.87265955 31.1061183,8.73106203 L31.0089009,8.68893386 C25.817368,6.4438538 20.909338,3.58733027 16.3878493,0.17962985 C16.0700003,-0.0596816414 15.6328126,-0.0596816414 15.3149636,0.17962985 C10.7928928,3.58733027 5.88486261,6.4438538 0.693911987,8.68893386 L0.595530207,8.73106203 C0.267202724,8.87265955 0.0541390691,9.19739752 0.0541390691,9.5572423 L0.0541390691,18.2467612 C0.0541390691,23.8351793 2.71277673,28.7448659 7.74247435,32.445123 Z M1.842476,10.1470366 C6.79649538,7.96573386 11.4943726,5.23910528 15.8511153,2.01805607 C20.207858,5.23910528 24.9063175,7.96573386 29.8597546,10.1470366 L29.8597546,18.2467612 C29.8597546,22.1161162 28.4393308,25.5337636 25.6310829,28.447043 L25.6310829,28.2779453 C25.6310829,27.7811841 25.23057,27.3792111 24.7369144,27.3792111 C24.2426768,27.3792111 23.842746,27.7811841 23.842746,28.2779453 L23.842746,29.1936479 C23.8421639,29.442321 23.9446207,29.679877 24.1256665,29.8489749 C23.6756716,30.2275431 23.1994803,30.5967497 22.6976749,30.9560093 C20.5163928,32.4913468 18.1249579,33.7007763 15.597884,34.5468503 C13.1546385,33.6978507 10.8493605,32.4901767 8.75772813,30.9630308 C8.30656887,30.628931 7.87753105,30.2872248 7.4706145,29.9361567 C7.71511369,29.7688142 7.8612311,29.4908853 7.8612311,29.1936479 L7.8612311,28.2779453 C7.8612311,27.7811841 7.46071814,27.3792111 6.96706263,27.3792111 C6.47282502,27.3792111 6.07289417,27.7811841 6.07289417,28.2779453 L6.07289417,28.61146 C3.26289987,25.6642439 1.842476,22.1898405 1.842476,18.2467612 L1.842476,10.1470366 Z" id="Shape"/>
                            <path d="M15.8511153,27.3797962 C15.3574598,27.3797962 14.9569468,27.7817691 14.9569468,28.2785304 L14.9569468,29.194233 C14.9569468,29.6904091 15.3574598,30.0929671 15.8511153,30.0929671 C16.3453531,30.0929671 16.7452838,29.6904091 16.7452838,29.194233 L16.7452838,28.2785304 C16.7452838,27.7817691 16.3453531,27.3797962 15.8511153,27.3797962 Z" id="Path"/>
                            <path d="M18.8130484,27.3797962 C18.3193928,27.3797962 17.9188799,27.7817691 17.9188799,28.2785304 L17.9188799,29.194233 C17.9188799,29.6904091 18.3193928,30.0929671 18.8130484,30.0929671 C19.3067039,30.0929671 19.7072168,29.6904091 19.7072168,29.194233 L19.7072168,28.2785304 C19.7072168,27.7817691 19.3067039,27.3797962 18.8130484,27.3797962 L18.8130484,27.3797962 Z" id="Path"/>
                            <path d="M20.8808129,28.2785304 L20.8808129,29.194233 C20.8808129,29.6904091 21.2813259,30.0929671 21.7749814,30.0929671 C22.2686369,30.0929671 22.6691499,29.6904091 22.6691499,29.194233 L22.6691499,28.2785304 C22.6691499,27.7817691 22.2686369,27.3797962 21.7749814,27.3797962 C21.2813259,27.3797962 20.8808129,27.7817691 20.8808129,28.2785304 Z" id="Path"/>
                            <path d="M12.8897645,27.3797962 C12.3955268,27.3797962 11.9955961,27.7817691 11.9955961,28.2785304 L11.9955961,29.194233 C11.9955961,29.6904091 12.3955268,30.0929671 12.8897645,30.0929671 C13.38342,30.0929671 13.783933,29.6904091 13.783933,29.194233 L13.783933,28.2785304 C13.783933,27.7817691 13.38342,27.3797962 12.8897645,27.3797962 Z" id="Path"/>
                            <path d="M9.92783147,30.0929671 C10.421487,30.0929671 10.8219999,29.6904091 10.8219999,29.194233 L10.8219999,28.2785304 C10.8219999,27.7817691 10.421487,27.3797962 9.92783147,27.3797962 C9.43417597,27.3797962 9.03366301,27.7817691 9.03366301,28.2785304 L9.03366301,29.194233 C9.03366301,29.6904091 9.43417597,30.0929671 9.92783147,30.0929671 Z" id="Path"/>
                            <path d="M13.9405289,21.810687 C14.2892312,22.1611699 14.8556544,22.1611699 15.204939,21.810687 L21.1357907,15.8489666 C21.4804182,15.4973135 21.4780896,14.9320939 21.1311336,14.5827812 C20.7835955,14.2340536 20.2212473,14.2317132 19.8713806,14.5781003 L14.5721517,19.9043875 L11.8296858,17.1485034 C11.4804012,16.7974354 10.9145602,16.7974354 10.5652757,17.1485034 C10.2159911,17.4995715 10.2159911,18.0683017 10.5652757,18.4193697 L13.9405289,21.810687 Z" id="Path"/>
                        </g>
                    </g>
                </g>
            </g>
        </g>
    </g>
</svg>