<?xml version="1.0" encoding="UTF-8"?>
<svg width="21px" height="13px" viewBox="0 0 21 13" version="1.1" xmlns="http://www.w3.org/2000/svg" xmlns:xlink="http://www.w3.org/1999/xlink">
    <!-- Generator: Sketch 54 (76480) - https://sketchapp.com -->
    <title>spain</title>
    <desc>Created with Sketch.</desc>
    <g id="Page-1" stroke="none" stroke-width="1" fill="none" fill-rule="evenodd">
        <g id="Contact-Us" transform="translate(-419.000000, -987.000000)" fill-rule="nonzero">
            <g id="Group-4" transform="translate(391.000000, 943.000000)">
                <g id="spain" transform="translate(28.000000, 44.000000)">
                    <path d="M0.361380117,12.9893601 L20.5977251,12.9893601 C20.7972865,12.9893601 20.9591053,12.8364167 20.9591053,12.6478006 L20.9591053,0.352238095 C20.9591053,0.163622024 20.7972865,0.0106785714 20.5977251,0.0106785714 L0.361380117,0.0106785714 C0.161818713,0.0107172619 0,0.163622024 0,0.352238095 L0,12.6478006 C0,12.8364554 0.161818713,12.9893601 0.361380117,12.9893601 Z" id="Path" fill="#C8414B"></path>
                    <rect id="Rectangle" fill="#FFD250" x="0" y="2.74319345" width="20.9590643" height="7.51407738"></rect>
                    <path d="M8.85340351,6.50003869 L9.15980702,5.19690476 C9.18805263,5.0768869 9.09140351,4.96305952 8.96130994,4.96305952 L8.74549708,4.96305952 C8.61544444,4.96305952 8.51883626,5.0768869 8.547,5.19690476 L8.85340351,6.50003869 Z" id="Path" fill="#C8414B"></path>
                    <rect id="Rectangle" fill="#F5F5F5" x="8.49210526" y="5.81676488" width="1" height="2.90294643"></rect>
                    <rect id="Rectangle" fill="#FAB446" x="8.31116959" y="5.47551488" width="1.08409942" height="1"></rect>
                    <g id="Group" transform="translate(3.111111, 4.952381)" fill="#C8414B">
                        <rect id="Rectangle" x="4.47754386" y="1.54765774" width="1.80690058" height="1"></rect>
                        <polygon id="Path" points="6.28432164 2.91381845 5.20022222 2.57229762 5.20022222 2.2307381 6.28432164 2.57229762"></polygon>
                        <path d="M0.321836257,1.54765774 L0.628239766,0.24452381 C0.65648538,0.124505952 0.559836257,0.0106785714 0.42974269,0.0106785714 L0.213929825,0.0106785714 C0.083877193,0.0106785714 -0.0127309942,0.124505952 0.0154327485,0.24452381 L0.321836257,1.54765774 Z" id="Path"></path>
                    </g>
                    <path d="M4.69773684,5.47539881 C4.49817544,5.47539881 4.33635673,5.62834226 4.33635673,5.81695833 L4.33635673,8.03697917 C4.33635673,8.45193452 4.74612281,9.23239881 6.14317544,9.23239881 C7.54022807,9.23239881 7.94999415,8.45197321 7.94999415,8.03697917 L7.94999415,5.81695833 C7.94999415,5.62834226 7.78817544,5.47539881 7.58861404,5.47539881 L4.69773684,5.47539881 L4.69773684,5.47539881 Z" id="Path" fill="#F5F5F5"></path>
                    <g id="Group" transform="translate(4.298246, 5.455357)" fill="#C8414B">
                        <path d="M1.84492982,1.7277619 L0.0381111111,1.7277619 L0.0381111111,0.36160119 C0.0381111111,0.172985119 0.199929825,0.0200416667 0.399491228,0.0200416667 L1.84492982,0.0200416667 L1.84492982,1.7277619 Z" id="Path"></path>
                        <path d="M1.84492982,1.7277619 L3.65174854,1.7277619 L3.65174854,2.58162202 C3.65174854,3.05322024 3.24730409,3.43548214 2.74833918,3.43548214 L2.74833918,3.43548214 C2.24937427,3.43548214 1.84492982,3.05322024 1.84492982,2.58162202 L1.84492982,1.7277619 L1.84492982,1.7277619 Z" id="Path"></path>
                    </g>
                    <path d="M4.33635673,7.18311905 L6.14317544,7.18311905 L6.14317544,8.03697917 C6.14317544,8.50857738 5.73873099,8.89083929 5.23976608,8.89083929 L5.23976608,8.89083929 C4.74080117,8.89083929 4.33635673,8.50857738 4.33635673,8.03697917 L4.33635673,7.18311905 L4.33635673,7.18311905 Z" id="Path" fill="#FAB446"></path>
                    <g id="Group" transform="translate(4.666667, 7.157738)" fill="#C8414B">
                        <path d="M1.11512865,1.55849107 L1.11512865,0.0253809524 L0.753748538,0.0253809524 L0.753748538,1.71588393 C0.888181287,1.69011607 1.00963743,1.63386012 1.11512865,1.55849107 Z" id="Path"></path>
                        <path d="M0.392409357,1.71588393 L0.392409357,0.0253809524 L0.0310292398,0.0253809524 L0.0310292398,1.55849107 C0.136561404,1.63386012 0.258017544,1.69011607 0.392409357,1.71588393 Z" id="Path"></path>
                    </g>
                    <rect id="Rectangle" fill="#FFB441" x="4.69777778" y="6.50003869" width="1.08409942" height="1"></rect>
                    <g id="Group" transform="translate(4.666667, 5.803571)" fill="#FAB446">
                        <rect id="Rectangle" x="0.0311111111" y="0.0155" width="1.08409942" height="1"></rect>
                        <rect id="Rectangle" x="0.211637427" y="0.254136364" width="1" height="1"></rect>
                    </g>
                    <rect id="Rectangle" fill="#F5F5F5" x="3.07140351" y="5.81676488" width="1" height="2.90294643"></rect>
                    <g id="Group" transform="translate(2.865497, 5.455357)" fill="#FAB446">
                        <rect id="Rectangle" x="0.025380117" y="3.09411607" width="1.08409942" height="1"></rect>
                        <rect id="Rectangle" x="0.025380117" y="0.0201577381" width="1.08409942" height="1"></rect>
                    </g>
                    <rect id="Rectangle" fill="#5064AA" x="2.71035088" y="8.89072321" width="1.4454386" height="1"></rect>
                    <rect id="Rectangle" fill="#FAB446" x="8.49210526" y="8.54947321" width="1.08409942" height="1"></rect>
                    <rect id="Rectangle" fill="#5064AA" x="8.13064327" y="8.89072321" width="1.4454386" height="1"></rect>
                    <rect id="Rectangle" fill="#FAB446" x="5.05923977" y="5.13387798" width="2.16819883" height="1"></rect>
                    <rect id="Rectangle" fill="#FFB441" x="5.96269006" y="4.10935417" width="1" height="1.02463988"></rect>
                    <g id="Group" transform="translate(4.502924, 3.559524)" fill="#F5F5F5">
                        <path d="M1.27887135,1.06201488 C0.979959064,1.06201488 0.736842105,0.832193452 0.736842105,0.549714286 C0.736842105,0.267196429 0.98,0.0374136905 1.27887135,0.0374136905 C1.57778363,0.0374136905 1.82090058,0.267235119 1.82090058,0.549714286 C1.82094152,0.832193452 1.57778363,1.06201488 1.27887135,1.06201488 Z M1.27887135,0.378934524 C1.17919298,0.378934524 1.09818129,0.455464286 1.09818129,0.549714286 C1.09818129,0.643925595 1.17915205,0.720494048 1.27887135,0.720494048 C1.37859064,0.720494048 1.4595614,0.643964286 1.4595614,0.549714286 C1.4595614,0.455502976 1.37859064,0.378934524 1.27887135,0.378934524 Z" id="Shape"></path>
                        <path d="M2.00163158,1.06201488 C1.7027193,1.06201488 1.45960234,0.832193452 1.45960234,0.549714286 C1.45960234,0.267196429 1.70276023,0.0374136905 2.00163158,0.0374136905 C2.30054386,0.0374136905 2.54366082,0.267235119 2.54366082,0.549714286 C2.54366082,0.832193452 2.30050292,1.06201488 2.00163158,1.06201488 Z M2.00163158,0.378934524 C1.90195322,0.378934524 1.82094152,0.455464286 1.82094152,0.549714286 C1.82094152,0.643925595 1.90191228,0.720494048 2.00163158,0.720494048 C2.10130994,0.720494048 2.18232164,0.643964286 2.18232164,0.549714286 C2.1822807,0.455502976 2.10130994,0.378934524 2.00163158,0.378934524 Z" id="Shape"></path>
                        <path d="M2.72435088,1.4035744 C2.4254386,1.4035744 2.18232164,1.17375298 2.18232164,0.89127381 C2.18232164,0.608755952 2.42547953,0.378973214 2.72435088,0.378973214 C3.02326316,0.378973214 3.26638012,0.608794643 3.26638012,0.89127381 C3.26638012,1.17375298 3.02322222,1.4035744 2.72435088,1.4035744 Z M2.72435088,0.720494048 C2.62467251,0.720494048 2.54366082,0.79702381 2.54366082,0.89127381 C2.54366082,0.985485119 2.62463158,1.06205357 2.72435088,1.06205357 C2.82402924,1.06205357 2.90504094,0.98552381 2.90504094,0.89127381 C2.90504094,0.79702381 2.82402924,0.720494048 2.72435088,0.720494048 Z" id="Shape"></path>
                        <path d="M0.556152047,1.4035744 C0.257239766,1.4035744 0.014122807,1.17375298 0.014122807,0.89127381 C0.014122807,0.608755952 0.257280702,0.378973214 0.556152047,0.378973214 C0.855064327,0.378973214 1.09818129,0.608794643 1.09818129,0.89127381 C1.09822222,1.17375298 0.855064327,1.4035744 0.556152047,1.4035744 Z M0.556152047,0.720494048 C0.456473684,0.720494048 0.375461988,0.79702381 0.375461988,0.89127381 C0.375461988,0.985485119 0.456432749,1.06205357 0.556152047,1.06205357 C0.655871345,1.06205357 0.736842105,0.985485119 0.736842105,0.891235119 C0.736842105,0.79702381 0.655871345,0.720494048 0.556152047,0.720494048 Z" id="Shape"></path>
                    </g>
                    <path d="M7.22727485,7.8661994 L7.22727485,8.03697917 C7.22727485,8.13115179 7.14622222,8.20775893 7.0465848,8.20775893 C6.94694737,8.20775893 6.86589474,8.13115179 6.86589474,8.03697917 L6.86589474,7.8661994 L7.22727485,7.8661994 L7.22727485,7.8661994 Z M7.58861404,7.52467857 L6.50451462,7.52467857 L6.50451462,8.03697917 C6.50451462,8.31949702 6.74767251,8.54927976 7.04654386,8.54927976 C7.34545614,8.54927976 7.5885731,8.31945833 7.5885731,8.03697917 L7.5885731,7.52467857 L7.58861404,7.52467857 Z" id="Shape" fill="#FAB446"></path>
                    <path d="M7.0465848,6.84159821 L7.0465848,6.84159821 C6.84702339,6.84159821 6.68520468,6.68865476 6.68520468,6.50003869 L6.68520468,6.15847917 C6.68520468,5.9698631 6.84702339,5.81691964 7.0465848,5.81691964 L7.0465848,5.81691964 C7.2461462,5.81691964 7.40796491,5.9698631 7.40796491,6.15847917 L7.40796491,6.50003869 C7.40796491,6.68865476 7.2461462,6.84159821 7.0465848,6.84159821 Z" id="Path" fill="#FFA0D2"></path>
                    <ellipse id="Oval" fill="#5064AA" cx="6.14321637" cy="7.1829256" rx="1" ry="1"></ellipse>
                    <rect id="Rectangle" fill="#FAB446" x="5.96269006" y="3.42608036" width="1" height="1.02463988"></rect>
                    <path d="M5.05907602,5.13387798 L4.69769591,4.79231845 L4.90937427,4.59225 C5.2365731,4.28299702 5.68039766,4.1092381 6.14317544,4.1092381 L6.14317544,4.1092381 C6.60595322,4.1092381 7.04973684,4.28299702 7.37697661,4.59225 L7.58865497,4.79231845 L7.22727485,5.13387798 L5.05907602,5.13387798 Z" id="Path" fill="#C8414B"></path>
                    <g id="Group" transform="translate(5.198830, 4.604167)" fill="#FFD250">
                        <ellipse id="Oval" cx="0.944385965" cy="0.38888" rx="1" ry="1"></ellipse>
                        <ellipse id="Oval" cx="0.221461988" cy="0.38888" rx="1" ry="1"></ellipse>
                        <ellipse id="Oval" cx="1.66690058" cy="0.38888" rx="1" ry="1"></ellipse>
                    </g>
                    <g id="Group" transform="translate(2.865497, 6.500000)" fill="#C8414B">
                        <rect id="Rectangle" x="0.025380117" y="3.86904762e-05" width="1.80690058" height="1"></rect>
                        <polygon id="Path" points="0.0254210526 1.3661994 1.10947953 1.02467857 1.10947953 0.683119048 0.0254210526 1.02467857"></polygon>
                    </g>
                </g>
            </g>
        </g>
    </g>
</svg>