<?xml version="1.0" encoding="UTF-8"?>
<svg width="67px" height="67px" viewBox="0 0 67 67" version="1.1" xmlns="http://www.w3.org/2000/svg" xmlns:xlink="http://www.w3.org/1999/xlink">
    <!-- Generator: Sketch 54 (76480) - https://sketchapp.com -->
    <title>Wealth Management</title>
    <desc>Created with Sketch.</desc>
    <g id="Page-1" stroke="none" stroke-width="1" fill="none" fill-rule="evenodd">
        <g id="Blog-Detail" transform="translate(-420.000000, -2418.000000)" fill-rule="nonzero">
            <g id="Group-6" transform="translate(391.000000, 2394.000000)">
                <g id="Wealth-Management" transform="translate(29.000000, 24.000000)">
                    <g id="Group" transform="translate(1.634146, 9.532520)" fill="#D4E1F4">
                        <path d="M5.50516667,20.7100813 L6.41375203,19.7798435 C6.75730513,19.4240475 6.80902004,18.8779041 6.53835569,18.4639472 C5.78012083,17.314018 5.25656456,16.0256059 4.99776423,14.6727276 C4.90361189,14.180255 4.47399662,13.8233456 3.97260976,13.821065 L2.72357724,13.821065 L2.72357724,11.4962195 L3.96511992,11.4962195 C4.46791042,11.4942624 4.89840758,11.1353814 4.99081911,10.6411524 C5.2459878,9.28395431 5.76746571,7.99074279 6.52514634,6.83617886 C6.79423731,6.42232626 6.74212266,5.8775221 6.39945325,5.52218902 L5.50516667,4.60679472 L5.92909146,4.17279268 C5.66748005,4.15988122 5.42043917,4.04847444 5.2375752,3.86094309 L4.37379268,2.97659756 L2.78158943,4.60720325 L3.67587602,5.52259756 C4.01854542,5.87793064 4.07066007,6.4227348 3.80156911,6.8365874 C3.04393816,7.99102837 2.52246215,9.28409635 2.26724187,10.6411524 C2.17483035,11.1353814 1.74433319,11.4942624 1.24154268,11.4962195 L-3.19744231e-14,11.4962195 L-3.19744231e-14,13.821065 L1.24835163,13.821065 C1.74973849,13.8233456 2.17935376,14.180255 2.2735061,14.6727276 C2.53251459,16.0256556 3.05630353,17.3140709 3.81477846,18.4639472 C4.0854428,18.8779041 4.03372789,19.4240475 3.6901748,19.7798435 L2.78158943,20.7100813 L4.37379268,22.3401423 L5.25895528,21.4337358 C5.43204109,21.2560052 5.663061,21.1461476 5.9101626,21.124065 L5.50516667,20.7100813 Z" id="Path"></path>
                        <path d="M7.96115244,3.86135163 C8.31568075,4.22515927 8.88117089,4.27957208 9.29856504,3.99004065 C10.4127551,3.21704927 11.6736524,2.68080296 13.003311,2.41445122 C13.2369322,2.36734609 13.4474074,2.24173375 13.5997744,2.05847967 C13.4415896,1.86972308 13.354821,1.63135033 13.3546524,1.3850752 L13.3546524,0.109623984 L11.1213191,0.109623984 L11.1213191,1.3850752 C11.1207565,1.88458192 10.7689239,2.31478297 10.2794614,2.41445122 C9.31565832,2.60761019 8.3861375,2.94373586 7.52170325,3.41168902 L7.96115244,3.86135163 Z" id="Path"></path>
                        <path d="M20.6248333,3.99004065 C20.8139225,4.12066422 21.0409533,4.18497605 21.2704573,4.17292886 L20.1021789,2.97673374 L19.6775732,3.41141667 C20.0036179,3.58691493 20.3198415,3.78007684 20.6248333,3.99004065 L20.6248333,3.99004065 Z" id="Path"></path>
                        <path d="M20.6049512,21.303685 C20.2986511,21.5133995 19.9811068,21.7061991 19.6537419,21.8812195 L20.1021789,22.3401423 L21.2899309,21.1242012 C21.0476389,21.1020639 20.8052541,21.1655755 20.6049512,21.303685 L20.6049512,21.303685 Z" id="Path"></path>
                        <path d="M13.003311,22.8657927 C11.681527,22.6009735 10.4276123,22.0694464 9.3181748,21.303685 C8.90092008,21.015498 8.33661362,21.0704554 7.98280488,21.4337358 L7.54580691,21.8812195 C8.40350644,22.3425921 9.324812,22.6743832 10.2797337,22.8657927 C10.7691962,22.9654609 11.1210289,23.395662 11.1215915,23.8951687 L11.1215915,25.2075244 L13.3549248,25.2075244 L13.3549248,23.8951687 C13.3551166,23.6488977 13.4418824,23.4105326 13.6000467,23.2217642 C13.4476103,23.0384572 13.2370307,22.9128399 13.003311,22.8657927 L13.003311,22.8657927 Z" id="Path"></path>
                        <path d="M52.3313577,13.4953252 L52.3230508,13.4633232 L50.6118272,13.4633232 C47.4652785,13.4633232 44.9059329,16.092937 44.9059329,19.3251423 L44.9059329,24.3979411 L47.2209736,24.3979411 L47.2209736,19.3245976 C47.2204289,16.2989756 49.4637033,13.8017276 52.3313577,13.4953252 L52.3313577,13.4953252 Z" id="Path"></path>
                        <path d="M52.3682622,5.30620935 C52.3535835,3.36558166 53.6187343,1.64707873 55.4761362,1.08466463 C55.1000507,0.975103128 54.7103352,0.919396736 54.3186159,0.919207317 C51.9666707,0.919207317 50.0532215,2.88699187 50.0532215,5.30552846 C50.0532215,7.72406504 51.9666707,9.69198577 54.3186159,9.69198577 C54.7103399,9.69186242 55.1000646,9.6361547 55.4761362,9.52652846 C53.6191996,8.9642037 52.3541744,7.24637017 52.3682622,5.30620935 L52.3682622,5.30620935 Z" id="Path"></path>
                    </g>
                    <path d="M13.8721321,29.3282967 C17.7364797,29.3282967 20.8803049,26.1182886 20.8803049,22.1726423 C20.8803049,18.2269959 17.7364797,15.0169878 13.8721321,15.0169878 C10.0077846,15.0169878 6.86341463,18.2269959 6.86341463,22.1726423 C6.86341463,26.1182886 10.0077846,29.3282967 13.8721321,29.3282967 Z M13.8721321,16.6511341 C16.8353841,16.6511341 19.2461585,19.1280915 19.2461585,22.1726423 C19.2461585,25.2171931 16.8357927,27.6941504 13.8721321,27.6941504 C10.9084715,27.6941504 8.49756098,25.2171931 8.49756098,22.1726423 C8.49756098,19.1280915 10.9088801,16.6511341 13.8721321,16.6511341 L13.8721321,16.6511341 Z" id="Shape" fill="#0D76FF"></path>
                    <path d="M1.04503659,24.9877317 L2.40382927,24.9877317 C2.69237718,26.2263312 3.17496222,27.4115141 3.83370732,28.499376 L2.84967886,29.5070996 C2.45358764,29.9177079 2.45358764,30.5681763 2.84967886,30.9787846 L5.26181504,33.4483882 C5.45783211,33.649396 5.72670123,33.7627502 6.0074624,33.7627502 C6.28822357,33.7627502 6.55709269,33.649396 6.75310976,33.4483882 L7.71997967,32.4578232 C8.76869214,33.1171177 9.91690842,33.6028909 11.1203659,33.8964167 L11.1203659,35.324252 C11.119386,35.9026761 11.5869808,36.3726473 12.1654024,36.3745996 L13.0538333,36.3745996 L13.0538333,59.1028516 C13.0453808,61.0680918 14.6292682,62.6693411 16.5944837,62.682313 L25.6042134,62.682313 L25.6042134,61.0481667 L16.5957093,61.0481667 C15.5325936,61.0361953 14.6797524,60.1659928 14.6892053,59.1028516 L14.6892053,36.3745996 L15.5777724,36.3745996 C16.1561407,36.3725724 16.6236528,35.9026231 16.6226728,35.324252 L16.6226728,33.8960081 C17.8261302,33.6024824 18.9743465,33.1167092 20.0230589,32.4574146 L20.9907459,33.4481159 C21.1867394,33.6491158 21.4555861,33.7624669 21.7363252,33.7624669 C22.0170643,33.7624669 22.285911,33.6491158 22.4819045,33.4481159 L24.8934959,30.978376 C25.2897286,30.5678249 25.2897286,29.9172422 24.8934959,29.5066911 L23.9097398,28.4989675 C24.5685095,27.4111179 25.0510962,26.225931 25.3396179,24.9873232 L26.6985467,24.9873232 C27.2769684,24.9852959 27.7445024,24.5152636 27.7434472,23.9368394 L27.7434472,20.4449411 C27.7444272,19.86657 27.2769151,19.3966207 26.6985467,19.3945935 L25.348061,19.3945935 C25.0624636,18.1513784 24.5814971,16.9613266 23.9230854,15.8687866 L24.8930874,14.8756341 C25.2894785,14.4650942 25.2894785,13.814353 24.8930874,13.403813 L22.4820407,10.9351626 C22.2860939,10.7339733 22.0171673,10.620495 21.7363252,10.620495 C21.4554832,10.620495 21.1865565,10.7339733 20.9906098,10.9351626 L20.0455285,11.9020325 C18.9908275,11.2355502 17.8348002,10.7449457 16.6226728,10.4494126 L16.6226728,9.05848171 C16.623728,8.48005749 16.156194,8.01002525 15.5777724,8.00799797 L14.6892053,8.00799797 L14.6892053,3.57946138 C14.6797524,2.51632025 15.5325936,1.64611769 16.5957093,1.63414634 L53.284065,1.63414634 C54.3446702,1.64522318 55.1968494,2.51146327 55.1905691,3.57210772 L55.142498,8.87641057 C52.2717114,9.28086179 50.0532215,11.799626 50.0532215,14.8387297 C50.0532215,18.158498 52.6997215,20.8593333 55.9527622,20.8593333 C59.2058028,20.8593333 61.852439,18.158498 61.852439,14.8387297 C61.852439,11.8045285 59.6411667,9.28876016 56.7769167,8.87818089 L56.8249878,3.57946138 C56.8334399,1.61411561 55.2493872,0.0128224339 53.284065,-2.84217094e-14 L16.5957093,-2.84217094e-14 C14.6304938,0.0129719151 13.0466064,1.61422123 13.0550589,3.57946138 L13.0550589,8.00799797 L12.166628,8.00799797 C11.5881532,8.00995031 11.1205364,8.48000451 11.1215915,9.05848171 L11.1215915,10.4492764 C9.90946721,10.7448863 8.7534448,11.2355347 7.69873577,11.9020325 L6.75447154,10.9351626 C6.55852482,10.7339733 6.28959815,10.620495 6.0087561,10.620495 C5.72791405,10.620495 5.45898738,10.7339733 5.26304065,10.9351626 L2.85035976,13.4036768 C2.45403942,13.8142454 2.45403942,14.4649294 2.85035976,14.875498 L3.82049797,15.8687866 C3.16203867,16.9613182 2.6810261,18.1513704 2.39538618,19.3945935 L1.04503659,19.3945935 C0.466614981,19.3965458 -0.000979856206,19.866517 -2.7275701e-14,20.4449411 L-2.7275701e-14,23.937248 C-0.00105507301,24.5157252 0.466561724,24.9857794 1.04503659,24.9877317 L1.04503659,24.9877317 Z M60.2182927,14.8387297 C60.2182927,17.2575386 58.3048435,19.225187 55.9530346,19.225187 C53.6012256,19.225187 51.6876402,17.2575386 51.6876402,14.8387297 C51.6876402,12.4199207 53.6010894,10.4524085 55.9530346,10.4524085 C58.3049797,10.4524085 60.2182927,12.4201931 60.2182927,14.8387297 L60.2182927,14.8387297 Z M1.63414634,21.0287398 L2.87568902,21.0287398 C3.37847953,21.0267827 3.80897669,20.6679017 3.90138821,20.1736728 C4.15655691,18.8164746 4.67803481,17.5232631 5.43571545,16.3686992 C5.70480641,15.9548466 5.65269177,15.4100424 5.31002236,15.0547093 L4.41573577,14.139315 L6.00793902,12.5091179 L6.87172154,13.3934634 C7.22624986,13.7572711 7.79173999,13.8116839 8.20913415,13.5221524 C9.3233576,12.7493056 10.5842527,12.2131993 11.9138801,11.9469715 C12.4033426,11.8473033 12.7551752,11.4171022 12.7557378,10.9175955 L12.7557378,9.64214431 L14.9890711,9.64214431 L14.9890711,10.9175955 C14.9896337,11.4171022 15.3414664,11.8473033 15.8309289,11.9469715 C17.1605119,12.2132957 18.4213256,12.7495459 19.5354024,13.522561 C19.9527905,13.8119245 20.5181493,13.7573981 20.8725427,13.3935996 L21.7363252,12.5092541 L23.3283923,14.1394512 L22.434378,15.0548455 C22.0916215,15.4101118 22.0393934,15.9549213 22.3084126,16.3688354 C23.0661428,17.5232389 23.5876696,18.8163181 23.842876,20.1734004 C23.9352875,20.6676293 24.3657847,21.0265103 24.8685752,21.0284675 L26.1101179,21.0284675 L26.1101179,23.353313 L24.8617663,23.353313 C24.3603794,23.3555935 23.9307641,23.7125029 23.8366118,24.2049756 C23.5776033,25.5579036 23.0538144,26.8463189 22.2953394,27.9961951 C22.0247435,28.4101471 22.0763949,28.9562171 22.4198069,29.3120915 L23.3285285,30.2423293 L21.7363252,31.8723902 L20.8511626,30.9659837 C20.4972763,30.6028649 19.9330924,30.5479194 19.5157927,30.8359329 C18.4063552,31.6016943 17.1524405,32.1332215 15.8306565,32.3980407 C15.341194,32.4977089 14.9893614,32.92791 14.9887988,33.4274167 L14.9887988,34.7397724 L12.7554654,34.7397724 L12.7554654,33.4274167 C12.7549028,32.92791 12.4030702,32.4977089 11.9136077,32.3980407 C10.5918238,32.1332215 9.33790903,31.6016943 8.22847154,30.8359329 C7.81121683,30.547746 7.24691036,30.6027034 6.89310163,30.9659837 L6.00793902,31.8723902 L4.41573577,30.2426016 L5.32432114,29.3123638 C5.66787423,28.9565678 5.71958914,28.4104244 5.4489248,27.9964675 C4.69068993,26.8465383 4.16713367,25.5581262 3.90833333,24.205248 C3.814181,23.7127753 3.38456573,23.3558659 2.88317886,23.3535854 L1.63414634,23.3535854 L1.63414634,21.0287398 Z" id="Shape" fill="#24527a"></path>
                    <path d="M59.697,21.3612886 L52.2459736,21.3612886 C48.1983293,21.3612886 44.9059329,24.7239533 44.9059329,28.8572541 L44.9059329,34.747126 C44.9059329,35.1983831 45.271749,35.5641992 45.7230061,35.5641992 L55.1373232,35.5641992 L55.1715041,59.0885528 C55.1778292,59.6119579 54.973381,60.1159134 54.6041829,60.4869736 C54.2511716,60.8461002 53.7685759,61.0481877 53.265,61.0477581 L44.1273984,61.0477581 L44.1273984,62.6819101 L53.265,62.6819045 C54.2042003,62.6835864 55.1046392,62.3075897 55.7637459,61.638502 C56.4399196,60.9604382 56.8153336,60.0391502 56.8056504,59.0816077 L56.7714695,35.5641992 L66.1829268,35.5641992 C66.6341839,35.5641992 67,35.1983831 67,34.747126 L67,28.8571179 C67,24.7367541 63.7273496,21.382124 59.697,21.3612886 L59.697,21.3612886 Z M56.0147236,26.2637276 L56.8075569,30.6000711 L55.9391443,31.564626 L55.105185,30.6157317 L56.0147236,26.2637276 Z M56.2598455,22.995435 L56.0001524,23.9929451 L55.9059167,23.9929451 L55.6460874,22.995435 L56.2598455,22.995435 Z M65.366126,33.9305976 L46.5395346,33.9305976 L46.5395346,28.8571179 C46.5395346,25.6249126 49.0996972,22.9952988 52.2454289,22.9952988 L53.9566524,22.9952988 L54.4246992,24.7920427 C54.4552551,24.9169779 54.5074259,25.0356065 54.5788537,25.1425671 L53.4213333,30.6805528 C53.3687767,30.9322237 53.4377407,31.1939539 53.6074898,31.3870488 L55.3172154,33.3327724 C55.4712212,33.5080041 55.6927859,33.6090488 55.9260711,33.6104411 L55.9309736,33.6104411 C56.1625409,33.6104536 56.383238,33.5122066 56.5381951,33.340126 L58.2901362,31.3944024 C58.4596329,31.2061357 58.5322184,30.9498986 58.4866423,30.7007073 L57.4330264,24.938435 C57.4504783,24.8947404 57.464991,24.8499285 57.4764675,24.8042988 L57.9475102,22.9952988 L59.6599593,22.9952988 C62.8065081,22.9952988 65.3658537,25.6249126 65.3658537,28.8571179 L65.366126,33.9305976 Z" id="Shape" fill="#0D76FF"></path>
                    <path d="M60.525376,26.6256911 C60.074119,26.6256911 59.7083028,26.9915072 59.7083028,27.4427642 C59.7083028,27.8940213 60.074119,28.2598374 60.525376,28.2598374 L63.1517215,28.2598374 C63.6029786,28.2598374 63.9687947,27.8940213 63.9687947,27.4427642 C63.9687947,26.9915072 63.6029786,26.6256911 63.1517215,26.6256911 L60.525376,26.6256911 Z" id="Path" fill="#24527a"></path>
                    <path d="M32.1358963,67 L37.6059289,67 C40.0664431,67.0053584 42.3872566,65.8572757 43.8760122,63.8982541 C45.3642535,61.9850382 45.869775,59.4849023 45.24175,57.1437825 C45.2241375,57.0783259 45.2059804,57.0126423 45.1872785,56.9467317 C44.4669606,54.3551996 42.6779896,52.1925689 40.2674085,50.9992561 C40.3203215,50.8331695 40.3472397,50.659901 40.3472093,50.4855894 L40.3472093,50.1036077 C40.3469535,49.6274191 40.1462136,49.1733445 39.794187,48.8526687 C40.1358441,48.1096291 40.5365888,47.3952106 40.992561,46.7162947 C41.3982972,46.1217045 41.904723,45.6025132 42.4890305,45.1821037 C42.6932988,45.021685 42.9038313,44.8552744 43.1192663,44.6635346 C43.5173914,44.3127284 43.6770458,43.7635151 43.5290285,43.2539472 C43.3516794,42.6505044 42.7626353,42.264943 42.1386423,42.3438638 C41.7188028,42.3791341 41.0963293,42.0126768 40.6417642,41.7454939 C40.4211643,41.6075367 40.1911355,41.4852643 39.9533801,41.3795813 C38.6374837,40.8458963 37.7758801,41.7618354 37.4520467,42.1059593 C37.2636409,42.2512055 37.0570833,42.3712397 36.8376077,42.4630203 C36.8197683,42.4699654 36.8016565,42.4766382 36.7831362,42.4819492 C36.2862195,42.6282053 36.0725549,42.6080508 35.6136321,42.1935224 C34.3354573,41.0388618 33.2032663,41.6249756 32.8865142,41.8322398 C32.5380325,42.0602033 32.3748902,42.4227114 32.2171951,42.773372 C32.1571107,42.913626 32.0897933,43.0506698 32.0155142,43.1839512 C32.0117012,43.1904878 32.0081606,43.1963435 32.0047561,43.2019268 C31.9803801,43.1870833 31.9406159,43.1610732 31.8766118,43.1134106 L31.7949045,43.0524024 C31.310873,42.6833963 30.7840395,42.3742097 30.2258516,42.131561 C30.2047439,42.1220285 30.1809126,42.1104533 30.1547663,42.0979248 C30.0730589,42.0588415 29.9618008,42.005187 29.8381504,41.9569797 C29.3090955,41.750124 28.1894329,41.7049126 27.6200691,41.867374 C27.4536325,41.9089086 27.2959872,41.9799366 27.1546098,42.0770894 C26.8838998,42.2776801 26.6885374,42.5635049 26.5999533,42.8885793 C26.4007676,43.5978573 26.6812036,44.3547047 27.2944654,44.7629451 C28.0470953,45.26466 28.7006689,45.9009675 29.2223496,46.6398984 C29.6519081,47.2539028 29.9963042,47.9232717 30.2461423,48.6297439 C29.7169107,48.9318491 29.3899738,49.4942202 29.3893049,50.1036077 L29.3893049,50.4855894 C29.3893826,50.7229414 29.4395452,50.9576057 29.5365142,51.1742459 C28.0766768,51.9352134 25.7821992,53.4158862 24.7294004,56.3329736 C24.6724776,56.4908049 24.6182785,56.652313 24.5681646,56.8131402 C23.8254939,59.1870543 24.2683253,61.7732178 25.7585041,63.7647988 C27.2411761,65.8050441 29.6138253,67.0086705 32.1358963,67 L32.1358963,67 Z M31.2515508,50.5512276 C31.1817131,50.5323764 31.1096785,50.522897 31.0373415,50.5230386 C31.0289974,50.5124436 31.0242295,50.4994747 31.0237236,50.485998 L31.0237236,50.1040163 C31.0237985,50.0679468 31.0530199,50.0387253 31.0890894,50.0386504 L38.6470163,50.0386504 C38.6830326,50.0388001 38.7121714,50.0679997 38.7122459,50.1040163 L38.7122459,50.4828659 C38.6424384,50.4967221 38.5747328,50.5196111 38.5108374,50.5509553 L31.2515508,50.5512276 Z M28.218439,43.4154553 C28.5614119,43.3851568 28.9069948,43.4069193 29.2434573,43.4800041 C29.3100488,43.5060142 29.383313,43.5412846 29.4477256,43.5721972 C29.4847663,43.5899004 29.5186748,43.6062419 29.5483618,43.6197236 C29.9995671,43.8134283 30.4249757,44.0624067 30.8148252,44.3609451 L30.9079715,44.4303963 C31.2437886,44.6776972 31.6569553,44.9320793 32.3193293,44.8234085 C32.7949027,44.7419423 33.2044786,44.4415699 33.4251016,44.0124634 C33.5297272,43.8287144 33.6241072,43.639318 33.7078089,43.4451423 C33.7493435,43.3529492 33.8031341,43.2329756 33.840311,43.1666565 C33.9492541,43.1147724 34.1578801,43.0815447 34.5184817,43.4072846 C35.3764085,44.1818699 36.1662459,44.368435 37.2450549,44.0505935 C37.3089228,44.0318008 37.3721098,44.0097398 37.4344797,43.9853638 C37.6377947,43.905563 38.295811,43.5950752 38.6418415,43.2275285 C39.0438415,42.8001992 39.1463841,42.816813 39.339622,42.8951159 C39.5021925,42.973288 39.6604346,43.0601598 39.8136606,43.1553537 C40.2680894,43.4225366 40.8411301,43.7594431 41.4687785,43.9066524 C40.7553029,44.4286734 40.1367376,45.0693023 39.6400325,45.800628 C39.0862839,46.6253685 38.6055647,47.4968601 38.2033455,48.405185 L36.9408313,48.405185 C36.9860881,47.8762424 37.1875908,47.3726989 37.5197276,46.9585569 C37.7016387,46.74981 37.9192389,46.5750935 38.1623557,46.4425752 C38.5575817,46.2247685 38.7014084,45.7278073 38.4836016,45.3325813 C38.2657949,44.9373553 37.7688337,44.7935286 37.3736077,45.0113354 C36.9612044,45.2371305 36.5923027,45.5345575 36.2841768,45.889689 C35.5820386,46.7014512 35.3600671,47.6905183 35.3006931,48.405185 L35.0283354,48.405185 C34.7513476,47.5976443 34.2619207,46.3890569 33.9709065,45.9244146 C33.8159741,45.6769948 33.5408138,45.5310248 33.2490757,45.5414902 C32.9573377,45.5519557 32.6933438,45.7172665 32.5565381,45.9751518 C32.4197324,46.2330371 32.4308989,46.5443179 32.5858313,46.7917378 C32.8585385,47.3123518 33.0943008,47.8514971 33.291374,48.405185 L31.8978557,48.405185 C31.5901036,47.4374736 31.1366402,46.522327 30.5530894,45.6912764 C29.9193471,44.7971573 29.1282547,44.0257684 28.218439,43.4147744 L28.218439,43.4154553 Z M26.1298638,57.2984817 C26.1724878,57.1612134 26.2189248,57.0229919 26.2676768,56.8880386 C27.2890183,54.0579695 29.7674736,52.8661321 30.9587663,52.2933638 C31.0404736,52.2541443 31.1131931,52.218874 31.1814187,52.185374 L38.647561,52.185374 C38.7258218,52.1847786 38.8039479,52.1787724 38.8813801,52.1673984 C41.2677785,53.1288211 42.904376,54.9318293 43.6168638,57.4003435 C43.6329329,57.4559045 43.6483211,57.5112385 43.6630285,57.5663455 C44.1577817,59.4167763 43.7568148,61.3921241 42.5797256,62.9031951 C41.3991361,64.4579359 39.5581065,65.3694784 37.6059289,65.3658537 L32.1358963,65.3658537 C30.1342486,65.3717191 28.2516167,64.4157367 27.0753537,62.7961585 C25.8955719,61.2217858 25.5438306,59.1765391 26.1298638,57.2984817 L26.1298638,57.2984817 Z" id="Shape" fill="#43D92D"></path>
                    <path d="M34.0960549,63.1767785 L34.0960549,63.3257581 C34.0960549,63.7770152 34.461871,64.1428313 34.913128,64.1428313 C35.3643851,64.1428313 35.7302012,63.7770152 35.7302012,63.3257581 L35.7302012,63.1496789 C36.1590416,63.0295033 36.5510726,62.8041148 36.8706992,62.4939776 C37.2009329,62.1637439 37.5861829,61.5724553 37.5466911,60.6307785 C37.4931728,59.3600935 36.4011545,58.6055264 36.0653374,58.4031646 L36.0190366,58.3751118 L35.9482236,58.3342581 C35.8840833,58.2969451 35.854124,58.2797866 35.7575732,58.2304898 C35.7065857,58.2047332 35.6543156,58.181598 35.6009675,58.1611748 L35.4775894,58.1141931 C35.4268209,58.0930817 35.3750052,58.0745826 35.3223455,58.0587683 C35.2310778,58.0298886 35.1384022,58.0056629 35.0446768,57.986185 L34.7389553,57.9266748 C34.257563,57.8332561 34.0377703,57.5077886 34.033685,57.2265793 C34.0233386,56.9558511 34.1162116,56.6912996 34.2935142,56.4864472 C34.4423577,56.3412805 34.6677337,56.2767317 34.9829878,56.2895325 C35.8098659,56.3228963 36.0229858,56.9431911 36.057439,57.065752 L36.0541707,57.0529512 L37.643378,56.6723313 C37.3870327,55.742758 36.660302,55.0167517 35.7304736,54.7613333 L35.7304736,54.5347317 C35.7304736,54.0834747 35.3646575,53.7176585 34.9134004,53.7176585 C34.4621434,53.7176585 34.0963272,54.0834747 34.0963272,54.5347317 L34.0963272,54.767189 C33.7420445,54.8707446 33.4182591,55.0589028 33.1528801,55.3154451 C32.6520543,55.8325444 32.380608,56.5295674 32.399811,57.249185 C32.4160163,58.3635366 33.2499756,59.3012642 34.4276504,59.5297724 L34.7343252,59.5894187 C34.769187,59.5971809 34.8160325,59.6118882 34.8499411,59.6219654 C34.8606992,59.6265955 34.8715935,59.6309533 34.882624,59.6355833 L35.0188028,59.6876037 C35.0740915,59.7148394 35.09125,59.7255976 35.1277459,59.7467053 L35.2006016,59.7891931 C35.2087724,59.7943679 35.2166707,59.7994065 35.2238882,59.803628 C35.4724146,59.9534248 35.8974289,60.310622 35.9137703,60.6990041 C35.9297033,61.0777175 35.8079593,61.2452175 35.7149492,61.3382276 C35.4842622,61.5689146 35.0606098,61.6608354 34.7645569,61.6483069 C34.5036382,61.6372764 33.8385407,61.3740427 33.7896524,60.9355467 C33.7371349,60.489076 33.3338146,60.1688959 32.887069,60.2190213 C32.4403233,60.2691467 32.1179876,60.6707463 32.1657195,61.1177541 C32.292502,62.2473577 33.2453455,62.92975 34.0960549,63.1767785 L34.0960549,63.1767785 Z" id="Path" fill="#43D92D"></path>
                </g>
            </g>
        </g>
    </g>
</svg>