<?xml version="1.0" encoding="UTF-8"?>
<svg width="96px" height="41px" viewBox="0 0 96 41" version="1.1" xmlns="http://www.w3.org/2000/svg" xmlns:xlink="http://www.w3.org/1999/xlink">
    <!-- Generator: Sketch 54 (76480) - https://sketchapp.com -->
    <title>Amazon Web</title>
    <desc>Created with Sketch.</desc>
    <g id="Page-1" stroke="none" stroke-width="1" fill="none" fill-rule="evenodd">
        <g id="Cloud-Services" transform="translate(-809.000000, -2706.000000)">
            <g id="Group-4" transform="translate(781.000000, 2645.000000)">
                <g id="Amazon-Web" transform="translate(28.000000, 61.000000)">
                    <g id="amazon-logo" transform="translate(20.400000, 14.470588)" fill-rule="nonzero">
                        <path d="M20.5374698,1.99228992 C20.057414,1.33723739 19.2717488,1.0452416 18.5556,1.0452416 C17.5443349,1.0452416 16.602586,1.55558824 16.1868,2.64992647 C15.7067442,1.55688025 15.0351907,1.0452416 13.9635907,1.0452416 C12.9077302,1.0452416 12.1246884,1.55558824 11.7062791,2.64992647 L11.6774233,2.64992647 L11.6774233,1.51811975 C11.6669302,1.36178571 11.5331442,1.23516807 11.3665674,1.22870798 L9.76900465,1.22870798 C9.58668837,1.22870798 9.43847442,1.36695378 9.43847442,1.54008403 L9.43847442,10.2017647 C9.45027907,10.3568067 9.58144186,10.4769643 9.74539535,10.4873004 L11.459693,10.4873004 C11.6420093,10.4873004 11.7889116,10.3464706 11.7889116,10.1746324 L11.7889116,5.58151261 C11.7889116,4.58019958 11.7390698,3.19386555 12.9693767,3.19386555 C14.1865674,3.19386555 14.0278605,4.61508403 14.0278605,5.58151261 L14.0278605,10.1733403 C14.0278605,10.3400105 14.1642698,10.4730882 14.3374047,10.4860084 L16.0477674,10.4860084 C16.232707,10.4860084 16.3782977,10.3451786 16.3782977,10.1733403 L16.3782977,5.58151261 C16.3782977,5.0892542 16.3625581,4.35797269 16.5370047,3.92127101 C16.7127628,3.48456933 17.1469116,3.21195378 17.561386,3.21195378 C18.058493,3.21195378 18.4414884,3.37603992 18.5687163,3.95744748 C18.6500372,4.305 18.6172465,5.21587185 18.6172465,5.58151261 L18.6172465,10.1733403 C18.6172465,10.3400105 18.7549674,10.4730882 18.9254791,10.4860084 L20.6371535,10.4860084 C20.8194698,10.4860084 20.9663721,10.3451786 20.9663721,10.1733403 L20.9689953,4.70810924 C20.9689953,3.77914916 21.0791721,2.72098739 20.5374698,1.99228992 Z" id="Path" fill="#000000"></path>
                        <path d="M43.1210791,1.04653361 C40.6421023,1.04653361 39.2675163,3.14347689 39.2675163,5.83862395 C39.2675163,8.51826681 40.6250512,10.6681828 43.1210791,10.6681828 C45.5187349,10.6681828 47.0389116,8.57253151 47.0389116,5.93035714 C47.0454698,3.19644958 45.6656372,1.04653361 43.1210791,1.04653361 Z M43.1210791,8.88261555 C41.7779721,8.88261555 41.7924,6.62287815 41.7924,5.56471639 C41.7924,4.50913866 41.8737209,2.81401261 43.1341953,2.81401261 C43.6772093,2.81401261 44.0641395,3.04915966 44.2543256,3.65253151 C44.4799256,4.34505252 44.5114047,5.21845588 44.5114047,5.94973739 C44.5166512,7.06087185 44.4523814,8.88261555 43.1210791,8.88261555 Z" id="Shape" fill="#000000"></path>
                        <path d="M30.5609302,8.90328782 C30.2487628,8.47433824 29.9182326,8.12807773 29.9182326,7.33865546 L29.9182326,4.70810924 C29.9182326,3.59568277 29.9956186,2.57240546 29.1627349,1.80494748 C28.5056093,1.18348739 27.4156465,0.965136555 26.5827628,0.965136555 C24.9537209,0.965136555 23.1318698,1.56334034 22.7514977,3.54787815 C22.7108372,3.75976891 22.8656093,3.87088235 23.0059535,3.90189076 L24.6664744,4.07760504 C24.8212465,4.07114496 24.9353581,3.92127101 24.9655256,3.76881303 C25.1058698,3.08533613 25.6895442,2.75587185 26.3427349,2.75587185 C26.6955628,2.75587185 27.0956093,2.88378151 27.3015349,3.19515756 C27.544186,3.54141807 27.5113953,4.01688025 27.5113953,4.41740546 L27.5100837,4.63188025 C26.5171814,4.74428571 25.2186698,4.81534664 24.2887256,5.21845588 C23.2145023,5.67453782 22.4629395,6.60737395 22.4629395,7.97691176 C22.4629395,9.73017857 23.5830698,10.607458 25.0245488,10.607458 C26.2417395,10.607458 26.9106698,10.3245063 27.8497953,9.38004202 C28.1593395,9.8244958 28.2629581,10.0415546 28.8322047,10.5066807 C28.9620558,10.5738655 29.1260093,10.5661134 29.2388093,10.4679202 L29.2414326,10.4705042 C29.5837674,10.1733403 30.2041674,9.63715336 30.5530605,9.35032563 C30.6907814,9.23792017 30.671107,9.05445378 30.5609302,8.90328782 Z M27.5100837,6.35155462 C27.5100837,7.00919118 27.5284465,7.5570063 27.1887349,8.1409979 C26.9185395,8.61646008 26.4843907,8.90716387 26.0069581,8.90716387 C25.3472093,8.90716387 24.9615907,8.41490546 24.9615907,7.68491597 C24.9615907,6.24690126 26.2705953,5.98591387 27.5100837,5.98591387 L27.5100837,6.35155462 Z" id="Shape" fill="#000000"></path>
                        <path d="M54.9152372,2.06593487 C54.4338698,1.31914916 53.6796837,1.0452416 52.9123814,1.04394958 C51.7306047,1.04394958 51.0551163,1.60856092 50.5776837,2.79334034 L50.5501395,2.79334034 L50.5501395,1.46902311 C50.5173488,1.33336134 50.3914326,1.23258403 50.2432186,1.22612395 L48.6548372,1.22612395 C48.4803907,1.22612395 48.3400465,1.35015756 48.324307,1.50907563 L48.3269302,10.1733403 C48.3269302,10.3400105 48.4620279,10.4756723 48.6364744,10.4885924 L50.3402791,10.4885924 C50.5252186,10.4885924 50.6734326,10.3477626 50.6760558,10.1733403 L50.6760558,5.5117437 C50.6760558,4.92646008 50.7062233,4.40060924 50.950186,3.87088235 C51.1403721,3.45356092 51.5220558,3.17836134 51.9417767,3.17836134 C53.1222419,3.17836134 53.0094419,4.56469538 53.0094419,5.5117437 L53.0094419,10.2159769 C53.0225581,10.3619748 53.1576558,10.4756723 53.3111163,10.4898845 L55.0306605,10.4898845 C55.2024837,10.4898845 55.3402047,10.3671429 55.363814,10.2159769 L55.363814,4.76366597 C55.363814,3.92514706 55.363814,2.76103992 54.9152372,2.06593487 Z" id="Path" fill="#000000"></path>
                        <path d="M38.1434512,8.14228992 C37.1597302,7.59705882 36.0173023,7.43684874 34.9312744,7.46398109 L37.8535814,3.36053571 C38.1224651,2.99101891 38.2759256,2.7597479 38.2759256,2.58144958 L38.2759256,1.52070378 C38.2759256,1.33465336 38.1329581,1.2067437 37.9506419,1.2067437 L32.3198233,1.2067437 C32.1440651,1.2067437 32.0024093,1.33206933 32.0024093,1.52070378 L32.0024093,2.7597479 C32.0024093,2.9445063 32.1440651,3.07112395 32.327693,3.07112395 L35.270986,3.07112395 L31.8896093,7.84641807 C31.6849953,8.15262605 31.6823721,8.49630252 31.6823721,8.69785714 L31.6823721,9.9549895 C31.6823721,10.1358718 31.8909209,10.3438866 32.0850419,10.2379412 C34.0013302,9.23662815 36.2993023,9.33611345 38.0306512,10.2301891 C38.2457581,10.3387185 38.4451256,10.1268277 38.4451256,9.94594538 L38.4451256,8.62292017 C38.4254512,8.44591387 38.3664279,8.2637395 38.1434512,8.14228992 Z" id="Path" fill="#000000"></path>
                        <path d="M37.0548,11.2780147 C36.7045953,10.8503571 33.6878512,10.4821324 31.8476372,11.7547689 C31.5669488,11.9498634 31.6128558,12.219895 31.9289581,12.1837185 C32.9638326,12.0635609 35.2722977,11.7909454 35.6815256,12.3077521 C36.0920651,12.8258508 35.2237674,14.9654307 34.834214,15.9189391 C34.7148558,16.2083508 34.9693116,16.3246324 35.2342605,16.1075735 C36.9642977,14.6889391 37.4076279,11.7095483 37.0548,11.2780147 Z" id="Path" fill="#43D92D"></path>
                        <path d="M33.8806605,13.071334 C30.276307,14.5791176 26.3558512,15.3052311 22.7882233,15.3052311 C17.5062977,15.3052311 12.387014,13.8801366 8.25145116,11.5079937 C7.89075349,11.298687 7.62186977,11.6643277 7.92223256,11.9317752 C11.7561209,15.3439916 16.8229395,17.3957143 22.4511349,17.3957143 C26.4673395,17.3957143 31.1275535,16.1515021 34.3462884,13.8155357 C34.8774977,13.4279307 34.424986,12.8465231 33.8806605,13.071334 Z" id="Path" fill="#43D92D"></path>
                        <path d="M8.09930233,8.90328782 C7.78582326,8.47433824 7.4539814,8.12807773 7.4539814,7.33865546 L7.4539814,4.70810924 C7.4539814,3.59568277 7.5339907,2.57240546 6.70110698,1.80494748 C6.04266977,1.18348739 4.9540186,0.965136555 4.11851163,0.965136555 C2.48946977,0.965136555 0.671553488,1.56334034 0.287246512,3.54787815 C0.247897674,3.75976891 0.405293023,3.87088235 0.541702326,3.90189076 L2.20746977,4.07760504 C2.3596186,4.07114496 2.47373023,3.92127101 2.50389767,3.76881303 C2.64424186,3.08533613 3.22922791,2.75587185 3.8824186,2.75587185 C4.23393488,2.75587185 4.63266977,2.88378151 4.84253023,3.19515756 C5.08124651,3.54141807 5.04845581,4.01688025 5.04845581,4.41740546 L5.04845581,4.63446429 C4.05686512,4.74816176 2.75835349,4.81922269 1.82709767,5.22233193 C0.756809302,5.67582983 0,6.60866597 0,7.97820378 C0,9.73147059 1.12275349,10.60875 2.56423256,10.60875 C3.78404651,10.60875 4.45035349,10.3257983 5.38947907,9.38133403 C5.70033488,9.82578782 5.80264186,10.0428466 6.37188837,10.5079727 C6.50042791,10.5751576 6.66306977,10.5674055 6.7771814,10.4692122 L6.78242791,10.4717962 C7.12345116,10.1746324 7.74385116,9.63844538 8.09536744,9.35161765 C8.2344,9.23533613 8.2107907,9.05445378 8.09930233,8.90328782 Z M5.04845581,6.35155462 C5.04845581,7.00919118 5.0668186,7.5570063 4.7284186,8.1409979 C4.45691163,8.61646008 4.02538605,8.90716387 3.54270698,8.90716387 C2.8855814,8.90716387 2.50389767,8.41490546 2.50389767,7.68491597 C2.50389767,6.24690126 3.8115907,5.98591387 5.04845581,5.98591387 L5.04845581,6.35155462 Z" id="Shape" fill="#000000"></path>
                    </g>
                    <rect id="Rectangle" stroke="#24527a" stroke-width="1.80000007" x="0.900000036" y="0.900000036" width="94.1999999" height="39.1999999" rx="19.6"></rect>
                </g>
            </g>
        </g>
    </g>
</svg>