<?xml version="1.0" encoding="UTF-8"?>
<svg width="50px" height="75px" viewBox="0 0 50 75" version="1.1" xmlns="http://www.w3.org/2000/svg" xmlns:xlink="http://www.w3.org/1999/xlink">
    <!-- Generator: Sketch 54 (76480) - https://sketchapp.com -->
    <title>Business Intelligence</title>
    <desc>Created with Sketch.</desc>
    <g id="Page-1" stroke="none" stroke-width="1" fill="none" fill-rule="evenodd">
        <g id="Enterprise-Software-Solutions" transform="translate(-1198.000000, -1884.000000)" fill-rule="nonzero">
            <g id="Group-4" transform="translate(1170.000000, 1830.000000)">
                <g id="Business-Intelligence" transform="translate(28.000000, 54.000000)">
                    <path d="M6.04166667,1.55468127 C5.20487159,1.55468127 4.52651515,2.22357856 4.52651515,3.04870518 L4.52651515,48.3104582 L8.875,39.6809761 L8.875,1.55468127 L6.04166667,1.55468127 Z" id="Path" fill="#D4E1F4"/>
                    <g id="Group" transform="translate(2.727273, 0.000000)" fill="#24527a">
                        <path d="M42.0665152,6.77626358e-21 L3.59363636,6.77626358e-21 C1.66015644,-0.00960783533 0.0835865387,1.52573032 0.0692424242,3.43222112 L0.0692424242,51.1688247 L1.88742424,51.1688247 L1.88742424,3.43222112 C1.900642,2.51542287 2.66384288,1.78211092 3.59363636,1.79282869 L42.0665152,1.79282869 C42.9979755,1.78262031 43.7616615,2.51853823 43.7727273,3.43700199 L44.0375758,53.3154382 L45.8557576,53.3060259 L45.5909091,3.43222112 C45.576565,1.52573032 43.9999951,-0.00960783533 42.0665152,6.77626358e-21 Z" id="Path"/>
                        <path d="M5.30075758,7.41125498 L20.994697,7.41125498 C21.496774,7.41125497 21.9037879,7.0099166 21.9037879,6.51484064 C21.9037879,6.01976468 21.496774,5.61842631 20.994697,5.61842629 L5.30075758,5.61842629 C4.79868053,5.61842629 4.39166667,6.01976467 4.39166667,6.51484064 C4.39166667,7.00991661 4.79868053,7.41125498 5.30075758,7.41125498 L5.30075758,7.41125498 Z" id="Path"/>
                        <path d="M3.68439394,12.2085657 C3.68439394,12.7036417 4.0914078,13.1049801 4.59348485,13.1049801 L20.994697,13.1049801 C21.496774,13.1049801 21.9037879,12.7036417 21.9037879,12.2085657 C21.9037879,11.7134898 21.496774,11.3121514 20.994697,11.3121514 L4.59348485,11.3121514 C4.0914078,11.3121514 3.68439394,11.7134898 3.68439394,12.2085657 Z" id="Path"/>
                        <path d="M41.2092424,17.0060259 L4.59348485,17.0060259 C4.0914078,17.0060259 3.68439394,17.4073643 3.68439394,17.9024402 C3.68439394,18.3975162 4.0914078,18.7988546 4.59348485,18.7988546 L41.2092424,18.7988546 C41.7113195,18.7988546 42.1183333,18.3975162 42.1183333,17.9024402 C42.1183333,17.4073643 41.7113195,17.0060259 41.2092424,17.0060259 L41.2092424,17.0060259 Z" id="Path"/>
                        <path d="M41.2092424,22.699751 L4.59348485,22.699751 C4.0914078,22.699751 3.68439394,23.1010894 3.68439394,23.5961653 C3.68439394,24.0912413 4.0914078,24.4925797 4.59348485,24.4925797 L41.2092424,24.4925797 C41.7113195,24.4925797 42.1183333,24.0912413 42.1183333,23.5961653 C42.1183333,23.1010894 41.7113195,22.699751 41.2092424,22.699751 Z" id="Path"/>
                        <path d="M11.1878788,30.92749 C11.5772727,30.0951693 11.5724242,29.3015438 11.1742424,28.6931773 C10.8384848,28.1802789 10.2325758,27.8290339 9.4680303,27.7041335 C8.44939394,27.5374004 7.32818182,27.7910857 6.61151515,28.3498506 C5.82166667,28.9656873 5.38424242,30.0309263 5.39393939,31.2684263 L5.3769697,31.261255 C5.07846347,31.1350466 4.73434882,31.1754558 4.47425042,31.3672609 C4.21415202,31.5590659 4.07758499,31.873127 4.11599283,32.1911404 C4.15440067,32.5091538 4.36194831,32.7828056 4.66045455,32.9090139 C5.02683523,33.0644472 5.40671408,33.1869076 5.79545455,33.2749004 C6.19909091,34.251245 6.88121212,35.0251494 7.72939394,35.4216633 C8.2651312,35.6620232 8.84796981,35.7831171 9.43651515,35.7763446 C10.2837989,35.7805546 11.1155835,35.5523861 11.8389394,35.1173307 C12.3567392,34.7760721 12.803514,34.3402435 13.1551515,33.8333665 C13.2148485,33.7549303 13.2868182,33.6603586 13.3501515,33.5843127 C13.5964158,33.8000969 13.867995,33.9860316 14.1590909,34.1381474 C14.9096316,34.5279384 15.7428755,34.7375549 16.5910606,34.7499502 C17.6109667,34.7671574 18.6158995,34.506438 19.4951515,33.9965139 C19.7788258,33.8367763 19.953773,33.539241 19.9534227,33.2171253 C19.9530724,32.8950096 19.7774785,32.5978449 19.4934574,32.4387076 C19.2094364,32.2795702 18.8606618,32.2829306 18.5798485,32.44751 C17.9903495,32.7914029 17.315918,32.9679231 16.6310606,32.9575697 C16.0694198,32.9516712 15.5171409,32.8149892 15.0192424,32.5586653 C14.8247502,32.4568709 14.6451376,32.3295682 14.485303,32.1802291 C14.201021,31.8872383 13.8133523,31.7132782 13.4025758,31.6943725 C12.5271212,31.6698705 12.0506061,32.2979582 11.7010606,32.7570717 C11.4796325,33.087035 11.1974971,33.3731921 10.8692424,33.600747 C10.1975758,34.0183267 9.16045455,34.1064741 8.50833333,33.8016932 C8.28891196,33.6946439 8.09452618,33.5436749 7.93757576,33.3584163 C8.64923054,33.2523762 9.32197749,32.9700666 9.89287879,32.5378984 C10.4441348,32.1061799 10.8872366,31.5551569 11.1878788,30.92749 L11.1878788,30.92749 Z M8.77121212,31.1267928 C8.32645748,31.4517389 7.78852313,31.628986 7.235,31.6329681 C7.14409091,30.8161853 7.34560606,30.0630478 7.73924242,29.7561753 C8.06190686,29.5427785 8.44424022,29.4343695 8.83257576,29.4461653 C8.94579949,29.4459245 9.05885341,29.4548187 9.17060606,29.472759 C9.49045455,29.5250498 9.62515152,29.6321713 9.64666667,29.665488 C9.74242424,29.8125 9.44833333,30.6035857 8.77121212,31.1267928 L8.77121212,31.1267928 Z" id="Shape"/>
                        <path d="M41.2092424,31.4368028 L27.5640909,31.4368028 C27.0620139,31.4368028 26.655,31.8381412 26.655,32.3332171 C26.655,32.8282931 27.0620139,33.2296315 27.5640909,33.2296315 L41.2092424,33.2296315 C41.7113195,33.2296315 42.1183333,32.8282931 42.1183333,32.3332171 C42.1183333,31.8381412 41.7113195,31.4368028 41.2092424,31.4368028 Z" id="Path"/>
                    </g>
                    <path d="M22.6704545,73.7151394 L23.3280303,72.8230578 L24.5586364,73.7840139 C25.9791249,74.9639225 28.0958277,74.8066082 29.3209091,73.4300797 C29.7571841,72.9394041 30.0354646,72.3317816 30.120303,71.6846116 C31.3965066,72.0610491 32.7781131,71.6685725 33.6556061,70.6803287 C34.0918253,70.1894343 34.3699522,69.5815936 34.4545455,68.9342629 C35.7307026,69.3107148 37.1122738,68.9182314 37.989697,67.9299801 C38.3979085,67.4691816 38.6676188,66.9052033 38.7684848,66.301494 C40.1086953,66.8130299 41.6302666,66.443136 42.5757576,65.3759462 L42.6166667,65.3297809 C43.1934141,64.6781019 43.4816316,63.825902 43.4170143,62.963318 C43.3523969,62.100734 42.9403215,61.2995412 42.2727273,60.738496 L41.5237879,60.1066733 C42.0348111,59.7656009 42.4993147,59.3612501 42.9059091,58.9035359 C43.2794434,59.4155548 43.8800421,59.7190341 44.519697,59.7189741 C44.7932881,59.7187291 45.0639545,59.6634697 45.3151515,59.5565737 L48.7666667,58.0954183 C49.2622753,57.8870482 49.6505168,57.4887308 49.84202,56.9921568 C50.0335232,56.4955828 50.0117882,55.943537 49.7818182,55.4630976 L41.4174242,38.0278386 C40.9649177,37.0951922 39.859844,36.6641205 38.8827273,37.0390936 L35.3356061,38.4047809 C34.8217217,38.6011564 34.4139254,38.9995932 34.2100657,39.5044885 C34.0062059,40.0093838 34.024682,40.5751685 34.2610606,41.0660857 L34.6313636,41.8335657 L34.5193939,41.8801793 C33.165303,42.1546315 32.2204545,42.1148904 30.8201515,41.7307769 L27.2763636,40.7569721 C26.2262792,40.4677448 25.113624,40.4853393 24.0734848,40.8076195 L20.6534848,41.8649402 C19.9706567,42.0756191 19.3350307,42.4132159 18.7809091,42.859512 C17.8732217,42.5936998 16.9217414,42.5046434 15.9795455,42.5973108 L16.2280303,42.1350598 C16.7191565,41.2176664 16.3984001,40.0817595 15.4971212,39.5466633 L12.2395455,37.6096614 C11.7686688,37.3294425 11.201579,37.2526963 10.67155,37.3974591 C10.1415209,37.5422218 9.69528988,37.8957286 9.43772727,38.3749004 L0.255909091,55.5548307 C-0.251409101,56.4935698 0.10095777,57.660049 1.04651515,58.1720618 L4.32333333,59.9768426 C4.62056668,60.1417002 4.95579075,60.2284406 5.29681818,60.2287351 C5.49011365,60.2285193 5.68237705,60.2009473 5.86772727,60.1468625 C6.3831071,59.9990104 6.81545634,59.651041 7.06560606,59.1827689 L7.42045455,58.5225598 L8.60227273,59.4856076 L6.52787879,62.3007968 C5.82918395,63.2481854 5.72882091,64.5020708 6.26814278,65.545808 C6.80746464,66.5895452 7.89520709,67.2465124 9.08318182,67.2460159 C9.26774868,67.2459826 9.45196806,67.2302369 9.63378788,67.1989542 C9.63469697,67.2047809 9.63484848,67.210757 9.63575758,67.2165837 C9.76849919,68.0369119 10.230344,68.7700931 10.9172727,69.250996 C11.4531232,69.6285859 12.0954788,69.8311501 12.7540909,69.8302291 C12.9390642,69.8301521 13.1236866,69.8143566 13.3059091,69.7830179 C13.3069697,69.7891434 13.3071212,69.7954183 13.3080303,69.8016932 C13.5560742,71.3096188 14.8771285,72.4172463 16.4263636,72.4162351 C16.6108806,72.4162081 16.7950502,72.4004623 16.9768182,72.3691733 C16.9777273,72.3751494 16.9778788,72.3809761 16.9787879,72.3868028 C17.2272229,73.8944923 18.5485148,75.0015878 20.0975758,75 C21.1143859,75.002711 22.0709879,74.524997 22.6704545,73.7151394 L22.6704545,73.7151394 Z M35.8977273,40.1705677 C35.9153188,40.1263608 35.9512859,40.0917113 35.9965152,40.0753984 L39.5436364,38.7095618 C39.6311257,38.6745673 39.7311909,38.7118614 39.7733333,38.7951693 L48.1369697,56.2304283 C48.1559525,56.2690304 48.1578184,56.3136738 48.1421212,56.3536853 C48.1256001,56.3968799 48.0915522,56.4313194 48.0481818,56.4487052 L44.5966667,57.91001 C44.5083446,57.9483134 44.4050605,57.9119172 44.3613636,57.8270916 L43.9265152,56.9223108 C43.8968149,56.7998698 43.8413769,56.6849409 43.7637879,56.5849602 L35.9027273,40.2959163 C35.8831765,40.256573 35.8815238,40.2108859 35.8981818,40.1702689 L35.8977273,40.1705677 Z M21.1969697,43.575747 L24.6169697,42.5184263 C25.3220481,42.3000812 26.0762361,42.2881962 26.7880303,42.4842131 L30.3316667,43.4575697 C32.0598485,43.9322211 33.2762121,43.9739044 34.9801515,43.6169821 C35.0365781,43.6051709 35.0917286,43.588061 35.1448485,43.5658865 L35.4127273,43.4542829 L42.0036364,57.1096614 C41.5186651,57.8488627 40.8550536,58.4576836 40.0724242,58.8814243 L37.3939394,56.623506 L28.0871212,47.6314243 C27.4660599,47.0326441 26.7020553,46.5977537 25.8656061,46.3668825 L24.2625758,45.9249502 C24.1817993,45.9021536 24.0981068,45.8909825 24.0140909,45.8917829 C22.9295455,45.8962649 22.0045455,46.4920817 21.4093939,47.5694223 C21.1561641,48.0340932 20.9758812,48.5339521 20.874697,49.0519422 C20.869643,49.081278 20.8661031,49.110848 20.8640909,49.1405378 C20.8601515,49.1955179 20.8555556,49.2502988 20.850303,49.3048805 C20.7452425,50.3346551 20.1723061,51.2619114 19.2924242,51.8261952 C18.4198953,52.3777296 17.3506762,52.537378 16.3516667,52.2652888 L17.1212121,49.9688247 C17.3271212,49.3544821 17.5587879,48.7401394 17.8098485,48.1425299 L18.8515152,45.6624502 C19.2854149,44.6615556 20.1427958,43.8987613 21.1969697,43.575747 Z M5.45969697,58.3434263 C5.43751897,58.3845738 5.39917261,58.4149311 5.35363636,58.4273904 C5.30590366,58.4420073 5.25417364,58.4366038 5.21060606,58.4124502 L1.93363636,56.6076693 C1.85459238,56.5662143 1.82400895,56.4698185 1.865,56.3913347 L11.0468182,39.2115538 C11.0693393,39.1693592 11.1088218,39.1384522 11.1556061,39.1263944 C11.1723876,39.121819 11.1897102,39.1194578 11.2071212,39.1193725 C11.2403404,39.1194381 11.2728978,39.1285367 11.3012121,39.1456673 L14.5578788,41.0826693 C14.6339825,41.1253693 14.6620629,41.2198679 14.6213636,41.2963147 L5.45969697,58.3434263 Z M8.29030303,56.9052789 L14.9043939,44.5981076 C15.7358488,44.3698695 16.6042662,44.3025946 17.4616667,44.4 C17.3553407,44.5836955 17.2597799,44.7732494 17.1754545,44.9677291 L16.13,47.4561753 C15.8621212,48.0941235 15.6148485,48.7501494 15.395,49.4057271 L14.3521212,52.5167331 C14.2050586,52.9552153 14.4199209,53.4321081 14.8484848,53.6184263 L15.0731818,53.7162849 C16.7674357,54.4730203 18.7362259,54.3245664 20.2940909,53.3226096 C21.6332021,52.4608013 22.503501,51.0464832 22.660303,49.4772908 C22.6654545,49.4256972 22.6700505,49.3737052 22.6740909,49.3213147 C22.7239394,49.0900398 23.0421212,47.7914343 23.9165152,47.6901394 L25.3768182,48.0926295 C25.9187236,48.2419518 26.4137517,48.5234716 26.8162121,48.9112052 L36.145,57.9246514 C36.1601515,57.9386952 36.175303,57.9522908 36.1904545,57.9654382 L41.0909091,62.100747 C41.3897693,62.3508992 41.5743971,62.7087924 41.6034462,63.0942785 C41.6324952,63.4797646 41.5035383,63.8606342 41.2454545,64.1515936 L41.204697,64.197759 C40.6319585,64.8458708 39.6375484,64.9203349 38.9721212,64.3649402 L37.6465152,63.2453187 C37.6443939,63.2435259 37.6427273,63.2415837 37.6406061,63.2397908 L34.1271212,60.2737052 C33.8815677,60.0566244 33.5360444,59.9876988 33.2242278,60.0935945 C32.9124113,60.1994902 32.6832103,60.4635972 32.6252984,60.7837376 C32.5673866,61.103878 32.6898474,61.4298373 32.945303,61.635508 L32.9634848,61.6504482 L32.9937879,61.6756972 C33.2851515,61.9217629 34.8969697,63.2823705 36.4645455,64.6062251 C36.77565,64.8691574 36.9671814,65.2438626 36.9964674,65.6468578 C37.0257533,66.0498529 36.8903607,66.447658 36.6204545,66.7516434 C36.0476097,67.3944941 35.0574888,67.4648201 34.3971212,66.9095618 L30.8827273,63.9442231 C30.6154311,63.7186768 30.2401544,63.66545 29.9192261,63.8075663 C29.5982977,63.9496825 29.3893353,64.2616272 29.3827273,64.6084661 L29.3827273,64.611006 C29.3782241,64.8779043 29.4949253,65.1328204 29.7009091,65.3060259 L32.1251515,67.3519422 C32.4383596,67.6143276 32.6317801,67.9896021 32.6621097,68.3937485 C32.6924392,68.7978948 32.5571443,69.1971548 32.2865152,69.5021414 C31.7136028,70.1451065 30.7233189,70.2154346 30.0628788,69.6600598 L28.9734848,68.740488 L28.9725758,68.7395916 L27.6392424,67.6145916 C27.2567703,67.304848 26.6932864,67.3537141 26.3715145,67.7245308 C26.0497426,68.0953475 26.0879281,68.6518464 26.4574242,68.9765438 L27.6165152,69.9548307 L27.790303,70.1015438 C28.1035881,70.3639383 28.2970709,70.7392579 28.3274294,71.1434661 C28.3577878,71.5476742 28.2224857,71.9470036 27.9518182,72.2520418 C27.3789592,72.8949886 26.3887235,72.9653181 25.7283333,72.4099602 C25.7195455,72.40249 25.7104545,72.3950199 25.7015152,72.3881474 L24.1530303,71.1790339 C24.3163041,70.3062087 24.0927891,69.4062182 23.5389827,68.7065497 C22.9851762,68.0068812 22.1540764,67.5744919 21.2557576,67.5186753 C21.4081576,66.649879 21.1786627,65.7581688 20.6245673,65.0661641 C20.0704719,64.3741594 19.2440664,63.9471653 18.3516667,63.8917829 C18.5003113,63.0435337 18.2852196,62.1725007 17.7577317,61.486591 C17.2302439,60.8006812 16.4376891,60.3614383 15.5692424,60.2737052 C15.9371285,58.82295 15.2102458,57.3186728 13.8358603,56.6864867 C12.4614747,56.0543005 10.8254833,56.4717092 9.93454545,57.6818725 L9.67530303,58.0334163 L8.29030303,56.9052789 Z M8.30409091,65.2081673 C8.01304063,65.0032119 7.8170622,64.6921207 7.75970488,64.3440226 C7.70234756,63.9959246 7.78836265,63.6396551 7.99863636,63.3543825 L11.4036364,58.7354582 C11.8415559,58.1446411 12.6796184,58.0103841 13.284697,58.4341135 C13.5756445,58.6388715 13.7715674,58.9497662 13.828901,59.2976683 C13.8862345,59.6455704 13.800226,60.0016402 13.59,60.2867032 L12.6666667,61.5388446 L10.1983333,64.8871016 L10.1839394,64.9065239 C9.74646678,65.497142 8.90890417,65.6315386 8.30409091,65.2081673 L8.30409091,65.2081673 Z M11.9739394,67.7928287 C11.683397,67.58833 11.4877097,67.2778864 11.4303537,66.93047 C11.3729978,66.5830535 11.4587235,66.2274373 11.6684848,65.9426295 L14.1381818,62.5934761 C14.5759592,62.0039809 15.4124883,61.8700069 16.0169697,62.2925797 C16.30802,62.4975351 16.5039984,62.8086263 16.5613557,63.1567244 C16.618713,63.5048224 16.532698,63.8610919 16.3224242,64.1463645 L15.5445455,65.2015936 L13.8712121,67.4701195 L13.8568182,67.4895418 C13.4186034,68.0809837 12.5799064,68.2157451 11.9739394,67.7920817 L11.9739394,67.7928287 Z M15.6472727,70.3792829 C15.3562126,70.1742999 15.160231,69.8631828 15.1028743,69.5150604 C15.0455176,69.166938 15.1315366,68.8106451 15.3418182,68.5253486 L17.040303,66.2214143 C17.478315,65.6307458 18.3162451,65.4965099 18.9213636,65.9200697 C19.2122873,66.1248505 19.4081799,66.4357561 19.4654848,66.7836568 C19.5227897,67.1315575 19.4367567,67.4876147 19.2265152,67.7726594 L18.0990909,69.3020916 L17.5415152,70.0583665 L17.5415152,70.0591135 L17.5272727,70.0783865 C17.0891389,70.6683017 16.2518024,70.8019858 15.6472727,70.3785359 L15.6472727,70.3792829 Z M21.199697,72.6614044 C20.7613135,73.2525092 19.9227575,73.3868703 19.3171212,72.9630478 C19.0266805,72.7584727 18.8310738,72.4480386 18.7737239,72.1006588 C18.716374,71.753279 18.8020262,71.3976971 19.0116667,71.1128486 L19.9439394,69.8483068 C20.3820437,69.2577866 21.2198416,69.1235719 21.825,69.5469622 C22.1159237,69.7517429 22.3118163,70.0626485 22.3691211,70.4105492 C22.426426,70.7584499 22.340393,71.1145072 22.1301515,71.3995518 L21.199697,72.6614044 Z" id="Shape" fill="#43D92D"/>
                </g>
            </g>
        </g>
    </g>
</svg>