<?xml version="1.0" encoding="UTF-8"?>
<svg width="64px" height="77px" viewBox="0 0 64 77" version="1.1" xmlns="http://www.w3.org/2000/svg" xmlns:xlink="http://www.w3.org/1999/xlink">
    <!-- Generator: Sketch 54 (76480) - https://sketchapp.com -->
    <title>Cloud Application</title>
    <desc>Created with Sketch.</desc>
    <g id="Page-1" stroke="none" stroke-width="1" fill="none" fill-rule="evenodd">
        <g id="Cloud-Services" transform="translate(-1023.000000, -1635.000000)" fill-rule="nonzero">
            <g id="Group-4" transform="translate(976.000000, 1586.000000)">
                <g id="Cloud-Application" transform="translate(47.000000, 49.000000)">
                    <g id="Group" transform="translate(16.198511, 22.478261)" fill="#DAE5F3">
                        <path d="M6.34987593,4.35105303 C7.73076931,2.97044829 9.34367254,1.84516535 11.1141439,1.02689081 C11.4069479,0.72361858 11.7084366,0.432178522 12.0223325,0.154438406 C9.33995037,0.929121377 6.89702241,2.3726222 4.92059553,4.35105303 C5.71526051,5.14192704 6.58995041,5.84748649 7.53039706,6.45714443 C7.6426799,6.19870916 7.76116629,5.94463307 7.88275438,5.69367078 C7.34429284,5.27892886 6.83188582,4.83055929 6.34987593,4.35105303 Z" id="Path"></path>
                        <path d="M3.64764268,5.81759519 C1.52233259,8.49722596 0.275434243,11.772192 0.0787841588,15.1916327 L1.50806456,15.1916327 C1.68672461,12.1034873 2.72208437,9.12743429 4.49689822,6.59912813 C4.20657564,6.34816568 3.92307692,6.08848501 3.64764268,5.81759519 Z" id="Path"></path>
                        <path d="M1.50806456,17.1046762 L0.0787841588,17.1046762 C0.275434243,20.5160212 1.52233259,23.7822691 3.64764268,26.4519361 C3.92183615,26.181669 4.20409425,25.9207428 4.4950373,25.6685349 C2.72084359,23.1508152 1.6861043,20.1834806 1.50806456,17.1046762 L1.50806456,17.1046762 Z" id="Path"></path>
                        <path d="M11.1147642,31.1641757 C9.34429284,30.3459012 7.73200993,29.2206182 6.35049624,27.8400135 C6.83250628,27.3598846 7.34491315,26.911515 7.88337469,26.4961504 C7.7617866,26.2451879 7.64330021,25.9911118 7.53101737,25.7326766 C6.59057072,26.3423347 5.71588097,27.0485168 4.92121584,27.8400135 C6.89764272,29.8184443 9.34119099,31.2619452 12.0235733,32.0366281 C11.7090571,31.7582655 11.4075682,31.4668251 11.1147642,31.1641757 L11.1147642,31.1641757 Z" id="Path"></path>
                    </g>
                    <path d="M14.528536,45.4814878 L16.3442928,45.4814878 C16.8703474,45.4814878 17.2971464,45.0530458 17.2971464,44.5249661 C17.2971464,43.9968864 16.8703474,43.5684443 16.3442928,43.5684443 L14.528536,43.5684443 C11.0973945,43.5908628 7.80645161,42.2009172 5.42369731,39.7224298 C3.09801481,37.339221 1.84739446,34.1028646 1.96277916,30.7687386 C2.15880893,25.0314764 6.24813896,20.1778758 11.8511166,19.0314198 C12.3083126,18.9392549 12.6308933,18.5276268 12.6135235,18.0605751 C12.6110421,17.9833561 12.6110421,17.9073822 12.6110421,17.8289177 C12.6104218,11.0691237 16.9050869,5.0622169 23.2853598,2.90007922 C29.6650124,0.737318841 36.7084368,2.90132477 40.7897022,8.27802306 C41.0583126,8.63111413 41.5341191,8.75254759 41.9385856,8.57070883 C44.2196029,7.54381786 46.8635236,7.74682971 48.9621588,9.11062055 C51.0607941,10.4744112 52.3281637,12.8127831 52.3294045,15.3224071 C52.3294045,15.3591486 52.3294045,15.3965127 52.3281637,15.4332541 C52.3145162,15.8417686 52.5614144,16.2135417 52.9416874,16.358639 C58.4162531,18.4684669 62.01799,23.7598505 61.985732,29.6459466 C61.9547147,33.1619112 60.5986352,36.5358923 58.1904467,39.088485 C55.7977667,41.6429461 52.5576923,43.2302989 49.0800248,43.5522531 C48.7382135,43.580899 48.4385856,43.7907609 48.2946651,44.1027513 C48.150124,44.4147418 48.1836228,44.7802876 48.382134,45.0605186 C48.5806452,45.3401268 48.9137717,45.4920743 49.2543425,45.4572011 C53.1947892,45.092278 56.866005,43.2938179 59.5769232,40.3999661 C62.3151365,37.4961504 63.8566997,33.6594769 63.8914392,29.661515 C63.9261786,23.2137115 60.1191067,17.3693388 54.221464,14.8148778 C54.060794,11.8836617 52.5334988,9.19967161 50.0992556,7.57184107 C47.6650124,5.94463307 44.6085608,5.5641418 41.8523572,6.54495026 C37.173077,0.884907116 29.4900744,-1.27349407 22.5632754,1.12652849 C15.6370968,3.52717391 10.9168735,9.98369565 10.7127791,17.3363338 C4.60483875,18.9411232 0.271712238,24.382586 0.0583127345,30.7170517 C-0.0763027692,34.5661798 1.36786597,38.30197 4.05397026,41.0525929 C6.80769239,43.8860394 10.5849876,45.4833561 14.528536,45.4814878 L14.528536,45.4814878 Z" id="Path" fill="#24527a"></path>
                    <path d="M51.1501241,38.5734829 C51.1501241,28.3761889 42.9044664,20.0807292 32.7468983,20.0807292 C22.5887096,20.0807292 14.3021092,28.3761889 14.3021092,38.5734829 C14.3027295,44.8668478 17.4888337,50.72928 22.7599255,54.1356431 L22.7599255,60.5124547 C22.764268,61.6719881 22.0086849,62.6963882 20.9032258,63.0314198 C18.9882134,63.6086957 17.6774194,65.3785099 17.6780397,67.3855865 L17.6780397,68.8197464 C16.3380893,69.29178 15.5328785,70.6655344 15.7723325,72.0710484 C16.0117866,73.4765626 17.2264268,74.5034534 18.6470224,74.5015851 C20.2531017,74.4990942 21.5533499,73.1907269 21.5508685,71.5784648 C21.5347394,70.3361074 20.75,69.2357337 19.5837469,68.8191237 L19.5837469,67.3855865 C19.5800249,66.2266757 20.3349876,65.2022759 21.4404466,64.8672441 C23.355459,64.2893455 24.666253,62.5195313 24.6656327,60.5124547 L24.6656327,55.2117301 C26.0905706,55.8961164 27.5942927,56.4005321 29.1433003,56.7125227 L29.17866,63.7432065 C29.1861042,64.5409307 28.7549627,65.2776268 28.0576923,65.6593636 C26.7437966,66.3755096 25.9280397,67.7592278 25.9361042,69.2600204 L25.9361042,70.5733696 C24.7549627,70.9849977 23.9547147,72.0915988 23.9305211,73.3464107 C23.9292805,74.8297668 25.0353598,76.0789741 26.5031018,76.2527174 C27.9708436,76.4258379 29.3356079,75.4680707 29.6774194,74.0245698 C30.0192308,72.5816915 29.2301489,71.1095448 27.8418114,70.6013926 L27.8418114,69.2600204 C27.8374689,68.460428 28.2717122,67.7243546 28.9714641,67.3432404 C30.2890818,66.6283401 31.1091811,65.243999 31.1054591,63.7400929 L31.0837469,56.9877717 C31.6383374,57.0382133 32.1755584,57.0656136 32.7431763,57.0656136 C33.333747,57.0687273 33.9243177,57.0394588 34.5117866,56.9784307 L34.5117866,60.469486 C34.5167493,62.0506113 35.4683623,63.4729394 36.9243175,64.0751245 C37.6693549,64.3815104 38.1588089,65.1069974 38.164392,65.915308 L38.164392,66.5691802 C36.8225807,67.0381001 36.0136477,68.4112319 36.2518611,69.8179914 C36.4894541,71.2241281 37.7040943,72.2528872 39.1246898,72.2510191 C40.7313896,72.248528 42.0328784,70.9407836 42.0328784,69.3278986 C42.0186105,68.0867867 41.2351117,66.9857903 40.0700992,66.5691802 L40.0700992,65.9159307 C40.0657567,64.3348053 39.1135236,62.9124773 37.6575682,62.3102922 C36.9125311,62.0039063 36.4236973,61.2784193 36.4174938,60.4701087 L36.4174938,56.6919723 C38.6408188,56.22928 40.8641439,55.355582 42.6110421,54.1505888 L42.6110421,63.1522306 C42.6240696,64.641191 43.6600496,65.9240263 45.1085608,66.2453577 C45.6830024,66.3711504 46.0961539,66.878057 46.1048387,67.4684104 L46.1048387,71.2583786 C44.7673697,71.7366395 43.9677419,73.112885 44.2115384,74.5171535 C44.4553351,75.9214221 45.6718363,76.9445766 47.0918114,76.9402174 C47.8616625,76.938972 48.599876,76.6300952 49.1426798,76.0814651 C49.6861043,75.5334578 49.9894541,74.7905344 49.9863523,74.0177197 C49.9665012,72.7741169 49.17866,71.6737432 48.0105459,71.2583786 L48.0105459,67.4684104 C47.9975186,65.9794498 46.9615385,64.6966146 45.5130273,64.3759058 C44.9379653,64.2494904 44.5254343,63.7425838 44.5167493,63.1522306 L44.5167493,52.7413383 C48.7444169,49.2652288 51.1823821,44.0585372 51.1501241,38.5734829 L51.1501241,38.5734829 Z M18.6532258,72.587919 C18.098015,72.5885417 17.6470224,72.1364358 17.6470224,71.5784648 C17.6470224,71.0204937 18.0973945,70.5683877 18.6532258,70.5683877 C19.209057,70.5683877 19.6594293,71.0204937 19.6594293,71.5784648 C19.6588089,72.1358129 19.2084367,72.5872961 18.6532258,72.587919 Z M26.8331266,74.355865 C26.2772953,74.3564878 25.826923,73.9043818 25.826923,73.3464107 C25.8263027,72.7884397 26.2772953,72.3363338 26.8325063,72.3363338 C27.3883375,72.3363338 27.8387097,72.7884397 27.8387097,73.3464107 C27.8380894,73.9037591 27.3883375,74.3552423 26.8331266,74.355865 Z M39.1271712,70.3385983 C38.5719602,70.3385983 38.1209678,69.8864923 38.1209678,69.3291439 C38.1209678,68.7711729 38.5713399,68.319067 39.1271712,68.319067 C39.6830024,68.319067 40.1333747,68.7711729 40.1333747,69.3285212 C40.1327544,69.8858696 39.6823821,70.3373528 39.1271712,70.3379756 L39.1271712,70.3385983 Z M47.1029776,75.0277966 C46.5471463,75.0277966 46.0967742,74.5756907 46.0967742,74.0177197 C46.0967742,73.4603714 46.5471463,73.0082655 47.1029776,73.0076426 C47.6581885,73.0076426 48.1091811,73.4597487 48.1091811,74.0177197 C48.1079405,74.5750679 47.6581885,75.0265512 47.1029776,75.0271739 L47.1029776,75.0277966 Z M42.4820099,46.4535779 C43.1972704,44.2304121 43.5973946,41.9175725 43.6693549,39.5829371 L49.2531017,39.5829371 C49.0502481,43.0148323 47.7890819,46.2985168 45.644541,48.9787704 C44.6867246,48.0216258 43.6253102,47.1747055 42.4813896,46.4529552 L42.4820099,46.4535779 Z M33.7177419,33.4819974 C36.1674939,33.3655458 38.569479,32.7558877 40.7803969,31.6897645 C41.3777915,33.6289628 41.7084366,35.6410212 41.7624069,37.6698936 L33.7177419,37.6698936 L33.7177419,33.4819974 Z M33.7177419,31.5658401 L33.7177419,22.388587 C36.5564516,24.0232676 38.7431763,26.6126019 40.1191067,29.8564312 C38.1228289,30.8565445 35.9447891,31.4381793 33.7177419,31.5658401 Z M31.8120347,22.388587 L31.8120347,31.5664628 C29.5837469,31.4431612 27.4026054,30.8708673 25.3982631,29.8850771 C26.7735732,26.6275476 28.9652605,24.0282495 31.8120347,22.388587 Z M31.8120347,33.4826201 L31.8120347,37.6698936 L23.76799,37.6698936 C23.8207196,35.6503623 24.1482631,33.6476449 24.7413152,31.7177876 C26.959057,32.7695879 29.3622829,33.3692821 31.8120347,33.4826201 Z M31.8120347,39.5829371 L31.8120347,43.6643455 C29.3585609,43.7951201 26.955335,44.4128737 24.7413152,45.4814878 C24.16067,43.5665761 23.8337469,41.5831635 23.76799,39.5829371 L31.8120347,39.5829371 Z M31.8120347,45.5798799 L31.8120347,54.7577559 C28.9652605,53.1180932 26.7735732,50.519418 25.3982631,47.2612658 C27.4026054,46.2754756 29.5837469,45.7038043 31.8120347,45.5798799 Z M33.7177419,45.5798799 C35.9447891,45.7075408 38.1228289,46.2891757 40.1191067,47.2892889 C38.7437966,50.5337409 36.5564516,53.1224524 33.7177419,54.7571331 L33.7177419,45.5798799 Z M33.7177419,43.6637228 L33.7177419,39.5829371 L41.7624069,39.5829371 C41.6954094,41.5931273 41.3653846,43.5858809 40.7803969,45.5095109 C38.5725807,44.4265738 36.1712159,43.7994792 33.7177419,43.6643455 L33.7177419,43.6637228 Z M43.6693549,37.6698936 C43.6110421,35.3165761 43.2102978,32.9844317 42.4813896,30.746943 C43.6246899,30.0345336 44.6861041,29.1957088 45.644541,28.2472826 C47.8151366,30.9225543 49.0787842,34.2236752 49.2531017,37.6698936 L43.6693549,37.6698936 Z M41.7841191,28.8961729 C40.764268,26.5061141 39.2369726,24.3682632 37.3089331,22.6320766 C39.9708436,23.4005321 42.3982629,24.8284648 44.3666253,26.7850996 C43.5800249,27.575351 42.7146402,28.2827785 41.7841191,28.8961729 Z M23.7289082,28.9354053 C22.7884616,28.3257474 21.9137717,27.6201879 21.1191067,26.8293139 C23.0955336,24.8508831 25.5390818,23.4073822 28.221464,22.6326993 C26.2822581,24.3782269 24.7487593,26.529778 23.7289082,28.9354053 Z M23.0359802,30.7855525 C22.3138957,33.0112092 21.9181141,35.3302763 21.8610422,37.6698936 L16.2772953,37.6698936 C16.4739454,34.2504529 17.7208438,30.9754868 19.8461538,28.2958561 C20.8132755,29.2430367 21.8833747,30.0787477 23.0359802,30.7855525 Z M21.8604219,39.5829371 C21.9311414,41.9038722 22.3269231,44.2036346 23.0359802,46.4137228 C21.8821339,47.1304914 20.8120347,47.9742981 19.8455335,48.930197 C17.7208438,46.26053 16.4739454,42.9942821 16.2772953,39.5829371 L21.8604219,39.5829371 Z M23.7289082,48.2109374 C24.7487593,50.6165647 26.2822581,52.7687386 28.221464,54.514889 C25.5390818,53.740206 23.0955336,52.2967052 21.1191067,50.3182744 C21.9137717,49.5267777 22.7884616,48.8205955 23.7289082,48.2109374 L23.7289082,48.2109374 Z M41.7841191,48.2501698 C42.7146402,48.8635642 43.5800249,49.5709918 44.3666253,50.3618659 C42.3982629,52.3178781 39.9708436,53.7458106 37.3089331,54.514889 C39.2369726,52.7787024 40.764268,50.6408514 41.7841191,48.2501698 Z" id="Shape" fill="#43D92D"></path>
                </g>
            </g>
        </g>
    </g>
</svg>