<?xml version="1.0" encoding="UTF-8"?>
<svg width="72px" height="78px" viewBox="0 0 72 78" version="1.1" xmlns="http://www.w3.org/2000/svg" xmlns:xlink="http://www.w3.org/1999/xlink">
    <!-- Generator: Sketch 54 (76480) - https://sketchapp.com -->
    <title>Customer Relationship  Management </title>
    <desc>Created with Sketch.</desc>
    <g id="Page-1" stroke="none" stroke-width="1" fill="none" fill-rule="evenodd">
        <g id="Enterprise-Software-Solutions" transform="translate(-809.000000, -1312.000000)" fill-rule="nonzero">
            <g id="Group-4" transform="translate(781.000000, 1267.000000)">
                <g id="Customer-Relationship--Management-" transform="translate(28.000000, 45.000000)">
                    <path d="M30.8025282,39.5436854 C30.2336683,39.1299813 27.5102072,36.7127473 27.5102072,36.7127473 C23.9988222,33.1047162 22.2236966,28.8495736 22.2236966,24.0172018 L22.2236966,14.1253404 C28.1758794,11.5466779 33.8312657,8.34326624 39.0923367,4.5703125 C38.0429492,3.87218674 37.009108,3.15169877 35.9908135,2.41094458 C30.5848775,6.34462806 24.75424,9.67382817 18.6056061,12.3363496 L18.6056061,22.228211 C18.6056061,27.0605828 20.3814384,31.3164241 23.8928235,34.9237565 C23.8928235,34.9237565 26.6169911,37.3409904 27.1858512,37.7546946 C29.1743875,39.1837909 31.3205087,40.3850703 33.5832286,41.3354717 C32.6235868,40.7889908 31.6957443,40.190797 30.8025282,39.5436854 Z" id="Path" fill="#D4E1F4"/>
                    <path d="M30.7233825,64.6831995 L30.6011307,62.6111848 C30.5997174,62.5818341 30.5968906,62.5524836 30.5926508,62.5238318 C29.9969378,58.2784727 27.0423995,54.724251 22.9459014,53.3252043 L22.2646828,53.0903993 C21.354507,52.7759281 20.5270101,52.2622921 19.8436714,51.5886254 L16.5746703,48.3565617 L15.4595634,44.6241399 C14.8921167,42.552824 13.1226444,41.0210006 10.9715767,40.740073 L10.828125,40.2669688 C10.8252984,40.2578842 10.8224718,40.2487995 10.8196451,40.2411124 C10.2769316,38.6037664 8.5237124,37.5303719 6.6991206,37.5730004 L6.69346734,37.5562286 C5.95076943,35.0858838 3.37287998,33.630931 0.84374991,34.2556802 C0.286903357,34.3926498 -0.0664259698,34.9349377 0.0388662513,35.4932985 L3.6654366,54.7969287 C3.67462312,54.8465453 3.68804967,54.8961619 3.70430267,54.9443807 C4.57207924,57.4671372 6.23343274,59.6495663 8.44527329,61.172305 L16.3669126,66.5700258 C16.3859925,66.5833035 16.4057789,66.5958823 16.4255653,66.6070635 C16.9294126,66.9040638 17.3067683,67.3715776 17.4883794,67.9229501 L18.0883322,75.9433593 C18.1208386,76.3738352 18.4105684,76.7435134 18.8246703,76.881182 L18.9879084,76.9349914 C22.5968121,78.143259 26.5032192,78.1698144 30.1290829,77.0111632 L30.5269316,76.8860738 C30.9763663,76.7435134 31.2809358,76.3305082 31.2809358,75.8643922 L31.2809358,71.3611669 C31.2604428,69.2646932 31.0887248,67.1724125 30.7664886,65.099699 C30.7452889,64.9627294 30.7311558,64.8229644 30.7233825,64.6831995 L30.7233825,64.6831995 Z M13.3657348,45.1908867 C13.3685616,45.1999713 13.3706815,45.2083572 13.3735081,45.2188396 L13.603172,45.9861489 C13.2335899,45.8282146 12.8477544,45.7094144 12.4527325,45.631146 L11.7093278,43.178272 C12.5269316,43.5849878 13.1290044,44.3173559 13.3657348,45.1908867 L13.3657348,45.1908867 Z M8.75266951,40.8973087 L10.1878925,45.6318448 C9.85717646,45.6954379 9.53352706,45.7876827 9.21977077,45.906483 L7.36691264,39.7854788 C8.01138501,39.9406177 8.56540511,40.3515268 8.75196289,40.8980075 L8.75266951,40.8973087 Z M29.1086683,75.0768169 C26.2007694,75.9314794 23.1041929,75.9272863 20.198414,75.0642381 L19.6429805,67.6462156 C19.638034,67.5742366 19.6253141,67.5029566 19.6055276,67.4337729 C19.2910647,66.3275336 18.5639134,65.3806265 17.5710584,64.7845291 L9.67909857,59.4070742 C7.87217337,58.1624677 6.50902957,56.3846581 5.78470468,54.3280176 L2.39415829,36.2850667 C3.44354581,36.4297232 4.31061558,37.1669832 4.61306533,38.1711942 L7.14855528,46.5542932 L7.32168651,47.1063647 C7.29342018,47.1329201 7.26586046,47.1601741 7.23830092,47.1874283 C7.02913007,47.3949792 6.91465134,47.6780031 6.92101122,47.9708106 C6.92807789,48.2636181 7.05598299,48.5410514 7.27504716,48.7388188 L11.2429335,52.3237886 C12.3884266,53.3580489 13.4356941,54.4943377 14.3720162,55.7172806 C14.7359453,56.1854931 15.412924,56.2756414 15.888505,55.919241 C16.364086,55.5635394 16.4601915,54.8947641 16.1033291,54.42166 C15.0871546,53.0945921 13.9501413,51.8611669 12.7078361,50.7381558 L9.71301817,48.0344037 C11.0973618,47.355845 12.7643688,47.6255914 13.857569,48.7045764 L18.3073964,53.1057733 C19.2225188,54.0086546 20.3312657,54.6969969 21.5516645,55.1190868 L22.2321765,55.353193 C25.5449905,56.48459 27.9398554,59.3518672 28.4373429,62.7823968 L28.5560615,64.808988 C28.5680748,65.0074541 28.5885678,65.2080168 28.6168342,65.4043865 C28.9242306,67.3764694 29.0888819,69.3674205 29.109375,71.3618656 L29.1086683,75.0768169 Z" id="Shape" fill="#24527a"/>
                    <path d="M71.1378769,34.2556802 C68.6087468,33.630931 66.0308574,35.085185 65.2881596,37.5562286 L65.2825064,37.5736992 C63.4579146,37.5317697 61.7039888,38.6044652 61.1619818,40.2418112 C61.1591552,40.2501971 61.1563286,40.2599807 61.1535019,40.2676678 L61.0100503,40.740772 C58.8589824,41.0216994 57.0888034,42.552824 56.5213568,44.6241399 L55.4062501,48.3565617 L52.1372487,51.5893242 C51.4539101,52.262991 50.6264132,52.7759281 49.7155307,53.0910981 L49.0350189,53.3252043 C44.9385207,54.724251 41.9839824,58.2791714 41.3882694,62.5238318 C41.3840296,62.5531823 41.3812029,62.5825329 41.3790829,62.6118836 L41.2575377,64.6838983 C41.2497644,64.8229644 41.2349246,64.9634281 41.2151382,65.1010967 C40.892902,67.1731114 40.721184,69.265392 40.7013976,71.3625646 L40.7013976,75.865091 C40.7013976,76.3242187 40.9967808,76.7323322 41.4356156,76.8804832 C45.0989322,78.1097154 49.0646985,78.1362708 52.7442683,76.9573538 L52.9668655,76.8860738 C53.3774341,76.753297 53.6692839,76.3927036 53.7102702,75.9678182 L54.4897142,67.9341313 C54.6706187,67.3785658 55.0493875,66.9075581 55.5560615,66.6084612 C55.5758481,66.59728 55.5956343,66.5847011 55.6147142,66.5714235 L63.5384735,61.172305 C65.7489007,59.6495663 67.4095477,57.4678362 68.2766175,54.9457783 C68.2935773,54.8975594 68.3062971,54.847943 68.3154836,54.7983264 L71.9427607,35.4946961 C72.0487594,34.9363352 71.6954302,34.3926498 71.1378769,34.2556802 L71.1378769,34.2556802 Z M63.2289573,40.8980075 C63.4155151,40.3515268 63.9695352,39.9406177 64.6133009,39.7854788 L62.7618562,45.9071818 C62.4480999,45.7883815 62.1237437,45.6961368 61.7937343,45.6325438 L63.2289573,40.8980075 Z M58.615892,45.1915854 C58.8519157,44.3180547 59.4546954,43.5856866 60.272299,43.1789708 L59.5288945,45.6318448 C59.1338724,45.7101132 58.7480371,45.8289134 58.3784548,45.9868479 L58.6081187,45.2195384 C58.6102387,45.209755 58.6123587,45.1999713 58.6151853,45.1908867 L58.615892,45.1915854 Z M66.1969221,54.3287164 C65.473304,56.3846581 64.1108668,58.1617689 62.3053549,59.4063754 L54.4105684,64.7852278 C53.417007,65.3813253 52.6905622,66.3282324 52.3760993,67.4344717 C52.3584327,67.4959683 52.3464196,67.5595614 52.3400597,67.6238532 L51.6185616,75.0544545 C48.7636622,75.8755734 45.732098,75.8832605 42.8722518,75.0768169 L42.8722518,71.3611669 C42.8927449,69.3667217 43.0573964,67.3757705 43.3647928,65.4043865 C43.3930591,65.207318 43.4135522,65.0067553 43.4248587,64.8082892 L43.5442839,62.781698 C44.0417714,59.3511682 46.4366363,56.4838912 49.7487437,55.3524943 L50.4299623,55.118388 C51.6496544,54.696298 52.7576946,54.0093536 53.6728172,53.1071711 L58.1240578,48.7052752 C59.2172582,47.6269889 60.8835584,47.3579415 62.2664886,48.0358012 L59.2744975,50.7388547 C58.0314855,51.8618656 56.895179,53.0945921 55.8790044,54.42166 C55.5221419,54.8947641 55.6182474,55.5635394 56.0938286,55.9199398 C56.5694095,56.2756414 57.2463881,56.1854931 57.6096106,55.7172806 C58.5459327,54.4943377 59.593907,53.3587479 60.7394001,52.3237886 L64.707993,48.7388188 C64.9270572,48.5410514 65.0542557,48.2636181 65.0613222,47.9708106 C65.0683889,47.6780031 64.9532035,47.3949792 64.7440327,47.1874283 C64.7164729,47.1601741 64.6889134,47.1336189 64.6606471,47.1063647 L64.8366049,46.5445097 L67.3692683,38.1711942 C67.671718,37.1669832 68.5387878,36.4297232 69.5881753,36.2850667 L66.1969221,54.3287164 Z" id="Shape" fill="#24527a"/>
                    <g id="Group" transform="translate(16.281407, 0.000000)" fill="#43D92D">
                        <path d="M38.6089824,10.645893 L38.4867306,10.59418 C32.0511935,7.85548662 25.9661589,4.37114755 20.3602387,0.214539179 C19.9744032,-0.0712801927 19.4437029,-0.0712801927 19.0578674,0.214539179 C13.4519472,4.37114755 7.36691264,7.85548662 0.931375719,10.59418 L0.809830312,10.645893 C0.411275216,10.8157074 0.154051417,11.2028563 0.154051417,11.6319344 L0.154051417,22.228211 C0.154051417,29.0354608 3.44637244,35.0160013 9.67344531,39.5241185 C12.5368247,41.5919402 15.7132538,43.1985378 19.0847205,44.2845111 C19.2804648,44.341116 19.4882223,44.3425136 19.6846734,44.2873066 C23.1557789,43.2090203 26.4367934,41.6052179 29.4118247,39.5346007 C35.8586683,35.0271825 39.2661747,29.0431479 39.2661747,22.228211 L39.2661747,11.6319344 C39.2661747,11.2028563 39.0075377,10.8150086 38.6089824,10.645893 L38.6089824,10.645893 Z M37.093907,22.228211 C37.093907,26.9704343 35.317368,31.1577909 31.8066896,34.7238926 L31.8066896,34.4611346 C31.8066896,33.8685313 31.3205087,33.3877401 30.7212625,33.3877401 C30.1220162,33.3877401 29.6358353,33.8685313 29.6358353,34.4611346 L29.6358353,35.578555 C29.6358353,35.8839413 29.7679805,36.1753513 29.9990578,36.3787091 C29.4344378,36.8462229 28.8373116,37.3025552 28.2069724,37.7463089 C25.4990578,39.621255 22.531093,41.0978712 19.3942368,42.1293364 C16.3612594,41.0936783 13.4992934,39.6191586 10.9030307,37.7539958 C10.3341709,37.3409904 9.79357731,36.9161051 9.2819567,36.4807376 C9.59359296,36.283669 9.78156398,35.9433414 9.78156398,35.5778563 L9.78156398,34.4611346 C9.78156398,33.8685313 9.29538308,33.3877401 8.69613684,33.3877401 C8.09689061,33.3877401 7.61070971,33.8685313 7.61070971,34.4611346 L7.61070971,34.9237565 C4.0993247,31.3157253 2.32419908,27.0605828 2.32419908,22.228211 L2.32419908,12.3363496 C8.47212621,9.67382817 14.3027638,6.34462806 19.7086997,2.41094458 C25.1146357,6.34462806 30.9452733,9.67382817 37.093907,12.3363496 L37.093907,22.228211 Z" id="Shape"/>
                        <path d="M19.7086997,33.3877401 C19.1094534,33.3877401 18.6232725,33.8685313 18.6232725,34.4611346 L18.6232725,35.578555 C18.6232725,36.1711583 19.1094534,36.6519495 19.7086997,36.6519495 C20.3086527,36.6519495 20.7941268,36.1711583 20.7941268,35.578555 L20.7941268,34.4611346 C20.7941268,33.8685313 20.3086527,33.3877401 19.7086997,33.3877401 Z" id="Path"/>
                        <path d="M23.3797895,33.3877401 C22.7805433,33.3877401 22.2943624,33.8685313 22.2943624,34.4611346 L22.2943624,35.578555 C22.2943624,36.1711583 22.7805433,36.6519495 23.3797895,36.6519495 C23.9790358,36.6519495 24.4652167,36.1711583 24.4652167,35.578555 L24.4652167,34.4611346 C24.4652167,33.8685313 23.9790358,33.3877401 23.3797895,33.3877401 Z" id="Path"/>
                        <path d="M25.9654523,34.4611346 L25.9654523,35.578555 C25.9654523,36.1711583 26.4509266,36.6519495 27.0508794,36.6519495 C27.6501256,36.6519495 28.1363065,36.1711583 28.1363065,35.578555 L28.1363065,34.4611346 C28.1363065,33.8685313 27.6501256,33.3877401 27.0508794,33.3877401 C26.4509266,33.3877401 25.9654523,33.8685313 25.9654523,34.4611346 Z" id="Path"/>
                        <path d="M16.0383166,33.3877401 C15.4383637,33.3877401 14.9528894,33.8685313 14.9528894,34.4611346 L14.9528894,35.578555 C14.9528894,36.1711583 15.4383637,36.6519495 16.0383166,36.6519495 C16.6375628,36.6519495 17.1237437,36.1711583 17.1237437,35.578555 L17.1237437,34.4611346 C17.1237437,33.8685313 16.6375628,33.3877401 16.0383166,33.3877401 Z" id="Path"/>
                        <path d="M12.3672267,33.3877401 C11.7679805,33.3877401 11.2817996,33.8685313 11.2817996,34.4611346 L11.2817996,35.578555 C11.2817996,36.1711583 11.7679805,36.6519495 12.3672267,36.6519495 C12.9664729,36.6519495 13.4526538,36.1711583 13.4526538,35.578555 L13.4526538,34.4611346 C13.4526538,33.8685313 12.9664729,33.3877401 12.3672267,33.3877401 Z" id="Path"/>
                        <path d="M14.709799,20.9046372 C14.4363222,20.6299992 14.0349403,20.5209826 13.6575848,20.6195168 C13.2809358,20.71875 12.9862594,21.009461 12.8866206,21.3826334 C12.7862752,21.7551068 12.8965137,22.1520392 13.1742306,22.4224843 L17.3569409,26.5581279 C17.7809358,26.9774226 18.4685145,26.9774226 18.8925095,26.5581279 L26.2445823,19.2875573 C26.522299,19.0171122 26.6318311,18.6201799 26.5321921,18.2470076 C26.4325533,17.874534 26.1378769,17.583823 25.7612281,17.48459 C25.3838724,17.3860558 24.9824905,17.4950724 24.7090139,17.7697104 L18.1243719,24.2813574 L14.709799,20.9046372 Z" id="Path"/>
                    </g>
                </g>
            </g>
        </g>
    </g>
</svg>