<?xml version="1.0" encoding="UTF-8"?>
<svg width="62px" height="71px" viewBox="0 0 62 71" version="1.1" xmlns="http://www.w3.org/2000/svg" xmlns:xlink="http://www.w3.org/1999/xlink">
    <!-- Generator: Sketch 54 (76480) - https://sketchapp.com -->
    <title>Data Analytics</title>
    <desc>Created with Sketch.</desc>
    <g id="Page-1" stroke="none" stroke-width="1" fill="none" fill-rule="evenodd">
        <g id="eCommerce" transform="translate(-1198.000000, -1266.000000)" fill-rule="nonzero">
            <g id="Group-15" transform="translate(0.000000, 1009.000000)">
                <g id="Group-4" transform="translate(1170.000000, 195.000000)">
                    <g id="Data-Analytics" transform="translate(28.000000, 62.000000)">
                        <path d="M41.4799563,46.849708 C41.7936701,46.9927423 42.1622147,46.9459004 42.4293689,46.7290378 L42.6123592,46.5798782 C43.3909702,45.9787466 44.250468,45.4883459 45.1659466,45.1228866 L45.3743689,45.0344349 C45.6806996,44.8988064 45.8888475,44.6093159 45.9182233,44.2780462 L46.2690049,40.4222689 L43.2592961,40.4222689 L42.9085146,44.2786429 C42.8791388,44.6099126 42.6709909,44.8994031 42.3646602,45.0350315 L42.1562379,45.1234832 C41.4339159,45.420028 40.7428542,45.7864464 40.0930825,46.2174202 L41.4799563,46.849708 Z" id="Path" fill="#D4E1F4"/>
                        <path d="M35.003966,59.5931639 L38.1561845,57.4664454 L38.1774029,57.4515294 L38.3719806,57.311916 C38.6433661,57.1172071 38.7836751,56.7895649 38.7364563,56.4608109 L38.7030485,56.2279727 C38.5198554,55.2644414 38.5202638,54.2754328 38.7042524,53.3120504 L38.7369078,53.0848803 C38.784513,52.7533897 38.641451,52.4232866 38.3661117,52.2293004 L35.1499369,49.9628193 L37.2902913,46.3116891 L34.9153301,45.2287899 L32.1403786,49.9629685 L35.3565534,52.2294496 C35.6318928,52.4234358 35.7749547,52.7535388 35.7273495,53.0850294 L35.6946942,53.3121996 C35.5107055,54.2755819 35.5102972,55.2645906 35.6934903,56.2281218 L35.7268981,56.4609601 C35.7741168,56.7897141 35.6338079,57.1173563 35.3624223,57.3120651 L35.1678447,57.4516786 L35.1466262,57.4665945 L31.9944078,59.593313 L34.7652961,64.3195861 L37.1401068,63.2365378 L35.003966,59.5931639 Z" id="Path" fill="#D4E1F4"/>
                        <path d="M45.223432,64.5042458 L45.0160631,64.4208655 C44.0925172,64.0317167 43.2204927,63.5319963 42.4194369,62.9328487 L42.2388544,62.7995 C41.9735281,62.6024862 41.6206141,62.5654386 41.3195388,62.7029937 L39.9632136,63.3215588 C40.6077315,63.7512603 41.2919479,64.1193469 42.0066553,64.4208655 L42.2140243,64.5042458 C42.5179773,64.6298652 42.7270805,64.9116071 42.7575777,65.2366197 L43.1100146,69.0609244 L46.1197233,69.0609244 L45.7669854,65.2366197 C45.7364883,64.9116071 45.5273851,64.6298652 45.223432,64.5042458 L45.223432,64.5042458 Z" id="Path" fill="#D4E1F4"/>
                        <path d="M12.4051165,13.9887899 C8.5818835,12.616521 6.38931068,10.8371954 6.38931068,9.10470588 C6.38931068,7.37221639 8.5818835,5.5919958 12.4051165,4.22062185 C16.0385874,2.91726471 20.7307233,2.12477941 25.801932,1.94310294 C25.0568285,1.91635364 24.3044013,1.90278011 23.5446505,1.90238235 C17.6173301,1.90238235 12.0579466,2.7257437 7.8905534,4.22062185 C4.06732039,5.5919958 1.87474757,7.37221639 1.87474757,9.10470588 C1.87474757,10.8371954 4.06732039,12.6172668 7.8905534,13.9887899 C12.0579466,15.4836681 17.6173301,16.3070294 23.5446505,16.3070294 C24.304,16.3070294 25.0564272,16.2934559 25.801932,16.2663088 C20.7307233,16.0846324 16.0385874,15.2921471 12.4051165,13.9887899 Z" id="Path" fill="#D4E1F4"/>
                        <path d="M12.3611748,29.3319496 C8.53854369,27.9610231 6.32038835,26.180355 6.32038835,24.4472689 L6.32038835,15.3186975 C4.684275,14.6786022 3.16059675,13.7860417 1.80582524,12.6740966 L1.80582524,24.4472689 C1.80582524,26.1808025 4.02398058,27.9614706 7.84661165,29.3323971 C12.012801,30.8266786 17.598068,31.6495924 23.5271942,31.6495924 C24.2864434,31.6495924 25.0385194,31.6360189 25.7834223,31.6088718 C20.7067961,31.4268971 15.9938932,30.6348592 12.3611748,29.3319496 Z" id="Path" fill="#D4E1F4"/>
                        <path d="M12.3685485,44.6740651 C8.54606796,43.3031387 6.32038835,41.5224706 6.32038835,39.788937 L6.32038835,30.6629013 C4.68418733,30.0226562 3.16049425,29.1298353 1.80582524,28.0175546 L1.80582524,39.788937 C1.80582524,41.5224706 4.03150485,43.3031387 7.85398544,44.6740651 C12.0203252,46.1683466 17.6134175,46.9912605 23.5423932,46.9912605 C24.3006392,46.9912605 25.0519628,46.977687 25.7963641,46.9505399 C20.717932,46.7688634 16.0008155,45.9768256 12.3685485,44.6740651 Z" id="Path" fill="#D4E1F4"/>
                        <path d="M12.3685485,60.1228298 C8.54606796,58.7517542 6.32038835,56.9712353 6.32038835,55.2377017 L6.32038835,46.0047185 C4.68415836,45.3645321 3.16045632,44.471706 1.80582524,43.3593718 L1.80582524,55.2374034 C1.80582524,56.970937 4.03150485,58.7514559 7.85398544,60.1225315 C12.0203252,61.6166639 17.6134175,62.4395777 23.5423932,62.4395777 C24.2958236,62.4395777 25.0421812,62.4258053 25.781466,62.3982605 C20.7087524,62.2158382 15.9973544,61.4239496 12.3685485,60.1228298 Z" id="Path" fill="#D4E1F4"/>
                        <path d="M28.0420583,48.7811765 C28.9635307,48.7811765 29.8758738,48.7612885 30.7790874,48.7215126 L31.0078252,48.3314601 C29.3086942,48.5416261 27.5522282,48.677958 25.7575388,48.7404559 C26.5123738,48.7676029 27.2738803,48.7811765 28.0420583,48.7811765 Z" id="Path" fill="#D4E1F4"/>
                        <path d="M39.7787184,2.5375042 C35.4194563,0.973714286 29.6590243,0.112466387 23.5274951,0.112466387 C17.395966,0.112466387 11.5923447,0.973714286 7.23293204,2.5375042 C2.58549029,4.20466176 0,6.53692227 0,9.10470588 L0,55.2377017 C0,57.8065294 2.59376699,60.1392374 7.24075728,61.8057983 C11.5991165,63.3689916 17.3943107,64.229792 23.5274951,64.229792 C26.6554103,64.2392499 29.7791216,64.0018832 32.8690291,63.5199412 L32.585665,61.7528466 C29.5944964,62.2196553 26.5705461,62.4493926 23.5425437,62.4398761 C17.6134175,62.4398761 12.0203252,61.6169622 7.85413592,60.1228298 C4.03150485,58.7517542 1.80582524,56.9712353 1.80582524,55.2377017 L1.80582524,43.3596702 C3.16019417,44.4932836 4.8814466,45.511 7.24075728,46.3577794 C11.5991165,47.9209727 17.3943107,48.7817731 23.5274951,48.7817731 C26.6511927,48.7911531 29.7706998,48.554387 32.8565388,48.0737122 L32.5737767,46.3066176 C29.5864757,46.7721704 26.5665288,47.001307 23.5425437,46.9918571 C17.6134175,46.9918571 12.0203252,46.1689433 7.85413592,44.6746618 C4.03150485,43.3031387 1.80582524,41.5224706 1.80582524,39.788937 L1.80582524,28.0175546 C3.16019417,29.1511681 4.8814466,30.1688845 7.24075728,31.0156639 C11.5991165,32.578708 17.3943107,33.4396576 23.5274951,33.4396576 C29.6606796,33.4396576 35.4126845,32.578708 39.7708932,31.0156639 C42.1302039,30.1694811 43.9417476,29.1511681 45.1456311,28.0175546 L45.1456311,39.5273109 L46.9514563,39.5273109 L46.9514563,9.10470588 C46.9514563,6.53692227 44.4263107,4.20466176 39.7787184,2.5375042 Z M39.1650388,29.3319496 C34.9988495,30.8262311 29.4563204,31.649145 23.5274951,31.649145 C17.5986699,31.649145 12.012801,30.8262311 7.84691262,29.3319496 C4.02398058,27.9610231 1.80582524,26.180355 1.80582524,24.4472689 L1.80582524,12.6740966 C3.16019417,13.8077101 4.88189806,14.8254265 7.24166019,15.6722059 C11.6009223,17.236145 17.3958155,18.0973929 23.5274951,18.0973929 C29.6591748,18.0973929 35.4107282,17.236145 39.7701408,15.6722059 C42.1299029,14.8258739 43.9417476,13.8077101 45.1456311,12.6740966 L45.1456311,24.4472689 C45.1456311,26.180355 42.9878204,27.9610231 39.1650388,29.3319496 L39.1650388,29.3319496 Z M39.1987476,13.9887899 C35.0313544,15.4836681 29.4719709,16.3070294 23.5446505,16.3070294 C17.6173301,16.3070294 12.0579466,15.4836681 7.8905534,13.9887899 C4.06732039,12.616521 1.87474757,10.8371954 1.87474757,9.10470588 C1.87474757,7.37221639 4.06732039,5.5919958 7.8905534,4.22121849 C12.0579466,2.72634034 17.6173301,1.90297899 23.5446505,1.90297899 C29.4719709,1.90297899 35.0313544,2.72634034 39.1987476,4.22121849 C43.0219806,5.59259244 45.2145534,7.37281303 45.2145534,9.10530252 C45.2145534,10.837792 43.0219806,12.6172668 39.1987476,13.9887899 L39.1987476,13.9887899 Z" id="Shape" fill="#24527a"/>
                        <path d="M29.831932,23.6301723 C27.7433767,23.8475865 25.6446914,23.9554798 23.5446505,23.9534013 C20.9175443,23.9586639 18.2930938,23.7875842 15.6893107,23.4413361 C15.1952169,23.3743212 14.7398655,23.7170081 14.6722549,24.206749 C14.6046442,24.6964898 14.9503771,25.1478295 15.4444709,25.2148445 C18.1295604,25.5719447 20.8359553,25.7485058 23.5451019,25.7433172 C25.7090848,25.7453737 27.8716658,25.6340946 30.023801,25.4099454 C30.5163864,25.3539049 30.8712254,24.9146388 30.8186668,24.4259563 C30.7661082,23.9372739 30.3258178,23.582025 29.8323835,23.6301723 L29.831932,23.6301723 Z" id="Path" fill="#24527a"/>
                        <path d="M36.6410971,20.3969874 C35.5502487,20.3969874 34.5668151,21.0483174 34.1493796,22.0472569 C33.7319441,23.0461963 33.9627155,24.196016 34.7340833,24.9605454 C35.5054511,25.7250748 36.6655036,25.953749 37.6732986,25.5399353 C38.6810936,25.1261217 39.338158,24.1513158 39.3380971,23.0700777 C39.3363555,21.5944281 38.1298628,20.3986313 36.6410971,20.3969874 Z M36.6410971,23.9534013 C36.1489149,23.9534013 35.7499223,23.5579238 35.7499223,23.0700777 C35.7499223,22.5822316 36.1489149,22.1867542 36.6410971,22.1867542 C37.1332793,22.1867542 37.5322718,22.5822316 37.5322718,23.0700777 C37.5316914,23.5576853 37.1330387,23.9528259 36.6410971,23.9534013 Z" id="Shape" fill="#24527a"/>
                        <path d="M29.831932,38.7452668 C27.7433758,38.9626694 25.6446911,39.0705627 23.5446505,39.0684958 C20.9175458,39.0737101 18.2930987,38.9026305 15.6893107,38.5564307 C15.1952169,38.4894157 14.7398655,38.8321027 14.6722549,39.3218435 C14.6046442,39.8115843 14.9503771,40.2629241 15.4444709,40.3299391 C18.1295578,40.6870642 20.8359545,40.8636254 23.5451019,40.8584118 C25.7090845,40.8604563 27.8716648,40.7491773 30.023801,40.5250399 C30.5163864,40.4689995 30.8712254,40.0297333 30.8186668,39.5410509 C30.7661082,39.0523685 30.3258178,38.6971196 29.8323835,38.7452668 L29.831932,38.7452668 Z" id="Path" fill="#24527a"/>
                        <path d="M36.6410971,35.5120819 C35.5502213,35.5120819 34.5667687,36.1634443 34.1493508,37.1624203 C33.7319329,38.1613964 33.9627596,39.3112395 34.7341898,40.0757454 C35.50562,40.8402513 36.6657218,41.0688519 37.6735072,40.6549442 C38.6812925,40.2410366 39.3382797,39.2661391 39.3380971,38.1848739 C39.3361897,36.7093408 38.1297455,35.5137255 36.6410971,35.5120819 Z M36.6410971,39.0684958 C36.148954,39.0684958 35.7499778,38.6730789 35.7499224,38.1852717 C35.749867,37.6974644 36.1487535,37.3019586 36.6408965,37.3018488 C37.1330395,37.3017389 37.5321056,37.6970667 37.5322718,38.1848739 C37.5318572,38.672598 37.133156,39.0679201 36.6410971,39.0684958 L36.6410971,39.0684958 Z" id="Shape" fill="#24527a"/>
                        <path d="M29.831932,53.8603613 C27.7433758,54.0777639 25.6446911,54.1856572 23.5446505,54.1835903 C20.9175467,54.1887786 18.2931013,54.0176992 15.6893107,53.6715252 C15.1968425,53.6075182 14.7446876,53.9497816 14.6773445,54.4375436 C14.6100014,54.9253056 14.9527598,55.3753939 15.4444709,55.4448845 C18.1295568,55.8020359 20.8359518,55.9786468 23.5451019,55.9735063 C25.7090845,55.9755508 27.8716648,55.8642718 30.023801,55.6401345 C30.5163864,55.584094 30.8712254,55.1448278 30.8186668,54.6561454 C30.7661082,54.167463 30.3258178,53.8122141 29.8323835,53.8603613 L29.831932,53.8603613 Z" id="Path" fill="#24527a"/>
                        <path d="M61.3959515,51.1537101 C61.933974,50.7519144 62.0856306,50.0157276 61.7495922,49.4370315 L58.4345485,43.9103676 C58.0512621,43.2780798 57.3683592,43.07925 56.7641602,43.4203782 L53.3054029,44.9977416 C52.5452007,44.4529557 51.7313452,43.9857958 50.876267,43.6033971 L50.5301505,39.827271 C50.5263577,39.780642 50.5195214,39.7343055 50.5096845,39.6885525 C50.3881314,39.0911495 49.8690836,38.6543393 49.2546359,38.6323529 L42.7806019,38.6323529 C42.1199502,38.6297981 41.5667237,39.1277885 41.5058398,39.7798382 L41.157767,43.5956408 C40.2940308,43.9673105 39.4755828,44.4348279 38.7180971,44.9892395 L35.2448932,43.4074013 C35.2308981,43.4011366 35.2169029,43.3960651 35.2029078,43.3903971 C34.6087913,43.1551723 33.8864612,43.3930819 33.5988835,43.9096218 L30.3634466,49.4297227 C30.0171335,50.0122332 30.1721892,50.7600522 30.7222039,51.1599748 C30.7282233,51.1645987 30.7343932,51.1690735 30.7407136,51.1735483 L33.8613301,53.3726092 C33.7126039,54.2987017 33.7122484,55.2422557 33.8602767,56.168458 L30.5908301,58.3743803 C30.5787913,58.3827332 30.5669029,58.3910861 30.555165,58.3998866 C30.0230506,58.800084 29.8730012,59.5294233 30.204534,60.1041849 L33.4508058,65.6418866 C33.6083199,65.9140691 33.8573366,66.1227202 34.1543252,66.2313655 C34.4746017,66.3393145 34.8265914,66.3019375 35.1165291,66.1291912 L38.5776942,64.5509328 C39.3378511,65.0953364 40.1514825,65.5623335 41.0062282,65.9448298 L41.3523447,69.7217017 C41.3561537,69.7572909 41.3628979,69.7925109 41.3725097,69.8270084 C41.496853,70.4186485 42.0199841,70.8446884 42.629665,70.8508403 L49.1033981,70.8508403 C49.7744126,70.8508403 50.3444515,70.3560777 50.3777087,69.7364685 L50.7260825,65.9363277 C51.5893123,65.5672477 52.4076401,65.1025435 53.1654515,64.5510819 L56.6388058,66.137395 C56.6538544,66.1442563 56.6689029,66.1523109 56.6839515,66.1578298 C57.2743058,66.3893256 57.996034,66.1518634 58.2831602,65.6396492 L61.5226602,60.1128361 C61.8643177,59.5332442 61.7106392,58.791618 61.1661602,58.3924286 L58.2467427,56.1874013 C58.3967208,55.2551149 58.3972287,54.3052018 58.2482476,53.3727584 L61.3763883,51.1678803 C61.3830097,51.1632563 61.3894806,51.1584832 61.3959515,51.1537101 Z M56.7540777,52.2295987 C56.4787909,52.4235587 56.3357357,52.7535887 56.3832816,53.0850294 L56.4160874,53.3129454 C56.4978905,53.7962197 56.5439114,54.2847787 56.5537816,54.7747101 C56.5443613,55.2642581 56.4984384,55.7524458 56.4163883,56.2352815 L56.3846359,56.4545462 C56.3380178,56.7757337 56.4704532,57.0967713 56.7307524,57.2935693 L59.7506942,59.5739223 L56.9686699,64.3203319 L53.4140534,62.6991155 C53.1004772,62.5561244 52.7320927,62.6028451 52.4649417,62.8194874 L52.281199,62.9686471 C51.5025228,63.5698826 50.6429177,64.0603369 49.7273107,64.4257878 L49.5196408,64.5140903 C49.2163634,64.6357639 49.0067532,64.9147951 48.9760874,65.2376639 L48.6251553,69.0609244 L43.1100146,69.0609244 L42.7572767,65.2366197 C42.7267796,64.9116071 42.5176763,64.6298652 42.2137233,64.5042458 L42.0063544,64.4208655 C41.0828085,64.0317167 40.2107839,63.5319963 39.4097282,62.9328487 L39.2291456,62.7995 C38.9638193,62.6024862 38.6109053,62.5654386 38.3098301,62.7029937 L34.7651456,64.319437 L31.9942573,59.5931639 L35.1464757,57.4664454 L35.1676942,57.4515294 L35.3622718,57.311916 C35.6336574,57.1172071 35.7739663,56.7895649 35.7267476,56.4608109 L35.6933398,56.2279727 C35.5101455,55.2643914 35.5105538,54.2753336 35.6945437,53.3119013 L35.727199,53.0848803 C35.7748042,52.7533897 35.6317423,52.4232866 35.3564029,52.2293004 L32.1402282,49.9628193 L34.9151796,45.2286408 L38.4702476,46.8495588 C38.7839614,46.9925931 39.152506,46.9457512 39.4196602,46.7288887 L39.6026505,46.579729 C40.3812615,45.9785975 41.2407593,45.4881967 42.1562379,45.1227374 L42.3646602,45.0342857 C42.6709909,44.8986573 42.8791388,44.6091668 42.9085146,44.2778971 L43.2592961,40.4222689 L48.7745874,40.4222689 L49.1267233,44.2789412 C49.1563927,44.6082255 49.3648288,44.8952807 49.6704272,45.0277227 L49.8785485,45.1197542 C50.8020981,45.5099122 51.673895,46.0108492 52.4744223,46.6113508 L52.6550049,46.746937 C52.9202736,46.9443158 53.2732861,46.9818707 53.5747718,46.8447857 L57.1232184,45.2268508 L59.9655874,49.9656534 L56.7540777,52.2295987 Z" id="Shape" fill="#43D92D"/>
                        <path d="M45.9796214,46.0190378 C41.0266942,46.0190378 37.1470291,49.8648214 37.1470291,54.7747101 C37.1470291,59.6845987 41.0266942,63.5303824 45.9796214,63.5303824 C50.9325485,63.5303824 54.8131165,59.6845987 54.8131165,54.7747101 C54.8131165,49.8648214 50.9328495,46.0190378 45.9796214,46.0190378 Z M45.9796214,61.7395714 C42.0983464,61.7395714 38.9519515,58.6208961 38.9519515,54.7738151 C38.9519515,50.9267341 42.0983464,47.8080588 45.9796214,47.8080588 C49.8608963,47.8080588 53.0072913,50.9267341 53.0072913,54.7738151 C53.0276415,56.6273586 52.293765,58.4108698 50.9713841,59.7216006 C49.6490032,61.0323313 47.8496396,61.7597424 45.9796214,61.7395714 L45.9796214,61.7395714 Z" id="Shape" fill="#43D92D"/>
                        <path d="M45.9797718,50.3392983 C44.1699781,50.3392983 42.5383911,51.4198952 41.8458271,53.0772018 C41.1532631,54.7345084 41.5361128,56.6421415 42.8158517,57.9105633 C44.0955907,59.1789851 46.0201922,59.5583978 47.6922061,58.8718795 C49.3642201,58.1853612 50.4543667,56.5681121 50.4543058,54.7742626 C50.467249,53.5941248 49.9999788,52.4585822 49.1580144,51.6240635 C48.3160499,50.7895449 47.1703986,50.3264295 45.9797718,50.3392983 Z M45.9797718,57.4194601 C44.5058847,57.4194601 43.3110631,56.2351648 43.3110631,54.7742626 C43.3110631,53.3133604 44.5058847,52.1290651 45.9797718,52.1290651 C47.453659,52.1290651 48.6484806,53.3133604 48.6484806,54.7742626 C48.6562138,55.4781344 48.377531,56.1554135 47.8753649,56.6531555 C47.3731988,57.1508976 46.6898999,57.4271251 45.9797718,57.4194601 Z" id="Shape" fill="#43D92D"/>
                    </g>
                </g>
            </g>
        </g>
    </g>
</svg>