<?xml version="1.0" encoding="UTF-8"?>
<svg width="40px" height="67px" viewBox="0 0 40 67" version="1.1" xmlns="http://www.w3.org/2000/svg" xmlns:xlink="http://www.w3.org/1999/xlink">
    <!-- Generator: Sketch 54 (76480) - https://sketchapp.com -->
    <title>Enterprise Mobility </title>
    <desc>Created with Sketch.</desc>
    <g id="Page-1" stroke="none" stroke-width="1" fill="none" fill-rule="evenodd">
        <g id="Enterprise-Software-Solutions" transform="translate(-420.000000, -1325.000000)" fill-rule="nonzero">
            <g id="Group-4" transform="translate(392.000000, 1267.000000)">
                <g id="Enterprise-Mobility-" transform="translate(28.000000, 58.000000)">
                    <polygon id="Path" fill="#D4E1F4" points="2.13249064 11.0891637 6.62687266 11.0891637 6.62687266 52.1941964 2.13249064 52.1941964"/>
                    <path d="M10.3868211,2.09375 L5.8924391,2.09375 C3.81671341,2.09608677 2.13483146,3.77505937 2.13249064,5.84777825 L2.13249064,8.99541372 L6.62687266,8.99541372 L6.62687266,5.84719409 C6.62921348,3.77505937 8.31109543,2.09608677 10.3868211,2.09375 Z" id="Path" fill="#D4E1F4"/>
                    <path d="M10.3868211,61.8351441 C8.31109543,61.8328073 6.62921348,60.1538347 6.62687266,58.0817 L6.62687266,54.2879464 L2.13249064,54.2879464 L2.13249064,61.0727714 C2.13483146,63.1449061 3.81671341,64.8244629 5.8924391,64.8267997 L34.0273876,64.8267997 C35.8087548,64.8244629 37.3455056,63.5760411 37.7095038,61.8357282 L10.3868211,61.8351441 Z" id="Path" fill="#D4E1F4"/>
                    <path d="M18.744148,36.2386998 C18.4369148,36.2392839 18.1448971,36.1049195 17.9459269,35.8718262 L16.1148174,33.7313407 C15.73853,33.2914429 15.7906133,32.6307199 16.2312734,32.2550833 C16.6719335,31.8794468 17.3338015,31.9314401 17.7095038,32.3713379 L18.8758193,33.7342616 L22.3460908,30.9161115 C22.636353,30.6783447 23.0319522,30.6140834 23.3830758,30.7472796 C23.7347847,30.8798916 23.9875937,31.1906826 24.0466995,31.5610613 C24.1058052,31.9314401 23.9618445,32.3047397 23.6698268,32.5407541 L19.4060159,36.003854 C19.21875,36.1557442 18.9852527,36.2386998 18.744148,36.2386998 Z" id="Path" fill="#43D92D"/>
                    <path d="M19.960206,42.7325963 C14.8302903,42.7325963 10.6718165,38.5813162 10.6718165,33.4602748 C10.6718165,28.3392335 14.8302903,24.1879534 19.960206,24.1879534 C25.0901216,24.1879534 29.2485955,28.3392335 29.2485955,33.4602748 C29.2427434,38.5783953 25.087781,42.7267542 19.960206,42.7325963 Z M19.960206,26.2817034 C15.9884129,26.2817034 12.7691948,29.4953526 12.7691948,33.4602748 C12.7691948,37.4246129 15.9884129,40.6388463 19.960206,40.6388463 C23.9314139,40.6388463 27.1512172,37.4246129 27.1512172,33.4602748 C27.1465356,29.4971052 23.9296583,26.2857928 19.960206,26.2817034 Z" id="Shape" fill="#43D92D"/>
                    <g id="Group">
                        <path d="M34.0273876,-2.41711413e-14 L5.8924391,-2.41711413e-14 C2.65917603,0.00350516183 0.0386235206,2.61952427 0.0351123596,5.84777825 L0.0351123596,61.0727714 C0.0386235206,64.3010254 2.65917603,66.9164603 5.8924391,66.9205497 L34.0273876,66.9205497 C37.261236,66.9164603 39.8817885,64.3010254 39.8852996,61.0727714 L39.8852996,5.84719409 C39.8812031,2.61952427 37.261236,0.00350516183 34.0273876,-2.41711413e-14 Z M2.13249064,11.0891637 L37.7879213,11.0891637 L37.7879213,52.1941964 L2.13249064,52.1941964 L2.13249064,11.0891637 Z M5.8924391,2.09375 L34.0273876,2.09375 C36.1031133,2.09608677 37.7855805,3.77505937 37.7879213,5.84777825 L37.7879213,8.99541372 L2.13249064,8.99541372 L2.13249064,5.84719409 C2.13483146,3.77505937 3.81671341,2.09608677 5.8924391,2.09375 Z M34.0273876,64.8262155 L5.8924391,64.8262155 C3.81671341,64.8238787 2.13483146,63.1449061 2.13249064,61.0727714 L2.13249064,54.2879464 L37.7879213,54.2879464 L37.7879213,61.0727714 C37.7855805,63.1449061 36.1031133,64.8238787 34.0273876,64.8262155 Z" id="Shape" fill="#24527a"/>
                        <path d="M24.2029495,58.5548968 L15.7168773,58.5548968 C15.1375234,58.5548968 14.6681882,59.0240043 14.6681882,59.6017718 C14.6681882,60.1801235 15.1375234,60.6486468 15.7168773,60.6486468 L24.2029495,60.6486468 C24.7823034,60.6486468 25.2516387,60.1801235 25.2516387,59.6017718 C25.2516387,59.0240043 24.7823034,58.5548968 24.2029495,58.5548968 Z" id="Path" fill="#24527a"/>
                        <path d="M33.9676966,32.4133998 L32.3946629,32.4133998 C31.8153091,32.4133998 31.3459738,32.8819232 31.3459738,33.4602748 C31.3459738,34.0380423 31.8153091,34.5071498 32.3946629,34.5071498 L33.9676966,34.5071498 C34.5464653,34.5071498 35.0163858,34.0380423 35.0163858,33.4602748 C35.0163858,32.8819232 34.5464653,32.4133998 33.9676966,32.4133998 Z" id="Path" fill="#0635C9"/>
                        <path d="M7.52574906,34.5071498 C8.10451775,34.5071498 8.5744382,34.0380423 8.5744382,33.4602748 C8.5744382,32.8819232 8.10451775,32.4133998 7.52574906,32.4133998 L5.95271536,32.4133998 C5.3733615,32.4133998 4.90402622,32.8819232 4.90402622,33.4602748 C4.90402622,34.0380423 5.3733615,34.5071498 5.95271536,34.5071498 L7.52574906,34.5071498 Z" id="Path" fill="#24527a"/>
                        <path d="M33.5451778,37.0261928 L31.3494849,36.2708305 C30.8017321,36.0821359 30.2054073,36.3724801 30.0163858,36.9192853 C29.8279494,37.4660906 30.1187969,38.0619681 30.6659643,38.2500785 L32.8616572,39.0054408 C33.2162921,39.1298741 33.6107209,39.0545131 33.8951311,38.8091518 C34.1795413,38.5632063 34.3100421,38.1846488 34.2374766,37.8160226 C34.1654963,37.4479807 33.9009831,37.1465366 33.5451778,37.0261928 Z" id="Path" fill="#24527a"/>
                        <path d="M9.25386232,28.669887 L7.05875476,27.9145247 C6.70353468,27.7906756 6.30969109,27.8654524 6.0252809,28.1108137 C5.74087071,28.3567592 5.61036989,28.7353167 5.68235026,29.1039429 C5.75491566,29.4719848 6.0188436,29.774013 6.37523416,29.8943569 L8.57034172,30.649135 C9.11809453,30.8378296 9.71500464,30.5474853 9.90402622,30.00068 C10.0924626,29.4538748 9.80161513,28.8579974 9.25386232,28.669887 Z" id="Path" fill="#24527a"/>
                        <path d="M31.1183287,31.0440499 C31.2242509,31.0440499 31.3290028,31.0282767 31.4302434,30.9967303 L33.6470037,30.3085501 C34.0069055,30.199306 34.2801966,29.9060407 34.363881,29.5403356 C34.4475655,29.1740461 34.3281835,28.7913993 34.0519663,28.537275 C33.7751639,28.2831509 33.3830758,28.1961059 33.0249297,28.3094396 L30.8075843,28.9976196 C30.3119148,29.1506784 30.002926,29.6425694 30.0807584,30.154323 C30.1585909,30.6666609 30.5998361,31.0446341 31.1183287,31.0440499 Z" id="Path" fill="#24527a"/>
                        <path d="M8.49016854,35.9232352 L6.27282307,36.6114154 C5.91292135,36.7206595 5.63963011,37.0139248 5.55594577,37.3802141 C5.47284644,37.7459194 5.5916433,38.1285662 5.86844569,38.3826905 C6.14524809,38.6373988 6.53675086,38.7238596 6.89548225,38.6105259 L9.11282772,37.9229301 C9.66584734,37.7511771 9.9748361,37.1646467 9.80278562,36.6119995 C9.63073498,36.0599366 9.04318816,35.7514824 8.49016854,35.9232352 Z" id="Path" fill="#24527a"/>
                    </g>
                </g>
            </g>
        </g>
    </g>
</svg>