<?xml version="1.0" encoding="UTF-8"?>
<svg width="77px" height="70px" viewBox="0 0 77 70" version="1.1" xmlns="http://www.w3.org/2000/svg" xmlns:xlink="http://www.w3.org/1999/xlink">
    <!-- Generator: Sketch 54 (76480) - https://sketchapp.com -->
    <title>financial(2)</title>
    <desc>Created with Sketch.</desc>
    <g id="Page-1" stroke="none" stroke-width="1" fill="none" fill-rule="evenodd">
        <g id="Enterprise-Software-Solutions" transform="translate(-820.000000, -3376.000000)" fill-rule="nonzero">
            <g id="Group-5" transform="translate(0.000000, 3186.000000)">
                <g id="Group-14" transform="translate(391.000000, 43.000000)">
                    <g id="Group-4" transform="translate(389.000000, 98.000000)">
                        <g id="financial(2)" transform="translate(40.000000, 49.000000)">
                            <path d="M53.2799295,60.299733 C51.7930154,59.2852427 50.3508767,57.5389806 49.348011,55.4824757 C49.3182829,55.2967433 49.2371336,55.1230918 49.1137885,54.9812621 C48.4134956,53.4052427 47.9977974,51.8027184 47.9977974,50.4423058 L47.9977974,35.1741505 L61.3922357,28.6091019 L58.8524229,27.3603155 L42.9096916,35.1741505 L42.9096916,50.4423058 C42.9096916,51.8027184 43.3253899,53.4052427 44.0256828,54.9812621 C44.1490279,55.1230918 44.2301771,55.2967433 44.2599053,55.4824757 C45.2627709,57.538301 46.7049097,59.2852427 48.1918238,60.299733 L58.9153458,67.6259466 L61.4582115,65.8871602 L53.2799295,60.299733 Z" id="Path" fill="#D4E1F4"/>
                            <path d="M7.2089978,30.0238835 C7.2089978,15.5163835 18.334989,3.56507282 32.4868767,2.27686893 C31.6456432,2.1993932 30.7953076,2.16037217 29.93587,2.15980583 C14.598793,2.15980583 2.12089207,14.6595631 2.12089207,30.0238835 C2.12089207,45.3882039 14.598793,57.8879612 29.93587,57.8879612 C30.78287,57.8879612 31.6286828,57.8466748 32.4702555,57.7690291 C18.3258304,56.4733495 7.2089978,44.5256068 7.2089978,30.0238835 Z" id="Path" fill="#D4E1F4"/>
                            <path d="M29.93587,0.120970874 C13.4763568,0.120970874 0.0856497797,13.5353155 0.0856497797,30.0238835 C0.0856497797,46.5124515 13.4763568,59.9267961 29.93587,59.9267961 C34.7366339,59.9259605 39.4667304,58.7680531 43.7268414,56.5508252 C44.0491685,56.3823208 44.2572734,56.0543532 44.272765,55.6904647 C44.2882565,55.3265762 44.1087812,54.9820501 43.8019456,54.7866661 C43.49511,54.5912821 43.1075298,54.5747237 42.7852026,54.7432282 C38.8159271,56.8088687 34.408788,57.8874676 29.93587,57.8879612 C14.598793,57.8879612 2.12089207,45.3882039 2.12089207,30.0238835 C2.12089207,14.6595631 14.598793,2.15980583 29.93587,2.15980583 C43.8738877,2.15980583 55.7325661,12.5845388 57.5191696,26.4090291 C57.5965229,26.9625381 58.104347,27.3504444 58.6576491,27.2786677 C59.2109512,27.2068909 59.6033912,26.7021984 59.5374515,26.1472087 C57.6195749,11.3097573 44.8940529,0.120970874 29.93587,0.120970874 Z" id="Path" fill="#24527a"/>
                            <path d="M29.93587,17.300534 C33.1179959,17.3041855 35.6967095,19.8874512 35.7003546,23.0751942 C35.7003546,23.6382029 36.1559591,24.0946117 36.7179758,24.0946117 C37.2882863,24.097895 37.7577689,23.6461792 37.777489,23.0751942 C37.7572128,19.1770446 34.8896224,15.8819519 31.0374449,15.3303398 L31.0374449,12.5480097 C31.0374449,11.985001 30.5818404,11.5285922 30.0198238,11.5285922 C29.4578071,11.5285922 29.0022026,11.985001 29.0022026,12.5480097 L29.0022026,15.3303398 C24.9207272,15.8435712 21.9396312,19.4452733 22.192015,23.5582757 C22.4443989,27.6712782 25.8434052,30.8800983 29.9569009,30.8886893 C33.1327524,30.8854501 35.7128313,33.4563463 35.726522,36.637776 C35.7402127,39.8192057 33.1823561,42.4122903 30.0065947,42.4364806 C29.9848855,42.4349515 29.9606322,42.4330825 29.9387533,42.4330825 C29.9168744,42.4330825 29.8936388,42.4349515 29.8719295,42.4364806 C26.7156888,42.3974525 24.1763531,39.8253998 24.1722335,36.6633495 C24.1722335,36.1003408 23.716629,35.643932 23.1546123,35.643932 C22.8890901,35.6458832 22.6356323,35.7552827 22.4518445,35.9472662 C22.2680568,36.1392498 22.1695503,36.3975098 22.1787137,36.6633495 C22.1731138,40.6012405 25.1010154,43.9244923 29.0022026,44.4082039 L29.0022026,47.4994175 C29.0022026,48.0624262 29.4578071,48.518835 30.0198238,48.518835 C30.5818404,48.518835 31.0374449,48.0624262 31.0374449,47.4994175 L31.0374449,44.4082039 C35.1051926,43.8485037 38.0437478,40.2261889 37.7587715,36.1229213 C37.4737951,32.0196537 34.0628274,28.8398782 29.9569009,28.8498544 C26.773264,28.8556721 24.1877085,26.2749849 24.181901,23.0857282 C24.1760935,19.8964714 26.7522332,17.3063518 29.93587,17.300534 L29.93587,17.300534 Z" id="Path" fill="#24527a"/>
                            <path d="M76.3029295,33.6465534 L59.3636079,25.3099272 C59.0848811,25.1711232 58.7573436,25.1711232 58.4786167,25.3099272 L41.48163,33.6224272 C41.1238776,33.7894464 40.8894673,34.1429289 40.8744493,34.538034 L40.8744493,50.4423058 C40.8744493,52.1883981 41.3932665,54.1393932 42.2953877,56.0847816 C43.4514053,58.5767476 45.1923855,60.7272087 47.035467,61.9848301 L58.3527709,69.7021602 C58.701255,69.9376978 59.1575908,69.9376978 59.5060749,69.7021602 L70.7721586,61.9848301 C74.1923833,59.6517233 76.8303965,54.5816505 76.8303965,50.4423058 L76.8303965,34.5618204 C76.8472812,34.1799178 76.6415173,33.8228739 76.3029295,33.6465534 Z M74.7951542,50.4423058 C74.7951542,53.8592233 72.4517423,58.3733738 69.6281828,60.2999029 L58.9153458,67.6259466 L48.1918238,60.299733 C46.643174,59.2431068 45.141674,57.3943932 44.1359251,55.2255825 C43.3688084,53.5717476 42.9096916,51.8730583 42.9096916,50.4423058 L42.9096916,35.1741505 L58.8524229,27.3603155 L74.7951542,35.1970874 L74.7951542,50.4423058 Z" id="Shape" fill="#43D92D"/>
                            <path d="M52.4704119,46.315534 C52.211198,46.0559528 51.8326638,45.9560676 51.479433,46.0540407 C51.1262022,46.1520138 50.8528545,46.4327069 50.763826,46.7888776 C50.6747975,47.1450482 50.7838444,47.5216625 51.049304,47.7748301 L56.1726872,52.7811893 C56.5679445,53.1674072 57.1985378,53.1674072 57.5937952,52.7811893 L66.8237885,43.7630825 C67.086367,43.5092787 67.1932024,43.1340689 67.1037952,42.7796884 C67.014388,42.4253078 66.7424244,42.1460034 66.3910008,42.0476545 C66.0395772,41.9493055 65.6624879,42.0469667 65.4026806,42.3036165 L56.883326,50.6275 L52.4704119,46.315534 Z" id="Path" fill="#43D92D"/>
                        </g>
                    </g>
                </g>
            </g>
        </g>
    </g>
</svg>