<?xml version="1.0" encoding="UTF-8"?>
<svg width="74px" height="66px" viewBox="0 0 74 66" version="1.1" xmlns="http://www.w3.org/2000/svg" xmlns:xlink="http://www.w3.org/1999/xlink">
    <!-- Generator: Sketch 54 (76480) - https://sketchapp.com -->
    <title>Hiring Dedicated developer </title>
    <desc>Created with Sketch.</desc>
    <g id="Page-1" stroke="none" stroke-width="1" fill="none" fill-rule="evenodd">
        <g id="Cloud-Services" transform="translate(-431.000000, -4799.000000)" fill-rule="nonzero">
            <g id="Hiring-Dedicated-developer-" transform="translate(431.000000, 4799.000000)">
                <g id="Group" transform="translate(1.804878, 50.918552)" fill="#D4E1F4">
                    <polygon id="Path" points="0 0.0686877828 3.00813008 0.0686877828 3.00813008 13.2149321 0 13.2149321"></polygon>
                    <polygon id="Path" points="26.6136789 0.0686877828 29.6218089 0.0686877828 29.6218089 13.2149321 26.6136789 13.2149321"></polygon>
                    <polygon id="Path" points="53.2273577 0.0686877828 56.2354878 0.0686877828 56.2354878 13.2149321 53.2273577 13.2149321"></polygon>
                </g>
                <path d="M72.796748,49.1953846 L66.4495935,49.1953846 L66.4495935,43.4166516 C66.4471897,41.2734765 64.6977756,39.5366851 62.5390244,39.5342986 L37.8652886,39.5342986 L37.8652886,33.5259095 C37.8652886,33.0311024 37.4612529,32.6299819 36.9628496,32.6299819 C36.4644463,32.6299819 36.0604106,33.0311024 36.0604106,33.5259095 L36.0604106,39.5337014 L10.8142276,39.5337014 C8.65547644,39.5360878 6.90606235,41.2728793 6.90365854,43.4160543 L6.90365854,49.1947873 L1.20325203,49.1947873 C0.539023533,49.1955279 0.000745998895,49.7299216 0,50.3893575 L0,64.7307692 C0.000745998895,65.3902051 0.539023533,65.9245988 1.20325203,65.9253394 L19.5693902,65.9253394 C20.2336187,65.9245988 20.7718963,65.3902051 20.7726423,64.7307692 L20.7726423,50.3899548 C20.7718963,49.7305189 20.2336187,49.1961252 19.5693902,49.1953846 L8.70853659,49.1953846 L8.70853659,43.4166516 C8.70986276,42.2626474 9.65183635,41.3274705 10.8142276,41.3261538 L36.0604106,41.3261538 L36.0604106,49.1953846 L27.8169309,49.1953846 C27.1527024,49.1961252 26.6144249,49.7305189 26.6136789,50.3899548 L26.6136789,64.7307692 C26.6144249,65.3902051 27.1527024,65.9245988 27.8169309,65.9253394 L46.1830691,65.9253394 C46.8472976,65.9245988 47.3855751,65.3902051 47.3863211,64.7307692 L47.3863211,50.3899548 C47.3855751,49.7305189 46.8472976,49.1961252 46.1830691,49.1953846 L37.8655894,49.1953846 L37.8655894,41.3261538 L62.5390244,41.3261538 C63.7014157,41.3274705 64.6433893,42.2626474 64.6447154,43.4166516 L64.6447154,49.1953846 L54.4306098,49.1953846 C53.7663813,49.1961252 53.2281037,49.7305189 53.2273577,50.3899548 L53.2273577,64.7307692 C53.2281037,65.3902051 53.7663813,65.9245988 54.4306098,65.9253394 L72.796748,65.9253394 C73.4609765,65.9245988 73.999254,65.3902051 74,64.7307692 L74,50.3899548 C73.999254,49.7305189 73.4609765,49.1961252 72.796748,49.1953846 L72.796748,49.1953846 Z M18.9677642,64.1334842 L1.80487805,64.1334842 L1.80487805,50.9872398 L18.9677642,50.9872398 L18.9677642,64.1334842 Z M45.5814431,64.1334842 L28.4185569,64.1334842 L28.4185569,50.9872398 L45.5814431,50.9872398 L45.5814431,64.1334842 Z M72.195122,64.1334842 L55.0322358,64.1334842 L55.0322358,50.9872398 L72.195122,50.9872398 L72.195122,64.1334842 Z" id="Shape" fill="#24527a"></path>
                <path d="M36.962248,15.3941267 C39.8935203,15.3941267 42.2783659,13.063819 42.2783659,10.1995385 C42.2783659,7.33525792 39.8935203,5.00495023 36.962248,5.00495023 C34.0309756,5.00495023 31.6455285,7.33525792 31.6455285,10.1995385 C31.6455285,13.063819 34.0306748,15.3941267 36.962248,15.3941267 Z M36.962248,6.79680543 C38.8984309,6.79680543 40.4734878,8.32316742 40.4734878,10.1995385 C40.4734878,12.0759095 38.8984309,13.6022715 36.962248,13.6022715 C35.026065,13.6022715 33.4504065,12.0757602 33.4504065,10.1995385 C33.4504065,8.32331674 35.0259146,6.79680543 36.962248,6.79680543 Z" id="Shape" fill="#43D92D"></path>
                <path d="M39.1318618,16.3176787 L34.7923333,16.3176787 C31.4551344,16.3213817 28.7507072,19.0062287 28.7468943,22.3193484 L28.7468943,26.8479638 C28.7468943,27.342771 29.15093,27.7438914 29.6493333,27.7438914 L44.2748618,27.7438914 C44.7732651,27.7438914 45.1773008,27.342771 45.1773008,26.8479638 L45.1773008,22.3193484 C45.1734879,19.0062287 42.4690607,16.3213817 39.1318618,16.3176787 L39.1318618,16.3176787 Z M43.3724228,25.9520362 L30.5517724,25.9520362 L30.5517724,22.3193484 C30.5544249,19.9953655 32.45146,18.1120849 34.7923333,18.1095339 L39.1318618,18.1095339 C41.4727351,18.1120849 43.3697702,19.9953655 43.3724228,22.3193484 L43.3724228,25.9520362 Z" id="Shape" fill="#43D92D"></path>
                <path d="M51.0290163,27.0108733 C53.7108085,23.4056335 54.8269575,18.8844681 54.1282927,14.4566878 C52.6752154,5.17876018 43.7586667,-1.18456561 34.2493659,0.272361991 C29.6354898,0.957596279 25.4900182,3.44823823 22.7383049,7.18832579 C20.0565281,10.7935728 18.9403807,15.3147317 19.6390285,19.7425113 C20.9525285,28.1297376 28.365313,34.134543 36.8004106,34.134543 C37.71012,34.1342379 38.6184713,34.0647998 39.5175041,33.9268371 C44.1315438,33.2417159 48.2771971,30.7510625 51.0290163,27.0108733 L51.0290163,27.0108733 Z M39.2427114,32.1558869 C30.7176707,33.462 22.7229634,27.7701719 21.4223984,19.4673122 C20.7987302,15.5094942 21.7972315,11.4685378 24.1949919,8.24656561 C26.6646496,4.89124467 30.3846592,2.65726442 34.5246098,2.04331222 C35.332261,1.91927787 36.1482996,1.85687795 36.9655569,1.85666063 C44.5264919,1.85666063 51.1696463,7.22834389 52.3449228,14.7318869 C52.9685812,18.6897515 51.9700828,22.7307503 49.5723293,25.9527828 C47.1026205,29.3080225 43.3826263,31.5419397 39.2427114,32.1558869 Z" id="Shape" fill="#43D92D"></path>
            </g>
        </g>
    </g>
</svg>