<?xml version="1.0" encoding="UTF-8"?>
<svg width="60px" height="54px" viewBox="0 0 60 54" version="1.1" xmlns="http://www.w3.org/2000/svg" xmlns:xlink="http://www.w3.org/1999/xlink">
    <!-- Generator: Sketch 54 (76480) - https://sketchapp.com -->
    <title>Projects Delivered</title>
    <desc>Created with Sketch.</desc>
    <g id="Page-1" stroke="none" stroke-width="1" fill="none" fill-rule="evenodd">
        <g id="About-Us" transform="translate(-798.000000, -2138.000000)" fill-rule="nonzero">
            <g id="Projects-Delivered" transform="translate(798.000000, 2138.000000)">
                <path d="M10.2897908,36.3207095 C7.8397204,36.3173284 5.8543476,34.3220287 5.85098327,31.859708 L5.85098327,2.30847854 C5.85098327,2.17745902 5.85771193,2.04855279 5.86906655,1.92091442 C3.57711947,2.12378327 1.81841816,4.05145999 1.81589496,6.36374229 L1.81589496,35.9149718 C1.81883867,38.3772925 3.80463209,40.3725922 6.25470238,40.3759734 L34.8544164,40.3759734 L34.8544164,36.3207095 L10.2897908,36.3207095 Z" id="Path" fill="#D4E1F4"></path>
                <path d="M47.6148841,6.40558402 L47.6148841,22.627062 L46.9857552,22.2906378 C46.705675,22.1405993 46.3692424,22.1427126 46.091265,22.2957095 L45.7321231,22.493084 L45.7321231,12.9400743 L1.88318148,12.9400743 L1.88318148,35.9568135 C1.88612519,38.4195569 3.87191861,40.4148566 6.32156839,40.4173925 L34.5877937,40.4173925 C34.6996575,41.0564294 34.8481083,41.6887039 35.0318847,42.3099898 L6.32156839,42.3099898 C2.83192139,42.306186 0.00420540739,39.4639089 0,35.9568135 L0,6.40558402 C0.00378486127,2.89806606 2.83192139,0.0557889344 6.32156839,0.0519851705 L41.2933157,0.0519851705 C44.7829627,0.0562115508 47.6106786,2.89806606 47.6148841,6.40558402 Z M45.7321231,11.047477 L45.7321231,6.40558402 C45.7287588,3.94326327 43.743386,1.9479636 41.2933157,1.94458245 L6.32156839,1.94458245 C3.87107747,1.94711837 1.88570467,3.94284065 1.88318148,6.40558402 L1.88318148,11.047477 L45.7321231,11.047477 Z" id="Shape" fill="#24527a"></path>
                <g id="Group" transform="translate(3.229753, 3.786885)" fill="#43D92D">
                    <path d="M40.9526777,37.8612449 C41.2849049,38.2513447 41.8665127,38.3041753 42.2626621,37.9800077 L49.3634924,32.1741548 C49.7663705,31.8440702 49.8273489,31.2477203 49.4989066,30.8424053 C49.1708848,30.4375128 48.5775018,30.3762295 48.1746238,30.7058914 L41.7882921,35.9293417 L39.3361191,33.0431097 C38.9980043,32.6454021 38.4037803,32.5984887 38.008472,32.9374488 C37.6127432,33.2772541 37.5660631,33.8744493 37.9033367,34.2721567 L40.9526777,37.8612449 Z" id="Path"></path>
                    <path d="M31.8021318,38.5231045 C33.2370167,43.3695569 36.7232995,47.3339524 41.3320055,49.3617956 L42.8976787,50.0473233 C43.0158506,50.0993083 43.143695,50.1259349 43.2728009,50.1259349 C43.4014864,50.1259349 43.5289103,50.0993083 43.6470822,50.0485911 L45.4087273,49.2836066 C51.7336601,46.6129226 55.8478101,40.3907659 55.8478101,33.4961835 L55.8478101,25.5475282 C55.8482306,25.198002 55.6568846,24.8772156 55.3498899,24.7123848 L44.3851312,18.8401767 L43.7560023,18.5037525 C43.4759221,18.3537141 43.1394895,18.3558274 42.8615121,18.5088243 L42.5023703,18.7061988 L31.588497,24.7174565 C31.2865488,24.8839779 31.0989877,25.2018058 31.0985671,25.5475282 L31.0985671,33.6584785 C31.0985671,34.6546491 31.185619,35.6495517 31.3580408,36.6305072 C31.4699046,37.2695441 31.6183554,37.9018187 31.8021318,38.5231045 L31.8021318,38.5231045 Z M32.9817486,26.1083761 L43.3199015,20.4149462 L53.9646286,26.1151384 L53.9646286,33.4961835 C53.9633671,39.6316983 50.3008777,45.167482 44.6715195,47.5427382 C44.6689962,47.5427382 44.6677346,47.5435835 44.6647908,47.5452741 L43.2740625,48.1483862 L42.0864555,47.6276895 C36.5592887,45.2034067 32.9846923,39.7191854 32.9817486,33.6584785 L32.9817486,26.1083761 Z" id="Shape"></path>
                    <path d="M17.8540571,5.42251542 L17.8633089,5.42251542 C19.3166977,5.42462861 20.4967351,4.24249493 20.4988378,2.78183919 C20.5009405,1.32076073 19.324688,0.135245902 17.8712992,0.132709987 L17.8633089,0.132709987 C16.4103408,0.129751564 15.2294624,1.31230786 15.2269391,2.7729636 C15.2244158,4.23319672 16.4006683,5.41997951 17.8540571,5.42251542 Z M17.3346893,2.24423673 C17.4751498,2.103919 17.6652343,2.02488476 17.8633089,2.02488476 L17.8645706,2.02488476 C18.2779622,2.02572999 18.6131331,2.3625769 18.6127126,2.77803532 C18.612292,3.19349385 18.277121,3.52991803 17.8633089,3.52991803 L17.8607857,3.52991803 C17.5579964,3.5290728 17.285486,3.34522288 17.1702578,3.06374229 C17.0554502,2.78226181 17.1202135,2.45851688 17.3346893,2.24423673 Z" id="Shape"></path>
                    <path d="M10.2624557,5.39927001 L10.2717075,5.39927001 C11.7255168,5.4013832 12.9063952,4.21924951 12.908498,2.75817116 C12.9106007,1.2970927 11.7339278,0.110309911 10.2801183,0.108196721 L10.2708665,0.108196721 C8.81705719,0.106083531 7.63617879,1.28906245 7.63407601,2.74971818 C7.63197333,4.21079665 8.80864626,5.39715671 10.2624557,5.39927001 Z M9.74308784,2.22014598 C9.88312788,2.07940574 10.0727918,2.00079411 10.2708665,2.00079411 L10.2733897,2.00079411 C10.6300082,2.00206196 10.937003,2.25649337 11.0059717,2.60855533 C11.0745199,2.96061729 10.8861176,3.31225663 10.5559931,3.44877049 C10.2254481,3.58528435 9.84569978,3.46821214 9.64762506,3.1694032 C9.44997097,2.87059426 9.48992237,2.47288681 9.74308784,2.22014598 Z" id="Shape"></path>
                    <path d="M2.67127477,5.37517936 L2.67884445,5.37517936 C4.13223325,5.37729255 5.31227061,4.19473614 5.31437329,2.7340804 C5.3173171,1.27384739 4.14064417,0.0879098361 2.68683475,0.0857966459 L2.67884445,0.0857966459 C1.22587628,0.0828381148 0.0458389136,1.26539441 0.0437362368,2.72647288 C0.0416335601,4.18670589 1.21788598,5.37306606 2.67127477,5.37517936 Z M2.15190693,2.19690067 C2.29110595,2.05616032 2.48161087,1.97712608 2.67884445,1.97797131 L2.68178827,1.97797131 C3.09517984,1.97881654 3.42993027,2.31608607 3.42866862,2.7315446 C3.4282481,3.14700313 3.09265654,3.48300458 2.67884445,3.48258197 L2.67632126,3.48258197 C2.26377082,3.48004605 1.93070256,3.14277664 1.93154359,2.72858607 C1.93028205,2.52825313 2.00976422,2.33679557 2.15190693,2.19690067 Z" id="Shape"></path>
                </g>
            </g>
        </g>
    </g>
</svg>