<?xml version="1.0" encoding="UTF-8"?>
<svg width="50px" height="57px" viewBox="0 0 50 57" version="1.1" xmlns="http://www.w3.org/2000/svg" xmlns:xlink="http://www.w3.org/1999/xlink">
    <!-- Generator: Sketch 54 (76480) - https://sketchapp.com -->
    <title>Satisfied Customers</title>
    <desc>Created with Sketch.</desc>
    <g id="Page-1" stroke="none" stroke-width="1" fill="none" fill-rule="evenodd">
        <g id="About-Us" transform="translate(-1082.000000, -2135.000000)" fill-rule="nonzero">
            <g id="Satisfied-Customers" transform="translate(1082.000000, 2135.000000)">
                <path d="M16.700874,50.8036738 C13.3313787,48.3483486 10.6504426,45.5430676 8.73184019,42.4672172 C6.34600109,38.6407239 5.1362931,34.3717366 5.1362931,29.7781596 L5.1362931,16.3008802 C13.0906666,12.8760137 20.6421194,8.59293411 27.6535071,3.5286788 C26.7573396,2.90533522 25.8701574,2.26977848 24.9910146,1.62200847 C17.7086487,6.99394281 9.82757639,11.5156498 1.50433184,15.0983486 L1.50433184,28.5756279 C1.50433184,33.1692049 2.71403983,37.4381922 5.09987893,41.2642158 C7.01848136,44.3405359 9.69941743,47.1453471 13.0689127,49.6011422 C18.2463492,53.3740852 23.496141,55.1623813 24.5753254,55.5062302 C24.6462621,55.4841525 24.7361153,55.4559681 24.8425205,55.4221469 C21.9676907,54.180627 19.2380448,52.6323675 16.700874,50.8036738 L16.700874,50.8036738 Z" id="Path" fill="#D4E1F4"></path>
                <g id="Group" fill="#24527a">
                    <path d="M49.4911471,13.9611105 L49.3322488,13.8929984 C40.844431,10.2652047 32.8195937,5.65001978 25.4270392,0.14420988 C25.1688294,-0.0479134304 24.8136729,-0.0479134304 24.5554631,0.14420988 C17.1624357,5.65001978 9.13759831,10.2652047 0.64978063,13.8925287 L0.490882324,13.9606408 C0.224160048,14.0743176 0.0515473366,14.3354925 0.0515473366,14.6234425 L0.0515473366,28.5756279 C0.0515473366,33.4505786 1.33928571,37.9826197 3.87834818,42.0458613 C5.90146416,45.2828323 8.71670702,48.2248072 12.2455736,50.7905211 C18.2279056,55.1398339 24.1194385,56.8811561 24.3672443,56.9534958 C24.4982408,56.9915448 24.6372768,56.9920145 24.7687462,56.9553748 C25.0250643,56.883035 31.1180576,55.1435918 37.3070521,50.798037 C40.9593485,48.2337321 43.8724841,45.2922271 45.9660639,42.0557258 C48.581738,38.0418067 49.9593295,33.3566308 49.930482,28.5756279 L49.930482,14.6234425 C49.930482,14.3354925 49.7578692,14.0747874 49.4911471,13.9611105 L49.4911471,13.9611105 Z M48.4776975,28.5756279 C48.5051264,33.0719689 47.212186,37.4785897 44.7568288,41.2557605 C42.7701271,44.3330201 39.9927172,47.1387708 36.5021564,49.5955053 C31.1284617,53.3778431 25.6791011,55.1670787 24.5748524,55.5062302 C23.496141,55.1623813 18.2458763,53.3740852 13.0689127,49.6011422 C9.69941743,47.1458169 7.01848136,44.3405359 5.09987893,41.2646856 C2.71403983,37.4381922 1.50433184,33.1692049 1.50433184,28.5756279 L1.50433184,15.0983486 C9.82757639,11.5156498 17.7086487,6.99394281 24.9910146,1.62200847 C32.2738536,6.99394281 40.1544529,11.5156498 48.4776975,15.0983486 L48.4776975,28.5756279 Z" id="Shape"></path>
                    <path d="M24.5554631,4.44091185 C18.3135025,9.08944824 11.5385707,12.9859325 4.37206792,16.0486303 L4.23776102,16.1059385 C3.97103886,16.220085 3.79795327,16.4807901 3.79795327,16.7687401 L3.79795327,28.5624752 C3.79795327,32.7041634 4.8922707,36.5550831 7.04969358,40.0076641 C8.7673086,42.7556369 11.1564581,45.2532387 14.1514074,47.4304786 C19.2238574,51.118399 24.2220604,52.5952581 24.4320332,52.6567938 C24.5630297,52.694373 24.7025386,52.6953125 24.8335351,52.6582031 C25.0515473,52.5971371 30.2195255,51.1216872 35.46648,47.4375248 C38.5654699,45.2607545 41.0378518,42.7645619 42.8150538,40.0175287 C45.0372654,36.6067543 46.2081947,32.625717 46.1836031,28.5629451 L46.1836031,16.7692099 C46.1836031,16.4807901 46.0109904,16.2205548 45.7442683,16.1064082 L45.6099614,16.0491001 C38.4434587,12.9864024 31.6685268,9.08944824 25.4270392,4.44091185 C25.1688294,4.24831883 24.8136729,4.24831883 24.5554631,4.44091185 Z M44.7312916,17.244116 L44.7312916,28.5629451 C44.7544643,32.3405854 43.6681863,36.0435374 41.6058186,39.218033 C41.1593901,39.90714 40.6746557,40.5708811 40.15398,41.2059681 L40.15398,41.1153085 C40.15398,40.7169699 39.8286168,40.3937896 39.4275878,40.3937896 C39.0260858,40.3937896 38.7011955,40.7169699 38.7011955,41.1153085 L38.7011955,42.5860611 C38.7011955,42.6565219 38.7115995,42.7265131 38.7319347,42.7941555 C37.4843939,44.0629203 36.1219356,45.2151899 34.6615845,46.2354628 C31.5852943,48.3737144 28.2082324,50.0497429 24.6401143,51.2095283 C21.1854949,50.044106 17.9271338,48.3694868 14.9747465,46.24063 C13.6151257,45.2565269 12.3463038,44.1540496 11.1829412,42.9472903 C11.2472571,42.8373714 11.2813068,42.7124209 11.2813068,42.5855913 L11.2813068,41.1148388 C11.2813068,40.7165002 10.9559436,40.3933198 10.5549145,40.3933198 C10.1534126,40.3933198 9.82852228,40.7165002 9.82852228,41.1148388 L9.82852228,41.4070164 C9.2652845,40.7118028 8.7455546,39.9837075 8.27122421,39.2260185 C6.26702482,36.0106556 5.25073777,32.4227898 5.25073777,28.5624752 L5.25073777,17.2436461 C12.2436818,14.2279222 18.8668092,10.4282041 24.9910146,5.91824073 C31.1152202,10.4282041 37.7383475,14.2279222 44.7312916,17.244116 L44.7312916,17.244116 Z" id="Shape"></path>
                    <path d="M24.2646224,41.1153085 L24.2646224,42.5860611 C24.2646224,42.9843998 24.5899856,43.3075801 24.9910146,43.3075801 C25.3925167,43.3075801 25.7174069,42.9843998 25.7174069,42.5860611 L25.7174069,41.1153085 C25.7174069,40.7169699 25.3925167,40.3937896 24.9910146,40.3937896 C24.5899856,40.3937896 24.2646224,40.7169699 24.2646224,41.1153085 Z" id="Path"></path>
                    <path d="M29.8033633,43.3075801 C30.2043924,43.3075801 30.5297556,42.9843998 30.5297556,42.5860611 L30.5297556,41.1153085 C30.5297556,40.7169699 30.2043924,40.3937896 29.8033633,40.3937896 C29.4018614,40.3937896 29.0769711,40.7169699 29.0769711,41.1153085 L29.0769711,42.5860611 C29.0769711,42.9843998 29.4018614,43.3075801 29.8033633,43.3075801 L29.8033633,43.3075801 Z" id="Path"></path>
                    <path d="M34.615712,43.3075801 C35.017214,43.3075801 35.3421042,42.9843998 35.3421042,42.5860611 L35.3421042,41.1153085 C35.3421042,40.7169699 35.017214,40.3937896 34.615712,40.3937896 C34.2146829,40.3937896 33.8893197,40.7169699 33.8893197,41.1153085 L33.8893197,42.5860611 C33.8893197,42.9843998 34.2146829,43.3075801 34.615712,43.3075801 L34.615712,43.3075801 Z" id="Path"></path>
                    <path d="M20.179139,40.3937896 C19.7776369,40.3937896 19.4527467,40.7169699 19.4527467,41.1153085 L19.4527467,42.5860611 C19.4527467,42.9843998 19.7776369,43.3075801 20.179139,43.3075801 C20.580168,43.3075801 20.9055312,42.9843998 20.9055312,42.5860611 L20.9055312,41.1153085 C20.9055312,40.7169699 20.580168,40.3937896 20.179139,40.3937896 Z" id="Path"></path>
                    <path d="M15.3663173,40.3937896 C14.9652883,40.3937896 14.6399251,40.7169699 14.6399251,41.1153085 L14.6399251,42.5860611 C14.6399251,42.9843998 14.9652883,43.3075801 15.3663173,43.3075801 C15.7678194,43.3075801 16.0927096,42.9843998 16.0927096,42.5860611 L16.0927096,41.1153085 C16.0927096,40.7169699 15.7678194,40.3937896 15.3663173,40.3937896 Z" id="Path"></path>
                </g>
                <path d="M24.9985812,26.8545045 C27.4548843,26.8512163 29.4453692,24.8740852 29.4482068,22.4342613 L29.4482068,20.5848992 C29.4354381,18.1530607 27.4473177,16.1881429 24.9985812,16.1881429 C22.5498449,16.1881429 20.5617245,18.1530607 20.5489558,20.5848992 L20.5489558,22.4342613 C20.5517932,24.8740852 22.5422783,26.8512163 24.9985812,26.8545045 Z M22.0017403,20.5848992 C22.0121443,18.9483287 23.3509571,17.6269531 24.9985812,17.6269531 C26.6462053,17.6269531 27.9850182,18.9483287 27.9954223,20.5848992 L27.9954223,22.4342613 C28.0025159,23.5024476 27.4326574,24.4921875 26.5024402,25.0281596 C25.572696,25.5641318 24.4244666,25.5641318 23.4947223,25.0281596 C22.5645051,24.4921875 21.9946466,23.5024476 22.0017403,22.4342613 L22.0017403,20.5848992 Z" id="Shape" fill="#43D92D"></path>
                <path d="M35.889736,28.0650217 C38.0897208,28.062673 39.8725976,26.2912875 39.8754351,24.1060622 L39.8754351,22.4873418 C39.8754351,20.3011768 38.0906666,18.5283821 35.889736,18.5283821 C33.6883323,18.5283821 31.9040368,20.3011768 31.9040368,22.4873418 L31.9040368,24.1060622 C31.9064013,26.2912875 33.6892782,28.062673 35.889736,28.0650217 Z M33.3568213,22.4873418 C33.3568213,21.097854 34.4908633,19.9714201 35.889736,19.9714201 C37.2881356,19.9714201 38.4221777,21.097854 38.4221777,22.4873418 L38.4221777,24.1060622 C38.4221777,25.4955498 37.2881356,26.6219837 35.889736,26.6219837 C34.4908633,26.6219837 33.3568213,25.4955498 33.3568213,24.1060622 L33.3568213,22.4873418 Z" id="Shape" fill="#43D92D"></path>
                <path d="M38.5422972,27.8433049 C38.163495,27.8207575 37.965345,28.0622033 37.8334027,28.2219146 C37.3585994,28.7982842 36.6426113,29.1252225 35.8930462,29.1069027 C35.1430085,29.0885828 34.4435722,28.7278233 33.9976165,28.1289062 C33.8571617,27.9396015 33.6320558,27.8306221 33.3951271,27.8367286 C32.678666,27.85223 31.977338,28.0438835 31.3530947,28.3938391 C30.4947602,27.4534217 29.2997125,26.8836284 28.0237969,26.8065912 C27.6445218,26.7826345 27.444953,27.0245501 27.2988234,27.2011719 C26.7360586,27.8846419 25.8876551,28.2717068 24.9990542,28.2500989 C24.1109262,28.228491 23.2819121,27.8010285 22.7536697,27.0912529 C22.6127421,26.9019482 22.3876362,26.7929688 22.1511804,26.7986056 C20.810003,26.8361847 19.5435458,27.4177215 18.6450136,28.4069916 C18.0633323,28.077235 17.4130788,27.8841722 16.7443818,27.8433049 C16.3669983,27.8193483 16.1683754,28.062673 16.0364332,28.2223843 C15.5616298,28.798754 14.8451688,29.1252225 14.0956039,29.1073724 C13.3460389,29.0890527 12.6466027,28.7282932 12.200647,28.129376 C12.0601923,27.9396015 11.8350862,27.8306221 11.5981575,27.8367286 C9.22177663,27.9109473 7.33013015,29.8378165 7.31546985,32.1991941 L7.31546985,35.8420194 C7.31546985,36.2403581 7.64083305,36.5635384 8.04186211,36.5635384 L17.3596398,36.5635384 L17.3596398,37.6909118 C17.3596398,38.0892505 17.685003,38.4124308 18.0860321,38.4124308 L31.9116034,38.4124308 C32.3126324,38.4124308 32.6379956,38.0892505 32.6379956,37.6909118 L32.6379956,36.5630686 L41.9401672,36.5630686 C42.3416692,36.5630686 42.6665594,36.2398882 42.6665594,35.8415496 L42.6665594,32.1991941 C42.6641949,29.8937154 40.8586184,27.9870451 38.5422972,27.8433049 L38.5422972,27.8433049 Z M8.76825436,35.1205005 L8.76825436,32.1991941 C8.77771259,30.747231 9.85169492,29.5193334 11.2978586,29.3070115 C12.0308717,30.0966426 13.061819,30.547592 14.1428949,30.5504104 C15.2244438,30.5536986 16.2582287,30.1093255 16.9954978,29.3234523 C17.2872844,29.3755934 17.5691397,29.4714201 17.8320786,29.6081142 C17.5209027,30.2549446 17.3596398,30.9633109 17.3596398,31.6806023 L17.3596398,35.1205005 L8.76825436,35.1205005 Z M31.1847383,36.9693929 L18.8124243,36.9693929 L18.8124243,31.6806023 C18.8233013,29.9496144 20.1186063,28.4924842 21.8461524,28.2670095 C22.6652354,29.1721964 23.8319082,29.6907882 25.0576952,29.6940764 C26.2830092,29.6973645 27.4525196,29.1853491 28.2768046,28.2843898 C29.9523305,28.5568384 31.1828465,29.9942395 31.1847383,31.6806023 L31.1847383,36.9693929 Z M41.2137749,35.1205005 L32.6375228,35.1205005 L32.6375228,31.6806023 C32.6379956,30.9600227 32.4767327,30.248838 32.1665027,29.5977798 C32.4568705,29.4493423 32.7708838,29.3506972 33.0943553,29.306072 C33.8268954,30.0961729 34.8583157,30.5471223 35.9398645,30.5504104 C37.0209406,30.5536986 38.0551983,30.1093255 38.7924674,29.3234523 C40.1932317,29.5752324 41.2123562,30.7857495 41.2137749,32.1991941 L41.2137749,35.1205005 Z" id="Shape" fill="#43D92D"></path>
                <path d="M14.0927663,28.0650217 C16.2927512,28.062673 18.0756281,26.2912875 18.0784655,24.1060622 L18.0784655,22.4873418 C18.0784655,20.3011768 16.2936971,18.5283821 14.0927663,18.5283821 C11.8913627,18.5283821 10.1070672,20.3011768 10.1070672,22.4873418 L10.1070672,24.1060622 C10.1094317,26.2912875 11.8923086,28.0622033 14.0927663,28.0650217 Z M11.5598517,22.4873418 C11.5598517,21.097854 12.6938937,19.9714201 14.0927663,19.9714201 C15.491166,19.9714201 16.6252081,21.097854 16.6252081,22.4873418 L16.6252081,24.1060622 C16.6252081,25.4955498 15.491166,26.6219837 14.0927663,26.6219837 C12.6938937,26.6219837 11.5598517,25.4955498 11.5598517,24.1060622 L11.5598517,22.4873418 Z" id="Shape" fill="#43D92D"></path>
            </g>
        </g>
    </g>
</svg>