<?xml version="1.0" encoding="UTF-8"?>
<svg width="78px" height="62px" viewBox="0 0 78 62" version="1.1" xmlns="http://www.w3.org/2000/svg" xmlns:xlink="http://www.w3.org/1999/xlink">
    <!-- Generator: Sketch 54 (76480) - https://sketchapp.com -->
    <title>Android for Better</title>
    <desc>Created with Sketch.</desc>
    <g id="Page-1" stroke="none" stroke-width="1" fill="none" fill-rule="evenodd">
        <g id="Android-App-Development" transform="translate(-1209.000000, -2257.000000)" fill-rule="nonzero">
            <g id="Group-5" transform="translate(391.000000, 2045.000000)">
                <g id="Group-14">
                    <g id="Group-4" transform="translate(778.000000, 158.000000)">
                        <g id="Android-for-Better" transform="translate(40.000000, 54.000000)">
                            <path d="M26.079623,13.9373318 L22.2932152,13.9373318 C21.8768584,13.9373318 21.5825243,14.3427164 21.5825243,14.76375 L21.5825243,19.2788702 L25.368932,19.2788702 L25.368932,14.76375 C25.368932,14.3427164 25.6625265,13.9373318 26.079623,13.9373318 Z" id="Path" fill="#D4E1F4"/>
                            <path d="M6.05825243,54.9124759 L6.05825243,26.1964903 C6.05677346,23.6591105 8.08383272,21.5941826 10.6019417,21.568101 L6.81553398,21.568101 C4.29742496,21.5941826 2.27036569,23.6591105 2.27184466,26.1964903 L2.27184466,54.9124759 C2.27184466,57.4476202 4.2996436,59.5088221 6.81553398,59.5311779 L10.6019417,59.5311779 C8.08605137,59.5088221 6.05825243,57.4476202 6.05825243,54.9124759 Z" id="Path" fill="#D4E1F4"/>
                            <path d="M77.9600651,7.22016822 C77.9400979,3.27213947 74.7586278,0.0827163938 70.8405833,0.0827163938 C66.9232783,0.0827163938 63.7418083,3.27213947 63.7211013,7.22016822 C63.7211013,10.7829328 66.4514563,13.7465625 69.6699029,14.2965144 L69.6699029,28.3009134 C68.5243667,27.8172836 67.3107933,27.5177164 66.0728155,27.4141346 L66.0728155,26.1964903 C66.0587644,22.3893028 63.0052336,19.3034615 59.2277002,19.2788702 L46.7621359,19.2788702 L46.7621359,14.76375 C46.7621359,13.0803605 45.4198839,11.648101 43.750019,11.648101 L34.0776699,11.648101 L34.0776699,7.2604087 C34.0776699,6.62774048 33.5688714,6.11579332 32.9417476,6.11579332 C32.3146238,6.11579332 31.8058252,6.62774048 31.8058252,7.2604087 L31.8058252,11.648101 L22.2932152,11.648101 C20.6233503,11.648101 19.3106796,13.0803605 19.3106796,14.76375 L19.3106796,19.2788702 L6.81553398,19.2788702 C3.04391687,19.3064423 0,22.3952644 0,26.1964903 L0,54.9124759 C0.000739532767,58.7114664 3.04539603,61.7965625 6.81553398,61.8204087 L59.2277002,61.8204087 C63.003015,61.7995433 66.0572854,58.7174279 66.0728155,54.9124759 L66.0728155,53.6948318 C71.6407577,53.1940625 76.2754096,49.1789664 77.6021315,43.7070192 C78.9288532,38.2350721 76.6533109,32.518702 71.9417476,29.4872595 L71.9417476,14.2965144 C75.3983236,13.7428364 77.9467536,10.7464182 77.9600651,7.22016822 Z M21.5825243,14.76375 C21.5825243,14.3427164 21.8761187,13.9373318 22.2932152,13.9373318 L43.750019,13.9373318 C44.1759899,13.9693749 44.5021238,14.3330288 44.4902913,14.76375 L44.4902913,19.2788702 L21.5825243,19.2788702 L21.5825243,14.76375 Z M63.8009709,54.9124759 C63.7869197,57.4535818 61.7487674,59.5118028 59.2277002,59.5311779 L6.81553398,59.5311779 C4.2996436,59.5088221 2.27184466,57.4476202 2.27184466,54.9124759 L2.27184466,26.1964903 C2.27036569,23.6591105 4.29742496,21.5941826 6.81553398,21.568101 L59.2277002,21.568101 C61.750986,21.5919472 63.7883989,23.653149 63.8009709,26.1964903 L63.8009709,54.9124759 Z M75.7577367,40.5541105 C75.7725273,46.1385818 71.5860324,50.8265866 66.0728155,51.3988943 L66.0728155,29.7100721 C71.5860324,30.2823798 75.7725273,34.9696395 75.7577367,40.5541105 L75.7577367,40.5541105 Z M66.0432342,7.22016822 C66.0432342,4.52480769 68.2108048,2.34064899 70.8856948,2.34064899 C73.5598453,2.34064899 75.7281553,4.52480769 75.7281553,7.22016822 C75.7281553,9.91478361 73.5598453,12.0996875 70.8856948,12.0996875 C68.2122838,12.0967067 66.0461924,9.91403846 66.0432342,7.22016822 Z" id="Shape" fill="#016FFF"/>
                            <g id="Group" transform="translate(10.791262, 33.575385)" fill="#43D92D">
                                <path d="M5.11165049,0.111033606 C2.39460719,0.114014375 0.192278519,2.33319716 0.189320388,5.07103361 L0.189320388,8.25076923 C0.180445995,8.54512024 0.291375816,8.83127409 0.497705505,9.04067308 C0.704035194,9.25007207 0.985797131,9.36483178 1.27865211,9.35887024 L8.85146764,9.35887024 C9.48081007,9.37899029 10.0088366,8.8841826 10.0339806,8.25076923 L10.0339806,5.07103361 C10.0310225,2.33319716 7.82869378,0.114014375 5.11165049,0.111033606 Z M7.76213592,7.06963947 L2.46116505,7.06963947 L2.46116505,5.07103361 C2.46116505,3.59629798 3.64811509,2.40026438 5.11165049,2.40026438 C6.57518588,2.40026438 7.76213592,3.59629798 7.76213592,5.07103361 L7.76213592,7.06963947 Z" id="Shape"/>
                                <path d="M34.4563107,5.07103361 L34.4563107,8.25076923 C34.4614875,8.55182692 34.5864684,8.83872591 34.8031515,9.04737976 C35.0198346,9.25528846 35.3097314,9.36706721 35.6092423,9.35887024 L43.1820578,9.35887024 C43.4771315,9.36632207 43.7633305,9.25230769 43.9740975,9.04365385 C44.1856038,8.835 44.3031895,8.54884615 44.3009709,8.25076923 L44.3009709,5.07103361 C44.3009709,2.33170668 42.0971632,0.111033606 39.3786408,0.111033606 C36.6601183,0.111033606 34.4563107,2.33170668 34.4563107,5.07103361 Z M42.0291262,5.07103361 L42.0291262,7.06963947 L36.7281553,7.06963947 L36.7281553,5.07103361 C36.7281553,3.59629798 37.9151054,2.40026438 39.3786408,2.40026438 C40.8421762,2.40026438 42.0291262,3.59629798 42.0291262,5.07103361 Z" id="Shape"/>
                                <path d="M30.9390928,14.3300482 C30.9398323,13.6958895 30.4325129,13.1794712 29.8031705,13.1742549 L14.6575394,13.1742549 C14.0274575,13.1794712 13.520138,13.6958895 13.5216171,14.3300482 C13.5216171,19.1767789 17.4204339,23.1054328 22.230355,23.1054328 C27.0395366,23.1054328 30.9390928,19.1767789 30.9390928,14.3300482 Z M22.230355,20.8050241 C19.1117453,20.8080049 16.440553,18.5567789 15.8932987,15.4634856 L28.5666717,15.4634856 C28.0194175,18.5567789 25.3482251,20.8080049 22.230355,20.8050241 Z" id="Shape"/>
                            </g>
                        </g>
                    </g>
                </g>
            </g>
        </g>
    </g>
</svg>