<?xml version="1.0" encoding="UTF-8"?>
<svg width="63px" height="54px" viewBox="0 0 63 54" version="1.1" xmlns="http://www.w3.org/2000/svg" xmlns:xlink="http://www.w3.org/1999/xlink">
    <!-- Generator: Sketch 54 (76480) - https://sketchapp.com -->
    <title>Create custom</title>
    <desc>Created with Sketch.</desc>
    <g id="Page-1" stroke="none" stroke-width="1" fill="none" fill-rule="evenodd">
        <g id="Biztalk" transform="translate(-808.000000, -1237.000000)" fill-rule="nonzero">
            <g id="Group-4" transform="translate(780.000000, 1200.000000)">
                <g id="Create-custom" transform="translate(28.000000, 37.000000)">
                    <path d="M32.301734,38.6705888 C32.3025915,38.0965129 32.3347466,37.5228659 32.3981993,36.9522199 L10.4658442,36.9522199 C7.95174355,36.9496475 5.91396717,34.9123 5.91096611,32.3977706 L5.91096611,1.83241229 C3.56750188,2.0480659 1.77324695,4.01295732 1.77067449,6.36628237 L1.77067449,36.5380621 C1.77367566,39.0521628 3.81059451,41.089939 6.32512383,41.0925115 L32.492521,41.0925115 C32.3656155,40.2916349 32.301734,39.4813262 32.301734,38.6705888 Z" id="Path" fill="#D4E1F4"/>
                    <path d="M48.5516387,6.47260859 L48.5516387,23.2417111 C48.2446646,23.222418 47.9346894,23.2129859 47.6217131,23.2129859 C47.2885861,23.2129859 46.9593178,23.2237043 46.6317645,23.2455698 L46.6317645,13.1021341 L1.920303,13.1021341 L1.920303,36.4548875 C1.92330417,38.953125 3.94778963,40.9780393 6.44602709,40.9810403 L32.4505049,40.9810403 C32.5298208,41.4895198 32.6352896,41.9941406 32.7651963,42.4923304 C32.80121,42.6295256 32.8397961,42.7667207 32.8796684,42.9013433 L6.44602709,42.9013433 C2.88752861,42.897056 0.00428734756,40.013386 -1.13686838e-13,36.4548875 L-1.13686838e-13,6.47260859 C0.00385860732,2.9132527 2.88752861,0.0295826707 6.44602709,0.0261527927 L42.1056116,0.0261527927 C45.6641101,0.0300114878 48.5473513,2.91411011 48.5516387,6.47260859 L48.5516387,6.47260859 Z M46.6317645,11.1822599 L46.6317645,6.47260859 C46.6283347,3.97351372 44.6038491,1.94902815 42.1056116,1.94645579 L6.44602709,1.94645579 C3.94736093,1.94859944 1.92287535,3.97351372 1.920303,6.47260859 L1.920303,11.1822599 L46.6317645,11.1822599 Z" id="Shape" fill="#24527a"/>
                    <g id="Group" transform="translate(3.292683, 3.841463)" fill="#43D92D">
                        <path d="M44.3290301,50.0933689 C52.6276201,50.0882241 59.4217798,43.4925686 59.6730183,35.1974085 C59.9242568,26.903106 53.5421113,19.9082984 45.2589558,19.4002477 C44.9519817,19.3809546 44.6420065,19.3715225 44.3290301,19.3715225 C43.9959031,19.3715225 43.6666349,19.3822409 43.3390816,19.4041064 C38.7606231,19.7080793 34.55645,22.0395389 31.8738567,25.7622427 C29.1912634,29.4853754 28.3110708,34.2117473 29.4725134,38.650867 C29.5085271,38.7880621 29.5471132,38.9252573 29.5869855,39.0598799 C31.5094322,45.6002287 37.5117188,50.0925115 44.3290301,50.0933689 L44.3290301,50.0933689 Z M31.2654821,37.9061548 C30.2969702,33.9047732 31.2148914,29.680021 33.7560023,26.4405012 C36.297542,23.2014101 40.1818788,21.30383 44.2990186,21.2918255 L44.3290301,21.2918255 C51.3045446,21.2931116 57.1190454,26.6304306 57.7175591,33.580221 C58.3152153,40.529154 53.4979516,46.7813929 46.6257622,47.9749905 C39.753144,49.1685881 33.109899,44.9069646 31.330221,38.1625381 C31.3079268,38.0776487 31.2860613,37.9923304 31.2654821,37.9061548 L31.2654821,37.9061548 Z" id="Shape"/>
                        <path d="M48.0268674,39.1284775 C48.3707127,39.531917 48.9765149,39.5799353 49.380383,39.2365186 L53.8670922,35.4156345 C54.0806021,35.2329935 54.2045065,34.9658918 54.2045065,34.6842131 C54.2045065,34.4029631 54.0806021,34.1358613 53.8670922,33.953649 L49.380383,30.1336223 C48.9765149,29.7897771 48.3707127,29.8382241 48.0268674,30.2416635 C47.6825933,30.6459604 47.7314692,31.2517625 48.1349085,31.5956079 L51.7641482,34.6842131 L48.1349085,37.7745332 C47.7318979,38.1188072 47.6838796,38.7241806 48.0268674,39.1284775 Z" id="Path"/>
                        <path d="M42.5420637,42.3101182 C42.6072314,42.3246951 42.674114,42.3319836 42.7409966,42.3319836 C43.1945979,42.3311262 43.5860328,42.0134336 43.6803544,41.5696932 L46.475705,28.2917778 C46.5485899,27.955221 46.4362615,27.6053735 46.1807355,27.3751429 C45.9243521,27.1444836 45.5642149,27.0685976 45.237519,27.1766387 C44.9108232,27.2846799 44.6664444,27.5594988 44.5978469,27.8969131 L41.80121,41.1731135 C41.7489043,41.4217798 41.7969226,41.681593 41.9358327,41.895103 C42.0751714,42.1081841 42.2929688,42.2578125 42.5420637,42.3101182 L42.5420637,42.3101182 Z" id="Path"/>
                        <path d="M39.9006288,39.4654631 C40.302782,39.4658918 40.6629192,39.215082 40.8014006,38.8373666 C40.9407393,38.4596513 40.8292683,38.0352039 40.5231517,37.7745332 L36.8956269,34.6842131 L40.5231517,31.5956079 C40.7936833,31.3760957 40.9235899,31.0279631 40.8631384,30.6849753 C40.8031155,30.3415586 40.5621665,30.058165 40.2333269,29.9441216 C39.9040586,29.8296494 39.5392054,29.9021055 39.2789634,30.1336223 L34.7931116,33.953649 C34.5783155,34.1358613 34.4539824,34.4029631 34.4539824,34.6842131 C34.4539824,34.9658918 34.5783155,35.2334223 34.7931116,35.4156345 L39.2789634,39.2365186 C39.452601,39.3844322 39.6729707,39.4654631 39.9006288,39.4654631 Z" id="Path"/>
                        <path d="M18.2075076,5.4753716 L18.2156536,5.4753716 C19.6973609,5.47751524 20.9008194,4.27791534 20.9029631,2.79577932 C20.9051067,1.314072 19.7055068,0.110613512 18.2233708,0.108469866 L18.2156536,0.108469866 C16.7335176,0.105897512 15.5304878,1.3054973 15.5283442,2.78806215 C15.525343,4.26976946 16.7249428,5.47322795 18.2075076,5.4753716 Z M17.676734,2.25042871 C17.8190739,2.10766006 18.0137195,2.02748663 18.2156536,2.02877287 L18.216511,2.02877287 C18.638386,2.02877287 18.9800877,2.37090315 18.9796589,2.79277815 C18.9788015,3.21379573 18.6370999,3.5554973 18.2156536,3.5550686 L18.2126524,3.5550686 C17.9043921,3.55421107 17.6261433,3.36771154 17.50867,3.08217413 C17.3916254,2.79663684 17.4572219,2.46865478 17.676734,2.25042871 Z" id="Shape"/>
                        <path d="M10.4649866,5.45050493 L10.4735613,5.45050493 C11.9514101,5.44964751 13.1510099,4.25433501 13.1574409,2.77605757 C13.1612995,1.29477896 11.964272,0.0900342439 10.4829935,0.0840320122 L10.4735613,0.0840320122 C8.9914253,0.0814596585 7.78839563,1.28105945 7.78539446,2.76319548 C7.78325071,4.24533161 8.98285061,5.44836128 10.4649866,5.45050493 Z M9.93549929,2.22599085 C10.0778391,2.08322221 10.2716273,2.00347749 10.4735613,2.0039062 L10.4761338,2.0039062 C10.89758,2.00519243 11.2384241,2.34732282 11.2375667,2.76919782 L11.2375667,2.77091276 C11.2354231,3.190644 10.8941501,3.53105945 10.4735613,3.53063074 L10.4718464,3.53063074 C10.1631574,3.52934451 9.88533724,3.34284487 9.76786398,3.05730757 C9.6503906,2.77177017 9.71684451,2.44378811 9.93549929,2.22599085 Z" id="Shape"/>
                        <path d="M2.72418059,5.42692449 L2.73232657,5.42692449 C3.81616804,5.4273533 4.7941121,4.77567648 5.21084217,3.77458079 C5.62714365,2.77391393 5.40034299,1.62061738 4.63590889,0.851895988 C4.13557551,0.344702744 3.45302978,0.0600228659 2.74047256,0.0604515732 L2.73232657,0.0604515732 C1.25061926,0.0583079268 0.047160878,1.25790783 0.045017122,2.73961515 C0.0428734756,4.22175117 1.24247327,5.42478084 2.72418059,5.42692449 Z M2.19512195,2.20112429 C2.33746189,2.05921306 2.53082129,1.97989705 2.73232657,1.98032587 L2.73489904,1.98032587 C3.15677404,1.9816121 3.49718938,2.3245999 3.49633196,2.74604609 C3.49418832,3.16620615 3.15291534,3.50619278 2.73232657,3.5070503 L2.72975422,3.5070503 C2.30873663,3.50404913 1.96875,3.16191885 1.97003623,2.74004385 C1.96960741,2.53768105 2.05020966,2.34389294 2.19512195,2.20112429 Z" id="Shape"/>
                    </g>
                </g>
            </g>
        </g>
    </g>
</svg>