<?xml version="1.0" encoding="UTF-8"?>
<svg width="77px" height="67px" viewBox="0 0 77 67" version="1.1" xmlns="http://www.w3.org/2000/svg" xmlns:xlink="http://www.w3.org/1999/xlink">
    <!-- Generator: Sketch 54 (76480) - https://sketchapp.com -->
    <title>Customized Java Application</title>
    <desc>Created with Sketch.</desc>
    <g id="Page-1" stroke="none" stroke-width="1" fill="none" fill-rule="evenodd">
        <g id="Java-App-Development" transform="translate(-391.000000, -1253.000000)" fill-rule="nonzero">
            <g id="Group-22" transform="translate(391.000000, 1253.000000)">
                <g id="Customized-Java-Application">
                    <path d="M36.5312943,31.0058301 L9.08135496,31.0058301 C6.82598222,31.0033795 4.99841986,29.1630165 4.99598627,26.8918466 L4.99598627,1.5114993 C2.89343772,1.70705323 1.28440411,3.48174157 1.28197051,5.60832898 L1.28197051,30.6313861 C1.28489078,32.9025559 3.11245326,34.742919 5.36782587,34.7453695 L35.546698,34.7453695 L36.5312943,31.0058301 Z" id="Path" fill="#D4E1F4"/>
                    <path d="M44.279575,31.3101884 L44.279575,54.5217989 L40.4857403,49.8167427 L40.4857403,35.4967082 C40.4881738,33.3245406 42.1317633,31.5106434 44.279575,31.3101884 L44.279575,31.3101884 Z" id="Path" fill="#D4E1F4"/>
                    <path d="M75.0999191,61.4465633 L74.0934213,65.2689314 L44.6596885,65.2689314 C42.355159,65.2650105 40.4881738,63.3844584 40.4857403,61.0637875 L40.4857403,57.6104722 L44.279575,54.5217989 L44.279575,57.2433798 C44.2824952,59.5640508 46.1509405,61.4441128 48.45547,61.4465633 L75.0999191,61.4465633 Z" id="Path" fill="#D4E1F4"/>
                    <path d="M76.9377023,34.5130574 L76.9377023,62.3062164 C76.9352688,64.5416081 75.1364217,66.3530548 72.9165781,66.3555053 L43.6084142,66.3555053 C41.3885708,66.3525647 39.5902104,64.5411181 39.5872901,62.3062164 L39.5872901,61.2926689 L41.7677108,59.1082484 L41.7677108,62.3062164 C41.7686843,63.329076 42.5921824,64.158342 43.6084142,64.1598124 L72.9165781,64.1598124 C73.9328099,64.1588323 74.7567949,63.329076 74.7572816,62.3062164 L74.7572816,41.839222 L41.7677108,41.839222 L41.7677108,49.9034922 L39.5872901,47.6965269 L39.5872901,34.5130574 C39.5902104,32.2776656 41.3885708,30.4667091 43.6084142,30.4637684 L72.9165781,30.4637684 C75.1364217,30.4662189 76.9352688,32.2776656 76.9377023,34.5130574 Z M74.7572816,39.6435291 L74.7572816,34.5130574 C74.7567949,33.4897077 73.9328099,32.6599515 72.9165781,32.6594613 L43.6084142,32.6594613 C42.5921824,32.6604416 41.7686843,33.4901978 41.7677108,34.5130574 L41.7677108,39.6435291 L74.7572816,39.6435291 Z" id="Shape" fill="#0B75FF"/>
                    <g id="Group" fill="#43D92D">
                        <path d="M58.939984,33.6931033 L58.9321968,33.6931033 C57.5523993,33.691143 56.4325002,34.8154553 56.4300667,36.2049172 C56.4281199,37.594379 57.5446121,38.7221223 58.9244096,38.7245728 L58.9321968,38.7245728 C60.3119943,38.7265332 61.4318934,37.6022208 61.4338402,36.212759 C61.4362738,34.8232971 60.3192949,33.6955539 58.939984,33.6931033 L58.939984,33.6931033 Z M59.1560793,36.4342887 C59.0976752,36.4955524 59.0168829,36.5298602 58.9321968,36.5288799 L58.93025,36.5288799 C58.8465374,36.5288799 58.7652585,36.4950624 58.7063675,36.4342887 C58.6469901,36.3740051 58.6138944,36.2921567 58.6143811,36.2073677 C58.6143811,36.1225787 58.6479634,36.0412204 58.7078277,35.980937 C58.7672051,35.9216336 58.8479976,35.887816 58.9321968,35.8887962 L58.933657,35.8887962 C59.0616594,35.8892864 59.1774942,35.9672138 59.2261643,36.0863105 C59.2748344,36.2058974 59.2470924,36.3431282 59.1560793,36.4342887 Z" id="Shape"/>
                        <path d="M52.6148172,33.6725187 L52.6075166,33.6725187 C51.2277192,33.6700682 50.10782,34.7948706 50.1053865,36.1843325 C50.1034397,37.5733044 51.219932,38.7020278 52.5997294,38.703498 L52.6075166,38.703498 C53.9868275,38.7059487 55.1072132,37.5811462 55.1091602,36.1916842 C55.1115936,34.8032026 53.9946147,33.6744792 52.6148172,33.6725187 L52.6148172,33.6725187 Z M52.8313992,36.4156645 C52.7725083,36.475458 52.6912293,36.5087854 52.6075166,36.5078052 L52.6055699,36.5078052 C52.5218572,36.5087854 52.4410649,36.4749679 52.3812007,36.4141941 C52.2580653,36.2882359 52.2590388,36.0858205 52.3831475,35.9608424 C52.4420384,35.901049 52.5228307,35.8672315 52.6075166,35.8682116 L52.6084901,35.8682116 C52.693176,35.8682116 52.7739684,35.9020292 52.8333459,35.9623127 C52.8927235,36.0225963 52.9258192,36.1049348 52.9248458,36.1902139 C52.9258192,36.2745128 52.89175,36.3558711 52.8313992,36.4156645 L52.8313992,36.4156645 Z" id="Shape"/>
                        <path d="M46.2901371,33.6524242 L46.2828366,33.6524242 C44.903039,33.6499736 43.7826533,34.7747761 43.7807063,36.163748 C43.7782729,37.5532099 44.8952518,38.680953 46.2750493,38.6834036 L46.2828366,38.6834036 C47.6621473,38.6858541 48.7825332,37.5610517 48.78448,36.1715897 C48.7869134,34.7821278 47.6699345,33.6543847 46.2901371,33.6524242 L46.2901371,33.6524242 Z M46.506719,36.3950799 C46.4468548,36.4548733 46.3670358,36.4877107 46.2828366,36.4877107 L46.2808897,36.4877107 C46.1966905,36.489181 46.1154114,36.4548733 46.0565206,36.3936096 C45.9338718,36.2686315 45.9343586,36.0662161 46.0584673,35.9417282 C46.1168714,35.8804643 46.1981505,35.8461567 46.2828366,35.8481171 L46.2842966,35.8481171 C46.3684959,35.8481171 46.449775,35.8819347 46.5086658,35.9427083 C46.5680433,36.0025017 46.601139,36.0848402 46.6006523,36.1691392 C46.601139,36.2544183 46.56707,36.3357765 46.506719,36.3950799 L46.506719,36.3950799 Z" id="Shape"/>
                        <path d="M41.7677108,49.9034922 L39.5872901,47.6965269 L34.2657008,42.3107078 C33.9542122,41.9945868 33.484059,41.8999956 33.0757168,42.0695736 C32.6668879,42.2391518 32.4001757,42.6405518 32.4006624,43.0860619 L32.4006624,49.020314 C29.8999924,49.1614657 24.5857037,48.5056984 20.3947209,41.4907537 L19.7157729,40.3473271 C19.4821564,39.9542588 19.0300111,39.7484126 18.5822462,39.8317314 C18.1349679,39.91505 17.7860032,40.2693996 17.7066709,40.7203008 L17.4774348,42.0362462 C17.4730544,42.0553605 17.4715943,42.0744748 17.4681875,42.0926088 C17.3698738,42.797387 17.3216905,43.5085367 17.3246106,44.2196863 C17.3246106,47.3000278 18.1534626,52.7794578 23.2959458,57.0752722 C23.7432241,57.4805931 26.6342284,59.8875234 32.4006624,60.1227762 L32.4006624,65.8521623 C32.4016359,66.2957119 32.6668879,66.6951515 33.07377,66.8652197 C33.2056659,66.9215824 33.3482694,66.9504989 33.4908728,66.9500087 C33.7794865,66.9500087 34.0564195,66.834833 34.2608338,66.6299669 L39.5872901,61.2926689 L41.7677108,59.1082484 L45.5644658,55.3030344 C45.9908159,54.8756584 45.9932494,54.1806824 45.5693327,53.7508559 L41.7677108,49.9034922 Z M39.9094862,57.8726811 L39.9036458,57.8785624 L34.5810831,63.2109594 L34.5810831,59.0440441 C34.5810831,58.4372878 34.0934086,57.9461977 33.4908728,57.9461977 L33.3200407,57.9461977 C27.4518861,57.9461977 24.7930382,55.4809442 24.7774638,55.466731 C24.752642,55.4417354 24.7273337,55.41772 24.7010518,55.3956651 C20.1985803,51.644363 19.5176856,46.7462035 19.5147654,44.1496006 C21.7015132,47.2559179 24.354034,49.3751536 27.4158702,50.4553561 C29.4171849,51.1733673 31.5620765,51.3914662 33.6655985,51.0905387 C34.1936691,51.0047694 34.5810831,50.5455364 34.5810831,50.0069054 L34.5810831,45.7458889 L39.906566,51.1326881 L43.2550692,54.5208186 L39.9094862,57.8726811 Z" id="Shape"/>
                        <path d="M37.3504122,31.7204105 L37.3504122,4.29728464 C37.3474919,1.95995 35.4663924,0.0656748052 33.1453151,0.0627340824 L4.20509709,0.0627340824 C1.88353313,0.0651846011 0.00243349903,1.95945992 0,4.29728464 L0,31.7204105 C0.00243349903,34.0572551 1.88353313,35.9525105 4.20509709,35.9549611 L33.1453151,35.9549611 C35.4663924,35.9515303 37.3474919,34.0572551 37.3504122,31.7204105 Z M2.18042071,4.29728464 C2.18139405,3.17199204 3.08763147,2.25989733 4.20509709,2.25842697 L33.1453151,2.25842697 C34.2632674,2.26038741 35.1685313,3.17199204 35.1699915,4.29728464 L35.1699915,9.24249467 L2.18042071,9.24249467 L2.18042071,4.29728464 Z M2.18042071,31.7204105 L2.18042071,11.4381876 L35.1699915,11.4381876 L35.1699915,31.7204105 C35.1685313,32.845213 34.2632674,33.7573077 33.1453151,33.7592682 L4.20509709,33.7592682 C3.08763147,33.7577979 2.18139405,32.8457031 2.18042071,31.7204105 L2.18042071,31.7204105 Z" id="Shape"/>
                        <path d="M27.8534145,14.2847465 L24.1812551,14.2847465 C23.5787192,14.2847465 23.0910447,14.7758368 23.0910447,15.382593 L23.0910447,30.2628234 C23.0915314,30.8690894 23.5787192,31.3601796 24.1812551,31.3606698 L27.8534145,31.3606698 C28.454977,31.3601796 28.9431381,30.8690894 28.9436248,30.2628234 L28.9436248,15.382593 C28.9436248,14.7758368 28.4554636,14.2847465 27.8534145,14.2847465 Z M26.7632041,29.1649769 L25.2714654,29.1649769 L25.2714654,16.4804394 L26.7632041,16.4804394 L26.7632041,29.1649769 Z" id="Shape"/>
                        <path d="M19.3531806,3.29206896 L19.3453934,3.29206896 C17.9651092,3.29010852 16.8452101,4.41442097 16.8427767,5.80388278 C16.8408297,7.19334471 17.957322,8.32108784 19.3371195,8.32353848 L19.3453934,8.32353848 C20.7247042,8.32549892 21.84509,7.2006964 21.8470368,5.81172454 C21.8489836,4.42226273 20.7324915,3.29451948 19.3531806,3.29206896 Z M19.5692759,6.03374447 C19.5098984,6.09402791 19.429106,6.1278456 19.3453934,6.1278456 L19.3434466,6.1278456 C19.1998698,6.12735552 19.0738143,6.02982359 19.0373117,5.88965206 C19.0003224,5.74997074 19.06116,5.60244766 19.1857555,5.52991137 C19.3103509,5.45835525 19.4680421,5.47893993 19.5692759,5.58186297 C19.6296268,5.64067617 19.6632092,5.72301466 19.6627225,5.80731358 C19.6632092,5.89259279 19.6291402,5.97395099 19.5692759,6.03374447 Z" id="Shape"/>
                        <path d="M20.510069,19.8303414 L16.8393697,19.8303414 C16.2368338,19.8303414 15.7491594,20.3219218 15.7491594,20.9281879 L15.7491594,30.2628234 C15.749646,30.8690894 16.2368338,31.3601796 16.8393697,31.3606698 L20.510069,31.3606698 C21.1121182,31.3606698 21.6002793,30.8690894 21.6002793,30.2628234 L21.6002793,20.9281879 C21.6002793,20.3219218 21.1121182,19.8303414 20.510069,19.8303414 Z M19.4198586,29.1649769 L17.9295801,29.1649769 L17.9295801,22.0260343 L19.4198586,22.0260343 L19.4198586,29.1649769 Z" id="Shape"/>
                        <path d="M18.0643962,16.4804394 L20.1250886,16.4804394 C20.7276244,16.4804394 21.2152989,15.9888592 21.2152989,15.382593 C21.2152989,14.7758368 20.7276244,14.2847465 20.1250886,14.2847465 L18.0643962,14.2847465 C17.4628337,14.2847465 16.9741859,14.7758368 16.9741859,15.382593 C16.9741859,15.9888592 17.4628337,16.4804394 18.0643962,16.4804394 Z" id="Path"/>
                        <path d="M16.5429688,15.382593 C16.5429688,14.7758368 16.0552943,14.2847465 15.4527585,14.2847465 L10.1204616,14.2847465 C9.51792577,14.2847465 9.03025125,14.7758368 9.03025125,15.382593 C9.03025125,15.9888592 9.51792577,16.4804394 10.1204616,16.4804394 L15.4527585,16.4804394 C16.0552943,16.4804394 16.5429688,15.9888592 16.5429688,15.382593 Z" id="Path"/>
                        <path d="M13.0280138,3.27197449 L13.0187664,3.27197449 C11.6389689,3.27001404 10.5195566,4.39481657 10.5176097,5.78427838 C10.515663,7.17374031 11.6326418,8.30099336 13.0124393,8.3029538 L13.0202265,8.3029538 C14.3995373,8.30540431 15.5204098,7.18060192 15.5218699,5.79113998 C15.5247901,4.40216825 14.4073245,3.27344485 13.0280138,3.27197449 Z M13.2431356,6.01463015 C13.1842448,6.07442351 13.1039391,6.10775112 13.0202265,6.10726091 L13.0187664,6.10726091 C12.9340805,6.10775112 12.853288,6.07393343 12.7943972,6.01315979 C12.7028975,5.92150918 12.6756422,5.7837883 12.7252856,5.66371138 C12.7749292,5.54412453 12.8917375,5.46619701 13.0202265,5.46766737 C13.1044258,5.46668709 13.1852182,5.50050477 13.244109,5.56127841 C13.30446,5.62107177 13.3380423,5.70341026 13.3380423,5.78868946 C13.3375556,5.87347846 13.3034866,5.95532687 13.2431356,6.01463015 Z" id="Shape"/>
                        <path d="M13.6183821,19.1907479 L10.1204616,19.1907479 C9.51792577,19.1907479 9.03025125,19.6818382 9.03025125,20.2885943 C9.03025125,20.8943703 9.51792577,21.3864408 10.1204616,21.3864408 L13.6183821,21.3864408 C14.2204313,21.3864408 14.7085925,20.8943703 14.7085925,20.2885943 C14.7085925,19.6818382 14.2204313,19.1907479 13.6183821,19.1907479 Z" id="Path"/>
                        <path d="M13.1681837,23.5267513 L9.49748426,23.5267513 C8.89494842,23.5267513 8.40727391,24.0183316 8.40727391,24.6245977 L8.40727391,30.2628234 C8.40727391,30.8690894 8.89494842,31.3606698 9.49748426,31.3606698 L13.1681837,31.3606698 C13.7697462,31.3606698 14.258394,30.8690894 14.258394,30.2628234 L14.258394,24.6245977 C14.258394,24.0183316 13.7697462,23.5267513 13.1681837,23.5267513 Z M12.0779733,29.1649769 L10.5876946,29.1649769 L10.5876946,25.7224441 L12.0779733,25.7224441 L12.0779733,29.1649769 Z" id="Shape"/>
                        <path d="M6.70187342,3.25089972 L6.6940862,3.25089972 C5.31428882,3.24893928 4.1943896,4.37374181 4.19146946,5.76271366 C4.19000932,7.15217547 5.30601493,8.27991872 6.68629899,8.28236924 L6.69505967,8.28236924 C8.07485718,8.28432968 9.19475627,7.15952715 9.19670307,5.77006522 C9.19864988,4.38060328 8.08118426,3.25286016 6.70187342,3.25089972 Z M6.91845548,5.99453567 C6.85956469,6.05432903 6.77925892,6.08765651 6.69505967,6.08667635 L6.6940862,6.08667635 C6.60940028,6.08765651 6.52860797,6.05334887 6.46923038,5.99257523 C6.40887945,5.93376203 6.37529711,5.8524037 6.37627045,5.76712462 C6.37627045,5.68184542 6.41033958,5.60048722 6.47117718,5.54118381 C6.52909464,5.48041029 6.60988695,5.44610253 6.6940862,5.44659261 L6.69505967,5.44659261 C6.77974559,5.44659261 6.86053803,5.48041029 6.91991549,5.54118381 C6.97977975,5.60097729 7.01336209,5.68331578 7.01336209,5.76810478 C7.01336209,5.85338399 6.97880641,5.93474219 6.91845548,5.99453567 Z" id="Shape"/>
                    </g>
                </g>
            </g>
        </g>
    </g>
</svg>