<?xml version="1.0" encoding="UTF-8"?>
<svg width="66px" height="56px" viewBox="0 0 66 56" version="1.1" xmlns="http://www.w3.org/2000/svg" xmlns:xlink="http://www.w3.org/1999/xlink">
    <!-- Generator: Sketch 54 (76480) - https://sketchapp.com -->
    <title>Easily Scalable</title>
    <desc>Created with Sketch.</desc>
    <g id="Page-1" stroke="none" stroke-width="1" fill="none" fill-rule="evenodd">
        <g id="Node-JS" transform="translate(-809.000000, -2060.000000)" fill-rule="nonzero">
            <g id="Group-4" transform="translate(781.000000, 1993.000000)">
                <g id="Easily-Scalable" transform="translate(28.000000, 67.000000)">
                    <path d="M6.27149321,35.2629305 L6.27149321,28.1251765 C6.2131086,28.1045134 6.1520362,28.0850481 6.09454751,28.0640856 C4.28104072,27.4060107 2.83710407,26.6224599 1.7918552,25.7489198 L1.7918552,35.2629305 C1.7918552,38.0418182 9.08933484,41.138139 19.561086,41.138139 C20.3253122,41.138139 21.0719186,41.121918 21.800905,41.0894759 C12.5429864,40.6874439 6.27149321,37.8390802 6.27149321,35.2629305 Z" id="Path" fill="#D4E1F4"/>
                    <path d="M6.27149321,22.4287487 L6.27149321,15.2897968 C6.21325792,15.2692834 6.15293213,15.2498182 6.09529412,15.2290053 C4.28148869,14.570631 2.83710407,13.7864813 1.7918552,12.9135401 L1.7918552,22.4287487 C1.7918552,25.2076364 9.08933484,28.3039572 19.561086,28.3039572 C20.3253122,28.3039572 21.0719186,28.2877362 21.800905,28.2552941 C12.5429864,27.853262 6.27149321,25.0053476 6.27149321,22.4287487 Z" id="Path" fill="#D4E1F4"/>
                    <path d="M6.34615385,9.59456684 C6.34615385,7.01916578 12.6176471,4.16990374 21.8755656,3.76787166 C21.1466787,3.73622816 20.4000724,3.72000713 19.6357466,3.71920856 C9.16399548,3.71920856 1.86651584,6.81567914 1.86651584,9.59456684 C1.86651584,12.3734545 9.16399548,15.4696257 19.6357466,15.4696257 C20.3999729,15.4696257 21.1465792,15.4534545 21.8755656,15.4211123 C12.6176471,15.0189305 6.34615385,12.1705668 6.34615385,9.59456684 Z" id="Path" fill="#D4E1F4"/>
                    <path d="M6.27149321,48.1862032 L6.27149321,40.9593583 C6.2131086,40.9386952 6.1520362,40.9192299 6.09454751,40.8982674 C4.28104072,40.2401925 2.83710407,39.4561925 1.7918552,38.5832513 L1.7918552,48.1862032 C1.7918552,50.9652406 9.08933484,54.0615615 19.561086,54.0615615 C20.3253122,54.0615615 21.0719186,54.0453405 21.800905,54.0128984 C12.5429864,53.6108663 6.27149321,50.7623529 6.27149321,48.1862032 Z" id="Path" fill="#D4E1F4"/>
                    <path d="M25.0299774,21.3406417 C23.2380832,21.5293849 21.4374986,21.6230983 19.6357466,21.6213904 C17.3817849,21.6259708 15.130099,21.4775459 12.8961312,21.1771337 C12.5780641,21.1316587 12.2600641,21.2604464 12.0627049,21.5146654 C11.8653457,21.7688844 11.8188458,22.1096101 11.9408361,22.4076522 C12.0628265,22.7056943 12.3346286,22.9154183 12.6531855,22.9573048 C14.9676642,23.2687903 17.3005204,23.4227682 19.6357466,23.4181818 C21.5010874,23.4200351 23.3652235,23.3230729 25.220362,23.1277005 C25.7124065,23.0751478 26.068802,22.6325657 26.0163936,22.1391658 C25.9639853,21.6457658 25.5226191,21.2883885 25.0305747,21.3409412 L25.0299774,21.3406417 Z" id="Path" fill="#24527a"/>
                    <path d="M30.8983032,18.527016 C29.5514381,18.527016 28.4595882,19.6218738 28.4595882,20.9724492 C28.4595882,22.3230246 29.5514381,23.4178824 30.8983032,23.4178824 C32.2451682,23.4178824 33.3370181,22.3230246 33.3370181,20.9724492 C33.3355368,19.6224895 32.2445542,18.5285014 30.8983032,18.527016 L30.8983032,18.527016 Z M30.8983032,21.6210909 C30.5410524,21.6210909 30.2514434,21.3306841 30.2514434,20.9724492 C30.2514434,20.6142143 30.5410524,20.3238075 30.8983032,20.3238075 C31.2555539,20.3238075 31.5451629,20.6142143 31.5451629,20.9724492 C31.5449983,21.3306642 31.255534,21.62106 30.8983032,21.6213904 L30.8983032,21.6210909 Z" id="Shape" fill="#24527a"/>
                    <path d="M25.0299774,34.4907594 C23.238078,34.6794026 21.4374933,34.773016 19.6357466,34.7712086 C17.3817309,34.7757699 15.1299933,34.6272949 12.8959819,34.3268021 C12.4057105,34.2596124 11.9539486,34.6036828 11.8869434,35.0953048 C11.8199383,35.5869268 12.1630634,36.0399333 12.6533348,36.107123 C14.9677667,36.4185758 17.300571,36.5725535 19.6357466,36.568 C21.5010901,36.5698036 23.3652261,36.4727914 25.220362,36.277369 C25.5408753,36.2460902 25.8199918,36.0447314 25.9514529,35.7499492 C26.0829139,35.4551669 26.0464936,35.112315 25.8560569,34.8519158 C25.6656202,34.5915167 25.3504669,34.453634 25.0305747,34.4907594 L25.0299774,34.4907594 Z" id="Path" fill="#24527a"/>
                    <path d="M30.8983032,31.6771337 C29.5514381,31.6771337 28.4595882,32.7719914 28.4595882,34.1225668 C28.4595882,35.4731423 29.5514381,36.568 30.8983032,36.568 C32.2451682,36.568 33.3370181,35.4731423 33.3370181,34.1225668 C33.3355368,32.7726071 32.2445542,31.6786191 30.8983032,31.6771337 L30.8983032,31.6771337 Z M30.8983032,34.7712086 C30.5410524,34.7712086 30.2514434,34.4808018 30.2514434,34.1225668 C30.2514434,33.7643319 30.5410524,33.4739251 30.8983032,33.4739251 C31.2555539,33.4739251 31.5451629,33.7643319 31.5451629,34.1225668 C31.5448336,34.4806649 31.2554174,34.7708784 30.8983032,34.7712086 Z" id="Shape" fill="#24527a"/>
                    <path d="M25.0299774,47.6407273 C23.2380847,47.829473 21.4374973,47.9231366 19.6357466,47.9213262 C17.3817824,47.9258281 15.1300985,47.7773534 12.8961312,47.4769198 C12.5780641,47.4314448 12.2600641,47.5602325 12.0627049,47.8144515 C11.8653457,48.0686705 11.8188458,48.4093962 11.9408361,48.7074383 C12.0628265,49.0054804 12.3346286,49.2152044 12.6531855,49.2570909 C14.9676634,49.5686005 17.3005178,49.7226283 19.6357466,49.7181176 C21.501094,49.7199231 23.3652328,49.6228608 25.220362,49.4273369 C25.5408753,49.3960581 25.8199918,49.1946993 25.9514529,48.8999171 C26.0829139,48.6051348 26.0464936,48.2622829 25.8560569,48.0018837 C25.6656202,47.7414846 25.3504669,47.603602 25.0305747,47.6407273 L25.0299774,47.6407273 Z" id="Path" fill="#24527a"/>
                    <path d="M30.8983032,44.8271016 C29.9118475,44.827041 29.0224938,45.422866 28.6449657,46.3367313 C28.2674375,47.2505966 28.4760869,48.3025217 29.1736164,49.0019727 C29.8711459,49.7014238 30.9201811,49.910648 31.8315358,49.5320798 C32.7428904,49.1535116 33.3370785,48.261708 33.3370181,47.2725348 C33.3355368,45.9225751 32.2445542,44.828587 30.8983032,44.8271016 L30.8983032,44.8271016 Z M30.8983032,47.9213262 C30.6365989,47.9213868 30.4006301,47.7633522 30.3004383,47.5209203 C30.2002465,47.2784883 30.255565,46.999407 30.4405966,46.8138229 C30.6256281,46.6282388 30.9039299,46.5727035 31.145719,46.6731153 C31.387508,46.7735271 31.5451629,47.0101095 31.5451629,47.2725348 C31.5448337,47.6306571 31.2554416,47.9209135 30.8983032,47.9213262 Z" id="Shape" fill="#24527a"/>
                    <path d="M58.2662036,4.94117647 C58.6717602,6.58823529 60.2106652,7.9317861 62.0429864,7.9317861 C63.4450126,7.9548566 64.7504969,7.21803277 65.4582357,6.00419712 C66.1659746,4.79036147 66.1659746,3.28816259 65.4582357,2.07432694 C64.7504969,0.860491297 63.4450126,0.123667464 62.0429864,0.146737968 C60.2334211,0.118417167 58.6542408,1.37181863 58.2662036,3.14438503 L46.5135747,3.14438503 C46.0188733,3.14438503 45.5429864,3.53848128 45.5429864,4.03469519 L45.5429864,27.1016043 L38.5995475,27.1016043 C38.1047404,27.1016043 37.7036199,27.5038297 37.7036199,28 C37.7036199,28.4961703 38.1047404,28.8983957 38.5995475,28.8983957 L45.5429864,28.8983957 L45.5429864,51.9491337 C45.5429864,52.4453476 46.0188733,52.855615 46.5135747,52.855615 L58.2662036,52.855615 C58.6717602,54.5026738 60.2106652,55.8462246 62.0429864,55.8462246 C63.4450126,55.8692951 64.7504969,55.1324713 65.4582357,53.9186356 C66.1659746,52.7048 66.1659746,51.2026011 65.4582357,49.9887654 C64.7504969,48.7749298 63.4450126,48.038106 62.0429864,48.0611765 C60.2334211,48.0328557 58.6542408,49.2862571 58.2662036,51.0588235 L47.3348416,51.0588235 L47.3348416,28.8983957 L58.2662036,28.8983957 C58.6717602,30.5454545 60.2106652,31.8890053 62.0429864,31.8890053 C63.4450126,31.9120759 64.7504969,31.175252 65.4582357,29.9614164 C66.1659746,28.7475807 66.1659746,27.2453818 65.4582357,26.0315462 C64.7504969,24.8177105 63.4450126,24.0808867 62.0429864,24.1039572 C60.2334211,24.0756364 58.6542408,25.3290379 58.2662036,27.1016043 L47.3348416,27.1016043 L47.3348416,4.94117647 L58.2662036,4.94117647 Z M62.0429864,1.9384385 C63.1975364,1.9384385 64.1334842,2.87696459 64.1334842,4.03469519 C64.1334842,5.19242579 63.1975364,6.13095187 62.0429864,6.13095187 C60.8884364,6.13095187 59.9524887,5.19242579 59.9524887,4.03469519 C59.9538053,2.87751189 60.8889822,1.93975874 62.0429864,1.9384385 L62.0429864,1.9384385 Z M62.0429864,49.852877 C63.1975364,49.852877 64.1334842,50.7914031 64.1334842,51.9491337 C64.1334842,53.1068643 63.1975364,54.0453904 62.0429864,54.0453904 C60.8884364,54.0453904 59.9524887,53.1068643 59.9524887,51.9491337 C59.9538053,50.7919504 60.8889822,49.8541972 62.0429864,49.852877 L62.0429864,49.852877 Z M62.0429864,25.8956578 C63.1975364,25.8956578 64.1334842,26.8341838 64.1334842,27.9919144 C64.1334842,29.149645 63.1975364,30.0881711 62.0429864,30.0881711 C60.8884364,30.0881711 59.9524887,29.149645 59.9524887,27.9919144 C59.9538053,26.8347311 60.8889822,25.896978 62.0429864,25.8956578 L62.0429864,25.8956578 Z" id="Shape" fill="#43D92D"/>
                    <path d="M33.1015385,3.95997861 C29.4809457,2.64607487 24.704009,1.92241711 19.6178281,1.92241711 C14.5316471,1.92241711 9.70737557,2.64607487 6.08678281,3.95997861 C2.1800905,5.37779679 0,7.37882353 0,9.59456684 L0,48.1862032 C0,50.4029947 2.18845249,52.4043209 6.09454751,53.8216898 C9.71439367,55.1349947 14.52881,55.8580535 19.6170814,55.8580535 C24.7053529,55.8580535 29.473181,55.1346952 33.0928778,53.8216898 C36.9989729,52.4043209 39.1221719,50.4029947 39.1221719,48.1862032 L39.1221719,9.59456684 C39.1221719,7.37882353 37.0080814,5.37779679 33.1015385,3.95997861 Z M37.3303167,34.995508 L37.3303167,35.2629305 C37.3303167,38.0418182 30.0328371,41.138139 19.561086,41.138139 C9.08933484,41.138139 1.7918552,38.0418182 1.7918552,35.2629305 L1.7918552,25.7489198 C2.83710407,26.621861 4.28104072,27.4060107 6.09454751,28.0640856 C9.71439367,29.3773904 14.52881,30.1004492 19.6170814,30.1004492 C24.7053529,30.1004492 29.473181,29.3770909 33.0928778,28.0640856 C34.9065339,27.4060107 36.4343891,26.6224599 37.3303167,25.7489198 L37.3303167,34.995508 Z M37.3303167,22.4287487 C37.3303167,25.2076364 30.0328371,28.3039572 19.561086,28.3039572 C9.08933484,28.3039572 1.7918552,25.2076364 1.7918552,22.4287487 L1.7918552,12.9135401 C2.83710407,13.7864813 4.28148869,14.570631 6.09529412,15.2290053 C9.71588688,16.5427594 14.5301538,17.2664171 19.6170814,17.2664171 C24.704009,17.2664171 29.4722851,16.5427594 33.0921312,15.2290053 C34.906086,14.5701818 36.4343891,13.7864813 37.3303167,12.9135401 L37.3303167,22.4287487 Z M19.6357466,3.71920856 C30.1074977,3.71920856 37.4049774,6.81567914 37.4049774,9.59456684 C37.4049774,12.3734545 30.1074977,15.4696257 19.6357466,15.4696257 C9.16399548,15.4696257 1.86651584,12.3734545 1.86651584,9.59456684 C1.86651584,6.81567914 9.16399548,3.71920856 19.6357466,3.71920856 Z M19.561086,54.0615615 C9.08933484,54.0615615 1.7918552,50.9652406 1.7918552,48.1862032 L1.7918552,38.5832513 C2.83710407,39.4561925 4.28104072,40.2401925 6.09454751,40.8982674 C9.71439367,42.2117219 14.52881,42.934631 19.6170814,42.934631 C24.7053529,42.934631 29.473181,42.2114225 33.0928778,40.8982674 C34.9065339,40.2401925 36.4343891,39.4561925 37.3303167,38.5832513 L37.3303167,48.1862032 C37.3303167,50.9652406 30.0328371,54.0615615 19.561086,54.0615615 Z" id="Shape" fill="#24527a"/>
                </g>
            </g>
        </g>
    </g>
</svg>