<?xml version="1.0" encoding="UTF-8"?>
<svg width="63px" height="63px" viewBox="0 0 63 63" version="1.1" xmlns="http://www.w3.org/2000/svg" xmlns:xlink="http://www.w3.org/1999/xlink">
    <!-- Generator: Sketch 54 (76480) - https://sketchapp.com -->
    <title>eCommerce UI/UX</title>
    <desc>Created with Sketch.</desc>
    <g id="Page-1" stroke="none" stroke-width="1" fill="none" fill-rule="evenodd">
        <g id="Node-JS" transform="translate(-393.000000, -1362.000000)" fill-rule="nonzero">
            <g id="Group-4" transform="translate(392.000000, 1362.000000)">
                <g id="eCommerce-UI/UX" transform="translate(1.000000, 0.000000)">
                    <path d="M47.9153017,39.0033269 L47.9153017,37.8794231 L46.5575431,37.8794231 L46.5575431,39.0033269 C46.5606858,41.8411831 48.8802314,44.1409637 51.7425517,44.1441538 L53.1003103,44.1441538 C50.23799,44.1409637 47.9184444,41.8411831 47.9153017,39.0033269 Z" id="Path" fill="#D4E1F4"/>
                    <path d="M53.1000388,22.1225577 L51.7422802,22.1225577 C48.8801718,22.1258959 46.5608351,24.4254694 46.5575431,27.2631154 L46.5575431,36.2640385 L47.9153017,36.2640385 L47.9153017,27.2631154 C47.9185937,24.4254694 50.2379304,22.1258959 53.1000388,22.1225577 L53.1000388,22.1225577 Z" id="Path" fill="#D4E1F4"/>
                    <g id="Group" fill="#0B75FF">
                        <path d="M40.8731509,0.275019231 C38.8773631,0.261553341 37.1453706,1.63711364 36.7230259,3.57107692 L26.8351487,3.57107692 L26.8351487,0.908788462 C26.8351487,0.462712317 26.4704152,0.101096154 26.0204935,0.101096154 L19.020569,0.101096154 C18.5706473,0.101096154 18.2059138,0.462712317 18.2059138,0.908788462 L18.2059138,3.57107692 L8.22910345,3.57107692 C7.85667026,1.64230769 6.17780172,0.182 4.16831896,0.182 C1.8860625,0.182 0.0293275854,2.06473077 0.0293275854,4.37876923 C0.0293275854,6.69280769 1.88538362,8.575 4.16831896,8.575 C6.17780172,8.575 7.85734914,7.11482692 8.22978233,5.18592308 L16.4542694,5.18592308 C12.6503661,7.34837597 10.3084303,11.3673769 10.3189655,15.7147308 C10.3189655,16.1608069 10.6836991,16.5224231 11.1336207,16.5224231 C11.5835423,16.5224231 11.9482759,16.1608069 11.9482759,15.7147308 C11.9377827,11.5693884 14.3899491,7.80652369 18.2059138,6.11234615 L18.2059138,7.84888462 C18.2059138,8.29496076 18.5706473,8.65657692 19.020569,8.65657692 L26.0204935,8.65657692 C26.4704152,8.65657692 26.8351487,8.29496076 26.8351487,7.84888462 L26.8351487,6.07115385 C30.7050104,7.73958881 33.2021606,11.5313134 33.186472,15.7151346 C33.186472,16.1612108 33.5512055,16.5228269 34.0011272,16.5228269 C34.4510488,16.5228269 34.8157823,16.1612108 34.8157823,15.7151346 C34.8236848,13.0949586 33.9694052,10.5437213 32.3825431,8.44846154 C31.3781037,7.12302598 30.1129709,6.01332628 28.6636422,5.18646154 L36.7230259,5.18646154 C37.1453235,7.12045373 38.8773449,8.496037 40.8731509,8.48251923 C43.2072737,8.48251923 45.1062349,6.64165385 45.1062349,4.37876923 C45.1062349,2.11588462 43.2072737,0.275019231 40.8731509,0.275019231 L40.8731509,0.275019231 Z M4.16831896,6.95961538 C2.78449138,6.95961538 1.65863793,5.80192308 1.65863793,4.37823077 C1.65863793,2.95453846 2.78340517,1.79738462 4.16831896,1.79738462 C5.55323276,1.79738462 6.67827155,2.95507692 6.67827155,4.37876923 C6.67827155,5.80246154 5.55160345,6.95961538 4.16831896,6.95961538 Z M19.835903,7.04038462 L19.835903,5.18673077 C19.8952042,5.02087718 19.8979233,4.84030403 19.8436422,4.67276923 C19.8413341,4.66590385 19.8382112,4.65930769 19.835903,4.65257692 L19.835903,1.71648077 L25.2065172,1.71648077 L25.2065172,4.60451923 C25.2009504,4.61905769 25.1949763,4.63332692 25.1900884,4.64840385 C25.1361006,4.82028861 25.1418861,5.00516786 25.2065172,5.17340385 L25.2065172,7.04119231 L19.835903,7.04038462 Z M40.8738297,6.86632692 C39.4382716,6.86632692 38.2701918,5.75009615 38.2701918,4.37796154 C38.2701918,3.00582692 39.4378642,1.88959615 40.8738297,1.88959615 C42.3097953,1.88959615 43.4776034,3.00596154 43.4776034,4.37796154 C43.4776034,5.74996154 42.3088448,6.86713462 40.8731509,6.86713462 L40.8738297,6.86632692 Z" id="Shape"/>
                        <path d="M12.6099116,19.3820577 C12.4531139,18.9639357 11.9841274,18.751004 11.5624009,18.9064616 C11.1406743,19.0619191 10.9259071,19.5268972 11.0827047,19.9450192 C11.4146203,20.8295061 11.8496066,21.6725262 12.3788211,22.4569423 C12.5394404,22.6995486 12.818988,22.8380746 13.1111121,22.8198191 C13.4032362,22.8015637 13.6630277,22.6293332 13.7916509,22.3686515 C13.920274,22.1079699 13.8979551,21.7989124 13.7331853,21.5590577 C13.2745777,20.8792084 12.8976009,20.1485953 12.6099116,19.3820577 L12.6099116,19.3820577 Z" id="Path"/>
                        <path d="M33.7436961,18.2514231 C33.3133493,18.1214244 32.8581841,18.3618874 32.7270065,18.7885385 C32.4862386,19.570853 32.1539526,20.3225428 31.7369289,21.0282692 C31.5898525,21.2772971 31.5879484,21.585202 31.7319338,21.8359992 C31.8759193,22.0867963 32.1439194,22.2423837 32.4349812,22.244153 C32.7260431,22.2459223 32.9959473,22.0936048 33.1430237,21.8445769 C33.6242423,21.0301665 34.0077004,20.162731 34.2855776,19.2599615 C34.3487044,19.0549771 34.327068,18.8335217 34.225433,18.6443606 C34.1237979,18.4551996 33.9504986,18.3138448 33.7436961,18.2514231 Z" id="Path"/>
                    </g>
                    <path d="M56.1568966,20.5071731 L51.7422802,20.5071731 C47.9807318,20.5114758 44.9324976,23.5337169 44.9282328,27.2631154 L44.9282328,39.0033269 C44.9324229,42.7329048 47.9808224,45.7553098 51.7425517,45.7595385 L53.1353405,45.7595385 L53.1353405,55.965 C53.1204883,58.8919303 50.7231039,61.2568963 47.7709041,61.2568963 C44.8187043,61.2568963 42.4213199,58.8919303 42.4064677,55.965 L42.4064677,51.1022885 C42.4064677,49.0277777 41.2901886,47.1108506 39.4781218,46.0735952 C37.666055,45.0363398 35.4334967,45.0363398 33.6214299,46.0735952 C31.8093631,47.1108506 30.693084,49.0277777 30.6930841,51.1022885 L30.6930841,52.98825 C30.6930841,54.4892962 29.4657557,55.7061346 27.9517694,55.7061346 C26.4377831,55.7061346 25.2104547,54.4892962 25.2104547,52.98825 L25.2104547,45.6165769 C25.2104547,45.1705008 24.8457212,44.8088846 24.3957996,44.8088846 C23.9458779,44.8088846 23.5811444,45.1705008 23.5811444,45.6165769 L23.5811444,52.98825 C23.5811444,55.3814485 25.5379399,57.3215192 27.9517694,57.3215192 C30.3655989,57.3215192 32.3223944,55.3814485 32.3223944,52.98825 L32.3223944,51.1022885 C32.3223943,49.604899 33.1281287,48.2212541 34.4360851,47.4725593 C35.7440415,46.7238646 37.3555102,46.7238646 38.6634666,47.4725593 C39.971423,48.2212541 40.7771574,49.604899 40.7771573,51.1022885 L40.7771573,55.965 C40.7941232,59.7826007 43.9203556,62.8684865 47.7709041,62.8684865 C51.6214526,62.8684865 54.747685,59.7826007 54.7646509,55.965 L54.7646509,45.7595385 L56.1568966,45.7595385 C59.9185729,45.7552356 62.9668897,42.7328523 62.9710797,39.0033269 L62.9710797,27.2631154 C62.9668148,23.5336644 59.918498,20.5114016 56.1568966,20.5071731 L56.1568966,20.5071731 Z M53.135069,44.1441538 L51.7422802,44.1441538 C48.8800659,44.1408154 46.5606855,41.8410781 46.5575431,39.0033269 L46.5575431,37.8794231 L53.1353405,37.8794231 L53.135069,44.1441538 Z M61.3420409,39.0033269 C61.3388981,41.8412356 59.0192699,44.1410379 56.1568966,44.1441538 L54.7643793,44.1441538 L54.7643793,37.8794231 L61.3420409,37.8794231 L61.3420409,39.0033269 Z M61.3420409,36.2640385 L46.5575431,36.2640385 L46.5575431,27.2631154 C46.5608354,24.4253644 48.8803373,22.1257476 51.7425517,22.1225577 L56.1568966,22.1225577 C59.019058,22.1258217 61.3384772,24.4254169 61.3417694,27.2631154 L61.3420409,36.2640385 Z" id="Shape" fill="#43D92D"/>
                    <path d="M31.6197543,23.7620385 C31.6848324,23.543163 31.6528116,23.3071671 31.531707,23.1131237 C31.4106024,22.9190803 31.2118767,22.7853557 30.9852737,22.7454231 L24.9432478,13.0636154 C24.7948256,12.8257881 24.5328731,12.6810105 24.2507909,12.6809038 L24.2456315,12.6809038 C23.9618159,12.6828466 23.6994782,12.831101 23.5531746,13.0722308 L16.6461207,24.4549038 C16.1817223,24.1453394 15.7425834,23.8000646 15.3327608,23.4222692 C15.1197377,23.2256151 14.8170781,23.1565743 14.538791,23.2411539 C14.2605038,23.3257335 14.0488675,23.5510837 13.9836034,23.8323174 C13.9183394,24.1135511 14.0093627,24.4079421 14.2223858,24.6045962 C14.7150993,25.0588483 15.2445426,25.4722906 15.8053966,25.8407692 L15.6305172,26.1291154 C15.4905254,26.3599 15.4757589,26.6446797 15.5911422,26.8884808 L19.7475129,35.672 L19.7536228,36.6210385 C19.3255968,36.6513099 18.9946405,37.0055793 18.996944,37.4310192 L19.0493534,45.6211538 C19.0521902,46.065231 19.4160942,46.4237397 19.8640086,46.4237308 L19.8691681,46.4237308 L29.048431,46.3665192 C29.2644924,46.3651668 29.471162,46.2787712 29.6229729,46.1263392 C29.7747837,45.9739073 29.8592994,45.7679261 29.8579267,45.5537115 L29.8406832,42.8243846 L29.8406832,42.8227692 L29.8060603,37.3630385 C29.803804,36.9373147 29.4679133,36.586783 29.0391983,36.56275 L29.0330884,35.6138462 L33.0782586,26.7791731 C33.1904433,26.5338833 33.1720653,26.2493128 33.0292435,26.0202115 L31.6197543,23.7620385 Z M24.3454267,28.4824615 L24.3352435,28.4824615 C23.4398245,28.4852495 22.7116644,27.7678332 22.7088524,26.8800673 C22.7060404,25.9923014 23.4296413,25.2703649 24.3250603,25.2675769 L24.3352435,25.2675769 C25.2306625,25.264789 25.9588226,25.9822053 25.9616346,26.8699712 C25.9644466,27.757737 25.2408457,28.4796735 24.3454267,28.4824615 L24.3454267,28.4824615 Z M21.3815754,36.2923077 L27.4079871,36.25475 L27.4100237,36.5709615 L21.3834763,36.6085192 L21.3815754,36.2923077 Z M28.1820453,38.1815 L28.1891056,39.2965192 L20.6390172,39.3435 L20.6319569,38.2284808 L28.1820453,38.1815 Z M20.6492004,40.9588846 L28.1992888,40.9119038 L28.2064849,42.0267885 L20.6563966,42.0736346 L20.6492004,40.9588846 Z M20.6736401,44.8040385 L20.6665797,43.6890192 L28.2166681,43.6421731 L28.2237284,44.7569231 L20.6736401,44.8040385 Z M27.6910797,34.6376154 L21.0778448,34.6788077 L17.2515453,26.5925962 L23.4540582,16.3684231 L23.5009009,23.7588077 C21.9229607,24.174498 20.9007223,25.6860008 21.1119685,27.2911324 C21.3232146,28.8962641 22.702415,30.0971008 24.3351078,30.0974423 L24.3557457,30.0974423 C25.9921792,30.0870657 27.3656921,28.8721897 27.5620753,27.2614348 C27.7584586,25.6506798 26.7164751,24.1463191 25.1296681,23.7496538 L25.0828254,16.3580577 L31.4144612,26.5038846 L27.6910797,34.6376154 Z" id="Shape" fill="#0B75FF"/>
                </g>
            </g>
        </g>
    </g>
</svg>