<?xml version="1.0" encoding="UTF-8"?>
<svg width="53px" height="66px" viewBox="0 0 53 66" version="1.1" xmlns="http://www.w3.org/2000/svg" xmlns:xlink="http://www.w3.org/1999/xlink">
    <!-- Generator: Sketch 54 (76480) - https://sketchapp.com -->
    <title>Enterprise Mobility</title>
    <desc>Created with Sketch.</desc>
    <g id="Page-1" stroke="none" stroke-width="1" fill="none" fill-rule="evenodd">
        <g id="Android-App-Development" transform="translate(-401.000000, -1626.000000)" fill-rule="nonzero">
            <g id="Group-27" transform="translate(392.000000, 1621.000000)">
                <g id="Enterprise-Mobility" transform="translate(9.000000, 5.000000)">
                    <path d="M19.9572776,1.3438914 L15.4530283,1.3438914 C11.971961,1.34775911 9.15096828,4.15333788 9.14707932,7.61538462 L9.14707932,7.82443439 L13.6513286,7.82443439 L13.6513286,7.61538462 C13.6552176,4.15333788 16.4762103,1.34775911 19.9572776,1.3438914 L19.9572776,1.3438914 Z" id="Path" fill="#D4E1F4"/>
                    <polygon id="Path" fill="#D4E1F4" points="9.14707932 23.5031674 9.14707932 53.4570136 13.6513286 53.4570136 13.6513286 23.5031674 11.1106317 21.8546606"/>
                    <path d="M13.6513286,58.3846154 L13.6513286,55.2488688 L9.14707932,55.2488688 L9.14707932,58.3846154 C9.15096828,61.8466621 11.971961,64.6522409 15.4530283,64.6561086 L19.9572776,64.6561086 C16.4762103,64.6522409 13.6552176,61.8466621 13.6513286,58.3846154 Z" id="Path" fill="#D4E1F4"/>
                    <path d="M6.30594901,20.0154706 L6.30594901,15.9461674 L1.80169972,15.9461674 L1.80169972,20.0154706 C2.65200229,21.5267506 4.26446234,22.4553782 6.00566572,22.4365656 C6.6834315,22.4391431 7.35433836,22.3015965 7.97582436,22.0326516 C8.00502984,22.0167594 8.035105,22.0025019 8.06590935,21.9899457 C8.12926912,21.9600814 8.19007649,21.9266335 8.25193484,21.8946787 C7.4339977,21.4688854 6.75796868,20.8160547 6.30594901,20.0154706 L6.30594901,20.0154706 Z" id="Path" fill="#D4E1F4"/>
                    <polygon id="Path" fill="#D4E1F4" points="8.16845609 8.87670136 3.02775637 14.1543122 7.53200567 14.1543122 12.6727054 8.87670136"/>
                    <path d="M6.00566572,24.2284208 L6.00566572,24.2284208 C6.51097677,24.2283655 7.01465689,24.17141 7.50708215,24.0586425 L7.50708215,59.1312217 C7.51138473,62.9229693 10.6010181,65.9957209 14.4135977,66 L38.4362606,66 C42.2488402,65.9957209 45.3384736,62.9229693 45.3427762,59.1312217 L45.3427762,24.0605837 C45.8352141,24.1732444 46.3388934,24.2300996 46.8441926,24.2300633 C49.3311528,24.2352762 51.6115145,22.8546863 52.7489632,20.6551629 C52.8157271,20.5275061 52.8505923,20.3857343 52.8506091,20.2418416 L52.8506091,15.0502398 C52.8506091,15.0456109 52.8506091,15.0412805 52.8506091,15.0368009 C52.8506091,15.027543 52.8495581,15.0185837 52.8491076,15.0093258 C52.8477792,14.9781789 52.8447721,14.9471252 52.8400992,14.9162986 C52.8387479,14.9077873 52.8376969,14.899276 52.8360453,14.8906154 C52.8293604,14.8522097 52.8200806,14.8142958 52.8082691,14.7771312 C52.8082691,14.7753394 52.8069178,14.7738462 52.8064674,14.7720543 C52.7946905,14.7367736 52.7806998,14.7022624 52.7645779,14.668724 C52.7611246,14.6614072 52.7576714,14.6537919 52.754068,14.6470724 C52.7365417,14.612075 52.7167307,14.5782561 52.694762,14.5458326 C52.6932606,14.5435928 52.6914589,14.5415023 52.6899575,14.5394118 C52.6685898,14.5091148 52.6453217,14.4801886 52.6202918,14.4528054 C52.6169887,14.4490724 52.6144363,14.4447421 52.610983,14.441009 L46.0197649,7.37169231 C45.8492954,7.18880404 45.6098935,7.08485446 45.3591416,7.08484615 L45.3427762,7.08484615 L45.3427762,6.86877828 C45.3384736,3.07703065 42.2488402,0.00427907168 38.4362606,0 L14.4135977,0 C10.6010181,0.00427907168 7.51138473,3.07703065 7.50708215,6.86877828 L7.50708215,7.12979186 C7.36789509,7.17484762 7.24184369,7.25295583 7.13983569,7.35735747 L0.253739377,14.4268235 C0.0898960281,14.5959053 -0.000491471838,14.8223021 0.002101983,15.0571086 C0.002101983,15.0711448 0,15.0848824 0,15.0989186 L0,20.2418416 C0.000257435167,20.3856399 0.0350552954,20.527296 0.101495751,20.6550136 C1.23915354,22.8538633 3.51921273,24.2338338 6.00566572,24.2284208 Z M38.4362606,64.2081448 L14.4135977,64.2081448 C11.5955892,64.2050177 9.31192614,61.9338326 9.30878187,59.1312217 L9.30878187,55.2488688 L43.5410765,55.2488688 L43.5410765,59.1312217 C43.5379322,61.9338326 41.2542691,64.2050177 38.4362606,64.2081448 Z M43.5410765,53.4570136 L9.30878187,53.4570136 L9.30878187,23.3562353 C9.99476755,22.9668389 10.6049899,22.4582667 11.1104816,21.8546606 C12.3744187,23.3582908 14.2436243,24.2272171 16.2142465,24.2272171 C18.1848686,24.2272171 20.0540742,23.3582908 21.3180113,21.8546606 C22.581614,23.3593211 24.4513097,24.2289047 26.4225124,24.2287317 C28.3937151,24.2285587 30.2632564,23.358647 31.5265921,21.8537647 C32.7900585,23.35891 34.6599184,24.2289097 36.6314079,24.2289097 C38.6028975,24.2289097 40.4727574,23.35891 41.7362238,21.8537647 C42.2424484,22.4586747 42.8537638,22.9682794 43.5410765,23.3583258 L43.5410765,53.4570136 Z M46.8441926,22.4382081 C46.166008,22.4408128 45.4947021,22.3030035 44.872983,22.0335475 C44.8450274,22.0185911 44.8163119,22.0050844 44.7869518,21.9930814 C43.8150954,21.5415041 43.0232873,20.7792554 42.53783,19.8279231 C42.3824089,19.5316058 42.0740716,19.3459564 41.7380255,19.346362 L41.7371246,19.346362 C41.4003736,19.3470861 41.092028,19.5341797 40.9373201,19.8316561 C40.1049253,21.4319546 38.4444422,22.4367806 36.6327984,22.4364977 C34.8211545,22.4362149 33.1609888,21.4308705 32.3290992,19.8303122 C32.1743156,19.5327623 31.8655462,19.3459554 31.5286941,19.3460633 L31.5286941,19.3460633 C31.1916866,19.3464123 30.8829603,19.5335037 30.7281388,19.8312081 C29.8954088,21.4320045 28.2341193,22.4368816 26.421877,22.4359702 C24.6096346,22.4350587 22.9493679,21.428511 22.1182663,19.8268778 C21.9630196,19.5308939 21.6551812,19.3453009 21.3195127,19.3453167 L21.3180113,19.3453167 C20.9818071,19.345878 20.6738935,19.5325874 20.5194079,19.8295656 C19.6871839,21.4297545 18.0269902,22.434646 16.2155227,22.434646 C14.4040551,22.434646 12.7438615,21.4297545 11.9116374,19.8295656 C11.7567815,19.5317832 11.4477177,19.3449007 11.1106248,19.3452151 C10.7735318,19.3455295 10.464821,19.5329881 10.3105269,19.8310588 C9.82613916,20.7793694 9.03654339,21.5391563 8.06756091,21.9893484 C8.03675656,22.0019046 8.0066814,22.0161621 7.97747592,22.0320543 C7.3555244,22.3014274 6.68403003,22.4391825 6.00566572,22.4365656 C4.26446234,22.4553782 2.65200229,21.5267506 1.80169972,20.0154706 L1.80169972,15.9461674 L51.0481586,15.9461674 L51.0481586,20.014724 C50.1980272,21.5264775 48.5857396,22.455922 46.8441926,22.4382081 Z M14.4135977,1.7918552 L38.4362606,1.7918552 C41.2542691,1.79498229 43.5379322,4.06616739 43.5410765,6.86877828 L43.5410765,7.08484615 L9.30878187,7.08484615 L9.30878187,6.86877828 C9.31192614,4.06616739 11.5955892,1.79498229 14.4135977,1.7918552 Z M8.16845609,8.87670136 L44.9659207,8.87670136 L49.8854618,14.1543122 L3.02775637,14.1543122 L8.16845609,8.87670136 Z" id="Shape" fill="#24527a"/>
                    <path d="M26.4249292,56.5927602 C24.6835894,56.5927602 23.2719547,57.9966818 23.2719547,59.7285068 C23.2719547,61.4603318 24.6835894,62.8642534 26.4249292,62.8642534 C28.1662689,62.8642534 29.5779037,61.4603318 29.5779037,59.7285068 C29.5760005,57.9974664 28.16548,56.594653 26.4249292,56.5927602 Z M26.4249292,61.0723982 C25.6786407,61.0723982 25.0736544,60.4707175 25.0736544,59.7285068 C25.0736544,58.9862961 25.6786407,58.3846154 26.4249292,58.3846154 C27.1712176,58.3846154 27.776204,58.9862961 27.776204,59.7285068 C27.775294,60.4703423 27.1708404,61.0714932 26.4249292,61.0723982 L26.4249292,61.0723982 Z" id="Shape" fill="#24527a"/>
                    <path d="M15.4530283,42.1085973 L20.1409008,42.1085973 C20.6384265,42.1085973 21.0417507,41.7074768 21.0417507,41.2126697 C21.0417507,40.7178625 20.6384265,40.3167421 20.1409008,40.3167421 L15.4530283,40.3167421 C14.9555027,40.3167421 14.5521785,40.7178625 14.5521785,41.2126697 C14.5521785,41.7074768 14.9555027,42.1085973 15.4530283,42.1085973 Z" id="Path" fill="#43D92D"/>
                    <path d="M23.6386006,42.1085973 L24.9235127,42.1085973 C25.4210384,42.1085973 25.8243626,41.7074768 25.8243626,41.2126697 C25.8243626,40.7178625 25.4210384,40.3167421 24.9235127,40.3167421 L23.6386006,40.3167421 C23.1410749,40.3167421 22.7377507,40.7178625 22.7377507,41.2126697 C22.7377507,41.7074768 23.1410749,42.1085973 23.6386006,42.1085973 Z" id="Path" fill="#43D92D"/>
                    <path d="M37.39683,40.3167421 L28.782153,40.3167421 C28.2846273,40.3167421 27.8813031,40.7178625 27.8813031,41.2126697 C27.8813031,41.7074768 28.2846273,42.1085973 28.782153,42.1085973 L37.3963796,42.1085973 C37.8939052,42.1085973 38.2972295,41.7074768 38.2972295,41.2126697 C38.2972295,40.7178625 37.8939052,40.3167421 37.3963796,40.3167421 L37.39683,40.3167421 Z" id="Path" fill="#43D92D"/>
                    <path d="M15.4530283,47.1855204 L17.138068,47.1855204 C17.6355936,47.1855204 18.0389178,46.7843999 18.0389178,46.2895928 C18.0389178,45.7947856 17.6355936,45.3936652 17.138068,45.3936652 L15.4530283,45.3936652 C14.9555027,45.3936652 14.5521785,45.7947856 14.5521785,46.2895928 C14.5521785,46.7843999 14.9555027,47.1855204 15.4530283,47.1855204 Z" id="Path" fill="#43D92D"/>
                    <path d="M19.7349178,46.2895928 C19.7349178,46.7843999 20.1382421,47.1855204 20.6357677,47.1855204 L29.427762,47.1855204 C29.9252877,47.1855204 30.3286119,46.7843999 30.3286119,46.2895928 C30.3286119,45.7947856 29.9252877,45.3936652 29.427762,45.3936652 L20.6357677,45.3936652 C20.1382421,45.3936652 19.7349178,45.7947856 19.7349178,46.2895928 Z" id="Path" fill="#43D92D"/>
                    <path d="M37.39683,45.3936652 L33.2864023,45.3936652 C32.7888766,45.3936652 32.3855524,45.7947856 32.3855524,46.2895928 C32.3855524,46.7843999 32.7888766,47.1855204 33.2864023,47.1855204 L37.3963796,47.1855204 C37.8939052,47.1855204 38.2972295,46.7843999 38.2972295,46.2895928 C38.2972295,45.7947856 37.8939052,45.3936652 37.3963796,45.3936652 L37.39683,45.3936652 Z" id="Path" fill="#43D92D"/>
                    <path d="M15.4530283,30.4615385 L24.6451501,30.4615385 C25.1426758,30.4615385 25.546,30.060418 25.546,29.5656109 C25.546,29.0708037 25.1426758,28.6696833 24.6451501,28.6696833 L15.4530283,28.6696833 C14.9555027,28.6696833 14.5521785,29.0708037 14.5521785,29.5656109 C14.5521785,30.060418 14.9555027,30.4615385 15.4530283,30.4615385 L15.4530283,30.4615385 Z" id="Path" fill="#43D92D"/>
                    <path d="M28.1428499,30.4615385 L32.4305949,30.4615385 C32.9281205,30.4615385 33.3314448,30.060418 33.3314448,29.5656109 C33.3314448,29.0708037 32.9281205,28.6696833 32.4305949,28.6696833 L28.1428499,28.6696833 C27.6453242,28.6696833 27.242,29.0708037 27.242,29.5656109 C27.242,30.060418 27.6453242,30.4615385 28.1428499,30.4615385 L28.1428499,30.4615385 Z" id="Path" fill="#43D92D"/>
                    <path d="M36.2892351,30.4615385 L37.3963796,30.4615385 C37.8939052,30.4615385 38.2972295,30.060418 38.2972295,29.5656109 C38.2972295,29.0708037 37.8939052,28.6696833 37.3963796,28.6696833 L36.2892351,28.6696833 C35.7917095,28.6696833 35.3883853,29.0708037 35.3883853,29.5656109 C35.3883853,30.060418 35.7917095,30.4615385 36.2892351,30.4615385 L36.2892351,30.4615385 Z" id="Path" fill="#43D92D"/>
                    <path d="M15.4530283,35.5384615 L20.1409008,35.5384615 C20.6384265,35.5384615 21.0417507,35.1373411 21.0417507,34.6425339 C21.0417507,34.1477268 20.6384265,33.7466063 20.1409008,33.7466063 L15.4530283,33.7466063 C14.9555027,33.7466063 14.5521785,34.1477268 14.5521785,34.6425339 C14.5521785,35.1373411 14.9555027,35.5384615 15.4530283,35.5384615 Z" id="Path" fill="#43D92D"/>
                    <path d="M23.6386006,35.5384615 L32.4305949,35.5384615 C32.9281205,35.5384615 33.3314448,35.1373411 33.3314448,34.6425339 C33.3314448,34.1477268 32.9281205,33.7466063 32.4305949,33.7466063 L23.6386006,33.7466063 C23.1410749,33.7466063 22.7377507,34.1477268 22.7377507,34.6425339 C22.7377507,35.1373411 23.1410749,35.5384615 23.6386006,35.5384615 Z" id="Path" fill="#43D92D"/>
                    <path d="M36.2892351,35.5384615 L37.3963796,35.5384615 C37.8939052,35.5384615 38.2972295,35.1373411 38.2972295,34.6425339 C38.2972295,34.1477268 37.8939052,33.7466063 37.3963796,33.7466063 L36.2892351,33.7466063 C35.7917095,33.7466063 35.3883853,34.1477268 35.3883853,34.6425339 C35.3883853,35.1373411 35.7917095,35.5384615 36.2892351,35.5384615 L36.2892351,35.5384615 Z" id="Path" fill="#43D92D"/>
                </g>
            </g>
        </g>
    </g>
</svg>