<?xml version="1.0" encoding="UTF-8"?>
<svg width="61px" height="63px" viewBox="0 0 61 63" version="1.1" xmlns="http://www.w3.org/2000/svg" xmlns:xlink="http://www.w3.org/1999/xlink">
    <!-- Generator: Sketch 54 (76480) - https://sketchapp.com -->
    <title>Full Stack Capabilities</title>
    <desc>Created with Sketch.</desc>
    <g id="Page-1" stroke="none" stroke-width="1" fill="none" fill-rule="evenodd">
        <g id="Node-JS" transform="translate(-1202.000000, -2053.000000)" fill-rule="nonzero">
            <g id="Group-4" transform="translate(1171.000000, 1993.000000)">
                <g id="Full-Stack-Capabilities" transform="translate(31.000000, 60.000000)">
                    <path d="M24.3265841,59.7123484 C21.9388119,58.8451161 20.5132743,57.7048839 20.5132743,56.6623355 L20.5132743,51.2138516 C18.8657345,50.6976581 17.4621947,50.039071 16.4646018,49.2428323 L16.4646018,56.6623355 C16.4646018,57.7048839 17.8901394,58.8451161 20.2779115,59.7123484 C22.9949757,60.6994839 26.6251504,61.2433161 30.5,61.2433161 C31.1837758,61.2433161 31.8585546,61.2262903 32.5243363,61.1922387 C29.4215686,61.0364323 26.5641504,60.5252516 24.3265841,59.7123484 Z" id="Path" fill="#D4E1F4"/>
                    <path d="M24.3265841,49.4220774 C21.9388119,48.5547097 20.5132743,47.4144774 20.5132743,46.3720645 L20.5132743,40.9944387 C18.8657345,40.4782452 17.4621947,39.8197935 16.4646018,39.0235548 L16.4646018,46.3720645 C16.4646018,47.4144774 17.8901394,48.5547097 20.2779115,49.4220774 C22.9949757,50.4090774 26.6251504,50.9530452 30.5,50.9530452 C31.1837758,50.9530452 31.8585546,50.9360194 32.5243363,50.9019677 C29.4215686,50.7461613 26.5641504,50.2349806 24.3265841,49.4220774 Z" id="Path" fill="#D4E1F4"/>
                    <path d="M24.3265841,39.2028 C21.9388119,38.3354323 20.5132743,37.1952 20.5132743,36.1526516 L20.5132743,30.7751613 C18.8657345,30.2589677 17.4621947,29.6003806 16.4646018,28.8042774 L16.4646018,36.1526516 C16.4646018,37.1952 17.8901394,38.3354323 20.2779115,39.2028 C22.9949757,40.1898 26.6251504,40.7337677 30.5,40.7337677 C31.1837758,40.7337677 31.8585546,40.7167419 32.5243363,40.6826903 C29.4215686,40.5267484 26.5641504,40.0155677 24.3265841,39.2028 Z" id="Path" fill="#D4E1F4"/>
                    <path d="M24.3271239,28.9827097 C21.9384071,28.1156129 20.5132743,26.9751097 20.5132743,25.9333742 C20.5132743,24.8916387 21.9389469,23.7520839 24.3271239,22.8839032 C26.5650951,22.071 29.4223783,21.5594129 32.5243363,21.4038774 C31.8593643,21.3705484 31.1845855,21.3534774 30.5,21.3526645 C26.6267699,21.3526645 22.9964602,21.8964968 20.2784513,22.8836323 C17.8897345,23.750729 16.4646018,24.8912323 16.4646018,25.9331032 C16.4646018,26.9749742 17.8902743,28.1143935 20.2784513,28.9824387 C22.9961903,29.9698452 26.6262301,30.5134065 30.5,30.5134065 C31.1837758,30.5134065 31.8585546,30.4963355 32.5243363,30.4621935 C29.4223783,30.3077419 26.5652301,29.7958839 24.3271239,28.9827097 Z" id="Path" fill="#D4E1F4"/>
                    <path d="M5.66814159,48.4387355 L5.66814159,12.7354839 L1.61946903,12.7354839 L1.61946903,48.4387355 C1.61946903,49.484671 2.46699115,50.4 3.50884956,50.4 L7.55752212,50.4 C6.51566372,50.4 5.66814159,49.484671 5.66814159,48.4387355 Z" id="Path" fill="#D4E1F4"/>
                    <path d="M7.55752212,1.62580585 L3.50884956,1.62580645 C2.46666702,1.62498267 1.62095871,2.47212051 1.61946903,3.51838065 L1.61946903,11.1096774 L5.66814159,11.1096774 L5.66814159,3.51838065 C5.66963127,2.47212051 6.51533959,1.62498267 7.55752212,1.62580585 L7.55752212,1.62580585 Z" id="Path" fill="#D4E1F4"/>
                    <path d="M3.50884956,52.0258065 L15.6548673,52.0258065 C16.1020713,52.0258065 16.4646018,51.6618573 16.4646018,51.2129032 C16.4646018,50.7639492 16.1020713,50.4 15.6548673,50.4 L3.50884956,50.4 C2.46699115,50.4 1.61946903,49.484671 1.61946903,48.4387355 L1.61946903,12.7354839 L59.380531,12.7354839 L59.380531,48.4387355 C59.380531,49.484671 58.5330088,50.4 57.4911504,50.4 L45.3451327,50.4 C44.8979287,50.4 44.5353982,50.7639492 44.5353982,51.2129032 C44.5353982,51.6618573 44.8979287,52.0258065 45.3451327,52.0258065 L57.4911504,52.0258065 C59.4260111,52.0258065 61,50.3810323 61,48.4387355 L61,3.51838065 C60.9976914,1.57455348 59.4274019,-1.38167152e-06 57.4911504,0 L3.50884956,0 C1.57259809,-1.38167152e-06 0.00230860752,1.57455348 0,3.51838065 L0,48.4387355 C-9.58918294e-16,50.3810323 1.57412389,52.0258065 3.50884956,52.0258065 Z M3.50884956,1.62580645 L57.4911504,1.62580645 C58.533333,1.62498267 59.3790413,2.47212051 59.380531,3.51838065 L59.380531,11.1096774 L1.61946903,11.1096774 L1.61946903,3.51838065 C1.62095871,2.47212051 2.46666702,1.62498267 3.50884956,1.62580645 Z" id="Shape" fill="#24527a"/>
                    <path d="M6.32362168,9.19149677 C7.50893652,9.19155157 8.57756797,8.47478317 9.03120615,7.3754254 C9.48484432,6.27606763 9.234151,5.01062488 8.39602614,4.16918146 C7.55790128,3.32773804 6.2974028,3.07600541 5.20230946,3.53136817 C4.10721612,3.98673093 3.39319248,5.05951122 3.39319248,6.24946452 C3.39497738,7.87350838 4.70590846,9.1896301 6.32362168,9.19149677 Z M6.32362168,4.93337419 C6.85393472,4.9333194 7.33205754,5.25398743 7.53502477,5.7458396 C7.737992,6.23769177 7.62582884,6.80385681 7.25084089,7.18031219 C6.87585294,7.55676756 6.31189483,7.66936965 5.82195991,7.46560815 C5.33202499,7.26184666 5.01260692,6.78185281 5.0126615,6.24946452 C5.01347961,5.52294837 5.59993751,4.9341955 6.32362168,4.93337419 Z" id="Shape" fill="#24527a"/>
                    <path d="M13.9583385,9.19149677 C15.5768444,9.19149677 16.8889027,7.87430407 16.8889027,6.24946452 C16.8889027,4.62462497 15.5768444,3.30743226 13.9583385,3.30743226 C12.3398326,3.30743226 11.0277743,4.62462497 11.0277743,6.24946452 C11.0295594,7.87356121 12.3405726,9.18970475 13.9583385,9.19149677 Z M13.9583385,4.93337419 C14.4886393,4.9333742 14.9667207,5.25407698 15.1696454,5.74593349 C15.3725701,6.23779 15.2603736,6.80393281 14.885375,7.1803601 C14.5103765,7.55678738 13.9464289,7.66936463 13.4565106,7.46559519 C12.9665922,7.26182576 12.6471888,6.78184049 12.6472434,6.24946452 C12.6480616,5.52289554 13.2346016,4.93412084 13.9583385,4.93337419 L13.9583385,4.93337419 Z" id="Shape" fill="#24527a"/>
                    <path d="M21.4514867,9.19149677 C22.6368016,9.19155157 23.705433,8.47478317 24.1590712,7.3754254 C24.6127094,6.27606763 24.362016,5.01062488 23.5238912,4.16918146 C22.6857663,3.32773804 21.4252678,3.07600541 20.3301745,3.53136817 C19.2350812,3.98673093 18.5210575,5.05951122 18.5210575,6.24946452 C18.5229166,7.87347747 19.8338043,9.1895556 21.4514867,9.19149677 L21.4514867,9.19149677 Z M21.4514867,4.93337419 C21.9817998,4.9333194 22.4599226,5.25398743 22.6628898,5.7458396 C22.865857,6.23769177 22.7536939,6.80385681 22.3787059,7.18031219 C22.003718,7.55676756 21.4397599,7.66936965 20.949825,7.46560815 C20.45989,7.26184666 20.140472,6.78185281 20.1405265,6.24946452 C20.1414188,5.52297927 20.7278333,4.93426998 21.4514867,4.93337419 L21.4514867,4.93337419 Z" id="Shape" fill="#24527a"/>
                    <path d="M32.6206947,6.90967742 L56.9378319,6.90967742 C57.3850359,6.90967742 57.7475664,6.54572825 57.7475664,6.09677419 C57.7475664,5.64782014 57.3850359,5.28387097 56.9378319,5.28387097 L32.6206947,5.28387097 C32.1734907,5.28387097 31.8109602,5.64782014 31.8109602,6.09677419 C31.8109602,6.54572825 32.1734907,6.90967742 32.6206947,6.90967742 Z" id="Path" fill="#24527a"/>
                    <path d="M30.5,62.8687161 C34.5578496,62.8687161 38.3839801,62.2907419 41.2731128,61.2412839 C44.4210907,60.0976645 46.1548673,58.4714516 46.1548673,56.661929 L46.1548673,25.9333742 C46.1548673,21.9020516 38.0891018,19.7268581 30.5,19.7268581 C26.4430951,19.7268581 22.6173695,20.3051032 19.727292,21.3551032 C16.5790442,22.4989935 14.8451327,24.1248 14.8451327,25.9333742 L14.8451327,56.6623355 C14.8451327,60.6935226 22.9108982,62.8687161 30.5,62.8687161 Z M40.7220885,59.7119419 C38.0050243,60.6990774 34.3748496,61.2429097 30.5,61.2429097 C26.6251504,61.2429097 22.9949757,60.6994839 20.2779115,59.7119419 C17.8901394,58.8451161 16.4646018,57.7048839 16.4646018,56.6623355 L16.4646018,49.2428323 C19.1988053,51.4253419 24.9751814,52.5784452 30.5,52.5784452 C34.5578496,52.5784452 38.3839801,52.000471 41.2731128,50.9508774 C42.6334668,50.4567677 43.7293075,49.8724258 44.5353982,49.2221032 L44.5353982,56.6623355 C44.5353982,57.7048839 43.1099956,58.8451161 40.7220885,59.7123484 L40.7220885,59.7119419 Z M44.5353982,36.1526516 C44.5353982,37.1952 43.1099956,38.3354323 40.7220885,39.2028 C38.0050243,40.1898 34.3748496,40.7337677 30.5,40.7337677 C26.6251504,40.7337677 22.9949757,40.1903419 20.2779115,39.2028 C17.8901394,38.3354323 16.4646018,37.1952 16.4646018,36.1526516 L16.4646018,28.803871 C19.1988053,30.9862452 24.9751814,32.1393484 30.5,32.1393484 C34.5569049,32.1393484 38.3826305,31.5611032 41.272573,30.5111032 C42.6331969,30.0168581 43.7287677,29.4322452 44.5353982,28.7820581 L44.5353982,36.1526516 Z M30.5,42.3590323 C34.5578496,42.3590323 38.3839801,41.7810581 41.2731128,40.7316 C42.6334668,40.2373548 43.7293075,39.6530129 44.5353982,39.0028258 L44.5353982,46.3720645 C44.5353982,47.4144774 43.1099956,48.5547097 40.7220885,49.4220774 C38.0050243,50.4090774 34.3748496,50.9530452 30.5,50.9530452 C26.6251504,50.9530452 22.9949757,50.4094839 20.2779115,49.4220774 C17.8901394,48.5547097 16.4646018,47.4144774 16.4646018,46.3720645 L16.4646018,39.0235548 C19.1988053,41.205929 24.9751814,42.3590323 30.5,42.3590323 Z M20.2784513,22.8839032 C22.9964602,21.8964968 26.6267699,21.3522581 30.5,21.3522581 C34.3732301,21.3522581 38.0035398,21.8960903 40.7215487,22.8832258 C43.1102655,23.7503226 44.5353982,24.8908258 44.5353982,25.9326968 C44.5353982,26.9745677 43.1097257,28.1139871 40.7215487,28.9820323 C38.0038097,29.9694387 34.373635,30.513 30.5,30.513 C26.626365,30.513 22.9964602,29.9691677 20.2784513,28.9820323 C17.8897345,28.1149355 16.4646018,26.9744323 16.4646018,25.9326968 C16.4646018,24.8909613 17.8902743,23.7515419 20.2784513,22.8839032 Z" id="Shape" fill="#43D92D"/>
                    <path d="M34.6119668,35.393129 C33.24602,35.5370968 31.8734534,35.6085511 30.5,35.6071935 C28.7819389,35.6108307 27.0656043,35.4976686 25.3627743,35.2684839 C25.0761359,35.2291316 24.7903587,35.3462869 24.6130923,35.5758184 C24.4358259,35.8053499 24.3940012,36.1123863 24.5033733,36.38127 C24.6127453,36.6501537 24.8566978,36.8400349 25.1433363,36.8793871 C26.9188955,37.1184847 28.7085424,37.2366258 30.5,37.233 C31.9307536,37.2344087 33.3605809,37.1598789 34.7834956,37.0097226 C35.2248771,36.9584386 35.5426439,36.5596634 35.4955803,36.1161061 C35.4485166,35.6725488 35.0542053,35.3499213 34.6119668,35.393129 L34.6119668,35.393129 Z" id="Path" fill="#43D92D"/>
                    <path d="M39.1130111,33.0679548 C37.920467,33.0679548 36.953719,34.038486 36.953719,35.2356968 C36.953719,36.4329076 37.920467,37.4034387 39.1130111,37.4034387 C40.3055551,37.4034387 41.2723031,36.4329076 41.2723031,35.2356968 C41.2709644,34.0390431 40.3050002,33.0692988 39.1130111,33.0679548 Z M39.1130111,35.7776323 C38.814875,35.7776323 38.5731881,35.5349995 38.5731881,35.2356968 C38.5731881,34.9363941 38.814875,34.6937613 39.1130111,34.6937613 C39.4111471,34.6937613 39.6528341,34.9363941 39.6528341,35.2356968 C39.6528341,35.5349995 39.4111471,35.7776323 39.1130111,35.7776323 Z" id="Shape" fill="#43D92D"/>
                    <path d="M25.1433363,46.9470581 C26.9188884,47.1862705 28.7085339,47.3045473 30.5,47.3010774 C31.9307495,47.3024627 33.3605732,47.2279783 34.7834956,47.0779355 C35.2282027,47.0303837 35.550311,46.6299183 35.5029446,46.183471 C35.4555783,45.7370236 35.0566739,45.4136548 34.6119668,45.4612065 C33.2460253,45.6052419 31.8734551,45.6766964 30.5,45.675271 C28.7819417,45.6788207 27.065613,45.565659 25.3627743,45.3365613 C25.0750429,45.2948873 24.7871397,45.4112587 24.6084471,45.6414627 C24.4297546,45.8716667 24.3876992,46.1803706 24.4982591,46.450289 C24.608819,46.7202074 24.8550249,46.9099122 25.1433363,46.947329 L25.1433363,46.9470581 Z" id="Path" fill="#43D92D"/>
                    <path d="M39.1130111,47.4715161 C40.3055551,47.4715161 41.2723031,46.500985 41.2723031,45.3037742 C41.2723031,44.1065634 40.3055551,43.1360323 39.1130111,43.1360323 C37.920467,43.1360323 36.953719,44.1065634 36.953719,45.3037742 C36.9550578,46.5004279 37.921022,47.4701722 39.1130111,47.4715161 Z M39.1130111,44.7618387 C39.4111471,44.7618387 39.6528341,45.0044715 39.6528341,45.3037742 C39.6528341,45.6030769 39.4111471,45.8457097 39.1130111,45.8457097 C38.814875,45.8457097 38.5731881,45.6030769 38.5731881,45.3037742 C38.5731881,45.0044715 38.814875,44.7618387 39.1130111,44.7618387 Z" id="Shape" fill="#43D92D"/>
                    <path d="M34.6119668,55.5292839 C33.2460253,55.6733193 31.8734551,55.7447738 30.5,55.7433484 C28.7819399,55.7469565 27.0656072,55.6337946 25.3627743,55.4046387 C25.0761359,55.3652865 24.7903587,55.4824417 24.6130923,55.7119732 C24.4358259,55.9415047 24.3940012,56.2485411 24.5033733,56.5174248 C24.6127453,56.7863085 24.8566978,56.9761897 25.1433363,57.0155419 C26.918899,57.254604 28.7085435,57.372745 30.5,57.3691548 C31.9307495,57.3705402 33.3605732,57.2960557 34.7834956,57.1460129 C35.2282027,57.0984612 35.550311,56.6979958 35.5029446,56.2515484 C35.4555783,55.805101 35.0566739,55.4817322 34.6119668,55.5292839 L34.6119668,55.5292839 Z" id="Path" fill="#43D92D"/>
                    <path d="M39.1130111,53.2045161 C37.920467,53.2045161 36.953719,54.1750473 36.953719,55.3722581 C36.953719,56.5694689 37.920467,57.54 39.1130111,57.54 C40.3055551,57.54 41.2723031,56.5694689 41.2723031,55.3722581 C41.2708902,54.1756353 40.3049694,53.2059346 39.1130111,53.2045161 L39.1130111,53.2045161 Z M39.1130111,55.9141935 C38.814875,55.9141935 38.5731881,55.6715608 38.5731881,55.3722581 C38.5731881,55.0729554 38.814875,54.8303226 39.1130111,54.8303226 C39.4111471,54.8303226 39.6528341,55.0729554 39.6528341,55.3722581 C39.6528341,55.6715608 39.4111471,55.9141935 39.1130111,55.9141935 Z" id="Shape" fill="#43D92D"/>
                </g>
            </g>
        </g>
    </g>
</svg>