<?xml version="1.0" encoding="UTF-8"?>
<svg width="63px" height="70px" viewBox="0 0 63 70" version="1.1" xmlns="http://www.w3.org/2000/svg" xmlns:xlink="http://www.w3.org/1999/xlink">
    <!-- Generator: Sketch 54 (76480) - https://sketchapp.com -->
    <title>Integrating Java-Based</title>
    <desc>Created with Sketch.</desc>
    <g id="Page-1" stroke="none" stroke-width="1" fill="none" fill-rule="evenodd">
        <g id="Java-App-Development" transform="translate(-391.000000, -1444.000000)" fill-rule="nonzero">
            <g id="Group-4" transform="translate(391.000000, 1444.000000)">
                <g id="Integrating-Java-Based">
                    <g id="Group" transform="translate(13.101770, 18.406375)" fill="#D4E1F4">
                        <path d="M5.87321681,16.3578287 L0.00822345133,16.3578287 C0.0953893312,14.4287879 0.491677088,12.5262731 1.1819469,10.7229681 C2.38870354,11.1399004 4.1329115,11.4830677 6.32857301,11.7438247 C6.06352393,13.268523 5.91132507,14.8107138 5.87321681,16.3578287 L5.87321681,16.3578287 Z" id="Path"/>
                        <path d="M5.87321681,18.0311355 C5.9120805,19.630741 6.073163,21.2250309 6.35505531,22.8000598 C4.14420133,23.057749 2.42856637,23.3950598 1.23700221,23.8078088 C0.5127759,21.962729 0.0976140384,20.0108024 0.00822345133,18.0305777 L5.87321681,18.0311355 Z" id="Path"/>
                        <path d="M9.42212389,3.17705179 C9.36971681,3.26294821 9.32051549,3.352749 9.26880531,3.4399004 C8.33356195,3.35911687 7.44696239,3.2651328 6.60900664,3.15794821 C8.17828821,1.84978046 9.95129952,0.807811812 11.8575199,0.0734860558 C10.9202027,1.0029538 10.1021204,2.04548335 9.42212389,3.17705179 L9.42212389,3.17705179 Z" id="Path"/>
                        <path d="M5.04,4.62697211 C6.07922124,4.78747012 7.20764602,4.92649402 8.41844469,5.04237052 C7.65624651,6.65890938 7.06899733,8.35234559 6.66671018,10.0938048 C4.59690929,9.85605578 2.95082522,9.54998008 1.85264602,9.18589641 C2.67854196,7.51374356 3.75321986,5.97661425 5.04,4.62697211 L5.04,4.62697211 Z" id="Path"/>
                        <path d="M1.9221969,25.3408367 C3.0175885,24.9782869 4.64443805,24.6765339 6.70197345,24.4438048 C7.11570161,26.1928203 7.71762083,27.8918442 8.49719469,29.5111355 C7.30716372,29.6226892 6.19657965,29.7544622 5.1774292,29.9054781 C3.86629562,28.5586855 2.76855106,27.0193759 1.9221969,25.3408367 L1.9221969,25.3408367 Z" id="Path"/>
                        <path d="M6.78629867,31.3774303 C7.60000221,31.2784263 8.45984071,31.1906707 9.36581416,31.1141633 C9.38518805,31.1462351 9.40316814,31.1798406 9.42268142,31.2117729 C10.1027645,32.343357 10.920941,33.3858873 11.8583562,34.3153386 C10.0237335,33.6090324 8.31199914,32.6175376 6.78629867,31.3774303 L6.78629867,31.3774303 Z" id="Path"/>
                    </g>
                    <path d="M60.4822301,47.9382869 L60.4822301,22.623247 C61.7194941,22.1249959 62.5498026,20.9472901 62.6037769,19.6140549 C62.6577512,18.2808196 61.9253619,17.039794 60.7324264,16.4430723 C59.5394909,15.8463506 58.1076783,16.0048145 57.073958,16.8479681 L34.9173319,4.16583665 C34.9785589,3.91067147 35.009575,3.64918729 35.0097412,3.38677291 C34.9890216,1.51238985 33.4643353,0.00380421835 31.590667,0.00380421835 C29.7169988,0.00380421835 28.1923125,1.51238985 28.1715929,3.38677291 C28.1714654,3.65760591 28.2042276,3.92745137 28.2691593,4.19037849 L6.00562832,16.881992 C4.95653555,16.2218553 3.63271668,16.1805958 2.54458556,16.7741217 C1.45645444,17.3676475 0.773988627,18.5032436 0.760320796,19.7430677 C0.764424721,21.0317246 1.49920671,22.2063827 2.65589602,22.7734263 L2.65589602,47.7507371 C1.29599115,48.1053191 0.295976132,49.262865 0.142227739,50.6603799 C-0.0115206552,52.0578948 0.712908053,53.4053244 1.96317385,54.0473201 C3.21343965,54.6893158 4.7300499,54.4926315 5.77537168,53.5529283 L28.2942478,66.3903984 C28.2893695,66.4641633 28.2860243,66.5383466 28.2860243,66.613506 C28.3067439,68.487889 29.8314302,69.9964747 31.7050985,69.9964747 C33.5787667,69.9964747 35.103453,68.487889 35.1241726,66.613506 C35.1240035,66.4893879 35.1169773,66.3653741 35.1031261,66.2420319 L57.1768208,53.6590438 C58.1957308,54.6349216 59.711203,54.87985 60.9854287,54.2745854 C62.2596545,53.6693209 63.0278408,52.3396416 62.9159956,50.9329029 C62.8041504,49.5261641 61.835516,48.3346961 60.4816726,47.9385657 L60.4822301,47.9382869 Z M59.2333805,17.7581076 C60.1748594,17.7766578 60.9248418,18.5520028 60.9124898,19.494 C60.9001377,20.4359972 60.1300832,21.1913929 59.188442,21.1852287 C58.2468008,21.1790644 57.486693,20.413652 57.4866637,19.4715737 C57.4971565,18.5163266 58.2785344,17.7498231 59.2333805,17.7581076 L59.2333805,17.7581076 Z M31.5905973,1.67330677 C32.5321161,1.69170447 33.2822391,2.46698509 33.2699878,3.40902057 C33.2577364,4.35105606 32.4877054,5.10654927 31.5460269,5.10043391 C30.6043484,5.09431856 29.8441856,4.32888813 29.8441593,3.38677291 C29.8547285,2.43166817 30.6358906,1.66525396 31.5905973,1.67330677 L31.5905973,1.67330677 Z M4.17932522,18.0298805 C5.120844,18.0482782 5.87096701,18.8235588 5.85871565,19.7655943 C5.84646429,20.7076298 5.07643326,21.463123 4.13475475,21.4570076 C3.19307623,21.4508923 2.4329135,20.6854618 2.43288717,19.7433466 C2.44345634,18.7882419 3.22461852,18.0218277 4.17932522,18.0298805 L4.17932522,18.0298805 Z M3.49162168,52.7482072 C2.55015911,52.7297339 1.80012049,51.9544777 1.81237066,51.012497 C1.82462083,50.0705162 2.59456609,49.3150445 3.53619039,49.3210819 C4.47781469,49.3271192 5.23801805,50.0924017 5.23819912,51.0344622 C5.22770628,51.9896543 4.44641363,52.7561354 3.49162168,52.7479283 L3.49162168,52.7482072 Z M31.7057257,68.3266932 C30.7642069,68.3082955 30.0140839,67.5330149 30.0263352,66.5909794 C30.0385866,65.6489439 30.8086176,64.8934507 31.7502961,64.8995661 C32.6919747,64.9056814 33.4521374,65.6711119 33.4521637,66.6132271 C33.4415945,67.5683318 32.6604324,68.334746 31.7057257,68.3266932 L31.7057257,68.3266932 Z M32.5420088,63.3293625 L32.5420088,54.8069323 L30.8694425,54.8069323 L30.8694425,63.3293625 C30.0351194,63.5388129 29.3099663,64.0543495 28.8378319,64.7737052 L6.71493584,52.1629681 C6.93525515,51.5480288 6.97053306,50.8819606 6.81640487,50.2471713 L15.376042,46.23751 L14.6668739,44.7221912 L6.02974115,48.7681076 C5.57504772,48.2685246 4.98300941,47.9144057 4.32790487,47.7501793 L4.32790487,23.1260757 C5.25368125,23.0872069 6.12419832,22.6746715 6.74072124,21.9826494 L14.6611593,26.3781474 L15.472354,24.9148406 L7.51261062,20.498008 C7.69839771,19.6971109 7.5828373,18.8558122 7.18799336,18.134741 L29.0623739,5.66428287 C29.5179594,6.16009866 30.1093537,6.51077611 30.7628164,6.67258964 L30.8698606,16.4039841 L32.542427,16.3854382 L32.4355221,6.6688247 C33.0907052,6.50299588 33.6822928,6.14715847 34.1359646,5.64601594 L56.0665155,18.1986056 C55.7345344,19.0053976 55.7309829,19.9100664 56.0566195,20.7194422 L48.08475,25.1598406 L48.8984535,26.621753 L57.0545841,22.0787251 C57.5566447,22.4914514 58.1657915,22.7526299 58.8107788,22.8317131 L58.8107788,47.8688446 C58.1054504,48.0148375 57.4640081,48.3793915 56.9775066,48.910757 L49.2837013,44.0060159 L48.3848363,45.4170319 L56.1855465,50.390239 C56.0348354,51.0061578 56.0624882,51.6522716 56.2652721,52.2530478 L34.4973783,64.6615936 C34.0242109,63.9994984 33.3311393,63.5272953 32.5420088,63.3293625 L32.5420088,63.3293625 Z M59.5083783,52.8978287 C58.5667626,52.8795073 57.8165069,52.1041964 57.8287079,51.1620648 C57.8409089,50.2199331 58.6109906,49.4643287 59.5527648,49.4704196 C60.4945389,49.4765105 61.2547916,50.2420124 61.2548164,51.1842231 C61.2443234,52.1393825 60.4631388,52.9058811 59.5083783,52.8978287 L59.5083783,52.8978287 Z" id="Shape" fill="#0B75FF"/>
                    <path d="M31.7057257,15.557988 C31.6722743,15.557988 31.6391018,15.5591036 31.6056504,15.559243 C31.5841858,15.559243 31.5627212,15.557988 31.5411173,15.557988 C31.441042,15.557988 31.3412456,15.5602191 31.2415885,15.5638446 C20.2681593,15.8084263 11.4172168,24.7024701 11.4172168,35.6008566 C11.4172168,46.499243 20.2681593,55.3931474 31.2415885,55.6374502 C31.3412456,55.6410757 31.441042,55.6433068 31.5411173,55.6433068 C31.5627212,55.6433068 31.5841858,55.6421912 31.6056504,55.6420518 C31.6391018,55.6420518 31.6722743,55.6433068 31.7057257,55.6433068 C42.8926858,55.6433068 51.9940951,46.6520717 51.9940951,35.6005777 C51.9940951,24.5490837 42.8926858,15.557988 31.7057257,15.557988 Z M30.8694425,40.6358367 C27.2037345,40.6538247 23.8675221,40.7911753 21.1227013,41.0363147 C20.8449945,39.5180747 20.6860833,37.9804764 20.6474137,36.43751 L30.8694425,36.43751 L30.8694425,40.6358367 Z M32.5420088,36.43751 L42.4346814,36.43751 C42.3961861,37.9709157 42.2390056,39.4990336 41.9645509,41.0081474 C39.2827301,40.7807171 36.0638761,40.6531275 32.542427,40.6358367 L32.5420088,36.43751 Z M32.5420088,34.7642032 L32.5420088,30.7343227 C36.1303606,30.716753 39.3159027,30.5855378 41.9920088,30.3528088 C42.249256,31.810055 42.3974573,33.2844735 42.4353783,34.7637849 L32.5420088,34.7642032 Z M32.5420088,29.0610159 L32.5420088,23.8779482 C35.2501726,23.865259 37.6600619,23.7898207 39.7969049,23.6499602 C40.6088464,25.2540066 41.228686,26.9483327 41.6435575,28.6977689 C39.0420199,28.9164143 35.9512566,29.0434462 32.5420088,29.0612948 L32.5420088,29.0610159 Z M32.5420088,22.2046414 L32.5420088,17.3098008 C34.8848562,17.6745817 37.088323,19.3155378 38.8606858,22.0308964 C36.971104,22.1363147 34.8705,22.1939044 32.5420088,22.2049203 L32.5420088,22.2046414 Z M30.8694425,17.2672709 L30.8694425,22.2035259 C28.5111239,22.1895817 26.2903739,22.1160956 24.2505398,21.9858566 C26.1009558,19.1713546 28.417042,17.5227291 30.8694425,17.2675498 L30.8694425,17.2672709 Z M30.8694425,23.8768327 L30.8694425,29.0607371 C27.3173296,29.0420518 24.1125531,28.9047012 21.4452279,28.6690438 C21.8644576,26.910658 22.4914357,25.2084548 23.312927,23.5983665 C25.6132633,23.7670916 28.1534735,23.8613546 30.8694425,23.8773904 L30.8694425,23.8768327 Z M30.8694425,30.7341833 L30.8694425,34.7640637 L20.6474137,34.7640637 C20.6854261,33.2748327 20.8352641,31.790566 21.0956615,30.3238048 C23.8364403,30.5749402 27.1344624,30.7164741 30.8694425,30.734741 L30.8694425,30.7341833 Z M18.9749867,34.7640637 L13.1099934,34.7640637 C13.1971592,32.8350229 13.593447,30.9325081 14.2837168,29.1292032 C15.4904735,29.5461355 17.2346814,29.8893028 19.4303429,30.1500598 C19.165287,31.674804 19.0130881,33.2170417 18.9749867,34.7642032 L18.9749867,34.7640637 Z M18.9749867,36.4373705 C19.0138504,38.036976 19.1749329,39.631266 19.4568252,41.2062948 C17.2459712,41.4639841 15.5303363,41.8012948 14.3387721,42.2140438 C13.6145458,40.3689641 13.1993839,38.4170374 13.1099934,36.4368127 L18.9749867,36.4373705 Z M30.8694425,42.3088645 L30.8694425,47.4930478 C28.2312478,47.509502 25.7041394,47.6046016 23.400458,47.7697012 C22.5579268,46.1581608 21.9133935,44.4505525 21.4809093,42.6841036 C24.1167345,42.4569522 27.2962832,42.3265737 30.8694425,42.309004 L30.8694425,42.3088645 Z M30.8694425,49.1662151 L30.8694425,53.9338845 C28.4656858,53.6837251 26.1923894,52.0956175 24.3603717,49.3816534 C26.392958,49.2542032 28.5869469,49.1812749 30.8694425,49.1663546 L30.8694425,49.1662151 Z M32.5420088,53.8916335 L32.5420088,49.1663546 C34.6710465,49.1802988 36.7652389,49.2500199 38.7305044,49.3686853 C36.981,51.966494 34.8275708,53.5359163 32.5420088,53.8917729 L32.5420088,53.8916335 Z M32.5420088,47.4929084 L32.5420088,42.309004 C35.9699336,42.3258765 39.0371416,42.446494 41.6075973,42.6567729 C41.1762969,44.4270727 40.5323671,46.138627 39.6898606,47.7540837 C37.4456947,47.5997211 35.0153164,47.5096414 32.5420088,47.4930478 L32.5420088,47.4929084 Z M44.1071084,36.4373705 L50.301458,36.4373705 C50.211999,38.4175864 49.7968395,40.369502 49.0726792,42.2146016 C47.8231327,41.7823307 46.0004535,41.431494 43.6316814,41.1687849 C43.9093877,39.6059718 44.0683184,38.024352 44.1071084,36.43751 L44.1071084,36.4373705 Z M44.1071084,34.7640637 C44.069265,33.229506 43.9191691,31.6997795 43.6580243,30.1871514 C46.00575,29.9222112 47.8625774,29.5663546 49.1275951,29.1293426 C49.8179236,30.9325881 50.214259,32.8350591 50.301458,34.7640637 L44.1071084,34.7640637 Z M43.3221173,28.5362948 C42.9245007,26.8050132 42.3445983,25.1207661 41.5921261,23.5117729 C42.9466261,23.3904582 44.1770774,23.238745 45.2914248,23.0562151 C46.5685662,24.4003699 47.6357714,25.9295387 48.4570354,27.5921315 C47.3024071,27.9744821 45.5437035,28.2939442 43.3221173,28.5364343 L43.3221173,28.5362948 Z M43.7357987,21.5944422 C42.8136571,21.7160359 41.8166217,21.819409 40.7446925,21.9045618 C40.6821106,21.797749 40.6217588,21.6882869 40.5575044,21.5838446 C39.8296892,20.369478 38.9407651,19.2593672 37.9149889,18.2838048 C40.0387069,19.0277235 42.0106374,20.1493238 43.7357987,21.5945817 L43.7357987,21.5944422 Z M22.5244513,21.5832869 C22.4720442,21.6691833 22.4228429,21.7589841 22.3711327,21.8461355 C21.4358894,21.7653519 20.5492898,21.6713679 19.7113341,21.5641833 C21.2806156,20.2560155 23.053627,19.2140469 24.9598473,18.4797211 C24.022325,19.4091994 23.204054,20.4517776 22.5238938,21.5834263 L22.5244513,21.5832869 Z M18.1417699,23.0334861 C19.1809912,23.1939841 20.3094159,23.333008 21.5202146,23.4488845 C20.7580164,25.0654233 20.1707672,26.7588595 19.7684801,28.5003187 C17.6986792,28.2625697 16.0525951,27.956494 14.9544159,27.5924104 C15.7802998,25.9202083 16.8549782,24.3830313 18.1417699,23.0333466 L18.1417699,23.0334861 Z M15.0239668,43.7472112 C16.1193584,43.3846614 17.746208,43.0829084 19.8037434,42.8501793 C20.2174715,44.5991948 20.8193907,46.2982187 21.5989646,47.91751 C20.4089336,48.0290637 19.2983496,48.1608367 18.2791991,48.3118526 C16.9680655,46.96506 15.870321,45.4257504 15.0239668,43.7472112 L15.0239668,43.7472112 Z M19.8883473,49.7838048 C20.7020509,49.6848008 21.5618894,49.5970452 22.4678628,49.5205378 C22.4872367,49.5526096 22.5052168,49.5862151 22.5247301,49.6181474 C23.2048132,50.7497315 24.0229897,51.7922618 24.9604049,52.7217131 C23.1256843,52.0154332 21.4138541,51.0239374 19.8880686,49.7838048 L19.8883473,49.7838048 Z M40.5577832,49.6181474 C40.5810597,49.5800797 40.6026637,49.5397809 40.6258009,49.5014343 C41.6432788,49.5831474 42.6126704,49.6783865 43.5196195,49.7868725 C41.8459902,51.1463742 39.9497958,52.2058278 37.9149889,52.9183267 C38.940775,51.9427214 39.8296996,50.8325632 40.5575044,49.6181474 L40.5577832,49.6181474 Z M45.1322522,48.3121315 C44.0266858,48.1513546 42.8027854,48.0120518 41.4944204,47.8958964 C42.2740257,46.272022 42.8752977,44.5683495 43.2876903,42.814761 C45.497708,43.0518127 47.2364801,43.3663944 48.3890177,43.7472112 C47.5418941,45.4259646 46.4433504,46.9653684 45.1314159,48.3121315 L45.1322522,48.3121315 Z" id="Shape" fill="#43D92D"/>
                </g>
            </g>
        </g>
    </g>
</svg>