<?xml version="1.0" encoding="UTF-8"?>
<svg width="64px" height="66px" viewBox="0 0 64 66" version="1.1" xmlns="http://www.w3.org/2000/svg" xmlns:xlink="http://www.w3.org/1999/xlink">
    <!-- Generator: Sketch 54 (76480) - https://sketchapp.com -->
    <title>Integrating technologies</title>
    <desc>Created with Sketch.</desc>
    <g id="Page-1" stroke="none" stroke-width="1" fill="none" fill-rule="evenodd">
        <g id="iOs-Development" transform="translate(-380.000000, -1586.000000)" fill-rule="nonzero">
            <g id="Group-4" transform="translate(380.000000, 1586.000000)">
                <g id="Integrating-technologies">
                    <rect id="Rectangle" fill="#D4E1F4" x="27.0188679" y="10.679905" width="4.52830189" height="5.22624434"/>
                    <rect id="Rectangle" fill="#D4E1F4" x="27.0188679" y="50.0374072" width="4.52830189" height="3.43438914"/>
                    <path d="M37.8867925,1.64253394 L33.3584906,1.64253394 C29.8588344,1.64640164 27.0227776,4.45198041 27.0188679,7.91402715 L27.0188679,9.01900452 L31.5471698,9.01900452 L31.5471698,7.91402715 C31.5510795,4.45198041 34.3871363,1.64640164 37.8867925,1.64253394 Z" id="Path" fill="#D4E1F4"/>
                    <path d="M31.5471698,58.2352941 L31.5471698,55.0995475 L27.0188679,55.0995475 L27.0188679,58.2352941 C27.0227776,61.6973409 29.8588344,64.5029196 33.3584906,64.5067873 L37.8867925,64.5067873 C34.3871363,64.5029196 31.5510795,61.6973409 31.5471698,58.2352941 Z" id="Path" fill="#D4E1F4"/>
                    <path d="M32.7924528,66 L56.9433962,66 C60.7763005,65.9956388 63.8823839,62.9229353 63.8867925,59.1312217 L63.8867925,6.86877828 C63.8823839,3.07706472 60.7763005,0.00436118053 56.9433962,0 L32.7924528,0 C28.9595486,0.00436118053 25.8534652,3.07706472 25.8490566,6.86877828 L25.8490566,16.7239819 L27.6603774,16.7239819 L27.6603774,10.7511312 L52.2641509,10.7511312 C52.7643334,10.7511312 53.1698113,10.3500108 53.1698113,9.85520362 C53.1698113,9.36039647 52.7643334,8.95927602 52.2641509,8.95927602 L27.6603774,8.95927602 L27.6603774,6.86877828 C27.6635384,4.06616739 29.9593962,1.79498229 32.7924528,1.7918552 L56.9433962,1.7918552 C59.7764529,1.79498229 62.0723106,4.06616739 62.0754717,6.86877828 L62.0754717,8.95927602 L59.9622642,8.95927602 C59.4620817,8.95927602 59.0566038,9.36039647 59.0566038,9.85520362 C59.0566038,10.3500108 59.4620817,10.7511312 59.9622642,10.7511312 L62.0754717,10.7511312 L62.0754717,53.4570136 L27.6603774,53.4570136 L27.6603774,49.1266968 L25.8490566,49.1266968 L25.8490566,59.1312217 C25.8534652,62.9229353 28.9595486,65.9956388 32.7924528,66 Z M27.6603774,55.2488688 L62.0754717,55.2488688 L62.0754717,59.1312217 C62.0723106,61.9338326 59.7764529,64.2050177 56.9433962,64.2081448 L32.7924528,64.2081448 C29.9593962,64.2050177 27.6635384,61.9338326 27.6603774,59.1312217 L27.6603774,55.2488688 Z" id="Shape" fill="#24527a"/>
                    <path d="M56.914717,10.7511312 C57.4148994,10.7511312 57.8203774,10.3500108 57.8203774,9.85520362 C57.8203774,9.36039647 57.4148994,8.95927602 56.914717,8.95927602 L55.2368302,8.95927602 C54.7366478,8.95927602 54.3311698,9.36039647 54.3311698,9.85520362 C54.3311698,10.3500108 54.7366478,10.7511312 55.2368302,10.7511312 L56.914717,10.7511312 Z" id="Path" fill="#24527a"/>
                    <path d="M44.8679245,62.8642534 C46.618563,62.8642534 48.0377358,61.4603318 48.0377358,59.7285068 C48.0377358,57.9966818 46.618563,56.5927602 44.8679245,56.5927602 C43.1172861,56.5927602 41.6981132,57.9966818 41.6981132,59.7285068 C41.7000266,61.4595472 43.1180792,62.8623606 44.8679245,62.8642534 Z M44.8679245,58.3846154 C45.6181982,58.3846154 46.2264151,58.9862961 46.2264151,59.7285068 C46.2264151,60.4707175 45.6181982,61.0723982 44.8679245,61.0723982 C44.1176509,61.0723982 43.509434,60.4707175 43.509434,59.7285068 C43.5103488,58.9866713 44.1180302,58.3855204 44.8679245,58.3846154 Z" id="Shape" fill="#24527a"/>
                    <path d="M55.4757736,30.3607466 C55.1721105,30.753879 55.2480668,31.3160921 55.645434,31.6165385 L56.2901132,32.1040724 L49.9098868,32.1040724 C49.4097044,32.1040724 49.0042264,32.5051928 49.0042264,33 C49.0042264,33.4948072 49.4097044,33.8959276 49.9098868,33.8959276 L56.2901132,33.8959276 L55.645434,34.3834615 C55.386837,34.5773127 55.2528231,34.8932016 55.294118,35.2115603 C55.3354129,35.5299189 55.5457068,35.8021017 55.8454008,35.925084 C56.1450948,36.0480662 56.4883952,36.0030561 56.7453585,35.8070905 L59.5169811,33.7118145 C59.7411579,33.5423097 59.8726664,33.2791286 59.8726664,33 C59.8726664,32.7208714 59.7411579,32.4576903 59.5169811,32.2881855 L56.7453585,30.1927602 C56.5544891,30.0484713 56.313492,29.9851082 56.0753933,30.0166125 C55.8372946,30.0481168 55.6216019,30.1719073 55.4757736,30.3607466 L55.4757736,30.3607466 Z" id="Path" fill="#43D92D"/>
                    <path d="M49.9098868,25.9635339 C50.1501467,25.9638257 50.380624,25.8694121 50.5503396,25.7011765 L55.0618868,21.2381131 L54.9544151,22.0338462 C54.9089808,22.3523499 55.03963,22.6705049 55.2967242,22.8674322 C55.5538184,23.0643596 55.8978967,23.1098334 56.1982312,22.9865764 C56.4985657,22.8633194 56.7090586,22.5902501 56.7497358,22.2711176 L57.2116226,18.8516606 C57.2489968,18.574995 57.1538891,18.2969039 56.9543885,18.0995179 C56.7548879,17.902132 56.4737899,17.8080052 56.1941132,17.8449367 L52.7375094,18.3018597 C52.4166445,18.3442442 52.1430105,18.5527489 52.0196828,18.8488321 C51.8963551,19.1449153 51.9420701,19.4835949 52.1396073,19.7372936 C52.3371446,19.9909923 52.6564935,20.1211673 52.9773585,20.0787828 L53.7815849,19.9724661 L49.2701887,24.4353801 C49.0111453,24.6915962 48.93363,25.0769524 49.0737891,25.4117524 C49.2139483,25.7465524 49.5441789,25.9648608 49.9104906,25.9648778 L49.9098868,25.9635339 Z" id="Path" fill="#43D92D"/>
                    <path d="M53.7811321,46.0288778 L52.9769057,45.9225611 C52.6560407,45.8801766 52.3366918,46.0103516 52.1391545,46.2640503 C51.9416173,46.517749 51.8959023,46.8564286 52.01923,47.1525118 C52.1425577,47.448595 52.4161917,47.6570997 52.7370566,47.6994842 L56.1936604,48.1564072 C56.2336947,48.1616276 56.2740345,48.1642216 56.3144151,48.1641719 C56.5754759,48.1641189 56.8238157,48.0526262 56.9957459,47.8582871 C57.1676761,47.6639479 57.2464716,47.4056672 57.2119245,47.1496833 L56.7500377,43.7302262 C56.7093605,43.4110938 56.4988676,43.1380245 56.1985331,43.0147675 C55.8981986,42.8915105 55.5541203,42.9369843 55.2970261,43.1339117 C55.0399318,43.330839 54.9092827,43.6489939 54.954717,43.9674977 L55.0621887,44.7632308 L50.5509434,40.2988235 C50.1972311,39.9489537 49.6237839,39.9489871 49.2701132,40.2988982 C48.9164426,40.6488093 48.9164764,41.2160939 49.2701887,41.5659638 L53.7811321,46.0288778 Z" id="Path" fill="#43D92D"/>
                    <path d="M29.9245283,50.321267 C39.5947217,50.321267 47.4339623,42.5662716 47.4339623,33 C47.4339623,23.4337284 39.5947217,15.678733 29.9245283,15.678733 C20.2543349,15.678733 12.4150943,23.4337284 12.4150943,33 C12.4260744,42.5617687 20.2588867,50.3104049 29.9245283,50.321267 Z M30.8301887,48.1592443 L30.8301887,39.5634163 C32.9470778,39.6831146 35.0171814,40.2278482 36.9144151,41.1644389 C35.6075472,44.203276 33.528,46.6281041 30.8301887,48.1592443 Z M30.8301887,37.768724 L30.8301887,33.8959276 L38.4754717,33.8959276 C38.415776,35.7873758 38.1018237,37.6625464 37.5418868,39.4720317 C35.442318,38.4659398 33.1600575,37.8867433 30.8301887,37.768724 L30.8301887,37.768724 Z M30.8301887,32.1040724 L30.8301887,28.231276 C33.1603141,28.1133557 35.4428409,27.5341567 37.5426415,26.5279683 C38.1023225,28.337488 38.416021,30.2126579 38.4754717,32.1040724 L30.8301887,32.1040724 Z M30.8301887,26.4365837 L30.8301887,17.8407557 C33.528,19.3718959 35.6067925,21.796724 36.9144151,24.8355611 C35.0171814,25.7721518 32.9470778,26.3168854 30.8301887,26.4365837 L30.8301887,26.4365837 Z M29.0188679,17.8407557 L29.0188679,26.4373303 C26.900746,26.3212561 24.8277595,25.7855512 22.9228679,24.861991 C24.2298868,21.8109095 26.3130566,19.3763756 29.0188679,17.8407557 Z M29.0188679,28.231724 L29.0188679,32.1040724 L21.3735849,32.1040724 C21.4329925,30.2216989 21.7440729,28.3553919 22.298717,26.5538009 C24.4047457,27.5467222 26.6887736,28.1170104 29.0188679,28.231724 L29.0188679,28.231724 Z M29.0188679,33.8959276 L29.0188679,37.768276 C26.6885172,37.8828918 24.4042233,38.4531824 22.2979623,39.4461991 C21.7435739,37.6445739 21.4327475,35.7782676 21.3735849,33.8959276 L29.0188679,33.8959276 Z M29.0188679,39.5626697 L29.0188679,48.1592443 C26.3130566,46.6236244 24.2298868,44.1890905 22.9228679,41.1377104 C24.8277815,40.2142536 26.900767,39.6786505 29.0188679,39.5626697 L29.0188679,39.5626697 Z M25.6057358,47.9321267 C23.056223,47.2067315 20.7339242,45.8544534 18.8553962,44.0013937 C19.610924,43.2604265 20.4421435,42.5990242 21.3356981,42.0278145 C22.3052241,44.2812706 23.7628562,46.2967833 25.6057358,47.9321267 Z M38.4963019,42.0646968 C39.3807232,42.6388471 40.203246,43.3012721 40.9509434,44.0415611 C39.0799891,45.8740103 36.7734517,47.2118517 34.2433208,47.9321267 C36.0762262,46.3057625 37.5279191,44.3029795 38.4969057,42.0638009 L38.4963019,42.0646968 Z M39.1587925,40.3561629 C39.8454761,38.267197 40.2260973,36.0916857 40.2890566,33.8959276 L45.5959245,33.8959276 C45.4104224,37.1157113 44.2112654,40.197403 42.1664906,42.7091674 C41.2554924,41.8167042 40.2469198,41.0273115 39.1593962,40.3555656 L39.1587925,40.3561629 Z M40.2890566,32.1040724 C40.2262351,29.9085442 39.845818,27.7332388 39.1593962,25.6444344 C40.2469198,24.9726885 41.2554924,24.1832958 42.1664906,23.2908326 C44.2112654,25.802597 45.4104224,28.8842887 45.5959245,32.1040724 L40.2890566,32.1040724 Z M38.4969057,23.9361991 C37.5279191,21.6970205 36.0762262,19.6942375 34.2433208,18.0678733 C36.7734517,18.7881483 39.0799891,20.1259897 40.9509434,21.9584389 C40.2034801,22.6990079 39.3811593,23.3617334 38.4969057,23.9361991 L38.4969057,23.9361991 Z M21.3356981,23.9730814 C20.4421435,23.4018717 19.610924,22.7404694 18.8553962,21.9995023 C20.733823,20.1461171 23.0561305,18.7935256 25.6057358,18.0678733 C23.7627844,19.703389 22.3051476,21.7191121 21.3356981,23.9727828 L21.3356981,23.9730814 Z M20.6775849,25.6813167 C19.9991411,27.7590775 19.6230437,29.9217762 19.5606038,32.104371 L14.2531321,32.104371 C14.4372277,28.904451 15.6226798,25.8403591 17.645283,23.3365249 C18.5641916,24.2277988 19.5813266,25.0142198 20.6775849,25.6810181 L20.6775849,25.6813167 Z M19.56,33.8959276 C19.62244,36.0785225 19.9985373,38.2412212 20.6769811,40.3189819 C19.5807832,40.9857426 18.5636995,41.7721131 17.6448302,42.6633258 C15.6224772,40.1595591 14.4371903,37.0956421 14.2531321,33.8959276 L19.56,33.8959276 Z" id="Shape" fill="#43D92D"/>
                    <path d="M0.468830189,33.7118145 L3.24,35.8072398 C3.49696325,36.0032054 3.84026365,36.0482156 4.13995765,35.9252333 C4.43965165,35.802251 4.64994557,35.5300682 4.6912405,35.2117096 C4.73253543,34.8933509 4.59852144,34.577462 4.33992453,34.3836109 L3.69524528,33.8959276 L10.0754717,33.8959276 C10.5756541,33.8959276 10.9811321,33.4948072 10.9811321,33 C10.9811321,32.5051928 10.5756541,32.1040724 10.0754717,32.1040724 L3.69524528,32.1040724 L4.33992453,31.6165385 C4.59852144,31.4226873 4.73253543,31.1067984 4.6912405,30.7884397 C4.64994557,30.4700811 4.43965165,30.1978983 4.13995765,30.074916 C3.84026365,29.9519338 3.49696325,29.9969439 3.24,30.1929095 L0.468830189,32.2881855 C0.244653385,32.4576903 0.113144892,32.7208714 0.113144892,33 C0.113144892,33.2791286 0.244653385,33.5423097 0.468830189,33.7118145 Z" id="Path" fill="#43D92D"/>
                    <path d="M3.23562264,22.2711176 C3.29562825,22.715745 3.67878134,23.0479435 4.13222642,23.0484842 C4.17261034,23.0484825 4.21294994,23.0458387 4.25298113,23.0405701 C4.49108129,23.0091185 4.70679727,22.88538 4.85266766,22.6965795 C4.99853806,22.5077789 5.06261214,22.2693841 5.03079245,22.0338462 L4.92332075,21.2381131 L9.43471698,25.7011765 C9.66352874,25.9275293 9.99702915,26.0159301 10.3095918,25.9330793 C10.6221545,25.8502284 10.8662938,25.6087128 10.9500447,25.2995091 C11.0337956,24.9903054 10.9444344,24.660389 10.7156226,24.4340362 L6.20377358,19.9711222 L7.00815094,20.0774389 C7.32901589,20.1197967 7.64835043,19.9895971 7.84586432,19.7358851 C8.04337822,19.482173 8.08906443,19.1434934 7.96571338,18.8474235 C7.84236234,18.5513537 7.568714,18.3428736 7.24784906,18.3005158 L3.79124528,17.8435928 C3.51154433,17.8066099 3.23040102,17.9007138 3.03086377,18.0981067 C2.83132651,18.2954997 2.73620028,18.5736216 2.77358491,18.8503167 L3.23562264,22.2711176 Z" id="Path" fill="#43D92D"/>
                    <path d="M10.7159245,40.2988235 C10.5460759,40.1307717 10.3156943,40.0363588 10.0754717,40.0363588 C9.83524905,40.0363588 9.60486754,40.1307717 9.43501887,40.2988235 L4.92362264,44.7618869 L5.03109434,43.9661538 C5.09732682,43.4756763 4.74908883,43.0249506 4.25328302,42.9594299 C3.7574772,42.8939092 3.30185514,43.2384048 3.23562264,43.7288824 L2.77373585,47.1483394 C2.73918532,47.4043492 2.81800024,47.6626548 2.98996415,47.8569993 C3.16192806,48.0513439 3.41030912,48.1628181 3.67139623,48.1628281 C3.7117767,48.1628724 3.75211606,48.1602786 3.79215094,48.1550633 L7.24875472,47.6981403 C7.74476893,47.6326608 8.09320965,47.1818014 8.02701884,46.6911177 C7.96082804,46.2004339 7.50507082,45.8557377 7.0090566,45.9212172 L6.20467925,46.0275339 L10.7162264,41.5646199 C11.0689929,41.214798 11.0688578,40.6484807 10.7159245,40.2988235 Z" id="Path" fill="#43D92D"/>
                </g>
            </g>
        </g>
    </g>
</svg>