<?xml version="1.0" encoding="UTF-8"?>
<svg width="38px" height="66px" viewBox="0 0 38 66" version="1.1" xmlns="http://www.w3.org/2000/svg" xmlns:xlink="http://www.w3.org/1999/xlink">
    <!-- Generator: Sketch 54 (76480) - https://sketchapp.com -->
    <title>iPhone Application</title>
    <desc>Created with Sketch.</desc>
    <g id="Page-1" stroke="none" stroke-width="1" fill="none" fill-rule="evenodd">
        <g id="iOs-Development" transform="translate(-404.000000, -1256.000000)" fill-rule="nonzero">
            <g id="Group-4" transform="translate(392.000000, 1256.000000)">
                <g id="iPhone-Application" transform="translate(12.000000, 0.000000)">
                    <path d="M6.03174603,6.86877828 C6.03490396,4.06616739 8.3284841,1.79498229 11.1587302,1.7918552 L6.63492063,1.7918552 C3.80467458,1.79498229 1.51109443,4.06616739 1.50793651,6.86877828 L1.50793651,8.95927602 L6.03174603,8.95927602 L6.03174603,6.86877828 Z" id="Path" fill="#D4E1F4"/>
                    <rect id="Rectangle" fill="#D4E1F4" x="1.50793651" y="10.7511312" width="4.52380952" height="42.7058824"/>
                    <path d="M6.03174603,59.1312217 L6.03174603,55.2488688 L1.50793651,55.2488688 L1.50793651,59.1312217 C1.51109443,61.9338326 3.80467458,64.2050177 6.63492063,64.2081448 L11.1587302,64.2081448 C8.3284841,64.2050177 6.03490396,61.9338326 6.03174603,59.1312217 L6.03174603,59.1312217 Z" id="Path" fill="#D4E1F4"/>
                    <path d="M31.0634921,0 L6.93650794,0 C3.10740614,0.00436118053 0.00440418399,3.07706472 0,6.86877828 L0,59.1312217 C0.00440418399,62.9229353 3.10740614,65.9956388 6.93650794,66 L31.0634921,66 C34.8925939,65.9956388 37.9955958,62.9229353 38,59.1312217 L38,6.86877828 C37.9955958,3.07706472 34.8925939,0.00436118053 31.0634921,0 Z M31.0634921,64.2081448 L6.93650794,64.2081448 C4.10626188,64.2050177 1.81268173,61.9338326 1.80952381,59.1312217 L1.80952381,55.2488688 L36.1904762,55.2488688 L36.1904762,59.1312217 C36.1873183,61.9338326 33.8937381,64.2050177 31.0634921,64.2081448 Z M36.1904762,8.95927602 L34.0793651,8.95927602 C33.5796789,8.95927602 33.1746032,9.36039647 33.1746032,9.85520362 C33.1746032,10.3500108 33.5796789,10.7511312 34.0793651,10.7511312 L36.1904762,10.7511312 L36.1904762,53.4570136 L1.80952381,53.4570136 L1.80952381,10.7511312 L26.3888889,10.7511312 C26.8885751,10.7511312 27.2936508,10.3500108 27.2936508,9.85520362 C27.2936508,9.36039647 26.8885751,8.95927602 26.3888889,8.95927602 L1.80952381,8.95927602 L1.80952381,6.86877828 C1.81268173,4.06616739 4.10626188,1.79498229 6.93650794,1.7918552 L31.0634921,1.7918552 C33.8937381,1.79498229 36.1873183,4.06616739 36.1904762,6.86877828 L36.1904762,8.95927602 Z" id="Shape" fill="#24527a"/>
                    <path d="M31.0349921,8.95927602 L29.358619,8.95927602 C28.8589328,8.95927602 28.4538571,9.36039647 28.4538571,9.85520362 C28.4538571,10.3500108 28.8589328,10.7511312 29.358619,10.7511312 L31.0349921,10.7511312 C31.5346783,10.7511312 31.939754,10.3500108 31.939754,9.85520362 C31.939754,9.36039647 31.5346783,8.95927602 31.0349921,8.95927602 L31.0349921,8.95927602 Z" id="Path" fill="#24527a"/>
                    <path d="M19,56.5927602 C17.2510983,56.5927602 15.8333333,57.9966818 15.8333333,59.7285068 C15.8333333,61.4603318 17.2510983,62.8642534 19,62.8642534 C20.7489017,62.8642534 22.1666667,61.4603318 22.1666667,59.7285068 C22.1646723,57.9975005 20.7480749,56.5947351 19,56.5927602 L19,56.5927602 Z M19,61.0723982 C18.2504707,61.0723982 17.6428571,60.4707175 17.6428571,59.7285068 C17.6428571,58.9862961 18.2504707,58.3846154 19,58.3846154 C19.7495293,58.3846154 20.3571429,58.9862961 20.3571429,59.7285068 C20.3563118,60.4703764 19.7491848,61.0715753 19,61.0723982 Z" id="Shape" fill="#24527a"/>
                    <path d="M17.7333333,28.8190045 C17.7333333,29.3138117 18.138409,29.7149321 18.6380952,29.7149321 L23.7047619,29.7149321 C24.2044481,29.7149321 24.6095238,29.3138117 24.6095238,28.8190045 C24.6095238,28.3241974 24.2044481,27.9230769 23.7047619,27.9230769 L18.6380952,27.9230769 C18.138409,27.9230769 17.7333333,28.3241974 17.7333333,28.8190045 Z" id="Path" fill="#43D92D"/>
                    <path d="M32.2095238,27.9230769 L28.952381,27.9230769 C28.4526948,27.9230769 28.047619,28.3241974 28.047619,28.8190045 C28.047619,29.3138117 28.4526948,29.7149321 28.952381,29.7149321 L32.2095238,29.7149321 C32.70921,29.7149321 33.1142857,29.3138117 33.1142857,28.8190045 C33.1142857,28.3241974 32.70921,27.9230769 32.2095238,27.9230769 Z" id="Path" fill="#43D92D"/>
                    <path d="M5.79047619,36.2850679 C5.29078999,36.2850679 4.88571429,36.6861883 4.88571429,37.1809955 C4.88571429,37.6758026 5.29078999,38.0769231 5.79047619,38.0769231 L7.96190476,38.0769231 C8.46159096,38.0769231 8.86666667,37.6758026 8.86666667,37.1809955 C8.86666667,36.6861883 8.46159096,36.2850679 7.96190476,36.2850679 L5.79047619,36.2850679 Z" id="Path" fill="#43D92D"/>
                    <path d="M11.2190476,37.1809955 C11.2190476,37.6758026 11.6241233,38.0769231 12.1238095,38.0769231 L17.1904762,38.0769231 C17.6901624,38.0769231 18.0952381,37.6758026 18.0952381,37.1809955 C18.0952381,36.6861883 17.6901624,36.2850679 17.1904762,36.2850679 L12.1238095,36.2850679 C11.6241233,36.2850679 11.2190476,36.6861883 11.2190476,37.1809955 L11.2190476,37.1809955 Z" id="Path" fill="#43D92D"/>
                    <path d="M32.2095238,36.2850679 L22.4380952,36.2850679 C21.938409,36.2850679 21.5333333,36.6861883 21.5333333,37.1809955 C21.5333333,37.6758026 21.938409,38.0769231 22.4380952,38.0769231 L32.2095238,38.0769231 C32.70921,38.0769231 33.1142857,37.6758026 33.1142857,37.1809955 C33.1142857,36.6861883 32.70921,36.2850679 32.2095238,36.2850679 Z" id="Path" fill="#43D92D"/>
                    <path d="M8.86666667,45.5429864 C8.86666667,45.0481793 8.46159096,44.6470588 7.96190476,44.6470588 L5.79047619,44.6470588 C5.29078999,44.6470588 4.88571429,45.0481793 4.88571429,45.5429864 C4.88571429,46.0377936 5.29078999,46.438914 5.79047619,46.438914 L7.96190476,46.438914 C8.46159096,46.438914 8.86666667,46.0377936 8.86666667,45.5429864 Z" id="Path" fill="#43D92D"/>
                    <path d="M11.2190476,45.5429864 C11.2190476,46.0377936 11.6241233,46.438914 12.1238095,46.438914 L24.4285714,46.438914 C24.9282576,46.438914 25.3333333,46.0377936 25.3333333,45.5429864 C25.3333333,45.0481793 24.9282576,44.6470588 24.4285714,44.6470588 L12.1238095,44.6470588 C11.6241233,44.6470588 11.2190476,45.0481793 11.2190476,45.5429864 L11.2190476,45.5429864 Z" id="Path" fill="#43D92D"/>
                    <path d="M32.2095238,44.6470588 L29.6761905,44.6470588 C29.1765043,44.6470588 28.7714286,45.0481793 28.7714286,45.5429864 C28.7714286,46.0377936 29.1765043,46.438914 29.6761905,46.438914 L32.2095238,46.438914 C32.70921,46.438914 33.1142857,46.0377936 33.1142857,45.5429864 C33.1142857,45.0481793 32.70921,44.6470588 32.2095238,44.6470588 Z" id="Path" fill="#43D92D"/>
                    <path d="M15.2753968,14.9139095 C15.047757,14.8387397 14.7992849,14.8561974 14.5846439,14.962442 C14.3700029,15.0686866 14.2067761,15.2550146 14.130873,15.4804344 L9.60706349,28.9193484 C9.50470404,29.2230282 9.57372878,29.5577148 9.78813674,29.797335 C10.0025447,30.0369553 10.3297622,30.1451051 10.6465296,30.0810455 C10.963297,30.0169859 11.2214898,29.790449 11.3238492,29.4867692 L15.8476587,16.0478552 C15.9237489,15.822342 15.9061925,15.5761268 15.7988564,15.3634386 C15.6915203,15.1507504 15.5032085,14.9890347 15.2753968,14.9139095 L15.2753968,14.9139095 Z" id="Path" fill="#43D92D"/>
                    <path d="M7.44920635,25.6190498 C7.81518205,25.6190932 8.14514089,25.4008069 8.28519966,25.0659933 C8.42525843,24.7311798 8.34782963,24.3457874 8.08902381,24.089552 L5.71296825,21.7366968 L8.08902381,19.3836923 C8.43744985,19.0330025 8.43513355,18.4697079 8.083835,18.1218395 C7.73253645,17.7739711 7.16368744,17.7716774 6.80953968,18.1167014 L3.79366667,21.1031267 C3.44036345,21.4530034 3.44036345,22.020241 3.79366667,22.3701176 L6.80953968,25.356543 C6.97897799,25.5248667 7.20919878,25.6193449 7.44920635,25.6190498 L7.44920635,25.6190498 Z" id="Path" fill="#43D92D"/>
                    <path d="M17.3650952,25.356543 C17.7184219,25.7063965 18.2912527,25.7063965 18.6445794,25.356543 L21.6604524,22.3701176 C22.0137556,22.020241 22.0137556,21.4530034 21.6604524,21.1031267 L18.6445794,18.1167014 C18.2904316,17.7716774 17.7215826,17.7739711 17.370284,18.1218395 C17.0189855,18.4697079 17.0166692,19.0330025 17.3650952,19.3836923 L19.7411508,21.7366968 L17.3650952,24.089552 C17.011792,24.4394287 17.011792,25.0066663 17.3650952,25.356543 L17.3650952,25.356543 Z" id="Path" fill="#43D92D"/>
                </g>
            </g>
        </g>
    </g>
</svg>