<?xml version="1.0" encoding="UTF-8"?>
<svg width="58px" height="57px" viewBox="0 0 58 57" version="1.1" xmlns="http://www.w3.org/2000/svg" xmlns:xlink="http://www.w3.org/1999/xlink">
    <!-- Generator: Sketch 54 (76480) - https://sketchapp.com -->
    <title>Leverage BizTalk</title>
    <desc>Created with Sketch.</desc>
    <g id="Page-1" stroke="none" stroke-width="1" fill="none" fill-rule="evenodd">
        <g id="Biztalk" transform="translate(-808.000000, -1658.000000)" fill-rule="nonzero">
            <g id="Group-4" transform="translate(780.000000, 1626.000000)">
                <g id="Leverage-BizTalk" transform="translate(28.000000, 32.000000)">
                    <path d="M5.14226804,33.7376266 C5.14366638,31.6246148 6.43847281,29.7304831 8.39983505,28.9722342 C8.68827506,28.8610816 8.8735995,28.5767764 8.85988866,28.2664684 C8.85414845,28.1382785 8.85139794,28.0223544 8.85139794,27.911962 C8.85592877,24.5019632 11.1623697,21.5303881 14.4508495,20.6977342 C12.2416621,20.1410124 9.90060192,20.6396218 8.10557851,22.0491782 C6.3105551,23.4587346 5.26208185,25.6217832 5.26376907,27.911962 C5.26376907,28.0223544 5.26651959,28.1382785 5.27225979,28.2664684 C5.28597063,28.5767764 5.10064619,28.8610816 4.81220619,28.9722342 C2.52750873,29.85375 1.19352845,32.2489495 1.63978074,34.6684143 C2.08603303,37.0878791 4.18546178,38.8427437 6.63256907,38.8417722 L10.2201979,38.8417722 C7.41756589,38.8392547 5.14589386,36.5558548 5.14226804,33.7376266 Z" id="Path" fill="#D4E1F4"/>
                    <path d="M38.8659794,32.7861835 L38.8659794,28.8739873 C38.0171556,28.5992218 37.2117565,28.2038378 36.4742268,27.6998354 L36.4742268,32.7865443 C36.4742268,34.1213544 40.2957691,35.9817911 46.5195876,35.9817911 C46.9289759,35.9817911 47.3276014,35.9737743 47.7154639,35.9577405 C42.2024742,35.7383987 38.8659794,34.0326076 38.8659794,32.7861835 Z" id="Path" fill="#D4E1F4"/>
                    <path d="M38.8659794,25.3648797 L38.8659794,21.4531646 C38.0171556,21.178399 37.2117565,20.783015 36.4742268,20.2790127 L36.4742268,25.3657215 C36.4742268,26.7005316 40.2957691,28.5609684 46.5195876,28.5609684 C46.9289759,28.5609684 47.3276014,28.5529515 47.7154639,28.5369177 C42.2024742,28.3170949 38.8659794,26.6120253 38.8659794,25.3648797 Z" id="Path" fill="#D4E1F4"/>
                    <path d="M38.8659794,17.9434557 C38.8659794,16.6969114 42.2024742,14.9911203 47.7154639,14.7721392 C47.3272825,14.7565865 46.928657,14.7485696 46.5195876,14.7480886 C40.2957691,14.7480886 36.4742268,16.6090063 36.4742268,17.9433354 C36.4742268,19.2776646 40.2957691,21.1387025 46.5195876,21.1387025 C46.9289759,21.1387025 47.3276014,21.1306857 47.7154639,21.1146519 C42.2024742,20.8957911 38.8659794,19.19 38.8659794,17.9434557 Z" id="Path" fill="#D4E1F4"/>
                    <path d="M38.8659794,40.2590759 L38.8659794,36.2952911 C38.0171556,36.0205256 37.2117565,35.6251415 36.4742268,35.1211392 L36.4742268,40.2590759 C36.4742268,41.5938861 40.2957691,43.4543228 46.5195876,43.4543228 C46.9289759,43.4543228 47.3276014,43.4463059 47.7154639,43.4302722 C42.2024742,43.2114114 38.8659794,41.5056203 38.8659794,40.2590759 Z" id="Path" fill="#D4E1F4"/>
                    <path d="M46.5195876,13.3051709 C40.9542186,13.3051709 35.0391753,14.9307532 35.0391753,17.9434557 L35.0391753,40.2590759 C35.0391753,43.2717785 40.9542186,44.8973608 46.5195876,44.8973608 C52.0849567,44.8973608 58,43.2717785 58,40.2590759 L58,17.9434557 C58,14.9307532 52.0849567,13.3051709 46.5195876,13.3051709 Z M56.5649485,32.631538 L56.5649485,32.7861835 C56.5649485,34.1209937 52.7434062,35.9814304 46.5195876,35.9814304 C40.2957691,35.9814304 36.4742268,34.1203924 36.4742268,32.7861835 L36.4742268,27.6994747 C38.5658144,29.2076899 42.627967,30.0028038 46.5195876,30.0028038 C50.4112082,30.0028038 54.4733608,29.2076899 56.5649485,27.6994747 L56.5649485,32.631538 Z M56.5649485,25.3648797 C56.5649485,26.6996899 52.7434062,28.5601266 46.5195876,28.5601266 C40.2957691,28.5601266 36.4742268,26.6990886 36.4742268,25.3648797 L36.4742268,20.2781709 C38.5658144,21.7863861 42.627967,22.5815 46.5195876,22.5815 C50.4112082,22.5815 54.4733608,21.7863861 56.5649485,20.2781709 L56.5649485,25.3648797 Z M46.5195876,14.7482089 C52.7434062,14.7482089 56.5649485,16.6091266 56.5649485,17.9434557 C56.5649485,19.2777848 52.7434062,21.1388228 46.5195876,21.1388228 C40.2957691,21.1388228 36.4742268,19.2777848 36.4742268,17.9434557 C36.4742268,16.6091266 40.2957691,14.7482089 46.5195876,14.7482089 L46.5195876,14.7482089 Z M46.5195876,43.4543228 C40.2957691,43.4543228 36.4742268,41.5934051 36.4742268,40.2590759 L36.4742268,35.1211392 C38.5658144,36.6293544 42.627967,37.4244684 46.5195876,37.4244684 C50.4112082,37.4244684 54.4733608,36.6293544 56.5649485,35.1211392 L56.5649485,40.2590759 C56.5649485,41.5934051 52.7434062,43.4543228 46.5195876,43.4543228 L46.5195876,43.4543228 Z" id="Shape" fill="#24527a"/>
                    <path d="M27.0044412,27.4529557 C26.7773134,25.6226293 25.7934178,23.9733743 24.2944171,22.9102777 C22.7954164,21.847181 20.9202005,21.468744 19.1293567,21.8679177 C16.6684092,19.2042783 12.8413361,18.3182176 9.46979905,19.6314947 C6.09826198,20.9447717 3.86343312,24.1920572 3.82907629,27.8276646 C1.08217438,29.1441991 -0.391506386,32.1984014 0.280141861,35.1828285 C0.951790107,38.1672557 3.58961,40.285833 6.63256907,40.2848101 L25.1777402,40.2848101 C28.4180389,40.2859824 31.1660459,37.8909476 31.6252108,34.6654955 C32.0843757,31.4400433 30.1149355,28.3659525 27.0044412,27.4529557 L27.0044412,27.4529557 Z M28.7678804,37.3477468 C27.8176373,38.3079366 26.5248603,38.8459216 25.1777402,38.8417722 L6.63256907,38.8417722 C4.18620386,38.8414925 2.08800844,37.0867516 1.64189151,34.6680207 C1.19577457,32.2492897 2.52864765,29.8546503 4.81220619,28.9722342 C5.10064619,28.8610816 5.28597063,28.5767764 5.27225979,28.2664684 C5.26651959,28.1382785 5.26376907,28.0223544 5.26376907,27.911962 C5.26349291,24.7831329 7.21076658,21.9887559 10.1354752,20.9209654 C13.0601838,19.8531749 16.3367367,20.7403697 18.3327835,23.140557 C18.5168618,23.362095 18.8145431,23.451972 19.089534,23.369038 C20.5919441,22.9184687 22.2170888,23.1910417 23.4927398,24.1075539 C24.7683908,25.0240661 25.5514851,26.4817315 25.6144742,28.0569873 C25.6274822,28.3896445 25.8651442,28.6701658 26.1896907,28.7359367 C28.0219641,29.1096891 29.5015379,30.4661035 30.0405682,32.2662678 C30.5795984,34.0664321 30.0907935,36.0188244 28.7683588,37.3477468 L28.7678804,37.3477468 Z" id="Shape" fill="#24527a"/>
                    <path d="M28.3370062,0.353664557 C24.7182305,1.12217612 21.4741335,3.12308964 19.1526763,6.01843038 L16.3451175,4.18168354 C16.1018517,4.02244925 15.787142,4.02628186 15.5477825,4.1913937 C15.308423,4.35650553 15.1915697,4.65036814 15.2517278,4.93591139 L16.4161526,10.4681582 C16.4555446,10.6553957 16.5672997,10.8192251 16.7268276,10.9235979 C16.8863555,11.0279708 17.0805854,11.0643353 17.2667794,11.0246899 L22.7684082,9.85366456 C23.0523904,9.79328211 23.2722217,9.56680022 23.3253658,9.27985732 C23.3785099,8.99291443 23.2544971,8.70203914 23.0111711,8.54290506 L20.3623052,6.80993671 C22.9345009,3.67037167 26.6833015,1.74015482 30.7200922,1.47682436 C34.7568829,1.21349391 38.7222663,2.6404943 41.6762887,5.41956962 C41.8631447,5.59834161 42.1310419,5.66251438 42.3779827,5.58765519 C42.6249236,5.51279601 42.8129105,5.31042367 42.8703706,5.05758817 C42.9278307,4.80475266 42.8459224,4.54035857 42.6558309,4.36506962 C38.8183392,0.761122791 33.4748527,-0.735849845 28.3370062,0.353664557 Z M17.6715835,9.46392405 L17.0138515,6.34167089 L18.8850392,7.56512658 L18.8876701,7.56741139 C18.8925732,7.57101899 18.8979546,7.57342405 18.9029773,7.57691139 L20.7764371,8.80253165 L17.6715835,9.46392405 Z" id="Shape" fill="#43D92D"/>
                    <path d="M41.7034351,46.5318418 C41.6640431,46.3446043 41.552288,46.1807749 41.39276,46.0764021 C41.2332321,45.9720292 41.0390022,45.9356647 40.8528082,45.9753101 L35.3517773,47.1463354 C35.0677952,47.2067179 34.8479638,47.4331998 34.7948198,47.7201427 C34.7416757,48.0070856 34.8656884,48.2979609 35.1090144,48.4570949 L37.7578804,50.1900633 C35.1856756,53.3298182 31.436749,55.2601621 27.3998066,55.523495 C23.3628642,55.786828 19.3973448,54.3597036 16.443299,51.5804304 C16.2564429,51.4016584 15.9885457,51.3374856 15.7416049,51.4123448 C15.494664,51.487204 15.3066771,51.6895763 15.249217,51.9424118 C15.1917569,52.1952473 15.2736652,52.4596414 15.4637567,52.6349304 C18.7277437,55.7051725 23.1150237,57.271235 27.5735729,56.9575924 C32.0321221,56.6439498 36.1598285,54.4788893 38.9669113,50.9815696 L41.7742309,52.8183165 C42.0174968,52.9775508 42.3322065,52.9737181 42.5715659,52.8086063 C42.8109254,52.6434945 42.9277788,52.3496319 42.8676206,52.0640886 L41.7034351,46.5318418 Z M39.2345485,49.4348734 L39.2319175,49.4325886 C39.2089238,49.4157908 39.1849647,49.4003716 39.1601649,49.3864114 L37.342433,48.1973481 L40.4472866,47.5359557 L41.1050186,50.6582089 L39.2345485,49.4348734 Z" id="Shape" fill="#43D92D"/>
                </g>
            </g>
        </g>
    </g>
</svg>