<?xml version="1.0" encoding="UTF-8"?>
<svg width="70px" height="62px" viewBox="0 0 70 62" version="1.1" xmlns="http://www.w3.org/2000/svg" xmlns:xlink="http://www.w3.org/1999/xlink">
    <!-- Generator: Sketch 54 (76480) - https://sketchapp.com -->
    <title>New-age Technologies</title>
    <desc>Created with Sketch.</desc>
    <g id="Page-1" stroke="none" stroke-width="1" fill="none" fill-rule="evenodd">
        <g id="Android-App-Development" transform="translate(-392.000000, -1819.000000)" fill-rule="nonzero">
            <g id="Group-4" transform="translate(392.000000, 1812.000000)">
                <g id="New-age-Technologies" transform="translate(0.000000, 7.000000)">
                    <path d="M58.8899879,39.9850973 C59.1241114,40.2921038 59.1376073,40.7151954 58.9240209,41.0369335 L58.9609878,41.0858425 C59.2637641,41.4824171 59.8300027,41.5578429 60.2249027,41.2537827 C60.6203897,40.9497224 60.6949102,40.3810827 60.3921338,39.9845081 L54.9122352,32.7984337 C54.5085334,32.2704532 54.3765089,31.5810142 54.5572357,30.939895 C54.7373759,30.2993652 55.2091436,29.7814021 55.8287788,29.5439286 C54.9503755,29.2056912 53.9557906,29.4950198 53.3930726,30.252224 C52.8303548,31.008839 52.8373961,32.0494791 53.4100892,32.7984337 L58.8899879,39.9850973 Z" id="Path" fill="#D4E1F4"/>
                    <path d="M49.7280714,55.7738366 L30.8192228,31.5633364 C30.4155211,31.0353558 30.2834964,30.3470955 30.4630499,29.7065655 C30.6431901,29.0654463 31.1137842,28.5480726 31.7328326,28.3100099 C30.8550161,27.9735401 29.8616048,28.2628688 29.3000604,29.0194838 C28.7385159,29.7760987 28.7455572,30.8149712 29.3170769,31.5633364 L48.2259254,55.7738366 C50.4967475,58.7513877 54.1048317,60.3860059 57.8308577,60.1249619 C54.6305828,59.917541 51.6761668,58.3312425 49.7280714,55.7738366 Z" id="Path" fill="#D4E1F4"/>
                    <path d="M54.1200878,43.6538549 C54.3536246,43.9608615 54.3671205,44.383953 54.153534,44.7056912 L54.1905009,44.7546001 C54.2116248,44.781117 54.2333355,44.8070446 54.2568065,44.8312044 C54.2644347,44.8388648 54.2720628,44.8459359 54.2796908,44.8535965 C54.2961205,44.868328 54.3125503,44.8842381 54.3295669,44.8989698 C54.3389553,44.9066302 54.3489304,44.9137013 54.3583188,44.9213617 C54.3747486,44.9343256 54.3911783,44.9461109 54.4081947,44.9573069 C54.4187568,44.964378 54.4293187,44.9708599 54.4398806,44.9773418 C54.4574839,44.9885379 54.4750873,44.9979661 54.4932772,45.0079836 C54.5038392,45.0132869 54.5144011,45.0185904 54.5249632,45.0238937 C54.5455003,45.033322 54.5660374,45.0415716 54.5865746,45.0498214 C54.595963,45.0527676 54.6041778,45.0568925 54.6135662,45.0598388 C54.6434918,45.0704456 54.6734174,45.0792845 54.7045165,45.0863556 C54.7086239,45.0875343 54.7133181,45.0875343 54.7174256,45.0887127 C54.7438305,45.0946054 54.7708222,45.0993195 54.7978138,45.1022658 C54.8083759,45.1034444 54.8189378,45.1040336 54.8300865,45.1052121 C54.8506237,45.1069799 54.8717475,45.1081585 54.8922847,45.1087478 C54.8975658,45.1087478 54.90226,45.109337 54.9075409,45.109337 C54.9128219,45.109337 54.9169294,45.1081585 54.9216236,45.1081585 C54.9644582,45.1081585 55.0072927,45.1046229 55.0495406,45.0981409 L55.0542348,45.0969625 C55.0958959,45.0898913 55.1369703,45.0798739 55.1774578,45.06691 C55.1844991,45.0645529 55.1921271,45.0621959 55.1997552,45.0598388 C55.2402428,45.0456965 55.2795567,45.0291971 55.3176971,45.0091622 C55.3253253,45.0056265 55.3329533,45.0009124 55.3399946,44.9967875 C55.3798954,44.975574 55.4186227,44.950825 55.4550027,44.9231296 C55.8499027,44.6190693 55.92501,44.0510189 55.6222337,43.6538549 L49.2287252,35.2698069 C48.8256102,34.7406478 48.6941724,34.0523875 48.8748995,33.4112682 C49.0550395,32.770149 49.5256338,32.2521859 50.1452689,32.0135341 C49.9927073,31.9551969 49.8342777,31.9139485 49.6729145,31.8921456 C48.8297176,31.7795963 48.0023639,32.1885454 47.5757779,32.9274825 C47.1497786,33.6670089 47.2096298,34.5915641 47.7265792,35.2698069 L54.1200878,43.6538549 Z" id="Path" fill="#D4E1F4"/>
                    <path d="M49.349601,47.3226125 C49.3572291,47.3332194 49.3642704,47.343826 49.370725,47.3538435 C49.3801134,47.3673966 49.3895018,47.3803605 49.3983033,47.3939134 C49.4065182,47.4074665 49.4129728,47.4192518 49.4194274,47.4316263 C49.4258818,47.4440008 49.4352702,47.4593218 49.4423115,47.4734641 C49.4493528,47.4876064 49.454047,47.4993917 49.459328,47.5129448 C49.4651958,47.5259086 49.4722371,47.5406403 49.4775181,47.5553718 C49.482799,47.5701034 49.4869065,47.5830673 49.4910139,47.5966202 C49.4957082,47.6107626 49.5009891,47.6249049 49.5045098,47.6396366 C49.5080304,47.653779 49.5109642,47.6679213 49.5138982,47.6820636 C49.5168321,47.696206 49.5203527,47.7109375 49.5226999,47.7250799 C49.5250469,47.7398114 49.5262205,47.754543 49.5279809,47.7686853 C49.5297411,47.7834169 49.5320883,47.7975592 49.5326751,47.8117016 C49.5338485,47.8264333 49.5338485,47.8411648 49.5338485,47.8558964 C49.5344353,47.8706281 49.5350222,47.8847705 49.5338485,47.8989128 C49.5332618,47.9130551 49.5320883,47.9277867 49.5309147,47.9425182 C49.5297411,47.9566606 49.5291543,47.9713921 49.5273941,47.9855345 C49.5256338,47.9996768 49.5226999,48.0138192 49.5203527,48.0279615 C49.5180057,48.0415146 49.5156585,48.0568354 49.5127246,48.0709777 C49.509204,48.0857094 49.5050966,48.0986732 49.5015758,48.1122263 C49.4980553,48.1257794 49.4939478,48.1411002 49.4892536,48.1552425 C49.4845594,48.1693848 49.4798652,48.1817595 49.4745842,48.1947232 C49.4693033,48.207687 49.4640222,48.2230079 49.4581545,48.236561 C49.4522868,48.250114 49.4458323,48.2624886 49.4393777,48.2754524 C49.4329231,48.2884162 49.4264685,48.3019692 49.4194274,48.3149331 C49.4123859,48.3284862 49.4041711,48.3402715 49.3965431,48.352646 L49.3812868,48.3756273 L49.4264685,48.4333751 C49.4458323,48.4581243 49.4663694,48.4822841 49.4886668,48.504676 C49.4904272,48.5070332 49.4933611,48.5088009 49.4957082,48.5117473 C49.5168321,48.5329607 49.5391295,48.5529957 49.561427,48.5718522 C49.569642,48.5783341 49.5766831,48.5836375 49.5854848,48.5901194 C49.6036749,48.6036724 49.621865,48.6172255 49.6412285,48.6301894 C49.650617,48.6360819 49.6600054,48.6419746 49.6693938,48.647278 C49.6881706,48.6590633 49.7069474,48.6696699 49.726311,48.6790982 C49.7356994,48.6844016 49.7456745,48.6891158 49.755063,48.6932405 C49.776187,48.7032581 49.7967241,48.7115077 49.817848,48.7197575 C49.8266497,48.7227038 49.8354514,48.7262393 49.8448398,48.7297749 C49.8694843,48.7380247 49.8947157,48.7445065 49.9199471,48.7515777 C49.925228,48.7527563 49.9299222,48.754524 49.9352032,48.7557026 C49.9674759,48.7627737 49.9997486,48.7686663 50.0320211,48.7722019 L50.0378889,48.7722019 C50.0678145,48.7751482 50.0971533,48.7769161 50.1264921,48.7769161 L50.1341202,48.7769161 C50.1376409,48.7769161 50.1411615,48.7763268 50.1452689,48.7763268 C50.1869299,48.7757376 50.228591,48.7722019 50.2702521,48.7663094 L50.2796406,48.7651308 C50.3224752,48.7574704 50.3641363,48.7474529 50.4052106,48.7338998 C50.4134254,48.7315428 50.4204667,48.7291857 50.4286817,48.7262393 C50.4697559,48.7120969 50.5096567,48.6950083 50.5483838,48.6749734 C50.5542516,48.6720271 50.5589458,48.6690807 50.5648136,48.6661344 C50.6017804,48.6455102 50.6375737,48.6225288 50.6716068,48.5971906 C50.6745406,48.5948335 50.6786481,48.5930657 50.6815819,48.5907086 C50.6851026,48.5883516 50.6851026,48.5877624 50.686863,48.5859945 C50.6886232,48.5848159 50.6903836,48.5836375 50.6921439,48.582459 C50.7021191,48.5742092 50.7109208,48.5653702 50.7208959,48.5571206 C50.7308711,48.5482816 50.7455404,48.5364964 50.7566892,48.5258897 C50.767838,48.5146936 50.7772264,48.504676 50.7866148,48.4940693 C50.79659,48.4828733 50.8083255,48.471088 50.8183008,48.4598921 C50.8282759,48.4481067 50.8364907,48.4369108 50.8452924,48.4251255 C50.8546808,48.4139294 50.8640692,48.4015549 50.8728709,48.3891804 C50.8816724,48.3768058 50.8887139,48.363842 50.8963419,48.3514675 C50.9045567,48.3390929 50.9121849,48.3267184 50.9198129,48.3137546 C50.9268542,48.30138 50.9333087,48.2872376 50.9397632,48.2742739 C50.9462178,48.2607208 50.9526724,48.2483463 50.9585401,48.2353824 C50.9644079,48.2224187 50.9691021,48.207687 50.974383,48.1935446 C50.979664,48.1794023 50.9849449,48.1676172 50.9896391,48.1540641 C50.9943333,48.1405109 50.9978541,48.1251902 51.0019615,48.1110478 C51.0054821,48.0963161 51.0095896,48.0839416 51.0125234,48.0697993 C51.0154574,48.0562462 51.0178044,48.0409254 51.0207384,48.0261938 C51.0230855,48.0120515 51.0254326,47.9984984 51.0277797,47.984356 C51.02954,47.9702137 51.0301268,47.9554821 51.0313003,47.9413398 C51.031887,47.9266081 51.0336474,47.9124657 51.0342342,47.8977342 C51.0342342,47.8835918 51.0342342,47.8688603 51.0342342,47.854718 C51.0342342,47.8399862 51.0342342,47.8252547 51.0330606,47.8105231 C51.031887,47.7963808 51.0301268,47.7816492 51.0283664,47.7675069 C51.0266061,47.7533645 51.0254326,47.738633 51.0230855,47.7239013 C51.0207384,47.7097589 51.0172176,47.6956166 51.0142838,47.680885 C51.0107632,47.6667427 51.008416,47.6526004 51.0048954,47.638458 C51.0007879,47.6243157 50.9960937,47.6095841 50.9913995,47.5954418 C50.9867053,47.5812995 50.9831847,47.5677464 50.9779038,47.5541932 C50.9726227,47.5406403 50.9661681,47.5259086 50.9597137,47.511177 C50.9538459,47.4970347 50.9485649,47.4852494 50.9426971,47.4722855 C50.9362427,47.4593218 50.927441,47.4440008 50.9198129,47.4304479 C50.911598,47.4163055 50.9057303,47.4051095 50.8981023,47.392735 C50.8904741,47.3803605 50.8804989,47.3662181 50.8711105,47.352665 C50.8640692,47.3426476 50.8570279,47.3320408 50.8493998,47.3214339 L44.456478,38.9379753 C44.0521895,38.4094055 43.9207518,37.7205558 44.100892,37.0794365 C44.2816188,36.4383173 44.7527997,35.9209436 45.3724349,35.6834702 C44.4946184,35.3452327 43.4994467,35.6345612 42.9373156,36.3917656 C42.3745976,37.1483804 42.3816389,38.1884315 42.9543321,38.9379753 L49.349601,47.3226125 Z" id="Path" fill="#D4E1F4"/>
                    <g id="Group">
                        <path d="M62.1817999,14.1052121 C61.0323062,14.1069799 60.0083825,14.8364887 59.6258047,15.9254485 L56.1468113,15.9254485 C54.7673015,15.9319305 53.5761467,16.8959664 53.2774778,18.2483273 C53.1612963,18.7704152 52.7018509,19.1428301 52.1690585,19.145187 L49.5121379,19.145187 L49.5121379,6.3776042 C49.5080304,2.89151844 46.6950275,0.0665867932 43.2236622,0.0624619075 L21.6749095,0.0624619075 C18.2035442,0.0671760195 15.3905411,2.89210766 15.3864338,6.3776042 L15.3864338,19.1457763 L12.7301,19.1457763 C12.1973076,19.1434193 11.7372754,18.7710044 11.6216806,18.2483273 C11.3224249,16.8959664 10.13127,15.9319305 8.75176036,15.9254485 L5.27276682,15.9254485 C4.83385871,14.6732626 3.55938163,13.9207725 2.25615273,14.1446928 C0.95292382,14.3680239 -2.84217094e-14,15.5029463 -2.84217094e-14,16.830558 C-2.84217094e-14,18.1581699 0.95292382,19.2930923 2.25615273,19.5164234 C3.55938163,19.7403437 4.83385871,18.9878536 5.27276682,17.7356675 L8.75176036,17.7356675 C9.28455275,17.7380247 9.74458494,18.1104396 9.86017972,18.6325274 C10.1594353,19.9848883 11.3505901,20.9495134 12.7301,20.9559953 L15.3864338,20.9559953 L15.3864338,26.4007946 L15.2021862,26.4007946 C14.4681297,26.401973 13.8056599,25.9582573 13.5245942,25.2776574 C12.9648103,23.9211717 11.6457384,23.037865 10.1834932,23.0408112 L9.59437034,23.0408112 C9.15546208,21.7880361 7.88098515,21.0361352 6.57775609,21.2594663 C5.27452719,21.4833865 4.32160337,22.6177198 4.32160337,23.9459207 C4.32160337,25.2735325 5.27452719,26.4078658 6.57775609,26.6317861 C7.88098515,26.8557064 9.15546208,26.1032162 9.59437034,24.8510302 L10.1834932,24.8510302 C10.9175497,24.8492624 11.5794327,25.2929783 11.8604982,25.9735782 C12.4208691,27.3300639 13.739941,28.2133706 15.2021862,28.2110136 L15.3864338,28.2110136 L15.3864338,30.2180466 L12.1855721,30.2033151 C10.7925664,30.2027259 9.51222174,30.9693583 8.85092543,32.2009201 C8.50414092,32.8467534 7.83169599,33.2492206 7.10116021,33.2480422 L5.8783194,33.2480422 C5.4212212,32.0029274 4.13735586,31.2692936 2.83823427,31.5114811 C1.53852609,31.7542579 0.602031845,32.9015549 0.62080867,34.2285774 C0.639585494,35.5555999 1.6083523,36.6757908 2.91392845,36.8808546 C4.21950446,37.0859185 5.48224588,36.3163398 5.90355079,35.0582611 L7.10057333,35.0582611 C8.49299215,35.0594396 9.77392365,34.292218 10.43522,33.0612454 C10.7808308,32.4165906 11.4509288,32.0141233 12.1802911,32.0135341 L15.3852602,32.0288549 L15.3852602,37.5979889 L15.1628721,37.5979889 C13.3010327,37.6056493 11.6639285,38.8360325 11.1311359,40.627395 C10.8265994,41.6509467 9.89186554,42.3533493 8.82804114,42.3580635 L7.5212915,42.3580635 C7.08238339,41.1052881 5.80790631,40.3533873 4.5046774,40.5767184 C3.2014485,40.8006387 2.24852468,41.9349718 2.24852468,43.2631729 C2.24852468,44.5907847 3.2014485,45.7251178 4.5046774,45.9490381 C5.80790631,46.1729584 7.08238339,45.4204684 7.5212915,44.1682824 L8.82804114,44.1682824 C10.6904674,44.1600327 12.3275717,42.9296494 12.8603641,41.1376977 C13.164314,40.1147354 14.0996345,39.4123327 15.1628721,39.4076186 L15.3864338,39.4076186 L15.3864338,53.7149483 C15.3905411,57.2016233 18.2035442,60.0265549 21.6749095,60.0306797 L43.2236622,60.0306797 C45.1054521,60.0330369 46.8892503,59.1868536 48.0821654,57.7248897 C48.2904707,57.475631 48.3491484,57.1332687 48.2364875,56.82803 C48.1238265,56.5227912 47.8562568,56.3024065 47.5364639,56.2499619 C47.2166711,56.1975175 46.8939445,56.3218522 46.6903333,56.5746464 C45.8389217,57.6176437 44.5662051,58.2222285 43.2236622,58.2204607 L21.6749095,58.2204607 C19.1987158,58.2169252 17.1925295,56.2022316 17.1890089,53.7155375 L17.1890089,50.2930923 L42.2707384,50.2930923 L42.2707384,48.4828733 L17.1890089,48.4828733 L17.1890089,9.98802471 L39.0487527,9.98802471 C39.5463385,9.98802471 39.9500402,9.58261109 39.9500402,9.08291522 C39.9500402,8.58321936 39.5463385,8.17780573 39.0487527,8.17780573 L17.1890089,8.17780573 L17.1890089,6.3776042 C17.1925295,3.89091017 19.1987158,1.87621655 21.6749095,1.87268089 L43.2236622,1.87268089 C45.6998559,1.87621655 47.7066289,3.89091017 47.7095628,6.3776042 L47.7095628,8.17780573 L45.9169628,8.17780573 C45.419377,8.17780573 45.0156753,8.58321936 45.0156753,9.08291522 C45.0156753,9.58261109 45.419377,9.98802471 45.9169628,9.98802471 L47.7095628,9.98802471 L47.7095628,31.073658 C47.7095628,31.5733538 48.1132645,31.9787675 48.6108503,31.9787675 C49.1084362,31.9787675 49.5121379,31.5733538 49.5121379,31.073658 L49.5121379,28.2110136 L49.6963855,28.2110136 C51.1586306,28.2133706 52.4777024,27.3300639 53.0380733,25.9735782 C53.3191389,25.2929783 53.981022,24.8492624 54.7150785,24.8510302 L55.3042014,24.8510302 C55.7431096,26.1032162 57.0175865,26.8557064 58.3208155,26.6317861 C59.6240444,26.408455 60.5769682,25.2735325 60.5769682,23.9459207 C60.5769682,22.6177198 59.6240444,21.4833865 58.3208155,21.2594663 C57.0175865,21.0355458 55.7431096,21.7880361 55.3042014,23.0408112 L54.7150785,23.0408112 C53.2528333,23.037865 51.9337614,23.9211717 51.3739773,25.2776574 C51.0929117,25.9582573 50.4304419,26.401973 49.6963855,26.4007946 L49.5121379,26.4007946 L49.5121379,20.9559953 L52.1684717,20.9559953 C53.5479814,20.9495134 54.7391363,19.9848883 55.038392,18.6325274 C55.1539868,18.1104396 55.6140189,17.7380247 56.1468113,17.7356675 L59.6258047,17.7356675 C60.0846634,19.0420659 61.4477434,19.7939667 62.7920467,19.4834246 C64.13635,19.1722932 65.0341168,17.8971259 64.8780345,16.5206052 C64.7219521,15.1440845 63.5618965,14.1046229 62.1817999,14.1052121 L62.1817999,14.1052121 Z M2.71618491,17.7456851 C2.21331813,17.7456851 1.80550895,17.3361466 1.80550895,16.830558 C1.80550895,16.3255588 2.21331813,15.9154311 2.7167718,15.9160203 C3.21963858,15.9160203 3.62744777,16.3255588 3.62744777,16.830558 C3.62686088,17.3361466 3.21905185,17.7450957 2.71618491,17.7456851 Z M7.03778828,24.8610478 C6.5349215,24.8610478 6.12711232,24.4515093 6.12711232,23.9459207 C6.12711232,23.4409215 6.5349215,23.0307938 7.03778828,23.031383 C7.54124195,23.031383 7.94905114,23.4409215 7.94905114,23.9459207 C7.94846425,24.4509201 7.54065521,24.8604584 7.03778828,24.8610478 Z M3.33523337,35.1036344 C2.8317797,35.1036344 2.42397067,34.6940959 2.42397067,34.1890967 C2.42397067,33.6835081 2.8317797,33.2739698 3.33464663,33.2739698 C3.83810015,33.2739698 4.24590933,33.6835081 4.24590933,34.1890967 C4.24473571,34.6935067 3.83751341,35.1024558 3.33523337,35.1030452 L3.33523337,35.1036344 Z M4.96412285,44.1782999 C4.46125607,44.1782999 4.05344689,43.7687614 4.05344689,43.2637622 C4.05344689,42.758763 4.46125607,42.3492245 4.96470959,42.3492245 C5.46757652,42.3492245 5.87538556,42.758763 5.87538556,43.2637622 C5.87421208,43.7681721 5.46698964,44.1771213 4.96412285,44.1777107 L4.96412285,44.1782999 Z M57.8601965,23.0307938 C58.36365,23.0307938 58.7714592,23.4403323 58.7714592,23.9459207 C58.7714592,24.4509201 58.36365,24.8604584 57.8601965,24.8604584 C57.3573297,24.8604584 56.9495206,24.4509201 56.9495206,23.9459207 C56.9501073,23.4409215 57.3573297,23.031383 57.8601965,23.0307938 Z M62.1817999,17.7456851 C61.6789331,17.7456851 61.2711239,17.3361466 61.2711239,16.830558 C61.2711239,16.3255588 61.6789331,15.9154311 62.1823866,15.9160203 C62.6852536,15.9160203 63.0930626,16.3255588 63.0930626,16.830558 C63.0924759,17.3361466 62.6846667,17.7450957 62.1817999,17.7456851 Z" id="Shape" fill="#24527a"/>
                        <path d="M44.0991316,9.08291522 C44.0991316,8.58321936 43.6960166,8.17780573 43.1978441,8.17780573 L41.7009791,8.17780573 C41.2033932,8.17780573 40.7996915,8.58321936 40.7996915,9.08291522 C40.7996915,9.58261109 41.2033932,9.98802471 41.7009791,9.98802471 L43.1978441,9.98802471 C43.6960166,9.98802471 44.0991316,9.58261109 44.0991316,9.08291522 L44.0991316,9.08291522 Z" id="Path" fill="#0635C9"/>
                        <path d="M29.5277293,54.2564819 C29.5277293,55.8769578 30.8356525,57.1904274 32.4492858,57.1904274 C34.0629192,57.1910166 35.3708423,55.8769578 35.3708423,54.2570712 C35.3708423,52.6365953 34.0629192,51.3231257 32.4492858,51.3231257 C30.836826,51.3248936 29.5294896,52.6371845 29.5277293,54.2564819 Z M33.5682672,54.2564819 C33.5688539,54.8775661 33.0677475,55.3802084 32.4498727,55.3802084 C31.8314109,55.3807976 31.3303044,54.8775661 31.3308913,54.2564819 C31.3308913,53.635987 31.8314109,53.1327555 32.4498727,53.1333447 C33.0671606,53.1339339 33.5676804,53.6365762 33.5682672,54.2564819 Z" id="Shape" fill="#24527a"/>
                        <path d="M42.3141597,30.1326034 C42.313573,25.1020568 39.0469923,20.6595955 34.2600758,19.1787751 C29.4725724,17.6973654 24.2831277,19.5234945 21.4636702,23.6819305 C18.6442128,27.8397772 18.8536917,33.3582344 21.9800329,37.2886253 C25.1069608,41.2190162 30.4196284,42.6432672 35.080975,40.8006387 L34.4190919,39.1165223 C29.9901087,40.8725288 24.9485315,39.1147544 22.5556599,34.9810675 C20.1633752,30.8467914 21.1380097,25.5775928 24.8493662,22.5823639 C28.5613097,19.587135 33.8951012,19.7650928 37.4004996,23.0019199 C40.9053112,26.2381577 41.5290538,31.5609793 38.8680258,35.5261367 L40.36137,36.54026 C41.6370206,34.6493119 42.3170937,32.4165906 42.3141597,30.1326034 L42.3141597,30.1326034 Z" id="Path" fill="#24527a"/>
                        <path d="M38.3035476,34.1431342 C40.1964861,30.6099072 39.3497686,26.2257831 36.2774108,23.660717 C33.2056398,21.0950616 28.7590531,21.057938 25.6450342,23.5717381 C22.5310154,26.0855383 21.6115377,30.4543415 23.4457986,34.0187995 C25.2806465,37.5832573 29.3616718,39.3563526 33.2050529,38.2585539 L32.7115746,36.5172788 C29.6879192,37.3834968 26.4759086,35.9898875 25.0312668,33.1861695 C23.5860381,30.3818621 24.3083591,26.9440959 26.7587346,24.9653475 C29.2085233,22.986599 32.7074671,23.0154729 35.1243965,25.0342914 C37.5419126,27.0531099 38.2079031,30.5026612 36.7169059,33.2828086 L38.3035476,34.1431342 Z" id="Path" fill="#24527a"/>
                    </g>
                    <path d="M58.1811627,29.1302654 C57.2704868,27.9346488 55.7595393,27.3677768 54.2920132,27.6724262 C52.824487,27.9764864 51.6597371,29.0972666 51.2953494,30.5574627 C50.1652192,29.9263609 48.7980318,29.8980763 47.6426703,30.4808585 C46.4878956,31.0642297 45.6945748,32.1832421 45.5244099,33.4701946 C45.5085669,33.5909937 45.4985917,33.7112036 45.4944843,33.8320028 C43.4853641,33.3688412 41.4639217,34.5567974 40.8830136,36.5432064 L34.0881506,27.8939895 C33.2420198,26.7726201 31.8619233,26.1921951 30.4724383,26.3736884 C29.0829533,26.5545925 27.8964928,27.4697194 27.3637003,28.7708143 C26.8303212,30.0724984 27.0327589,31.5609793 27.8929721,32.6711527 L40.4664029,48.7722019 C38.6573732,49.2860401 37.1916075,50.6195446 36.504493,52.3773191 C36.329047,52.8275167 36.5373525,53.3372301 36.9774342,53.5340442 L48.4400985,58.6600517 C53.4071552,63.1254943 60.9425295,63.0612644 65.8338922,58.5127356 C70.7252548,53.9636176 71.3666007,46.423985 67.3137407,41.1076452 L58.1811627,29.1302654 Z M41.7168221,50.3732322 L45.6763848,55.4426703 L38.5775717,52.2683052 C39.2811159,51.1881843 40.437064,50.4904957 41.7168221,50.3732322 Z M63.8159703,57.8574741 C58.9363432,61.5998897 51.960753,60.6670848 48.2259254,55.7738366 L29.3170769,31.5633364 C28.6135327,30.6352456 28.7930862,29.3099909 29.7172579,28.6040527 C30.6414297,27.8975251 31.9610883,28.0772506 32.6646325,29.0053414 L47.926083,48.4333751 C47.9454467,48.4581243 47.9665705,48.4816948 47.9882813,48.5040868 C47.9906284,48.5070332 47.9929755,48.5088009 47.9953226,48.511158 C48.0164465,48.5323715 48.0387439,48.5524065 48.0616282,48.571263 C48.0692563,48.5777449 48.0762976,48.5836375 48.0850992,48.58953 C48.1032893,48.6036724 48.1220662,48.6172255 48.140843,48.6296001 C48.1502314,48.6354927 48.1596198,48.6413853 48.1690082,48.647278 C48.187785,48.658474 48.2065619,48.6690807 48.2259254,48.6790982 C48.2359006,48.6838123 48.245289,48.6885264 48.2552643,48.6932405 C48.2758013,48.7026687 48.2963385,48.7115077 48.3174624,48.7191683 C48.3262641,48.7227038 48.3356525,48.7262393 48.3444542,48.7291857 C48.3690987,48.7380247 48.3949168,48.7445065 48.4195615,48.7509884 C48.4248424,48.7527563 48.4301234,48.7539347 48.4354043,48.7551133 C48.4670903,48.7627737 48.499363,48.7680771 48.5316356,48.7716127 L48.5375034,48.7716127 C48.5680157,48.7751482 48.5967677,48.7763268 48.6261066,48.7769161 L48.6337346,48.7769161 C48.6372552,48.7769161 48.6407759,48.7757376 48.6448834,48.7757376 C48.6865444,48.7757376 48.7282055,48.7722019 48.7698666,48.76572 L48.779255,48.7645416 C48.8220896,48.7574704 48.8643374,48.7468636 48.9054117,48.7338998 C48.9130399,48.7309534 48.9200812,48.7285965 48.928296,48.7262393 C48.9693703,48.7120969 49.0098578,48.6950083 49.0485851,48.674384 C49.0538661,48.6720271 49.059147,48.6684915 49.0644279,48.6655452 C49.1013948,48.6449209 49.1371881,48.6219396 49.1712212,48.5966014 C49.1747418,48.5942441 49.1782625,48.5924765 49.1817831,48.5901194 C49.1847171,48.5877624 49.1847171,48.5871731 49.1864773,48.5859945 C49.1882377,48.5842267 49.189998,48.5836375 49.1917582,48.582459 C49.2017335,48.5742092 49.211122,48.564781 49.2210971,48.5565313 C49.2310723,48.5482816 49.2451549,48.5359071 49.2563036,48.5253003 C49.2680392,48.5146936 49.2768408,48.5040868 49.286816,48.4934801 C49.2962044,48.4828733 49.3079399,48.471088 49.3185018,48.4593027 C49.3284771,48.4475175 49.3361052,48.4363215 49.3454936,48.4251255 C49.3542952,48.4133402 49.3642704,48.4009656 49.3724853,48.3885911 C49.3812868,48.3762165 49.3883282,48.363842 49.3965431,48.3514675 C49.4041711,48.3385036 49.4123859,48.3267184 49.4194274,48.3137546 C49.4264685,48.3007908 49.4329231,48.2872376 49.4393777,48.2736845 C49.4458323,48.2607208 49.4522868,48.2483463 49.4581545,48.2353824 C49.4640222,48.2218293 49.4693033,48.2070977 49.4745842,48.1929554 C49.4798652,48.1794023 49.4845594,48.1670278 49.4892536,48.1534748 C49.4939478,48.1399217 49.4974685,48.1251902 49.5015758,48.1104584 C49.5056833,48.0957269 49.509204,48.0833524 49.5127246,48.0697993 C49.5156585,48.0562462 49.5180057,48.0409254 49.5203527,48.0261938 C49.5226999,48.0114621 49.5256338,47.9984984 49.5273941,47.984356 C49.5291543,47.9696245 49.5297411,47.9554821 49.5309147,47.9407504 C49.5320883,47.9260189 49.5338485,47.9118765 49.5338485,47.8977342 C49.5344353,47.8830026 49.5338485,47.8688603 49.5338485,47.8541286 C49.5338485,47.8399862 49.5338485,47.8252547 49.5326751,47.8105231 C49.5320883,47.7957916 49.5297411,47.7816492 49.5279809,47.7675069 C49.5268072,47.7527753 49.5250469,47.738633 49.5226999,47.7239013 C49.5203527,47.7091697 49.5168321,47.6950274 49.5138982,47.680885 C49.5109642,47.6661535 49.5080304,47.6520111 49.5045098,47.6378688 C49.5009891,47.6237265 49.4957082,47.6095841 49.4910139,47.5954418 C49.4863197,47.5807101 49.482799,47.5671571 49.4775181,47.553604 C49.4722371,47.5400509 49.4657826,47.5253193 49.459328,47.511177 C49.4534603,47.4970347 49.4487661,47.4846602 49.4423115,47.4716963 C49.435857,47.4587325 49.4270554,47.4440008 49.4194274,47.4298585 C49.4117992,47.4163055 49.4059315,47.4045203 49.3983033,47.3921456 C49.3906753,47.3803605 49.3801134,47.3656288 49.370725,47.352665 C49.3636836,47.3420582 49.3572291,47.3314515 49.349601,47.3214339 L42.9560924,38.937386 C42.2607632,38.0110629 42.4397298,36.6946472 43.3568602,35.9892982 C44.2739907,35.2839493 45.5860213,35.4536573 46.2954331,36.3693735 L52.688355,44.7534215 C52.7094789,44.7799384 52.7311896,44.8052768 52.7546606,44.8300259 C52.7622888,44.8376863 52.7699168,44.8447575 52.7775449,44.8524179 C52.7939746,44.8671494 52.8104043,44.8830596 52.8274209,44.8977912 C52.8368094,44.9054517 52.8467845,44.9125227 52.8561729,44.9201833 C52.8726026,44.933147 52.8890324,44.9449323 52.9060488,44.9561283 C52.9166109,44.9631995 52.9271727,44.9696815 52.9377346,44.9761634 C52.955338,44.9873593 52.9729413,44.9967875 52.9911313,45.006805 C53.0016933,45.0121085 53.0122552,45.0174118 53.0228172,45.0227151 C53.0433544,45.0321434 53.0638915,45.0403931 53.0844286,45.0486428 C53.0938171,45.0515892 53.1020318,45.0557139 53.1114203,45.0586602 C53.1413459,45.069267 53.1712715,45.078106 53.2023705,45.0851772 C53.206478,45.0863556 53.2111722,45.0863556 53.2152797,45.0875343 C53.2416845,45.0934268 53.2686763,45.0975517 53.2956679,45.1010872 C53.30623,45.1022658 53.3167918,45.102855 53.3279406,45.1040336 C53.3484778,45.1058013 53.3696016,45.1069799 53.3901388,45.1075692 C53.3954199,45.1075692 53.4001141,45.1081585 53.405395,45.1081585 C53.410676,45.1081585 53.4147834,45.1069799 53.4194776,45.1069799 C53.4623122,45.1069799 53.5051468,45.1034444 53.5473947,45.0969625 L53.5520889,45.0957839 C53.59375,45.0887127 53.6348244,45.0786953 53.6753119,45.0657315 C53.6823532,45.0633743 53.6899812,45.0610174 53.6976093,45.0586602 C53.7380969,45.0445179 53.7774108,45.0274293 53.8155512,45.0079836 C53.8231794,45.0044481 53.8308074,44.999734 53.8378487,44.9956091 C53.8777495,44.9743956 53.9164767,44.9496464 53.9528568,44.921951 C54.3477568,44.6178909 54.4228641,44.0498403 54.1200878,43.6526764 L47.7265792,35.2698069 C47.266547,34.6711147 47.1603407,33.8708942 47.4484476,33.1720271 C47.7365544,32.47316 48.3749664,31.9823031 49.121932,31.8850746 C49.8688975,31.7878459 50.6099953,32.0995665 51.0659201,32.7017944 L57.4588419,41.0852532 C57.7616182,41.4818279 58.3278568,41.5572536 58.7227568,41.2531934 C59.1182437,40.9491332 59.1927643,40.3810827 58.8899879,39.9839189 L53.4100892,32.7978445 C52.950057,32.1991523 52.8438505,31.3989317 53.1319574,30.7000647 C53.4200644,30.0011975 54.0584764,29.5103406 54.8054419,29.4131121 C55.5524074,29.3164728 56.2940919,29.6276042 56.7494299,30.2298319 L65.8825946,42.2066225 C69.6086205,47.1034063 68.683862,54.105041 63.8159703,57.8574741 L63.8159703,57.8574741 Z" id="Shape" fill="#43D92D"/>
                </g>
            </g>
        </g>
    </g>
</svg>