<?xml version="1.0" encoding="UTF-8"?>
<svg width="74px" height="74px" viewBox="0 0 74 74" version="1.1" xmlns="http://www.w3.org/2000/svg" xmlns:xlink="http://www.w3.org/1999/xlink">
    <!-- Generator: Sketch 54 (76480) - https://sketchapp.com -->
    <title>Time and Material Model </title>
    <desc>Created with Sketch.</desc>
    <g id="Page-1" stroke="none" stroke-width="1" fill="none" fill-rule="evenodd">
        <g id="Frontend-Development" transform="translate(-1209.000000, -4015.000000)" fill-rule="nonzero">
            <g id="Group-5" transform="translate(0.000000, 3716.000000)">
                <g id="Group-4" transform="translate(1168.000000, 252.000000)">
                    <g id="Time-and-Material-Model-" transform="translate(41.000000, 47.000000)">
                        <path d="M44.0547864,55.0895874 C44.0654184,46.9713095 49.9411303,40.0494503 57.9499029,38.7205 C51.4613777,37.6532943 44.9549672,40.5193335 41.3626757,46.0270852 C37.7703841,51.5348369 37.7703841,58.6445175 41.3626757,64.1522692 C44.9549672,69.6600209 51.4613777,72.52606 57.9499029,71.4588544 C49.9411414,70.1297552 44.0654792,63.2078785 44.0547864,55.0895874 Z" id="Path" fill="#D4E1F4"/>
                        <path d="M7.4215534,31.4045583 C7.11513592,16.4784709 18.4536602,3.97121359 33.084466,2.5838932 C31.9968097,2.48044439 30.904106,2.43960518 29.8117621,2.46157767 C14.1736942,2.78254369 1.71223786,15.7664903 2.03320388,31.4045583 C2.3541699,47.0426262 15.338835,59.5042621 30.9761845,59.1832961 C31.6806214,59.1689272 32.3827233,59.126 33.0814126,59.0599029 C18.9490291,57.7185631 7.71970874,45.9337039 7.4215534,31.4045583 Z" id="Path" fill="#D4E1F4"/>
                        <path d="M55.3042233,64.8189709 C55.2878786,64.8189709 55.2718932,64.8166359 55.2557282,64.8166359 C55.2395631,64.8166359 55.2233981,64.8182524 55.2070534,64.8189709 C52.9971074,64.7902007 51.2199189,62.9919714 51.2171602,60.7818398 C51.2171602,60.1866592 50.7346709,59.7041699 50.1394903,59.7041699 C49.8570243,59.7055255 49.5870004,59.820554 49.3903289,60.0233081 C49.1936575,60.2260623 49.0869044,60.4994635 49.0941505,60.7818398 C49.0552207,63.811972 51.2489435,66.4102306 54.2427184,66.879835 L54.2427184,68.9415971 C54.2427184,69.5367777 54.7252077,70.019267 55.3203883,70.019267 C55.915569,70.019267 56.3980583,69.5367777 56.3980583,68.9415971 L56.3980583,66.879835 C59.5523562,66.3018683 61.7445778,63.4127796 61.4519958,60.2193431 C61.1594138,57.0259066 58.4787012,54.5832751 55.2718932,54.5881117 C53.6371585,54.594219 52.1599914,53.614179 51.5301691,52.1056304 C50.9003468,50.5970819 51.2421202,48.8576302 52.3958949,47.6995289 C53.5496696,46.5414275 55.2878298,46.1931458 56.7987252,46.8173173 C58.3096206,47.4414887 59.2951828,48.9149772 59.2951942,50.5497233 C59.2951942,51.144904 59.7776834,51.6273932 60.3728641,51.6273932 C60.9742844,51.6298292 61.4672799,51.1509604 61.4823252,50.5497233 C61.480986,47.5565762 59.3421838,44.9914038 56.3980583,44.4519078 L56.3980583,42.6227427 C56.3980583,42.0275621 55.915569,41.5450728 55.3203883,41.5450728 C54.7252077,41.5450728 54.2427184,42.0275621 54.2427184,42.6227427 L54.2427184,44.4519078 C51.2490118,44.9215026 49.0553107,47.5196589 49.0941505,50.5497233 C49.0903786,53.9660958 51.8564197,56.7388912 55.2727913,56.7434515 C57.4944251,56.7464081 59.2963405,58.5435141 59.3052347,60.7651321 C59.3141288,62.9867501 57.5266603,64.7982261 55.3051214,64.8189709 L55.3042233,64.8189709 Z" id="Path" fill="#43D92D"/>
                        <path d="M30.5223058,61.2103932 C33.159287,61.2117611 35.7853943,60.8724197 38.3354126,60.2007961 C38.9008367,60.0405598 39.2336242,59.4568494 39.0834944,58.8886583 C38.9333646,58.3204672 38.3556804,57.9773254 37.7849029,58.117301 C35.414374,58.7415587 32.9731141,59.0568735 30.521767,59.0554126 C14.8808252,59.0550534 2.15533981,46.3297476 2.15533981,30.688267 C2.15533981,15.0467864 14.8808252,2.32130097 30.5223058,2.32130097 C46.1637864,2.32130097 58.8890922,15.0466068 58.8890922,30.688267 C58.8902263,33.0115752 58.6071515,35.3262982 58.0461748,37.5808641 C57.9097905,38.1552462 58.2609215,38.7324448 58.8336992,38.8754178 C59.4064768,39.0183909 59.9876707,38.6739131 60.1372136,38.1028155 C60.7409022,35.6775526 61.0455721,33.1875347 61.044432,30.688267 C61.044432,13.8586553 47.3522767,0.165961165 30.5223058,0.165961165 C13.692335,0.165961165 0,13.8582961 0,30.688267 C0,47.5182379 13.6921553,61.2103932 30.5223058,61.2103932 Z" id="Path" fill="#24527a"/>
                        <path d="M30.5339806,15.355 C29.9387999,15.355 29.4563107,15.8374893 29.4563107,16.4326699 L29.4563107,31.0995777 C29.4435736,31.3760287 29.5454263,31.6454926 29.7378405,31.8444 C29.9302548,32.0433074 30.1961912,32.1540438 30.4729126,32.1504854 L41.4683786,32.1504854 C42.0635593,32.1504854 42.5460485,31.6679962 42.5460485,31.0728155 C42.5460485,30.4776349 42.0635593,29.9951456 41.4683786,29.9951456 L31.6116505,29.9951456 L31.6116505,16.4326699 C31.6116505,15.8374893 31.1291612,15.355 30.5339806,15.355 Z" id="Path" fill="#24527a"/>
                        <path d="M55.2557282,73.8340388 C65.6079795,73.8339396 74.0000661,65.4417189 74,55.0894676 C73.9999339,44.7372163 65.60774,36.3451029 55.2554887,36.3451359 C44.9032374,36.345169 36.5110971,44.7373361 36.5110971,55.0895874 C36.5226785,65.4371312 44.9081842,73.8225566 55.2557282,73.8340388 L55.2557282,73.8340388 Z M55.2557282,38.5004757 C64.4176182,38.5005749 71.8447263,45.9278171 71.8446602,55.0897071 C71.8445941,64.2515971 64.4173787,71.6787321 55.2554887,71.678699 C46.0935987,71.678666 38.6664369,64.2514774 38.6664369,55.0895874 C38.6768301,45.9319124 46.098053,38.5107698 55.2557282,38.5004757 L55.2557282,38.5004757 Z" id="Shape" fill="#43D92D"/>
                    </g>
                </g>
            </g>
        </g>
    </g>
</svg>