<?xml version="1.0" encoding="UTF-8"?>
<svg width="47px" height="49px" viewBox="0 0 47 49" version="1.1" xmlns="http://www.w3.org/2000/svg" xmlns:xlink="http://www.w3.org/1999/xlink">
    <!-- Generator: Sketch 54 (76480) - https://sketchapp.com -->
    <title>Analysis</title>
    <desc>Created with Sketch.</desc>
    <g id="Page-1" stroke="none" stroke-width="1" fill="none" fill-rule="evenodd">
        <g id="About-Us" transform="translate(-828.000000, -1473.000000)" fill="#FFFFFF" fill-rule="nonzero">
            <g id="Group-14" transform="translate(809.000000, 1456.000000)">
                <g id="Group-4" transform="translate(0.500000, 0.000000)">
                    <g id="Analysis" transform="translate(19.000000, 17.000000)">
                        <path d="M43.5272511,8.34673171 C44.8868164,8.3381023 45.9844084,7.2332306 45.9844084,5.87327744 C45.9844084,4.51332428 44.8868164,3.40845258 43.5272511,3.39982317 L23.5974026,3.39982317 L23.5974026,0.597560976 C23.5974026,0.267537162 23.3299363,0 23,0 C22.6700637,0 22.4025974,0.267537162 22.4025974,0.597560976 L22.4025974,3.39982317 L2.47274892,3.39982317 C1.11318358,3.40845258 0.0155915728,4.51332428 0.0155915728,5.87327744 C0.0155915728,7.2332306 1.11318358,8.3381023 2.47274892,8.34673171 L3.26928571,8.34673171 L3.26580087,32.5317175 L2.47274892,32.5317175 C1.11318358,32.5403469 0.0155915728,33.6452186 0.0155915728,35.0051717 C0.0155915728,36.3651249 1.11318358,37.4699966 2.47274892,37.478626 L21.4536234,37.478626 L11.1507186,47.9841463 C10.9280683,48.2210193 10.9356066,48.5924827 11.1676837,48.8201227 C11.3997607,49.0477626 11.7712021,49.0480333 12.0036104,48.8207317 L22.2800303,38.3425996 L22.2859048,48.0356362 C22.2859048,48.36566 22.553371,48.6331972 22.8833074,48.6331972 C23.2132437,48.6331972 23.48071,48.36566 23.48071,48.0356362 L23.4748355,38.3024634 L34.0577229,48.6532154 C34.2941032,48.8809139 34.6698495,48.8752583 34.8992734,48.6405487 C35.1286973,48.4058391 35.1258924,48.029961 34.8929913,47.7987033 L24.3419654,37.478626 L43.5272511,37.478626 C44.8868164,37.4699966 45.9844084,36.3651249 45.9844084,35.0051717 C45.9844084,33.6452186 44.8868164,32.5403469 43.5272511,32.5317175 L42.7124935,32.5317175 L42.7224502,8.34673171 L43.5272511,8.34673171 Z M1.19480519,5.87332724 C1.19557334,5.16765367 1.76726245,4.59576845 2.47274892,4.59494512 L43.5272511,4.59494512 C44.2286662,4.60113794 44.7940139,5.17164899 44.7940139,5.87327744 C44.7940139,6.57490589 44.2286662,7.14541694 43.5272511,7.15160976 L2.47274892,7.15160976 C1.76730127,7.15078654 1.1956282,6.57896191 1.19480519,5.87332724 Z M44.8051948,35.0052215 C44.8044266,35.7108789 44.2327214,36.2827356 43.5272511,36.2835041 L2.47274892,36.2835041 C1.77133375,36.2773113 1.20598608,35.7068002 1.20598608,35.0051717 C1.20598608,34.3035433 1.77133375,33.7330322 2.47274892,33.7268394 L43.5272511,33.7268394 C44.2327603,33.727608 44.8044814,34.2995253 44.8051948,35.0052215 L44.8051948,35.0052215 Z M41.5176883,32.5317175 L4.46060606,32.5317175 L4.46448918,8.34673171 L41.5275455,8.34673171 L41.5176883,32.5317175 Z" id="Shape"></path>
                        <path d="M18.6987013,29.2772012 L18.6987013,18.4485996 C18.6982075,18.0087726 18.3418749,17.6523456 17.9021645,17.6518516 L14.3459264,17.6518516 C13.906216,17.6523456 13.5498835,18.0087726 13.5493896,18.4485996 L13.5493896,29.2772012 C13.5498835,29.7170282 13.906216,30.0734552 14.3459264,30.0739492 L17.9021645,30.0739492 C18.3418749,30.0734552 18.6982075,29.7170282 18.6987013,29.2772012 L18.6987013,29.2772012 Z M17.5038961,28.8788272 L14.7441948,28.8788272 L14.7441948,18.8469736 L17.5038961,18.8469736 L17.5038961,28.8788272 Z" id="Shape"></path>
                        <path d="M21.2218312,30.0739492 L24.7781688,30.0739492 C25.2178792,30.0734552 25.5742118,29.7170282 25.5747056,29.2772012 L25.5747056,14.7445183 C25.5742118,14.3046913 25.2178792,13.9482643 24.7781688,13.9477703 L21.2218312,13.9477703 C20.7821208,13.9482643 20.4257882,14.3046913 20.4252944,14.7445183 L20.4252944,29.2772012 C20.4257882,29.7170282 20.7821208,30.0734552 21.2218312,30.0739492 L21.2218312,30.0739492 Z M21.6200996,15.1428923 L24.3799004,15.1428923 L24.3799004,28.8788272 L21.6200996,28.8788272 L21.6200996,15.1428923 Z" id="Shape"></path>
                        <path d="M31.653974,10.9033963 L28.0978355,10.9033963 C27.6581251,10.9038903 27.3017925,11.2603173 27.3012987,11.7001443 L27.3012987,29.2772012 C27.3017925,29.7170282 27.6581251,30.0734552 28.0978355,30.0739492 L31.653974,30.0739492 C32.0936844,30.0734552 32.450017,29.7170282 32.4505108,29.2772012 L32.4505108,11.7001443 C32.450017,11.2603173 32.0936844,10.9038903 31.653974,10.9033963 L31.653974,10.9033963 Z M31.2557056,28.8788272 L28.4961039,28.8788272 L28.4961039,12.0985183 L31.2557056,12.0985183 L31.2557056,28.8788272 Z" id="Shape"></path>
                    </g>
                </g>
            </g>
        </g>
    </g>
</svg>