<?xml version="1.0" encoding="UTF-8"?>
<svg width="65px" height="65px" viewBox="0 0 65 65" version="1.1" xmlns="http://www.w3.org/2000/svg" xmlns:xlink="http://www.w3.org/1999/xlink">
    <!-- Generator: Sketch 54 (76480) - https://sketchapp.com -->
    <title>Cloud Consulting</title>
    <desc>Created with Sketch.</desc>
    <g id="Page-1" stroke="none" stroke-width="1" fill="none" fill-rule="evenodd">
        <g id="Cloud-Services" transform="translate(-438.000000, -1636.000000)" fill-rule="nonzero">
            <g id="Group-4" transform="translate(391.000000, 1586.000000)">
                <g id="Cloud-Consulting" transform="translate(47.000000, 50.000000)">
                    <path d="M7.82407407,51.2604378 L7.82407407,13.6290323 L1.80555556,13.6290323 L1.80555556,51.2604378 C1.80829441,51.774785 2.01841985,52.2664938 2.3887663,52.6251932 C2.75911274,52.9838926 3.25865586,53.1795339 3.7752662,53.1682028 L9.79378472,53.1682028 C9.27717438,53.1795339 8.77763126,52.9838926 8.40728482,52.6251932 C8.03693837,52.2664938 7.82681292,51.774785 7.82407407,51.2604378 Z" id="Path" fill="#DAE5F3"></path>
                    <path d="M9.79378472,1.94700461 L3.7752662,1.94700461 C3.25802246,1.93697303 2.75834309,2.13383982 2.38811392,2.4935235 C2.01788475,2.85320717 1.80803583,3.34565867 1.80555556,3.8606106 L1.80555556,11.8317972 L7.82407407,11.8317972 L7.82407407,3.8606106 C7.82655435,3.34565867 8.03640326,2.85320717 8.40663244,2.4935235 C8.77686161,2.13383982 9.27654098,1.93697303 9.79378472,1.94700461 Z" id="Path" fill="#DAE5F3"></path>
                    <path d="M21.3657407,35.4173618 C21.3658171,33.1605877 22.7574411,31.1352251 24.8703241,30.3168088 C25.2337819,30.1764271 25.4667109,29.8208388 25.4491551,29.4331682 C25.4434375,29.3070622 25.4398264,29.1785599 25.4398264,29.0508065 C25.4450055,25.5143036 27.7861667,22.4023061 31.1939815,21.4020737 C28.7723599,20.693064 26.1566466,21.1620299 24.1357449,22.6675306 C22.1148432,24.1730314 20.9253201,26.5388328 20.9259375,29.0514055 C20.9259375,29.1787097 20.9295486,29.3076613 20.9352662,29.4337673 C20.952822,29.8214379 20.719893,30.1770261 20.3564352,30.3174078 C18.2437571,31.1357448 16.8521764,33.1608065 16.8518519,35.4173618 C16.852705,38.4254272 19.2929262,40.8686526 22.3148611,40.8870968 L26.82875,40.8870968 C23.8068151,40.8686526 21.3665939,38.4254272 21.3657407,35.4173618 Z" id="Path" fill="#DAE5F3"></path>
                    <path d="M61.2247338,0.149769585 L3.7752662,0.149769585 C2.77928982,0.140270828 1.82066054,0.526672159 1.11194593,1.2232925 C0.403231324,1.91991284 0.00300010181,2.86918296 -2.84217094e-14,3.8606106 L-2.84217094e-14,51.2604378 C0.00322925778,52.2512641 0.403724451,53.1998049 1.11256036,53.8954477 C1.82139627,54.5910906 2.77990686,54.9762615 3.7752662,54.9654378 L20.7638889,54.9654378 L20.7638889,53.1682028 L3.7752662,53.1682028 C3.25865586,53.1795339 2.75911274,52.9838926 2.3887663,52.6251932 C2.01841985,52.2664938 1.80829441,51.774785 1.80555556,51.2604378 L1.80555556,13.6290323 L63.1944444,13.6290323 L63.1944444,51.2604378 C63.1917056,51.774785 62.9815801,52.2664938 62.6112337,52.6251932 C62.2408873,52.9838926 61.7413441,53.1795339 61.2247338,53.1682028 L44.0856481,53.1682028 L44.0856481,54.9654378 L61.2247338,54.9654378 C62.2200931,54.9762615 63.1786037,54.5910906 63.8874396,53.8954477 C64.5962755,53.1998049 64.9967707,52.2512641 65,51.2604378 L65,3.8606106 C64.9969999,2.86918296 64.5967687,1.91991284 63.8880541,1.2232925 C63.1793395,0.526672159 62.2207102,0.140270828 61.2247338,0.149769585 Z M1.80555556,11.8317972 L1.80555556,3.8606106 C1.80803583,3.34565867 2.01788475,2.85320717 2.38811392,2.4935235 C2.75834309,2.13383982 3.25802246,1.93697303 3.7752662,1.94700461 L61.2247338,1.94700461 C61.7419775,1.93697303 62.2416569,2.13383982 62.6118861,2.4935235 C62.9821153,2.85320717 63.1919642,3.34565867 63.1944444,3.8606106 L63.1944444,11.8317972 L1.80555556,11.8317972 Z" id="Shape" fill="#24527a"></path>
                    <path d="M6.77083333,3.59746544 C5.02576694,3.59746544 3.61111111,5.00560211 3.61111111,6.74262673 C3.61111111,8.47965134 5.02576694,9.88778802 6.77083333,9.88778802 C8.51589973,9.88778802 9.93055556,8.47965134 9.93055556,6.74262673 C9.92856555,5.00642326 8.51507478,3.59944628 6.77083333,3.59746544 Z M6.77083333,8.090553 C6.02294773,8.090553 5.41666667,7.48706585 5.41666667,6.74262673 C5.41666667,5.99818761 6.02294773,5.39470046 6.77083333,5.39470046 C7.51871893,5.39470046 8.125,5.99818761 8.125,6.74262673 C8.12417078,7.48672369 7.51837519,8.0897276 6.77083333,8.090553 L6.77083333,8.090553 Z" id="Shape" fill="#24527a"></path>
                    <path d="M14.8958333,3.59746544 C13.1507669,3.59746544 11.7361111,5.00560211 11.7361111,6.74262673 C11.7361111,8.47965134 13.1507669,9.88778802 14.8958333,9.88778802 C16.6408997,9.88778802 18.0555556,8.47965134 18.0555556,6.74262673 C18.0535655,5.00642326 16.6400748,3.59944628 14.8958333,3.59746544 Z M14.8958333,8.090553 C14.1479477,8.090553 13.5416667,7.48706585 13.5416667,6.74262673 C13.5416667,5.99818761 14.1479477,5.39470046 14.8958333,5.39470046 C15.6437189,5.39470046 16.25,5.99818761 16.25,6.74262673 C16.2491708,7.48672369 15.6433752,8.0897276 14.8958333,8.090553 L14.8958333,8.090553 Z" id="Shape" fill="#24527a"></path>
                    <path d="M22.8703704,3.59746544 C21.125304,3.59746544 19.7106481,5.00560211 19.7106481,6.74262673 C19.7106481,8.47965134 21.125304,9.88778802 22.8703704,9.88778802 C24.6154368,9.88778802 26.0300926,8.47965134 26.0300926,6.74262673 C26.0281026,5.00642326 24.6146118,3.59944628 22.8703704,3.59746544 L22.8703704,3.59746544 Z M22.8703704,8.090553 C22.1224848,8.090553 21.5162037,7.48706585 21.5162037,6.74262673 C21.5162037,5.99818761 22.1224848,5.39470046 22.8703704,5.39470046 C23.618256,5.39470046 24.224537,5.99818761 24.224537,6.74262673 C24.2237078,7.48672369 23.6179122,8.0897276 22.8703704,8.090553 L22.8703704,8.090553 Z" id="Shape" fill="#24527a"></path>
                    <path d="M60.6365741,5.69124424 L34.7569444,5.69124424 C34.258354,5.69124424 33.8541667,6.093569 33.8541667,6.58986175 C33.8541667,7.0861545 34.258354,7.48847926 34.7569444,7.48847926 L60.6365741,7.48847926 C61.1351645,7.48847926 61.5393519,7.0861545 61.5393519,6.58986175 C61.5393519,6.093569 61.1351645,5.69124424 60.6365741,5.69124424 Z" id="Path" fill="#24527a"></path>
                    <path d="M42.6851389,42.6843318 C46.2926813,42.6682193 49.347605,40.0318815 49.8751174,36.4795246 C50.4026299,32.9271677 48.2445754,29.5238392 44.7959838,28.4695507 C44.5236089,26.4745897 43.4298111,24.6823104 41.7767176,23.5222304 C40.1236241,22.3621504 38.0602276,21.9388272 36.0810185,22.3537097 C33.3439025,19.4590197 29.1175604,18.5039678 25.3930672,19.9384891 C21.668574,21.3730104 19.1888173,24.9109753 19.122037,28.8856106 C18.4006084,29.2363115 17.7429914,29.7043216 17.17625,30.2703802 C15.0973376,32.3490587 14.4749659,35.4666804 15.597531,38.1785939 C16.7200961,40.8905074 19.3682408,42.6667854 22.3148611,42.6843318 L26.6319444,42.6843318 L26.6319444,48.2258065 L23.4270833,48.2258065 C22.9285995,48.2258065 22.5694444,48.6917396 22.5694444,49.1879263 L22.5694444,50.5912673 C20.9312122,50.9751489 19.7795928,52.4386854 19.7976157,54.1138479 C19.7976157,56.1230891 21.4339683,57.7519009 23.4525116,57.7519009 C25.4710548,57.7519009 27.1074074,56.1230891 27.1074074,54.1138479 C27.0834484,52.4659867 25.9705632,51.031271 24.375,50.5912673 L24.375,50.0230415 L27.5511227,50.0230415 C27.7819223,50.0367892 28.0081435,49.9548267 28.1760632,49.7966183 C28.3439828,49.63841 28.43862,49.4180705 28.4375,49.1879263 L28.4375,42.6843318 L31.5972222,42.6843318 L31.5972222,57.7391705 C29.8133023,58.1921797 28.6470695,59.8960956 28.8764091,61.7143947 C29.1057487,63.5326938 30.6589426,64.8967662 32.5,64.8967662 C34.3410574,64.8967662 35.8942513,63.5326938 36.1235909,61.7143947 C36.3529305,59.8960956 35.1866977,58.1921797 33.4027778,57.7391705 L33.4027778,42.6843318 L36.5625,42.6843318 L36.5625,46.4920737 C36.56138,46.722218 36.6560172,46.9425575 36.8239368,47.1007658 C36.9918565,47.2589742 37.2180777,47.3409367 37.4488773,47.3271889 L40.625,47.3271889 L40.625,50.6320046 C39.0306161,51.072637 37.9196964,52.5078039 37.8981597,54.154735 C37.8981597,55.4525064 38.5937178,56.6516967 39.722824,57.3005824 C40.8519303,57.9494681 42.2430466,57.9494681 43.3721528,57.3005824 C44.5012591,56.6516967 45.1968172,55.4525064 45.1968171,54.154735 C45.217488,52.4804941 44.067757,51.0163547 42.4305556,50.6320046 L42.4305556,46.4920737 C42.4305556,45.9958871 42.07125,45.5299539 41.5729167,45.5299539 L38.3680556,45.5299539 L38.3680556,42.6843318 L42.6851389,42.6843318 Z M25.2738657,54.1138479 C25.2739488,55.1290147 24.4472509,55.9520371 23.4273843,55.9521198 C22.4075176,55.9522025 21.580685,55.1293143 21.5806019,54.1141475 C21.5805188,53.0989807 22.4072167,52.2759583 23.4270833,52.2758756 C24.4464689,52.2769484 25.2726218,53.0991602 25.2738657,54.1138479 Z M34.3467824,61.2619009 C34.3467824,62.276946 33.5201456,63.0998181 32.5004012,63.0998732 C31.4806568,63.0999284 30.6539302,62.2771457 30.6538195,61.2621006 C30.6537087,60.2470555 31.4802556,59.424094 32.5,59.4239286 C33.5193023,59.4250841 34.3453206,60.2472958 34.3464815,61.2619009 L34.3467824,61.2619009 Z M43.4196991,54.154735 C43.4196991,55.1698823 42.5929644,55.9928296 41.5731173,55.9928571 C40.5532702,55.9928847 39.7264906,55.1699822 39.7264352,54.1548349 C39.7263798,53.1396875 40.5530696,52.3166956 41.5729167,52.3166129 C42.5922189,52.3178511 43.4181699,53.1401298 43.4192477,54.154735 L43.4196991,54.154735 Z M16.8518519,35.4173618 C16.8519283,33.1605877 18.2435523,31.1352251 20.3564352,30.3168088 C20.719893,30.1764271 20.952822,29.8208388 20.9352662,29.4331682 C20.9295486,29.3070622 20.9259375,29.1785599 20.9259375,29.0508065 C20.9256038,25.6969179 23.0340876,22.7014578 26.2010992,21.556541 C29.3681109,20.4116243 32.9163441,21.3621063 35.0783333,23.9345276 C35.3099373,24.2104427 35.6844744,24.3223803 36.030463,24.2190899 C37.6467593,23.7389415 39.3952536,24.0290759 40.7676703,25.005153 C42.1400869,25.9812301 42.9824393,27.533733 43.0498611,29.2113594 C43.0661438,29.6256794 43.3651058,29.9751198 43.7734375,30.0571083 C46.5183939,30.6358586 48.3855845,33.1786246 48.1063184,35.9576856 C47.8270524,38.7367467 45.4908757,40.8610031 42.6851389,40.8870968 L22.3148611,40.8870968 C19.2929262,40.8686526 16.852705,38.4254272 16.8518519,35.4173618 Z" id="Shape" fill="#43D92D"></path>
                </g>
            </g>
        </g>
    </g>
</svg>