<?xml version="1.0" encoding="UTF-8"?>
<svg width="66px" height="74px" viewBox="0 0 66 74" version="1.1" xmlns="http://www.w3.org/2000/svg" xmlns:xlink="http://www.w3.org/1999/xlink">
    <!-- Generator: Sketch 54 (76480) - https://sketchapp.com -->
    <title>Customized eCommerce  Portals</title>
    <desc>Created with Sketch.</desc>
    <g id="Page-1" stroke="none" stroke-width="1" fill="none" fill-rule="evenodd">
        <g id="eCommerce" transform="translate(-420.000000, -1257.000000)" fill-rule="nonzero">
            <g id="Group-15" transform="translate(0.000000, 1009.000000)">
                <g id="Group-4" transform="translate(392.000000, 195.000000)">
                    <g id="Customized-eCommerce--Portals" transform="translate(28.000000, 53.000000)">
                        <path d="M30.257699,12.7442372 L28.0547443,12.7442372 L41.0895695,3.29406926 L39.4915065,2.1353327 L24.8586184,12.7442372 L27.0615731,12.7442372 C27.5909315,12.7442372 28.0204109,13.1713038 28.0204109,13.6990759 L28.0204109,29.5303763 L31.2165368,29.5303763 L31.2165368,13.6990759 C31.2165368,13.1713038 30.7870574,12.7442372 30.257699,12.7442372 L30.257699,12.7442372 Z" id="Path" fill="#D4E1F4"/>
                        <path d="M25.909844,61.6343414 C22.5139603,61.6343414 19.7616714,64.3751512 19.7610472,67.7568716 C19.7610472,71.1379704 22.5139603,73.8787802 25.9092198,73.8787802 C29.3044794,73.8787802 32.0573925,71.1379704 32.0573925,67.7568716 C32.0530229,64.3770161 29.303231,61.6386929 25.909844,61.6343414 Z M25.909844,71.9691028 C23.5733013,71.9691028 21.679347,70.0836694 21.6787228,67.7568716 C21.6787228,65.430074 23.572677,63.5440188 25.9092198,63.5440188 C28.2457627,63.5440188 30.1397169,65.430074 30.1397169,67.7568716 C30.1372201,70.0818044 28.2445143,71.9666162 25.909844,71.9691028 Z" id="Shape" fill="#24527a"/>
                        <path d="M49.2659087,61.6343414 C45.8706491,61.6343414 43.1183603,64.3757729 43.1183603,67.7568716 C43.1183603,71.1379704 45.8706491,73.879402 49.2665329,73.8787802 C52.6617925,73.8787802 55.4140813,71.1379704 55.4140813,67.7568716 C55.410336,64.3770161 52.6599199,61.6380712 49.2659087,61.6343414 L49.2659087,61.6343414 Z M49.2659087,71.9691028 C46.9299902,71.9691028 45.0360358,70.0830478 45.0360358,67.7568716 C45.0360358,65.430074 46.9299902,63.5440188 49.2659087,63.5440188 C51.6024516,63.5440188 53.4964058,65.430074 53.4964058,67.7568716 C53.493909,70.082426 51.6012032,71.9666162 49.2659087,71.9691028 L49.2659087,71.9691028 Z" id="Shape" fill="#24527a"/>
                        <path d="M65.6816358,21.9252353 C65.5018537,21.6734711 65.2109564,21.5236559 64.9007075,21.5236559 L52.0799977,21.5236559 C51.5506393,21.5236559 51.1211599,21.9507225 51.1211599,22.4784946 C51.1211599,23.0056452 51.5506393,23.4333333 52.0799977,23.4333333 L63.5542145,23.4333333 L57.6507453,40.3997479 C56.9915443,42.2913978 55.2018388,43.559543 53.191775,43.5601646 L18.5056938,43.5601646 L15.3058225,23.4333333 L27.8805804,23.4333333 L27.8805804,21.5236559 L15.0024402,21.5236559 L14.3550999,17.4519152 C13.8563294,14.2349295 11.0703315,11.8652386 7.8017932,11.8776714 L0.978189356,11.8776714 C0.448206799,11.8776714 0.0193515835,12.3053596 0.0193515835,12.8325101 C0.0193515835,13.3596607 0.448206799,13.7873488 0.978189356,13.7873488 L7.8017932,13.7873488 C10.1258512,13.7780242 12.1071996,15.4632897 12.4617699,17.7509241 L17.8633475,51.7297547 C18.3614937,54.9467407 21.148116,57.3170531 24.4172783,57.3039987 L57.8049334,57.3039987 C58.334916,57.3039987 58.7637712,56.8769322 58.7637712,56.34916 C58.7637712,55.8220095 58.334916,55.3943213 57.8049334,55.3943213 L24.4172783,55.3943213 C22.0932203,55.4036458 20.1118719,53.7183805 19.7573017,51.430746 L18.8090762,45.469842 L53.1923994,45.469842 C56.0195975,45.4685988 58.5359224,43.6851142 59.4622995,41.0251176 L65.8064845,22.7911795 C65.9082362,22.4996303 65.8614179,22.1763776 65.6816358,21.9252353 Z" id="Path" fill="#43D92D"/>
                        <path d="M57.634515,12.9269994 L40.0558225,0.182762177 C39.7193553,-0.0609206189 39.2636576,-0.0609206189 38.9271906,0.182762177 L21.3484981,12.927621 C21.0132794,13.1706822 20.8728246,13.6014785 21.0014188,13.9943548 C21.1300128,14.3872312 21.4976923,14.653293 21.9128141,14.6539146 L26.1027354,14.6539146 L26.1027354,30.4852151 C26.1027354,31.0123656 26.5315906,31.4400538 27.0615731,31.4400538 L51.92144,31.4400538 C52.4507983,31.4400538 52.8802777,31.0123656 52.8802777,30.4852151 L52.8802777,14.6539146 L57.070199,14.6539146 C57.4853208,14.6539146 57.8530001,14.3872312 57.9815943,13.9943548 C58.1101884,13.6014785 57.9697337,13.1706822 57.634515,12.9269994 Z M51.92144,12.7442372 C51.3914574,12.7442372 50.9626022,13.1713038 50.9626022,13.6990759 L50.9626022,29.5303763 L28.0204109,29.5303763 L28.0204109,13.6990759 C28.0204109,13.1713038 27.5909315,12.7442372 27.0615731,12.7442372 L24.8586184,12.7442372 L39.4915065,2.1353327 L54.1237705,12.7442372 L51.92144,12.7442372 Z" id="Shape" fill="#24527a"/>
                        <path d="M35.3783671,17.8273858 C35.0056938,17.452537 34.3989293,17.4494288 34.0225107,17.8205478 C33.6460919,18.1916667 33.6429707,18.7959005 34.015644,19.1707494 L37.4595944,22.6339045 C37.6387523,22.8141801 37.8834557,22.916129 38.138147,22.9167506 L38.140644,22.9167506 C38.3953352,22.9167506 38.6387901,22.8160451 38.8185721,22.6370128 L44.9636236,16.5182124 C45.3294303,16.1439851 45.3250605,15.5465893 44.9542601,15.1767138 C44.5834594,14.8074597 43.9835616,14.8037299 43.6077671,15.1680108 L38.1437651,20.6079806 L35.3783671,17.8273858 Z" id="Path" fill="#43D92D"/>
                    </g>
                </g>
            </g>
        </g>
    </g>
</svg>