<?xml version="1.0" encoding="UTF-8"?>
<svg width="71px" height="74px" viewBox="0 0 71 74" version="1.1" xmlns="http://www.w3.org/2000/svg" xmlns:xlink="http://www.w3.org/1999/xlink">
    <!-- Generator: Sketch 54 (76480) - https://sketchapp.com -->
    <title>Digital Touchpoint for Customers </title>
    <desc>Created with Sketch.</desc>
    <g id="Page-1" stroke="none" stroke-width="1" fill="none" fill-rule="evenodd">
        <g id="Web-Application-Development" transform="translate(-438.000000, -2416.000000)" fill-rule="nonzero">
            <g id="Group-5" transform="translate(391.000000, 2243.000000)">
                <g id="Group-4" transform="translate(0.000000, 114.000000)">
                    <g id="Digital-Touchpoint-for-Customers-" transform="translate(47.000000, 59.000000)">
                        <path d="M15.2940327,19.3273976 C15.9897523,18.9833311 16.7427111,18.7668269 17.5157331,18.6866619 C17.4974402,18.6615005 17.4779671,18.6380946 17.4608545,18.6117631 C16.4783494,17.1459705 16.8802029,15.167004 18.3589761,14.1927347 C18.434508,14.1429971 18.5129903,14.0973558 18.5914727,14.0540548 C18.6068152,14.0815568 18.6209774,14.1102289 18.6369099,14.1377309 C18.8747173,14.5338753 19.3892785,14.6667035 19.7917221,14.4361558 C20.1941656,14.2050228 20.3340177,13.6959452 20.1062417,13.2945344 C19.3709857,12.0294472 19.2565076,10.501629 19.7964428,9.14350321 C20.335788,7.78479251 21.4699468,6.74440164 22.8773188,6.31607406 C20.9783993,5.74087491 18.9177943,6.375174 17.6815492,7.91586538 C16.4458944,9.45655677 16.285389,11.5900019 17.2773355,13.2957046 C17.4337101,13.5560951 17.4360705,13.8796812 17.2850066,14.1429971 C17.1333528,14.4057281 16.8506981,14.5678138 16.5456201,14.5672287 C16.2399518,14.5660583 15.9584774,14.4028025 15.8085938,14.1389012 C15.7920711,14.1113993 15.7779088,14.0827271 15.7631565,14.0552252 C15.6840841,14.0985261 15.6061919,14.1441675 15.5306599,14.1939049 C14.6756151,14.7544756 14.142171,15.6860293 14.0949635,16.7012589 C14.0483461,17.7164884 14.4938663,18.6925132 15.2940327,19.3279827 L15.2940327,19.3273976 Z" id="Path" fill="#D4E1F4"/>
                        <path d="M25.3409574,5.68704141 C25.5421792,5.83449839 25.6678689,6.06212045 25.6832114,6.30963756 C26.2148853,6.467042 26.7152842,6.71397386 27.1613946,7.04107094 C27.5384641,7.31140882 28.0648271,7.23065849 28.3415807,6.85909026 C28.6183344,6.48810729 28.5416223,5.96498601 28.1698636,5.68704141 C28.0258811,5.58171499 27.8789478,5.48282508 27.7284741,5.39095707 C27.0604886,4.14166885 27.4888963,2.59278534 28.7068484,1.85725589 C27.6694647,1.22120133 26.3305435,1.35344442 25.4400931,2.17967165 C24.5496427,3.00648398 24.3283577,4.3218939 24.9001579,5.39037196 C25.0500416,5.48282508 25.1969747,5.58171499 25.3409574,5.68704141 Z" id="Path" fill="#D4E1F4"/>
                        <path d="M27.5254821,35.9771635 C28.3699052,35.0485355 28.8366689,33.8425481 28.8354886,32.5920895 C28.8354886,32.1274829 28.4554688,31.7506484 27.9869348,31.7506484 C27.5178108,31.7506484 27.1377909,32.1274829 27.1377909,32.5920895 C27.145462,34.0350613 26.2272773,35.3223842 24.8529504,35.7963531 C24.8027926,35.8577935 24.7508644,35.9180637 24.6971659,35.9771635 C25.6784907,36.6225804 26.9265376,36.7197147 27.9975566,36.234628 C27.8335106,36.1608996 27.6759557,36.074883 27.5254821,35.9771635 Z" id="Path" fill="#D4E1F4"/>
                        <path d="M20.3818152,32.5920895 L20.3818152,31.5628163 C20.6066406,31.5920737 20.8338264,31.6049469 21.0604221,31.6026063 C21.2834774,31.6014361 21.4970912,31.5119085 21.6534658,31.3539189 C21.8098404,31.1959292 21.8954039,30.9823507 21.8912732,30.7611652 C21.8871427,30.2948032 21.5041721,29.9185538 21.033868,29.9197242 C19.2925034,29.9419597 17.673878,29.0343972 16.7958195,27.5434432 C15.917761,26.051904 15.9165807,24.2075214 16.7922789,22.7153973 C17.6685672,21.2226878 19.2860123,20.3127846 21.0273769,20.3332648 C21.4959109,20.3326797 21.8753408,19.9558451 21.8753408,19.4912387 C21.8747507,19.026047 21.4947306,18.6497976 21.0256068,18.6503827 C20.2992021,18.6503827 19.5781083,18.7715081 18.8918302,19.0084925 C19.0741689,19.265372 19.0971826,19.6012461 18.9514295,19.8797761 C18.8056765,20.1583058 18.5153507,20.3332648 18.1990608,20.3332648 C16.4576961,20.3127846 14.8396609,21.2226878 13.9639628,22.7153973 C13.0882646,24.2075214 13.0894449,26.051904 13.9675034,27.5434432 C14.8455619,29.0343972 16.4641871,29.9419597 18.2055519,29.9197242 C18.675856,29.9185538 19.0588264,30.2948032 19.0629571,30.7611652 C19.0670878,30.9823507 18.9809343,31.1959292 18.8251497,31.3539189 C18.6687749,31.5119085 18.4551613,31.6014361 18.232106,31.6026063 C18.0049202,31.6049469 17.7777344,31.5920737 17.5523188,31.5628163 L17.5523188,32.5920895 C17.5452377,33.4861937 17.8981134,34.3457743 18.5318733,34.9806585 C19.1662234,35.6161279 20.0289396,35.9742378 20.9306018,35.9765784 C21.4191987,35.9771635 21.9018949,35.8724222 22.3444647,35.6687911 C21.1418551,35.1099759 20.3753241,33.9092549 20.3818152,32.5920895 Z" id="Path" fill="#D4E1F4"/>
                        <path d="M45.648421,10.8989435 C45.649011,11.7403846 45.4259557,12.567197 45.0016789,13.2957046 C44.8453042,13.5560951 44.8423537,13.8796812 44.9940076,14.1429971 C45.1456615,14.4063133 45.4277261,14.5683989 45.7333944,14.5672287 C46.0390625,14.5666435 46.3205369,14.4028025 46.4704206,14.1389012 C46.486353,14.1113993 46.4999252,14.0827271 46.5158577,14.0552252 C46.5949301,14.0985261 46.6728225,14.1441675 46.7489445,14.1944901 C48.2271277,15.1687595 48.628981,17.1465556 47.6464761,18.6129333 C47.6293634,18.6386797 47.6098902,18.6620856 47.5921875,18.6878321 C48.3652094,18.767412 49.1181683,18.9839164 49.8138879,19.3279827 C50.6116938,18.691343 51.0554438,17.7159033 51.0088264,16.7012589 C50.9616189,15.6871995 50.4299451,14.7556458 49.5772606,14.1944901 C49.5017287,14.1441675 49.4238364,14.0985261 49.3441738,14.0552252 C49.3294215,14.0827271 49.3152593,14.1113993 49.2993268,14.1389012 C49.0615194,14.5350455 48.5469582,14.6678739 48.1445146,14.4367409 C47.7420711,14.2061931 47.602219,13.6971154 47.8299951,13.2957046 C48.8237118,11.5900019 48.6637965,9.45597166 47.4275515,7.91469517 C46.1907164,6.37341852 44.1289312,5.73911943 42.2300116,6.31607406 C44.2599318,6.93515941 45.6454704,8.79358553 45.648421,10.8989435 L45.648421,10.8989435 Z" id="Path" fill="#D4E1F4"/>
                        <path d="M37.6916056,4.13757279 C37.6916056,4.5746773 37.5836187,5.00476021 37.3776763,5.39095707 C37.2277926,5.48341034 37.0808594,5.5823001 36.9374668,5.68762652 C36.5603972,5.96323068 36.4807348,6.49044787 36.7592587,6.86435669 C37.0377827,7.23768025 37.5688663,7.31726021 37.9459358,7.04107094 C38.3920462,6.71455912 38.8924451,6.467042 39.4235289,6.30963756 C39.4394614,6.06212045 39.5645612,5.83449839 39.7657829,5.68704141 C39.9097656,5.58171499 40.0561087,5.48282508 40.2065824,5.39037196 C40.7777926,4.32247916 40.5565076,3.00706924 39.6666472,2.18025691 C38.7761968,1.35402953 37.4378657,1.22178644 36.4010722,1.85725589 C37.2012384,2.34351274 37.6898355,3.20660425 37.6916056,4.13757279 L37.6916056,4.13757279 Z" id="Path" fill="#D4E1F4"/>
                        <path d="M37.9518368,32.5920895 C37.9559673,32.291324 37.7966423,32.0116239 37.5340509,31.8600709 C37.2720496,31.7079327 36.9480885,31.7079327 36.685497,31.8600709 C36.4234956,32.0116239 36.2641706,32.291324 36.2677111,32.5920895 C36.2677111,33.8431332 36.735655,35.0497059 37.5812583,35.9777486 C37.4307846,36.0754681 37.2732297,36.1620698 37.1091839,36.2352131 C38.1802029,36.720885 39.4282496,36.6231655 40.4095745,35.9777486 C40.3564662,35.9186488 40.304538,35.8589637 40.2543799,35.7981085 C38.8741523,35.3276506 37.9488864,34.0391574 37.9518368,32.5920895 L37.9518368,32.5920895 Z" id="Path" fill="#D4E1F4"/>
                        <path d="M46.9100399,29.9197242 C48.6514046,29.9413746 50.2694398,29.0320566 51.1469082,27.5405174 C52.0237865,26.0483932 52.0237865,24.2040106 51.1469082,22.7124716 C50.2694398,21.2203473 48.6514046,20.3116144 46.9100399,20.3332648 C46.5931599,20.33385 46.3028341,20.1594762 46.1564911,19.8803612 C46.010148,19.6018314 46.0325714,19.2659571 46.2149103,19.0090778 C45.5292221,18.7715081 44.8075382,18.6503827 44.0805435,18.6503827 C43.6120097,18.6503827 43.2319897,19.0272172 43.2319897,19.4918238 C43.2319897,19.9564303 43.6120097,20.3332648 44.0805435,20.3332648 C45.8219082,20.3116144 47.4405336,21.2203473 48.3174119,22.7124716 C49.1942903,24.2040106 49.1942903,26.0483932 48.3174119,27.5405174 C47.4405336,29.0320566 45.8219082,29.9413746 44.0805435,29.9197242 C43.6120097,29.9197242 43.2319897,30.2959736 43.2319897,30.7611652 C43.2243184,30.9805952 43.3063414,31.1935887 43.4597656,31.3521635 C43.6131898,31.5107383 43.8244432,31.6008508 44.045728,31.6026063 C44.2729139,31.6049469 44.4995097,31.5920737 44.7249252,31.5628163 L44.7249252,32.5920895 C44.7308262,33.9104251 43.9637052,35.1111463 42.7593252,35.6693763 C43.8114611,36.1497818 45.0376746,36.062595 46.010148,35.4388284 C46.9826214,34.8144768 47.5644531,33.7407326 47.5532413,32.5920895 L47.5532413,31.5628163 C47.3284159,31.5920737 47.1012301,31.6049469 46.8746343,31.6026063 C46.6527593,31.6008508 46.4415061,31.5107383 46.2880817,31.3521635 C46.1346577,31.1935887 46.0526347,30.9805952 46.0608959,30.7611652 C46.0608959,30.2959736 46.4409159,29.9191391 46.9100399,29.9197242 L46.9100399,29.9197242 Z" id="Path" fill="#D4E1F4"/>
                        <path d="M69.9443235,45.8561963 C70.4453125,45.8561963 70.8507065,45.4542004 70.8507065,44.9574108 C70.8507065,44.4612064 70.4453125,44.0586254 69.9443235,44.0586254 L67.4547207,44.0586254 L67.4547207,42.4880915 C67.4641622,42.2628099 67.3762384,42.0439651 67.2133727,41.8865606 C67.0510971,41.729156 66.828632,41.6472357 66.6014461,41.6618643 L61.1047291,41.6618643 C58.2557597,41.6484059 55.8829954,43.8257369 55.6758727,46.6438037 C51.3056432,47.0844192 47.9781083,50.7281281 47.9674867,55.0839606 L47.9674867,64.9512905 C47.9674867,68.8811361 44.7550199,72.0666751 40.7919548,72.0666751 C36.8288896,72.0666751 33.6164229,68.8811361 33.6164229,64.9512905 L33.6164229,59.6375728 L38.8582198,59.6375728 C39.9445811,59.6504459 40.9914062,59.2326512 41.7656083,58.4772267 C42.5398104,57.7212171 42.9782496,56.6901884 42.9823803,55.6129333 L42.9823803,45.2546654 C42.9977227,42.1984438 44.026845,39.2317498 45.9098321,36.8115828 C46.2090093,36.4177789 46.1334774,35.8589637 45.7398853,35.5570282 C45.3462933,35.2550923 44.7815741,35.3229695 44.4723653,35.7091662 C42.5274185,38.1995508 41.3855885,41.2142269 41.1961685,44.3582206 L24.146609,44.3582206 C23.9743019,41.2446547 22.8625665,38.2539695 20.9553856,35.7747026 C20.7612451,35.5160678 20.4408245,35.3826544 20.1180435,35.4259553 C19.7958528,35.4692561 19.5226396,35.6834199 19.4052111,35.9841852 C19.2877827,36.2849506 19.3450216,36.6255061 19.5539145,36.8730232 C21.4132979,39.2849981 22.4264877,42.2341377 22.4376995,45.2704644 L22.4376995,55.6129333 C22.4241273,56.6819965 22.8460439,57.7118548 23.607264,58.4690346 C24.368484,59.2262146 25.4052776,59.6475202 26.4833777,59.6375728 L31.8036569,59.6375728 L31.8036569,64.9518756 C31.8036569,69.8741301 35.8280918,73.8648311 40.7919548,73.8648311 C45.7558178,73.8648311 49.7802527,69.8741301 49.7802527,64.9518756 L49.7802527,55.0839606 C49.7879238,51.7111747 52.3117519,48.8644357 55.6841339,48.4249905 C55.9384641,51.2073634 58.2876246,53.3396382 61.1047291,53.3460748 L66.6014461,53.3460748 C66.8380735,53.3402233 67.0617188,53.2401631 67.2228142,53.0681301 C67.3833195,52.8955117 67.4671127,52.6667195 67.4547207,52.4326608 L67.4547207,50.7995161 L69.9443235,50.7995161 C70.4453125,50.7995161 70.8507065,50.3975202 70.8507065,49.9007307 C70.8507065,49.4045262 70.4453125,49.0019453 69.9443235,49.0019453 L67.4547207,49.0019453 L67.4547207,45.8561963 L69.9443235,45.8561963 Z M24.2504654,55.6129333 L24.2504654,55.1436457 L35.3212018,55.1436457 C35.8216007,55.1436457 36.2275847,54.7416498 36.2275847,54.2448602 C36.2275847,53.7486558 35.8216007,53.3460748 35.3212018,53.3460748 L24.2504654,53.3460748 L24.2504654,50.6497185 L26.9637135,50.6497185 C27.4647025,50.6497185 27.8700965,50.2477227 27.8700965,49.7509331 C27.8700965,49.2547287 27.4647025,48.8521477 26.9637135,48.8521477 L24.2504654,48.8521477 L24.2504654,46.1557914 L41.1696144,46.1557914 L41.1696144,48.8521477 L30.2906582,48.8521477 C29.7902593,48.8521477 29.3842753,49.2547287 29.3842753,49.7509331 C29.3842753,50.2477227 29.7902593,50.6497185 30.2906582,50.6497185 L41.1696144,50.6497185 L41.1696144,53.3460748 L38.6481466,53.3460748 C38.1477477,53.3460748 37.7417637,53.7486558 37.7417637,54.2448602 C37.7417637,54.7416498 38.1477477,55.1436457 38.6481466,55.1436457 L41.1696144,55.1436457 L41.1696144,55.6129333 C41.1654837,56.213879 40.9188248,56.787908 40.4845163,57.2068731 C40.0496178,57.625253 39.4642454,57.8534603 38.8582198,57.8400019 L26.4833777,57.8400019 C25.8856134,57.8505345 25.3096826,57.6182313 24.888356,57.198096 C24.4670296,56.7779605 24.2368932,56.2056871 24.2504654,55.6129333 L24.2504654,55.6129333 Z M65.6419548,51.548504 L61.1047291,51.548504 C59.101363,51.5391416 57.4827377,49.9253068 57.484508,47.9387336 L57.484508,46.9820186 C57.484508,44.9995414 59.1054937,43.4594351 61.1047291,43.4594351 L65.6419548,43.4594351 L65.6419548,51.548504 Z" id="Shape" fill="#24527a"/>
                        <g id="Group" fill="#43D92D">
                            <path d="M57.7600815,18.5930384 C57.7600815,19.0898279 58.1660655,19.4918238 58.6664645,19.4918238 L64.4287234,19.4918238 C64.9291223,19.4918238 65.3351064,19.0898279 65.3351064,18.5930384 C65.3351064,18.0968339 64.9291223,17.6942529 64.4287234,17.6942529 L58.6664645,17.6942529 C58.1660655,17.6942529 57.7600815,18.0968339 57.7600815,18.5930384 L57.7600815,18.5930384 Z" id="Path"/>
                            <path d="M56.5084939,12.6368295 C56.704405,12.6368295 56.8950049,12.5736336 57.0513796,12.4571894 L62.8136387,8.17625566 C63.2013298,7.87490504 63.2750914,7.32135628 62.9794548,6.93047824 C62.6838182,6.5396002 62.1273604,6.45416885 61.7266871,6.7385501 L55.9644282,11.0188987 C55.652269,11.2512019 55.5248089,11.6549533 55.6481383,12.0218402 C55.7720578,12.3893123 56.1184424,12.6368295 56.5084939,12.6368295 L56.5084939,12.6368295 Z" id="Path"/>
                            <path d="M55.9644282,26.1554751 L61.7266871,30.4364088 C62.1273604,30.7207901 62.6838182,30.6353587 62.9794548,30.2444807 C63.2750914,29.8536026 63.2013298,29.3000537 62.8136387,28.998118 L57.0513796,24.7177694 C56.7929189,24.5164789 56.444764,24.4696672 56.1414561,24.5954738 C55.8387384,24.7212804 55.627485,25.0003953 55.5908993,25.3239816 C55.5543135,25.6481528 55.6971161,25.9658876 55.9644282,26.1554751 L55.9644282,26.1554751 Z" id="Path"/>
                            <path d="M7.58269607,18.5930384 C7.58269607,18.0968339 7.17671203,17.6942529 6.67631309,17.6942529 L0.914054151,17.6942529 C0.41306516,17.6942529 0.00767120255,18.0968339 0.00767120255,18.5930384 C0.00767120255,19.0898279 0.41306516,19.4918238 0.914054151,19.4918238 L6.67631309,19.4918238 C7.17671203,19.4918238 7.58269607,19.0898279 7.58269607,18.5930384 Z" id="Path"/>
                            <path d="M8.29139798,24.7171843 L2.52854883,28.9975329 C2.1284658,29.2953726 2.04703287,29.8588689 2.34739022,30.2561836 C2.64774771,30.6534982 3.21600724,30.7336634 3.61668048,30.4358237 L9.37834936,26.1554751 C9.77843255,25.8576354 9.85986532,25.2947242 9.55950798,24.8974095 C9.25915064,24.500095 8.69089096,24.4199297 8.29080777,24.7177694 L8.29139798,24.7171843 Z" id="Path"/>
                            <path d="M2.52854883,8.17625566 L8.29139798,12.4571894 C8.69148101,12.7550292 9.25974069,12.674864 9.56009803,12.2775494 C9.86045553,11.8802347 9.77902261,11.3173235 9.37893957,11.0194838 L3.61491031,6.73796499 C3.21423707,6.45358359 2.65777926,6.53901509 2.36273271,6.92989313 C2.06709611,7.32077117 2.14085771,7.87431993 2.52795878,8.17567055 L2.52854883,8.17625566 Z" id="Path"/>
                            <path d="M39.9917886,25.5943193 C40.4502909,25.2672223 41.0380236,25.1759394 41.5750083,25.3485577 C42.111993,25.521176 42.5339096,25.9372154 42.7109375,26.4685285 C42.7959109,26.7195566 42.821875,26.9857984 42.7864694,27.2479442 C42.7215593,27.7400525 43.0708944,28.1917858 43.5671626,28.2561519 C44.0634309,28.3211032 44.5189827,27.9746964 44.5844831,27.482588 C44.7815741,25.9834419 44.0020612,24.5240859 42.6401263,23.8447306 C42.6289145,23.838879 42.6177029,23.8341979 42.6070811,23.8295167 C42.4093999,23.260754 42.5197473,22.6311361 42.897997,22.1612632 C43.1057097,21.9114057 43.1617686,21.5702651 43.0449301,21.2677441 C42.9275017,20.9652233 42.6554688,20.748719 42.3326879,20.701322 C42.0093169,20.6533401 41.6853556,20.7814873 41.4841339,21.0366112 C40.926496,21.7259141 40.6485621,22.5977828 40.7063913,23.4801841 C40.0667304,23.5381135 39.4542137,23.7639803 38.9319814,24.1355485 C38.5259973,24.4257813 38.4339428,24.9875222 38.726629,25.3906883 C39.0193152,25.7932692 39.5858045,25.8845521 39.9917886,25.5943193 Z" id="Path"/>
                            <path d="M40.679247,15.5532009 C40.8910904,15.6280997 41.1111951,15.6790075 41.3342504,15.7053391 C41.3472323,16.1734565 41.4729221,16.6316264 41.7018784,17.0412292 C41.9438165,17.4759931 42.4955536,17.6339828 42.9334026,17.3940727 C43.3718418,17.1541624 43.5311668,16.6070502 43.2892287,16.1728714 C43.062633,15.7638537 43.1021693,15.2612126 43.3901347,14.8925703 C43.6775099,14.5239277 44.1584358,14.3595015 44.6139877,14.4741903 C45.097864,14.5959008 45.5900017,14.3062531 45.7145114,13.8264328 C45.8384309,13.3466124 45.5481051,12.858015 45.0648188,12.7333786 C43.8533577,12.4255915 42.5769863,12.8983901 41.8659242,13.9177157 C41.4935754,13.9727195 41.1170961,13.846913 40.8533245,13.5806711 C40.5033993,13.2260723 39.9298288,13.2196356 39.5716423,13.5666276 C39.214046,13.9142049 39.2075549,14.4829675 39.5574801,14.8381516 C39.8719996,15.1576417 40.2555602,15.402233 40.679247,15.5532009 Z" id="Path"/>
                            <path d="M38.6729305,37.8291529 C39.8342337,37.8279827 40.9601313,37.430668 41.8617935,36.7039158 C43.4373421,37.5207805 45.3280004,37.4657768 46.8516206,36.5582142 C48.3758311,35.6506516 49.313489,34.0216031 49.3270612,32.2585558 L49.3270612,30.8980896 C51.5930186,29.9443004 53.3178607,27.6499399 53.3178607,24.9758192 C53.31314,23.1829296 52.5495595,21.4737158 51.2124086,20.2665581 C52.2126163,19.2320186 52.7006233,17.8118674 52.5448387,16.3864499 C52.3890542,14.9616175 51.6060007,13.6778056 50.4051613,12.8796654 C50.2487865,12.778435 50.0871011,12.6865669 49.9206949,12.6034761 C50.4399768,10.4706162 49.820969,8.2230674 48.2808262,6.64726721 C46.7412732,5.07205213 44.4947889,4.38918582 42.3285572,4.83799342 C42.3374086,4.72623035 42.3438997,4.61446743 42.3438997,4.50211926 C42.352751,2.95030989 41.5230802,1.51260434 40.1694065,0.733774113 C38.8157331,-0.0450562632 37.1451795,-0.0450562632 35.7915061,0.733774113 C34.4372424,1.51260434 33.6075714,2.95030989 33.6170129,4.50211926 L33.6170129,32.809179 C33.6170129,35.5786786 35.8794299,37.8250569 38.6729305,37.8291529 Z M35.4291888,4.50211926 C35.4268285,3.4500253 36.0806516,2.50618362 37.072008,2.13110443 C38.0633644,1.75602539 39.1851313,2.0281186 39.8902926,2.81397074 C40.5948636,3.60040798 40.7358959,4.73734818 40.2443484,5.66948693 C40.1027261,5.75725902 39.9622838,5.85146761 39.8265625,5.95094249 C39.5586603,6.13877471 39.4140874,6.45592418 39.4483129,6.7795103 C39.4831284,7.10309657 39.6914312,7.38279665 39.9929688,7.51094383 C40.2950965,7.639091 40.6426613,7.59520496 40.9028923,7.39684017 C42.6702211,6.1065916 45.1073055,6.22128036 46.7436337,7.67185922 C48.3793716,9.12185282 48.7664727,11.5110071 47.6706698,13.39635 C47.4198803,13.8264328 47.5679937,14.3758856 48.001122,14.624573 C48.4342504,14.8732603 48.9889379,14.7263886 49.2397274,14.2968908 C49.2420878,14.2927947 49.2438581,14.2886988 49.2462185,14.2846027 C49.2975566,14.3144453 49.3488946,14.3442876 49.3990525,14.3770558 C50.2051197,14.9042732 50.7114195,15.7796527 50.7633477,16.7357825 C50.8152759,17.6919124 50.4069316,18.6164442 49.6628241,19.2267522 C48.7841755,18.8007654 47.8187832,18.5801651 46.840999,18.5807502 C46.3406001,18.5807502 45.9346161,18.9833311 45.9346161,19.4795356 C45.9346161,19.9763253 46.3406001,20.378321 46.840999,20.378321 C49.402003,20.378321 51.4779504,22.4368674 51.4779504,24.9758192 C51.4779504,27.5153562 49.402003,29.5739024 46.840999,29.5739024 C46.3406001,29.5739024 45.9346161,29.9758983 45.9346161,30.4726878 C45.9481881,30.9741587 46.3630236,31.3732287 46.8687333,31.3714733 C47.0776263,31.3714733 47.2121676,31.3603554 47.5142952,31.3410456 L47.5142952,32.2591409 C47.5024934,34.0420831 46.0414229,35.480959 44.2428191,35.480959 C42.4448055,35.480959 40.983735,34.0420831 40.9713431,32.2591409 C40.9713431,31.7594256 40.5635887,31.3550892 40.0602394,31.3550892 C39.5562998,31.3550892 39.1485456,31.7594256 39.1485456,32.2591409 C39.1473653,33.4657136 39.5863946,34.6324961 40.3853807,35.5435697 C39.3851729,36.1638253 38.124144,36.1960083 37.0932513,35.6272458 C36.0623587,35.058483 35.4250581,33.9788872 35.4291888,32.809179 L35.4291888,4.50211926 Z" id="Shape"/>
                            <path d="M11.7936003,24.9758192 C11.7936003,27.6499399 13.5249335,29.9443004 15.790891,30.8980896 L15.790891,32.2585558 C15.7991523,34.0192623 16.7326795,35.6488962 18.2539396,36.5570439 C19.7751995,37.4651917 21.6634973,37.5207805 23.2366854,36.7039158 C24.7532247,37.9257023 26.8433344,38.1743896 28.6083028,37.3423108 C30.3738613,36.5108173 31.4991689,34.7465998 31.5015293,32.809179 L31.5015293,4.50211926 C31.5015293,2.10886893 29.5447806,0.169107377 27.13189,0.169107377 C24.7184092,0.169107377 22.7616605,2.10886893 22.7616605,4.50211926 C22.7616605,4.61446743 22.7681516,4.72681561 22.777003,4.83799342 C20.6101812,4.38274917 18.3595661,5.06386015 16.818243,6.64141581 C15.2769198,8.21838622 14.6602726,10.470031 15.1866356,12.6034761 C13.9438997,13.2231466 13.0304354,14.3419472 12.6775598,15.6760818 C12.3246843,17.0096312 12.5672124,18.4297824 13.3437749,19.5737443 C13.5060505,19.8212613 13.6913397,20.0529796 13.8966922,20.2665581 C12.5601313,21.474301 11.797141,23.1829296 11.7936003,24.9758192 Z M14.8532331,18.5789949 C13.920886,17.1845901 14.3026763,15.3045136 15.7070977,14.3770558 C15.7566656,14.3442876 15.8080036,14.3144453 15.8593418,14.2846027 C15.8622922,14.2886988 15.8640625,14.2927947 15.8664229,14.2968908 C16.1172124,14.7263886 16.6713098,14.8732603 17.1050283,14.624573 C17.5381565,14.3758856 17.6862699,13.8264328 17.4354804,13.39635 C16.3396775,11.5110071 16.7261885,9.12185282 18.3625167,7.67185922 C19.9982546,6.22128036 22.4359292,6.1065916 24.203258,7.39684017 C24.6057014,7.68941355 25.1716007,7.6039822 25.4678275,7.2060824 C25.7646444,6.80759734 25.6808511,6.24644171 25.2801778,5.95094249 C25.1444565,5.8508825 25.0051945,5.75725902 24.8629821,5.66948693 C24.3737948,4.7355927 24.5171875,3.59923777 25.2235289,2.81397074 C25.9292802,2.0281186 27.0516373,1.75719576 28.0429937,2.13168969 C29.0343501,2.50676872 29.6893534,3.4500253 29.6887633,4.50211926 L29.6887633,32.809179 C29.6893534,33.9794725 29.0496924,35.058483 28.0176197,35.6266605 C26.9855469,36.1954232 25.7233378,36.1632401 24.7219498,35.5435697 C25.5215259,34.6330814 25.9611453,33.4662987 25.9605551,32.2591409 C25.9605551,31.7629364 25.5545711,31.3603554 25.0541721,31.3603554 C24.5537732,31.3603554 24.1477892,31.7629364 24.1477892,32.2591409 C24.1353972,34.0426682 22.6743268,35.4821294 20.875723,35.4821294 C19.0771193,35.4821294 17.6154588,34.0426682 17.6030669,32.2591409 L17.6030669,31.3410456 C17.9051945,31.3603554 18.0344248,31.3708882 18.2427278,31.3708882 C18.7454871,31.3714733 19.1550116,30.9706478 19.1597323,30.4721027 C19.1615027,30.2345332 19.0670878,30.0057408 18.897731,29.8372185 C18.7283743,29.6686963 18.4988281,29.5733173 18.2586603,29.5733173 C15.6982464,29.5721469 13.6234791,27.5130156 13.6246592,24.9734787 C13.6258395,22.4345268 15.7023769,20.3771508 18.2627909,20.378321 C18.76378,20.378321 19.169764,19.9763253 19.169764,19.4801209 C19.1703541,18.9833311 18.7643701,18.5807502 18.2639711,18.5807502 C17.2861869,18.57958 16.3213847,18.8007654 15.442736,19.2261671 C15.2155502,19.0400905 15.0166888,18.8218308 14.8532331,18.5789949 Z" id="Shape"/>
                            <path d="M26.1735788,24.1355485 C25.6519365,23.7639803 25.0394198,23.5375284 24.3991689,23.479599 C24.4569981,22.5971975 24.1796543,21.7253289 23.6214263,21.0360261 C23.4202044,20.7803169 23.0962434,20.6521699 22.7734624,20.7001518 C22.4500914,20.7481338 22.1780585,20.9646382 22.06122,21.2665739 C21.9437916,21.5690947 21.9998503,21.9108204 22.2075631,22.1606781 C22.5864029,22.630551 22.6961603,23.2601689 22.4990691,23.8289316 C22.4878573,23.8341979 22.4766455,23.838879 22.4660239,23.8435602 C21.1040891,24.5229156 20.323986,25.9822717 20.5216672,27.4814176 C20.5865775,27.9735261 21.0421294,28.319933 21.5383976,28.2555668 C22.0346659,28.1906155 22.3845912,27.7388822 22.3190908,27.2467738 C22.2406083,26.6475835 22.4784159,26.0495636 22.9481299,25.6651221 C23.4184343,25.2800956 24.0545545,25.1613107 24.6334358,25.3508983 C24.8051529,25.4070724 24.9674286,25.4889929 25.1137716,25.5937342 C25.376363,25.7915138 25.7262882,25.8330592 26.0278258,25.7014012 C26.3293634,25.5697431 26.5353059,25.2865322 26.5654006,24.9611905 C26.5960855,24.635849 26.4456117,24.3198696 26.1735788,24.1355485 Z" id="Path"/>
                            <path d="M21.3536985,12.3372343 C21.7467004,12.2383445 22.1638963,12.3460116 22.4577626,12.623371 C22.751629,12.9001456 22.8814495,13.3079928 22.8011968,13.7023817 C22.7775931,13.8188259 22.7362865,13.9317592 22.6784574,14.0365005 C22.5197224,14.3179561 22.5250332,14.6620224 22.6926197,14.9382116 C22.8602061,15.214986 23.1646941,15.3811678 23.4898355,15.3735608 C23.8149768,15.3665391 24.1112035,15.186899 24.266398,14.9036881 C24.4953541,14.4940852 24.6210439,14.0359154 24.6334358,13.567798 C25.3085023,13.4899735 25.9363613,13.1839417 26.4107962,12.7011955 C26.7607215,12.3460116 26.7542304,11.7772489 26.3966339,11.4302569 C26.0390376,11.0826797 25.4648769,11.0891163 25.1149518,11.4437152 C24.8511801,11.7105421 24.4747008,11.8357636 24.101762,11.781345 C23.3906998,10.7614341 22.1143285,10.2886355 20.9028674,10.5964227 C20.5865775,10.673662 20.336378,10.9135723 20.2472739,11.2242852 C20.1587599,11.5355832 20.2449136,11.869702 20.4738697,12.0996648 C20.7028258,12.3302126 21.0385887,12.4209103 21.3531083,12.3372343 L21.3536985,12.3372343 Z" id="Path"/>
                        </g>
                    </g>
                </g>
            </g>
        </g>
    </g>
</svg>