<?xml version="1.0" encoding="UTF-8"?>
<svg width="59px" height="61px" viewBox="0 0 59 61" version="1.1" xmlns="http://www.w3.org/2000/svg" xmlns:xlink="http://www.w3.org/1999/xlink">
    <!-- Generator: Sketch 54 (76480) - https://sketchapp.com -->
    <title>Ecommerce</title>
    <desc>Created with Sketch.</desc>
    <g id="Page-1" stroke="none" stroke-width="1" fill="none" fill-rule="evenodd">
        <g id="Blog-Detail" transform="translate(-813.000000, -1717.000000)" fill-rule="nonzero">
            <g id="Group-6" transform="translate(781.000000, 1692.000000)">
                <g id="Ecommerce" transform="translate(32.000000, 25.000000)">
                    <path d="M40.7968562,4.52678571 L35.8209526,0.241071429 C35.8192866,0.239955429 35.8176205,0.238839286 35.8159544,0.237723143 C35.7748588,0.202567 35.7304311,0.171317 35.683782,0.143415143 C35.6776732,0.139508857 35.6715643,0.135602714 35.6654556,0.132254429 C35.6204725,0.106584857 35.5732681,0.0842634286 35.5249529,0.0658482857 C35.5171781,0.063058 35.5099587,0.0602678571 35.5021837,0.0574777143 C35.4538686,0.0401785714 35.4044428,0.0273437143 35.3539062,0.0178571429 C35.3461314,0.016183 35.3383565,0.015625 35.331137,0.0145088571 C35.2794899,0.00558035714 35.2267319,0.000558035714 35.1745293,0 L35.1723081,0 C35.1201054,0.000558035714 35.0679028,0.00558035714 35.0162556,0.0145088571 C35.0084808,0.015625 35.0007059,0.016183 34.9929311,0.0178571429 C34.9429499,0.0273437143 34.8935241,0.0401785714 34.8452089,0.0574777143 C34.8374341,0.0602678571 34.8296592,0.063058 34.8218844,0.0658482857 C34.7735693,0.0842634286 34.7263649,0.106584857 34.6813817,0.132254429 C34.675273,0.135602714 34.6691642,0.139508857 34.6630553,0.143415143 C34.6164062,0.171317 34.572534,0.202567 34.5308829,0.237723143 C34.5297722,0.238839286 34.5275508,0.239955429 34.5258847,0.241071429 L29.5499811,4.52678571 C29.1329161,4.88671871 29.0846009,5.51785714 29.442244,5.936942 C29.799887,6.35658486 30.4285392,6.405134 30.8456043,6.04520086 L34.178238,3.17466514 L34.178238,15.000558 C34.178238,15.5524554 34.6236257,16.000558 35.1734187,16.000558 C35.7226562,16.000558 36.1685994,15.5524554 36.1685994,15.000558 L36.1685994,3.17466514 L39.501233,6.046317 C39.9188535,6.405692 40.5469503,6.35714286 40.9045934,5.938058 C41.2622364,5.51841514 41.2139213,4.88727686 40.7968562,4.52790171 L40.7968562,4.52678571 Z" id="Path" fill="#43D92D"></path>
                    <path d="M40.7890813,57.2170759 C41.3383189,57.2170759 41.784262,56.7689731 41.784262,56.2170759 C41.784262,55.6646206 41.3383189,55.2170759 40.7890813,55.2170759 L30.7661898,55.2170759 C30.2163968,55.2170759 29.771009,55.6646206 29.771009,56.2170759 C29.771009,56.7689731 30.2163968,57.2170759 30.7661898,57.2170759 L40.7890813,57.2170759 Z" id="Path" fill="#24527a"></path>
                    <path d="M57.9204066,19.0976563 L13.5637801,19.0976563 L13.0978445,15.5870536 C13.0967338,15.5792411 13.0956231,15.5708706 13.0945125,15.563058 C12.640239,12.6054687 10.1011954,10.4263393 7.12342812,10.438058 L1.05293675,10.438058 C0.503143754,10.438058 0.0577560241,10.8861607 0.0577560241,11.438058 C0.0577560241,11.9905134 0.503143754,12.438058 1.05293675,12.438058 L7.12342812,12.438058 C9.11656627,12.4302456 10.817037,13.8856027 11.1263649,15.8643973 L15.9306665,52.0680803 C15.9317771,52.0758929 15.9328877,52.0842634 15.9345538,52.0920759 C16.3882719,55.0496651 18.9273154,57.2287946 21.9056381,57.2170759 L23.5155873,57.2170759 C24.0648249,57.2170759 24.5107681,56.7689731 24.5107681,56.2170759 C24.5107681,55.6646206 24.0648249,55.2170759 23.5155873,55.2170759 L21.9045275,55.2170759 C19.9119447,55.2248884 18.211474,53.7695313 17.9015908,51.7912946 L16.4538027,40.8794643 L47.5043298,40.8794643 C50.0800263,40.8783483 52.3724962,39.2388393 53.2166227,36.7940849 L58.860608,20.4257813 C58.9666792,20.1199777 58.918364,19.78125 58.7317677,19.5178571 C58.544616,19.2539063 58.2425075,19.0970983 57.9204066,19.0976563 L57.9204066,19.0976563 Z M51.3362199,36.1383929 C50.7697666,37.7784599 49.2320125,38.8783483 47.5043298,38.8789063 L16.1883472,38.8789063 L13.828125,21.0976563 L56.521489,21.0976563 L51.3362199,36.1383929 Z" id="Shape" fill="#24527a"></path>
                    <path d="M27.1692113,60.9726563 C24.6873683,60.9732143 22.674793,58.9508929 22.674793,56.4570313 C22.674793,53.9631697 24.6868128,51.9414063 27.1692113,51.9414063 C29.6510542,51.9408483 31.6630742,53.9631697 31.6630742,56.4570313 C31.6602974,58.9497769 29.6499436,60.969866 27.1692113,60.9726563 Z M27.1692113,53.9414063 C25.7863987,53.9408483 24.6651544,55.0675223 24.6651544,56.4570313 C24.6651544,57.8465401 25.7863987,58.9726563 27.1692113,58.9726563 C28.5520237,58.9726563 29.6727128,57.8465401 29.6727128,56.4570313 C29.6710467,55.0680803 28.5514684,53.9425223 27.1692113,53.9414063 Z" id="Shape" fill="#24527a"></path>
                    <path d="M44.339966,60.9726563 C41.8581231,60.9726563 39.8461032,58.9508929 39.8461032,56.4570313 C39.8461032,53.9631697 41.8581231,51.9414063 44.339966,51.9414063 C46.8218091,51.9414063 48.8338291,53.9631697 48.8338291,56.4570313 C48.8310523,58.9497769 46.8206984,60.969866 44.339966,60.9726563 Z M44.339966,53.9414063 C42.9571536,53.9414063 41.8364647,55.0675223 41.8364647,56.4570313 C41.8364647,57.8465401 42.9571536,58.9726563 44.339966,58.9726563 C45.7227786,58.9726563 46.8434677,57.8465401 46.8434677,56.4570313 C46.8423569,55.0680803 45.7222233,53.9425223 44.339966,53.9414063 Z" id="Shape" fill="#24527a"></path>
                    <path d="M51.7693901,34.593192 L20.452852,34.593192 L18.6618599,21.0976563 L13.828125,21.0976563 L16.1877918,38.8789063 L47.5043298,38.8789063 C49.2320125,38.8783483 50.7697666,37.7784599 51.3362199,36.1383929 L51.8699077,34.5892857 C51.8365869,34.5898437 51.8032662,34.593192 51.7693901,34.593192 L51.7693901,34.593192 Z" id="Path" fill="#D4E1F4"></path>
                </g>
            </g>
        </g>
    </g>
</svg>