<?xml version="1.0" encoding="UTF-8"?>
<svg width="68px" height="74px" viewBox="0 0 68 74" version="1.1" xmlns="http://www.w3.org/2000/svg" xmlns:xlink="http://www.w3.org/1999/xlink">
    <!-- Generator: Sketch 54 (76480) - https://sketchapp.com -->
    <title>Hour based hiring</title>
    <desc>Created with Sketch.</desc>
    <g id="Page-1" stroke="none" stroke-width="1" fill="none" fill-rule="evenodd">
        <g id="Cloud-Services" transform="translate(-820.000000, -4803.000000)" fill-rule="nonzero">
            <g id="Group-4" transform="translate(780.000000, 4762.000000)">
                <g id="Hour-based-hiring" transform="translate(40.000000, 41.000000)">
                    <path d="M8.14190687,29.674 C8.14190687,15.368332 19.843184,3.7308583 34.2261641,3.7308583 C35.3131982,3.7308531 36.399178,3.7980925 37.4778004,3.93218623 C34.5142994,2.80620874 31.3679399,2.23023056 28.195122,2.23288259 C13.8121419,2.23288259 2.11086475,13.8709555 2.11086475,28.1760243 C2.11086475,41.3860729 12.0895255,52.320996 24.9434856,53.9178381 C15.1305277,50.1886275 8.14190687,40.7284615 8.14190687,29.674 Z" id="Path" fill="#D4E1F4"></path>
                    <path d="M28.195122,0.135716599 C12.6483016,0.135716599 0,12.7145182 0,28.1760243 C0,43.6375304 12.6483016,56.216332 28.195122,56.216332 C32.6813492,56.2151267 37.1027921,55.1525113 41.093561,53.1164211 L40.1258803,51.2526397 C36.4393503,53.148785 32.3463654,54.1321801 28.195122,54.119166 C13.8121419,54.119166 2.11086475,42.4810931 2.11086475,28.1760243 C2.11086475,13.8709555 13.8121419,2.23288259 28.195122,2.23288259 C42.578102,2.23288259 54.2793792,13.8712551 54.2793792,28.1760243 C54.2793792,28.7302753 54.2615876,29.290668 54.2266075,29.8414737 L56.3332506,29.9737449 C56.3710953,29.3791984 56.3902439,28.7744656 56.3902439,28.1761741 C56.3902439,12.7145182 43.7419424,0.135716599 28.195122,0.135716599 Z" id="Path" fill="#24527a"></path>
                    <path d="M43.2377472,26.4148543 L27.7174634,27.8241498 L20.5940488,20.7378259 C20.1821472,20.3280597 19.5138841,20.3276238 19.1014413,20.7368523 C18.6889985,21.1460807 18.6885597,21.8100071 19.1004612,22.2197733 L26.5736763,29.6540769 C26.7715989,29.851013 27.0402024,29.9617018 27.3203193,29.9617611 C27.3522838,29.9617611 27.3843489,29.9602632 27.4165144,29.9572672 L43.4298359,28.5031822 C43.808564,28.4731153 44.1417992,28.2431315 44.3023435,27.901017 C44.4628878,27.5589026 44.4259623,27.1574605 44.2056617,26.8499237 C43.9853612,26.5423869 43.6156874,26.3762217 43.2377472,26.4148543 L43.2377472,26.4148543 Z" id="Path" fill="#24527a"></path>
                    <path d="M67.6292417,68.4675263 C67.0211733,66.3206472 65.3636888,64.6236103 63.2220576,63.9551741 L56.0418004,61.6424494 L56.0418004,58.7011741 C58.6647469,57.0858716 60.4890667,54.4552087 61.0739512,51.44483 L61.4575255,50.1341012 C63.2363083,49.4672149 64.2341867,47.5861218 63.7824922,45.7513239 C63.5570104,44.8092211 62.8926479,44.0305268 61.9941375,43.6552065 L61.9941375,43.6262955 C63.873728,43.4052169 65.2904438,41.8233552 65.2929667,39.9429231 C65.2929667,39.3638067 64.8204336,38.8943401 64.2375344,38.8943401 C62.9910555,38.8857261 61.9086777,38.0395462 61.6070953,36.837919 C60.1783415,31.3196761 55.3853215,27.3145385 50.2103858,27.3145385 C43.6976619,27.321803 38.4198564,32.5652905 38.4124612,39.035749 L38.4124612,43.66 C37.518641,44.0366617 36.8582164,44.8129627 36.6333038,45.7513239 C36.1816093,47.5861218 37.1794877,49.4672149 38.9582705,50.1341012 L39.3418448,51.44483 C39.9267293,54.4552087 41.7510491,57.0858716 44.3739956,58.7011741 L44.3739956,61.6424494 L37.1935876,63.9551741 C35.0519359,64.6238403 33.3944876,66.3210091 32.7864035,68.4679757 C32.7637871,68.5505142 32.7425277,68.6338016 32.7227761,68.7170891 C32.6154044,69.1882828 32.5633411,69.6702489 32.5676275,70.1533482 L32.5676275,72.8157004 C32.5676275,73.3948168 33.0401607,73.8642834 33.6230599,73.8642834 L66.7937916,73.8642834 C67.3766908,73.8642834 67.8492239,73.3948168 67.8492239,72.8157004 L67.8492239,70.1533482 C67.8531728,69.6702572 67.8007551,69.1883392 67.69302,68.7172389 C67.6733186,68.6339514 67.6520591,68.5507139 67.6292417,68.4675263 Z M40.5236275,39.035749 C40.5296933,33.7229757 44.8632108,29.4176482 50.2106874,29.4117045 C54.4372417,29.4117045 58.3705366,32.754587 59.5630244,37.360413 C59.9886433,39.0219007 61.2689221,40.3346907 62.9269889,40.8098016 C62.6290358,41.2738898 62.1133542,41.5548805 61.5592993,41.5550445 L55.0376319,41.5550445 C51.8604265,41.549967 48.7748661,40.4968063 46.2653304,38.5608907 C46.023572,38.3737931 45.7118993,38.3003292 45.4113108,38.3595909 C45.1107224,38.4188526 44.8509011,38.604988 44.6993703,38.8696235 L43.3423858,41.2388219 C42.7343198,42.2976286 41.7147484,43.0614073 40.5228736,43.3509676 L40.5236275,39.035749 Z M41.4074767,51.0060729 C41.4011441,50.9725182 41.3933038,50.9397126 41.3838049,50.9070567 L40.85051,49.0852186 C40.7678556,48.6575855 40.4277836,48.3252054 39.9960621,48.2500972 C39.2093805,48.1136119 38.6358656,47.4342239 38.6375698,46.6408219 C38.6374803,46.5091981 38.6532737,46.3780382 38.684612,46.2501498 C38.7594905,45.9264281 38.999902,45.6655114 39.3178714,45.5628785 C39.3677797,45.5704076 39.4181683,45.5743625 39.4686475,45.5747126 C41.8296425,45.5721605 44.0083517,44.3132721 45.1780843,42.2757206 L45.9539778,40.920502 C48.6467136,42.6967272 51.8058834,43.6467305 55.0380843,43.6522105 L59.8837251,43.6522105 L59.8837251,44.4626154 C59.8836787,45.0044465 60.2991438,45.4570832 60.8422084,45.5068543 C61.2707917,45.5342764 61.6316075,45.835453 61.7326918,46.2501498 C61.7640301,46.3780382 61.7798235,46.5091981 61.7797339,46.6408219 C61.7814381,47.4342239 61.2079233,48.1136119 60.4212417,48.2500972 C59.9895202,48.3252054 59.6494481,48.6575855 59.5667938,49.0852186 L59.0334989,50.9070567 C59.024,50.9397126 59.0161596,50.9725182 59.0098271,51.0060729 C58.2137771,55.2120213 54.5164941,58.2589647 50.208878,58.2589647 C45.901262,58.2589647 42.203979,55.2120213 41.407929,51.0060729 L41.4074767,51.0060729 Z M50.2084257,60.3562874 C51.4771869,60.3566408 52.7364964,60.1394946 53.9309357,59.7144049 L53.9309357,61.7628866 C51.563088,62.8189615 48.8537635,62.8189615 46.4859157,61.7628866 L46.4859157,59.7144049 C47.6803551,60.1394946 48.9396646,60.3566408 50.2084257,60.3562874 L50.2084257,60.3562874 Z M65.7386206,71.7671174 L34.6782255,71.7671174 L34.6784922,70.1533482 C34.6748386,69.8307314 34.7087369,69.5087764 34.7795122,69.1938947 C34.7929313,69.1363725 34.8075565,69.0791498 34.8230865,69.0228259 C35.2440839,67.5574608 36.3807746,66.4020081 37.845694,65.9503279 L45.3288603,63.5397854 C48.4109684,65.0214963 52.005883,65.0214963 55.0879911,63.5397854 L62.5710067,65.9503279 C64.0358608,66.40185 65.1725587,67.557141 65.5936142,69.0223765 C65.6092949,69.0790999 65.6238699,69.1363225 65.6373392,69.1940445 C65.7080767,69.5086788 65.7419749,69.8303814 65.7383592,70.152749 L65.7386206,71.7671174 Z" id="Shape" fill="#43D92D"></path>
                </g>
            </g>
        </g>
    </g>
</svg>