<?xml version="1.0" encoding="UTF-8"?>
<svg width="47px" height="39px" viewBox="0 0 47 39" version="1.1" xmlns="http://www.w3.org/2000/svg" xmlns:xlink="http://www.w3.org/1999/xlink">
    <!-- Generator: Sketch 54 (76480) - https://sketchapp.com -->
    <title>Insight</title>
    <desc>Created with Sketch.</desc>
    <g id="Page-1" stroke="none" stroke-width="1" fill="none" fill-rule="evenodd">
        <g id="About-Us" transform="translate(-410.000000, -1478.000000)" fill="#FFFFFF" fill-rule="nonzero">
            <g id="Group-14" transform="translate(391.000000, 1456.000000)">
                <g id="Group-4" transform="translate(0.500000, 0.000000)">
                    <g id="Insight" transform="translate(19.000000, 22.000000)">
                        <path d="M35.444768,4.67342319 L35.444768,16.7825838 C35.2206283,16.76865 34.9942972,16.7618378 34.7657747,16.7618378 C34.5225392,16.7618378 34.2824341,16.7698885 34.0429551,16.7856802 L34.0429551,9.46079455 L1.40181298,9.46079455 L1.40181298,26.3238853 C1.40400423,28.1284775 2.88220004,29.5902963 4.70599682,29.5921541 L23.6899499,29.5921541 C23.7478631,29.9596989 23.8248721,30.3238377 23.9200376,30.6836414 C23.9463333,30.7827268 23.9745073,30.8818122 24.0033074,30.97873 L4.70599682,30.97873 C2.1080412,30.9762529 0.00313044425,28.8936023 2.84217094e-14,26.3238853 L2.84217094e-14,4.67342319 C0.00281739582,2.10370613 2.1080412,0.0213652622 4.70599682,0.0185785061 L30.7387712,0.0185785061 C33.3367269,0.0216749634 35.4416376,2.10370613 35.444768,4.67342319 L35.444768,4.67342319 Z M34.0429551,8.07421875 L34.0429551,4.67342319 C34.0407638,2.86945029 32.5625681,1.40732182 30.7387712,1.4051543 L4.70599682,1.4051543 C2.88188702,1.4070122 1.4036912,2.86914059 1.40181298,4.67342319 L1.40181298,8.07421875 L34.0429551,8.07421875 Z" id="Shape"></path>
                        <g id="Group" transform="translate(2.404181, 2.774390)">
                            <path d="M33.0405869,14.0081936 C32.8164471,13.9942597 32.590116,13.9874476 32.3615935,13.9874476 C32.118358,13.9874476 31.8782529,13.9954983 31.638774,14.01129 C28.2963986,14.2305164 25.2273111,15.9140387 23.2689052,18.6026582 C21.3104993,21.290968 20.6678191,24.7035299 21.5158564,27.9092512 C21.5421521,28.0083365 21.5703261,28.1074219 21.5991262,28.2043398 C23.2022267,33.6094465 28.6460693,36.9678211 34.2586427,36.0144341 C39.8712163,35.0613567 43.8703588,30.0990378 43.5588795,24.4747046 C43.2477134,18.8506812 38.7248476,14.3500381 33.0405869,14.0081936 L33.0405869,14.0081936 Z M32.3615935,34.7854659 C27.9063453,34.7860852 24.0092552,31.8178592 22.8719649,27.5568788 C22.8559996,27.4952601 22.8397213,27.4342607 22.8246951,27.3714034 C22.1178409,24.4818264 22.7877558,21.4315454 24.6428571,19.0922018 C26.4982715,16.7531679 29.3338278,15.3833127 32.3396804,15.3740235 L32.3615935,15.3740235 C37.7810186,15.3740235 42.173971,19.719536 42.173971,25.0797447 C42.173971,30.440263 37.7810186,34.7854659 32.3615935,34.7854659 L32.3615935,34.7854659 Z" id="Shape"></path>
                            <path d="M35.3884201,25.5373952 L33.0625,27.678568 L33.0625,20.8896723 C33.0625,20.5066454 32.7488295,20.1963843 32.3615935,20.1963843 C31.9746706,20.1963843 31.660687,20.5066454 31.660687,20.8896723 L31.660687,27.678568 L29.334767,25.5373952 C29.0514618,25.2766768 28.6081909,25.2921589 28.3439814,25.5726944 C28.080398,25.8529201 28.0963632,26.2916826 28.3796684,26.5524009 L32.3615935,30.2179402 L36.3435186,26.5524009 C36.6271369,26.2916826 36.6431022,25.8529201 36.3792057,25.5726944 C36.1156223,25.2921589 35.6720383,25.2766768 35.3884201,25.5373952 L35.3884201,25.5373952 Z" id="Path"></path>
                            <path d="M13.2918663,3.95288685 L13.2978142,3.95288685 C14.3762522,3.95164821 15.2518374,3.08898628 15.2559071,2.02165109 L15.2559071,2.01514863 C15.2552809,0.947503811 14.3825131,0.0817454268 13.3034489,0.0777201037 L13.2978142,0.0777201037 C12.2159326,0.0761719146 11.3375299,0.942239921 11.3359647,2.01236187 C11.3337734,3.08248382 12.2096717,3.95133859 13.2918663,3.95288685 Z M12.9043173,1.62469038 C13.008248,1.52126999 13.1503702,1.46367666 13.2978142,1.46398628 L13.2984402,1.46398628 C13.564528,1.46491523 13.7927374,1.65131953 13.8440767,1.9095608 C13.8947898,2.16749238 13.754859,2.42511433 13.5088061,2.52481894 C13.2633792,2.62514295 12.980074,2.53937212 12.8329431,2.32014575 C12.6861253,2.101229 12.7155515,1.80985612 12.9043173,1.62469038 Z" id="Shape"></path>
                            <path d="M7.65268406,0.0597608415 L7.64548401,0.0597608415 C6.85442073,0.0600704634 6.14099247,0.531035652 5.83702639,1.2537395 C5.53368628,1.97644343 5.69897374,2.8087605 6.25681894,3.36363855 C6.62151568,3.72963508 7.1198824,3.93554691 7.63922313,3.93492759 L7.64642309,3.93492759 C8.72830462,3.9370951 9.60670732,3.0707174 9.60858562,2.00028582 C9.61015083,0.930163872 8.73456559,0.0613091098 7.65268406,0.0597608415 Z M7.64548401,2.54866141 L7.64454486,2.54866141 C7.33650915,2.54866141 7.08763881,2.30125762 7.08795183,1.99687974 C7.08826494,1.69281157 7.33776132,1.4460271 7.64548401,1.44633672 L7.64767534,1.44633672 C7.95539795,1.44695596 8.20426829,1.69405013 8.20364224,1.99842801 C8.20332914,2.30280581 7.95351973,2.54928066 7.64548401,2.54866141 Z" id="Shape"></path>
                            <path d="M3.95375113,1.98604234 C3.95594238,0.916230012 3.08160932,0.0470655488 2.00035392,0.0430402256 L1.99440605,0.0430402256 C0.912524519,0.0411823354 0.0341218223,0.907560043 0.0325566202,1.97799162 C0.0309914181,3.04811357 0.906576655,3.91696833 1.98845819,3.9185166 L1.99440605,3.9185166 C3.07347013,3.91696833 3.94874242,3.05337746 3.95375113,1.98604234 Z M1.99440605,2.53194072 L1.99252775,2.53194072 C1.68449203,2.53101185 1.43530867,2.28391768 1.43624782,1.97984943 C1.43656085,1.67547163 1.68668336,1.42899678 1.99440605,1.42961602 L1.99628428,1.42961602 C2.30400697,1.42992565 2.55319033,1.67732944 2.5525642,1.98170732 C2.55193815,2.2860852 2.30212866,2.53225034 1.99440605,2.53194072 Z" id="Shape"></path>
                        </g>
                    </g>
                </g>
            </g>
        </g>
    </g>
</svg>