<svg width="338" height="391" viewBox="0 0 338 391" fill="none" xmlns="http://www.w3.org/2000/svg">
<g id="Group 1">
<path id="Vector 5" d="M127.5 245L169 269L211 245" stroke="#453A43" stroke-width="4"/>
<path id="Vector 3" d="M197.5 142L202 143.5L233.5 161.5V193.5M233.5 193.5L219.5 185.5L191 203M233.5 193.5L247.5 203M191 203V234L219.5 249M191 203L219.5 218M219.5 249L247.5 234V203M219.5 249V218M247.5 203L219.5 218" stroke="#453A43" stroke-width="4"/>
<path id="Vector 4" d="M139.5 141L135 142.5L103.5 160.5V193.5M103.5 193.5L117.5 185.5L146 202M103.5 193.5L89.5 202M146 202V234.5L117.5 250.5M146 202L117.5 218M117.5 250.5L89.5 234.5V202M117.5 250.5V218M89.5 202L117.5 218" stroke="#453A43" stroke-width="4"/>
<path id="Vector 1" d="M329.5 102.5L169 10L8 102.5V288L169 381.5L329.5 288V102.5Z" stroke="#453A43" stroke-width="16"/>
<path id="Vector 2" d="M139.5 127.5L168.5 142.5M139.5 127.5L168.5 110L197.5 126.132M139.5 127.5V158.38L168.5 174.5M168.5 142.5L197.5 126.132M168.5 142.5V174.5M197.5 126.132V158.38L168.5 174.5" stroke="#453A43" stroke-width="4"/>
</g>
</svg>