<?xml version="1.0" encoding="UTF-8"?>
<svg width="72px" height="70px" viewBox="0 0 72 70" version="1.1" xmlns="http://www.w3.org/2000/svg" xmlns:xlink="http://www.w3.org/1999/xlink">
    <!-- Generator: Sketch 54 (76480) - https://sketchapp.com -->
    <title>Mortgage</title>
    <desc>Created with Sketch.</desc>
    <g id="Page-1" stroke="none" stroke-width="1" fill="none" fill-rule="evenodd">
        <g id="Blog-Detail" transform="translate(-420.000000, -2063.000000)" fill-rule="nonzero">
            <g id="Group-6" transform="translate(391.000000, 2043.000000)">
                <g id="Mortgage" transform="translate(29.000000, 20.000000)">
                    <polygon id="Path" fill="#D4E1F4" points="1.79253112 11.1326456 4.28351915 11.1326456 4.28351915 58.7534222 1.79253112 58.7534222"></polygon>
                    <polygon id="Path" fill="#D4E1F4" points="29.0265171 17.6378873 31.5175053 17.6378873 31.5175053 58.7534222 29.0265171 58.7534222"></polygon>
                    <g id="Group" fill="#24527a">
                        <path d="M28.322225,60.5477097 L38.4034622,60.5477097 L38.4034622,58.7528379 L29.2184906,58.7528379 L29.2184906,17.8131677 L43.7437111,17.8131677 L43.7437111,36.9736578 L45.5362423,36.9736578 L45.5362423,16.9157318 C45.5362423,16.4202724 45.13479,16.0182959 44.6399767,16.0182959 L42.4810037,16.0182959 L42.4810037,11.46042 C42.4810037,10.9649606 42.0795514,10.5629841 41.5847381,10.5629841 L38.1327153,10.5629841 L38.1327153,8.50168607 C38.1327153,8.00622667 37.731263,7.60425017 37.2364497,7.60425017 C36.7416364,7.60425017 36.3401842,8.00622667 36.3401842,8.50168607 L36.3401842,10.5629841 L32.8064705,10.5629841 C32.3116572,10.5629841 31.9102049,10.9649606 31.9102049,11.46042 L31.9102049,16.0182959 L29.2184906,16.0182959 L29.2184906,10.2352097 C29.2184906,9.73975034 28.8170383,9.33777385 28.322225,9.33777385 L24.4185685,9.33777385 L24.4185685,4.70628009 C24.4185685,4.21023645 24.0171162,3.80884419 23.5223029,3.80884419 L15.3450466,3.80884419 L15.3450466,0.897435897 C15.3450466,0.401976496 14.9441779,0 14.448781,0 C13.9539678,0 13.5525155,0.401976496 13.5525155,0.897435897 L13.5525155,3.80884419 L5.69560422,3.80884419 C5.20020747,3.80884419 4.79933866,4.21023645 4.79933866,4.70628009 L4.79933866,9.33777385 L0.89626556,9.33777385 C0.401452282,9.33777385 -2.84217094e-14,9.73975034 -2.84217094e-14,10.2352097 L-2.84217094e-14,59.6502738 C-2.84217094e-14,60.1463175 0.401452282,60.5477097 0.89626556,60.5477097 L28.322225,60.5477097 Z M33.7033195,12.3578559 L40.689056,12.3578559 L40.689056,16.0182959 L33.702736,16.0182959 L33.7033195,12.3578559 Z M6.59186978,5.60371598 L22.6260373,5.60371598 L22.6260373,9.33777385 L6.59186978,9.33777385 L6.59186978,5.60371598 Z M19.1979382,58.7528379 L15.3450466,58.7528379 L15.3450466,49.6125467 L19.1979382,49.6125467 L19.1979382,58.7528379 Z M13.5525155,58.7528379 L10.0199689,58.7528379 L10.0199689,49.6125467 L13.5525155,49.6125467 L13.5525155,58.7528379 Z M27.425376,58.7528379 L20.9904694,58.7528379 L20.9904694,48.7151108 C20.9904694,48.2196514 20.5890171,47.8176749 20.0942038,47.8176749 L9.12370332,47.8176749 C8.62889004,47.8176749 8.22743776,48.2196514 8.22743776,48.7151108 L8.22743776,58.7528379 L1.79253112,58.7528379 L1.79253112,11.1326456 L27.4259595,11.1326456 L27.425376,58.7528379 Z" id="Shape"></path>
                        <path d="M22.7608273,23.4992655 L6.46291494,23.4992655 C5.96810166,23.4992655 5.56664938,23.9006578 5.56664938,24.3967014 C5.56664938,24.8921608 5.96810166,25.2941373 6.46291494,25.2941373 L22.7602439,25.2941373 C23.2550571,25.2941373 23.6565094,24.8921608 23.6565094,24.3967014 C23.6565094,23.9006578 23.2550571,23.4992655 22.7602439,23.4992655 L22.7608273,23.4992655 Z" id="Path"></path>
                        <path d="M22.7608273,31.0059428 L6.46291494,31.0059428 C5.96810166,31.0059428 5.56664938,31.4073351 5.56664938,31.9033787 C5.56664938,32.3988381 5.96810166,32.8008146 6.46291494,32.8008146 L22.7602439,32.8008146 C23.2550571,32.8008146 23.6565094,32.3988381 23.6565094,31.9033787 C23.6565094,31.4073351 23.2550571,31.0059428 22.7602439,31.0059428 L22.7608273,31.0059428 Z" id="Path"></path>
                        <path d="M22.7608273,38.5126202 L6.46291494,38.5126202 C5.96810166,38.5126202 5.56664938,38.9140125 5.56664938,39.4100561 C5.56664938,39.9055155 5.96810166,40.307492 6.46291494,40.307492 L22.7602439,40.307492 C23.2550571,40.307492 23.6565094,39.9055155 23.6565094,39.4100561 C23.6565094,38.9140125 23.2550571,38.5126202 22.7602439,38.5126202 L22.7608273,38.5126202 Z" id="Path"></path>
                        <path d="M22.7608273,15.9925881 L6.46291494,15.9925881 C5.96810166,15.9925881 5.56664938,16.3939804 5.56664938,16.890024 C5.56664938,17.3854834 5.96810166,17.7874599 6.46291494,17.7874599 L22.7602439,17.7874599 C23.2550571,17.7874599 23.6565094,17.3854834 23.6565094,16.890024 C23.6565094,16.3939804 23.2550571,15.9925881 22.7602439,15.9925881 L22.7608273,15.9925881 Z" id="Path"></path>
                        <path d="M41.0607494,39.246461 C41.0607494,38.7510016 40.6598806,38.3490251 40.1644839,38.3490251 L32.8654046,38.3490251 C32.3700078,38.3490251 31.969139,38.7510016 31.969139,39.246461 C31.969139,39.7419204 32.3700078,40.1438969 32.8654046,40.1438969 L40.1644839,40.1438969 C40.6598806,40.1438969 41.0607494,39.7419204 41.0607494,39.246461 Z" id="Path"></path>
                        <path d="M37.9990922,45.4478832 C37.9990922,44.9518396 37.59764,44.5504473 37.1028267,44.5504473 L32.8654046,44.5504473 C32.3700078,44.5504473 31.969139,44.9518396 31.969139,45.4478832 C31.969139,45.9433426 32.3700078,46.3453191 32.8654046,46.3453191 L37.1028267,46.3453191 C37.59764,46.3453191 37.9990922,45.9433426 37.9990922,45.4478832 Z" id="Path"></path>
                        <path d="M32.8654046,51.2409021 C32.3700078,51.2409021 31.969139,51.6428786 31.969139,52.138338 C31.969139,52.6343818 32.3700078,53.0357739 32.8654046,53.0357739 L35.9358142,53.0357739 C36.4312111,53.0357739 36.8320798,52.6343818 36.8320798,52.138338 C36.8320798,51.6428786 36.4312111,51.2409021 35.9358142,51.2409021 L32.8654046,51.2409021 Z" id="Path"></path>
                        <path d="M32.8654046,33.4534421 L39.8733144,33.4534421 C40.3681277,33.4534421 40.76958,33.0514656 40.76958,32.5560062 C40.76958,32.0605468 40.3681277,31.6585703 39.8733144,31.6585703 L32.8654046,31.6585703 C32.3700078,31.6585703 31.969139,32.0605468 31.969139,32.5560062 C31.969139,33.0514656 32.3700078,33.4534421 32.8654046,33.4534421 Z" id="Path"></path>
                        <path d="M32.8654046,26.9259982 L39.8733144,26.9259982 C40.3681277,26.9259982 40.76958,26.5240217 40.76958,26.0285623 C40.76958,25.5325187 40.3681277,25.1311264 39.8733144,25.1311264 L32.8654046,25.1311264 C32.3700078,25.1311264 31.969139,25.5325187 31.969139,26.0285623 C31.969139,26.5240217 32.3700078,26.9259982 32.8654046,26.9259982 Z" id="Path"></path>
                    </g>
                    <path d="M53.6067169,33.1560497 C43.4478734,33.1560497 35.2128501,41.4018262 35.2128501,51.5733508 C35.2128501,61.7454594 43.4478734,69.9912359 53.6061333,69.9912359 C63.7643932,69.9912359 72,61.7454594 72,51.573935 C71.9889133,41.4070847 63.7603086,33.167735 53.6067169,33.1560497 Z M53.6067169,68.1963641 C44.4380835,68.1963641 37.0053813,60.7539564 37.0053813,51.5733508 C37.0053813,42.392745 44.4380835,34.9509215 53.6067169,34.9509215 C62.7753501,34.9509215 70.2074689,42.3933294 70.2074689,51.573935 C70.1969658,60.7498665 62.7706821,68.1864316 53.6067169,68.1969484 L53.6067169,68.1963641 Z" id="Shape" fill="#43D92D"></path>
                    <path d="M53.6067169,43.4420906 C55.7715249,43.4450121 57.5261281,45.2019063 57.5284622,47.3695413 C57.5284622,47.8655849 57.9299145,48.2669772 58.4247277,48.2669772 C58.9201245,48.2669772 59.3209933,47.8655849 59.3209933,47.3695413 C59.3174922,44.5574587 57.2763875,42.1631277 54.5029824,41.7184996 L54.5029824,39.8938301 C54.5029824,39.3977865 54.1015302,38.9963942 53.6067169,38.9963942 C53.11132,38.9963942 52.7104513,39.3977865 52.7104513,39.8938301 L52.7104513,41.7184996 C49.7654954,42.1864984 47.6747925,44.8431658 47.909362,47.8200121 C48.1439315,50.796274 50.6244165,53.0918636 53.6067169,53.0918636 C55.7627723,53.0930322 57.5132909,54.8364884 57.5261281,56.9953593 C57.5389652,59.1542301 55.8088693,60.9187199 53.6528138,60.9450121 C53.6376427,60.9444277 53.6230549,60.9426749 53.6067169,60.9426749 C53.5903786,60.9426749 53.5757909,60.9444277 53.5606199,60.9450121 C51.4139004,60.9175515 49.6873055,59.1688369 49.684388,57.0193143 C49.684388,56.5232706 49.2829357,56.1218784 48.7881224,56.1218784 C48.2933091,56.1218784 47.8918568,56.5232706 47.8918568,57.0193143 C47.8953578,59.8313969 49.9370461,62.2257279 52.7104513,62.6703559 L52.7104513,64.7141259 C52.7104513,65.2095853 53.11132,65.6115618 53.6067169,65.6115618 C54.1015302,65.6115618 54.5029824,65.2095853 54.5029824,64.7141259 L54.5029824,62.6703559 C57.4479382,62.2023572 59.5386411,59.5451054 59.3040715,56.5688435 C59.0695021,53.5919972 56.5884336,51.2964076 53.6067169,51.2969918 C52.1992997,51.3057559 50.8957469,50.5590612 50.1897044,49.3402778 C49.4836618,48.1214943 49.4836618,46.6175881 50.1897044,45.3988048 C50.8957469,44.1800214 52.1992997,43.433911 53.6067169,43.4420906 Z" id="Path" fill="#43D92D"></path>
                </g>
            </g>
        </g>
    </g>
</svg>