<?xml version="1.0" encoding="UTF-8"?>
<svg width="69px" height="65px" viewBox="0 0 69 65" version="1.1" xmlns="http://www.w3.org/2000/svg" xmlns:xlink="http://www.w3.org/1999/xlink">
    <!-- Generator: Sketch 54 (76480) - https://sketchapp.com -->
    <title>Project Analysis</title>
    <desc>Created with Sketch.</desc>
    <g id="Page-1" stroke="none" stroke-width="1" fill="none" fill-rule="evenodd">
        <g id="eCommerce" transform="translate(-438.000000, -2597.000000)" fill-rule="nonzero">
            <g id="Group-5" transform="translate(391.000000, 2423.000000)">
                <g id="Group-4" transform="translate(0.000000, 114.000000)">
                    <g id="Project-Analysis" transform="translate(47.000000, 60.000000)">
                        <g id="Group" transform="translate(1.679513, 10.270563)" fill="#D4E1F4">
                            <polygon id="Path" points="33.7356815 25.8118939 37.9344645 25.8118939 37.9344645 53.0411255 33.7356815 53.0411255"/>
                            <polygon id="Path" points="16.5164726 13.3228896 20.7152556 13.3228896 20.7152556 53.0411255 16.5164726 53.0411255"/>
                            <polygon id="Path" points="0.521208925 0.0922943723 0.00825760649 53.0411255 4.20704057 53.0411255 4.71999189 0.0922943723"/>
                            <polygon id="Path" points="51.5110892 36.8642857 51.3059087 53.0411255 55.5046917 53.0411255 55.7098722 36.8642857"/>
                        </g>
                        <path d="M68.020284,45.4465368 L53.2012394,45.4465368 L53.2012394,35.2383009 C53.2012394,34.7720865 52.8252675,34.394145 52.3614828,34.394145 L35.4151947,34.394145 L35.4151947,22.75 C35.4151947,22.2837856 35.0392229,21.9058442 34.5754381,21.9058442 L18.1959858,21.9058442 L18.1959858,9.5187013 C18.1959858,9.0524869 17.820014,8.67454545 17.3562292,8.67454545 L1.36922312,8.67454545 C0.908644115,8.67452307 0.533995558,9.04743096 0.529466531,9.51040043 L3.97683324e-15,64.147684 C-0.00216659923,64.3729785 0.0853501088,64.5897952 0.243070461,64.7498744 C0.400790813,64.9099536 0.615625663,65.0000105 0.839756592,65 L68.020284,65 C68.4840687,65 68.8600406,64.6220586 68.8600406,64.1558442 L68.8600406,46.2906926 C68.8600406,45.8244782 68.4840687,45.4465368 68.020284,45.4465368 L68.020284,45.4465368 Z M51.5217262,36.0824567 L51.5217262,46.2906926 L51.3059087,63.3116883 L35.4151947,63.3116883 L35.4151947,36.0824567 L51.5217262,36.0824567 Z M33.7356815,23.5941558 L33.7356815,63.3116883 L18.1959858,63.3116883 L18.1959858,23.5941558 L33.7356815,23.5941558 Z M2.20072211,10.3628571 L16.5164726,10.3628571 L16.5164726,63.3116883 L1.68777079,63.3116883 L2.20072211,10.3628571 Z M67.1805274,63.3116883 L52.9854219,63.3116883 L53.1906024,47.1348485 L67.1805274,47.1348485 L67.1805274,63.3116883 Z" id="Shape" fill="#24527a"/>
                        <path d="M68.3086004,34.5541126 C66.1838763,33.7735498 64.0601318,32.9080087 61.99643,31.9819697 C47.3636714,25.4161255 34.3141339,15.2287121 23.1849797,1.68831169 L28.3774746,1.68831169 C28.8412594,1.68831169 29.2172312,1.31037024 29.2172312,0.844155844 C29.2172312,0.377941445 28.8412594,0 28.3774746,0 L21.4171521,0 C21.407355,0 21.3978377,0.00112554113 21.3881805,0.00154761905 C21.3718053,0.00154761905 21.35543,0.00239177489 21.3391947,0.00393939394 C21.3261785,0.00520562771 21.3137221,0.00731601732 21.3009858,0.009004329 C21.2882495,0.0106926407 21.2721542,0.0128030303 21.2578783,0.0156168831 C21.2436024,0.0184307359 21.2298864,0.0218073593 21.2168702,0.0251839827 C21.203854,0.0285606061 21.1909777,0.0313744589 21.1782414,0.0351731602 C21.1655051,0.0389718615 21.1502495,0.0443181818 21.1362535,0.0492424242 C21.1222576,0.0541666667 21.1121805,0.0576839827 21.100284,0.0624675325 C21.0883874,0.0672510823 21.0722921,0.0747077922 21.0591359,0.0813203463 C21.0479391,0.086525974 21.0367424,0.0915909091 21.0256856,0.0973593074 C21.0116897,0.104816017 20.9976937,0.113116883 20.9845375,0.121417749 C20.9744604,0.127467532 20.9643834,0.133235931 20.9545862,0.139707792 C20.9405903,0.149134199 20.9265943,0.159404762 20.9134381,0.169534632 C20.9058803,0.175162338 20.8981826,0.18008658 20.8907647,0.185995671 C20.8893651,0.187121212 20.8882454,0.188528139 20.8868458,0.18965368 C20.8743895,0.19978355 20.8626329,0.210898268 20.8508763,0.221731602 C20.8419189,0.230032468 20.8325416,0.237770563 20.8240041,0.246352814 C20.8154665,0.254935065 20.8109878,0.260422078 20.8044097,0.267738095 C20.7563614,0.318881688 20.7148892,0.375885694 20.6809655,0.43741342 L20.6783063,0.441915584 C20.6708884,0.455984848 20.6643103,0.470054113 20.6581521,0.484123377 C20.6529736,0.495238095 20.6472353,0.506071429 20.6424767,0.517467532 C20.6400974,0.522954545 20.6384178,0.528863636 20.6361785,0.534491342 C20.6131397,0.593418672 20.5968007,0.654774956 20.5874726,0.717391775 C20.5855132,0.729772727 20.5831339,0.74215368 20.5818742,0.754534632 C20.5806146,0.766915584 20.5806146,0.775779221 20.5799148,0.786331169 C20.5786552,0.803917749 20.5772556,0.821645022 20.5772556,0.839372294 L20.5772556,0.844155844 L20.5772556,7.93506494 C20.5772556,8.40127933 20.9532274,8.77922078 21.4170122,8.77922078 C21.8807969,8.77922078 22.2567688,8.40127933 22.2567688,7.93506494 L22.2567688,3.20427489 C33.4722779,16.7266667 46.6003327,26.9225216 61.3113286,33.523539 C63.4107201,34.4661797 65.570854,35.34579 67.7319675,36.1397186 C68.0145241,36.2465891 68.3324024,36.1927702 68.5645471,35.9987576 C68.7966917,35.8047449 68.907372,35.5004001 68.8544381,35.2016246 C68.8015043,34.9028492 68.5931038,34.6556295 68.3086004,34.5541126 Z" id="Path" fill="#43D92D"/>
                    </g>
                </g>
            </g>
        </g>
    </g>
</svg>