<?xml version="1.0" encoding="UTF-8"?>
<svg width="66px" height="64px" viewBox="0 0 66 64" version="1.1" xmlns="http://www.w3.org/2000/svg" xmlns:xlink="http://www.w3.org/1999/xlink">
    <!-- Generator: Sketch 54 (76480) - https://sketchapp.com -->
    <title>promote</title>
    <desc>Created with Sketch.</desc>
    <g id="Page-1" stroke="none" stroke-width="1" fill="none" fill-rule="evenodd">
        <g id="eCommerce" transform="translate(-431.000000, -3540.000000)" fill-rule="nonzero">
            <g id="Group-5" transform="translate(0.000000, 3283.000000)">
                <g id="Group-14" transform="translate(391.000000, 43.000000)">
                    <g id="Group-4" transform="translate(0.000000, 158.000000)">
                        <g id="promote" transform="translate(40.000000, 56.000000)">
                            <path d="M10.5322864,15.0994975 L10.5322864,11.3849246 C10.5353166,9.21567405 11.9494979,7.30288643 14.0169903,6.67159799 C13.5559061,6.53105355 13.0766597,6.45968947 12.5947864,6.4598191 L12.0094369,6.4598191 C9.30076968,6.46274293 7.10556364,8.66594626 7.10220874,11.3849246 L7.10220874,15.0994975 C7.10521027,17.8186905 9.3003963,20.0223053 12.0092767,20.025407 L12.5946262,20.025407 C13.0764995,20.0255367 13.5557459,19.9541726 14.0168301,19.8136281 C11.9491816,19.1821049 10.5350474,17.2689667 10.5322864,15.0994975 L10.5322864,15.0994975 Z" id="Path" fill="#D4E1F4"/>
                            <path d="M30.3274806,12.0733266 L30.3274806,7.83115578 C30.3311193,5.17713565 32.1336409,2.86614722 34.6995,2.22584925 C34.2478374,2.11355265 33.7842574,2.05674797 33.3189466,2.05668342 L32.6501359,2.05668342 C29.4745156,2.06022808 26.9010226,4.64344621 26.8974029,7.83115578 L26.8974029,12.0741307 C26.9010226,15.2618402 29.4745156,17.8450584 32.6501359,17.848603 L33.3189466,17.848603 C33.7842574,17.8485385 34.2478374,17.7917338 34.6995,17.6794372 C32.1333516,17.0390665 30.330752,14.7276467 30.3274806,12.0733266 L30.3274806,12.0733266 Z" id="Path" fill="#D4E1F4"/>
                            <path d="M51.7089175,15.0994975 L51.7089175,11.3849246 C51.7116661,9.21543619 53.1259027,7.30231271 55.1936214,6.67095477 C54.7324801,6.53041999 54.2531823,6.45905631 53.7712573,6.45917588 L53.1859078,6.45917588 C50.4770533,6.46218901 48.2818415,8.66575777 48.2788398,11.3849246 L48.2788398,15.0994975 C48.2818413,17.8186905 50.4770274,20.0223053 53.1859078,20.025407 L53.7712573,20.025407 C54.2531823,20.0255266 54.7324801,19.9541629 55.1936214,19.8136281 C53.1259094,19.1821628 51.7116999,17.2690107 51.7089175,15.0994975 L51.7089175,15.0994975 Z" id="Path" fill="#D4E1F4"/>
                            <path d="M8.18255825,25.1904322 C7.85037676,24.9246965 7.54273392,24.6294449 7.26336408,24.3082613 C4.237207,24.6565726 1.94668211,27.2183377 1.9276165,30.2758593 L1.9276165,36.2773869 L5.35769417,36.2773869 L5.35769417,30.2758593 C5.36778547,28.2064906 6.43412877,26.286819 8.18255825,25.1904322 Z" id="Path" fill="#D4E1F4"/>
                            <path d="M28.8532136,23.8853467 C28.2628518,23.4850843 27.72911,23.0065391 27.2664903,22.4627136 C23.7014411,22.8327321 20.9851896,25.836903 20.9628495,29.4345327 L20.9628495,40.0102915 L26.1078058,40.0102915 L26.1078058,29.4345327 C26.1163921,27.2575832 27.130511,25.2077841 28.8532136,23.8853467 Z" id="Path" fill="#D4E1F4"/>
                            <path d="M50.3342913,26.007799 C49.6180788,25.609481 48.9767741,25.0885087 48.4393544,24.4684221 C47.5952061,24.557523 46.7801901,24.8286019 46.0500583,25.2631156 C46.7175778,26.5514138 47.0654907,27.982399 47.0642476,29.4345327 L47.0642476,36.438191 L51.0087087,36.438191 L51.0087087,29.4345327 C51.0084985,28.2590869 50.7793972,27.0950167 50.3342913,26.007799 L50.3342913,26.007799 Z" id="Path" fill="#D4E1F4"/>
                            <path d="M33.0139369,0.100020101 C28.5979827,0.105071386 25.0194243,3.69732499 25.0144806,8.13009045 L25.0144806,11.6626332 C25.0016531,14.5400326 26.5235445,17.2043858 29.0038792,18.6468154 C31.4842139,20.089245 34.5438201,20.089245 37.0241548,18.6468154 C39.5044895,17.2043858 41.0263809,14.5400326 41.0135534,11.6626332 L41.0135534,8.13009045 C41.0086095,3.6972623 37.4299537,0.104982788 33.0139369,0.100020101 Z M39.0912233,11.6618291 C39.0874274,15.0293569 36.3688535,17.7583521 33.0140971,17.7622513 L33.0140971,17.7622513 C29.6593407,17.7583521 26.9407668,15.0293569 26.9369709,11.6618291 L26.9369709,8.13009045 C26.9257855,5.94318683 28.0816419,3.91758325 29.9665313,2.82087737 C31.8514206,1.7241715 34.1769338,1.7241715 36.0618231,2.82087737 C37.9467124,3.91758325 39.1025689,5.94318683 39.0913835,8.13009045 L39.0912233,11.6618291 Z" id="Shape" fill="#24527a"/>
                            <path d="M18.9862136,40.8075578 C18.9862136,41.3404154 19.4165418,41.7723819 19.9473786,41.7723819 L46.0808155,41.7723819 C46.6116523,41.7723819 47.0419806,41.3404154 47.0419806,40.8075578 L47.0419806,38.239196 L65.038835,38.239196 C65.5696717,38.239196 66,37.8072295 66,37.2743719 L66,30.3168643 C65.9965956,26.1332822 62.756246,22.6719109 58.5967864,22.4086834 C58.0900922,22.3744322 57.826733,22.6966834 57.5944515,22.9808241 C56.6162746,24.1808021 55.141124,24.8604404 53.5969568,24.8225684 C52.0527895,24.7846965 50.6124643,24.0335539 49.693835,22.7870553 C49.5068857,22.5348028 49.2098439,22.3890123 48.8967087,22.3958191 C47.497071,22.4269157 46.1314779,22.8350098 44.9427961,23.577407 C43.3807796,21.714058 41.1257438,20.575389 38.7041942,20.4272563 C38.2005437,20.3992764 37.9482379,20.7057688 37.681835,21.0318794 C36.5375123,22.4355945 34.8118443,23.2305972 33.0054608,23.186251 C31.1990772,23.1419048 29.5141878,22.2631738 28.4395922,20.8049849 C28.2528169,20.552609 27.9557527,20.4067781 27.6426262,20.4137487 C25.3283999,20.4674348 23.1276745,21.4310051 21.5140777,23.0970854 C21.3596505,23.2556382 21.214034,23.4206231 21.0729029,23.5886633 C19.9637633,22.8938119 18.6992247,22.4881983 17.3942039,22.4086834 C16.8870291,22.3733065 16.6238301,22.6966834 16.3915485,22.9808241 C15.4133479,24.1809905 13.9380572,24.8607533 12.3937297,24.8228806 C10.8494021,24.7850078 9.40894007,24.0337396 8.49029126,22.7870553 C8.30321701,22.5350407 8.00635114,22.3893072 7.69332524,22.3958191 C3.41351164,22.5055174 0.000689878829,26.0193576 0,30.3168643 L0,37.2743719 C-1.13824807e-15,37.8072295 0.43032825,38.239196 0.961165049,38.239196 L18.9862136,38.239196 L18.9862136,40.8075578 Z M48.4822864,24.3540905 C49.7947726,25.873614 51.6981186,26.7486521 53.7016323,26.7536155 C55.7051461,26.7585789 57.6127716,25.892982 58.9327136,24.3799799 C61.8812136,24.7967509 64.0747657,27.3279415 64.0776699,30.3168643 L64.0776699,36.3095477 L47.0419806,36.3095477 L47.0419806,29.3256683 C47.0429587,27.8807634 46.6920984,26.4575163 46.0199417,25.1798191 C46.7692426,24.7239848 47.6104977,24.4418763 48.4822864,24.3540905 L48.4822864,24.3540905 Z M27.2235583,22.3700905 C28.697872,24.1085497 30.8561557,25.1124209 33.1305644,25.1175855 C35.4049732,25.12275 37.5677592,24.1286907 39.0498932,22.3969447 C42.519081,22.8494047 45.1161543,25.8140048 45.1196505,29.3256683 L45.1196505,39.8422513 L20.9085437,39.8422513 L20.9085437,29.3256683 C20.9095653,25.718526 23.645613,22.7049473 27.2235583,22.3700905 L27.2235583,22.3700905 Z M1.9223301,36.3095477 L1.9223301,30.3168643 C1.94133774,27.2523276 4.24521482,24.6885351 7.28002427,24.3547337 C8.59256957,25.8740028 10.4958347,26.7488115 12.4991959,26.7536515 C14.5025572,26.7584915 16.4099952,25.8928894 17.7298107,24.3799799 C18.5322875,24.4924406 19.3033288,24.768638 19.9954369,25.1915578 C19.3299896,26.4670369 18.9836242,27.8858634 18.9862136,29.3256683 L18.9862136,36.3095477 L1.9223301,36.3095477 Z" id="Shape" fill="#24527a"/>
                            <path d="M53.6009709,22.0053869 C57.5324282,22.0008676 60.7183813,18.8027859 60.7228835,14.8563618 L60.7228835,11.7641005 C60.7042913,7.82899304 57.5211185,4.64882049 53.6008908,4.64882049 C49.680663,4.64882049 46.4974902,7.82899304 46.4788981,11.7641005 L46.4788981,14.8563618 C46.4834005,18.8028486 49.669451,22.0009562 53.6009709,22.0053869 L53.6009709,22.0053869 Z M48.4012282,11.7641005 C48.4171052,8.89278109 50.7404167,6.57353377 53.6008908,6.57353377 C56.4613648,6.57353377 58.7846764,8.89278109 58.8005534,11.7641005 L58.8005534,14.8563618 C58.7968467,17.7374015 56.4710842,20.0720179 53.6009709,20.0757387 L53.6009709,20.0757387 C50.7307949,20.0721065 48.404935,17.7374641 48.4012282,14.8563618 L48.4012282,11.7641005 Z" id="Shape" fill="#24527a"/>
                            <path d="M12.3990291,4.61507538 C8.46757179,4.61959475 5.28161873,7.81767645 5.2771165,11.7641005 L5.2771165,14.8563618 C5.29570868,18.7914693 8.47888147,21.9716418 12.3991092,21.9716418 C16.319337,21.9716418 19.5025098,18.7914693 19.5211019,14.8563618 L19.5211019,11.7641005 C19.5165995,7.81761375 16.330549,4.61950615 12.3990291,4.61507538 Z M17.5987718,14.8563618 C17.5828948,17.7276812 15.2595833,20.0469285 12.3991092,20.0469285 C9.53863516,20.0469285 7.21532361,17.7276812 7.1994466,14.8563618 L7.1994466,11.7641005 C7.21532361,8.89278109 9.53863516,6.57353377 12.3991092,6.57353377 C15.2595833,6.57353377 17.5828948,8.89278109 17.5987718,11.7641005 L17.5987718,14.8563618 Z" id="Shape" fill="#24527a"/>
                            <path d="M33.6797039,45.5654271 C33.4994458,45.3844522 33.254945,45.2827789 33,45.2827789 C32.745055,45.2827789 32.5005542,45.3844522 32.3202961,45.5654271 L27.6544806,50.2491658 C27.4083675,50.4922244 27.3110303,50.8491131 27.3994835,51.1841169 C27.4879368,51.5191206 27.7485897,51.7807658 28.0823229,51.8695557 C28.4160561,51.9583457 28.7715914,51.8606379 29.0137282,51.6135879 L31.873835,48.742593 L31.873835,62.497608 C31.873835,63.0304657 32.3041632,63.4624322 32.835,63.4624322 C33.3658368,63.4624322 33.796165,63.0304657 33.796165,62.497608 L33.796165,48.4111759 L36.9862718,51.6134271 C37.2284086,51.8604771 37.5839439,51.9581849 37.9176771,51.8693949 C38.2514103,51.7806049 38.5120632,51.5189598 38.6005165,51.1839561 C38.6889697,50.8489523 38.5916325,50.4920636 38.3455194,50.249005 L33.6797039,45.5654271 Z" id="Path" fill="#43D92D"/>
                            <path d="M6.6576699,60.719598 C7.1885067,60.719598 7.61883495,60.2876315 7.61883495,59.7547739 L7.61883495,55.2603015 L17.1598398,63.6605427 C17.4177311,63.8899205 17.7782092,63.9631794 18.1046743,63.8525588 C18.4311395,63.7419382 18.6736399,63.4643639 18.7402825,63.12502 C18.8069251,62.785676 18.6875129,62.4364847 18.4272961,62.2097688 L9.21116505,54.0954372 L13.2562282,54.0954372 C13.787065,54.0954372 14.2173932,53.6634707 14.2173932,53.1306131 C14.2173932,52.5977554 13.787065,52.1657889 13.2562282,52.1657889 L6.6576699,52.1657889 C6.64805825,52.1657889 6.63876699,52.1670754 6.62915534,52.1672362 C6.61185437,52.1672362 6.5945534,52.1685226 6.57725243,52.1699698 C6.55995146,52.1714171 6.54617476,52.1731859 6.53063592,52.1752764 C6.51509709,52.1773668 6.50035922,52.1794573 6.48530097,52.182191 C6.47024272,52.1849246 6.45230097,52.1887839 6.43596117,52.1926432 C6.42218447,52.1960201 6.40840777,52.199397 6.39479126,52.2032563 C6.37877184,52.2079196 6.36275243,52.2130653 6.34673301,52.2193367 C6.3331165,52.224 6.3195,52.2289849 6.30604369,52.2342915 C6.29258738,52.239598 6.27608738,52.2466734 6.26134951,52.2532663 C6.24661165,52.2598593 6.23331553,52.2664523 6.21953883,52.2735276 C6.20576214,52.280603 6.19262621,52.2878392 6.17949029,52.2955578 C6.16635437,52.3032764 6.1516165,52.3116382 6.138,52.320804 C6.1243835,52.3299698 6.11300971,52.3368844 6.10083495,52.3462111 C6.08866019,52.3555377 6.0748835,52.3651859 6.06222816,52.3753166 C6.04957282,52.3854472 6.03755825,52.3955779 6.02570388,52.4060302 C6.01384951,52.4164824 6.0031165,52.4261307 5.99206311,52.4367437 C5.98100971,52.4473568 5.96723301,52.4619899 5.95505825,52.4750151 C5.94865049,52.4819296 5.94176214,52.4880402 5.93567476,52.4951156 C5.93263107,52.4984925 5.93022816,52.5023518 5.92718447,52.5057286 C5.9151699,52.5198794 5.90395631,52.5345126 5.89290291,52.5493065 C5.88473301,52.5602412 5.8768835,52.5708543 5.8685534,52.5814673 C5.85862136,52.5957789 5.84949029,52.6108945 5.84035922,52.6258492 C5.8328301,52.6379095 5.82514078,52.6499698 5.81825243,52.6623518 C5.81136408,52.6747337 5.80303398,52.6919397 5.79582524,52.7068945 C5.7886165,52.7218492 5.78236893,52.7335879 5.77644175,52.7470955 C5.77051456,52.760603 5.76474757,52.777005 5.75914078,52.7921206 C5.75353398,52.8072362 5.74808738,52.8207437 5.74312136,52.8353769 C5.73815534,52.8500101 5.73463107,52.8652864 5.73062621,52.880402 C5.72662136,52.8955176 5.72213592,52.9111156 5.71877184,52.9265528 C5.71540777,52.9419899 5.71348544,52.9558191 5.71108252,52.9704523 C5.70867961,52.9850854 5.70531553,53.0040603 5.7033932,53.0209447 C5.70179126,53.0346131 5.70115049,53.048603 5.70018932,53.062593 C5.69890777,53.0807638 5.69762621,53.0987739 5.69746602,53.1169447 C5.69746602,53.121608 5.69746602,53.1261106 5.69746602,53.1307739 L5.69746602,59.7547739 C5.69746575,60.287255 6.1272085,60.7190655 6.6576699,60.719598 Z" id="Path" fill="#43D92D"/>
                            <path d="M60.2990097,53.2774271 C60.2990097,53.2735678 60.2990097,53.2695477 60.2990097,53.2656884 C60.2957962,53.2339469 60.2909842,53.2023889 60.2845922,53.1711357 C60.2829903,53.1629347 60.2804272,53.1550553 60.2785049,53.1468543 C60.2733786,53.1243417 60.2680922,53.1018291 60.2612039,53.0796382 C60.257199,53.0664523 60.2519126,53.0539095 60.2474272,53.0410452 C60.2415,53.0249648 60.2360534,53.0074372 60.2290049,52.9908744 C60.2219563,52.9743116 60.214267,52.9587136 60.2065777,52.9437588 C60.2004903,52.9310553 60.1950437,52.9180302 60.1883155,52.9054874 C60.1732573,52.8777219 60.1569175,52.8509213 60.1392961,52.8250854 C60.1354515,52.8192965 60.1308058,52.8139899 60.126801,52.808201 C60.1123835,52.7877789 60.0976456,52.7676784 60.0817864,52.7483819 L60.0793835,52.7453266 C60.072335,52.736804 60.0643252,52.7292462 60.0571165,52.721206 C60.0441408,52.7067337 60.0314854,52.6922613 60.0177087,52.6787538 C60.003932,52.6652462 59.9938398,52.6565628 59.981665,52.646593 C59.9694903,52.6366231 59.9598786,52.6264925 59.9483447,52.617005 C59.9368107,52.6075176 59.9199903,52.5954573 59.9055728,52.5848442 C59.8946796,52.5769648 59.8841068,52.5687638 59.873534,52.5613668 C59.8589563,52.5517186 59.8438981,52.5428744 59.8288398,52.534191 C59.8168252,52.5269548 59.8048107,52.5197186 59.7923155,52.5129648 C59.7798204,52.5062111 59.7636408,52.4988141 59.7492233,52.4920603 C59.7348058,52.4853065 59.7210291,52.4787136 59.7064515,52.4727638 C59.6918738,52.4668141 59.6793786,52.4626332 59.6657621,52.457809 C59.6497427,52.4521809 59.6337233,52.4462312 59.6177039,52.4417286 C59.6044078,52.4377085 59.5907913,52.4346533 59.577335,52.4312764 C59.5605146,52.4270955 59.5438544,52.4227538 59.5267136,52.4193769 C59.5095728,52.416 59.4964369,52.4145528 59.4813786,52.4124623 C59.4663204,52.4103719 59.450301,52.4074774 59.4344417,52.4060302 C59.4144175,52.4041005 59.394233,52.4036181 59.3742087,52.4029749 C59.3639563,52.4029749 59.3540243,52.4013668 59.3437718,52.4013668 L52.7437718,52.4013668 C52.212935,52.4013668 51.7826068,52.8333333 51.7826068,53.366191 C51.7826068,53.8990486 52.212935,54.3310151 52.7437718,54.3310151 L56.700568,54.3310151 L47.3556408,62.1957789 C46.9486659,62.5381399 46.8952335,63.1468527 47.2362961,63.5553769 C47.5773588,63.9639011 48.183763,64.0175369 48.5907379,63.6751759 L58.381165,55.433809 L58.381165,59.9892261 C58.381165,60.5220838 58.8114933,60.9540503 59.3423301,60.9540503 C59.8731669,60.9540503 60.3034951,60.5220838 60.3034951,59.9892261 L60.3034951,53.3613668 C60.3031748,53.3333869 60.3015728,53.305407 60.2990097,53.2774271 Z" id="Path" fill="#43D92D"/>
                        </g>
                    </g>
                </g>
            </g>
        </g>
    </g>
</svg>