<?xml version="1.0" encoding="UTF-8"?>
<svg width="75px" height="64px" viewBox="0 0 75 64" version="1.1" xmlns="http://www.w3.org/2000/svg" xmlns:xlink="http://www.w3.org/1999/xlink">
    <!-- Generator: Sketch 54 (76480) - https://sketchapp.com -->
    <title>Sales Channel</title>
    <desc>Created with Sketch.</desc>
    <g id="Page-1" stroke="none" stroke-width="1" fill="none" fill-rule="evenodd">
        <g id="Web-Application-Development" transform="translate(-1023.000000, -2426.000000)" fill-rule="nonzero">
            <g id="Group-5" transform="translate(391.000000, 2243.000000)">
                <g id="Group-4" transform="translate(585.000000, 114.000000)">
                    <g id="Sales-Channel" transform="translate(47.000000, 69.000000)">
                        <path d="M57.5194277,10.5544151 C50.3179411,11.7184427 44.8978636,17.7529694 44.4971386,25.0529811 C44.4846386,25.2588679 44.475753,27.1977358 44.4728916,28.3717736 C44.4728081,28.4411902 44.4602059,28.51002 44.4356928,28.5749434 L41.35,36.6792453 C41.3316174,36.7268234 41.3376959,36.7804132 41.3662651,36.8226415 C41.3910037,36.8675101 41.4367726,36.8967276 41.4878012,36.9002264 L44.3237952,36.9002264 C44.2728214,36.8966779 44.2271198,36.8674671 44.2024096,36.8226415 C44.1738405,36.7804132 44.167762,36.7268234 44.1861446,36.6792453 L47.2718373,28.5747925 C47.2962805,28.5098495 47.3088804,28.4410326 47.3090361,28.3716226 C47.311747,27.1975849 47.3207831,25.258717 47.3331325,25.0528302 C47.6820744,18.7377453 51.8092603,13.262285 57.7748494,11.2 L57.5194277,10.5544151 Z" id="Path" fill="#D4E1F4"/>
                        <path d="M49.064759,36.9003774 L46.2287651,36.9003774 C46.5418049,36.8858602 46.8074766,37.1280925 46.8225904,37.4418113 L46.8225904,42.7320755 L49.6587349,42.7320755 L49.6587349,37.4418113 C49.643541,37.1280691 49.377826,36.8858588 49.064759,36.9003774 Z" id="Path" fill="#D4E1F4"/>
                        <path d="M60.2353916,47.8943396 C59.9185683,46.6125332 58.7704309,45.7124845 57.4528614,45.7130566 L57.4406627,45.7130566 C56.3813253,45.7130566 55.4986446,45.715522 54.7926205,45.7204528 C56.0420686,45.7961837 57.0976808,46.6764259 57.399247,47.8940377 C57.408844,47.9403802 57.4127385,47.9877268 57.4108434,48.0350189 L57.4108434,52.8190189 L60.246988,52.8190189 L60.246988,48.034566 C60.2487475,47.9875269 60.2448541,47.9404465 60.2353916,47.8943396 L60.2353916,47.8943396 Z" id="Path" fill="#D4E1F4"/>
                        <path d="M4.89457831,31.245283 C4.90315412,24.4132961 10.0197317,18.6726754 16.7921687,17.8966038 C11.6744391,17.3158671 6.6773505,19.725569 3.93637475,24.0959396 C1.195399,28.4663101 1.195399,34.0242559 3.93637475,38.3946265 C6.6773505,42.764997 11.6744391,45.1746989 16.7921687,44.5939623 C10.0197317,43.8178906 4.90315412,38.07727 4.89457831,31.245283 L4.89457831,31.245283 Z" id="Path" fill="#D4E1F4"/>
                        <path d="M73.1743976,32.4493585 C75.6307347,27.7271554 75.4901982,22.0704999 72.8024096,17.4766792 C70.1955821,12.934131 65.4346259,10.0612628 60.2093373,9.87773585 C60.0677711,9.87260377 59.9256024,9.8692327 59.7828313,9.86762264 C59.7202811,9.86701887 59.6578815,9.86666667 59.5956325,9.86656604 C50.8054235,9.86533453 43.5464498,16.7489612 43.0615964,25.5456604 C43.0447289,25.8182642 43.0378012,27.9507925 43.0358434,28.6917736 L40.0903614,36.4233962 C39.9026891,36.9233774 39.9685989,37.4835293 40.2671687,37.9260377 C40.5633136,38.3659476 41.0552252,38.6330875 41.5846386,38.6415094 L45.3313253,38.6415094 L45.3313253,41.6603774 L45.227259,41.6603774 C44.4246999,41.6519536 43.6535184,41.9723892 43.0923193,42.5474717 C42.5288401,43.1180154 42.2188486,43.8922727 42.2325301,44.6949434 C42.2598435,46.3530443 43.6097276,47.682328 45.2643072,47.6804528 C45.2759036,47.6804528 45.2875,47.6766792 45.2990964,47.6765283 L51.5774096,47.5782642 C51.8528597,47.5805984 52.1137288,47.454415 52.2832831,47.2368302 C52.9786145,47.2333585 53.7180723,47.245283 54.3606928,47.245283 L54.3665663,47.245283 C54.9790058,47.2367149 55.517523,47.6498951 55.6691265,48.2446792 L56.9793675,53.4857358 C57.0784899,53.8922785 57.4383856,54.1809089 57.8558735,54.1886792 L72.439759,54.1886792 C72.7239678,54.1761694 72.9874088,54.0359237 73.1568805,53.8069118 C73.3263522,53.5778999 73.3837971,53.2845234 73.313253,53.0083019 C73.2888554,52.9166792 70.8841867,43.7731321 71.414759,38.0605283 C71.5361446,36.7483774 72.7108434,33.6028679 73.1743976,32.4493585 Z M45.2751506,45.8867925 L45.2611446,45.8867925 C44.5911524,45.8796546 44.0490619,45.3383461 44.0394578,44.6668679 C44.0367161,44.3481093 44.1622183,44.041685 44.3876233,43.8167921 C44.6130284,43.5918992 44.9193266,43.4675042 45.2373494,43.4716981 L50.6123494,43.4716981 L50.6468373,45.821434 L45.2751506,45.8867925 Z M70.3805723,48.0150943 C70.7048193,49.8243019 71.0493976,51.3207547 71.2831325,52.3773585 L58.5603916,52.3773585 L57.4215361,47.8116226 C57.1009823,46.5190796 56.0070957,45.5661583 54.6853916,45.4280755 L55.5927711,45.4155472 C58.9944741,45.3805383 61.7248543,42.5902717 61.6936747,39.1808302 L61.6676205,36.3708679 L59.8603916,36.3871698 L59.8864458,39.1960755 C59.9087628,41.6031777 57.9808643,43.5731407 55.5792169,43.597283 L52.4231928,43.6167547 L52.4069277,42.5231698 C52.402203,42.2883433 52.3041077,42.0651316 52.1344348,41.9031239 C51.9647619,41.7411162 51.737563,41.6537293 51.5033133,41.6603774 L47.1385542,41.6603774 L47.1385542,37.6926792 C47.1288247,37.4534272 47.0243778,37.2279223 46.848322,37.0660568 C46.6722662,36.9041912 46.4391148,36.8193085 46.2004518,36.8301887 L41.8868976,36.8301887 L44.7831325,29.2043774 C44.8222191,29.0980333 44.8423547,28.9856319 44.8426205,28.8723019 C44.8457831,27.4563019 44.8549699,25.8458868 44.8656627,25.6549434 C45.2773253,17.808086 51.7546521,11.6624659 59.5945783,11.6803019 C59.6504518,11.6803019 59.6838855,11.6792453 59.7399096,11.6803019 C59.8141566,11.6803019 59.9394578,11.6822642 59.9394578,11.6842264 L59.9394578,27.0188679 L61.7466867,27.0188679 L61.7466867,11.8498113 C65.7214048,12.4965296 69.1971983,14.8958275 71.2171687,18.3871698 C73.6026892,22.4557972 73.7248178,27.4701244 71.5402108,31.650566 C71.5287765,31.6764274 71.5187222,31.7028799 71.5100904,31.7298113 C71.3334337,32.1675472 69.7825301,36.0674717 69.6125,37.8996226 C69.3753012,40.4463396 69.6358434,43.8590189 70.3804217,48.0150943 L70.3805723,48.0150943 Z" id="Shape" fill="#24527a"/>
                        <path d="M15.2861446,46.490566 C23.6868614,46.490566 30.496988,39.6650203 30.496988,31.245283 C30.496988,22.8255457 23.6868614,16 15.2861446,16 C6.88542775,16 0.0753012048,22.8255457 0.0753012048,31.245283 C0.0848455806,39.6610548 6.88938434,46.4810001 15.2861446,46.490566 Z M15.2861446,17.8113208 C22.6887564,17.8113208 28.689759,23.8259105 28.689759,31.245283 C28.689759,38.6646555 22.6887564,44.6792453 15.2861446,44.6792453 C7.88353272,44.6792453 1.88253012,38.6646555 1.88253012,31.245283 C1.89082982,23.8293589 7.88697329,17.8196392 15.2861446,17.8113208 L15.2861446,17.8113208 Z" id="Shape" fill="#24527a"/>
                        <path d="M15.2825301,38.0889057 C15.2725904,38.0889057 15.263253,38.0873962 15.2533133,38.0873962 C15.2433735,38.0873962 15.2340361,38.0886038 15.224247,38.0889057 C13.5757673,38.0715466 12.2479192,36.7283773 12.2457831,35.0760755 C12.2457831,34.5758931 11.8412212,34.1704151 11.3421687,34.1704151 C10.8389462,34.1687497 10.4273449,34.5718109 10.4173193,35.0760755 C10.4173193,37.4273208 12.1987952,39.3900377 14.3072289,39.8156981 L14.3072289,41.3283019 C14.3072289,41.8284843 14.7117909,42.2339623 15.2108434,42.2339623 C15.7098959,42.2339623 16.1144578,41.8284843 16.1144578,41.3283019 L16.1144578,39.8152453 C18.5574095,39.3597545 20.252623,37.1149478 20.0265941,34.6347825 C19.8005653,32.1546173 17.7276311,30.2547759 15.2427711,30.2504151 C13.5830861,30.2452504 12.2413303,28.8935044 12.2447352,27.2300571 C12.2481402,25.5666098 13.5954187,24.2203931 15.2551108,24.2220538 C16.914803,24.2237145 18.2593968,25.5726247 18.259488,27.2360755 C18.259488,27.7362579 18.6640499,28.1417358 19.1631024,28.1417358 C19.4005926,28.1408928 19.6278027,28.0445241 19.7937552,27.8742511 C19.9597078,27.7039781 20.0505078,27.4740577 20.0457831,27.2360755 C20.0467142,24.9130267 18.3934931,22.9201502 16.1144578,22.4970566 L16.1144578,21.1622642 C16.1144578,20.6620817 15.7098959,20.2566038 15.2108434,20.2566038 C14.7117909,20.2566038 14.3072289,20.6620817 14.3072289,21.1622642 L14.3072289,22.4969057 C12.1987952,22.9221132 10.4173193,24.8848302 10.4173193,27.2365283 C10.4253646,29.9025027 12.582808,32.0600393 15.2427711,32.0621887 C16.894634,32.0636829 18.235998,33.4004307 18.2469192,35.0559982 C18.2578404,36.7115657 16.934229,38.0659731 15.2825301,38.0893585 L15.2825301,38.0889057 Z" id="Path" fill="#24527a"/>
                        <path d="M55.3090361,31.786566 L55.3170181,32.3516981 C55.366661,35.4271348 57.8713255,37.8925588 60.9402108,37.8867925 L60.9929217,37.8867925 C62.4855317,37.8846499 63.915065,37.2832417 64.9620192,36.2169833 C66.0089734,35.1507249 66.5860628,33.7085114 66.5643072,32.2126792 L66.5564759,31.648 C66.5067532,28.5728236 64.0023622,26.1076052 60.9337349,26.1132075 L60.8808735,26.1132075 C59.3892571,26.1181236 57.9614609,26.7203077 56.9151284,27.7857912 C55.8687959,28.8512747 55.2907135,30.2916828 55.309488,31.786566 L55.3090361,31.786566 Z M58.203012,29.0566038 C58.9103988,28.3282069 59.8829696,27.9195314 60.8971386,27.9245283 L60.9331325,27.9245283 C63.0154434,27.9197918 64.7154618,29.5921922 64.7495482,31.6789434 L64.7573795,32.2599245 C64.7686052,33.2707983 64.3746727,34.2439166 63.6638722,34.9611786 C62.9530717,35.6784405 61.984848,36.0798611 60.9762048,36.0754717 L60.9403614,36.0754717 C58.8589909,36.0834404 57.1579336,34.412907 57.123494,32.3270943 L57.115512,31.7590943 C57.099478,30.7481227 57.4916558,29.7735418 58.203012,29.0566038 Z" id="Shape" fill="#43D92D"/>
                        <path d="M21.0501506,13.1397736 C21.0997588,13.3747965 21.2404973,13.5804375 21.4413985,13.7114477 C21.6422996,13.8424579 21.8869026,13.8881031 22.1213855,13.8383396 L29.0498494,12.3684528 C29.4074817,12.29266 29.6843258,12.0083768 29.7512526,11.6482022 C29.8181795,11.2880276 29.6620043,10.9229171 29.3555723,10.7231698 L26.0197289,8.54792453 C29.2590177,4.6071001 33.9800614,2.18426583 39.0637846,1.85372989 C44.1475078,1.52319395 49.1413044,3.3143841 52.8614458,6.80271698 C53.0967625,7.027114 53.4341382,7.10766453 53.7451226,7.01370026 C54.056107,6.919736 54.292848,6.66571552 54.3652102,6.34835297 C54.4375725,6.03099043 54.3344214,5.69911939 54.0950301,5.47909434 C49.9845241,1.62518459 44.4593439,-0.340621124 38.8444032,0.0530686719 C33.2294625,0.446758468 28.0311813,3.16443629 24.4960843,7.55441509 L20.9606928,5.24890566 C20.6543365,5.04903262 20.2580075,5.05384337 19.9565707,5.26109397 C19.6551339,5.46834458 19.5079749,5.83720489 19.5837349,6.19562264 L21.0501506,13.1397736 Z M24.1593373,9.49584906 L24.1626506,9.49871698 C24.1688253,9.50324528 24.1756024,9.50626415 24.1817771,9.51064151 L26.5412651,11.0490566 L22.6311747,11.8792453 L21.8028614,7.96015094 L24.1593373,9.49584906 Z" id="Shape" fill="#43D92D"/>
                        <path d="M37.8831325,63.5560755 C42.4404294,62.5914294 46.5258757,60.0798557 49.4493976,56.4455849 L52.9847892,58.7510943 C53.2911454,58.9509674 53.6874744,58.9461566 53.9889112,58.738906 C54.290348,58.5316554 54.437507,58.1627951 54.361747,57.8043774 L52.8953313,50.8609811 C52.8457231,50.6259582 52.7049846,50.4203173 52.5040834,50.289307 C52.3031823,50.1582968 52.0585794,50.1126516 51.8240964,50.1624151 L44.8963855,51.6323019 C44.5387532,51.7080947 44.2619092,51.9923779 44.1949823,52.3525525 C44.1280555,52.7127271 44.2842306,53.0778377 44.5906627,53.2775849 L47.926506,55.4528302 C44.6871008,59.3936911 39.9659044,61.8164779 34.8820697,62.1468726 C29.7982351,62.4772673 24.8043969,60.6858534 21.0843373,57.197283 C20.8490206,56.972886 20.5116449,56.8923355 20.2006605,56.9862997 C19.8896761,57.080264 19.6529351,57.3342845 19.5805729,57.651647 C19.5082107,57.9690096 19.6113617,58.3008806 19.850753,58.5209057 C24.6819924,63.0470832 31.4124992,64.9264697 37.8828313,63.5560755 L37.8831325,63.5560755 Z M51.3146084,52.1207547 L52.1429217,56.0398491 L49.7864458,54.5041509 L49.7831325,54.501283 C49.7541292,54.4802661 49.7239603,54.4609143 49.6927711,54.4433208 L47.4036145,52.9507925 L51.3146084,52.1207547 Z" id="Shape" fill="#43D92D"/>
                    </g>
                </g>
            </g>
        </g>
    </g>
</svg>