<?xml version="1.0" encoding="UTF-8"?>
<svg width="21px" height="13px" viewBox="0 0 21 13" version="1.1" xmlns="http://www.w3.org/2000/svg" xmlns:xlink="http://www.w3.org/1999/xlink">
    <!-- Generator: Sketch 54 (76480) - https://sketchapp.com -->
    <title>USA</title>
    <desc>Created with Sketch.</desc>
    <g id="Page-1" stroke="none" stroke-width="1" fill="none" fill-rule="evenodd">
        <g id="Contact-Us" transform="translate(-808.000000, -745.000000)" fill-rule="nonzero">
            <g id="Group-4" transform="translate(780.000000, 700.000000)">
                <g id="USA" transform="translate(28.000000, 45.000000)">
                    <path d="M20.5976842,12.9893601 L0.361380117,12.9893601 C0.161818713,12.9893601 0,12.8364167 0,12.6478006 L0,0.352238095 C0,0.163622024 0.161818713,0.0106785714 0.361380117,0.0106785714 L20.5977251,0.0106785714 C20.7972865,0.0106785714 20.9591053,0.163622024 20.9591053,0.352238095 L20.9591053,12.6478006 C20.9590643,12.8364554 20.7972456,12.9893601 20.5976842,12.9893601 Z" id="Path" fill="#F5F5F5"></path>
                    <g id="Group" fill="#FF4B55">
                        <path d="M20.9591053,1.00908631 L0,1.00908631 L0,0.352238095 C0,0.163622024 0.161818713,0.0106785714 0.361380117,0.0106785714 L20.5977251,0.0106785714 C20.7972865,0.0106785714 20.9591053,0.163622024 20.9591053,0.352238095 L20.9591053,1.00908631 L20.9591053,1.00908631 Z" id="Path"></path>
                        <rect id="Rectangle" x="0" y="4.00411607" width="20.9590643" height="1"></rect>
                        <rect id="Rectangle" x="0" y="2.0073006" width="20.9590643" height="1"></rect>
                        <path d="M20.9590643,6.99922321 L0.361380117,6.99922321 C0.161818713,6.99922321 0,6.84627976 0,6.65766369 L0,6.00081548 L20.9590643,6.00081548 L20.9590643,6.99922321 Z" id="Path"></path>
                        <rect id="Rectangle" x="0" y="9.9945625" width="20.9590643" height="1"></rect>
                        <path d="M20.5976842,12.9893601 L0.361380117,12.9893601 C0.161818713,12.9893601 0,12.8364167 0,12.6478006 L0,11.9909911 L20.9590643,11.9909911 L20.9590643,12.6478393 C20.9590643,12.8364554 20.7972456,12.9893601 20.5976842,12.9893601 Z" id="Path"></path>
                        <rect id="Rectangle" x="0" y="7.99774702" width="20.9590643" height="1"></rect>
                    </g>
                    <path d="M9.39543275,0.0107172619 L0.361380117,0.0107172619 C0.161818713,0.0107172619 0,0.163622024 0,0.352238095 L0,6.657625 C0,6.84624107 0.161818713,6.99918452 0.361380117,6.99918452 L9.39547368,6.99918452 C9.59503509,6.99918452 9.7568538,6.84624107 9.7568538,6.657625 L9.7568538,0.352238095 C9.75681287,0.163622024 9.59499415,0.0107172619 9.39543275,0.0107172619 Z" id="Path" fill="#41479B"></path>
                    <g id="Group" transform="translate(0.573099, 0.735119)" fill="#F5F5F5">
                        <path d="M0.441654971,0.0595059524 L0.521643275,0.286232143 L0.774502924,0.288050595 C0.807251462,0.288321429 0.82080117,0.327785714 0.794479532,0.34616369 L0.591070175,0.488157738 L0.667374269,0.716005952 C0.677280702,0.745488095 0.641707602,0.769940476 0.61505848,0.751910714 L0.409356725,0.612973214 L0.203654971,0.751949405 C0.177005848,0.769940476 0.14151462,0.745526786 0.151339181,0.716044643 L0.227643275,0.488196429 L0.0242339181,0.346202381 C-0.0020877193,0.327785714 0.0114619883,0.288360119 0.0442105263,0.288089286 L0.297070175,0.286270833 L0.37705848,0.0595446429 C0.387374269,0.030139881 0.43125731,0.030139881 0.441654971,0.0595059524 Z" id="Path"></path>
                        <path d="M0.441654971,1.24552381 L0.521643275,1.47225 L0.774502924,1.47406845 C0.807251462,1.47433929 0.82080117,1.51380357 0.794479532,1.53218155 L0.591070175,1.6741756 L0.667374269,1.90202381 C0.677280702,1.93150595 0.641707602,1.95595833 0.61505848,1.93792857 L0.409356725,1.79899107 L0.203654971,1.93796726 C0.177005848,1.95595833 0.14151462,1.93154464 0.151339181,1.9020625 L0.227643275,1.67421429 L0.0242339181,1.53222024 C-0.0020877193,1.51380357 0.0114619883,1.47437798 0.0442105263,1.47410714 L0.297070175,1.47228869 L0.37705848,1.2455625 C0.387374269,1.21619643 0.43125731,1.21619643 0.441654971,1.24552381 Z" id="Path"></path>
                        <path d="M0.441654971,2.43154167 L0.521643275,2.65826786 L0.774502924,2.66008631 C0.807251462,2.66035714 0.82080117,2.69982143 0.794479532,2.7181994 L0.591070175,2.86019345 L0.667374269,3.08804167 C0.677280702,3.11752381 0.641707602,3.14197619 0.61505848,3.12394643 L0.409356725,2.98500893 L0.203654971,3.12398512 C0.177005848,3.14197619 0.14151462,3.1175625 0.151339181,3.08808036 L0.227643275,2.86023214 L0.0242339181,2.7182381 C-0.0020877193,2.69982143 0.0114619883,2.66039583 0.0442105263,2.660125 L0.297070175,2.65830655 L0.37705848,2.43158036 C0.387374269,2.40221429 0.43125731,2.40221429 0.441654971,2.43154167 Z" id="Path"></path>
                        <path d="M0.441654971,3.61759821 L0.521643275,3.8443244 L0.774502924,3.84614286 C0.807251462,3.84641369 0.82080117,3.88587798 0.794479532,3.90425595 L0.591070175,4.04625 L0.667374269,4.27409821 C0.677280702,4.30358036 0.641707602,4.32803274 0.61505848,4.31000298 L0.409356725,4.17106548 L0.203654971,4.31004167 C0.177005848,4.32803274 0.14151462,4.30361905 0.151339181,4.2741369 L0.227643275,4.04628869 L0.0242339181,3.90429464 C-0.0020877193,3.88587798 0.0114619883,3.84645238 0.0442105263,3.84618155 L0.297070175,3.8443631 L0.37705848,3.6176369 C0.387374269,3.58823214 0.43125731,3.58823214 0.441654971,3.61759821 Z" id="Path"></path>
                        <path d="M0.441654971,4.80361607 L0.521643275,5.03034226 L0.774502924,5.03216071 C0.807251462,5.03243155 0.82080117,5.07189583 0.794479532,5.09027381 L0.591070175,5.23226786 L0.667374269,5.46011607 C0.677280702,5.48959821 0.641707602,5.5140506 0.61505848,5.49602083 L0.409356725,5.35708333 L0.203654971,5.49605952 C0.177005848,5.5140506 0.14151462,5.4896369 0.151339181,5.46015476 L0.227643275,5.23230655 L0.0242339181,5.0903125 C-0.0020877193,5.07189583 0.0114619883,5.03247024 0.0442105263,5.0321994 L0.297070175,5.03038095 L0.37705848,4.80365476 C0.387374269,4.77421131 0.43125731,4.77421131 0.441654971,4.80361607 Z" id="Path"></path>
                        <path d="M1.41563743,0.640985119 L1.49562573,0.86771131 L1.74848538,0.869529762 C1.78123392,0.869800595 1.79478363,0.909264881 1.76846199,0.927642857 L1.56505263,1.0696369 L1.64135673,1.29748512 C1.65126316,1.32696726 1.61569006,1.35141964 1.58904094,1.33338988 L1.38333918,1.19441369 L1.17763743,1.33338988 C1.1509883,1.35138095 1.11549708,1.32696726 1.12532164,1.29748512 L1.20162573,1.0696369 L0.998216374,0.927642857 C0.971894737,0.90922619 0.985444444,0.869800595 1.01819298,0.869529762 L1.27105263,0.86771131 L1.35104094,0.640985119 C1.36131579,0.611657738 1.4052807,0.611657738 1.41563743,0.640985119 Z" id="Path"></path>
                        <path d="M1.41563743,1.82704167 L1.49562573,2.05376786 L1.74848538,2.05558631 C1.78123392,2.05585714 1.79478363,2.09532143 1.76846199,2.1136994 L1.56505263,2.25569345 L1.64135673,2.48354167 C1.65126316,2.51302381 1.61569006,2.53747619 1.58904094,2.51944643 L1.38333918,2.38047024 L1.17763743,2.51944643 C1.1509883,2.5374375 1.11549708,2.5130625 1.12532164,2.48354167 L1.20162573,2.25569345 L0.998216374,2.1136994 C0.971894737,2.09528274 0.985444444,2.05585714 1.01819298,2.05558631 L1.27105263,2.05376786 L1.35104094,1.82704167 C1.36131579,1.7976756 1.4052807,1.7976756 1.41563743,1.82704167 Z" id="Path"></path>
                        <path d="M1.41563743,3.01305952 L1.49562573,3.23978571 L1.74848538,3.24160417 C1.78123392,3.241875 1.79478363,3.28133929 1.76846199,3.29971726 L1.56505263,3.44171131 L1.64135673,3.66955952 C1.65126316,3.69904167 1.61569006,3.72349405 1.58904094,3.70546429 L1.38333918,3.5664881 L1.17763743,3.70546429 C1.1509883,3.72345536 1.11549708,3.69904167 1.12532164,3.66955952 L1.20162573,3.44171131 L0.998216374,3.29971726 C0.971894737,3.2813006 0.985444444,3.241875 1.01819298,3.24160417 L1.27105263,3.23978571 L1.35104094,3.01305952 C1.36131579,2.98369345 1.4052807,2.98369345 1.41563743,3.01305952 Z" id="Path"></path>
                        <path d="M1.41563743,4.19907738 L1.49562573,4.42580357 L1.74848538,4.42762202 C1.78123392,4.42789286 1.79478363,4.46735714 1.76846199,4.48573512 L1.56505263,4.62772917 L1.64135673,4.85557738 C1.65126316,4.88505952 1.61569006,4.9095119 1.58904094,4.89148214 L1.38333918,4.75250595 L1.17763743,4.89148214 C1.1509883,4.90947321 1.11549708,4.88505952 1.12532164,4.85557738 L1.20162573,4.62772917 L0.998216374,4.48573512 C0.971894737,4.46731845 0.985444444,4.42789286 1.01819298,4.42762202 L1.27105263,4.42580357 L1.35104094,4.19907738 C1.36131579,4.16975 1.4052807,4.16975 1.41563743,4.19907738 Z" id="Path"></path>
                        <path d="M2.38961988,0.0595059524 L2.46960819,0.286232143 L2.72246784,0.288050595 C2.75521637,0.288321429 2.76876608,0.327785714 2.74244444,0.34616369 L2.53903509,0.488157738 L2.61533918,0.716005952 C2.62524561,0.745488095 2.58967251,0.769940476 2.56302339,0.751910714 L2.35732164,0.612934524 L2.15161988,0.751910714 C2.12497076,0.769901786 2.08947953,0.745488095 2.09930409,0.716005952 L2.17560819,0.488157738 L1.97219883,0.34616369 C1.94587719,0.327747024 1.9594269,0.288321429 1.99217544,0.288050595 L2.24503509,0.286232143 L2.32502339,0.0595059524 C2.33533918,0.030139881 2.37926316,0.030139881 2.38961988,0.0595059524 Z" id="Path"></path>
                        <path d="M2.38961988,1.24552381 L2.46960819,1.47225 L2.72246784,1.47406845 C2.75521637,1.47433929 2.76876608,1.51380357 2.74244444,1.53218155 L2.53903509,1.6741756 L2.61533918,1.90202381 C2.62524561,1.93150595 2.58967251,1.95595833 2.56302339,1.93792857 L2.35732164,1.79895238 L2.15161988,1.93792857 C2.12497076,1.95591964 2.08947953,1.93150595 2.09930409,1.90202381 L2.17560819,1.6741756 L1.97219883,1.53218155 C1.94587719,1.51376488 1.9594269,1.47433929 1.99217544,1.47406845 L2.24503509,1.47225 L2.32502339,1.24552381 C2.33533918,1.21619643 2.37926316,1.21619643 2.38961988,1.24552381 Z" id="Path"></path>
                        <path d="M2.38961988,2.43154167 L2.46960819,2.65826786 L2.72246784,2.66008631 C2.75521637,2.66035714 2.76876608,2.69982143 2.74244444,2.7181994 L2.53903509,2.86019345 L2.61533918,3.08804167 C2.62524561,3.11752381 2.58967251,3.14197619 2.56302339,3.12394643 L2.35732164,2.98497024 L2.15161988,3.12394643 C2.12497076,3.1419375 2.08947953,3.11752381 2.09930409,3.08804167 L2.17560819,2.86019345 L1.97219883,2.7181994 C1.94587719,2.69978274 1.9594269,2.66035714 1.99217544,2.66008631 L2.24503509,2.65826786 L2.32502339,2.43154167 C2.33533918,2.40221429 2.37926316,2.40221429 2.38961988,2.43154167 Z" id="Path"></path>
                        <path d="M2.38961988,3.61759821 L2.46960819,3.8443244 L2.72246784,3.84614286 C2.75521637,3.84641369 2.76876608,3.88587798 2.74244444,3.90425595 L2.53903509,4.04625 L2.61533918,4.27409821 C2.62524561,4.30358036 2.58967251,4.32803274 2.56302339,4.31000298 L2.35732164,4.17102679 L2.15161988,4.31000298 C2.12497076,4.32799405 2.08947953,4.30358036 2.09930409,4.27409821 L2.17560819,4.04625 L1.97219883,3.90425595 C1.94587719,3.88583929 1.9594269,3.84641369 1.99217544,3.84614286 L2.24503509,3.8443244 L2.32502339,3.61759821 C2.33533918,3.58823214 2.37926316,3.58823214 2.38961988,3.61759821 Z" id="Path"></path>
                        <path d="M2.38961988,4.80361607 L2.46960819,5.03034226 L2.72246784,5.03216071 C2.75521637,5.03243155 2.76876608,5.07189583 2.74244444,5.09027381 L2.53903509,5.23226786 L2.61533918,5.46011607 C2.62524561,5.48959821 2.58967251,5.5140506 2.56302339,5.49602083 L2.35732164,5.35704464 L2.15161988,5.49602083 C2.12497076,5.5140119 2.08947953,5.48959821 2.09930409,5.46011607 L2.17560819,5.23226786 L1.97219883,5.09027381 C1.94587719,5.07185714 1.9594269,5.03243155 1.99217544,5.03216071 L2.24503509,5.03034226 L2.32502339,4.80361607 C2.33533918,4.77421131 2.37926316,4.77421131 2.38961988,4.80361607 Z" id="Path"></path>
                        <path d="M3.36364327,0.640985119 L3.44363158,0.86771131 L3.69649123,0.869529762 C3.72923977,0.869800595 3.74278947,0.909264881 3.71646784,0.927642857 L3.51305848,1.0696369 L3.58936257,1.29748512 C3.59926901,1.32696726 3.56369591,1.35141964 3.53704678,1.33338988 L3.33134503,1.19441369 L3.12564327,1.33338988 C3.09899415,1.35138095 3.06350292,1.32696726 3.07332749,1.29748512 L3.14963158,1.0696369 L2.94622222,0.927642857 C2.91990058,0.90922619 2.93345029,0.869800595 2.96619883,0.869529762 L3.21905848,0.86771131 L3.29904678,0.640985119 C3.30932164,0.611657738 3.35328655,0.611657738 3.36364327,0.640985119 Z" id="Path"></path>
                        <path d="M3.36364327,1.82704167 L3.44363158,2.05376786 L3.69649123,2.05558631 C3.72923977,2.05585714 3.74278947,2.09532143 3.71646784,2.1136994 L3.51305848,2.25569345 L3.58936257,2.48354167 C3.59926901,2.51302381 3.56369591,2.53747619 3.53704678,2.51944643 L3.33134503,2.38047024 L3.12564327,2.51944643 C3.09899415,2.5374375 3.06350292,2.5130625 3.07332749,2.48354167 L3.14963158,2.25569345 L2.94622222,2.1136994 C2.91990058,2.09528274 2.93345029,2.05585714 2.96619883,2.05558631 L3.21905848,2.05376786 L3.29904678,1.82704167 C3.30932164,1.7976756 3.35328655,1.7976756 3.36364327,1.82704167 Z" id="Path"></path>
                        <path d="M3.36364327,3.01305952 L3.44363158,3.23978571 L3.69649123,3.24160417 C3.72923977,3.241875 3.74278947,3.28133929 3.71646784,3.29971726 L3.51305848,3.44171131 L3.58936257,3.66955952 C3.59926901,3.69904167 3.56369591,3.72349405 3.53704678,3.70546429 L3.33134503,3.5664881 L3.12564327,3.70546429 C3.09899415,3.72345536 3.06350292,3.69904167 3.07332749,3.66955952 L3.14963158,3.44171131 L2.94622222,3.29971726 C2.91990058,3.2813006 2.93345029,3.241875 2.96619883,3.24160417 L3.21905848,3.23978571 L3.29904678,3.01305952 C3.30932164,2.98369345 3.35328655,2.98369345 3.36364327,3.01305952 Z" id="Path"></path>
                        <path d="M3.36364327,4.19907738 L3.44363158,4.42580357 L3.69649123,4.42762202 C3.72923977,4.42789286 3.74278947,4.46735714 3.71646784,4.48573512 L3.51305848,4.62772917 L3.58936257,4.85557738 C3.59926901,4.88505952 3.56369591,4.9095119 3.53704678,4.89148214 L3.33134503,4.75250595 L3.12564327,4.89148214 C3.09899415,4.90947321 3.06350292,4.88505952 3.07332749,4.85557738 L3.14963158,4.62772917 L2.94622222,4.48573512 C2.91990058,4.46731845 2.93345029,4.42789286 2.96619883,4.42762202 L3.21905848,4.42580357 L3.29904678,4.19907738 C3.30932164,4.16975 3.35328655,4.16975 3.36364327,4.19907738 Z" id="Path"></path>
                        <path d="M4.33762573,0.0595059524 L4.41761404,0.286232143 L4.67047368,0.288050595 C4.70322222,0.288321429 4.71677193,0.327785714 4.69045029,0.34616369 L4.48704094,0.488157738 L4.56334503,0.716005952 C4.57325146,0.745488095 4.53767836,0.769940476 4.51102924,0.751910714 L4.30528655,0.612934524 L4.0995848,0.751910714 C4.07293567,0.769901786 4.03744444,0.745488095 4.04726901,0.716005952 L4.1235731,0.488157738 L3.92016374,0.34616369 C3.89384211,0.327747024 3.90739181,0.288321429 3.94014035,0.288050595 L4.193,0.286232143 L4.2729883,0.0595059524 C4.28334503,0.030139881 4.32726901,0.030139881 4.33762573,0.0595059524 Z" id="Path"></path>
                        <path d="M4.33762573,1.24552381 L4.41761404,1.47225 L4.67047368,1.47406845 C4.70322222,1.47433929 4.71677193,1.51380357 4.69045029,1.53218155 L4.48704094,1.6741756 L4.56334503,1.90202381 C4.57325146,1.93150595 4.53767836,1.95595833 4.51102924,1.93792857 L4.30528655,1.79895238 L4.0995848,1.93792857 C4.07293567,1.95591964 4.03744444,1.93150595 4.04726901,1.90202381 L4.1235731,1.6741756 L3.92016374,1.53218155 C3.89384211,1.51376488 3.90739181,1.47433929 3.94014035,1.47406845 L4.193,1.47225 L4.2729883,1.24552381 C4.28334503,1.21619643 4.32726901,1.21619643 4.33762573,1.24552381 Z" id="Path"></path>
                        <path d="M4.33762573,2.43154167 L4.41761404,2.65826786 L4.67047368,2.66008631 C4.70322222,2.66035714 4.71677193,2.69982143 4.69045029,2.7181994 L4.48704094,2.86019345 L4.56334503,3.08804167 C4.57325146,3.11752381 4.53767836,3.14197619 4.51102924,3.12394643 L4.30528655,2.98497024 L4.0995848,3.12394643 C4.07293567,3.1419375 4.03744444,3.11752381 4.04726901,3.08804167 L4.1235731,2.86019345 L3.92016374,2.7181994 C3.89384211,2.69978274 3.90739181,2.66035714 3.94014035,2.66008631 L4.193,2.65826786 L4.2729883,2.43154167 C4.28334503,2.40221429 4.32726901,2.40221429 4.33762573,2.43154167 Z" id="Path"></path>
                        <path d="M4.33762573,3.61759821 L4.41761404,3.8443244 L4.67047368,3.84614286 C4.70322222,3.84641369 4.71677193,3.88587798 4.69045029,3.90425595 L4.48704094,4.04625 L4.56334503,4.27409821 C4.57325146,4.30358036 4.53767836,4.32803274 4.51102924,4.31000298 L4.30528655,4.17102679 L4.0995848,4.31000298 C4.07293567,4.32799405 4.03744444,4.30358036 4.04726901,4.27409821 L4.1235731,4.04625 L3.92016374,3.90425595 C3.89384211,3.88583929 3.90739181,3.84641369 3.94014035,3.84614286 L4.193,3.8443244 L4.2729883,3.61759821 C4.28334503,3.58823214 4.32726901,3.58823214 4.33762573,3.61759821 Z" id="Path"></path>
                        <path d="M4.33762573,4.80361607 L4.41761404,5.03034226 L4.67047368,5.03216071 C4.70322222,5.03243155 4.71677193,5.07189583 4.69045029,5.09027381 L4.48704094,5.23226786 L4.56334503,5.46011607 C4.57325146,5.48959821 4.53767836,5.5140506 4.51102924,5.49602083 L4.30528655,5.35704464 L4.0995848,5.49602083 C4.07293567,5.5140119 4.03744444,5.48959821 4.04726901,5.46011607 L4.1235731,5.23226786 L3.92016374,5.09027381 C3.89384211,5.07185714 3.90739181,5.03243155 3.94014035,5.03216071 L4.193,5.03034226 L4.2729883,4.80361607 C4.28334503,4.77421131 4.32726901,4.77421131 4.33762573,4.80361607 Z" id="Path"></path>
                        <path d="M5.31160819,0.640985119 L5.39159649,0.86771131 L5.64445614,0.869529762 C5.67720468,0.869800595 5.69075439,0.909264881 5.66443275,0.927642857 L5.46102339,1.0696369 L5.53732749,1.29748512 C5.54723392,1.32696726 5.51166082,1.35141964 5.4850117,1.33338988 L5.27930994,1.19441369 L5.07360819,1.33338988 C5.04695906,1.35138095 5.01146784,1.32696726 5.0212924,1.29748512 L5.09759649,1.0696369 L4.89418713,0.927642857 C4.8678655,0.90922619 4.8814152,0.869800595 4.91416374,0.869529762 L5.16702339,0.86771131 L5.2470117,0.640985119 C5.25736842,0.611657738 5.30125146,0.611657738 5.31160819,0.640985119 Z" id="Path"></path>
                        <path d="M5.31160819,1.82704167 L5.39159649,2.05376786 L5.64445614,2.05558631 C5.67720468,2.05585714 5.69075439,2.09532143 5.66443275,2.1136994 L5.46102339,2.25569345 L5.53732749,2.48354167 C5.54723392,2.51302381 5.51166082,2.53747619 5.4850117,2.51944643 L5.27930994,2.38047024 L5.07360819,2.51944643 C5.04695906,2.5374375 5.01146784,2.5130625 5.0212924,2.48354167 L5.09759649,2.25569345 L4.89418713,2.1136994 C4.8678655,2.09528274 4.8814152,2.05585714 4.91416374,2.05558631 L5.16702339,2.05376786 L5.2470117,1.82704167 C5.25736842,1.7976756 5.30125146,1.7976756 5.31160819,1.82704167 Z" id="Path"></path>
                        <path d="M5.31160819,3.01305952 L5.39159649,3.23978571 L5.64445614,3.24160417 C5.67720468,3.241875 5.69075439,3.28133929 5.66443275,3.29971726 L5.46102339,3.44171131 L5.53732749,3.66955952 C5.54723392,3.69904167 5.51166082,3.72349405 5.4850117,3.70546429 L5.27930994,3.5664881 L5.07360819,3.70546429 C5.04695906,3.72345536 5.01146784,3.69904167 5.0212924,3.66955952 L5.09759649,3.44171131 L4.89418713,3.29971726 C4.8678655,3.2813006 4.8814152,3.241875 4.91416374,3.24160417 L5.16702339,3.23978571 L5.2470117,3.01305952 C5.25736842,2.98369345 5.30125146,2.98369345 5.31160819,3.01305952 Z" id="Path"></path>
                        <path d="M5.31160819,4.19907738 L5.39159649,4.42580357 L5.64445614,4.42762202 C5.67720468,4.42789286 5.69075439,4.46735714 5.66443275,4.48573512 L5.46102339,4.62772917 L5.53732749,4.85557738 C5.54723392,4.88505952 5.51166082,4.9095119 5.4850117,4.89148214 L5.27930994,4.75250595 L5.07360819,4.89148214 C5.04695906,4.90947321 5.01146784,4.88505952 5.0212924,4.85557738 L5.09759649,4.62772917 L4.89418713,4.48573512 C4.8678655,4.46731845 4.8814152,4.42789286 4.91416374,4.42762202 L5.16702339,4.42580357 L5.2470117,4.19907738 C5.25736842,4.16975 5.30125146,4.16975 5.31160819,4.19907738 Z" id="Path"></path>
                        <path d="M6.28563158,0.0595059524 L6.36561988,0.286232143 L6.61847953,0.288050595 C6.65122807,0.288321429 6.66477778,0.327785714 6.63845614,0.34616369 L6.43504678,0.488157738 L6.51135088,0.716005952 C6.52125731,0.745488095 6.48568421,0.769940476 6.45903509,0.751910714 L6.25333333,0.612934524 L6.04763158,0.751910714 C6.02098246,0.769901786 5.98549123,0.745488095 5.99531579,0.716005952 L6.07161988,0.488157738 L5.86821053,0.34616369 C5.84188889,0.327747024 5.8554386,0.288321429 5.88818713,0.288050595 L6.14104678,0.286232143 L6.22103509,0.0595059524 C6.23130994,0.030139881 6.27527485,0.030139881 6.28563158,0.0595059524 Z" id="Path"></path>
                        <path d="M6.28563158,1.24552381 L6.36561988,1.47225 L6.61847953,1.47406845 C6.65122807,1.47433929 6.66477778,1.51380357 6.63845614,1.53218155 L6.43504678,1.6741756 L6.51135088,1.90202381 C6.52125731,1.93150595 6.48568421,1.95595833 6.45903509,1.93792857 L6.25333333,1.79895238 L6.04763158,1.93792857 C6.02098246,1.95591964 5.98549123,1.93150595 5.99531579,1.90202381 L6.07161988,1.6741756 L5.86821053,1.53218155 C5.84188889,1.51376488 5.8554386,1.47433929 5.88818713,1.47406845 L6.14104678,1.47225 L6.22103509,1.24552381 C6.23130994,1.21619643 6.27527485,1.21619643 6.28563158,1.24552381 Z" id="Path"></path>
                        <path d="M6.28563158,2.43154167 L6.36561988,2.65826786 L6.61847953,2.66008631 C6.65122807,2.66035714 6.66477778,2.69982143 6.63845614,2.7181994 L6.43504678,2.86019345 L6.51135088,3.08804167 C6.52125731,3.11752381 6.48568421,3.14197619 6.45903509,3.12394643 L6.25333333,2.98497024 L6.04763158,3.12394643 C6.02098246,3.1419375 5.98549123,3.11752381 5.99531579,3.08804167 L6.07161988,2.86019345 L5.86821053,2.7181994 C5.84188889,2.69978274 5.8554386,2.66035714 5.88818713,2.66008631 L6.14104678,2.65826786 L6.22103509,2.43154167 C6.23130994,2.40221429 6.27527485,2.40221429 6.28563158,2.43154167 Z" id="Path"></path>
                        <path d="M6.28563158,3.61759821 L6.36561988,3.8443244 L6.61847953,3.84614286 C6.65122807,3.84641369 6.66477778,3.88587798 6.63845614,3.90425595 L6.43504678,4.04625 L6.51135088,4.27409821 C6.52125731,4.30358036 6.48568421,4.32803274 6.45903509,4.31000298 L6.25333333,4.17102679 L6.04763158,4.31000298 C6.02098246,4.32799405 5.98549123,4.30358036 5.99531579,4.27409821 L6.07161988,4.04625 L5.86821053,3.90425595 C5.84188889,3.88583929 5.8554386,3.84641369 5.88818713,3.84614286 L6.14104678,3.8443244 L6.22103509,3.61759821 C6.23130994,3.58823214 6.27527485,3.58823214 6.28563158,3.61759821 Z" id="Path"></path>
                        <path d="M6.28563158,4.80361607 L6.36561988,5.03034226 L6.61847953,5.03216071 C6.65122807,5.03243155 6.66477778,5.07189583 6.63845614,5.09027381 L6.43504678,5.23226786 L6.51135088,5.46011607 C6.52125731,5.48959821 6.48568421,5.5140506 6.45903509,5.49602083 L6.25333333,5.35704464 L6.04763158,5.49602083 C6.02098246,5.5140119 5.98549123,5.48959821 5.99531579,5.46011607 L6.07161988,5.23226786 L5.86821053,5.09027381 C5.84188889,5.07185714 5.8554386,5.03243155 5.88818713,5.03216071 L6.14104678,5.03034226 L6.22103509,4.80361607 C6.23130994,4.77421131 6.27527485,4.77421131 6.28563158,4.80361607 Z" id="Path"></path>
                        <path d="M7.25961404,0.640985119 L7.33960234,0.86771131 L7.59246199,0.869529762 C7.62521053,0.869800595 7.63876023,0.909264881 7.6124386,0.927642857 L7.40902924,1.0696369 L7.48533333,1.29748512 C7.49523977,1.32696726 7.45966667,1.35141964 7.43301754,1.33338988 L7.22731579,1.19441369 L7.02161404,1.33338988 C6.99496491,1.35138095 6.95947368,1.32696726 6.96929825,1.29748512 L7.04560234,1.0696369 L6.84219298,0.927642857 C6.81587135,0.90922619 6.82942105,0.869800595 6.86216959,0.869529762 L7.11502924,0.86771131 L7.19501754,0.640985119 C7.20533333,0.611657738 7.24929825,0.611657738 7.25961404,0.640985119 Z" id="Path"></path>
                        <path d="M7.25961404,1.82704167 L7.33960234,2.05376786 L7.59246199,2.05558631 C7.62521053,2.05585714 7.63876023,2.09532143 7.6124386,2.1136994 L7.40902924,2.25569345 L7.48533333,2.48354167 C7.49523977,2.51302381 7.45966667,2.53747619 7.43301754,2.51944643 L7.22731579,2.38047024 L7.02161404,2.51944643 C6.99496491,2.5374375 6.95947368,2.5130625 6.96929825,2.48354167 L7.04560234,2.25569345 L6.84219298,2.1136994 C6.81587135,2.09528274 6.82942105,2.05585714 6.86216959,2.05558631 L7.11502924,2.05376786 L7.19501754,1.82704167 C7.20533333,1.7976756 7.24929825,1.7976756 7.25961404,1.82704167 Z" id="Path"></path>
                        <path d="M7.25961404,3.01305952 L7.33960234,3.23978571 L7.59246199,3.24160417 C7.62521053,3.241875 7.63876023,3.28133929 7.6124386,3.29971726 L7.40902924,3.44171131 L7.48533333,3.66955952 C7.49523977,3.69904167 7.45966667,3.72349405 7.43301754,3.70546429 L7.22731579,3.5664881 L7.02161404,3.70546429 C6.99496491,3.72345536 6.95947368,3.69904167 6.96929825,3.66955952 L7.04560234,3.44171131 L6.84219298,3.29971726 C6.81587135,3.2813006 6.82942105,3.241875 6.86216959,3.24160417 L7.11502924,3.23978571 L7.19501754,3.01305952 C7.20533333,2.98369345 7.24929825,2.98369345 7.25961404,3.01305952 Z" id="Path"></path>
                        <path d="M7.25961404,4.19907738 L7.33960234,4.42580357 L7.59246199,4.42762202 C7.62521053,4.42789286 7.63876023,4.46735714 7.6124386,4.48573512 L7.40902924,4.62772917 L7.48533333,4.85557738 C7.49523977,4.88505952 7.45966667,4.9095119 7.43301754,4.89148214 L7.22731579,4.75250595 L7.02161404,4.89148214 C6.99496491,4.90947321 6.95947368,4.88505952 6.96929825,4.85557738 L7.04560234,4.62772917 L6.84219298,4.48573512 C6.81587135,4.46731845 6.82942105,4.42789286 6.86216959,4.42762202 L7.11502924,4.42580357 L7.19501754,4.19907738 C7.20533333,4.16975 7.24929825,4.16975 7.25961404,4.19907738 Z" id="Path"></path>
                        <path d="M8.23363743,0.0595059524 L8.31362573,0.286232143 L8.56648538,0.288050595 C8.59923392,0.288321429 8.61278363,0.327785714 8.58646199,0.34616369 L8.38305263,0.488157738 L8.45935673,0.716005952 C8.46926316,0.745488095 8.43369006,0.769940476 8.40704094,0.751910714 L8.20133918,0.612934524 L7.99563743,0.751910714 C7.9689883,0.769901786 7.93349708,0.745488095 7.94332164,0.716005952 L8.01962573,0.488157738 L7.81621637,0.34616369 C7.78989474,0.327747024 7.80344444,0.288321429 7.83619298,0.288050595 L8.08905263,0.286232143 L8.16904094,0.0595059524 C8.17935673,0.030139881 8.22323977,0.030139881 8.23363743,0.0595059524 Z" id="Path"></path>
                        <path d="M8.23363743,1.24552381 L8.31362573,1.47225 L8.56648538,1.47406845 C8.59923392,1.47433929 8.61278363,1.51380357 8.58646199,1.53218155 L8.38305263,1.6741756 L8.45935673,1.90202381 C8.46926316,1.93150595 8.43369006,1.95595833 8.40704094,1.93792857 L8.20133918,1.79895238 L7.99563743,1.93792857 C7.9689883,1.95591964 7.93349708,1.93150595 7.94332164,1.90202381 L8.01962573,1.6741756 L7.81621637,1.53218155 C7.78989474,1.51376488 7.80344444,1.47433929 7.83619298,1.47406845 L8.08905263,1.47225 L8.16904094,1.24552381 C8.17935673,1.21619643 8.22323977,1.21619643 8.23363743,1.24552381 Z" id="Path"></path>
                        <path d="M8.23363743,2.43154167 L8.31362573,2.65826786 L8.56648538,2.66008631 C8.59923392,2.66035714 8.61278363,2.69982143 8.58646199,2.7181994 L8.38305263,2.86019345 L8.45935673,3.08804167 C8.46926316,3.11752381 8.43369006,3.14197619 8.40704094,3.12394643 L8.20133918,2.98497024 L7.99563743,3.12394643 C7.9689883,3.1419375 7.93349708,3.11752381 7.94332164,3.08804167 L8.01962573,2.86019345 L7.81621637,2.7181994 C7.78989474,2.69978274 7.80344444,2.66035714 7.83619298,2.66008631 L8.08905263,2.65826786 L8.16904094,2.43154167 C8.17935673,2.40221429 8.22323977,2.40221429 8.23363743,2.43154167 Z" id="Path"></path>
                        <path d="M8.23363743,3.61759821 L8.31362573,3.8443244 L8.56648538,3.84614286 C8.59923392,3.84641369 8.61278363,3.88587798 8.58646199,3.90425595 L8.38305263,4.04625 L8.45935673,4.27409821 C8.46926316,4.30358036 8.43369006,4.32803274 8.40704094,4.31000298 L8.20133918,4.17102679 L7.99563743,4.31000298 C7.9689883,4.32799405 7.93349708,4.30358036 7.94332164,4.27409821 L8.01962573,4.04625 L7.81621637,3.90425595 C7.78989474,3.88583929 7.80344444,3.84641369 7.83619298,3.84614286 L8.08905263,3.8443244 L8.16904094,3.61759821 C8.17935673,3.58823214 8.22323977,3.58823214 8.23363743,3.61759821 Z" id="Path"></path>
                        <path d="M8.23363743,4.80361607 L8.31362573,5.03034226 L8.56648538,5.03216071 C8.59923392,5.03243155 8.61278363,5.07189583 8.58646199,5.09027381 L8.38305263,5.23226786 L8.45935673,5.46011607 C8.46926316,5.48959821 8.43369006,5.5140506 8.40704094,5.49602083 L8.20133918,5.35704464 L7.99563743,5.49602083 C7.9689883,5.5140119 7.93349708,5.48959821 7.94332164,5.46011607 L8.01962573,5.23226786 L7.81621637,5.09027381 C7.78989474,5.07185714 7.80344444,5.03243155 7.83619298,5.03216071 L8.08905263,5.03034226 L8.16904094,4.80361607 C8.17935673,4.77421131 8.22323977,4.77421131 8.23363743,4.80361607 Z" id="Path"></path>
                    </g>
                </g>
            </g>
        </g>
    </g>
</svg>