<?xml version="1.0" encoding="UTF-8"?>
<svg width="67px" height="74px" viewBox="0 0 67 74" version="1.1" xmlns="http://www.w3.org/2000/svg" xmlns:xlink="http://www.w3.org/1999/xlink">
    <!-- Generator: Sketch 54 (76480) - https://sketchapp.com -->
    <title>Android For Promotions</title>
    <desc>Created with Sketch.</desc>
    <g id="Page-1" stroke="none" stroke-width="1" fill="none" fill-rule="evenodd">
        <g id="Android-App-Development" transform="translate(-820.000000, -2246.000000)" fill-rule="nonzero">
            <g id="Group-5" transform="translate(391.000000, 2045.000000)">
                <g id="Group-14">
                    <g id="Group-4" transform="translate(389.000000, 158.000000)">
                        <g id="Android-For-Promotions" transform="translate(40.000000, 43.000000)">
                            <path d="M50.4912601,45.1733755 C50.4946203,40.8279204 53.3916147,37.0227386 57.5632152,35.8844122 C57.6419327,35.8631184 57.7212511,35.8436367 57.8005695,35.8240041 C53.9443656,34.8837002 49.9109654,36.4334395 47.6616246,39.7196556 C45.4122837,43.0058716 45.4137137,47.3467136 47.6652193,50.6314312 C49.9167248,53.9161488 53.9511452,55.463202 57.8067287,54.5203306 C53.518161,53.4698908 50.4978067,49.6107919 50.4912601,45.1733755 L50.4912601,45.1733755 Z" id="Path" fill="#D4E1F4"/>
                            <path d="M7.81165919,71.5836735 L7.81165919,64.6367347 C7.81165919,64.3031096 8.08068988,64.0326531 8.41255605,64.0326531 L2.40358744,64.0326531 C2.07172127,64.0326531 1.80269058,64.3031096 1.80269058,64.6367347 L1.80269058,71.5836735 C1.80269058,71.9172985 2.07172127,72.1877551 2.40358744,72.1877551 L8.41255605,72.1877551 C8.08068988,72.1877551 7.81165919,71.9172985 7.81165919,71.5836735 Z" id="Path" fill="#D4E1F4"/>
                            <path d="M10.8484417,43.9564531 C10.6973194,43.7706372 10.6259198,43.5320252 10.6499861,43.2932306 C10.6740525,43.054436 10.7916085,42.8350699 10.9767332,42.683502 L11.867713,41.9714408 L11.867713,39.9719306 C11.8435451,38.9767303 12.2074652,38.0114856 12.8817265,37.2824082 L19.9798206,31.5640204 L19.9798206,26.7230612 L6.87275785,37.2824082 C6.19849658,38.0114856 5.83457653,38.9767303 5.85874439,39.9719306 L5.85874439,62.2204082 L11.867713,62.2204082 L11.867713,44.2464122 C11.5012153,44.3782555 11.0918747,44.2618075 10.8484417,43.9564531 L10.8484417,43.9564531 Z" id="Path" fill="#D4E1F4"/>
                            <path d="M26.2892377,45.6309673 L26.2892377,43.5207592 L28.9853117,40.847698 C30.737606,39.0927584 30.7460067,36.2430066 29.0040897,34.4776571 L28.1698946,33.6296776 C27.8333899,33.3042683 27.3109482,33.2746266 26.9401592,33.5599061 L26.2892377,34.0522327 L26.2892377,4.16906939 C26.3207541,2.87458043 27.3617124,1.835165 28.6495605,1.8122449 L24.1428341,1.8122449 C22.8549859,1.835165 21.8140276,2.87458043 21.7825112,4.16906939 L21.7825112,34.0522327 L22.4334327,33.5602082 C22.8042217,33.2749286 23.3266634,33.3045704 23.6631682,33.6299796 L24.4973632,34.4779592 C26.2392802,36.2433086 26.2308795,39.0930605 24.4785852,40.848 L21.7825112,43.5207592 L21.7825112,45.6309673 C21.7825112,46.8978776 22.8827534,47.8734694 24.1428341,47.8734694 L28.6495605,47.8734694 C27.3894798,47.8734694 26.2892377,46.8978776 26.2892377,45.6309673 Z" id="Path" fill="#D4E1F4"/>
                            <path d="M27.4910314,71.5241714 L27.4910314,64.5896163 C27.497032,63.9578567 27.2494193,63.3503452 26.8041853,62.9044568 C26.3589514,62.4585684 25.7537019,62.2119642 25.1253004,62.2204082 L24.4865471,62.2204082 L24.4865471,60.4330816 C27.190583,59.9976898 29.1434978,57.6379959 29.1434978,54.8013796 L29.1434978,49.6857143 L45.6681614,49.6857143 L45.6681614,47.8734694 L24.1428341,47.8734694 C22.8827534,47.8734694 21.7825112,46.8978776 21.7825112,45.6309673 L21.7825112,43.5207592 L24.4785852,40.847698 C26.2308795,39.0927584 26.2392802,36.2430066 24.4973632,34.4776571 L23.6631682,33.6296776 C23.3266634,33.3042683 22.8042217,33.2746266 22.4334327,33.5599061 L21.7825112,34.0522327 L21.7825112,4.16906939 C21.8140276,2.87458043 22.8549859,1.835165 24.1428341,1.8122449 L39.2085202,1.8122449 L39.2085202,10.5759592 C39.2033717,11.6581367 39.6288657,12.6974568 40.3902527,13.462482 C41.1516397,14.2275072 42.185701,14.654717 43.2621704,14.6489796 L51.9775785,14.6489796 L51.9775785,35.0367347 L53.7802691,35.0367347 L53.7802691,13.7794041 C53.7696459,13.535678 53.6646828,13.3057789 53.4877825,13.1387755 L40.7271368,0.295093878 C40.5555338,0.116529374 40.3223524,0.0109145803 40.0756143,0 L24.1428341,0 C21.8887197,-2.68266135e-16 19.9798206,1.90285714 19.9798206,4.16906939 L19.9798206,24.404898 L5.68163004,35.9016286 C5.65338789,35.9244327 5.66660762,35.948898 5.64152018,35.9750245 C4.60773355,37.0439178 4.03759986,38.4812053 4.05605381,39.9719306 L4.05605381,62.2204082 L2.47869955,62.2204082 C1.15342152,62.2204082 0,63.2573143 0,64.5896163 L0,71.5241714 C0.0320300909,72.8841759 1.12568681,73.9765659 2.47869955,74 L25.1253004,74 C26.4505785,74 27.4910314,72.8564735 27.4910314,71.5241714 Z M41.0112108,10.5759592 L41.0112108,3.1531551 L50.645991,12.8367347 L43.2621704,12.8367347 C42.6636648,12.8429688 42.087835,12.6068518 41.6644071,12.1815775 C41.2409793,11.7563032 41.005569,11.1776425 41.0112108,10.5759592 L41.0112108,10.5759592 Z M5.85874439,39.9719306 C5.83457653,38.9767303 6.19849658,38.0114856 6.87275785,37.2824082 L19.9798206,26.7230612 L19.9798206,35.4872286 L10.9767332,42.683502 C10.7916085,42.8350699 10.6740525,43.054436 10.6499861,43.2932306 C10.6259198,43.5320252 10.6973194,43.7706372 10.8484417,43.9564531 C11.1613238,44.3490978 11.7304393,44.4150638 12.1239955,44.104302 L22.96087,35.4819429 L23.2392354,35.7595184 C24.2841178,36.8112743 24.2846555,38.5149247 23.2404372,39.5673469 L18.1792332,44.6552245 C18.0228689,44.8125408 17.9295135,45.0221717 17.9169417,45.2442041 L17.8532466,46.353902 C17.8521951,46.3712694 17.8517444,46.3886367 17.8517444,46.4061551 C17.8568955,47.2464702 18.0475065,48.0751612 18.4098274,48.832449 C19.2335117,50.5995955 19.0842178,52.6701311 18.015639,54.2993878 C17.9206813,54.4493775 17.8723063,54.6243979 17.8766816,54.8021347 L17.8766816,57.2007918 C17.8766816,57.7012294 18.2802276,58.1069143 18.7780269,58.1069143 C19.2758262,58.1069143 19.6793722,57.7012294 19.6793722,57.2007918 L19.6793722,55.0658163 C20.8811659,52.9604408 21.1012444,50.3029347 20.0538812,48.0611878 C19.8066746,47.5526354 19.6725733,46.9960721 19.6608946,46.4301673 L19.6626973,45.6928857 L19.9798206,45.3330041 L19.9798206,45.6309673 C19.9798206,47.8962735 21.8887197,49.6857143 24.1428341,49.6857143 L27.3408072,49.6857143 L27.3408072,54.8013796 C27.3526294,55.8270096 26.9565209,56.8149138 26.2404881,57.5456025 C25.5244553,58.2762913 24.5478011,58.6892477 23.5275157,58.6927224 C23.2943767,58.6952065 23.0723836,58.7934049 22.9130573,58.9645275 C22.7537309,59.1356501 22.6709247,59.3648179 22.6838565,59.5988449 L22.6838565,62.2204082 L5.85874439,62.2204082 L5.85874439,39.9719306 Z M25.6883408,71.5836735 C25.6883408,71.9172985 25.4193101,72.1877551 25.0874439,72.1877551 L2.40358744,72.1877551 C2.07172127,72.1877551 1.80269058,71.9172985 1.80269058,71.5836735 L1.80269058,64.6367347 C1.80269058,64.3031096 2.07172127,64.0326531 2.40358744,64.0326531 L25.0874439,64.0326531 C25.4193101,64.0326531 25.6883408,64.3031096 25.6883408,64.6367347 L25.6883408,71.5836735 Z" id="Shape" fill="#016FFF"/>
                            <path d="M6.16640359,65.4116204 C5.04842126,65.3869442 4.0268073,66.045002 3.58191427,67.0763816 C3.13702125,68.1077612 3.35737204,69.3072433 4.13935993,70.1108434 C4.92134782,70.9144435 6.10937626,71.1622648 7.14484627,70.7377843 C8.18031627,70.3133037 8.85719454,69.3009826 8.85721973,68.1768041 C8.87174272,66.6670359 7.66816869,65.430198 6.16640359,65.4116204 Z M6.16640359,69.1297429 C5.77741785,69.1552151 5.4124383,68.9391851 5.24587439,68.5848851 C5.07931048,68.2305851 5.14497877,67.8099467 5.41149894,67.5239765 C5.67801912,67.2380064 6.09128106,67.1447634 6.45380305,67.2888048 C6.81632503,67.4328462 7.05450623,67.784928 7.05452915,68.1768041 C7.06988796,68.6860631 6.67290377,69.1120182 6.16640359,69.1297429 L6.16640359,69.1297429 Z" id="Shape" fill="#016FFF"/>
                            <path d="M39.5089686,18.4244898 C39.5089686,17.9240522 39.1054226,17.5183673 38.6076233,17.5183673 L35.1524664,17.5183673 C34.6546671,17.5183673 34.2511211,17.9240522 34.2511211,18.4244898 L34.2511211,32.1673469 C34.2511211,32.6677845 34.6546671,33.0734694 35.1524664,33.0734694 L38.6076233,33.0734694 C39.1054226,33.0734694 39.5089686,32.6677845 39.5089686,32.1673469 L39.5089686,18.4244898 Z M36.0538117,19.3306122 L37.706278,19.3306122 L37.706278,31.2612245 L36.0538117,31.2612245 L36.0538117,19.3306122 Z" id="Shape" fill="#016FFF"/>
                            <path d="M32.7488789,25.3714286 C32.7488789,24.870991 32.3453329,24.4653061 31.8475336,24.4653061 L28.3923767,24.4653061 C27.8945774,24.4653061 27.4910314,24.870991 27.4910314,25.3714286 L27.4910314,32.1673469 C27.4910314,32.6677845 27.8945774,33.0734694 28.3923767,33.0734694 L31.8475336,33.0734694 C32.3453329,33.0734694 32.7488789,32.6677845 32.7488789,32.1673469 L32.7488789,25.3714286 Z M29.293722,26.277551 L30.7959641,26.277551 L30.7959641,31.2612245 L29.293722,31.2612245 L29.293722,26.277551 Z" id="Shape" fill="#016FFF"/>
                            <path d="M46.4192825,22.955102 C46.4192825,22.4546644 46.0157365,22.0489796 45.5179372,22.0489796 L42.0627803,22.0489796 C41.564981,22.0489796 41.161435,22.4546644 41.161435,22.955102 L41.161435,32.1673469 C41.161435,32.6677845 41.564981,33.0734694 42.0627803,33.0734694 L45.5179372,33.0734694 C46.0157365,33.0734694 46.4192825,32.6677845 46.4192825,32.1673469 L46.4192825,22.955102 Z M42.9641256,23.8612245 L44.4663677,23.8612245 L44.4663677,31.2612245 L42.9641256,31.2612245 L42.9641256,23.8612245 Z" id="Shape" fill="#016FFF"/>
                            <path d="M29.2186099,37.6040816 C29.2186099,38.1045192 29.6221559,38.5102041 30.1199552,38.5102041 L43.4899103,38.5102041 C43.9877096,38.5102041 44.3912556,38.1045192 44.3912556,37.6040816 C44.3912556,37.103644 43.9877096,36.6979592 43.4899103,36.6979592 L30.1199552,36.6979592 C29.6221559,36.6979592 29.2186099,37.103644 29.2186099,37.6040816 Z" id="Path" fill="#016FFF"/>
                            <path d="M30.1199552,41.9836735 C29.6221559,41.9836735 29.2186099,42.3893583 29.2186099,42.8897959 C29.2186099,43.3902335 29.6221559,43.7959184 30.1199552,43.7959184 L36.4293722,43.7959184 C36.9271715,43.7959184 37.3307175,43.3902335 37.3307175,42.8897959 C37.3307175,42.3893583 36.9271715,41.9836735 36.4293722,41.9836735 L30.1199552,41.9836735 Z" id="Path" fill="#016FFF"/>
                            <path d="M55.5529148,33.7415837 C50.953381,33.7415837 46.806747,36.5269607 45.0465816,40.7988979 C43.2864162,45.070835 44.259354,49.9880473 47.5117155,53.2576465 C50.764077,56.5272456 55.6553654,57.5053399 59.9047805,55.7358456 C64.1541956,53.9663513 66.9248879,49.79774 66.9248879,45.1738286 C66.9058338,38.8679254 61.8255727,33.7607387 55.5529148,33.7415837 L55.5529148,33.7415837 Z M55.5529148,54.7929224 C50.267946,54.7929224 45.9836323,50.4859017 45.9836323,45.1729224 C45.9836323,39.8599432 50.267946,35.5529224 55.5529148,35.5529224 C60.8378836,35.5529224 65.1221973,39.8599432 65.1221973,45.1729224 C65.1164845,50.483521 60.8355154,54.7871793 55.5529148,54.7929224 Z" id="Shape" fill="#43D92D"/>
                            <path d="M55.5529148,40.8863592 C56.4651007,40.887441 57.204305,41.6305632 57.2053812,42.5475837 C57.2053812,43.0480213 57.6089272,43.4537061 58.1067265,43.4537061 C58.6075102,43.4549962 59.0161005,43.0509742 59.0230942,42.5475837 C59.0405103,40.977392 57.9944938,39.5960523 56.4843049,39.1949306 L56.4843049,38.5698571 C56.4843049,38.0694195 56.0807589,37.6637347 55.5829596,37.6637347 C55.0851604,37.6637347 54.6816143,38.0694195 54.6816143,38.5698571 L54.6816143,39.1949306 C53.0062768,39.6415852 51.9199706,41.2676648 52.1425155,42.9956793 C52.3650603,44.7236938 53.8274783,46.0180437 55.5607265,46.0210531 C56.4583587,46.0384009 57.1779902,46.7730763 57.1814191,47.6756261 C57.1848479,48.578176 56.4708195,49.3183558 55.5733453,49.3425959 C55.5671861,49.3425959 55.560426,49.3416898 55.5542668,49.3416898 C55.5481076,49.3416898 55.5417982,49.3416898 55.535639,49.3425959 C54.6304547,49.3322648 53.9017056,48.5923171 53.9004484,47.6822776 C53.9004484,47.1818399 53.4969024,46.7761551 52.9991031,46.7761551 C52.7616251,46.7768175 52.5342853,46.8729838 52.3677793,47.0432093 C52.2012734,47.2134349 52.1094481,47.4435635 52.1127803,47.6822776 C52.1083143,49.2579871 53.1649896,50.6370818 54.6816143,51.0349306 L54.6816143,51.7770449 C54.6816143,52.2774825 55.0851604,52.6831673 55.5829596,52.6831673 C56.0807589,52.6831673 56.4843049,52.2774825 56.4843049,51.7770449 L56.4843049,51.0349306 C57.9944938,50.6338089 59.0405103,49.2524692 59.0230942,47.6822776 C59.0174681,45.7633927 57.4693522,44.2103803 55.5605762,44.2088082 C54.9702069,44.21013 54.4239816,43.8947239 54.1276581,43.3814002 C53.8313347,42.8680765 53.8299317,42.2348213 54.1239776,41.7201757 C54.4180236,41.2055301 54.9628459,40.8876811 55.5532152,40.8863592 L55.5529148,40.8863592 Z" id="Path" fill="#43D92D"/>
                        </g>
                    </g>
                </g>
            </g>
        </g>
    </g>
</svg>