<?xml version="1.0" encoding="UTF-8"?>
<svg width="67px" height="71px" viewBox="0 0 67 71" version="1.1" xmlns="http://www.w3.org/2000/svg" xmlns:xlink="http://www.w3.org/1999/xlink">
    <!-- Generator: Sketch 54 (76480) - https://sketchapp.com -->
    <title>Easy to Integrate</title>
    <desc>Created with Sketch.</desc>
    <g id="Page-1" stroke="none" stroke-width="1" fill="none" fill-rule="evenodd">
        <g id="Java-App-Development" transform="translate(-438.000000, -2576.000000)" fill-rule="nonzero">
            <g id="Group-5" transform="translate(391.000000, 2026.000000)">
                <g id="Group-4" transform="translate(0.000000, 497.000000)">
                    <g id="Easy-to-Integrate" transform="translate(47.000000, 53.000000)">
                        <g id="Group" transform="translate(1.802691, 47.684322)" fill="#D4E1F4">
                            <path d="M1.87509865,0.625461864 C1.87551268,0.286372722 2.14997487,0.0116133162 2.48861435,0.0112817797 L0.685923767,0.0112817797 C0.347284282,0.0116133162 0.0728220973,0.286372722 0.0724080717,0.625461864 L0.0724080717,18.8981843 L1.87509865,15.4211398 L1.87509865,0.625461864 Z" id="Path"/>
                            <path d="M9.94995067,9.67901483 L8.14726009,9.67901483 C7.47139425,9.67944103 6.83585629,10.0010931 6.43470404,10.5457564 L0.749168161,21.5105932 L2.55185874,21.5105932 L8.2366435,10.5457564 C8.63795285,10.00088 9.27382022,9.67920232 9.94995067,9.67901483 L9.94995067,9.67901483 Z" id="Path"/>
                            <path d="M37.928009,0.625461864 C37.928423,0.286372722 38.2028852,0.0116133162 38.5415247,0.0112817797 L36.7388341,0.0112817797 C36.4001946,0.0116133162 36.1257324,0.286372722 36.1253184,0.625461864 L36.1253184,18.8981843 L37.928009,15.4211398 L37.928009,0.625461864 Z" id="Path"/>
                            <path d="M46.002861,9.67901483 L44.2001704,9.67901483 C43.52404,9.67920232 42.8881726,10.00088 42.4868632,10.5457564 L36.8020785,21.5105932 L38.6047691,21.5105932 L44.2895538,10.5457564 C44.6908632,10.00088 45.3267305,9.67920232 46.002861,9.67901483 L46.002861,9.67901483 Z" id="Path"/>
                        </g>
                        <path d="M54.4774596,35.7054788 C53.0807833,35.707539 51.8506914,36.6263813 51.4507422,37.9663475 L36.7927646,37.9663475 C36.4865143,36.9444332 35.6879945,36.1449659 34.6673924,35.8384534 L34.6673924,28.2238538 L40.0870314,28.2238538 L40.0870314,32.4283475 C40.0870314,32.9268078 40.4905774,33.3308898 40.9883767,33.3308898 L48.1453587,33.3308898 C48.643158,33.3308898 49.046704,32.9268078 49.046704,32.4283475 L49.046704,28.2238538 L51.7258027,28.2238538 C52.2236019,28.2238538 52.627148,27.8197718 52.627148,27.3213114 L52.627148,7.4309322 C52.6271523,6.93393673 52.2258903,6.53046064 51.7295583,6.52838983 L33.7016009,6.4546822 L33.7016009,5.19413136 C33.7526756,5.02482158 33.7526756,4.84417842 33.7016009,4.67486864 L33.7016009,0.902542373 C33.7016009,0.404081984 33.2980549,-1.13686838e-13 32.8002556,-1.13686838e-13 L27.4309417,-1.13686838e-13 C26.9331424,-1.1422125e-13 26.5295964,0.404081984 26.5295964,0.902542373 L26.5295964,6.40444068 L24.4973632,6.38353178 L24.4973632,2.97613347 C24.4973632,2.47767309 24.0938172,2.0735911 23.5960179,2.0735911 L19.570009,2.0735911 C17.6718007,2.07597315 16.1110606,3.57266129 16.0266704,5.47151271 C16.0245673,5.49693432 16.0227646,5.52265678 16.0227646,5.54883051 L16.0227646,24.6717479 C16.0249996,26.6325353 17.6118223,28.2215328 19.570009,28.2238538 L32.864852,28.2238538 L32.864852,35.8384534 C31.8441636,36.1451251 31.0456786,36.9448401 30.73963,37.9669492 L16.0816525,37.9669492 C15.650955,36.5166448 14.2547187,35.5749643 12.7506519,35.7203823 C11.2465852,35.8658002 10.0560714,37.057576 9.91044366,38.5636013 C9.7648159,40.0696267 10.7048736,41.4679694 12.153139,41.8996271 L12.153139,49.7558072 L13.9558296,49.7558072 L13.9558296,41.8996271 C14.9765326,41.5933023 15.775229,40.7939409 16.0816525,39.7720339 L30.73963,39.7720339 C31.13754,41.1134182 32.3687445,42.0332982 33.7661973,42.0332982 C35.1636501,42.0332982 36.3948546,41.1134182 36.7927646,39.7720339 L51.4507422,39.7720339 C51.756906,40.7940635 52.5554403,41.5936583 53.5761143,41.9002288 L53.5761143,49.7564089 L55.3788049,49.7564089 L55.3788049,41.8996271 C56.882638,41.4518862 57.8302968,39.9666955 57.6040826,38.4121254 C57.3778684,36.8575553 56.0463619,35.7049003 54.4774596,35.7054788 L54.4774596,35.7054788 Z M41.889722,31.5258051 L41.889722,11.3281102 L47.2440135,11.3281102 L47.2440135,13.5164746 L45.6666592,13.5164746 C45.1688599,13.5164746 44.7653139,13.9205566 44.7653139,14.4190169 C44.7653139,14.9174773 45.1688599,15.3215593 45.6666592,15.3215593 L47.2440135,15.3215593 L47.2440135,17.0493263 L45.6666592,17.0493263 C45.1688599,17.0493263 44.7653139,17.4534083 44.7653139,17.9518686 C44.7653139,18.450329 45.1688599,18.854411 45.6666592,18.854411 L47.2440135,18.854411 L47.2440135,20.5435191 L45.6666592,20.5435191 C45.1688599,20.5435191 44.7653139,20.9476011 44.7653139,21.4460614 C44.7653139,21.9445218 45.1688599,22.3486038 45.6666592,22.3486038 L47.2440135,22.3486038 L47.2440135,24.0377119 L45.6666592,24.0377119 C45.1688599,24.0377119 44.7653139,24.4417938 44.7653139,24.9402542 C44.7653139,25.4387146 45.1688599,25.8427966 45.6666592,25.8427966 L47.2440135,25.8427966 L47.2440135,31.5258051 L41.889722,31.5258051 Z M28.332287,5.83644068 L31.8984596,5.83644068 L31.8984596,17.8152839 L30.1154484,20.7738178 L28.332287,17.8158856 L28.332287,5.83644068 Z M31.8989103,1.80508475 L31.8989103,4.03135593 L28.332287,4.03135593 L28.332287,1.80508475 L31.8989103,1.80508475 Z M19.5698587,3.87867585 L22.6945224,3.87867585 L22.6945224,19.7372479 L19.5698587,19.7372479 C18.9582212,19.7367576 18.3569902,19.8957021 17.8253049,20.198447 L17.8253049,5.62584746 C17.8262983,4.66144095 18.6067316,3.87983657 19.5698587,3.87867585 L19.5698587,3.87867585 Z M17.8253049,24.6717479 L17.8253049,23.2893538 C17.826381,22.325006 18.6067901,21.5434932 19.5698587,21.5423326 L23.5958677,21.5423326 C24.093667,21.5423326 24.497213,21.1382506 24.497213,20.6397903 L24.497213,8.18876695 L26.5294462,8.20982627 L26.5294462,18.0669428 C26.5293982,18.2313085 26.5742289,18.3925595 26.6590897,18.5332564 L29.3435964,22.9876038 C29.5067781,23.2582548 29.7994921,23.4236782 30.1152231,23.4236782 C30.4309541,23.4236782 30.7236681,23.2582548 30.8868498,22.9876038 L33.5713565,18.5332564 C33.6561326,18.3925229 33.7009565,18.231296 33.701,18.0669428 L33.701,8.25931568 L50.8238565,8.32941314 L50.8238565,26.4187691 L49.046704,26.4187691 L49.046704,25.0950403 C49.0655321,24.9931657 49.0655321,24.8886965 49.046704,24.786822 L49.046704,21.6008475 C49.0655321,21.498973 49.0655321,21.3945037 49.046704,21.2926292 L49.046704,18.1059025 C49.0655321,18.004028 49.0655321,17.8995588 49.046704,17.7976843 L49.046704,14.5732013 C49.0655321,14.4713268 49.0655321,14.3668576 49.046704,14.2649831 L49.046704,10.4255678 C49.046704,9.92710741 48.643158,9.52302542 48.1453587,9.52302542 L40.9883767,9.52302542 C40.4905774,9.52302542 40.0870314,9.92710741 40.0870314,10.4255678 L40.0870314,26.4187691 L19.5698587,26.4187691 C18.6067901,26.4176085 17.826381,25.6360956 17.8253049,24.6717479 L17.8253049,24.6717479 Z M13.0544843,40.2275169 C12.3052526,40.2274339 11.697932,39.6192169 11.6979597,38.8689901 C11.6979873,38.1187633 12.3053527,37.5105913 13.0545845,37.5105636 C13.8038162,37.5105359 14.4112265,38.118663 14.4113094,38.8688898 C14.4105641,39.6189295 13.8035292,40.2267707 13.0544843,40.2275169 L13.0544843,40.2275169 Z M33.7655964,40.2275169 C33.2168453,40.2274561 32.72217,39.8963864 32.5122563,39.3886983 C32.3023426,38.8810101 32.4185336,38.2966943 32.8066452,37.9082394 C33.1947568,37.5197845 33.7783489,37.403698 34.2852707,37.6141154 C34.7921924,37.8245328 35.1226038,38.3200117 35.1224215,38.8694915 C35.1213457,39.6191203 34.5146817,40.2265227 33.7660471,40.2275169 L33.7655964,40.2275169 Z M54.477009,40.2275169 C53.7277381,40.2276 53.1202668,39.6194566 53.1201839,38.8691907 C53.1201009,38.1189247 53.7274377,37.5106467 54.4767085,37.5105636 C55.2259794,37.5104805 55.8334507,38.1186239 55.8335336,38.8688898 C55.8326241,39.6185678 55.2261426,40.2261911 54.4774596,40.2275169 L54.477009,40.2275169 Z" id="Shape" fill="#24527a"/>
                        <path d="M44.5163924,26.6874258 C43.6399154,26.687365 42.8497082,27.2159964 42.5142528,28.0268136 C42.1787975,28.8376307 42.3641584,29.7709518 42.9838997,30.3915593 C43.6036411,31.0121667 44.5357115,31.1978385 45.3454764,30.8619939 C46.1552414,30.5261492 46.6832265,29.7349292 46.6832265,28.8572881 C46.681902,27.6595148 45.712577,26.6888351 44.5163924,26.6874258 L44.5163924,26.6874258 Z M44.5163924,29.2219153 C44.369022,29.2219761 44.2361317,29.1331232 44.1797074,28.9968015 C44.1232831,28.8604799 44.154441,28.7035461 44.2586476,28.5992011 C44.3628542,28.4948561 44.5195799,28.4636568 44.6557207,28.520156 C44.7918616,28.5766552 44.8805966,28.709722 44.8805359,28.8572881 C44.8803702,29.0585974 44.7174346,29.2217494 44.5163924,29.2219153 L44.5163924,29.2219153 Z" id="Shape" fill="#24527a"/>
                        <path d="M64.5091323,55.5582521 L62.0755,55.5582521 L62.0755,51.2725297 C62.0740924,49.9369908 60.9932114,48.8546743 59.6594439,48.8532648 L49.5643767,48.8532648 C49.4239796,48.8530453 49.2878709,48.8048026 49.1786009,48.7165297 L46.3524327,46.4284343 C45.9221025,46.0810077 45.3861483,45.8912215 44.8333655,45.8905191 L38.7067713,45.8905191 C37.3730039,45.8919285 36.2921228,46.9742451 36.2907152,48.3097839 L36.2907152,68.5807352 C36.2901715,69.1548064 36.4944292,69.7101927 36.8666749,70.1467966 C36.8741861,70.155822 36.8816973,70.164697 36.8896592,70.173572 C37.3477537,70.6988832 38.0103011,71.0002117 38.7067713,71 L60.2849776,71 C61.1600864,70.9995234 61.9666812,70.5257387 62.3941256,69.7611102 C62.4131263,69.7270992 62.4299843,69.6919317 62.4446009,69.6558136 L66.6496771,59.1010318 C67.0420614,58.3510564 67.0143786,57.4502566 66.5766849,56.7258585 C66.1389911,56.0014603 65.3549725,55.5588663 64.5094327,55.5588538 L64.5091323,55.5582521 Z M38.0934058,66.5825064 L38.0934058,48.3097839 C38.0938197,47.9707534 38.3681905,47.6960182 38.7067713,47.6956038 L44.8318632,47.6956038 C44.9722051,47.6957304 45.1082807,47.743927 45.2174888,47.8321886 L48.043657,50.1202839 C48.4739713,50.4678611 49.0100094,50.6577113 49.5628744,50.6583496 L59.6579417,50.6583496 C59.9965225,50.658764 60.2708933,50.9334992 60.2713072,51.2725297 L60.2713072,55.5582521 L46.1681076,55.5582521 C44.8841628,55.5586547 43.6812362,56.1865503 42.945648,57.2402903 C42.9231786,57.2725915 42.9028062,57.3063058 42.884657,57.3412246 L38.0934058,66.5825064 Z M65.0445314,58.277161 C65.025577,58.3111732 65.008769,58.3463409 64.9942063,58.3824576 L60.796491,68.9188877 C60.6830114,69.0909776 60.4909241,69.1946335 60.2849776,69.1949153 L38.7701659,69.1949153 L44.4549507,58.2300784 C44.856087,57.6853962 45.4916351,57.363739 46.1675067,57.3633369 L64.5091323,57.3633369 C64.726775,57.3632513 64.9281561,57.4786869 65.0382865,57.6666585 C65.1484169,57.8546301 65.1507935,58.08697 65.0445314,58.277161 L65.0445314,58.277161 Z" id="Shape" fill="#43D92D"/>
                        <path d="M28.2909753,55.5582521 L25.857343,55.5582521 L25.857343,51.2725297 C25.8559353,49.9369322 24.7749629,48.8545914 23.4411368,48.8532648 L13.3460695,48.8532648 C13.205724,48.853011 13.0696738,48.8047703 12.9604439,48.7165297 L10.1326233,46.4284343 C9.70230506,46.0809863 9.16634303,45.8911974 8.61355605,45.8905191 L2.48861435,45.8905191 C1.15478825,45.8918456 0.0738158023,46.9741864 0.0724080717,48.3097839 L0.0724080717,68.5807352 C0.0718833771,69.1540917 0.275688991,69.7088208 0.647165919,70.1451419 C0.655428251,70.1553708 0.663991031,70.1652987 0.67285426,70.1752267 C1.13091892,70.6995996 1.79286929,71.0002775 2.48861435,71 L24.0659193,71 C24.9410281,70.9995234 25.7476229,70.5257387 26.1750673,69.7611102 C26.194068,69.7270992 26.210926,69.6919317 26.2255426,69.6558136 L30.4306188,59.1010318 C30.8230843,58.3510887 30.7954612,57.4502699 30.3577852,56.7258503 C29.9201093,56.0014307 29.1360735,55.5588319 28.2905247,55.5588538 L28.2909753,55.5582521 Z M1.87509865,66.5825064 L1.87509865,48.3097839 C1.87551268,47.9706948 2.14997487,47.6959354 2.48861435,47.6956038 L8.61355605,47.6956038 C8.75390626,47.6956819 8.88999746,47.7438841 8.99918161,47.8321886 L11.8258004,50.1211864 C12.2560086,50.4686233 12.791873,50.6584152 13.3445673,50.6591017 L23.4403857,50.6591017 C23.7790251,50.6594332 24.0534873,50.9341926 24.0539013,51.2732818 L24.0539013,55.5590042 L9.94995067,55.5590042 C8.66596529,55.5594088 7.46299418,56.1872984 6.72734081,57.2410424 C6.7048714,57.2733437 6.68449904,57.307058 6.66634978,57.3419767 L1.87509865,66.5825064 Z M28.8263744,58.277161 C28.8073604,58.3111423 28.7905506,58.3463138 28.7760493,58.3824576 L24.5781839,68.919339 C24.4644534,69.0914792 24.2720462,69.194986 24.0659193,69.1949153 L2.55185874,69.1949153 L8.2366435,58.2300784 C8.63795285,57.685202 9.27382022,57.3635244 9.94995067,57.3633369 L28.2909753,57.3633369 C28.5086181,57.3632513 28.7099991,57.4786869 28.8201295,57.6666585 C28.93026,57.8546301 28.9326366,58.08697 28.8263744,58.277161 L28.8263744,58.277161 Z" id="Shape" fill="#43D92D"/>
                    </g>
                </g>
            </g>
        </g>
    </g>
</svg>