<?xml version="1.0" encoding="UTF-8"?>
<svg width="54px" height="70px" viewBox="0 0 54 70" version="1.1" xmlns="http://www.w3.org/2000/svg" xmlns:xlink="http://www.w3.org/1999/xlink">
    <!-- Generator: Sketch 54 (76480) - https://sketchapp.com -->
    <title>Elegant Design</title>
    <desc>Created with Sketch.</desc>
    <g id="Page-1" stroke="none" stroke-width="1" fill="none" fill-rule="evenodd">
        <g id="iOs-Development" transform="translate(-1025.000000, -2347.000000)" fill-rule="nonzero">
            <g id="Group-4" transform="translate(976.000000, 2298.000000)">
                <g id="Elegant-Design" transform="translate(49.000000, 49.000000)">
                    <path d="M4.52356021,66.300813 L4.52356021,3.69918699 C4.52472889,2.5995952 5.41009892,1.70849332 6.5026178,1.70731707 L3.67539267,1.70731707 C2.58287379,1.70849332 1.69750376,2.5995952 1.69633508,3.69918699 L1.69633508,66.300813 C1.69750376,67.4004048 2.58287379,68.2915067 3.67539267,68.2926829 L6.5026178,68.2926829 C5.41009892,68.2915067 4.52472889,67.4004048 4.52356021,66.300813 Z" id="Path" fill="#D4E1F4"/>
                    <g id="Group" fill="#0B75FF">
                        <path d="M50.3246073,70 C52.3535018,69.9976479 53.997663,68.3428425 54,66.300813 L54,3.69918699 C53.997663,1.6571575 52.3535018,0.00235211924 50.3246073,-6.03961325e-14 L3.67539267,-6.03961325e-14 C1.64649815,0.00235211924 0.00233698968,1.6571575 -5.68434189e-14,3.69918699 L-5.68434189e-14,66.300813 C0.00233698968,68.3428425 1.64649815,69.9976479 3.67539267,70 L50.3246073,70 Z M1.69633508,66.300813 L1.69633508,3.69918699 C1.69750376,2.5995952 2.58287379,1.70849332 3.67539267,1.70731707 L50.3246073,1.70731707 C51.4171262,1.70849332 52.3024962,2.5995952 52.3036649,3.69918699 L52.3036649,66.300813 C52.3024962,67.4004048 51.4171262,68.2915067 50.3246073,68.2926829 L3.67539267,68.2926829 C2.58287379,68.2915067 1.69750376,67.4004048 1.69633508,66.300813 Z" id="Shape"/>
                        <path d="M9.98491099,54.7102642 L44.015089,54.7102642 C44.483519,54.7102642 44.8632565,54.3280683 44.8632565,53.8566057 C44.8632565,53.3851431 44.483519,53.0029472 44.015089,53.0029472 L9.98491099,53.0029472 C9.516481,53.0029472 9.13674346,53.3851431 9.13674346,53.8566057 C9.13674346,54.3280683 9.516481,54.7102642 9.98491099,54.7102642 L9.98491099,54.7102642 Z" id="Path"/>
                        <path d="M43.0009634,60.1879065 L10.9990366,60.1879065 C10.5306067,60.1879065 10.1508691,60.5701024 10.1508691,61.041565 C10.1508691,61.5130276 10.5306067,61.8952236 10.9990366,61.8952236 L43.0009634,61.8952236 C43.4693933,61.8952236 43.8491309,61.5130276 43.8491309,61.041565 C43.8491309,60.5701024 43.4693933,60.1879065 43.0009634,60.1879065 L43.0009634,60.1879065 Z" id="Path"/>
                    </g>
                    <path d="M7.02353403,43.0196951 C7.03543854,44.715059 8.4074309,46.0814289 10.0919215,46.0755081 C10.3421309,46.0773577 35.2259529,46.2672967 45.0433508,46.2816667 L45.0463194,46.2816667 C45.5658297,46.2838746 46.0641529,46.0745622 46.4279843,45.7013211 C46.7880939,45.3362265 46.9858716,44.8398645 46.9761832,44.3255081 L46.3848691,10.6146748 C46.3358949,8.94190871 44.9732707,7.61208312 43.3105445,7.61434959 L10.0984241,7.61434959 C8.41149887,7.6055953 7.03590589,8.97290851 7.02353403,10.6707317 L7.02353403,43.0196951 Z M8.71986911,10.6707317 C8.73157301,9.91565061 9.34817101,9.31249738 10.0984241,9.32223577 L43.3105445,9.32223577 C44.0499412,9.31546031 44.6606285,9.90173313 44.6888168,10.6454065 L45.1914974,39.3048577 L38.1453455,32.3086992 C37.6044265,31.5143361 36.729197,31.0160709 35.7740688,30.9587394 C34.8189407,30.9014079 33.8910748,31.2914423 33.2601832,32.0154675 L29.6717277,36.1585569 C29.378505,36.4976119 28.9405567,36.6731409 28.4960262,36.6297764 C28.055336,36.5954985 27.6583107,36.3488718 27.4303037,35.9677642 L20.9544031,25.143374 C20.4289382,24.2756468 19.5161754,23.7202182 18.508595,23.6550663 C17.5010146,23.5899144 16.5251383,24.0232204 15.8936702,24.8161382 L8.72029319,32.8200407 L8.71986911,10.6707317 Z M8.71986911,35.3699187 L17.1717173,25.9394106 L17.2112984,25.8918902 C17.494474,25.5315293 17.9343817,25.3326899 18.3901192,25.35906 C18.8458567,25.3854302 19.2602252,25.6337003 19.5005026,26.0243496 L25.9765445,36.8487398 C26.489644,37.6956671 27.3726157,38.246238 28.3545417,38.3315234 C29.3364677,38.4168089 30.3001011,38.0266254 30.9497749,37.2806911 L34.5387958,33.1377439 C34.8292642,32.8066939 35.2570273,32.6316884 35.6946035,32.6648826 C36.1321798,32.6980767 36.5290472,32.9356379 36.7669319,33.3067683 L36.819377,33.3907114 L45.2343298,41.7460366 L45.2799895,44.3543902 C45.2809213,44.4103546 45.2589998,44.4642531 45.2193455,44.5034959 C45.173536,44.5497715 45.1110768,44.5754301 45.046178,44.5746341 C35.2344346,44.5604065 10.3552775,44.3703252 10.0987068,44.3684756 C9.34845373,44.378214 8.73185574,43.7750608 8.72015183,43.0199797 L8.71986911,35.3699187 Z" id="Shape" fill="#43D92D"/>
                    <path d="M29.3104084,24.4524797 C31.8814869,24.4524797 33.9733508,22.3770935 33.9733508,19.8262195 C33.9733508,17.2753455 31.8812042,15.1999593 29.3104084,15.1999593 C26.7396126,15.1999593 24.647466,17.2753455 24.647466,19.8262195 C24.647466,22.3770935 26.7393298,24.4524797 29.3104084,24.4524797 Z M29.3104084,16.9072764 C30.9035521,16.9436196 32.169286,18.2665897 32.1452189,19.8702763 C32.1211517,21.4739628 30.8162956,22.7578539 29.2227881,22.7457526 C27.6292806,22.7336513 26.3438219,21.430089 26.343801,19.8262195 C26.364215,18.1965564 27.6911808,16.8909109 29.3104084,16.9072764 Z" id="Shape" fill="#43D92D"/>
                </g>
            </g>
        </g>
    </g>
</svg>