<?xml version="1.0" encoding="UTF-8"?>
<svg width="68px" height="65px" viewBox="0 0 68 65" version="1.1" xmlns="http://www.w3.org/2000/svg" xmlns:xlink="http://www.w3.org/1999/xlink">
    <!-- Generator: Sketch 54 (76480) - https://sketchapp.com -->
    <title>Futuristic Data Analytics Platforms </title>
    <desc>Created with Sketch.</desc>
    <g id="Page-1" stroke="none" stroke-width="1" fill="none" fill-rule="evenodd">
        <g id="MicrosoftDotNet" transform="translate(-397.000000, -1805.000000)" fill-rule="nonzero">
            <g id="Group-4" transform="translate(397.000000, 1795.000000)">
                <g id="Futuristic-Data-Analytics-Platforms-" transform="translate(0.000000, 10.000000)">
                    <path d="M6.31858407,54.0719884 L6.31858407,14.2093023 L1.80530595,14.2093023 L1.80530973,54.0719884 C1.80313143,55.2489447 2.74036262,56.2103721 3.91150442,56.2325581 L8.42477876,56.2325581 C7.25363695,56.2103721 6.31640577,55.2489447 6.31858407,54.0719884 Z" id="Path" fill="#D4E1F4"/>
                    <path d="M8.42477876,1.81395349 L3.91150442,1.81395349 C2.744448,1.82605683 1.80483505,2.78035153 1.80530973,3.95305814 L1.80530955,12.3953488 L6.31858407,12.3953488 L6.31858407,3.95305814 C6.31810938,2.78035153 7.25772234,1.82605683 8.42477876,1.81395349 L8.42477876,1.81395349 Z" id="Path" fill="#D4E1F4"/>
                    <path d="M21.3628319,62.4302326 L21.3628319,54.1162791 C21.3628319,53.7823395 21.6322534,53.5116279 21.9646018,53.5116279 L18.9557522,53.5116279 C18.6234039,53.5116279 18.3539823,53.7823395 18.3539823,54.1162791 L18.3539823,62.4302326 C18.3539823,62.7641722 18.6234039,63.0348837 18.9557522,63.0348837 L21.9646018,63.0348837 C21.6322534,63.0348837 21.3628319,62.7641722 21.3628319,62.4302326 Z" id="Path" fill="#D4E1F4"/>
                    <path d="M21.3628319,34.6162791 L21.3628319,26.3023256 C21.3628319,25.968386 21.6322534,25.6976744 21.9646018,25.6976744 L18.9557522,25.6976744 C18.6234039,25.6976744 18.3539823,25.968386 18.3539823,26.3023256 L18.3539823,34.6162791 C18.3539823,34.9502187 18.6234039,35.2209302 18.9557522,35.2209302 L21.9646018,35.2209302 C21.6322534,35.2209302 21.3628319,34.9502187 21.3628319,34.6162791 Z" id="Path" fill="#D4E1F4"/>
                    <path d="M21.3628319,48.372093 L21.3628319,40.0581395 C21.3628319,39.7241999 21.6322534,39.4534884 21.9646018,39.4534884 L18.9557522,39.4534884 C18.6234039,39.4534884 18.3539823,39.7241999 18.3539823,40.0581395 L18.3539823,48.372093 C18.3539823,48.7060326 18.6234039,48.9767442 18.9557522,48.9767442 L21.9646018,48.9767442 C21.6322534,48.9767442 21.3628319,48.7060326 21.3628319,48.372093 Z" id="Path" fill="#D4E1F4"/>
                    <path d="M3.91150442,58.0465116 L17.4513274,58.0465116 C17.94985,58.0465116 18.3539823,57.6404443 18.3539823,57.1395349 C18.3539823,56.6386255 17.94985,56.2325581 17.4513274,56.2325581 L3.91150442,56.2325581 C2.74036262,56.2103721 1.80313143,55.2489447 1.80530973,54.0719884 L1.80530973,14.2093023 L66.1946903,14.2093023 L66.1946903,54.0719884 C66.1968686,55.2489447 65.2596374,56.2103721 64.0884956,56.2325581 L50.5486726,56.2325581 C50.05015,56.2325581 49.6460177,56.6386255 49.6460177,57.1395349 C49.6460177,57.6404443 50.05015,58.0465116 50.5486726,58.0465116 L64.0884956,58.0465116 C66.2562839,58.0232213 68.0011138,56.2502802 68,54.0719884 L68,3.95305814 C67.9993783,1.77900009 66.252154,0.0132143008 64.0884956,0 L3.91150442,0 C1.74788035,0.0132966683 0.000703911144,1.77903417 3.49092559e-16,3.95305814 L3.49092559e-16,54.0719884 C-0.00103213115,56.2502465 1.74375056,58.0231396 3.91150442,58.0465116 Z M3.91150442,1.81395349 L64.0884956,1.81395349 C65.255552,1.82605683 66.195165,2.78035153 66.1946903,3.95305814 L66.1946904,12.3953488 L1.80530955,12.3953488 L1.80530973,3.95305814 C1.80483505,2.78035153 2.744448,1.82605683 3.91150442,1.81395349 Z" id="Shape" fill="#24527a"/>
                    <path d="M7.04928319,10.2826977 C8.85343618,10.2826977 10.3159912,8.81314004 10.3159912,7.00034884 C10.3159912,5.18755763 8.85343618,3.718 7.04928319,3.718 C5.24513019,3.718 3.78257522,5.18755763 3.78257522,7.00034884 C3.78464783,8.81227673 5.2459894,10.2806151 7.04928319,10.2826977 Z M7.04928319,5.53195349 C7.85639114,5.53195349 8.51068142,6.18937648 8.51068142,7.00034884 C8.51068142,7.8113212 7.85639114,8.46874419 7.04928319,8.46874419 C6.24217523,8.46874419 5.58788496,7.8113212 5.58788496,7.00034884 C5.58912839,6.18999249 6.24278786,5.53347378 7.04928319,5.53255814 L7.04928319,5.53195349 Z" id="Shape" fill="#24527a"/>
                    <path d="M15.560115,10.2826977 C17.3642484,10.2826142 18.826728,8.81301959 18.8266726,7.00024807 C18.8266172,5.18747654 17.3640479,3.71797218 15.5599145,3.718 C13.7557811,3.71802783 12.2932566,5.18757731 12.2932566,7.00034884 C12.2953294,8.81233567 13.7567625,10.2806984 15.560115,10.2826977 Z M15.560115,5.53195349 C16.3672034,5.53203697 17.0214182,6.18949692 17.0213628,7.0004496 C17.0213074,7.81140228 16.3670028,8.468772 15.5599145,8.46874418 C14.7528261,8.46871635 14.0985664,7.81130152 14.0985664,7.00034884 C14.09981,6.18993355 14.753561,5.53339051 15.560115,5.53255814 L15.560115,5.53195349 Z" id="Shape" fill="#24527a"/>
                    <path d="M23.9131327,10.2826977 C25.7172857,10.2826977 27.1798407,8.81314004 27.1798407,7.00034884 C27.1798407,5.18755763 25.7172857,3.718 23.9131327,3.718 C22.1089798,3.718 20.6464248,5.18755763 20.6464248,7.00034884 C20.6485801,8.81224225 22.1098733,10.280532 23.9131327,10.2826977 Z M23.9131327,5.53195349 C24.7202407,5.53195349 25.374531,6.18937648 25.374531,7.00034884 C25.374531,7.8113212 24.7202407,8.46874419 23.9131327,8.46874419 C23.1060248,8.46874419 22.4517345,7.8113212 22.4517345,7.00034884 C22.4530606,6.19002697 23.1066717,5.53355683 23.9131327,5.53255814 L23.9131327,5.53195349 Z" id="Shape" fill="#24527a"/>
                    <path d="M36.3640531,7.70930233 L63.4716814,7.70930233 C63.9702039,7.70930233 64.3743363,7.30323501 64.3743363,6.80232558 C64.3743363,6.30141616 63.9702039,5.89534884 63.4716814,5.89534884 L36.3640531,5.89534884 C35.8655306,5.89534884 35.4613982,6.30141616 35.4613982,6.80232558 C35.4613982,7.30323501 35.8655306,7.70930233 36.3640531,7.70930233 Z" id="Path" fill="#24527a"/>
                    <path d="M39.0678053,33.0154651 C40.4541964,33.0154651 41.5780885,31.8861919 41.5780885,30.4931628 C41.5780885,29.1001337 40.4541964,27.9708605 39.0678053,27.9708605 C37.6814142,27.9708605 36.5575221,29.1001337 36.5575221,30.4931628 C36.5586835,31.8857083 37.6818955,33.0142982 39.0678053,33.0154651 L39.0678053,33.0154651 Z M39.0678053,29.7849651 C39.3529541,29.7849651 39.6100226,29.9575651 39.7191302,30.2222755 C39.8282379,30.4869859 39.7678958,30.7916712 39.5662436,30.9942457 C39.3645914,31.1968201 39.0613451,31.2573861 38.7979194,31.1476996 C38.5344937,31.038013 38.362771,30.7796769 38.3628319,30.4931628 C38.3632466,30.1021497 38.6786554,29.7852984 39.0678053,29.7849651 L39.0678053,29.7849651 Z" id="Shape" fill="#43D92D"/>
                    <path d="M21.3628319,32.8254535 C21.8613544,32.8254535 22.2654867,32.4193862 22.2654867,31.9184767 L22.2654867,30.5802326 C22.2654867,30.0793231 21.8613544,29.6732558 21.3628319,29.6732558 C20.8643093,29.6732558 20.460177,30.0793231 20.460177,30.5802326 L20.460177,31.9192326 C20.4605922,32.4198468 20.864603,32.8254537 21.3628319,32.8254535 Z" id="Path" fill="#43D92D"/>
                    <path d="M24.3716814,32.8254535 C24.8702039,32.8254535 25.2743363,32.4193862 25.2743363,31.9184767 L25.2743363,30.5802326 C25.2743363,30.0793231 24.8702039,29.6732558 24.3716814,29.6732558 C23.8731589,29.6732558 23.4690265,30.0793231 23.4690265,30.5802326 L23.4690265,31.9192326 C23.4694417,32.4198468 23.8734525,32.8254537 24.3716814,32.8254535 Z" id="Path" fill="#43D92D"/>
                    <path d="M27.380531,32.8254535 C27.8790535,32.8254535 28.2831858,32.4193862 28.2831858,31.9184767 L28.2831858,30.5802326 C28.2831858,30.0793231 27.8790535,29.6732558 27.380531,29.6732558 C26.8820085,29.6732558 26.4778761,30.0793231 26.4778761,30.5802326 L26.4778761,31.9192326 C26.4782913,32.4198468 26.8823021,32.8254537 27.380531,32.8254535 L27.380531,32.8254535 Z" id="Path" fill="#43D92D"/>
                    <path d="M30.3893805,32.8254535 C30.887903,32.8254535 31.2920354,32.4193862 31.2920354,31.9184767 L31.2920354,30.5802326 C31.2920354,30.0793231 30.887903,29.6732558 30.3893805,29.6732558 C29.890858,29.6732558 29.4867257,30.0793231 29.4867257,30.5802326 L29.4867257,31.9192326 C29.4871409,32.4198468 29.8911516,32.8254537 30.3893805,32.8254535 Z" id="Path" fill="#43D92D"/>
                    <path d="M39.0678053,46.8216163 C40.0831338,46.8216163 40.9984836,46.2070607 41.387019,45.2645223 C41.7755543,44.321984 41.5607575,43.2370849 40.8427904,42.5157234 C40.1248232,41.7943619 39.045081,41.5786017 38.1070573,41.9690538 C37.1690336,42.359506 36.5574613,43.2792753 36.5575221,44.2994651 C36.5587664,45.6919516 37.6819542,46.8204495 39.0678053,46.8216163 L39.0678053,46.8216163 Z M39.0678053,43.5911163 C39.3529405,43.5911163 39.6099994,43.7636999 39.7191159,44.0283918 C39.8282323,44.2930836 39.7679178,44.597757 39.5662968,44.8003434 C39.3646758,45.0029297 39.0614542,45.0635331 38.7980236,44.9538941 C38.5345931,44.8442552 38.3628319,44.5859655 38.3628319,44.2994651 C38.3631637,43.908393 38.6785967,43.5914497 39.0678053,43.5911163 Z" id="Shape" fill="#43D92D"/>
                    <path d="M21.3628319,46.6316047 C21.8613544,46.6316047 22.2654867,46.2255373 22.2654867,45.7246279 L22.2654867,44.3857791 C22.2654867,43.8848696 21.8613544,43.4788023 21.3628319,43.4788023 C20.8643093,43.4788023 20.460177,43.8848696 20.460177,44.3857791 L20.460177,45.7246279 C20.460177,46.2255373 20.8643093,46.6316047 21.3628319,46.6316047 Z" id="Path" fill="#43D92D"/>
                    <path d="M24.3716814,46.6316047 C24.8702039,46.6316047 25.2743363,46.2255373 25.2743363,45.7246279 L25.2743363,44.3857791 C25.2743363,43.8848696 24.8702039,43.4788023 24.3716814,43.4788023 C23.8731589,43.4788023 23.4690265,43.8848696 23.4690265,44.3857791 L23.4690265,45.7246279 C23.4690265,46.2255373 23.8731589,46.6316047 24.3716814,46.6316047 Z" id="Path" fill="#43D92D"/>
                    <path d="M27.380531,46.6316047 C27.8790535,46.6316047 28.2831858,46.2255373 28.2831858,45.7246279 L28.2831858,44.3857791 C28.2831858,43.8848696 27.8790535,43.4788023 27.380531,43.4788023 C26.8820085,43.4788023 26.4778761,43.8848696 26.4778761,44.3857791 L26.4778761,45.7246279 C26.4778761,46.2255373 26.8820085,46.6316047 27.380531,46.6316047 L27.380531,46.6316047 Z" id="Path" fill="#43D92D"/>
                    <path d="M30.3893805,46.6316047 C30.887903,46.6316047 31.2920354,46.2255373 31.2920354,45.7246279 L31.2920354,44.3857791 C31.2920354,43.8848696 30.887903,43.4788023 30.3893805,43.4788023 C29.890858,43.4788023 29.4867257,43.8848696 29.4867257,44.3857791 L29.4867257,45.7246279 C29.4867257,46.2255373 29.890858,46.6316047 30.3893805,46.6316047 Z" id="Path" fill="#43D92D"/>
                    <path d="M45.6055841,33.0154651 C46.9919752,33.0154651 48.1158673,31.8861919 48.1158673,30.4931628 C48.1158673,29.1001337 46.9919752,27.9708605 45.6055841,27.9708605 C44.2191929,27.9708605 43.0953009,29.1001337 43.0953009,30.4931628 C43.0964622,31.8857083 44.2196743,33.0142982 45.6055841,33.0154651 Z M45.6055841,29.7849651 C45.8907329,29.7849651 46.1478013,29.9575651 46.256909,30.2222755 C46.3660167,30.4869859 46.3056746,30.7916712 46.1040224,30.9942457 C45.9023702,31.1968201 45.5991239,31.2573861 45.3356982,31.1476996 C45.0722724,31.038013 44.9005498,30.7796769 44.9006106,30.4931628 C44.9010254,30.1021497 45.2164342,29.7852984 45.6055841,29.7849651 L45.6055841,29.7849651 Z" id="Shape" fill="#43D92D"/>
                    <path d="M45.6055841,46.8216163 C46.6209125,46.8216163 47.5362624,46.2070607 47.9247977,45.2645223 C48.313333,44.321984 48.0985363,43.2370849 47.3805691,42.5157234 C46.662602,41.7943619 45.5828598,41.5786017 44.644836,41.9690538 C43.7068123,42.359506 43.09524,43.2792753 43.0953009,44.2994651 C43.0965452,45.6919516 44.219733,46.8204495 45.6055841,46.8216163 L45.6055841,46.8216163 Z M45.6055841,43.5911163 C45.9949302,43.5911163 46.3105575,43.9082549 46.3105575,44.2994651 C46.3105575,44.6906754 45.9949302,45.007814 45.6055841,45.007814 C45.216238,45.007814 44.9006106,44.6906754 44.9006106,44.2994651 C44.9009424,43.908393 45.2163755,43.5914497 45.6055841,43.5911163 L45.6055841,43.5911163 Z" id="Shape" fill="#43D92D"/>
                    <path d="M51.4513274,34.6824884 L51.4513274,26.3038372 C51.4499196,24.9684202 50.3733002,23.8859699 49.0442478,23.8837209 L18.9557522,23.8837209 C17.6266998,23.8859699 16.5500804,24.9684202 16.5486726,26.3038372 L16.5486726,34.6824884 C16.5500102,35.667248 17.1448129,36.5530857 18.0530973,36.9230233 L18.0530973,37.8694535 C17.14484,38.2394246 16.5500513,39.1252414 16.5486726,40.1099884 L16.5486726,48.4886395 C16.5500102,49.4733992 17.1448129,50.3592369 18.0530973,50.7291744 L18.0530973,51.9384767 C17.1448129,52.3084143 16.5500102,53.194252 16.5486726,54.1790116 L16.5486726,62.557814 C16.5479559,63.8977108 17.622296,64.9877197 18.9557522,65 L49.0442478,65 C50.3774107,64.9877223 51.4516311,63.898172 51.4513274,62.5585698 L51.4513274,54.1797674 C51.4467239,53.182911 50.8566289,52.2828579 49.9469027,51.8851163 L49.9469027,50.7588023 C50.8559832,50.3735669 51.4481583,49.4799803 51.4513274,48.4886395 L51.4513274,40.1099884 C51.4472576,39.1153633 50.8563487,38.2179281 49.9469027,37.8251628 L49.9469027,36.8664884 C50.8533782,36.5259755 51.4534285,35.6548719 51.4513274,34.6824884 L51.4513274,34.6824884 Z M19.8584071,37.6395349 L19.8584071,37.0348837 L48.1415929,37.0348837 L48.1415929,37.6395349 L19.8584071,37.6395349 Z M18.3539823,26.3023256 C18.3539823,25.968386 18.6234039,25.6976744 18.9557522,25.6976744 L49.0442478,25.6976744 C49.3765961,25.6976744 49.6460177,25.968386 49.6460177,26.3023256 L49.6460177,34.6162791 C49.6460177,34.9502187 49.3765961,35.2209302 49.0442478,35.2209302 L18.9557522,35.2209302 C18.6234039,35.2209302 18.3539823,34.9502187 18.3539823,34.6162791 L18.3539823,26.3023256 Z M18.3539823,40.0581395 C18.3539823,39.7241999 18.6234039,39.4534884 18.9557522,39.4534884 L49.0442478,39.4534884 C49.3765961,39.4534884 49.6460177,39.7241999 49.6460177,40.0581395 L49.6460177,48.372093 C49.6460177,48.7060326 49.3765961,48.9767442 49.0442478,48.9767442 L18.9557522,48.9767442 C18.6234039,48.9767442 18.3539823,48.7060326 18.3539823,48.372093 L18.3539823,40.0581395 Z M19.8584071,51.6976744 L19.8584071,50.9418605 L48.1415929,50.9418605 L48.1415929,51.6976744 L19.8584071,51.6976744 Z M49.6460177,62.4302326 C49.6460177,62.7641722 49.3765961,63.0348837 49.0442478,63.0348837 L18.9557522,63.0348837 C18.6234039,63.0348837 18.3539823,62.7641722 18.3539823,62.4302326 L18.3539823,54.1162791 C18.3539823,53.7823395 18.6234039,53.5116279 18.9557522,53.5116279 L49.0442478,53.5116279 C49.3765961,53.5116279 49.6460177,53.7823395 49.6460177,54.1162791 L49.6460177,62.4302326 Z" id="Shape" fill="#43D92D"/>
                    <path d="M39.0678053,60.8913953 C40.4541964,60.8913953 41.5780885,59.7621221 41.5780885,58.369093 C41.5780885,56.9760639 40.4541964,55.8467907 39.0678053,55.8467907 C37.6814142,55.8467907 36.5575221,56.9760639 36.5575221,58.369093 C36.5586835,59.7616385 37.6818955,60.8902284 39.0678053,60.8913953 L39.0678053,60.8913953 Z M39.0678053,57.6608953 C39.3529541,57.6608954 39.6100226,57.8334954 39.7191302,58.0982057 C39.8282379,58.3629161 39.7678958,58.6676014 39.5662436,58.8701759 C39.3645914,59.0727504 39.0613451,59.1333164 38.7979194,59.0236298 C38.5344937,58.9139432 38.362771,58.6556071 38.3628319,58.369093 C38.3632466,57.97808 38.6786554,57.6612286 39.0678053,57.6608953 L39.0678053,57.6608953 Z" id="Shape" fill="#43D92D"/>
                    <path d="M45.6055841,60.8913953 C46.9919752,60.8913953 48.1158673,59.7621221 48.1158673,58.369093 C48.1158673,56.9760639 46.9919752,55.8467907 45.6055841,55.8467907 C44.2191929,55.8467907 43.0953009,56.9760639 43.0953009,58.369093 C43.0964622,59.7616385 44.2196743,60.8902284 45.6055841,60.8913953 L45.6055841,60.8913953 Z M45.6055841,57.6608953 C45.8907329,57.6608954 46.1478013,57.8334954 46.256909,58.0982057 C46.3660167,58.3629161 46.3056746,58.6676014 46.1040224,58.8701759 C45.9023702,59.0727504 45.5991239,59.1333164 45.3356982,59.0236298 C45.0722724,58.9139432 44.9005498,58.6556071 44.9006106,58.369093 C44.9010254,57.97808 45.2164342,57.6612286 45.6055841,57.6608953 L45.6055841,57.6608953 Z" id="Shape" fill="#43D92D"/>
                    <path d="M21.3628319,60.7013837 C21.8613544,60.7013837 22.2654867,60.2953164 22.2654867,59.794407 L22.2654867,58.4555581 C22.2654867,57.9546487 21.8613544,57.5485814 21.3628319,57.5485814 C20.8643093,57.5485814 20.460177,57.9546487 20.460177,58.4555581 L20.460177,59.794407 C20.460177,60.2953164 20.8643093,60.7013837 21.3628319,60.7013837 Z" id="Path" fill="#43D92D"/>
                    <path d="M24.3716814,60.7013837 C24.8702039,60.7013837 25.2743363,60.2953164 25.2743363,59.794407 L25.2743363,58.4555581 C25.2743363,57.9546487 24.8702039,57.5485814 24.3716814,57.5485814 C23.8731589,57.5485814 23.4690265,57.9546487 23.4690265,58.4555581 L23.4690265,59.794407 C23.4690265,60.2953164 23.8731589,60.7013837 24.3716814,60.7013837 Z" id="Path" fill="#43D92D"/>
                    <path d="M27.380531,60.7013837 C27.8790535,60.7013837 28.2831858,60.2953164 28.2831858,59.794407 L28.2831858,58.4555581 C28.2831858,57.9546487 27.8790535,57.5485814 27.380531,57.5485814 C26.8820085,57.5485814 26.4778761,57.9546487 26.4778761,58.4555581 L26.4778761,59.794407 C26.4778761,60.2953164 26.8820085,60.7013837 27.380531,60.7013837 L27.380531,60.7013837 Z" id="Path" fill="#43D92D"/>
                    <path d="M30.3893805,60.7013837 C30.887903,60.7013837 31.2920354,60.2953164 31.2920354,59.794407 L31.2920354,58.4555581 C31.2920354,57.9546487 30.887903,57.5485814 30.3893805,57.5485814 C29.890858,57.5485814 29.4867257,57.9546487 29.4867257,58.4555581 L29.4867257,59.794407 C29.4867257,60.2953164 29.890858,60.7013837 30.3893805,60.7013837 Z" id="Path" fill="#43D92D"/>
                </g>
            </g>
        </g>
    </g>
</svg>