<?xml version="1.0" encoding="UTF-8"?>
<svg width="54px" height="51px" viewBox="0 0 54 51" version="1.1" xmlns="http://www.w3.org/2000/svg" xmlns:xlink="http://www.w3.org/1999/xlink">
    <!-- Generator: Sketch 54 (76480) - https://sketchapp.com -->
    <title>Global Exception</title>
    <desc>Created with Sketch.</desc>
    <g id="Page-1" stroke="none" stroke-width="1" fill="none" fill-rule="evenodd">
        <g id="Biztalk" transform="translate(-1197.000000, -1234.000000)" fill-rule="nonzero">
            <g id="Group-4" transform="translate(1169.000000, 1200.000000)">
                <g id="Global-Exception" transform="translate(28.000000, 34.000000)">
                    <g id="Group" transform="translate(1.317073, 7.720682)" fill="#D4E1F4">
                        <path d="M10.3848133,16.1426656 C10.8761433,16.8681787 11.4292111,17.54994 12.0384432,18.1815782 L10.286633,18.1815782 C10.2994951,17.4972681 10.3320789,16.8163562 10.3848133,16.1426656 Z" id="Path"/>
                        <path d="M12.5799353,16.1426656 C13.0712652,16.8681787 13.624333,17.54994 14.2335652,18.1815782 L12.4817549,18.1815782 C12.494617,17.4972681 12.5272009,16.8163562 12.5799353,16.1426656 Z" id="Path"/>
                        <path d="M8.44521717,3.1454474 C8.7800591,2.05377968 9.23794782,1.00331484 9.80987993,0.012743258 C8.47994477,0.945545655 7.25204843,2.01385092 6.14719888,3.1998184 C6.50604995,3.5863623 6.88076407,3.95931334 7.26576794,4.32122032 C7.64348323,3.9159865 8.03663298,3.52434532 8.44521717,3.1454474 Z" id="Path"/>
                        <path d="M5.2777249,4.18911586 C2.00004761,8.14290706 0.146198524,13.0668809 0.00943221951,18.1815782 L2.20455417,18.1815782 C2.32802978,13.5969982 3.83074507,9.15301839 6.52105559,5.42053402 C6.09232083,5.02464516 5.6777344,4.61388931 5.2777249,4.18911586 Z" id="Path"/>
                        <path d="M2.20498288,19.4864822 L0.00986092683,19.4864822 C0.150914634,24.5982059 2.01033724,29.5170825 5.29273054,33.463228 C5.69359756,33.0367554 6.1081841,32.626849 6.53649015,32.233084 C3.83974848,28.5082455 2.33103084,24.0685135 2.20498288,19.4864822 Z" id="Path"/>
                        <path d="M8.35732657,34.4516757 C9.31726372,33.4211754 10.3698076,32.4794527 11.5025247,31.6384012 C11.334032,31.2569546 11.1736853,30.8695612 11.0206269,30.476221 C9.22637195,31.5763842 7.59203506,32.9139959 6.16220462,34.4516757 C9.73142144,38.3022472 14.5156726,40.8364455 19.7299448,41.6379931 C19.378811,41.4047925 19.0358232,41.1613973 18.7005525,40.9078075 C14.7351848,39.7044243 11.1651105,37.4760627 8.35732657,34.4516757 L8.35732657,34.4516757 Z" id="Path"/>
                    </g>
                    <path d="M48.3106897,33.1089669 C51.4756098,21.8592667 46.1485804,9.96560998 35.605564,4.74259559 L35.0160537,5.90944829 C37.5460176,7.16592823 39.8247427,8.86757063 41.7403296,10.9315449 C40.8545637,11.8940815 39.8869092,12.7793093 38.8489424,13.5783083 L39.65625,14.6092334 C40.7135099,13.7953674 41.700886,12.8965468 42.6089463,11.9216917 C45.8904821,15.8691115 47.7469036,20.7901119 47.8832412,25.9022605 L38.9243997,25.9022605 C38.8995332,24.4159781 38.7790586,22.9326692 38.5646914,21.461254 L37.2613377,21.6494287 C37.4667016,23.0584022 37.5820312,24.4788446 37.6073266,25.9022605 L36.1166159,25.9022605 L35.4422161,25.2345166 L34.5110042,26.1571246 L38.2701506,29.8811134 L36.2752477,31.8575843 C36.0184356,32.1124484 36.0184356,32.5253282 36.2752477,32.7801923 L36.9097751,33.4084321 C36.7061262,34.3692697 36.4544588,35.3194879 36.1547732,36.2552639 C32.7964939,34.4873568 29.0660728,33.5256697 25.264053,33.4483609 L25.264053,29.9843333 L23.9469798,29.9843333 L23.9469798,33.45006 C20.1445312,33.5464836 16.4166826,34.5166661 13.057117,36.2845732 C12.1614901,33.5116521 11.6624428,30.4588052 11.6037061,27.2071645 L15.0164348,27.2071645 L15.0164348,25.9022605 L11.6037061,25.9022605 C11.6272866,24.5761177 11.7288967,23.2520989 11.9081079,21.9378499 L10.6030393,21.7611441 C10.4156822,23.1344367 10.3097847,24.5170743 10.2862043,25.9022605 L1.3269341,25.9022605 C1.46370051,20.7875632 3.31754949,15.8635894 6.59522678,11.9097982 C7.46255722,12.8332556 8.40105757,13.6887493 9.40172444,14.4686334 L10.2150342,13.4423808 C9.23151677,12.6765142 8.31188074,11.8329141 7.46470087,10.9205007 C9.30740279,8.9427555 11.4836604,7.29760794 13.8961509,6.05981804 L13.28992,4.90231041 C5.1238091,9.09185101 -0.00257240891,17.4437466 -3.68592276e-10,26.5547125 C-3.68592276e-10,37.1086337 6.85418257,46.4638443 16.9826125,49.7333255 C27.1106135,53.0032316 38.2122713,49.4444796 44.4876619,40.9163029 L46.9365949,43.3426089 C48.5542111,44.9338103 51.1656345,44.9291378 52.7776772,43.3324144 C54.3892912,41.7352662 54.3940073,39.147971 52.7879668,37.5453008 L48.3106897,33.1089669 Z M42.3538491,27.2071645 L47.8832412,27.2071645 C47.8386528,28.8361708 47.6195694,30.4558319 47.230707,32.0393874 L42.3538491,27.2071645 Z M37.433689,27.2071645 L40.9690359,27.2071645 L39.2013625,28.9585055 L37.433689,27.2071645 Z M35.7200362,37.5057969 C33.6732565,42.9603128 30.0620237,47.1388094 25.264053,49.5247618 L25.264053,34.7532649 C28.9207317,34.8326976 32.5058117,35.7765441 35.7200362,37.5057969 Z M23.9469798,34.7545393 L23.9469798,49.5273104 C19.1327172,47.1328625 15.5304878,42.9186851 13.4944265,37.5329824 C16.7095084,35.805004 20.2907298,34.8535115 23.9469798,34.754964 L23.9469798,34.7545393 Z M11.8866711,36.9416978 C9.93764294,38.1064266 8.16182352,39.5340902 6.60980371,41.1839103 C3.32741041,37.2377648 1.4679878,32.3188882 1.3269341,27.2071645 L10.286633,27.2071645 C10.3470847,30.6983776 10.89758,33.9733809 11.8866711,36.9416978 Z M7.47927779,42.172358 C8.90910823,40.6346782 10.5434451,39.2970665 12.3377,38.1964785 C14.1598228,42.9033932 17.135242,46.7565131 21.0474466,49.3586754 C15.8331745,48.5567031 11.0489234,46.0229295 7.47927779,42.172358 Z M28.1640149,49.357401 C32.0650725,46.7671326 35.0456365,42.9335521 36.8754763,38.1705673 C38.6761623,39.2779518 40.3135004,40.6270322 41.7411871,42.1791544 C38.1681116,46.0280267 33.3804306,48.5596765 28.1640149,49.357401 Z M42.6110899,41.189857 C41.0612138,39.5255947 39.2819646,38.0860375 37.3260766,36.9145123 C37.5846037,36.1325044 37.8135481,35.3279834 38.0120522,34.5009495 L43.5448743,39.9826509 C43.2456174,40.3959555 42.934356,40.798216 42.6110899,41.189857 L42.6110899,41.189857 Z M51.8567549,42.4204257 C50.7553354,43.5116688 48.9692263,43.5116688 47.8678068,42.4204257 L37.6724943,32.3193131 L41.6614424,28.366796 L51.8567549,38.4679088 C52.9586033,39.5595766 52.9586033,41.328758 51.8567549,42.4204257 Z" id="Shape" fill="#24527a"/>
                    <path d="M13.6063262,4.52256299 C7.58603283,10.4872318 7.58603283,20.1924557 13.6063262,26.1571246 C19.6347656,32.1396339 29.4176353,32.1434568 35.4512195,26.16562 C41.484375,20.188208 41.4805164,10.4953025 35.4422161,4.52256299 C29.4219226,-1.4421059 19.6261909,-1.4421059 13.6063262,4.52256299 Z M37.3170732,21.2790262 C36.6212366,22.7491671 35.6715891,24.088053 34.5110042,25.2349414 C34.06855,25.6728828 33.5977991,26.0819396 33.1013243,26.4591384 L33.1013243,24.0566197 L35.2317073,22.053813 C35.3629001,21.9306286 35.4370713,21.7594449 35.4370713,21.5806153 L35.4370713,19.7082139 C36.619093,19.3819879 37.3766673,18.2406217 37.2103182,17.0359641 C37.0443979,15.8313067 36.0055735,14.9333356 34.7785347,14.9333356 C33.5510671,14.9333356 32.5126714,15.8313067 32.3463225,17.0359641 C32.1804021,18.2406217 32.9375476,19.3819879 34.1199981,19.7082139 L34.1199981,21.3002648 L31.9891863,23.3026469 C31.8579935,23.4262561 31.7838225,23.5970149 31.7838225,23.7762694 L31.7838225,27.3490388 C30.8247427,27.9203591 29.7996379,28.3752915 28.7303735,28.7040662 L28.7303735,21.4943863 L31.8292683,17.2844567 C31.9115854,17.1727412 31.9557451,17.038088 31.9557451,16.9000366 L31.9557451,12.0631414 C33.1377668,11.7369153 33.8953411,10.5959738 33.728992,9.39131627 C33.5630716,8.18665875 32.5242473,7.28868773 31.2972085,7.28868773 C30.0701696,7.28868773 29.0313452,8.18665875 28.865425,9.39131627 C28.6990759,10.5959738 29.4566501,11.7369153 30.6386719,12.0631414 L30.6386719,16.6872251 L27.5402058,20.8975796 C27.4578887,21.009295 27.413729,21.1439482 27.413729,21.2819997 L27.413729,29.0404868 C26.5352515,29.220166 25.6417683,29.3170142 24.7452839,29.3301822 L24.7452839,19.301281 L26.506955,17.5558868 C26.6304306,17.4335521 26.6998857,17.2674657 26.6998857,17.0941581 L26.6998857,6.74242901 C27.8823361,6.416203 28.6394817,5.27526155 28.4735613,4.07060404 C28.3072122,2.86594652 27.2683879,1.96797539 26.0413491,1.96797539 C24.8143103,1.96797539 23.7754859,2.86594652 23.6095655,4.07060404 C23.4432165,5.27526155 24.2007908,6.416203 25.3828125,6.74242901 L25.3828125,16.8240022 L23.6211414,18.5698211 C23.4972371,18.6921558 23.4282107,18.8578175 23.4282107,19.0311251 L23.4282107,29.2911031 C22.9788967,29.2571212 22.5338701,29.2027502 22.0935595,29.12799 L22.0935595,15.3296492 C22.0935595,15.1563416 22.0241044,14.99068 21.9006288,14.8683452 L19.3702363,12.3609075 L19.3702363,9.23372529 C20.552258,8.90749928 21.3098323,7.76613309 21.1434832,6.56147557 C20.9775629,5.35681806 19.9387385,4.45884692 18.7116997,4.45884692 C17.4846609,4.45884692 16.4458365,5.35681806 16.2794875,6.56147557 C16.1135671,7.76613309 16.8707127,8.90749928 18.0531631,9.23372529 L18.0531631,12.6310634 C18.0531631,12.804371 18.1226182,12.9700327 18.2460938,13.0923675 L20.776915,15.5998051 L20.776915,28.8370203 C19.8894341,28.5970233 19.0285347,28.2703724 18.2062214,27.8621652 L18.2062214,20.6970865 C18.2062214,20.4311784 18.0433022,20.1916062 17.7942073,20.0922091 L15.1947885,19.0527886 L15.1947885,16.8082855 C16.3768103,16.4820595 17.1343845,15.3406933 16.9680354,14.1360358 C16.8021151,12.931803 15.7632908,12.0338319 14.5362519,12.0338319 C13.3092131,12.0338319 12.2703887,12.931803 12.1044683,14.1360358 C11.9381193,15.3406933 12.6956936,16.4820595 13.8777153,16.8082855 L13.8777153,19.4932786 C13.8777153,19.7591867 14.0410633,19.998759 14.2897294,20.098156 L16.8891482,21.1375766 L16.8891482,27.1166878 C10.530583,23.0685967 8.51510096,14.7795675 12.3145484,8.30644492 C16.1144245,1.83374697 24.383003,-0.528842923 31.078125,2.94495433 C37.7736757,6.41875169 40.5227229,14.4979428 37.3170732,21.2790262 L37.3170732,21.2790262 Z M34.7785347,18.4933618 C34.1504383,18.4933618 33.6411013,17.988731 33.6411013,17.3664379 C33.6411013,16.7441448 34.1504383,16.239514 34.7785347,16.2390892 C35.4066311,16.2390892 35.915968,16.74372 35.915968,17.3664379 C35.9151105,17.9883062 35.4062024,18.4920876 34.7785347,18.4929371 L34.7785347,18.4933618 Z M31.2976372,10.848714 C30.6695408,10.848714 30.1602039,10.3440832 30.1602039,9.72179007 C30.1602039,9.09949699 30.6695408,8.59486602 31.2976372,8.59486602 C31.9261623,8.59486602 32.4350705,9.09949699 32.4350705,9.72179007 C32.4342131,10.3436584 31.9253049,10.8470149 31.2976372,10.8478644 L31.2976372,10.848714 Z M26.0413491,5.52800179 C25.4132527,5.52800179 24.9039158,5.02379567 24.9039158,4.40150248 C24.9034871,3.77920939 25.4128239,3.27457853 26.0409204,3.27415378 C26.6690168,3.27372904 27.1783537,3.77793516 27.1787824,4.40022824 C27.177925,5.02252132 26.6694455,5.52630258 26.0413491,5.52715219 L26.0413491,5.52800179 Z M18.7116997,8.01929807 C18.0836033,8.01929807 17.5742664,7.51509195 17.5742664,6.89279887 C17.5738377,6.27050568 18.0827458,5.76587492 18.7108422,5.76545007 C19.3389387,5.76502532 19.8487043,6.26923144 19.849133,6.89152452 C19.8482756,7.51339286 19.3397961,8.01759897 18.7116997,8.01844847 L18.7116997,8.01929807 Z M14.5362519,15.5930087 C13.9077268,15.592584 13.3988186,15.0879531 13.3988186,14.46566 C13.3988186,13.8433669 13.9081555,13.338736 14.5362519,13.338736 C15.1643483,13.338736 15.6736853,13.8433669 15.6736853,14.4660848 C15.6728277,15.0879531 15.1639196,15.5921592 14.5362519,15.5930087 Z" id="Shape" fill="#43D92D"/>
                </g>
            </g>
        </g>
    </g>
</svg>