<?xml version="1.0" encoding="UTF-8"?>
<svg width="71px" height="71px" viewBox="0 0 71 71" version="1.1" xmlns="http://www.w3.org/2000/svg" xmlns:xlink="http://www.w3.org/1999/xlink">
    <!-- Generator: Sketch 54 (76480) - https://sketchapp.com -->
    <title>Incredibly Fast</title>
    <desc>Created with Sketch.</desc>
    <g id="Page-1" stroke="none" stroke-width="1" fill="none" fill-rule="evenodd">
        <g id="Node-JS" transform="translate(-419.000000, -2053.000000)" fill-rule="nonzero">
            <g id="Group-4" transform="translate(391.000000, 1993.000000)">
                <g id="Incredibly-Fast" transform="translate(28.000000, 60.000000)">
                    <path d="M16.4545483,59.0202416 C7.22911355,49.7946129 4.24905374,36.0274206 8.83344709,23.8125032 C13.4178404,11.5975858 24.7200776,3.19069715 37.737395,2.31301891 C36.9959223,2.26409454 36.2499748,2.23739496 35.5,2.23739496 C22.0465147,2.2373723 9.91773612,10.3415461 4.76930712,22.7709446 C-0.379121881,35.200343 2.46669638,49.5072022 11.9797584,59.0202416 C18.2040689,65.2785844 26.6734313,68.7866948 35.5,68.762605 C36.2499748,68.762605 36.9959223,68.7359055 37.737395,68.6869811 C29.7016539,68.1679422 22.1326194,64.7300616 16.4545483,59.0202416 Z" id="Path" fill="#D4E1F4"/>
                    <path d="M35.5,0.149159664 C21.2019482,0.149196723 8.31179116,8.76215202 2.84016865,21.9718315 C-2.63145387,35.1815109 0.392996056,50.3865052 10.5032269,60.4967731 C19.4279936,69.4557793 32.4585822,72.9651471 44.675535,69.6999795 C56.8924877,66.4348119 66.4348119,56.8924877 69.6999795,44.675535 C72.9651471,32.4585822 69.4557793,19.4279936 60.4967731,10.5032269 C53.8817812,3.85189759 44.8807058,0.123506747 35.5,0.149159664 Z M59.0202416,59.0202416 C46.0303708,72.010112 24.9696294,72.0101119 11.9797588,59.0202412 C-1.01011186,46.0303706 -1.01011201,24.9696292 11.9797584,11.9797584 C24.9696292,-1.01011201 46.0303706,-1.01011186 59.0202412,11.9797588 C72.0101119,24.9696294 72.010112,46.0303708 59.0202416,59.0202416 Z" id="Shape" fill="#24527a"/>
                    <path d="M36.5292017,15.0364874 C36.4435075,14.5349622 36.0087937,14.1682264 35.5,14.1682264 C34.9912063,14.1682264 34.5564925,14.5349622 34.4707983,15.0364874 L32.382563,27.1184202 C32.3301033,27.4219897 32.4143815,27.7332316 32.6128446,27.9688561 C32.8113076,28.2044806 33.1036958,28.3404346 33.4117647,28.3403361 L37.5882353,28.3403361 C37.8963042,28.3404346 38.1886924,28.2044806 38.3871554,27.9688561 C38.5856185,27.7332316 38.6698967,27.4219897 38.617437,27.1184202 L36.5292017,15.0364874 Z M34.6518782,26.2521008 L35.5,21.3447479 L36.3481218,26.2521008 L34.6518782,26.2521008 Z" id="Shape" fill="#24527a"/>
                    <path d="M35.6779475,10.2920168 C36.2545977,10.2920168 36.7220651,9.82454941 36.7220651,9.24789916 L36.7220651,5.66806723 C36.7220651,5.09141697 36.2545977,4.62394958 35.6779475,4.62394958 C35.1012972,4.62394958 34.6338298,5.09141697 34.6338298,5.66806723 L34.6338298,9.24789916 C34.6338298,9.52481638 34.7438348,9.79039179 34.9396448,9.98620183 C35.1354549,10.1820119 35.4010303,10.2920168 35.6779475,10.2920168 L35.6779475,10.2920168 Z" id="Path" fill="#24527a"/>
                    <path d="M11.1829475,26.9886513 L7.70394748,26.1453025 C7.14352581,26.0093778 6.57902554,26.3535006 6.44310084,26.9139223 C6.30717614,27.4743439 6.65129892,28.0388442 7.21172059,28.1747689 L10.6907206,29.0181176 C11.0532498,29.1060455 11.4351497,28.9938872 11.6925621,28.7238916 C11.9499744,28.4538959 12.0437924,28.0670818 11.9386755,27.7091584 C11.8335586,27.3512349 11.5454767,27.0765791 11.1829475,26.9886513 Z" id="Path" fill="#24527a"/>
                    <path d="M15.0773571,19.7487395 L12.0555315,17.8299496 C11.5687563,17.5207827 10.9235178,17.6647627 10.6143509,18.1515378 C10.305184,18.638313 10.4491639,19.2835516 10.9359391,19.5927185 L13.9579139,21.5119559 C14.4440496,21.8085224 15.0781631,21.660862 15.3832762,21.1800444 C15.6883893,20.6992267 15.5519606,20.0626022 15.0766113,19.7490378 L15.0773571,19.7487395 Z" id="Path" fill="#24527a"/>
                    <path d="M18.8773487,11.215166 C18.5160362,10.7657083 17.858777,10.6942526 17.4093194,11.0555652 C16.9598617,11.4168777 16.8884059,12.0741369 17.2497185,12.5235945 L19.492334,15.3139244 C19.7260623,15.6046992 20.0971626,15.7486936 20.4658451,15.6916664 C20.8345276,15.6346392 21.1447806,15.3852541 21.2797348,15.0374521 C21.414689,14.6896501 21.3538417,14.2962706 21.1201134,14.0054958 L18.8773487,11.215166 Z" id="Path" fill="#24527a"/>
                    <path d="M27.0426471,7.00662605 C26.9150451,6.65608694 26.6101256,6.40025029 26.2427489,6.3354873 C25.8753721,6.2707243 25.5013513,6.406874 25.2615766,6.69265012 C25.0218018,6.97842624 24.9527005,7.37041259 25.0803025,7.72095168 L26.3047542,11.0848004 C26.5020098,11.6266869 27.1012028,11.9060654 27.6430893,11.7088099 C28.1849758,11.5115543 28.4643543,10.9123613 28.2670987,10.3704748 L27.0426471,7.00662605 Z" id="Path" fill="#24527a"/>
                    <path d="M59.0482836,28.2494979 C59.1132292,28.5187846 59.2826515,28.7511643 59.5191678,28.8953631 C59.755684,29.0395619 60.0398557,29.0837285 60.3089811,29.0181176 L63.7879811,28.1747689 C64.3484028,28.0388442 64.6925255,27.4743439 64.5566008,26.9139223 C64.4206761,26.3535006 63.8561759,26.0093778 63.2957542,26.1453025 L59.8167542,26.9886513 C59.2563806,27.1246266 58.9123293,27.6891192 59.0482836,28.2494979 Z" id="Path" fill="#24527a"/>
                    <path d="M56.0483845,21.1902185 C56.1968252,21.4240037 56.4320608,21.5892422 56.7023375,21.6495803 C56.9726142,21.7099184 57.2557904,21.6604131 57.4895651,21.5119559 L60.5115399,19.5927185 C60.8264283,19.3927226 61.0107005,19.0399278 60.9949431,18.6672285 C60.9791858,18.2945292 60.7657926,17.9585474 60.4351469,17.785844 C60.1045012,17.6131407 59.7068358,17.6299536 59.3919475,17.8299496 L56.3701218,19.7487395 C56.1362537,19.8971827 55.9709567,20.1324741 55.910615,20.4028231 C55.8502732,20.6731721 55.8998326,20.9564193 56.0483845,21.1902185 Z" id="Path" fill="#24527a"/>
                    <path d="M54.1871702,11.0555651 C53.7377449,10.6943238 53.0805763,10.7657769 52.7192899,11.215166 L50.4765252,14.0060924 C50.242797,14.2968672 50.1819496,14.6902467 50.3169039,15.0380487 C50.4518581,15.3858507 50.7621111,15.6352358 51.1307936,15.692263 C51.4994761,15.7492902 51.8705764,15.6052958 52.1043046,15.314521 L54.3469202,12.5241912 C54.5206126,12.3083048 54.60137,12.0322311 54.5714068,11.7567712 C54.5414436,11.4813113 54.4032173,11.2290575 54.1871702,11.0555651 Z" id="Path" fill="#24527a"/>
                    <path d="M45.7430924,6.68086134 C45.4828696,6.58615176 45.1956813,6.59869631 44.9447077,6.71573526 C44.6937341,6.8327742 44.4995345,7.04471996 44.4048319,7.30494538 L43.1803803,10.6687941 C42.9831247,11.2106806 43.2625032,11.8098736 43.8043897,12.0071292 C44.3462762,12.2043848 44.9454692,11.9250062 45.1427248,11.3831197 L46.3671765,8.01927101 C46.4619323,7.75902973 46.4494116,7.47180353 46.3323693,7.22079494 C46.2153271,6.96978636 46.0033536,6.77556253 45.7430924,6.68086134 Z" id="Path" fill="#24527a"/>
                    <path d="M35.5,34.157563 C33.6876706,34.157563 32.2184874,35.6267463 32.2184874,37.4390756 C32.2184874,39.251405 33.6876706,40.7205882 35.5,40.7205882 C37.3123294,40.7205882 38.7815126,39.251405 38.7815126,37.4390756 C38.7794576,35.6275982 37.3114775,34.159618 35.5,34.157563 L35.5,34.157563 Z M35.5,38.6323529 C34.8409711,38.6323529 34.3067227,38.0981045 34.3067227,37.4390756 C34.3067227,36.7800468 34.8409711,36.2457983 35.5,36.2457983 C36.1590289,36.2457983 36.6932773,36.7800468 36.6932773,37.4390756 C36.6925375,38.0977978 36.1587222,38.6316131 35.5,38.6323529 Z" id="Shape" fill="#43D92D"/>
                    <path d="M35.5,4.47478992 C18.474916,4.47478992 4.62394958,18.3256071 4.62394958,35.3508403 C4.62394958,35.9274906 5.09141697,36.394958 5.66806723,36.394958 L30.6360525,36.394958 C31.2127028,36.394958 31.6801702,35.9274906 31.6801702,35.3508403 C31.6801702,33.2412066 33.3903662,31.5310105 35.5,31.5310105 C37.6096338,31.5310105 39.3198298,33.2412066 39.3198298,35.3508403 C39.3198298,35.9274906 39.7872972,36.394958 40.3639475,36.394958 L65.3319328,36.394958 C65.908583,36.394958 66.3760504,35.9274906 66.3760504,35.3508403 C66.3760504,18.3256071 52.525084,4.47478992 35.5,4.47478992 Z M41.3155861,34.3067227 C40.8098964,31.4914718 38.3603076,29.4426861 35.5,29.4426861 C32.6396924,29.4426861 30.1901036,31.4914718 29.6844139,34.3067227 L6.73082983,34.3067227 C7.28272059,18.9152353 19.9760588,6.56302521 35.5,6.56302521 C51.0239412,6.56302521 63.7172794,18.9152353 64.2691702,34.3067227 L41.3155861,34.3067227 Z" id="Shape" fill="#43D92D"/>
                </g>
            </g>
        </g>
    </g>
</svg>