<?xml version="1.0" encoding="UTF-8"?>
<svg width="52px" height="52px" viewBox="0 0 52 52" version="1.1" xmlns="http://www.w3.org/2000/svg" xmlns:xlink="http://www.w3.org/1999/xlink">
    <!-- Generator: Sketch 54 (76480) - https://sketchapp.com -->
    <title>Integration</title>
    <desc>Created with Sketch.</desc>
    <g id="Page-1" stroke="none" stroke-width="1" fill="none" fill-rule="evenodd">
        <g id="Biztalk" transform="translate(-1197.000000, -1659.000000)" fill-rule="nonzero">
            <g id="Group-4" transform="translate(1169.000000, 1626.000000)">
                <g id="Integration" transform="translate(28.000000, 33.000000)">
                    <path d="M6.25925926,41.0083502 L6.25925926,10.9032258 L1.44444444,10.9032258 L1.44444444,41.0083502 C1.44663552,41.419828 1.61473588,41.8131951 1.91101304,42.1001545 C2.20729019,42.387114 2.60692469,42.5436271 3.02021296,42.5345622 L7.83502778,42.5345622 C7.4217395,42.5436271 7.02210501,42.387114 6.72582785,42.1001545 C6.4295507,41.8131951 6.26145034,41.419828 6.25925926,41.0083502 Z" id="Path" fill="#D4E1F4"/>
                    <path d="M7.83502778,1.55760369 L3.02021296,1.55760369 C2.60641797,1.54957843 2.20667448,1.70707186 1.91049114,1.9948188 C1.6143078,2.28256574 1.44642867,2.67652694 1.44444444,3.08848848 L1.44444444,9.46543779 L6.25925926,9.46543779 L6.25925926,3.08848848 C6.26124348,2.67652694 6.42912261,2.28256574 6.72530595,1.9948188 C7.02148929,1.70707186 7.42123279,1.54957843 7.83502778,1.55760369 Z" id="Path" fill="#D4E1F4"/>
                    <path d="M17.0925926,28.3338894 C17.0926537,26.5284702 18.2059529,24.9081801 19.8962593,24.253447 C20.1870255,24.1411417 20.3733687,23.856671 20.3593241,23.5465346 C20.35475,23.4456498 20.3518611,23.3428479 20.3518611,23.2406452 C20.3560044,20.4114429 22.2289334,17.9218449 24.9551852,17.121659 C23.0178879,16.5544512 20.9253173,16.9296239 19.3085959,18.1340245 C17.6918746,19.3384251 16.740256,21.2310663 16.74075,23.2411244 C16.74075,23.3429677 16.7436389,23.446129 16.748213,23.5470138 C16.7622576,23.8571503 16.5759144,24.1416209 16.2851481,24.2539263 C14.5950057,24.9085959 13.4817411,26.5286452 13.4814815,28.3338894 C13.482164,30.7403417 15.4343409,32.6949221 17.8518889,32.7096774 L21.463,32.7096774 C19.045452,32.6949221 17.0932751,30.7403417 17.0925926,28.3338894 Z" id="Path" fill="#D4E1F4"/>
                    <path d="M48.979787,0.119815668 L3.02021296,0.119815668 C2.22343185,0.112216662 1.45652843,0.421337727 0.889556744,0.978633999 C0.322585059,1.53593027 0.00240008145,2.29534637 -2.84217094e-14,3.08848848 L-2.84217094e-14,41.0083502 C0.00258340622,41.8010113 0.322979561,42.5598439 0.890048287,43.1163582 C1.45711701,43.6728725 2.22392549,43.9810092 3.02021296,43.9723502 L16.6111111,43.9723502 L16.6111111,42.5345622 L3.02021296,42.5345622 C2.60692469,42.5436271 2.20729019,42.387114 1.91101304,42.1001545 C1.61473588,41.8131951 1.44663552,41.419828 1.44444444,41.0083502 L1.44444444,10.9032258 L50.5555556,10.9032258 L50.5555556,41.0083502 C50.5533645,41.419828 50.3852641,41.8131951 50.088987,42.1001545 C49.7927098,42.387114 49.3930753,42.5436271 48.979787,42.5345622 L35.2685185,42.5345622 L35.2685185,43.9723502 L48.979787,43.9723502 C49.7760745,43.9810092 50.542883,43.6728725 51.1099517,43.1163582 C51.6770204,42.5598439 51.9974166,41.8010113 52,41.0083502 L52,3.08848848 C51.9975999,2.29534637 51.6774149,1.53593027 51.1104433,0.978633999 C50.5434716,0.421337727 49.7765681,0.112216662 48.979787,0.119815668 Z M1.44444444,9.46543779 L1.44444444,3.08848848 C1.44642867,2.67652694 1.6143078,2.28256574 1.91049114,1.9948188 C2.20667448,1.70707186 2.60641797,1.54957843 3.02021296,1.55760369 L48.979787,1.55760369 C49.393582,1.54957843 49.7933255,1.70707186 50.0895089,1.9948188 C50.3856922,2.28256574 50.5535713,2.67652694 50.5555556,3.08848848 L50.5555556,9.46543779 L1.44444444,9.46543779 Z" id="Shape" fill="#0974FF"/>
                    <path d="M5.41666667,2.87797235 C4.02061355,2.87797235 2.88888889,4.00448169 2.88888889,5.39410138 C2.88888889,6.78372108 4.02061355,7.91023041 5.41666667,7.91023041 C6.81271978,7.91023041 7.94444444,6.78372108 7.94444444,5.39410138 C7.94285244,4.00513861 6.81205982,2.87955702 5.41666667,2.87797235 Z M5.41666667,6.4724424 C4.81835819,6.4724424 4.33333333,5.98965268 4.33333333,5.39410138 C4.33333333,4.79855009 4.81835819,4.31576037 5.41666667,4.31576037 C6.01497515,4.31576037 6.5,4.79855009 6.5,5.39410138 C6.49933662,5.98937895 6.01470015,6.47178208 5.41666667,6.4724424 L5.41666667,6.4724424 Z" id="Shape" fill="#0974FF"/>
                    <path d="M11.9166667,2.87797235 C10.5206135,2.87797235 9.38888889,4.00448169 9.38888889,5.39410138 C9.38888889,6.78372108 10.5206135,7.91023041 11.9166667,7.91023041 C13.3127198,7.91023041 14.4444444,6.78372108 14.4444444,5.39410138 C14.4428524,4.00513861 13.3120598,2.87955702 11.9166667,2.87797235 Z M11.9166667,6.4724424 C11.3183582,6.4724424 10.8333333,5.98965268 10.8333333,5.39410138 C10.8333333,4.79855009 11.3183582,4.31576037 11.9166667,4.31576037 C12.5149751,4.31576037 13,4.79855009 13,5.39410138 C12.9993366,5.98937895 12.5147002,6.47178208 11.9166667,6.4724424 L11.9166667,6.4724424 Z" id="Shape" fill="#0974FF"/>
                    <path d="M18.2962963,2.87797235 C16.9002432,2.87797235 15.7685185,4.00448169 15.7685185,5.39410138 C15.7685185,6.78372108 16.9002432,7.91023041 18.2962963,7.91023041 C19.6923494,7.91023041 20.8240741,6.78372108 20.8240741,5.39410138 C20.8224821,4.00513861 19.6916895,2.87955702 18.2962963,2.87797235 L18.2962963,2.87797235 Z M18.2962963,6.4724424 C17.6979878,6.4724424 17.212963,5.98965268 17.212963,5.39410138 C17.212963,4.79855009 17.6979878,4.31576037 18.2962963,4.31576037 C18.8946048,4.31576037 19.3796296,4.79855009 19.3796296,5.39410138 C19.3789663,5.98937895 18.8943298,6.47178208 18.2962963,6.4724424 L18.2962963,6.4724424 Z" id="Shape" fill="#0974FF"/>
                    <path d="M48.5092593,4.55299539 L27.8055556,4.55299539 C27.4066832,4.55299539 27.0833333,4.8748552 27.0833333,5.2718894 C27.0833333,5.6689236 27.4066832,5.99078341 27.8055556,5.99078341 L48.5092593,5.99078341 C48.9081316,5.99078341 49.2314815,5.6689236 49.2314815,5.2718894 C49.2314815,4.8748552 48.9081316,4.55299539 48.5092593,4.55299539 Z" id="Path" fill="#0974FF"/>
                    <path d="M34.1481111,34.1474654 C37.034145,34.1345755 39.478084,32.0255052 39.900094,29.1836197 C40.3221039,26.3417342 38.5956604,23.6190714 35.836787,22.7756406 C35.6188871,21.1796717 34.7438489,19.7458483 33.4213741,18.8177843 C32.0988993,17.8897203 30.4481821,17.5510618 28.8648148,17.8829677 C26.675122,15.5672158 23.2940483,14.8031742 20.3144538,15.9507913 C17.3348592,17.0984084 15.3510539,19.9287802 15.2976296,23.1084885 C14.7204867,23.3890492 14.1943931,23.7634573 13.741,24.2163041 C12.0778701,25.879247 11.5799727,28.3733443 12.4780248,30.5428751 C13.3760769,32.7124059 15.4945926,34.1334283 17.8518889,34.1474654 L21.3055556,34.1474654 L21.3055556,38.5806452 L18.7416667,38.5806452 C18.3428796,38.5806452 18.0555556,38.9533917 18.0555556,39.350341 L18.0555556,40.4730138 C16.7449698,40.7801191 15.8236742,41.9509483 15.8380926,43.2910783 C15.8380926,44.8984713 17.1471747,46.2015207 18.7620093,46.2015207 C20.3768438,46.2015207 21.6859259,44.8984713 21.6859259,43.2910783 C21.6667587,41.9727894 20.7764505,40.8250168 19.5,40.4730138 L19.5,40.0184332 L22.0408981,40.0184332 C22.2255378,40.0294314 22.4065148,39.9638614 22.5408505,39.8372947 C22.6751863,39.710728 22.750896,39.5344564 22.75,39.350341 L22.75,34.1474654 L25.2777778,34.1474654 L25.2777778,46.1913364 C23.8506418,46.5537438 22.9176556,47.9168765 23.1011273,49.3715158 C23.2845989,50.8261551 24.5271541,51.9174129 26,51.9174129 C27.4728459,51.9174129 28.7154011,50.8261551 28.8988727,49.3715158 C29.0823444,47.9168765 28.1493582,46.5537438 26.7222222,46.1913364 L26.7222222,34.1474654 L29.25,34.1474654 L29.25,37.193659 C29.249104,37.3777744 29.3248137,37.554046 29.4591495,37.6806126 C29.5934852,37.8071793 29.7744622,37.8727494 29.9591019,37.8617512 L32.5,37.8617512 L32.5,40.5056037 C31.2244929,40.8581096 30.3357571,42.0062431 30.3185278,43.323788 C30.3185277,44.3620051 30.8749742,45.3213573 31.7782592,45.8404659 C32.6815442,46.3595745 33.7944373,46.3595745 34.6977223,45.8404659 C35.6010073,45.3213573 36.1574537,44.3620051 36.1574537,43.323788 C36.1739904,41.9843953 35.2542056,40.8130838 33.9444444,40.5056037 L33.9444444,37.193659 C33.9444444,36.7967097 33.657,36.4239631 33.2583333,36.4239631 L30.6944444,36.4239631 L30.6944444,34.1474654 L34.1481111,34.1474654 Z M20.2190926,43.2910783 C20.2191591,44.1032118 19.5578007,44.7616297 18.7419074,44.7616958 C17.9260141,44.761762 17.264548,44.1034514 17.2644815,43.291318 C17.264415,42.4791845 17.9257733,41.8207666 18.7416667,41.8207005 C19.5571751,41.8215587 20.2180975,42.4793282 20.2190926,43.2910783 Z M27.4774259,49.0095207 C27.4774259,49.8215568 26.8161165,50.4798545 26.000321,50.4798986 C25.1845255,50.4799427 24.5231442,49.8217165 24.5230556,49.0096805 C24.5229669,48.1976444 25.1842045,47.5392752 26,47.5391429 C26.8154419,47.5400673 27.4762565,48.1978367 27.4771852,49.0095207 L27.4774259,49.0095207 Z M34.7357593,43.323788 C34.7357593,44.1359059 34.0743715,44.7942637 33.2584938,44.7942857 C32.4426162,44.7943078 31.7811925,44.1359857 31.7811482,43.3238679 C31.7811038,42.51175 32.4424557,41.8533565 33.2583333,41.8532903 C34.0737751,41.8542809 34.7345359,42.5121039 34.7353981,43.323788 L34.7357593,43.323788 Z M13.4814815,28.3338894 C13.4815426,26.5284702 14.5948418,24.9081801 16.2851481,24.253447 C16.5759144,24.1411417 16.7622576,23.856671 16.748213,23.5465346 C16.7436389,23.4456498 16.74075,23.3428479 16.74075,23.2406452 C16.740483,20.5575344 18.42727,18.1611662 20.9608794,17.2452328 C23.4944887,16.3292994 26.3330753,17.089685 28.0626667,19.1476221 C28.2479498,19.3683542 28.5475795,19.4579042 28.8243704,19.3752719 C30.1174074,18.9911532 31.5162029,19.2232607 32.6141362,20.0041224 C33.7120695,20.7849841 34.3859514,22.0269864 34.4398889,23.3690876 C34.452915,23.7005435 34.6920846,23.9800958 35.01875,24.0456866 C37.2147151,24.5086869 38.7084676,26.5428997 38.4850547,28.7661485 C38.2616419,30.9893973 36.3927006,32.6888024 34.1481111,32.7096774 L17.8518889,32.7096774 C15.4343409,32.6949221 13.482164,30.7403417 13.4814815,28.3338894 Z" id="Shape" fill="#43D92D"/>
                </g>
            </g>
        </g>
    </g>
</svg>