<?xml version="1.0" encoding="UTF-8"?>
<svg width="72px" height="71px" viewBox="0 0 72 71" version="1.1" xmlns="http://www.w3.org/2000/svg" xmlns:xlink="http://www.w3.org/1999/xlink">
    <!-- Generator: Sketch 54 (76480) - https://sketchapp.com -->
    <title>Organization-level Solutions</title>
    <desc>Created with Sketch.</desc>
    <g id="Page-1" stroke="none" stroke-width="1" fill="none" fill-rule="evenodd">
        <g id="MicrosoftDotNet" transform="translate(-392.000000, -1222.000000)" fill-rule="nonzero">
            <g id="Group-23" transform="translate(392.000000, 1222.000000)">
                <g id="Organization-level-Solutions">
                    <path d="M19.8025553,27.1082773 C20.8411103,28.0994275 21.9867159,28.9738231 23.218572,29.7155882 C22.4592284,32.0195951 22.0356712,34.4194826 21.9607516,36.842437 L15.9665637,36.842437 C16.1756757,33.2768106 17.5186903,29.8687952 19.8025553,27.1082773 L19.8025553,27.1082773 Z" id="Path" fill="#D4E1F4"/>
                    <path d="M28.7098121,54.4711702 C25.8973429,53.6619578 23.3273168,52.181706 21.2242171,50.1597101 C22.0714619,49.3486507 22.9993786,48.6249076 23.993737,47.9995798 C25.0806697,50.4669794 26.688962,52.6739437 28.7098121,54.4711702 Z" id="Path" fill="#D4E1F4"/>
                    <path d="M23.993737,27.7122248 C22.9993099,27.0869935 22.0713837,26.363243 21.2242171,25.5520945 C23.3273031,23.5300148 25.8973254,22.0496629 28.7098121,21.2403361 C26.6889482,23.0376677 25.0806571,25.244732 23.993737,27.7122248 L23.993737,27.7122248 Z" id="Path" fill="#D4E1F4"/>
                    <path d="M21.9607516,38.9306723 C22.0357568,41.3461006 22.4594949,43.7383676 23.219023,46.0344013 C21.9871684,46.7762262 20.8415639,47.650671 19.8030063,48.6418613 C17.5435517,45.8760249 16.2032757,42.4833837 15.9665637,38.9306723 L21.9607516,38.9306723 Z" id="Path" fill="#D4E1F4"/>
                    <path d="M69.7453027,35.2707416 C69.7446527,47.7961811 62.7048999,59.275715 51.4944483,65.0319146 C40.2839967,70.7881142 26.7744042,69.8599959 16.470263,62.625729 L21.2421044,56.1990357 C21.4921368,55.8622981 21.5155269,55.4099883 21.3015435,55.0496221 C21.0875602,54.6892558 20.6775049,54.4903884 20.2595073,54.5442584 L9.00586221,55.9945378 C8.72129541,56.0310289 8.46408962,56.1812598 8.29381543,56.4104361 C8.12354124,56.6396124 8.05497001,56.9278529 8.1039833,57.2083992 L10.043023,68.3039391 C10.115081,68.7160001 10.4279671,69.0456379 10.8381638,69.141651 C11.2483604,69.2376641 11.6767157,69.0815258 11.9267474,68.744855 L15.2219123,64.3072059 C26.1652104,72.0093467 40.5249186,73.0082955 52.4441111,66.896609 C64.3633036,60.7849224 71.8496535,48.5841863 71.8496868,35.2707416 C71.8586931,30.5626061 70.9201232,25.9000895 69.0890355,21.5567038 C68.8614133,21.0302516 68.2488405,20.784106 67.7162237,21.0050768 C67.1836069,21.2260477 66.9298729,21.8316047 67.1475908,22.362166 C68.8709239,26.4504895 69.7540996,30.8391748 69.7453027,35.2707416 Z M11.6952651,65.5362815 L10.365595,57.9251113 L18.0852276,56.9302164 L14.1661127,62.2086786 C14.1629562,62.2125567 14.1593486,62.2161366 14.1563424,62.2201639 C14.1512317,62.2268761 14.1471733,62.2340357 14.1422129,62.2407479 L11.6952651,65.5362815 Z" id="Shape" fill="#43D92D"/>
                    <path d="M2.10438413,35.7292584 C2.10503418,23.2038189 9.14478698,11.724285 20.3552386,5.96808543 C31.5656902,0.211885827 45.0752827,1.14000411 55.3794238,8.37427101 L50.6075825,14.8009643 C50.35755,15.1377019 50.3341599,15.5900117 50.5481433,15.9503779 C50.7621267,16.3107442 51.1721819,16.5096116 51.5901795,16.4557416 L62.8438246,15.0054622 C63.1283914,14.9689711 63.3855972,14.8187402 63.5558714,14.5895639 C63.7261456,14.3603876 63.7947168,14.0721471 63.7457035,13.7916008 L61.8066639,2.69606092 C61.7346059,2.28399991 61.4217197,1.95436208 61.0115231,1.85834897 C60.6013265,1.76233586 60.1729712,1.91847422 59.9229395,2.25514496 L56.6277745,6.69279412 C45.6844765,-1.00934666 31.3247683,-2.00829552 19.4055758,4.10339102 C7.48638329,10.2150776 3.33523356e-05,22.4158137 -4.47877141e-15,35.7292584 C-0.00900623496,40.4373939 0.929563627,45.0999105 2.76065136,49.4432962 C2.98827357,49.9697484 3.60084633,50.215894 4.13346312,49.9949232 C4.66607991,49.7739523 4.91981392,49.1683953 4.70209603,48.637834 C2.97876294,44.5495105 2.09558726,40.1608252 2.10438413,35.7292584 L2.10438413,35.7292584 Z M60.1544217,5.46371849 L61.4840919,13.0748887 L53.7644593,14.0697836 L57.6835741,8.79147059 C57.6867307,8.78744328 57.6903382,8.78386345 57.6933445,8.77983613 C57.6984551,8.77312395 57.7025136,8.76596429 57.7074739,8.7592521 L60.1544217,5.46371849 Z" id="Shape" fill="#43D92D"/>
                    <path d="M47.8786472,31.0238676 C49.8782252,31.0336518 51.6864008,29.8459088 52.4584478,28.0155169 C53.2304949,26.185125 52.8140191,24.0733851 51.4035856,22.6668397 C49.9931522,21.2602942 47.8671664,20.836581 46.0188259,21.5936463 C44.1704854,22.3507117 42.9646339,24.1391185 42.9646096,26.1233761 C42.9609451,28.8219203 45.1592496,31.0141649 47.8786472,31.0238676 Z M47.8786472,23.3112689 C49.027073,23.3014766 50.0679134,23.9804335 50.5142374,25.0305068 C50.9605615,26.0805801 50.7241161,27.2941354 49.9155163,28.1034414 C49.1069164,28.9127473 47.8860492,29.1577774 46.8240666,28.7239003 C45.762084,28.2900232 45.0689752,27.263031 45.0689937,26.1233761 C45.0640808,24.5776429 46.3209756,23.3196504 47.8786472,23.3112689 L47.8786472,23.3112689 Z" id="Shape" fill="#24527a"/>
                    <path d="M33.773261,57.2714937 C33.9085428,57.2714937 34.0424718,57.2691071 34.1765511,57.2665714 C34.2015031,57.2683613 34.2260042,57.271792 34.2517077,57.271792 C34.2983382,57.271424 34.3448906,57.2679357 34.391048,57.2613508 C45.1040167,56.9425966 53.7184635,48.3606954 53.7184635,37.8556786 C53.7184635,37.3619601 53.6950146,36.1536176 53.6401503,35.2429979 L55.0905219,33.7406618 C56.0961101,32.7223252 56.8803449,31.5099948 57.3946722,30.178729 C57.883728,28.8968696 58.0901372,27.5258579 57.9999833,26.1581303 C57.8274022,23.6619799 56.7381286,21.3153545 54.9385553,19.5628866 C51.0121396,15.7609198 44.7463573,15.7609198 40.8199415,19.5628866 C40.7898789,19.5927185 40.7598163,19.6244895 40.7297537,19.6549181 C38.5010073,18.8477573 36.1463972,18.4365046 33.7738622,18.4400126 C22.7758998,18.4403109 13.82881,27.1501912 13.82881,37.8567227 C13.82881,48.5632542 22.7758998,57.2714937 33.773261,57.2714937 Z M19.8025553,27.1082773 C20.8411103,28.0994275 21.9867159,28.9738231 23.218572,29.7155882 C22.4592284,32.0195951 22.0356712,34.4194826 21.9607516,36.842437 L15.9665637,36.842437 C16.1756757,33.2768106 17.5186903,29.8687952 19.8025553,27.1082773 L19.8025553,27.1082773 Z M32.7682672,20.9548445 L32.7682672,30.4722752 C30.3840646,30.340252 28.0486033,29.7486574 25.8923424,28.7305378 C27.3735282,25.3571429 29.611691,22.6616786 32.7682672,20.9548445 Z M32.7682672,32.5639412 L32.7682672,36.842437 L24.0664885,36.842437 C24.1397222,34.7593575 24.4971641,32.6957411 25.1290522,30.7079475 C27.5299243,31.8127722 30.1246025,32.443165 32.7682672,32.5639412 L32.7682672,32.5639412 Z M32.7682672,38.9306723 L32.7682672,43.1480126 C30.1226435,43.2791594 27.5280178,43.9199251 25.1290522,45.034584 C24.5097972,43.0542378 24.1526161,41.0024059 24.0664885,38.9306723 L32.7682672,38.9306723 Z M32.7682672,45.2401261 L32.7682672,54.7565126 C29.611691,53.0495294 27.3733779,50.3546618 25.8923424,46.9808193 C28.0486277,45.9629238 30.3841133,45.3716777 32.7682672,45.2401261 L32.7682672,45.2401261 Z M28.7098121,54.4716176 C25.8972985,53.6622758 23.3272684,52.1818681 21.2242171,50.1597101 C22.0714619,49.3486507 22.9993786,48.6249076 23.993737,47.9995798 C25.0806697,50.4669794 26.688962,52.6739437 28.7098121,54.4711702 L28.7098121,54.4716176 Z M34.8726514,54.7575567 L34.8726514,45.2401261 C37.2555186,45.375397 39.5878682,45.9771766 41.7353486,47.0108004 C40.2538622,50.3712185 37.8789144,53.0551975 34.8726514,54.7565126 L34.8726514,54.7575567 Z M43.5341461,48.0414937 C44.5180563,48.6701703 45.4359073,49.3952384 46.273904,50.2058004 C44.1797028,52.2044238 41.6276332,53.6683768 38.8371608,54.4717668 C40.8465206,52.684635 42.4479239,50.4921272 43.5341461,48.0410462 L43.5341461,48.0414937 Z M34.8726514,43.1484601 L34.8726514,38.9306723 L43.4800334,38.9306723 C43.4082171,41.0104028 43.0636556,43.071986 42.455048,45.0633718 C40.0738846,43.9507636 37.5001026,43.3007626 34.8726514,43.1484601 L34.8726514,43.1484601 Z M43.4728184,36.6622521 C43.4753737,36.7169937 43.4776284,36.6932773 43.4797328,36.842437 L34.8726514,36.842437 L34.8726514,32.5615546 C36.3443726,32.4899688 37.8035338,32.2564457 39.2233152,31.8652773 C39.6397185,32.5428474 40.1277378,33.1744291 40.6790981,33.749313 L43.4728184,36.6622521 Z M38.3053528,29.9439517 C37.1791176,30.2199631 36.0303439,30.3958712 34.8726514,30.4695903 L34.8726514,20.9532038 C36.1254298,21.6823185 37.2771504,22.5702799 38.298739,23.5946723 C38.0161173,24.4237272 37.842278,25.2854512 37.7815115,26.1585777 C37.6974904,27.4424988 37.8756667,28.7300334 38.3053528,29.9439517 L38.3053528,29.9439517 Z M23.993737,27.7122248 C22.9993099,27.0869935 22.0713837,26.363243 21.2242171,25.5520945 C23.3273031,23.5300148 25.8973254,22.0496629 28.7098121,21.2403361 C26.6889482,23.0376677 25.0806571,25.244732 23.993737,27.7122248 L23.993737,27.7122248 Z M21.9607516,38.9306723 C22.0357568,41.3461006 22.4594949,43.7383676 23.219023,46.0344013 C21.9871684,46.7762262 20.8415639,47.650671 19.8030063,48.6418613 C17.5435517,45.8760249 16.2032757,42.4833837 15.9665637,38.9306723 L21.9607516,38.9306723 Z M51.613929,37.8567227 C51.6128846,41.802432 50.2301002,45.6251551 47.7021795,48.6707983 C46.6724766,47.6804929 45.5364909,46.8051681 44.314572,46.0605042 C45.0898996,43.7273316 45.5193248,41.2947086 45.5893779,38.8389391 L47.1194154,40.4237605 C47.3178756,40.6293097 47.5923059,40.7455382 47.8791733,40.7455382 C48.1660406,40.7455382 48.440471,40.6293097 48.6389311,40.4237605 L51.6089687,37.3473424 C51.6116743,37.5446807 51.6134781,37.7197941 51.6134781,37.8567227 L51.613929,37.8567227 Z M47.8786472,18.7999349 C49.9665274,18.7900273 51.9736831,19.5996394 53.4624802,21.0522458 C54.8949224,22.4467843 55.7621355,24.3142726 55.8998079,26.3008761 C55.9692611,27.372587 55.8063162,28.4466167 55.4219624,29.4505315 C55.0072959,30.514845 54.3771357,31.4834937 53.570405,32.2966471 L47.8786472,38.1920336 L42.1868894,32.2963487 C41.3801925,31.4832258 40.7500357,30.514633 40.3353319,29.4503824 C39.9510611,28.446394 39.7881193,27.3723337 39.8574864,26.3005777 C39.9951578,24.3139435 40.8624322,22.4464386 42.2949645,21.0519475 C43.7837366,19.5994315 45.7908491,18.7899223 47.8786472,18.7999349 Z M39.2147474,21.5834034 C39.0880334,21.4654181 38.9604175,21.3487752 38.8306973,21.2348172 C38.9993486,21.283145 39.1672484,21.3340084 39.3343967,21.3874076 C39.2930605,21.452292 39.2544301,21.5183697 39.2147474,21.5834034 Z" id="Shape" fill="#24527a"/>
                </g>
            </g>
        </g>
    </g>
</svg>