<?xml version="1.0" encoding="UTF-8"?>
<svg width="60px" height="67px" viewBox="0 0 60 67" version="1.1" xmlns="http://www.w3.org/2000/svg" xmlns:xlink="http://www.w3.org/1999/xlink">
    <!-- Generator: Sketch 54 (76480) - https://sketchapp.com -->
    <title>Social Network</title>
    <desc>Created with Sketch.</desc>
    <g id="Page-1" stroke="none" stroke-width="1" fill="none" fill-rule="evenodd">
        <g id="Node-JS" transform="translate(-393.000000, -1721.000000)" fill-rule="nonzero">
            <g id="Group-4" transform="translate(393.000000, 1717.000000)">
                <g id="Social-Network" transform="translate(0.000000, 4.000000)">
                    <path d="M29.4144595,43.5065765 C23.30506,41.4064403 19.443601,35.4620324 20.0650216,29.1138633 C20.6864421,22.7656941 25.6297216,17.6586818 32.0337838,16.748668 C26.5811251,15.9497616 21.158547,18.36919 18.1693643,22.9346501 C15.1801816,27.5001102 15.1772866,33.3671545 18.1619622,37.9354786 C21.1466379,42.5038026 26.5668257,44.9284293 32.0202703,44.1347515 C31.1333645,44.0075781 30.2608022,43.7972321 29.4144595,43.5065765 L29.4144595,43.5065765 Z" id="Path" fill="#D4E1F4"/>
                    <g id="Group" fill="#0B75FF">
                        <path d="M38.3191892,66.5247396 C41.5351388,67.6332627 45.0540561,65.9634115 46.1806757,62.7941849 C46.8925718,60.7879184 46.4892369,58.5608299 45.1170663,56.9212685 C43.7448957,55.2817072 41.6033501,54.4680019 39.4697297,54.775497 L36.6028378,43.716501 C36.4919704,43.2888322 36.0503659,43.0307276 35.6164865,43.140008 C35.1826071,43.2492885 34.9207542,43.6845718 35.0316216,44.1122406 L37.9090541,55.2117296 C35.5761652,56.203033 34.0995566,58.503907 34.1902808,61.0063789 C34.281005,63.5088508 35.9204654,65.6999663 38.3191892,66.5246064 L38.3191892,66.5247396 Z M36.0624324,59.3089861 C36.8942529,56.97609 39.4852805,55.747504 41.8536339,56.5629756 C44.2219874,57.3784471 45.4733446,59.9300432 44.6505405,62.2660437 C43.8187201,64.5989398 41.2276925,65.8275258 38.859339,65.0120543 C36.4909856,64.1965827 35.2396283,61.6449867 36.0624324,59.3089861 L36.0624324,59.3089861 Z" id="Shape"/>
                        <path d="M5.7027027,47.0633042 C8.1231294,47.0628385 10.2796963,45.55668 11.0825676,43.3059761 C11.4708525,42.2209733 11.5081517,41.0439692 11.1893243,39.9371948 L16.8266216,37.2332187 C17.0899938,37.109989 17.2659714,36.8568742 17.2875184,36.5702947 C17.3090653,36.2837152 17.1728639,36.0077958 16.9307982,35.8476441 C16.6887325,35.6874924 16.3780734,35.6677671 16.1171622,35.7959821 L10.5316216,38.4753161 C9.07950737,36.1899673 6.18328604,35.246239 3.63538245,36.2281894 C1.08747885,37.2101399 -0.391228244,39.8399456 0.114409205,42.4900623 C0.620046653,45.1401789 2.96696857,47.0608084 5.7027027,47.0633042 L5.7027027,47.0633042 Z M2.03905405,43.1947535 C1.24045087,41.5582796 1.65613027,39.5971451 3.05264714,38.4127213 C4.44916401,37.2282974 6.478526,37.1157258 8.00104554,38.1382266 C9.52356508,39.1607273 10.1598517,41.0635077 9.55256757,42.7779682 C9.00757183,44.3094825 7.58090661,45.3670903 5.93694332,45.4582832 C4.29298003,45.5494762 2.75493772,44.656325 2.03905405,43.1947535 L2.03905405,43.1947535 Z" id="Shape"/>
                        <path d="M25.9768919,6.22900199 C26.1284537,6.28043517 26.2836468,6.32081506 26.4412162,6.34981511 L27.7114865,15.9761034 C27.7639841,16.3738872 28.1074991,16.6716847 28.5144595,16.6722107 C28.5498381,16.6722271 28.5851811,16.6700025 28.6202703,16.6655507 C29.0642877,16.6085541 29.3773745,16.2075759 29.3195946,15.7699085 L28.0628378,6.24671769 C29.572453,5.75627841 30.5000554,4.26083677 30.2548517,2.71284531 C30.0096479,1.16485384 28.6637097,0.0193077202 27.0742703,0.00580966328 C25.4848309,-0.00768839365 24.119068,1.11482905 23.8468413,2.65842632 C23.5746147,4.20202359 24.4759387,5.71299708 25.9767568,6.22900199 L25.9768919,6.22900199 Z M25.5109459,2.67467197 C25.7293068,2.06147828 26.3006087,1.63808048 26.9588775,1.60159472 C27.6171463,1.56510895 28.2330026,1.92270632 28.5197297,2.50790457 C28.7085566,2.89099602 28.7338642,3.33267183 28.59,3.73428429 C28.371611,4.34747222 27.8003118,4.77086756 27.1420408,4.80738095 C26.4837697,4.84389434 25.8678857,4.48635042 25.5810811,3.90118489 C25.392291,3.51803005 25.3670323,3.07631091 25.5109459,2.67467197 L25.5109459,2.67467197 Z" id="Shape"/>
                        <path d="M53.0116216,36.9232604 C51.9481361,36.5576171 50.7684466,36.7600081 49.8928378,37.458328 L44.492027,34.4669046 C44.1016214,34.2506609 43.6072893,34.3873169 43.3879054,34.7721342 C43.1685215,35.1569515 43.307162,35.6442077 43.6975676,35.8604513 L48.9205405,38.7534394 C48.9021622,38.798328 48.8844595,38.8436163 48.8681081,38.889837 C48.2886353,40.5573556 49.1836523,42.373202 50.8717157,42.9548365 C52.5597791,43.536471 54.4075772,42.6656816 55.0082432,41.0054652 C55.292956,40.2031636 55.242523,39.3222215 54.8680473,38.5565851 C54.4935717,37.7909487 53.8257548,37.2033885 53.0116216,36.9232604 L53.0116216,36.9232604 Z M53.4777027,40.4773241 C53.2594166,41.0906142 52.6880904,41.5141175 52.0297557,41.5506344 C51.371421,41.5871513 50.7554978,41.2295031 50.4687838,40.6442247 C50.2799863,40.2611189 50.2547271,39.8194376 50.3986486,39.4178449 C50.6168761,38.8045347 51.188188,38.3809994 51.8465225,38.3444808 C52.5048569,38.3079623 53.1207714,38.6656408 53.4074324,39.2509443 C53.5962593,39.6340358 53.6215669,40.0757116 53.4777027,40.4773241 L53.4777027,40.4773241 Z" id="Shape"/>
                        <path d="M57.2889189,13.4560775 C56.0392798,13.0234368 54.6536473,13.2250214 53.5840955,13.9950627 C52.5145437,14.7651039 51.8982241,16.0048572 51.9362162,17.3098429 L42.3541892,22.1632803 C42.0954573,22.2931907 41.9269551,22.549559 41.9124208,22.8354102 C41.8978866,23.1212615 42.0395394,23.3929515 42.2837972,23.5477097 C42.5280549,23.7024679 42.8376239,23.7166657 43.0954054,23.5849324 L52.3268919,18.9095845 C53.0301695,20.3596858 54.551212,21.2486248 56.1794091,21.1611013 C57.8076061,21.0735777 59.2215541,20.0268685 59.7606757,18.5099821 C60.113183,17.5167597 60.050768,16.4261637 59.5871732,15.4783194 C59.1235784,14.5304751 58.2968153,13.8030992 57.2889189,13.4563439 L57.2889189,13.4560775 Z M58.2297297,17.9821074 C57.8515283,19.0482151 56.7619712,19.7025298 55.6273788,19.5449045 C54.4927863,19.3872791 53.6291524,18.4616138 53.5646335,17.3340004 C53.5001147,16.2063869 54.2526799,15.1908757 55.362097,14.9085039 C56.471514,14.6261321 57.6288005,15.1555428 58.1262162,16.1729742 C58.4046655,16.7381379 58.4419441,17.3896671 58.2297297,17.9821074 L58.2297297,17.9821074 Z" id="Shape"/>
                    </g>
                    <path d="M44.7972973,35.5386382 C46.1691574,31.6725237 45.9259327,27.4274886 44.1211766,23.7382091 C42.3164206,20.0489297 39.0981132,17.2179064 35.1748649,15.8684771 C27.0156757,13.0579404 18.057027,17.3097097 15.2035135,25.3451809 C13.3561849,30.5559308 14.4694545,36.3422932 18.1239645,40.5246015 C21.7784744,44.7069098 27.4190177,46.6497717 32.9208563,45.6213301 C38.4226949,44.5928885 42.9499687,40.7493881 44.7972973,35.5386382 L44.7972973,35.5386382 Z M29.9875676,44.2834036 C23.8776371,44.2733291 18.4755754,40.3700937 16.6270812,34.6298444 C14.778587,28.8895951 16.9079776,22.6299916 21.8935322,19.1484688 C26.8790868,15.666946 33.576384,15.7626787 38.4574205,19.3852368 C43.3384571,23.0077949 45.2828033,29.3256292 43.2662162,35.0106302 C41.3020004,40.5786348 35.9681517,44.303379 29.9875676,44.2834036 L29.9875676,44.2834036 Z" id="Shape" fill="#43D92D"/>
                    <path d="M30.137973,29.7153658 C31.7595946,29.7153658 32.9827027,28.5683738 32.9827027,27.0473539 C32.9926733,26.039113 32.4526878,25.103226 31.5684699,24.5962472 C30.684252,24.0892684 29.5919642,24.0892684 28.7077463,24.5962472 C27.8235284,25.103226 27.2835429,26.039113 27.2935135,27.0473539 C27.2932432,28.5683738 28.5162162,29.7153658 30.137973,29.7153658 Z M30.137973,25.8416203 C30.8131901,25.8424278 31.3603365,26.3818018 31.3610811,27.0473539 C31.3610811,27.7822227 30.727027,28.1169563 30.137973,28.1169563 C29.5489189,28.1169563 28.9148649,27.7822227 28.9148649,27.0473539 C28.9156095,26.3818018 29.4627559,25.8424278 30.137973,25.8416203 Z" id="Shape" fill="#43D92D"/>
                    <path d="M30.2127027,29.9467356 L30.0631081,29.9467356 C27.6348692,29.9494516 25.6670798,31.8890738 25.6643243,34.2825547 L25.6643243,34.8362704 C25.6647715,35.4094515 26.1360627,35.8739966 26.7175676,35.8744374 L33.5582432,35.8744374 C34.1396953,35.8739232 34.6109043,35.4093996 34.6113514,34.8362704 L34.6113514,34.2825547 C34.6086704,31.8890954 32.6409197,29.9494517 30.2127027,29.9467356 L30.2127027,29.9467356 Z M27.2859459,34.2757614 C27.2915973,32.7673462 28.5327783,31.5469676 30.0631081,31.5451451 L30.2127027,31.5451451 C31.743041,31.546895 32.9842265,32.7673373 32.9897297,34.2757614 L27.2859459,34.2757614 Z" id="Shape" fill="#43D92D"/>
                </g>
            </g>
        </g>
    </g>
</svg>