<?xml version="1.0" encoding="UTF-8"?>
<svg width="72px" height="74px" viewBox="0 0 72 74" version="1.1" xmlns="http://www.w3.org/2000/svg" xmlns:xlink="http://www.w3.org/1999/xlink">
    <!-- Generator: Sketch 54 (76480) - https://sketchapp.com -->
    <title>Version Controls and Upgrades</title>
    <desc>Created with Sketch.</desc>
    <g id="Page-1" stroke="none" stroke-width="1" fill="none" fill-rule="evenodd">
        <g id="Java-App-Development" transform="translate(-392.000000, -1826.000000)" fill-rule="nonzero">
            <g id="Group-4" transform="translate(392.000000, 1826.000000)">
                <g id="Version-Controls-and-Upgrades">
                    <path d="M11.1842494,39.9692241 L11.1842494,39.0546173 C6.38092356,39.5307584 2.58058243,43.3450843 2.1062678,48.1669066 L5.41935256,48.1669066 C5.76942652,44.6065661 7.95916848,41.492486 11.1842494,39.9692241 L11.1842494,39.9692241 Z" id="Path" fill="#D4E1F4"/>
                    <path d="M5.37146805,61.834691 L5.37146805,50.1617627 L2.05838329,50.1617627 L2.05838329,61.834691 C2.06420719,67.4347085 6.58475597,71.9720155 12.1632918,71.9785112 L12.1930579,71.9785112 C12.7430817,71.9778617 13.2918113,71.9323911 13.8347172,71.8427493 C8.95697635,71.0301264 5.377939,66.7981214 5.37146805,61.834691 Z" id="Path" fill="#D4E1F4"/>
                    <path d="M30.4538493,40.6421875 C34.9562797,40.6369909 38.6045555,36.9746664 38.6097322,32.4548982 L38.6097322,21.4698736 C38.6097322,20.9183814 38.1651835,20.4721208 37.6158068,20.4721208 C37.0670771,20.4721208 36.6218813,20.9183814 36.6218813,21.4698736 L36.6218813,32.4548982 C36.6335288,34.6745084 35.4603604,36.7310744 33.5475716,37.8438027 C31.6341358,38.9571804 29.2735629,38.9571804 27.3607741,37.8438027 C25.4473383,36.7310744 24.2741696,34.6745084 24.2858173,32.4548982 L24.2858173,26.4216117 C24.2676989,22.802809 21.3402779,19.8784058 17.7347098,19.8784058 C14.1297889,19.8784058 11.2023679,22.802809 11.1842494,26.4216117 L11.1842494,37.0539151 C4.91009516,37.5716292 0.0782974696,42.830618 0.0705324272,49.1497191 L0.0705324272,61.8353405 C0.0776504242,68.5363939 5.48729664,73.9668714 12.1632918,73.9746664 L12.1930579,73.9746664 C18.868406,73.9668714 24.2780522,68.5363939 24.2858173,61.8353405 L24.2858173,49.1490696 C24.2774052,42.8299684 19.4462546,37.5709797 13.1721003,37.0532654 L13.1721003,26.4216117 C13.1869833,23.9025456 15.2253069,21.8687148 17.7347098,21.8687148 C20.2441126,21.8687148 22.2830834,23.9025456 22.2979664,26.4216117 L22.2979664,32.4548982 C22.3031431,36.9746664 25.9514188,40.6369909 30.4538493,40.6421875 Z M11.1842494,39.0539676 L11.1842494,48.1662571 L2.1062678,48.1662571 C2.58058243,43.3444347 6.38092356,39.5301089 11.1842494,39.0539676 Z M12.1930579,71.9785112 L12.1632918,71.9785112 C6.58475597,71.9720155 2.06420719,67.4347085 2.05838329,61.834691 L2.05838329,50.1617627 L22.2979664,50.1617627 L22.2979664,61.834691 C22.2914955,67.4347085 17.7715937,71.9720155 12.1930579,71.9785112 Z M22.2500819,48.1662571 L13.1721003,48.1662571 L13.1721003,39.0539676 C17.9754262,39.5301089 21.7757673,43.3444347 22.2500819,48.1662571 Z" id="Shape" fill="#0B75FF"/>
                    <g id="Group" transform="translate(7.620095, 0.000000)">
                        <path d="M28.2705781,9.05382716 C27.2908887,9.05382716 26.496266,9.85086021 26.496266,10.8343224 C26.4969131,11.8177844 27.2908887,12.615467 28.2705781,12.615467 C29.2502677,12.615467 30.0448904,11.8177844 30.0442434,10.8343224 C30.0435962,9.85150991 29.2496205,9.05447687 28.2705781,9.05382716 Z M28.2705781,11.0493328 C28.1521612,11.0493328 28.0563925,10.9531953 28.0563925,10.8343224 C28.0563925,10.7154494 28.1521612,10.6193118 28.2705781,10.6193118 C28.3889951,10.6193118 28.4847639,10.7154494 28.4847639,10.8343224 C28.4847639,10.9531953 28.3889951,11.0493328 28.2705781,11.0493328 Z" id="Shape" fill="#1AE5BE"/>
                        <path d="M36.172803,9.05382716 C35.1931135,9.05382716 34.3991379,9.85086021 34.3991379,10.8343224 C34.3991379,11.8177844 35.1931135,12.615467 36.1734502,12.615467 C37.1531396,12.615467 37.9471152,11.8177844 37.9471152,10.8343224 C37.945821,9.85150991 37.1524926,9.05447687 36.172803,9.05382716 Z M36.172803,11.0493328 C36.0550332,11.0493328 35.9592644,10.9531953 35.9592644,10.8343224 C35.9592644,10.7154494 36.0550332,10.6193118 36.172803,10.6193118 C36.2912199,10.6193118 36.3869888,10.7154494 36.3869888,10.8343224 C36.3869888,10.9525456 36.2912199,11.0486832 36.172803,11.0493328 Z" id="Shape" fill="#1AE5BE"/>
                        <path d="M44.0756749,9.05382716 C43.0959854,9.05382716 42.3013627,9.85086021 42.3013627,10.8343224 C42.3013627,11.8177844 43.0959854,12.615467 44.0756749,12.615467 C45.0553645,12.615467 45.8499871,11.8177844 45.8493401,10.8343224 C45.848693,9.85150991 45.0547174,9.05447687 44.0756749,9.05382716 Z M44.0756749,11.0493328 C43.9572581,11.0493328 43.8614892,10.9531953 43.8614892,10.8343224 C43.8614892,10.7154494 43.9572581,10.6193118 44.0756749,10.6193118 C44.1940918,10.6193118 44.2898606,10.7154494 44.2898606,10.8343224 C44.2898606,10.9525456 44.1940918,11.0486832 44.0756749,11.0493328 Z" id="Shape" fill="#1AE5BE"/>
                        <path d="M20.3683533,9.05382716 C19.3886639,9.05382716 18.5940412,9.85086021 18.5940412,10.8343224 C18.5940412,11.8177844 19.3880167,12.615467 20.3683533,12.615467 C21.3480429,12.615467 22.1420184,11.8177844 22.1420184,10.8343224 C22.1407243,9.85150991 21.3473959,9.05447687 20.3683533,9.05382716 Z M20.3683533,11.0493328 C20.2499365,11.0493328 20.1541675,10.9531953 20.1541675,10.8343224 C20.1541675,10.7154494 20.2499365,10.6193118 20.3677063,10.6193118 C20.4861232,10.6193118 20.5818921,10.7154494 20.5818921,10.8343224 C20.5818921,10.9525456 20.4861232,11.0486832 20.3683533,11.0493328 Z" id="Shape" fill="#1AE5BE"/>
                        <path d="M50.4436568,17.6522999 C51.9067202,17.6503511 53.0928304,16.460323 53.0941247,14.9916257 L53.0941247,6.677019 C53.0928304,5.20832155 51.9067202,4.01829346 50.4436568,4.01634484 L13.9997244,4.01634484 C12.5366611,4.01829346 11.3511979,5.20832155 11.3492566,6.677019 L11.3492566,14.9916257 C11.3511979,16.460323 12.5366611,17.6503511 13.9997244,17.6522999 L26.7447474,17.6522999 L26.7447474,19.1638695 C26.7369823,20.3350596 27.3543031,21.4211552 28.3637586,22.0096735 C29.3732142,22.5975421 30.6188565,22.5975421 31.628312,22.0096735 C32.6371203,21.4211552 33.2550883,20.3350596 33.2466762,19.1638695 L33.2466762,17.6522999 L50.4436568,17.6522999 Z M13.3371075,14.9916257 L13.3371075,6.677019 C13.3371075,6.3093574 13.6341204,6.01185046 13.9997244,6.01185046 L50.4436568,6.01185046 C50.8099079,6.01185046 51.1062738,6.3093574 51.1062738,6.677019 L51.1062738,14.9916257 C51.1062738,15.3586376 50.8099079,15.6567943 50.4436568,15.6567943 L13.9997244,15.6567943 C13.6341204,15.6567943 13.3371075,15.3586376 13.3371075,14.9916257 Z M31.2588254,19.1638695 C31.2640021,19.6205231 31.0245798,20.0440484 30.6317981,20.2739993 C30.2390165,20.5039501 29.7530542,20.5039501 29.3602724,20.2739993 C28.9674908,20.0440484 28.7274216,19.6205231 28.7325982,19.1638695 L28.7325982,17.6522999 L31.2588254,17.6522999 L31.2588254,19.1638695 Z" id="Shape" fill="#43D92D"/>
                        <path d="M57.7492675,9.82357799 C57.7492675,10.3744207 58.1944633,10.8213308 58.7431929,10.8213308 L63.1718555,10.8213308 C63.7205851,10.8213308 64.1657809,10.3744207 64.1657809,9.82357799 C64.1657809,9.27208559 63.7205851,8.82582518 63.1718555,8.82582518 L58.7431929,8.82582518 C58.1944633,8.82582518 57.7492675,9.27208559 57.7492675,9.82357799 Z" id="Path" fill="#43D92D"/>
                        <path d="M60.9174048,0.365712822 L56.4887423,3.69610244 C56.195612,3.90656609 56.0390169,4.25993688 56.0791363,4.61980337 C56.1192558,4.97902032 56.3502658,5.28821976 56.6828683,5.42852875 C57.0154711,5.5681882 57.3972522,5.51622191 57.6806764,5.29276685 L62.1093389,1.96237707 C62.5338279,1.62784402 62.6147137,1.0133427 62.2905232,0.579424157 C61.9669798,0.145505618 61.3567768,0.050667218 60.9174048,0.365712822 Z" id="Path" fill="#43D92D"/>
                        <path d="M56.4887423,15.9510534 L60.9174048,19.2814432 C61.3567768,19.5971383 61.9669798,19.5022999 62.2905232,19.0683814 C62.6147137,18.6344628 62.5338279,18.0199613 62.1093389,17.6854283 L57.6806764,14.3550387 C57.2413044,14.0393434 56.6311014,14.1341819 56.3069109,14.5681005 C55.9827204,15.002019 56.0636063,15.6165203 56.4887423,15.9517029 L56.4887423,15.9510534 Z" id="Path" fill="#43D92D"/>
                        <path d="M6.53040067,9.82357799 C6.53040067,9.27208559 6.08520491,8.82582518 5.53647524,8.82582518 L1.10781272,8.82582518 C0.558436009,8.82582518 0.113887289,9.27208559 0.113887289,9.82357799 C0.113887289,10.3744207 0.558436009,10.8213308 1.10781272,10.8213308 L5.5358282,10.8213308 C6.08520491,10.8213308 6.53040067,10.3744207 6.53040067,9.82357799 Z" id="Path" fill="#43D92D"/>
                        <path d="M6.59963901,14.3537394 L2.17097648,17.6834797 C1.73160446,18.0141152 1.6429536,18.6396595 1.97232077,19.0807234 C2.30168795,19.5211376 2.9241856,19.6107796 3.36355762,19.2801439 L7.79092589,15.9510534 C8.0840562,15.7405899 8.24129835,15.3872191 8.20053184,15.0280021 C8.16041254,14.6687852 7.92940256,14.3589361 7.59679983,14.2192766 C7.26484431,14.0796173 6.88306297,14.1315836 6.59963901,14.3550387 L6.59963901,14.3537394 Z" id="Path" fill="#43D92D"/>
                        <path d="M7.79092589,3.69610244 L3.36291041,0.365712822 C2.92353855,0.0350773303 2.30039386,0.124719101 1.97102668,0.56513351 C1.64165934,1.00619729 1.73095741,1.63174157 2.17032927,1.96237707 L6.59834475,5.29276685 C6.88176888,5.51622191 7.26355005,5.56753867 7.59615279,5.42787921 C7.92875535,5.28821976 8.15976532,4.97902032 8.19988479,4.61915383 C8.24000426,4.25993688 8.08340916,3.90656609 7.79027885,3.69610244 L7.79092589,3.69610244 Z" id="Path" fill="#43D92D"/>
                    </g>
                </g>
            </g>
        </g>
    </g>
</svg>