<svg data-icon="database" color="#717a94" fill="#717a94" height="300" viewBox="0 0 16 16" width="300" xmlns="http://www.w3.org/2000/svg">
  <desc>
    dynamic
  </desc>
  <g stroke-width="1">
    <g transform="">
      <path clip-rule="evenodd" d="M3.15 1.114C4.354.732 6.034.504 8 .504c1.965 0 3.645.227 4.85.609.601.19 1.113.428 1.485.717.369.288.665.68.665 1.174v9.992c0 .494-.296.886-.665 1.173-.372.29-.884.527-1.484.717-1.206.383-2.886.61-4.851.61-1.965 0-3.645-.227-4.85-.61-.601-.19-1.113-.427-1.485-.717-.369-.287-.665-.68-.665-1.173V3.005c0-.494.296-.886.665-1.173.372-.29.884-.528 1.484-.718ZM2 4.402V8c0 .058.033.192.28.383.242.189.63.382 1.171.554C4.53 9.28 6.1 9.5 8 9.5c1.9 0 3.471-.221 4.549-.563.541-.172.93-.365 1.172-.554.246-.191.279-.325.279-.383V4.4c-.323.19-.713.354-1.15.492-1.205.382-2.885.609-4.85.609-1.965 0-3.645-.227-4.85-.61A5.656 5.656 0 0 1 2 4.403Zm12-1.398c0 .058-.033.191-.279.382-.242.189-.63.382-1.172.553-1.078.342-2.648.563-4.549.563-1.9 0-3.471-.221-4.549-.562-.541-.172-.93-.365-1.172-.553C2.033 3.195 2 3.062 2 3.005c0-.06.033-.193.28-.384.242-.189.63-.382 1.171-.554C4.53 1.726 6.1 1.505 8 1.505c1.901 0 3.471.22 4.549.561.541.172.93.365 1.172.554.246.19.279.324.279.384Zm0 6.395c-.323.19-.713.354-1.15.492-1.205.383-2.885.61-4.85.61-1.965 0-3.645-.227-4.85-.61A5.651 5.651 0 0 1 2 9.4v3.598c0 .058.033.192.279.383.243.189.63.382 1.172.553 1.078.342 2.648.563 4.549.563 1.9 0 3.471-.222 4.549-.563.541-.172.93-.365 1.172-.553.246-.192.279-.325.279-.384V9.4Z" fill="currentColor" fill-rule="evenodd"/>
    </g>
  </g>
</svg>