<?xml version="1.0" encoding="UTF-8"?>
<svg width="80px" height="80px" viewBox="0 0 80 80" version="1.1" xmlns="http://www.w3.org/2000/svg" xmlns:xlink="http://www.w3.org/1999/xlink">
    <!-- Generator: Sketch 54 (76480) - https://sketchapp.com -->
    <title>Brand Visibility</title>
    <desc>Created with Sketch.</desc>
    <g id="Page-1" stroke="none" stroke-width="1" fill="none" fill-rule="evenodd">
        <g id="Mobile-Apps" transform="translate(-419.000000, -2526.000000)" fill-rule="nonzero">
            <g id="Group-4" transform="translate(391.000000, 2480.000000)">
                <g id="Brand-Visibility" transform="translate(28.000000, 46.000000)">
                    <path d="M57.7298805,47.485259 C51.2126661,51.6211438 43.2548182,52.8206536 35.8080433,50.789602 C28.3612684,48.7585504 22.1144017,43.6848118 18.5995219,36.812749 C19.5607751,34.9366269 20.7347684,33.1773749 22.0983267,31.5697211 C19.335953,33.9118316 17.0637286,36.7768219 15.4122709,40 C19.5874888,48.1710413 27.5720781,53.7130055 36.6873494,54.7666608 C45.8026207,55.8203161 54.8409736,52.2460732 60.7701992,45.2430279 C59.8092232,46.0590795 58.7933991,46.8082484 57.7298805,47.485259 Z" id="Path" fill="#D4E1F4"/>
                    <path d="M44.9899602,4.59378486 L40.6760159,0.28 C40.3026296,-0.0932735665 39.6973704,-0.0932735665 39.3239841,0.28 L35.0100398,4.59378486 C34.7684657,4.83470428 34.6737709,5.18620129 34.7616261,5.51587037 C34.8494814,5.84553945 35.1065394,6.10329602 35.4359688,6.19204568 C35.7653982,6.28079533 36.1171509,6.18705489 36.3587251,5.94613546 L38.8844622,3.41705179 L38.8844622,11.4796813 C38.8844622,12.0077623 39.3125564,12.4358566 39.8406375,12.4358566 C40.3687185,12.4358566 40.7968127,12.0077623 40.7968127,11.4796813 L40.7968127,3.2438247 C40.7975624,3.19586739 40.7946857,3.14792202 40.7882072,3.10039841 L43.6360159,5.94645418 C43.8775901,6.18842689 44.2299047,6.28314061 44.5602463,6.1949176 C44.8905879,6.10669459 45.1487697,5.84893803 45.2375372,5.51874231 C45.3263046,5.18854658 45.2321718,4.8360763 44.9905976,4.59410359 L44.9899602,4.59378486 Z" id="Path" fill="#43D92D"/>
                    <path d="M35.0100398,74.0538645 C34.8306872,74.2331868 34.7299253,74.4764183 34.7299253,74.7300398 C34.7299253,74.9836614 34.8306872,75.2268928 35.0100398,75.4062151 L39.3239841,79.72 C39.6973704,80.0932736 40.3026296,80.0932736 40.6760159,79.72 L44.9899602,75.4062151 C45.3634015,75.033786 45.364222,74.4291385 44.9917928,74.0556972 C44.6193637,73.6822559 44.0147162,73.6814354 43.6412749,74.0538645 L41.1155378,76.5829482 L41.1155378,68.5203187 C41.1155378,67.9922377 40.6874436,67.5641434 40.1593625,67.5641434 C39.6312815,67.5641434 39.2031873,67.9922377 39.2031873,68.5203187 L39.2031873,76.7561753 C39.2024376,76.8041326 39.2053143,76.852078 39.2117928,76.8996016 L36.3639841,74.0535458 C35.9897451,73.6804043 35.3841031,73.6805468 35.0100398,74.0538645 L35.0100398,74.0538645 Z" id="Path" fill="#43D92D"/>
                    <path d="M5.26996016,45.2699602 C5.65602364,45.2703005 6.00427044,45.0380272 6.15228817,44.681466 C6.30030589,44.3249048 6.2189393,43.914288 5.94613546,43.6411155 L3.41705179,41.1155378 L11.4796813,41.1155378 C12.0077623,41.1155378 12.4358566,40.6874436 12.4358566,40.1593625 C12.4358566,39.6312815 12.0077623,39.2031873 11.4796813,39.2031873 L3.2438247,39.2031873 C3.19586739,39.2024376 3.14792202,39.2053143 3.10039841,39.2117928 L5.94645418,36.3641434 C6.32024754,35.9907461 6.32056861,35.3850284 5.94717131,35.0112351 C5.57377402,34.6374417 4.96805631,34.6371206 4.59426295,35.0105179 L0.280159363,39.3241434 C-0.093114204,39.6975297 -0.093114204,40.302789 0.280159363,40.6761753 L4.59394422,44.9899602 C4.77306711,45.1694997 5.01634752,45.2702644 5.26996016,45.2699602 Z" id="Path" fill="#43D92D"/>
                    <path d="M75.4060558,35.0100398 C75.1651079,34.7684941 74.8135998,34.6738409 74.4839411,34.761735 C74.1542825,34.8496292 73.8965563,35.1067175 73.8078455,35.4361573 C73.7191347,35.7655972 73.8129167,36.1173388 74.0538645,36.3588845 L76.5829482,38.8844622 L68.5203187,38.8844622 C67.9922377,38.8844622 67.5641434,39.3125564 67.5641434,39.8406375 C67.5641434,40.3687185 67.9922377,40.7968127 68.5203187,40.7968127 L76.7561753,40.7968127 C76.8041326,40.7975624 76.852078,40.7946857 76.8996016,40.7882072 L74.0535458,43.6358566 C73.8115731,43.8774023 73.7168442,44.2296906 73.8050425,44.560018 C73.8932409,44.8903454 74.1509671,45.1485272 74.4811382,45.2373088 C74.8113092,45.3260905 75.1637643,45.231984 75.4057371,44.9904382 L79.7195219,40.6768127 C80.0929017,40.3034082 80.0929017,39.6980261 79.7195219,39.3246215 L75.4060558,35.0100398 Z" id="Path" fill="#43D92D"/>
                    <path d="M12.4302789,19.4486056 C12.9583599,19.4486056 13.3864542,19.0205113 13.3864542,18.4924303 L13.3864542,14.9163347 L19.0685259,20.6175299 C19.2439365,20.7967591 19.4841974,20.8977008 19.7349801,20.8975299 C19.9871758,20.8977638 20.2289447,20.796912 20.4062151,20.6175299 C20.7789356,20.2434656 20.7778654,19.6380828 20.4038247,19.2653386 L14.5789641,13.4603984 C14.5434263,13.4250199 14.5029482,13.3864542 14.463745,13.3864542 L18.4924303,13.3864542 C19.0205113,13.3864542 19.4486056,12.9583599 19.4486056,12.4302789 C19.4486056,11.9021978 19.0205113,11.4741036 18.4924303,11.4741036 L12.3918725,11.4741036 C12.1463643,11.4670281 11.9087926,11.5614474 11.73512,11.73512 C11.5614474,11.9087926 11.4670281,12.1463643 11.4741036,12.3918725 L11.4741036,18.4924303 C11.4741036,19.0205113 11.9021978,19.4486056 12.4302789,19.4486056 L12.4302789,19.4486056 Z" id="Path" fill="#43D92D"/>
                    <path d="M60.5513944,67.5697211 C60.5513944,68.0978022 60.9794887,68.5258964 61.5075697,68.5258964 L67.6081275,68.5258964 C67.8536357,68.5329719 68.0912074,68.4385526 68.26488,68.26488 C68.4385526,68.0912074 68.5329719,67.8536357 68.5258964,67.6081275 L68.5258964,61.5075697 C68.5258964,60.9794887 68.0978022,60.5513944 67.5697211,60.5513944 C67.0416401,60.5513944 66.6135458,60.9794887 66.6135458,61.5075697 L66.6135458,65.0836653 L60.9314741,59.3824701 C60.7540734,59.20328 60.51239,59.1024603 60.260239,59.1024603 C60.0080881,59.1024603 59.7664047,59.20328 59.589004,59.3824701 C59.2169411,59.7571935 59.2190815,60.3625783 59.5937849,60.7346614 L65.419761,66.5391235 C65.4552988,66.574502 65.4970518,66.6130677 65.536255,66.6130677 L61.5075697,66.6130677 C61.2538934,66.6130677 61.010614,66.7138729 60.8312826,66.893294 C60.6519512,67.0727151 60.5512676,67.3160448 60.5513944,67.5697211 Z" id="Path" fill="#43D92D"/>
                    <path d="M68.5258964,18.4924303 L68.5258964,12.3918725 C68.5329719,12.1463643 68.4385526,11.9087926 68.26488,11.73512 C68.0912074,11.5614474 67.8536357,11.4670281 67.6081275,11.4741036 L61.5075697,11.4741036 C60.9794887,11.4741036 60.5513944,11.9021978 60.5513944,12.4302789 C60.5513944,12.9583599 60.9794887,13.3864542 61.5075697,13.3864542 L65.0836653,13.3864542 L59.3824701,19.0683665 C59.109339,19.3397108 59.0277949,19.7494644 59.1762312,20.1047037 C59.3246675,20.459943 59.6734991,20.6898647 60.0584861,20.6862151 C60.3123795,20.6855698 60.555592,20.5839733 60.734502,20.4038247 L66.5391235,14.5789641 C66.574502,14.5434263 66.6130677,14.5029482 66.6130677,14.463745 L66.6130677,18.4924303 C66.6130677,19.0205113 67.041162,19.4486056 67.569243,19.4486056 C68.0973241,19.4486056 68.5254183,19.0205113 68.5254183,18.4924303 L68.5258964,18.4924303 Z" id="Path" fill="#43D92D"/>
                    <path d="M20.6172112,59.5985657 C20.2438066,59.2251859 19.6384245,59.2251859 19.2650199,59.5985657 L13.4603984,65.4221514 C13.4250199,65.4576892 13.3864542,65.4970518 13.3864542,65.536255 L13.3864542,61.5075697 C13.3864542,60.9794887 12.9583599,60.5513944 12.4302789,60.5513944 C11.9021978,60.5513944 11.4741036,60.9794887 11.4741036,61.5075697 L11.4741036,67.6081275 C11.4670281,67.8536357 11.5614474,68.0912074 11.73512,68.26488 C11.9087926,68.4385526 12.1463643,68.5329719 12.3918725,68.5258964 L18.4924303,68.5258964 C19.0205113,68.5258964 19.4486056,68.0978022 19.4486056,67.5697211 C19.4486056,67.0416401 19.0205113,66.6135458 18.4924303,66.6135458 L14.9163347,66.6135458 L20.6175299,60.9316335 C20.796642,60.7560868 20.8975449,60.515827 20.897485,60.2650326 C20.897425,60.0142383 20.7964072,59.7740268 20.6172112,59.5985657 L20.6172112,59.5985657 Z" id="Path" fill="#43D92D"/>
                    <path d="M55.5697211,27.7139442 C48.5241995,23.2420619 39.9082519,21.9805625 31.8764493,24.2449063 C23.8446466,26.5092502 17.1563706,32.0853507 13.4841434,39.5788048 C13.3539332,39.8445064 13.3539332,40.1554936 13.4841434,40.4211952 C18.4137207,50.4800325 28.63881,56.8559501 39.8406375,56.8559501 C51.0424649,56.8559501 61.2675542,50.4800325 66.1971315,40.4211952 C66.3273417,40.1554936 66.3273417,39.8445064 66.1971315,39.5788048 C63.8131355,34.7218225 60.135862,30.6163692 55.5697211,27.7139442 L55.5697211,27.7139442 Z M54.5434263,50.67251 C48.0261516,54.8086705 40.0681014,56.0083375 32.6211244,53.9772721 C25.1741474,51.9462067 18.9271337,46.8722946 15.4122709,40 C20.1037341,30.827575 29.5380549,25.0562441 39.8406375,25.0562441 C50.14322,25.0562441 59.5775408,30.827575 64.269004,40 C62.0350328,44.3601073 58.6772316,48.0445395 54.5426295,50.67251 L54.5434263,50.67251 Z" id="Shape" fill="#24527a"/>
                    <path d="M45.4868526,37.7773705 C44.603241,38.6355022 43.1912791,38.6148466 42.3331475,37.731235 C41.4750158,36.8476234 41.4956713,35.4356616 42.3792829,34.5775299 C42.4221514,34.5348207 42.4717131,34.4895618 42.5263745,34.443506 C42.7911139,34.2205607 42.9147064,33.8719544 42.84952,33.5320394 C42.7843335,33.1921243 42.5405456,32.9139717 42.2121116,32.8047809 C39.0628553,31.7587473 35.603676,32.9587261 33.778734,35.7302938 C31.953792,38.5018614 32.2182875,42.1536983 34.4235665,44.6333648 C36.6288454,47.1130313 40.2248388,47.8020173 43.1904928,46.3130924 C46.1561468,44.8241676 47.7517302,41.5287185 47.0804781,38.2788845 C47.0104854,37.9391253 46.7619678,37.6639236 46.4310821,37.5597607 C46.1001964,37.4555979 45.7388488,37.5388141 45.4868526,37.7772112 L45.4868526,37.7773705 Z M43.7324303,43.5923506 C41.9986295,45.323049 39.3192499,45.6751102 37.1972049,44.4510567 C35.0751599,43.2270032 34.0384056,40.7313744 34.6684767,38.3640147 C35.2985478,35.9966549 37.4386852,34.3465535 39.8884462,34.3392829 C40.0014874,34.3392829 40.1146348,34.342842 40.2278884,34.3499602 C39.4995793,35.8577799 39.7492428,37.6556243 40.8608468,38.9079386 C41.9724509,40.1602529 43.7279832,40.6214282 45.3115538,40.0771315 C45.2351084,41.4031288 44.6729533,42.6545183 43.7324303,43.5923506 Z" id="Shape" fill="#24527a"/>
                    <path d="M40,28.685259 C33.7510411,28.685259 28.685259,33.7510411 28.685259,40 C28.685259,46.2489589 33.7510411,51.314741 40,51.314741 C46.2489589,51.314741 51.314741,46.2489589 51.314741,40 C51.3076275,33.75399 46.24601,28.6923725 40,28.685259 L40,28.685259 Z M40,49.4023904 C34.8072031,49.4023904 30.5976096,45.1927969 30.5976096,40 C30.5976096,34.8072031 34.8072031,30.5976096 40,30.5976096 C45.1927969,30.5976096 49.4023904,34.8072031 49.4023904,40 C49.396594,45.190394 45.190394,49.396594 40,49.4023904 L40,49.4023904 Z" id="Shape" fill="#24527a"/>
                </g>
            </g>
        </g>
    </g>
</svg>