<?xml version="1.0" encoding="UTF-8"?>
<svg width="21px" height="13px" viewBox="0 0 21 13" version="1.1" xmlns="http://www.w3.org/2000/svg" xmlns:xlink="http://www.w3.org/1999/xlink">
    <!-- Generator: Sketch 54 (76480) - https://sketchapp.com -->
    <title>Canada</title>
    <desc>Created with Sketch.</desc>
    <g id="Page-1" stroke="none" stroke-width="1" fill="none" fill-rule="evenodd">
        <g id="Contact-Us" transform="translate(-1197.000000, -744.000000)" fill-rule="nonzero">
            <g id="Group-4" transform="translate(1169.000000, 700.000000)">
                <g id="Canada" transform="translate(28.000000, 44.000000)">
                    <g id="Group" fill="#F5F5F5">
                        <path d="M20.5976842,12.989244 L0.361380117,12.989244 C0.161818713,12.989244 0,12.8363006 0,12.6476845 L0,0.352122024 C0,0.163505952 0.161818713,0.0105625 0.361380117,0.0105625 L20.5977251,0.0105625 C20.7972865,0.0105625 20.9591053,0.163505952 20.9591053,0.352122024 L20.9591053,12.6476845 C20.9590643,12.8363393 20.7972456,12.989244 20.5976842,12.989244 Z" id="Path"></path>
                        <rect id="Rectangle" x="4.69777778" y="0.0107559524" width="11.5635088" height="12.9787202"></rect>
                    </g>
                    <g id="Group" fill="#FF4B55">
                        <path d="M0.361380117,0.0106011905 C0.161818713,0.0106011905 0,0.163505952 0,0.352122024 L0,12.6476845 C0,12.8363006 0.161818713,12.989244 0.361380117,12.989244 L4.69773684,12.989244 L4.69773684,0.0106011905 L0.361380117,0.0106011905 Z" id="Path"></path>
                        <path d="M20.5976842,0.0106011905 L16.2613275,0.0106011905 L16.2613275,12.989244 L20.5976842,12.989244 C20.7972456,12.989244 20.9590643,12.8363006 20.9590643,12.6476845 L20.9590643,0.352122024 C20.9590643,0.163505952 20.7972456,0.0106011905 20.5976842,0.0106011905 Z" id="Path"></path>
                        <path d="M12.6724152,7.99956548 L14.8167485,6.84148214 L14.3247018,6.60895238 C14.1867076,6.54372024 14.1077018,6.4028869 14.1281287,6.2583006 L14.2882281,5.12381845 L13.3803977,5.3734494 C13.1798538,5.42862202 12.9717368,5.31200893 12.9266257,5.11929167 L12.8396784,4.7478631 L11.9872749,5.69075 C11.8690936,5.82144643 11.6439883,5.721625 11.6748129,5.55216071 L12.0388538,3.55155357 L11.4815146,3.6956369 C11.3187135,3.73773214 11.1467836,3.66770238 11.0674094,3.52694643 L10.4805146,2.48729464 L10.4805146,2.48574702 L10.4801053,2.48652083 L10.479655,2.48574702 L10.479655,2.48729464 L9.89276023,3.52694643 C9.81330409,3.66766369 9.64137427,3.73769345 9.4785731,3.6956369 L8.92119298,3.55155357 L9.28523392,5.55216071 C9.31605848,5.72154762 9.09091228,5.82140774 8.97273099,5.69075 L8.12032749,4.7478631 L8.03338012,5.11929167 C7.98826901,5.31204762 7.78015205,5.42858333 7.57960819,5.3734494 L6.67177778,5.12381845 L6.83187719,6.2583006 C6.85230409,6.40284821 6.77329825,6.54372024 6.63530409,6.60895238 L6.14325731,6.84148214 L8.28759064,7.99960417 C8.5097076,8.11958333 8.60705263,8.3740119 8.51744444,8.60046726 L8.3341345,9.0638631 L10.1715322,8.91560119 C10.2732164,8.90739881 10.3597544,8.98477976 10.3567661,9.08115774 L10.298883,10.940003 L10.6602632,10.940003 L10.6023392,9.08108036 C10.5993509,8.98466369 10.6858889,8.90732143 10.7875731,8.91552381 L12.6258304,9.0638631 L12.4425205,8.60046726 C12.3529942,8.37397321 12.4502982,8.11950595 12.6724152,7.99956548 Z" id="Path"></path>
                    </g>
                </g>
            </g>
        </g>
    </g>
</svg>