<?xml version="1.0" encoding="UTF-8"?>
<svg width="71px" height="73px" viewBox="0 0 71 73" version="1.1" xmlns="http://www.w3.org/2000/svg" xmlns:xlink="http://www.w3.org/1999/xlink">
    <!-- Generator: Sketch 54 (76480) - https://sketchapp.com -->
    <title>Cloud Migration</title>
    <desc>Created with Sketch.</desc>
    <g id="Page-1" stroke="none" stroke-width="1" fill="none" fill-rule="evenodd">
        <g id="Cloud-Services" transform="translate(-419.000000, -2077.000000)" fill-rule="nonzero">
            <g id="Group-4" transform="translate(391.000000, 2029.000000)">
                <g id="Cloud-Migration" transform="translate(28.000000, 48.000000)">
                    <path d="M6.86134454,45.3051546 L3.87815126,45.3051546 C2.72066597,45.3181084 1.78927242,46.2689777 1.78991597,47.4370557 L1.78991563,60.0556701 L4.77310924,60.0556701 L4.77310924,47.4370557 C4.7724657,46.2689777 5.70385925,45.3181084 6.86134454,45.3051546 Z" id="Path" fill="#DAE5F3"></path>
                    <path d="M4.77310924,63.9937567 L4.77310924,61.8618557 L1.78991597,61.8618557 L1.78991597,63.9937567 C1.79152255,64.5498674 2.01283367,65.0823719 2.40481198,65.4732796 C2.7967903,65.8641874 3.32706917,66.0812202 3.87815126,66.0762887 L6.86134454,66.0762887 C6.31026245,66.0812202 5.77998358,65.8641874 5.38800526,65.4732796 C4.99602695,65.0823719 4.77471583,64.5498674 4.77310924,63.9937567 L4.77310924,63.9937567 Z" id="Path" fill="#DAE5F3"></path>
                    <path d="M46.2394958,45.3051546 L43.2563025,45.3051546 C42.0988172,45.3181084 41.1674237,46.2689777 41.1680672,47.4370557 L41.1680669,60.0556701 L44.1512605,60.0556701 L44.1512605,47.4370557 C44.150617,46.2689777 45.0820105,45.3181084 46.2394958,45.3051546 Z" id="Path" fill="#DAE5F3"></path>
                    <path d="M44.1512605,63.9937567 L44.1512605,61.8618557 L41.1680672,61.8618557 L41.1680672,63.9937567 C41.1696738,64.5498674 41.3909849,65.0823719 41.7829632,65.4732796 C42.1749416,65.8641874 42.7052204,66.0812202 43.2563025,66.0762887 L46.2394958,66.0762887 C45.6884137,66.0812202 45.1581348,65.8641874 44.7661565,65.4732796 C44.3741782,65.0823719 44.1528671,64.5498674 44.1512605,63.9937567 L44.1512605,63.9937567 Z" id="Path" fill="#DAE5F3"></path>
                    <path d="M25.9537815,14.9523567 C25.9502501,13.6471112 26.4606577,12.3939007 27.3727374,11.4683753 C27.8513621,10.9832371 28.4264215,10.605938 29.0600315,10.361334 C29.4199549,10.2220887 29.6510861,9.86593365 29.6336996,9.4773567 C29.6286282,9.36356701 29.6253466,9.2485732 29.6253466,9.1337299 C29.6294665,6.02708438 31.6043413,3.27210698 34.5270315,2.29581237 C32.3518672,1.57036757 29.9638115,1.94269201 28.1070515,3.29675867 C26.2502914,4.65082533 25.1505569,6.82201777 25.1505567,9.1337299 C25.1505567,9.2485732 25.1538382,9.36356701 25.1589097,9.4773567 C25.1762962,9.86593365 24.945165,10.2220887 24.5852416,10.361334 C23.9516316,10.605938 23.3765722,10.9832371 22.8979475,11.4683753 C21.5132629,12.8747159 21.0987121,14.9815132 21.8459017,16.8149995 C22.5930913,18.6484858 24.3564753,19.8515141 26.3210126,19.8680412 L30.7958025,19.8680412 C28.1171549,19.8510785 25.9543848,17.6554053 25.9537815,14.9523567 L25.9537815,14.9523567 Z" id="Path" fill="#DAE5F3"></path>
                    <path d="M14.9159664,67.8824742 L14.9159664,71.1938144 L11.0378151,71.1938144 C10.5435435,71.1938144 10.1428571,71.5981428 10.1428571,72.0969072 C10.1428571,72.5956716 10.5435435,73 11.0378151,73 L20.5840336,73 C21.0783053,73 21.4789916,72.5956716 21.4789916,72.0969072 C21.4789916,71.5981428 21.0783053,71.1938144 20.5840336,71.1938144 L16.7058824,71.1938144 L16.7058824,67.8824742 L27.7436975,67.8824742 C28.7693411,67.8868738 29.7545885,67.4793732 30.4821256,66.7498539 C31.2096626,66.0203346 31.6197188,65.0287302 31.6218487,63.9937567 L31.6218487,47.4370557 C31.6214835,45.2718836 29.8893216,43.5129518 27.7436975,43.4989691 L3.87815126,43.4989691 C1.73252714,43.5129518 0.0003652199,45.2718836 0,47.4370557 L0,63.9937567 C0.00212998601,65.0287302 0.412186137,66.0203346 1.13972318,66.7498539 C1.86726023,67.4793732 2.85250761,67.8868738 3.87815126,67.8824742 L14.9159664,67.8824742 Z M3.87815126,45.3051546 L27.7436975,45.3051546 C28.9011828,45.3181084 29.8325763,46.2689777 29.8319328,47.4370557 L29.8319331,60.0556701 L1.78991563,60.0556701 L1.78991597,47.4370557 C1.78927242,46.2689777 2.72066597,45.3181084 3.87815126,45.3051546 Z M1.78991597,63.9937567 L1.78991597,61.8618557 L29.8319328,61.8618557 L29.8319328,63.9937567 C29.8303262,64.5498674 29.6090151,65.0823719 29.2170368,65.4732796 C28.8250584,65.8641874 28.2947796,66.0812202 27.7436975,66.0762887 L3.87815126,66.0762887 C3.32706917,66.0812202 2.7967903,65.8641874 2.40481198,65.4732796 C2.01283367,65.0823719 1.79152255,64.5498674 1.78991597,63.9937567 Z" id="Shape" fill="#0D76FF"></path>
                    <path d="M67.1218487,43.4989691 L43.2563025,43.4989691 C41.1106784,43.5129518 39.3785165,45.2718836 39.3781513,47.4370557 L39.3781513,63.9937567 C39.3802812,65.0287302 39.7903374,66.0203346 40.5178744,66.7498539 C41.2454115,67.4793732 42.2306589,67.8868738 43.2563025,67.8824742 L54.2941176,67.8824742 L54.2941176,71.1938144 L50.4159664,71.1938144 C49.9216947,71.1938144 49.5210084,71.5981428 49.5210084,72.0969072 C49.5210084,72.5956716 49.9216947,73 50.4159664,73 L59.9621849,73 C60.4564565,73 60.8571429,72.5956716 60.8571429,72.0969072 C60.8571429,71.5981428 60.4564565,71.1938144 59.9621849,71.1938144 L56.0840336,71.1938144 L56.0840336,67.8824742 L67.1218487,67.8824742 C68.1474924,67.8868738 69.1327398,67.4793732 69.8602768,66.7498539 C70.5878139,66.0203346 70.99787,65.0287302 71,63.9937567 L71,47.4370557 C70.9996348,45.2718836 69.2674729,43.5129518 67.1218487,43.4989691 L67.1218487,43.4989691 Z M43.2563025,45.3051546 L67.1218487,45.3051546 C68.279334,45.3181084 69.2107276,46.2689777 69.210084,47.4370557 L69.2100844,60.0556701 L41.1680669,60.0556701 L41.1680672,47.4370557 C41.1674237,46.2689777 42.0988172,45.3181084 43.2563025,45.3051546 Z M67.1218487,66.0762887 L43.2563025,66.0762887 C42.7052204,66.0812202 42.1749416,65.8641874 41.7829632,65.4732796 C41.3909849,65.0823719 41.1696738,64.5498674 41.1680672,63.9937567 L41.1680672,61.8618557 L69.210084,61.8618557 L69.210084,63.9937567 C69.2084775,64.5498674 68.9871663,65.0823719 68.595188,65.4732796 C68.2032097,65.8641874 67.6729308,66.0812202 67.1218487,66.0762887 Z" id="Shape" fill="#0D76FF"></path>
                    <path d="M26.6995798,26.0250268 C27.1938515,26.0250268 27.5945378,25.6206984 27.5945378,25.121934 L27.5945378,24.1878351 C27.5945378,23.6890707 27.1938515,23.2847423 26.6995798,23.2847423 C26.2053082,23.2847423 25.8046218,23.6890707 25.8046218,24.1878351 L25.8046218,25.121934 C25.8046218,25.3614491 25.8989118,25.5911543 26.066749,25.7605171 C26.2345862,25.9298798 26.4622222,26.0250268 26.6995798,26.0250268 L26.6995798,26.0250268 Z" id="Path" fill="#0D76FF"></path>
                    <path d="M26.6995798,29.7940845 C27.1938515,29.7940845 27.5945378,29.3897561 27.5945378,28.8909918 L27.5945378,28.0344082 C27.5945378,27.5356439 27.1938515,27.1313155 26.6995798,27.1313155 C26.2053082,27.1313155 25.8046218,27.5356439 25.8046218,28.0344082 L25.8046218,28.8909918 C25.8046218,29.3897561 26.2053082,29.7940845 26.6995798,29.7940845 L26.6995798,29.7940845 Z" id="Path" fill="#0D76FF"></path>
                    <path d="M26.164395,41.4218557 C26.5079965,41.744593 27.0403229,41.744593 27.3839244,41.4218557 L32.0785756,37.0128062 C32.2522429,36.8495371 32.3545227,36.6233387 32.3629146,36.3839725 C32.3713064,36.1446063 32.2851229,35.91168 32.1233235,35.7364351 C31.7715467,35.3713439 31.1969435,35.3514186 30.8211597,35.6912804 L27.5945378,38.6868392 L27.5945378,31.9356186 C27.5945378,31.4368542 27.1938515,31.0325258 26.6995798,31.0325258 C26.2053082,31.0325258 25.8046219,31.4368542 25.8046218,31.9356186 L25.8046218,38.6868392 L22.651834,35.6915814 C22.4817637,35.5284904 22.2537819,35.4413662 22.019315,35.4498616 C21.7848481,35.4583571 21.5636458,35.5617566 21.405605,35.7367361 C21.2450613,35.9132848 21.1606288,36.1469781 21.1708959,36.3863671 C21.1811629,36.6257561 21.2852877,36.8512148 21.4603466,37.0131072 L26.164395,41.4218557 Z" id="Path" fill="#0D76FF"></path>
                    <path d="M44.1512605,38.923299 C43.6569889,38.923299 43.2563025,39.3276274 43.2563025,39.8263918 L43.2563025,40.7603402 C43.2563025,41.2591046 43.6569889,41.663433 44.1512605,41.663433 C44.6455322,41.663433 45.0462185,41.2591046 45.0462185,40.7603402 L45.0462185,39.8263918 C45.0462185,39.3276274 44.6455322,38.923299 44.1512605,38.923299 Z" id="Path" fill="#0D76FF"></path>
                    <path d="M45.0462185,36.0577856 C45.0462185,35.5590212 44.6455322,35.1546928 44.1512605,35.1546928 C43.6569889,35.1546928 43.2563025,35.5590212 43.2563025,36.0577856 L43.2563025,36.9143691 C43.2563025,37.4131334 43.6569889,37.8174619 44.1512605,37.8174619 C44.6455322,37.8174619 45.0462185,37.4131334 45.0462185,36.9143691 L45.0462185,36.0577856 Z" id="Path" fill="#0D76FF"></path>
                    <path d="M40.1035147,29.258099 L43.2563025,26.2620887 L43.2563025,33.0131588 C43.2563025,33.5119231 43.6569889,33.9162515 44.1512605,33.9162515 C44.6455322,33.9162515 45.0462185,33.5119231 45.0462185,33.0131588 L45.0462185,26.2620887 L48.2735861,29.258099 C48.4461671,29.4143535 48.6699812,29.5005749 48.9018466,29.5001278 C49.1531932,29.5005268 49.393604,29.3964327 49.5665021,29.2123423 C49.904451,28.8484745 49.8861544,28.2770653 49.5256324,27.9359711 L44.8332185,23.5267711 C44.4900142,23.204193 43.9580866,23.204193 43.6148824,23.5267711 L38.9208277,27.9356701 C38.5541631,28.2704605 38.5255914,28.8416983 38.8569874,29.2120412 C39.0149568,29.3871633 39.2361422,29.4907364 39.4706595,29.4994015 C39.7051768,29.5080667 39.9332763,29.4210942 40.1035147,29.258099 L40.1035147,29.258099 Z" id="Path" fill="#0D76FF"></path>
                    <path d="M26.3210126,21.6742268 L44.6789874,21.6742268 C47.9607391,21.6593553 50.7429068,19.2349797 51.2355118,15.9608841 C51.7281168,12.6867885 49.7844018,9.53839414 46.6549055,8.54130103 C46.394417,6.7149737 45.399472,5.0777332 43.9044777,4.01531059 C42.4094834,2.95288798 40.5466338,2.55922726 38.754813,2.92707423 C36.2638907,0.283757261 32.4389888,-0.58258002 29.0674827,0.732901489 C25.6959766,2.048383 23.4435963,5.28593131 23.3628782,8.93264124 C21.103559,10.0711199 19.6797173,12.4042165 19.6890756,14.9525072 C19.6908375,18.6525709 22.6543212,21.6561741 26.3210126,21.6742268 Z M22.8979475,11.4683753 C23.3765722,10.9832371 23.9516316,10.605938 24.5852416,10.361334 C24.945165,10.2220887 25.1762962,9.86593365 25.1589097,9.4773567 C25.1538382,9.36356701 25.1505567,9.2485732 25.1505567,9.1337299 C25.1502177,6.10406158 27.0290921,3.39818688 29.8511708,2.3641062 C32.6732494,1.33002551 35.8349182,2.18891826 37.7611113,4.51290515 C37.9906836,4.7901341 38.3618981,4.9026232 38.7048445,4.79888454 C40.137358,4.36775773 41.6869014,4.62852802 42.9032373,5.50542563 C44.1195731,6.38232324 44.8662983,7.7770106 44.9264433,9.28424536 C44.9425849,9.7006287 45.2389573,10.0518093 45.6437521,10.1342062 C48.0788217,10.6528857 49.735949,12.9389321 49.4882734,15.4378146 C49.2405977,17.936697 47.1676221,19.8462844 44.6789874,19.8680412 L26.3210126,19.8680412 C24.3564753,19.8515141 22.5930913,18.6484858 21.8459017,16.8149995 C21.0987121,14.9815132 21.5132629,12.8747159 22.8979475,11.4683753 Z" id="Shape" fill="#43D92D"></path>
                </g>
            </g>
        </g>
    </g>
</svg>