<?xml version="1.0" encoding="UTF-8"?>
<svg width="70px" height="76px" viewBox="0 0 70 76" version="1.1" xmlns="http://www.w3.org/2000/svg" xmlns:xlink="http://www.w3.org/1999/xlink">
    <!-- Generator: Sketch 54 (76480) - https://sketchapp.com -->
    <title>Cloud Architecture</title>
    <desc>Created with Sketch.</desc>
    <g id="Page-1" stroke="none" stroke-width="1" fill="none" fill-rule="evenodd">
        <g id="Cloud-Services" transform="translate(-1023.000000, -2077.000000)" fill-rule="nonzero">
            <g id="Group-4" transform="translate(976.000000, 2029.000000)">
                <g id="Cloud-Architecture" transform="translate(47.000000, 48.000000)">
                    <path d="M23.2272727,17.1870168 C23.2286366,14.7862905 24.7010473,12.6336073 26.9328182,11.7694622 C27.3168206,11.6213299 27.5633309,11.2432552 27.5448409,10.8307983 C27.5387955,10.696521 27.5349773,10.5604874 27.5349773,10.4249328 C27.5401141,6.65482096 30.0155058,3.33714984 33.6187727,2.27105882 C31.058456,1.51522801 28.2929177,2.01508226 26.156212,3.61987135 C24.0195062,5.22466045 22.7617434,7.74653712 22.76225,10.4249328 C22.76225,10.5604874 22.7660682,10.6963613 22.7721136,10.8307983 C22.7906036,11.2432552 22.5440933,11.6213299 22.1600909,11.7694622 C19.5606915,12.7738904 18.0437928,15.4950083 18.5509893,18.243718 C19.0581859,20.9924278 21.4454076,22.9879524 24.2308182,22.9915966 L29.0035455,22.9915966 C25.813425,22.9844714 23.2302455,20.3886328 23.2272727,17.1870168 Z" id="Path" fill="#DAE5F3"></path>
                    <path d="M5.09090909,70.4098487 L5.09090909,65.9935462 C4.85402273,65.9188235 4.62095455,65.8418655 4.39679545,65.760437 C3.5245884,65.4575629 2.68989353,65.0552393 1.90909091,64.5613613 L1.90909091,70.4098487 C1.90909091,71.9039832 6.51509091,74.0744538 13.7017045,74.0744538 C14.2389015,74.0744538 14.77,74.0619468 15.295,74.0369328 C9.02634091,73.7476218 5.09090909,71.7906218 5.09090909,70.4098487 Z" id="Path" fill="#DAE5F3"></path>
                    <path d="M5.09090909,61.5903361 L5.09090909,57.2348655 C4.85402273,57.1601429 4.62095455,57.0831849 4.39679545,57.0017563 C3.5245797,56.6988355 2.68988413,56.296458 1.90909091,55.802521 L1.90909091,61.5903361 C1.90909091,63.0844706 6.51509091,65.2549412 13.7017045,65.2549412 C14.2391136,65.2549412 14.7702121,65.242381 15.295,65.2172605 C9.02634091,64.9281092 5.09090909,62.9714286 5.09090909,61.5903361 Z" id="Path" fill="#DAE5F3"></path>
                    <path d="M5.09090909,52.8316555 L5.09090909,48.4753866 C4.85418182,48.4006639 4.62127273,48.3238655 4.39727273,48.242437 C3.5249149,47.9394264 2.69006531,47.5369983 1.90909091,47.043042 L1.90909091,52.8316555 C1.90909091,54.3257899 6.51509091,56.4962605 13.7017045,56.4962605 C14.2389015,56.4962605 14.77,56.4837003 15.295,56.4585798 C9.02634091,56.1697479 5.09090909,54.2124286 5.09090909,52.8316555 Z" id="Path" fill="#DAE5F3"></path>
                    <path d="M5.17045455,44.0729748 C5.17045455,42.6923613 9.08790909,40.736 15.3522727,40.4460504 C14.8369773,40.4221008 14.3076818,40.4082101 13.7613636,40.4082101 C6.57475,40.4082101 1.98863636,42.5786807 1.98863636,44.0729748 C1.98863636,45.5672689 6.57475,47.7375798 13.7613636,47.7375798 C14.3076818,47.7375798 14.8369773,47.7235294 15.3522727,47.6997395 C9.08790909,47.4101092 5.17045455,45.4535882 5.17045455,44.0729748 Z" id="Path" fill="#DAE5F3"></path>
                    <path d="M47.5681818,70.4098487 L47.5681818,65.9935462 C47.3312955,65.9188235 47.0982273,65.8418655 46.8740682,65.760437 C46.0018611,65.4575629 45.1671663,65.0552393 44.3863636,64.5613613 L44.3863636,70.4098487 C44.3863636,71.9039832 48.9923636,74.0744538 56.1789773,74.0744538 C56.7162803,74.0744538 57.2473788,74.0619468 57.7722727,74.0369328 C51.5036136,73.7476218 47.5681818,71.7906218 47.5681818,70.4098487 Z" id="Path" fill="#DAE5F3"></path>
                    <path d="M47.5681818,61.5903361 L47.5681818,57.2348655 C47.3312955,57.1601429 47.0982273,57.0831849 46.8740682,57.0017563 C46.0018524,56.6988355 45.1671569,56.296458 44.3863636,55.802521 L44.3863636,61.5903361 C44.3863636,63.0844706 48.9923636,65.2549412 56.1789773,65.2549412 C56.7163864,65.2549412 57.2474848,65.242381 57.7722727,65.2172605 C51.5036136,64.9281092 47.5681818,62.9714286 47.5681818,61.5903361 Z" id="Path" fill="#DAE5F3"></path>
                    <path d="M47.5681818,52.8316555 L47.5681818,48.4753866 C47.3314545,48.4006639 47.0985455,48.3238655 46.8745455,48.242437 C46.0021876,47.9394264 45.167338,47.5369983 44.3863636,47.043042 L44.3863636,52.8316555 C44.3863636,54.3257899 48.9923636,56.4962605 56.1789773,56.4962605 C56.7162803,56.4962605 57.2473788,56.4837003 57.7722727,56.4585798 C51.5036136,56.1697479 47.5681818,54.2124286 47.5681818,52.8316555 Z" id="Path" fill="#DAE5F3"></path>
                    <path d="M47.6477273,44.0729748 C47.6477273,42.6923613 51.5651818,40.736 57.8295455,40.4460504 C57.31425,40.4221008 56.7849545,40.4082101 56.2386364,40.4082101 C49.0520227,40.4082101 44.4659091,42.5786807 44.4659091,44.0729748 C44.4659091,45.5672689 49.0520227,47.7375798 56.2386364,47.7375798 C56.7849545,47.7375798 57.31425,47.7235294 57.8295455,47.6997395 C51.5651818,47.4101092 47.6477273,45.4535882 47.6477273,44.0729748 Z" id="Path" fill="#DAE5F3"></path>
                    <path d="M55.6818182,31.9327731 L35.9545455,31.9327731 L35.9545455,24.907563 L45.7691818,24.907563 C49.5793812,24.9038509 52.812865,22.1016431 53.3716823,18.31907 C53.9304996,14.5364968 51.6462782,10.9132505 48.0010682,9.80016807 C47.7139441,7.67328117 46.557317,5.76243873 44.8089023,4.52644905 C43.0604876,3.29045937 40.8782078,2.84096112 38.7860455,3.28588235 C35.8915843,0.200490929 31.4229685,-0.817148319 27.4850946,0.712313329 C23.5472206,2.24177498 20.9253905,6.01332794 20.8545909,10.2504202 C17.6415261,11.8308587 15.9379744,15.4255292 16.7439197,18.9243621 C17.549865,22.423195 20.6525988,24.9027638 24.2308182,24.907563 L34.0454545,24.907563 L34.0454545,31.9327731 L14.3181818,31.9327731 C13.7911136,31.9327731 13.3636364,32.2840336 13.3636364,32.8128403 L13.3636364,39.5966387 L15.2727273,39.5966387 L15.2727273,33.8487395 L54.7272727,33.8487395 L54.7272727,39.5966387 L56.6363636,39.5966387 L56.6363636,32.8128403 C56.6363636,32.2840336 56.2088864,31.9327731 55.6818182,31.9327731 Z M18.4545455,17.1870168 C18.4559093,14.7862905 19.9283201,12.6336073 22.1600909,11.7694622 C22.5440933,11.6213299 22.7906036,11.2432552 22.7721136,10.8307983 C22.7660682,10.696521 22.76225,10.5604874 22.76225,10.4249328 C22.7620639,6.84952125 24.9916274,3.65633665 28.3402921,2.43605116 C31.6889569,1.21576567 35.4405306,2.22936663 37.7261818,4.97193277 C37.9710666,5.2660757 38.3670806,5.38540827 38.7329091,5.27529412 C40.4419141,4.76341987 42.2906994,5.07274079 43.7418209,6.11333694 C45.1929424,7.15393309 46.0835777,8.80904489 46.1548182,10.5975294 C46.1720345,11.0392207 46.4881398,11.4117463 46.9198864,11.4991513 C49.8239538,12.0991434 51.8059102,14.8055218 51.5094608,17.7662544 C51.2130114,20.7269871 48.7341361,22.9834926 45.7691818,22.9915966 L24.2308182,22.9915966 C21.0406977,22.9844714 18.4575182,20.3886328 18.4545455,17.1870168 Z" id="Shape" fill="#24527a"></path>
                    <path d="M65.5231818,39.9033529 C63.0178182,38.9932689 59.7262273,38.4922437 56.21875,38.4922437 C52.7112727,38.4922437 49.3698864,38.9934286 46.8642045,39.9033529 C43.2630227,41.211479 42.4772727,42.8928992 42.4772727,44.0729748 L42.4772727,70.4098487 C42.4772727,71.5904034 43.2727273,73.2723025 46.8740682,74.5799496 C49.3787955,75.4900336 52.7103182,75.9904202 56.21875,75.9904202 C59.7271818,75.9904202 63.0090682,75.4895546 65.5137955,74.5799496 C69.1149773,73.2723025 69.8410682,71.5904034 69.8410682,70.4098487 L69.8410682,44.0729748 C69.8409091,42.8928992 69.125,41.211479 65.5231818,39.9033529 Z M67.9318182,61.4078403 L67.9318182,61.5903361 C67.9318182,62.1916303 67.1578409,63.1294958 64.8740909,63.9587899 C62.5723636,64.7946303 59.4715227,65.2549412 56.1789773,65.2549412 C48.9923636,65.2546218 44.3863636,63.0844706 44.3863636,61.5903361 L44.3863636,55.802521 C45.1671569,56.296458 46.0018524,56.6988355 46.8740682,57.0017563 C49.3787955,57.9118403 52.7103182,58.4122269 56.21875,58.4122269 C59.7271818,58.4122269 63.0090682,57.9113613 65.5137955,57.0017563 C66.5478864,56.6260672 67.4547045,56.2194034 67.9319773,55.802521 L67.9318182,61.4078403 Z M67.9318182,52.8316555 C67.9318182,53.4327899 67.1578409,54.3708151 64.8740909,55.2001092 C62.5723636,56.0359496 59.4715227,56.4962605 56.1789773,56.4962605 C48.9923636,56.4962605 44.3863636,54.3257899 44.3863636,52.8316555 L44.3863636,47.043042 C45.167338,47.5369983 46.0021876,47.9394264 46.8745455,48.242437 C49.3799091,49.152521 52.7112727,49.6535462 56.21875,49.6535462 C59.7262273,49.6535462 63.0079545,49.1523613 65.5133182,48.242437 C66.5474091,47.8665882 67.4542273,47.460084 67.9315,47.043042 L67.9318182,52.8316555 Z M56.2386364,40.4082101 C63.42525,40.4082101 68.0113636,42.5786807 68.0113636,44.0729748 C68.0113636,45.5672689 63.42525,47.7375798 56.2386364,47.7375798 C49.0520227,47.7375798 44.4659091,45.5671092 44.4659091,44.0729748 C44.4659091,42.5788403 49.0520227,40.4082101 56.2386364,40.4082101 Z M64.8740909,72.7783025 C62.5723636,73.6141429 59.4715227,74.0744538 56.1789773,74.0744538 C48.9923636,74.0744538 44.3863636,71.9039832 44.3863636,70.4098487 L44.3863636,64.5613613 C45.1671663,65.0552393 46.0018611,65.4575629 46.8740682,65.760437 C49.3787955,66.670521 52.7103182,67.1709076 56.21875,67.1709076 C59.7271818,67.1709076 63.0090682,66.670042 65.5137955,65.760437 C66.5478864,65.3847479 67.4547045,64.978084 67.9319773,64.5613613 L67.9319773,70.4098487 C67.9318182,71.0109832 67.1578409,71.9490084 64.8740909,72.7783025 Z" id="Shape" fill="#43D92D"></path>
                    <path d="M23.0459091,39.9033529 C20.5405455,38.9932689 17.2489545,38.4922437 13.7414773,38.4922437 C10.234,38.4922437 6.89261364,38.9934286 4.38693182,39.9033529 C0.78575,41.211479 0,42.8928992 0,44.0729748 L0,70.4098487 C0,71.5904034 0.795454545,73.2723025 4.39679545,74.5799496 C6.90152273,75.4900336 10.2330455,75.9904202 13.7414773,75.9904202 C17.2499091,75.9904202 20.5317955,75.4895546 23.0365227,74.5799496 C26.6377045,73.2723025 27.3637955,71.5904034 27.3637955,70.4098487 L27.3637955,44.0729748 C27.3636364,42.8928992 26.6477273,41.211479 23.0459091,39.9033529 Z M25.4545455,61.4078403 L25.4545455,61.5903361 C25.4545455,62.1916303 24.6805682,63.1294958 22.3968182,63.9587899 C20.0950909,64.7946303 16.99425,65.2549412 13.7017045,65.2549412 C6.51509091,65.2546218 1.90909091,63.0844706 1.90909091,61.5903361 L1.90909091,55.802521 C2.68988413,56.296458 3.5245797,56.6988355 4.39679545,57.0017563 C6.90152273,57.9118403 10.2330455,58.4122269 13.7414773,58.4122269 C17.2499091,58.4122269 20.5317955,57.9113613 23.0365227,57.0017563 C24.0706136,56.6260672 24.9774318,56.2194034 25.4547045,55.802521 L25.4545455,61.4078403 Z M25.4545455,52.8316555 C25.4545455,53.4327899 24.6805682,54.3708151 22.3968182,55.2001092 C20.0950909,56.0359496 16.99425,56.4962605 13.7017045,56.4962605 C6.51509091,56.4962605 1.90909091,54.3257899 1.90909091,52.8316555 L1.90909091,47.043042 C2.69006531,47.5369983 3.5249149,47.9394264 4.39727273,48.242437 C6.90263636,49.152521 10.234,49.6535462 13.7414773,49.6535462 C17.2489545,49.6535462 20.5306818,49.1523613 23.0360455,48.242437 C24.0701364,47.8665882 24.9769545,47.460084 25.4542273,47.043042 L25.4545455,52.8316555 Z M13.7613636,40.4082101 C20.9479773,40.4082101 25.5340909,42.5786807 25.5340909,44.0729748 C25.5340909,45.5672689 20.9479773,47.7375798 13.7613636,47.7375798 C6.57475,47.7375798 1.98863636,45.5671092 1.98863636,44.0729748 C1.98863636,42.5788403 6.57475,40.4082101 13.7613636,40.4082101 Z M22.3968182,72.7783025 C20.0950909,73.6141429 16.99425,74.0744538 13.7017045,74.0744538 C6.51509091,74.0744538 1.90909091,71.9039832 1.90909091,70.4098487 L1.90909091,64.5613613 C2.68989353,65.0552393 3.5245884,65.4575629 4.39679545,65.760437 C6.90152273,66.670521 10.2330455,67.1709076 13.7414773,67.1709076 C17.2499091,67.1709076 20.5317955,66.670042 23.0365227,65.760437 C24.0706136,65.3847479 24.9774318,64.978084 25.4547045,64.5613613 L25.4547045,70.4098487 C25.4545455,71.0109832 24.6805682,71.9490084 22.3968182,72.7783025 Z" id="Shape" fill="#43D92D"></path>
                </g>
            </g>
        </g>
    </g>
</svg>