<?xml version="1.0" encoding="UTF-8"?>
<svg width="43px" height="38px" viewBox="0 0 43 38" version="1.1" xmlns="http://www.w3.org/2000/svg" xmlns:xlink="http://www.w3.org/1999/xlink">
    <!-- Generator: Sketch 54 (76480) - https://sketchapp.com -->
    <title>Development</title>
    <desc>Created with Sketch.</desc>
    <g id="Page-1" stroke="none" stroke-width="1" fill="none" fill-rule="evenodd">
        <g id="About-Us" transform="translate(-830.000000, -1689.000000)" fill="#FFFFFF" fill-rule="nonzero">
            <g id="Group-14" transform="translate(809.000000, 1666.000000)">
                <g id="Group-4" transform="translate(0.500000, 0.000000)">
                    <g id="Development" transform="translate(21.000000, 23.000000)">
                        <path d="M42,4.77695978 L42,33.2036926 C41.9972141,35.8375067 39.9142394,37.9717715 37.3443396,37.9739918 L4.65566038,37.9739918 C2.08576057,37.9717715 0.00278596302,35.8375067 0,33.2036926 L0,4.77695978 C0.00278596302,2.14378007 2.08576057,0.00951526496 4.65566038,0.00666063675 L37.3443396,0.00666063675 C39.9142394,0.00951526496 41.9972141,2.14378007 42,4.77695978 Z M40.6132075,33.2036926 L40.6132075,11.38338 L1.38679245,11.38338 L1.38679245,33.2036926 C1.3886498,35.0528178 2.85097284,36.5514657 4.65566038,36.5530516 L37.3443396,36.5530516 C39.1490272,36.5514657 40.6113502,35.0528178 40.6132075,33.2036926 Z M40.6132075,9.96243986 L40.6132075,4.77695978 C40.6113502,2.92783456 39.1490272,1.42982105 37.3443396,1.42760081 L4.65566038,1.42760081 C2.85097284,1.42982105 1.3886498,2.92783456 1.38679245,4.77695978 L1.38679245,9.96243986 L40.6132075,9.96243986 Z" id="Shape"></path>
                        <g id="Group" transform="translate(2.852830, 3.410256)">
                            <path d="M25.9122789,23.8825788 C25.9122789,23.4902344 25.6017983,23.1721087 25.2188826,23.1721087 L16.3037883,23.1721087 C15.9208726,23.1721087 15.6103921,23.4902344 15.6103921,23.8825788 C15.6103921,24.2752404 15.9208726,24.5930488 16.3037883,24.5930488 L25.2188826,24.5930488 C25.6017983,24.5930488 25.9122789,24.2752404 25.9122789,23.8825788 Z" id="Path"></path>
                            <path d="M15.7301887,4.59458471 L15.7373084,4.59458471 C16.9461085,4.59395032 17.9270784,3.59231441 17.9311026,2.353115 L17.9311026,2.34613713 C17.9298643,1.10757212 16.95199,0.103398812 15.7431898,0.0980067906 L15.7373084,0.0980067906 C14.5254127,0.0961037863 13.5413473,1.10122863 13.53949,2.3426482 C13.5376326,3.584385 14.5186026,4.59236447 15.7301887,4.59458471 Z M15.7373084,1.51894696 L15.7391657,1.51894696 C16.1849204,1.51958135 16.5461675,1.89067506 16.5452388,2.34740583 C16.5449292,2.8041366 16.1830631,3.17396169 15.7373084,3.17364454 L15.7342128,3.17364454 C15.2884581,3.172693 14.9275207,2.80159921 14.9281397,2.34486844 C14.9290684,1.88782051 15.2912441,1.51831265 15.7373084,1.51894696 Z" id="Shape"></path>
                            <path d="M16.0115713,19.8531984 C16.1663473,19.7180823 16.2554982,19.5207999 16.2554982,19.3120994 C16.2554982,19.1040331 16.1663473,18.9061165 16.0115713,18.7713175 L11.5252358,14.8567541 C11.3376474,14.6842114 11.0735996,14.6293403 10.8355542,14.7133914 C10.5971993,14.7980769 10.4223025,15.0080462 10.3789652,15.2621027 C10.3353184,15.5167935 10.4300413,15.7752904 10.6256781,15.9373665 L14.4919811,19.3120994 L10.6256781,22.686198 C10.3340802,22.9405716 10.2994104,23.3890559 10.547671,23.6878339 C10.7959316,23.9866119 11.2336379,24.0224526 11.5252358,23.7680789 L16.0115713,19.8531984 Z" id="Path"></path>
                            <path d="M6.80023585,2.31790865 C6.7983785,3.55901106 7.77656246,4.56762485 8.98752944,4.57301679 L8.99433962,4.57301679 C10.2028302,4.57174817 11.1834906,3.57042933 11.1884434,2.33218147 L11.1884434,2.32520368 C11.1881339,1.08600427 10.2102594,0.0811965812 9.00145934,0.0767561026 L8.99433962,0.0767561026 C7.78522999,0.0770733376 6.80456962,1.07934364 6.80023585,2.31790865 Z M8.42569283,1.73843147 C8.576135,1.58365049 8.78074886,1.49674481 8.99433962,1.49769627 L8.99712557,1.49769627 C9.44318982,1.49833066 9.80412736,1.86942445 9.80319868,2.32615522 C9.80227001,2.7835203 9.44009434,3.15302816 8.99433962,3.15207662 L8.99217274,3.15207662 C8.66559548,3.15144231 8.37152123,2.94908516 8.24770047,2.6395232 C8.12357018,2.32996123 8.19383848,1.97377473 8.42569283,1.73843147 Z" id="Shape"></path>
                            <path d="M2.25941924,0.054553953 C1.04752358,0.0504307094 0.0616008453,1.05396971 0.0581957547,2.29602366 C0.0541716,3.53776038 1.03359377,4.54764285 2.24548943,4.55176618 L2.25229953,4.55176618 C3.46481425,4.55366918 4.44887972,3.54854434 4.45073699,2.30680754 C4.45259434,1.06475359 3.47162443,0.0564569573 2.25941924,0.054553953 Z M2.25229953,3.13082601 L2.24982311,3.13082601 C1.80344925,3.12987447 1.44251179,2.75878068 1.44344047,2.30173275 C1.44405953,1.84468483 1.80623528,1.47454258 2.25229953,1.47549412 L2.25539509,1.47549412 C2.70176887,1.47612851 3.06270641,1.84722222 3.06208726,2.3045873 C3.06115859,2.7616353 2.69867339,3.13146032 2.25229953,3.13082601 Z" id="Shape"></path>
                        </g>
                    </g>
                </g>
            </g>
        </g>
    </g>
</svg>