<?xml version="1.0" encoding="UTF-8"?>
<svg width="65px" height="64px" viewBox="0 0 65 64" version="1.1" xmlns="http://www.w3.org/2000/svg" xmlns:xlink="http://www.w3.org/1999/xlink">
    <!-- Generator: Sketch 54 (76480) - https://sketchapp.com -->
    <title>dollar-symbol(1)</title>
    <desc>Created with Sketch.</desc>
    <g id="Page-1" stroke="none" stroke-width="1" fill="none" fill-rule="evenodd">
        <g id="Web-Application-Development" transform="translate(-1209.000000, -4637.000000)" fill-rule="nonzero">
            <g id="dollar-symbol(1)" transform="translate(1209.000000, 4637.000000)">
                <path d="M37.8867403,57.8531073 C20.361598,57.8531073 6.10497238,43.4985875 6.10497238,25.8531073 C6.09795848,18.6913842 8.4883245,11.7358756 12.8917041,6.11087566 C5.20718232,12.1694915 0.717530691,21.4498587 0.718232044,31.2768362 C0.718232044,48.9223163 14.9748577,63.2768362 32.5,63.2768362 C42.2599599,63.2768362 51.4777386,58.756356 57.4943349,51.0190678 C51.907696,55.4526836 44.9996223,57.8601694 37.8867403,57.8531073 Z" id="Path" fill="#D4E1F4"/>
                <path d="M63.7430939,6.5 L47.5828729,6.5 C46.8884883,6.5 46.3259669,7.06638427 46.3259669,7.76553672 C46.3259669,8.46468918 46.8884883,9.03107345 47.5828729,9.03107345 L63.7430939,9.03107345 C64.4374785,9.03107345 65,8.46468918 65,7.76553672 C65,7.06638427 64.4374785,6.5 63.7430939,6.5 Z" id="Path" fill="#43D92D"/>
                <path d="M31.781768,19.7591808 C34.7486836,19.7627119 37.1530774,22.1836158 37.1565846,25.1709039 C37.1565846,25.8700565 37.719106,26.4364406 38.4134906,26.4364406 C39.107875,26.4364406 39.6703967,25.8700565 39.6703967,25.1709039 C39.6654869,21.2747175 36.8577887,17.9555084 33.038674,17.3298023 L33.038674,14.8248588 C33.038674,14.1257061 32.4761525,13.559322 31.781768,13.559322 C31.0873834,13.559322 30.5248619,14.1257061 30.5248619,14.8248588 L30.5248619,17.3298023 C26.4665704,17.9915254 23.5929406,21.6793784 23.9218965,25.8057909 C24.2501512,29.9314972 27.6708715,33.111582 31.781768,33.1129944 C34.7374612,33.1129944 37.1390496,35.516243 37.1558832,38.4929378 C37.1734181,41.4689266 34.7998857,43.9004238 31.8441924,43.9350282 C31.8231505,43.9336157 31.80281,43.9314972 31.781768,43.9314972 C31.7607259,43.9314972 31.7403854,43.9336157 31.7193435,43.9350282 C28.7769769,43.8975989 26.4104585,41.487288 26.4069514,38.5247176 C26.4069514,37.8255649 25.8444299,37.2591808 25.1500453,37.2591808 C24.4556609,37.2591808 23.8931392,37.8255649 23.8931392,38.5247176 C23.898049,42.420904 26.7050457,45.740113 30.5248619,46.3658193 L30.5248619,49.1751412 C30.5248619,49.8742939 31.0873834,50.440678 31.781768,50.440678 C32.4761525,50.440678 33.038674,49.8742939 33.038674,49.1751412 L33.038674,46.3658193 C37.0976671,45.7062147 39.9726995,42.0169492 39.6437435,37.8905367 C39.315489,33.7641242 35.8933659,30.5833332 31.781768,30.5833332 C29.8543249,30.5939265 28.067863,29.5649718 27.1013359,27.8862995 C26.1341074,26.2069209 26.1341074,24.1355932 27.1013359,22.4562148 C28.067863,20.7775423 29.8543249,19.7485876 31.781768,19.759887 L31.781768,19.7591808 Z" id="Path" fill="#43D92D"/>
                <path d="M59.47298,18.9922316 C58.8326032,19.2620057 58.5310018,20.003531 58.7982347,20.6483052 C60.2922134,24.243644 61.0574392,28.1031073 61.0497238,32 C61.0497238,48.2492937 47.9202456,61.4689266 31.781768,61.4689266 C15.6432904,61.4689266 2.51381215,48.2492937 2.51381215,32 C2.51381215,15.7507063 15.6432904,2.53107345 31.781768,2.53107345 C35.0615073,2.52683607 38.3188018,3.07909605 41.4161775,4.16525415 C41.8405235,4.31709035 42.3139675,4.22810739 42.6555486,3.93220339 C42.9971298,3.63700574 43.1556457,3.17937862 43.0707765,2.73375711 C42.9859074,2.28813559 42.670278,1.92231629 42.2438277,1.77542364 C38.8799206,0.596045198 35.3434695,-0.00423728814 31.781768,1.9269017e-15 C14.2566256,1.9269017e-15 0,14.3545199 0,32 C0,49.6454801 14.2566256,64 31.781768,64 C49.3069103,64 63.5635359,49.6454801 63.5635359,32 C63.5712513,27.7676554 62.740094,23.5762712 61.1177594,19.6716102 C60.8498252,19.0268362 60.1133567,18.7224577 59.47298,18.9922316 Z" id="Path" fill="#24527a"/>
            </g>
        </g>
    </g>
</svg>