<?xml version="1.0" encoding="UTF-8"?>
<svg width="70px" height="68px" viewBox="0 0 70 68" version="1.1" xmlns="http://www.w3.org/2000/svg" xmlns:xlink="http://www.w3.org/1999/xlink">
    <!-- Generator: Sketch 54 (76480) - https://sketchapp.com -->
    <title>Efficient IT Infrastructure</title>
    <desc>Created with Sketch.</desc>
    <g id="Page-1" stroke="none" stroke-width="1" fill="none" fill-rule="evenodd">
        <g id="Web-Application-Development" transform="translate(-1023.000000, -2778.000000)" fill-rule="nonzero">
            <g id="Group-5" transform="translate(391.000000, 2243.000000)">
                <g id="Group-4" transform="translate(585.000000, 477.000000)">
                    <g id="Efficient-IT-Infrastructure" transform="translate(47.000000, 58.000000)">
                        <path d="M12.6749067,11.2717647 C17.7256297,6.15687086 24.6006297,3.28776908 31.7683069,3.30242826 L31.8044543,3.30242826 C31.8102845,3.30301459 31.8161148,3.30301459 31.8219449,3.30242826 C35.4343516,3.29832364 39.010611,4.02717991 42.3367537,5.44560572 C38.2357743,3.05322162 33.5780084,1.79604722 28.8368703,1.8013245 C28.8310401,1.80191083 28.8252099,1.80191083 28.8193797,1.8013245 L28.7832322,1.8013245 C15.729361,1.81363821 4.54990672,11.207264 2.21606806,24.1243792 C2.23064358,24.1085472 2.24580224,24.0927152 2.25979478,24.0768832 C2.27203821,24.0633969 2.28486478,24.0504967 2.29827433,24.038183 C3.36287313,23.0114514 4.68400179,22.2931499 6.12173507,21.9606788 C7.44169776,17.9299806 9.68691701,14.2681084 12.6749067,11.2717647 Z" id="Path" fill="#D4E1F4"/>
                        <path d="M60.2367072,39.1928808 C55.9316699,37.5944398 51.1316464,38.1075124 47.2562967,40.5790563 C43.3803639,43.0511865 40.8727845,47.1991585 40.4745803,51.7974614 C40.4384328,52.2208195 40.4203591,52.6518005 40.4203591,53.0786768 C40.414529,57.7033664 42.5635494,62.0636038 46.2260961,64.8594095 C48.7826493,66.8272627 51.9152285,67.8885899 55.1346782,67.8786217 C62.2632928,67.8780353 68.3657882,62.7396868 69.6210355,55.68274 C70.8756997,48.6257934 66.9222248,41.6784976 60.2367072,39.1928808 L60.2367072,39.1928808 Z M55.1352612,66.0778835 C51.7065066,66.0819881 48.4165112,64.7134037 45.9923042,62.2752828 C43.567514,59.8365757 42.2073227,56.5276973 42.2114039,53.0792632 C42.2114039,52.7039872 42.2271455,52.3240203 42.2592118,51.9516764 C42.8649719,44.9451572 48.9015858,39.6930532 55.8826958,40.0999931 C62.864389,40.5063466 68.2579291,46.4233927 68.0556203,53.4533664 C67.8533116,60.4839267 62.1286148,66.0772971 55.1352612,66.0772971 L55.1352612,66.0778835 Z" id="Shape" fill="#43D92D"/>
                        <path d="M60.4722481,48.6146523 L53.4946361,55.6323124 L49.7982743,51.9153214 C49.4490439,51.5635002 48.881763,51.5635002 48.5319496,51.9153214 C48.1821361,52.2671426 48.1821361,52.837093 48.5319496,53.1889141 L52.8614739,57.5432878 C53.2112873,57.895109 53.7779851,57.895109 54.1277985,57.5432878 L61.7385728,49.888245 C61.9700327,49.6619068 62.0621501,49.3276766 61.979944,49.0139693 C61.8983209,48.6996757 61.6540345,48.4545737 61.3421176,48.3718958 C61.0296176,48.2892177 60.6972948,48.3824503 60.4722481,48.6146523 Z" id="Path" fill="#43D92D"/>
                        <path d="M28.8374534,-2.4155316e-14 L28.7826493,-2.4155316e-14 C12.8760494,0.0105546358 -0.010494403,12.9880657 8.47032947e-22,28.9859616 C0.000583022388,29.4380519 0.334654925,29.8191916 0.780667015,29.877242 C1.2266791,29.9352925 1.64587224,29.6514901 1.7613106,29.2146455 C1.95953821,28.4564707 2.66499537,26.2915978 3.54652522,25.3305395 C4.7108209,24.2017797 6.26340955,23.5696744 7.88071358,23.5661563 L7.91044776,23.5661563 C9.51492537,23.562638 11.0558536,24.194157 12.2003266,25.3246757 C13.3261427,26.4950676 13.956973,28.0583265 13.9616372,29.6866722 C13.9616372,30.1839128 14.3627566,30.5873344 14.8571596,30.5873344 C15.3521455,30.5873344 15.7526819,30.1839128 15.7526819,29.6866722 C15.7281949,28.0553947 16.3619403,26.4833402 17.5093284,25.3299532 C18.6567164,24.176566 20.2203824,23.5403559 21.8423507,23.5661563 C23.4561567,23.5573607 25.0087454,24.1888797 26.1619636,25.3240894 C27.2877799,26.4950676 27.9186101,28.0583265 27.9232743,29.6866722 L27.9232743,54.8835196 C27.9069496,58.2451711 25.1923973,60.9612307 21.8505131,60.9612307 C18.5080457,60.9612307 15.7940764,58.2451711 15.7777519,54.8835196 C15.7777519,54.386279 15.3766325,53.9828574 14.8822296,53.9828574 C14.3872434,53.9828574 13.9867072,54.386279 13.9867072,54.8835196 C14.0053639,59.2384795 17.5204058,62.7584506 21.8505131,62.7584506 C26.1800373,62.7584506 29.6956624,59.2384795 29.7143191,54.8835196 L29.7143191,29.6872585 C29.6892491,28.055981 30.3229943,26.4839267 31.4709655,25.3311258 C32.6183536,24.1777386 34.1820196,23.5415287 35.8039879,23.5679152 L35.8337221,23.5679152 C37.4381997,23.5638106 38.9791278,24.1953298 40.1241837,25.3258485 C41.249417,26.4962404 41.8808301,28.0600856 41.8854943,29.6884313 C41.8854943,30.1856719 42.2860307,30.5890936 42.7810167,30.5890936 C43.2754197,30.5890936 43.6765391,30.1856719 43.6765391,29.6884313 C43.6514693,28.05129 44.2892957,26.4751311 45.443097,25.3205713 C46.5974813,24.1660113 48.1681436,23.5333196 49.7959421,23.5679152 C51.3998367,23.5638106 52.9407649,24.1953298 54.0852379,25.3252622 C54.9667678,26.2792839 55.676889,28.4547117 55.8762827,29.2152318 C55.991721,29.6526627 56.4109142,29.9358788 56.8569263,29.8778283 C57.3029385,29.8197779 57.6370103,29.4386382 57.6375933,28.9859616 L57.6375933,28.9490203 C57.6282649,12.9816157 44.7102379,-2.84217094e-14 28.8374534,-2.4155316e-14 Z M55.3783815,24.0774697 C55.3702193,24.0692605 55.3620569,24.0604649 55.3538946,24.0522558 C53.8747669,22.5834022 51.8784982,21.7618998 49.8000233,21.7660044 L49.7621269,21.7660044 C47.6801539,21.7671771 45.6798042,22.5822296 44.1837687,24.0387693 C44.1709421,24.0516694 44.1581157,24.0645695 44.1458722,24.0774697 C43.6054104,24.6509382 43.1459888,25.29653 42.7810167,25.9954815 C42.4160448,25.29653 41.9566231,24.6509382 41.4161613,24.0774697 C41.4085821,24.0692605 41.4004197,24.0604649 41.3916745,24.0522558 C39.9131297,22.5834022 37.916861,21.7613135 35.8383863,21.7660044 C33.7430037,21.7572088 31.7274954,22.5728477 30.2221315,24.0387693 C30.2087221,24.0516694 30.1964785,24.0639832 30.1836521,24.0774697 C29.6437733,24.6503519 29.1843516,25.2959437 28.8193797,25.9948951 C28.4538246,25.2953574 27.994986,24.6503519 27.4545242,24.0768832 C27.4463619,24.0686742 27.4381997,24.0598786 27.4300373,24.0516694 C25.9509096,22.5828159 23.9552239,21.7607271 21.8767491,21.7648318 C19.7813666,21.7566225 17.7658582,22.5722614 16.2604943,24.038183 C16.2470849,24.051083 16.2342584,24.0639832 16.2220149,24.0768832 C15.6821361,24.6503519 15.2227146,25.2959437 14.8571596,25.9948951 C14.4921875,25.2959437 14.0327658,24.6503519 13.4928872,24.0768832 C13.4847248,24.0686742 13.4765625,24.0598786 13.4684001,24.0516694 C11.9892724,22.5828159 9.99358672,21.7607271 7.91452896,21.7648318 C5.81972955,21.7566225 3.80363806,22.5722614 2.29827433,24.038183 C2.28544776,24.0504967 2.27262119,24.0633969 2.25979478,24.0768832 C2.24521925,24.0915426 2.2300606,24.1085472 2.21606806,24.1243792 C4.54990672,11.207264 15.729944,1.81363821 28.7832322,1.8013245 L28.8193797,1.8013245 C28.8252099,1.80191083 28.8316231,1.80191083 28.8374534,1.8013245 C42.0837221,1.8013245 53.1372434,11.444157 55.416861,24.1191018 C55.4040345,24.1050289 55.3912081,24.0909561 55.3783815,24.0774697 Z" id="Shape" fill="#24527a"/>
                    </g>
                </g>
            </g>
        </g>
    </g>
</svg>