<?xml version="1.0" encoding="UTF-8"?>
<svg width="68px" height="60px" viewBox="0 0 68 60" version="1.1" xmlns="http://www.w3.org/2000/svg" xmlns:xlink="http://www.w3.org/1999/xlink">
    <!-- Generator: Sketch 54 (76480) - https://sketchapp.com -->
    <title>Enhanced Security</title>
    <desc>Created with Sketch.</desc>
    <g id="Page-1" stroke="none" stroke-width="1" fill="none" fill-rule="evenodd">
        <g id="Web-Application-Development" transform="translate(-438.000000, -1799.000000)" fill-rule="nonzero">
            <g id="Group-5" transform="translate(0.000000, 1133.000000)">
                <g id="Group-4" transform="translate(391.000000, 607.000000)">
                    <g id="Enhanced-Security" transform="translate(47.000000, 59.000000)">
                        <path d="M66.8773585,53.5486779 L13.9528302,53.5486779 C9.79204003,53.5451723 6.41960492,50.1752805 6.41509434,46.0166267 L6.41509434,1.13231167 C6.41559549,0.781750769 6.44065451,0.432191538 6.48977002,0.0851361538 C2.77051887,0.610977564 0.00451060679,3.7900641 0,7.54256808 L0,52.4268831 C0.00451060679,56.5855369 3.37694569,59.9554287 7.53773585,59.9589344 L60.4622642,59.9589344 C64.2181015,59.9549279 67.3990861,57.1910056 67.9253243,53.4750601 C67.5785083,53.5236378 67.228184,53.5486779 66.8773585,53.5486779 Z" id="Path" fill="#D4E1F4"/>
                        <path d="M68,7.54256808 L68,52.4268831 C67.9954894,56.5855369 64.6230543,59.9554287 60.4622642,59.9589344 L7.53773585,59.9589344 C3.37694569,59.9554287 0.00451060679,56.5855369 0,52.4268831 L0,7.54256808 C0.00451060679,3.3849159 3.37694569,0.0150241026 7.53773585,0.0105167949 L60.4622642,0.0105167949 C64.6230543,0.0150241026 67.9954894,3.3849159 68,7.54256808 Z M65.754717,52.4268831 L65.754717,17.9737579 L2.24528302,17.9737579 L2.24528302,52.4268831 C2.24829016,55.3465545 4.61586078,57.7128405 7.53773585,57.7153446 L60.4622642,57.7153446 C63.3841392,57.7128405 65.7517098,55.3465545 65.754717,52.4268831 Z M65.754717,15.7301682 L65.754717,7.54256808 C65.7517098,4.62289667 63.3841392,2.25761218 60.4622642,2.25410654 L7.53773585,2.25410654 C4.61586078,2.25761218 2.24829016,4.62289667 2.24528302,7.54256808 L2.24528302,15.7301682 L65.754717,15.7301682 Z" id="Shape" fill="#24527a"/>
                        <g id="Group" transform="translate(4.618868, 5.384615)" fill="#43D92D">
                            <path d="M29.3906545,15.3230168 L29.3615861,15.3230168 C20.7753832,15.3290264 13.8190153,22.2896635 13.8245283,30.8698918 C13.8250294,31.4332933 14.2445166,31.9090545 14.8043338,31.9806691 C15.3636498,32.0527845 15.8893868,31.6987179 16.0327241,31.1533454 C16.1625294,30.6610577 16.488296,29.7941706 16.7864977,29.4541267 C17.2666274,29.0024038 17.9001179,28.7479968 18.5606721,28.7444912 C19.2167158,28.7419872 19.8477004,28.9948918 20.3198113,29.4501203 C20.7783904,29.9288862 21.0364977,30.5654046 21.0415094,31.2284655 C21.0415094,31.8479567 21.543691,32.3502604 22.1641509,32.3502604 C22.7846109,32.3502604 23.2867925,31.8479567 23.2867925,31.2284655 C23.2737619,30.5649038 23.5318691,29.9248797 24.0024764,29.4561297 C24.4720813,28.9873797 25.1135908,28.7299679 25.7776532,28.7444912 L25.7901828,28.7444912 C26.442217,28.7429887 27.068691,28.9958935 27.5367925,29.4501203 C27.9953715,29.9288862 28.2534788,30.5654046 28.2584906,31.2284655 L28.2584906,41.9766627 C28.2584906,43.3453526 27.1483785,44.4546274 25.7786557,44.4546274 C24.409434,44.4546274 23.2993219,43.3453526 23.2993219,41.9766627 C23.2993219,41.3576723 22.7966392,40.8548678 22.1766804,40.8548678 C21.5572228,40.8548678 21.0540389,41.3576723 21.0540389,41.9766627 C21.0540389,44.5848358 23.1695166,46.6982172 25.7786557,46.6982172 C28.388296,46.6982172 30.5037736,44.5848358 30.5037736,41.9766627 L30.5037736,31.2284655 C30.5032724,30.8638822 30.58296,30.5033053 30.7363208,30.1722756 C30.8596109,29.9113582 31.0219929,29.6704728 31.2174528,29.4581331 C31.6975826,29.0034054 32.3330778,28.7489985 32.9946344,28.7444912 C33.6511792,28.7369792 34.2846698,28.9903846 34.7537736,29.4501203 C35.2123526,29.9293871 35.47046,30.5654046 35.4754717,31.2284655 C35.4754717,31.8479567 35.9776532,32.3502604 36.5981132,32.3502604 C37.2185732,32.3502604 37.7207547,31.8479567 37.7207547,31.2284655 C37.7077241,30.5649038 37.9658313,29.9248797 38.4364387,29.4561297 C38.9060436,28.9873797 39.547553,28.7299679 40.2116155,28.7444912 L40.2241451,28.7444912 C40.875177,28.7424879 41.5006486,28.9953926 41.9677476,29.4481169 C42.2659493,29.7786459 42.59773,30.6560497 42.72954,31.1533454 C42.8728774,31.6987179 43.3991155,32.0527845 43.959434,31.9806691 C44.51875,31.9080528 44.9377358,31.4317909 44.9377358,30.8678886 L44.9377358,30.8488582 C44.9322228,22.2726362 37.9733491,15.3235177 29.3906545,15.3230168 L29.3906545,15.3230168 Z M40.2291568,26.5009014 C38.9767098,26.4938903 37.7708726,26.9771635 36.8707547,27.8475562 L36.8226415,27.8956331 C36.7439564,27.978766 36.670283,28.0634014 36.5981132,28.1505409 C36.5259434,28.0634014 36.45227,27.978766 36.3735849,27.8956331 C36.3625589,27.8856169 36.3525354,27.8740986 36.343013,27.8650841 C35.4564268,26.9896835 34.2601121,26.499399 33.0136792,26.5009014 L32.9896226,26.5009014 C31.7446934,26.5009014 30.5488797,26.9836738 29.6537736,27.8475562 L29.6056604,27.8956331 C29.52898,27.978766 29.4533019,28.0634014 29.3811321,28.1505409 C29.3089623,28.0634014 29.2352889,27.978766 29.1566038,27.8956331 L29.1260319,27.8650841 C28.2389445,26.9891827 27.0416274,26.4988982 25.7951945,26.5009014 C24.5427476,26.4953926 23.3374115,26.9786659 22.4367925,27.8475562 L22.3886792,27.8956331 C22.3099941,27.978766 22.2363208,28.0634014 22.1641509,28.1505409 C22.0919811,28.0634014 22.0183078,27.978766 21.9396226,27.8956331 L21.9090507,27.8650841 C21.0219634,26.9891827 19.8246462,26.4988982 18.5782134,26.5009014 C17.9231721,26.4978967 17.2736438,26.6286058 16.6712264,26.8860177 C18.4143279,21.3456531 23.5499115,17.5741186 29.3615861,17.5666065 L29.3906545,17.5666065 C35.2038325,17.5696114 40.3429245,21.3386418 42.089033,26.8795072 C41.5016509,26.6286058 40.8681604,26.5004006 40.2291568,26.5009014 L40.2291568,26.5009014 Z" id="Shape"/>
                            <path d="M25.4679245,7.25460744 L25.4794517,7.25460744 C27.4365566,7.25360577 29.0247936,5.67207538 29.031309,3.71544474 L29.031309,3.70442705 C29.0293042,1.74879808 27.446079,0.163261282 25.488974,0.154747564 L25.4794517,0.154747564 C23.5173349,0.151742821 21.9240861,1.73878205 21.921079,3.69891821 C21.9180719,5.65955526 23.506309,7.25110179 25.4679245,7.25460744 Z M25.4794517,2.39833731 L25.4824587,2.39833731 C26.2041568,2.39933897 26.789033,2.98527641 26.7875294,3.70643026 C26.7870283,4.4275841 26.2011498,5.01151846 25.4794517,5.01101769 L25.4744398,5.01101769 C24.7527417,5.00951526 24.1683668,4.42357769 24.1693691,3.70242385 C24.1708726,2.98076923 24.7572524,2.39733577 25.4794517,2.39833731 Z" id="Shape"/>
                            <path d="M11.0099057,3.65985577 C11.0068985,5.61949115 12.5906249,7.21203923 14.5512381,7.22055282 L14.5622642,7.22055282 C16.5188679,7.21854974 18.1066038,5.63752 18.1146226,3.68239179 L18.1146226,3.67137423 C18.1141215,1.71474359 16.5308962,0.128205128 14.5737913,0.121193846 L14.5622642,0.121193846 C12.6046581,0.121694744 11.0169222,1.70422679 11.0099057,3.65985577 Z M13.6415979,2.74489179 C13.885171,2.50050077 14.2164505,2.36328128 14.5622642,2.36478359 L14.5667747,2.36478359 C15.288974,2.36578526 15.8733491,2.95172282 15.8718455,3.67287667 C15.8703419,4.39503205 15.2839623,4.97846551 14.5622642,4.97696308 L14.5587559,4.97696308 C14.0300117,4.97596154 13.5538915,4.65645026 13.3534198,4.16766821 C13.152447,3.67888615 13.2662147,3.11648641 13.6415979,2.74489179 Z" id="Shape"/>
                            <path d="M3.65810734,0.0861378205 L3.64658019,0.0861378205 C1.68496456,0.0831330769 0.091715834,1.66967154 0.0882075472,3.63131013 C0.0852004075,5.59194718 1.67343753,7.18349359 3.63555431,7.18699923 L3.64658019,7.18699923 C5.60969926,7.19000397 7.20294811,5.60296474 7.20595512,3.64232769 C7.20896226,1.68118987 5.62072527,0.0891425641 3.65810734,0.0861378205 Z M3.64658019,4.94340949 L3.64257075,4.94340949 C2.91987022,4.94190705 2.33549528,4.35596949 2.33699885,3.63431487 C2.33800115,2.91266026 2.92438093,2.32822513 3.64658019,2.32972756 L3.65159205,2.32972756 C4.37429245,2.33072923 4.95866752,2.91666667 4.95766509,3.63882205 C4.95616152,4.36047679 4.36928072,4.94441103 3.64658019,4.94340949 Z" id="Shape"/>
                        </g>
                    </g>
                </g>
            </g>
        </g>
    </g>
</svg>