<?xml version="1.0" encoding="UTF-8"?>
<svg width="63px" height="61px" viewBox="0 0 63 61" version="1.1" xmlns="http://www.w3.org/2000/svg" xmlns:xlink="http://www.w3.org/1999/xlink">
    <!-- Generator: Sketch 54 (76480) - https://sketchapp.com -->
    <title>Insurance</title>
    <desc>Created with Sketch.</desc>
    <g id="Page-1" stroke="none" stroke-width="1" fill="none" fill-rule="evenodd">
        <g id="Blog-Detail" transform="translate(-812.000000, -2068.000000)" fill-rule="nonzero">
            <g id="Group-6" transform="translate(781.000000, 2043.000000)">
                <g id="Insurance" transform="translate(31.000000, 25.000000)">
                    <path d="M11.407416,10.1114359 C15.9530667,5.52307533 22.1405667,2.94932226 28.5914762,2.96247241 L28.6240089,2.96247241 C28.629256,2.96299838 28.6345033,2.96299838 28.6397504,2.96247241 C31.8909165,2.95879032 35.1095499,3.61261727 38.1030784,4.88502866 C34.4121969,2.73891939 30.2202075,1.61116001 25.9531833,1.61589404 C25.9479361,1.61642001 25.9426889,1.61642001 25.9374417,1.61589404 L25.904909,1.61589404 C14.1564249,1.62694016 4.09491604,10.0535751 1.99446125,21.6409872 C2.00757922,21.626785 2.02122201,21.6125828 2.0338153,21.5983806 C2.04483439,21.5862825 2.0563783,21.5747103 2.0684469,21.5636641 C3.02658582,20.6426256 4.21560161,19.9982668 5.50956157,19.7000207 C6.69752799,16.0842473 8.71822531,12.7993325 11.407416,10.1114359 Z" id="Path" fill="#D3E0F3"></path>
                    <path d="M54.2130364,35.1583195 C50.3385029,33.7244239 46.0184818,34.1846802 42.530667,36.4018005 C39.0423275,38.6194467 36.785506,42.3404216 36.4271223,46.4653698 C36.3945896,46.8451469 36.3783232,47.2317622 36.3783232,47.6146954 C36.3730761,51.763314 38.3071945,55.6747034 41.6034865,58.1827056 C43.9043843,59.9479857 46.7237057,60.9000586 49.6212104,60.8911165 C56.0369636,60.8905905 61.5292094,56.2811896 62.658932,49.9506932 C63.7881297,43.620197 60.2300023,37.388064 54.2130364,35.1583195 L54.2130364,35.1583195 Z M49.6217351,59.2757484 C46.5358559,59.2794305 43.5748601,58.0517298 41.3930738,55.8645919 C39.2107626,53.6769282 37.9865904,50.7086697 37.9902635,47.6152214 C37.9902635,47.2785768 38.004431,46.9377241 38.0332906,46.6037097 C38.5784747,40.3184498 44.0114272,35.6070036 50.2944262,35.9720527 C56.5779501,36.3365756 61.4321362,41.644514 61.2500583,47.950814 C61.0679805,54.2576401 55.9157533,59.2752224 49.6217351,59.2752224 L49.6217351,59.2757484 Z" id="Shape" fill="#42D82C"></path>
                    <path d="M54.4250233,43.6102028 L48.1451725,49.9054567 L44.8184469,46.5710972 C44.5041395,46.2554929 43.9935867,46.2554929 43.6787546,46.5710972 C43.3639225,46.8867015 43.3639225,47.3979804 43.6787546,47.7135847 L47.5753265,51.6197141 C47.8901586,51.9353184 48.4001866,51.9353184 48.7150187,51.6197141 L55.5647156,44.7526904 C55.7730294,44.5496517 55.8559351,44.2498275 55.7819496,43.9684137 C55.7084888,43.6864738 55.488631,43.4666029 55.2079059,43.3924359 C54.9266559,43.3182688 54.6275653,43.401904 54.4250233,43.6102028 Z" id="Path" fill="#42D82C"></path>
                    <path d="M25.9537081,-2.45945035e-14 L25.9043843,-2.45945035e-14 C11.5884445,0.00946812914 -0.00944496269,11.651059 1.52711577e-13,26.0021126 C0.000524720149,26.4076642 0.301189433,26.7495689 0.702600313,26.8016435 C1.10401119,26.8537183 1.48128501,26.5991308 1.58517954,26.2072555 C1.76358439,25.5271281 2.39849584,23.5851098 3.1918727,22.722984 C4.23973881,21.71042 5.6370686,21.1433844 7.09264222,21.1402284 L7.11940299,21.1402284 C8.56343284,21.1370723 9.95026822,21.703582 10.9802939,22.7177238 C11.9935284,23.7676341 12.5612757,25.1699693 12.5654734,26.6306912 C12.5654734,27.0767453 12.9264809,27.4386382 13.3714436,27.4386382 C13.816931,27.4386382 14.1774137,27.0767453 14.1774137,26.6306912 C14.1553754,25.1673393 14.7257463,23.757114 15.7583955,22.722458 C16.7910448,21.6878018 18.1983441,21.117084 19.6581157,21.1402284 C21.110541,21.1323383 22.5078708,21.698848 23.5457672,22.7171978 C24.5590019,23.7676341 25.1267491,25.1699693 25.1309469,26.6306912 L25.1309469,49.2337455 C25.1162546,52.2493446 22.6731576,54.6858099 19.6654618,54.6858099 C16.6572411,54.6858099 14.2146688,52.2493446 14.1999767,49.2337455 C14.1999767,48.7876915 13.8389693,48.4257985 13.3940066,48.4257985 C12.9485191,48.4257985 12.5880364,48.7876915 12.5880364,49.2337455 C12.6048275,53.1404007 15.7683652,56.2980218 19.6654618,56.2980218 C23.5620336,56.2980218 26.7260961,53.1404007 26.7428872,49.2337455 L26.7428872,26.6312172 C26.7203242,25.1678653 27.2906949,23.7576401 28.323869,22.7235099 C29.3565182,21.6888538 30.7638176,21.118136 32.2235891,21.1418063 L32.2503499,21.1418063 C33.6943797,21.1381242 35.081215,21.7046341 36.1117654,22.7187759 C37.1244753,23.7686862 37.6927471,25.1715474 37.6969449,26.6322693 C37.6969449,27.0783234 38.0574277,27.4402163 38.502915,27.4402163 C38.9478777,27.4402163 39.3088852,27.0783234 39.3088852,26.6322693 C39.2863223,25.1636572 39.8603661,23.74975 40.8987873,22.7140419 C41.9377332,21.6783336 43.3513292,21.110772 44.8163479,21.1418063 C46.259853,21.1381242 47.6466884,21.7046341 48.6767141,22.7182499 C49.470091,23.5740635 50.1092001,25.5255502 50.2886544,26.2077815 C50.3925489,26.6001827 50.7698228,26.8542442 51.1712336,26.8021695 C51.5726447,26.7500949 51.8733093,26.4081902 51.873834,26.0021126 L51.873834,25.9689741 C51.8654384,11.6452729 40.2392141,-2.84217094e-14 25.9537081,-2.45945035e-14 Z M49.8405433,21.5989067 C49.8331973,21.5915425 49.8258512,21.5836524 49.8185052,21.5762883 C48.4872902,20.2586402 46.6906484,19.5217042 44.820021,19.5253863 L44.7859142,19.5253863 C42.9121385,19.5264383 41.1118238,20.2575883 39.7653918,21.5641901 C39.7538479,21.5757622 39.7423041,21.5873344 39.731285,21.5989067 C39.2448694,22.1133416 38.8313899,22.6924755 38.502915,23.319476 C38.1744403,22.6924755 37.7609608,22.1133416 37.2745452,21.5989067 C37.2677239,21.5915425 37.2603777,21.5836524 37.252507,21.5762883 C35.9218167,20.2586402 34.1251749,19.5211783 32.2545476,19.5253863 C30.3687034,19.5174962 28.5547458,20.2491722 27.1999183,21.5641901 C27.1878499,21.5757622 27.1768307,21.5868085 27.1652869,21.5989067 C26.679396,22.1128156 26.2659165,22.6919495 25.9374417,23.3189501 C25.6084422,22.6914235 25.1954874,22.1128156 24.7090718,21.5983806 C24.7017257,21.5910165 24.6943797,21.5831264 24.6870336,21.5757622 C23.3558186,20.2581143 21.5597015,19.5206523 19.6890742,19.5243344 C17.8032299,19.5169702 15.9892724,20.2486462 14.6344449,21.5636641 C14.6223764,21.5752362 14.6108325,21.5868085 14.5998134,21.5983806 C14.1139225,22.1128156 13.7004432,22.6919495 13.3714436,23.3189501 C13.0429687,22.6919495 12.6294892,22.1128156 12.1435984,21.5983806 C12.1362523,21.5910165 12.1289063,21.5831264 12.1215601,21.5757622 C10.7903451,20.2581143 8.99422804,19.5206523 7.12307606,19.5243344 C5.2377566,19.5169702 3.42327425,20.2486462 2.0684469,21.5636641 C2.05690299,21.5747103 2.04535907,21.5862825 2.0338153,21.5983806 C2.02069733,21.6115308 2.00705454,21.626785 1.99446125,21.6409872 C4.09491604,10.0535751 14.1569496,1.62694016 25.904909,1.61589404 L25.9374417,1.61589404 C25.9426889,1.61642001 25.9484608,1.61642001 25.9537081,1.61589404 C37.8753499,1.61589404 47.8235191,10.266082 49.8751749,21.6362531 C49.863631,21.6236289 49.8520873,21.6110047 49.8405433,21.5989067 Z" id="Shape" fill="#006CFA"></path>
                </g>
            </g>
        </g>
    </g>
</svg>