<?xml version="1.0" encoding="UTF-8"?>
<svg width="65px" height="59px" viewBox="0 0 65 59" version="1.1" xmlns="http://www.w3.org/2000/svg" xmlns:xlink="http://www.w3.org/1999/xlink">
    <!-- Generator: Sketch 54 (76480) - https://sketchapp.com -->
    <title>Integration of new-age technologies </title>
    <desc>Created with Sketch.</desc>
    <g id="Page-1" stroke="none" stroke-width="1" fill="none" fill-rule="evenodd">
        <g id="Web-Application-Development" transform="translate(-1023.000000, -1363.000000)" fill-rule="nonzero">
            <g id="Group-5" transform="translate(0.000000, 1133.000000)">
                <g id="Group-4" transform="translate(976.000000, 164.000000)">
                    <g id="Integration-of-new-age-technologies-" transform="translate(47.000000, 66.000000)">
                        <path d="M9.7270553,1.82967557 L5.25457823,1.82967557 C3.34154594,1.83202131 1.79132024,3.39310982 1.78899083,5.31954719 L1.78899083,36.0921099 L6.26146789,36.0921099 L6.26146789,5.31954719 C6.26379731,3.39310982 7.814023,1.83202131 9.7270553,1.82967557 Z" id="Path" fill="#D4E1F4"/>
                        <path d="M6.26146789,41.001153 L6.26146789,37.8936367 L1.78899083,37.8936367 L1.78899083,41.001153 C1.79132024,42.9281766 3.34154594,44.4892653 5.25457823,44.4910246 L9.7270553,44.4910246 C7.814023,44.4892653 6.26379731,42.9281766 6.26146789,41.001153 Z" id="Path" fill="#D4E1F4"/>
                        <path d="M59.6522452,0.028148855 L5.25457823,0.028148855 C2.35387392,0.0316675369 0.00349412271,2.39851694 -2.84217094e-14,5.31954719 L-2.84217094e-14,41.001153 C0.00349412271,43.9221831 2.35387392,46.2896192 5.25457823,46.2925513 L23.217863,46.2925513 L23.217863,57.0764949 L19.0528687,57.0764949 C18.5584504,57.0764949 18.1583733,57.4799618 18.1583733,57.9772583 C18.1583733,58.4745547 18.5584504,58.8780216 19.0528687,58.8780216 L46.6389676,58.8780216 C47.1328036,58.8780216 47.533463,58.4745547 47.533463,57.9772583 C47.533463,57.4799618 47.1328036,57.0764949 46.6389676,57.0764949 L41.6895427,57.0764949 L41.6895427,46.2925513 L59.6522452,46.2925513 C62.5529495,46.2896192 64.9039117,43.9221831 64.9068234,41.001153 L64.9068234,5.31954719 C64.9033292,2.39851694 62.5529495,0.0316675369 59.6522452,0.028148855 Z M5.25457823,1.82967557 L59.6522452,1.82967557 C61.5652775,1.83202131 63.1160855,3.39310982 63.1178326,5.31954719 L63.1178326,36.0921099 L1.78899083,36.0921099 L1.78899083,5.31954719 C1.79132024,3.39310982 3.34154594,1.83202131 5.25457823,1.82967557 Z M39.8999696,57.0764949 L25.0062715,57.0764949 L25.0062715,46.2925513 L39.8999696,46.2925513 L39.8999696,57.0764949 Z M59.6522452,44.4910246 L5.25457823,44.4910246 C3.34154594,44.4892653 1.79132024,42.9281766 1.78899083,41.001153 L1.78899083,37.8936367 L63.1178326,37.8936367 L63.1178326,41.001153 C63.1160855,42.9281766 61.5652775,44.4892653 59.6522452,44.4910246 Z" id="Shape" fill="#0B75FF"/>
                        <g id="Group" transform="translate(20.126147, 4.804071)" fill="#43D92D">
                            <path d="M21.4393546,10.1834347 C21.754408,10.5552342 22.3070617,10.6056675 22.6838446,10.297203 L26.5081619,7.16446998 C26.8872742,6.84896831 26.9425978,6.28481827 26.6322033,5.90129019 C26.3223911,5.51717557 25.7627491,5.45735918 25.3789779,5.76641019 L22.2325204,8.3455491 L21.1574954,7.07767768 C20.8360361,6.70235962 20.2734823,6.65896354 19.8990287,6.98091603 C19.5245754,7.30286852 19.4791517,7.8693643 19.7971169,8.2476145 L21.4393546,10.1834347 Z" id="Path"/>
                            <path d="M6.0489088,25.1627306 C7.82334067,26.4675473 9.79111414,27.4809061 11.8805995,28.1652751 C12.0413292,28.2133628 12.2125412,28.2139492 12.3744355,28.1682073 C14.5233211,27.4879433 16.5551534,26.4775168 18.3971384,25.1721135 C22.2150499,22.4545761 24.3179294,18.8814309 24.5095238,14.812162 C27.4841869,14.235697 29.7303254,11.7627027 30.0366434,8.72849078 C30.3429616,5.69427886 28.6360826,2.81664484 25.8372904,1.6502267 C23.0390803,0.48322201 19.8122581,1.30305749 17.8986436,3.6675613 C16.1591528,2.63778221 14.4784799,1.51065522 12.864195,0.292044295 C12.5462299,0.0516062341 12.1088822,0.0516062341 11.7909171,0.292044295 C8.37424742,2.87118321 4.66581852,5.03336717 0.743665745,6.73344061 L0.669124461,6.76510814 C0.340676927,6.90761176 0.128117833,7.23308293 0.128117833,7.59256723 L0.128117833,14.1964059 C0.128117833,18.5160823 2.17567374,22.308554 6.0489088,25.1627306 Z M23.2102924,2.92748092 C26.0096671,2.92748092 28.2790998,5.21281604 28.2790998,8.03180662 C28.2790998,10.8507972 26.0096671,13.1361323 23.2102924,13.1361323 C20.4109178,13.1361323 18.1414851,10.8507972 18.1414851,8.03180662 C18.1414851,5.21281604 20.4109178,2.92748092 23.2102924,2.92748092 Z M1.91710866,8.18369318 C5.59350806,6.55047305 9.0835544,4.5219963 12.3272649,2.13344871 C13.8145964,3.22890816 15.3654046,4.25516858 16.9540657,5.19698242 C15.8173111,7.74973167 16.3193001,10.739961 18.225344,12.7743023 C19.4051927,14.0263399 21.0055011,14.7904639 22.7147093,14.9171338 C22.5603856,17.3643248 21.6146431,19.5570034 19.892623,21.4722985 C19.7278168,21.0770415 19.3085221,20.8530237 18.8909744,20.9374702 C18.4734267,21.0219168 18.1729323,21.391957 18.1729323,21.8206405 L18.1729323,22.5173246 C18.1729323,22.6821128 18.2177735,22.8433822 18.3033795,22.9841265 C18.0174438,23.2181139 17.7186962,23.4474098 17.4059722,23.6720142 C15.7858641,24.8155614 14.0108497,25.7192569 12.1362529,26.3561248 C10.3251325,25.7174977 8.61592428,24.814975 7.06336901,23.6790513 C6.79606874,23.4802501 6.53866829,23.2773437 6.2923326,23.0703324 C6.41520929,22.9125815 6.48218001,22.7178853 6.48159755,22.5173246 L6.48159755,21.8212269 C6.48218001,21.3749503 6.15780899,20.9961137 5.71929648,20.930433 C5.28136643,20.8641658 4.86148939,21.1309935 4.73162446,21.5579178 C2.8628512,19.4379571 1.91710866,16.9725867 1.91710866,14.1969922 L1.91710866,8.18369318 Z" id="Shape"/>
                            <path d="M12.3272649,23.418088 C12.8211009,23.418088 13.2217603,23.0146211 13.2217603,22.5173246 L13.2217603,21.8212269 C13.2217603,21.3239304 12.8211009,20.9204635 12.3272649,20.9204635 C11.8334289,20.9204635 11.4327695,21.3239304 11.4327695,21.8212269 L11.4327695,22.5173246 C11.4327695,23.0146211 11.8334289,23.418088 12.3272649,23.418088 Z" id="Path"/>
                            <path d="M14.5739857,23.418088 C15.0678217,23.418088 15.4684811,23.0146211 15.4684811,22.5173246 L15.4684811,21.8212269 C15.4684811,21.3239304 15.0678217,20.9204635 14.5739857,20.9204635 C14.0801497,20.9204635 13.6794903,21.3239304 13.6794903,21.8212269 L13.6794903,22.5173246 C13.6794903,23.0146211 14.0801497,23.418088 14.5739857,23.418088 Z" id="Path"/>
                            <path d="M16.8207067,23.418088 C17.3145427,23.418088 17.7152021,23.0146211 17.7152021,22.5173246 L17.7152021,21.8212269 C17.7152021,21.3239304 17.3145427,20.9204635 16.8207067,20.9204635 C16.3268707,20.9204635 15.9262113,21.3239304 15.9262113,21.8212269 L15.9262113,22.5173246 C15.9262113,23.0146211 16.3268707,23.418088 16.8207067,23.418088 Z" id="Path"/>
                            <path d="M10.0805441,23.418088 C10.5749624,23.418088 10.9750395,23.0146211 10.9750395,22.5173246 L10.9750395,21.8212269 C10.9750395,21.3239304 10.5749624,20.9204635 10.0805441,20.9204635 C9.58670807,20.9204635 9.18604867,21.3239304 9.18604867,21.8212269 L9.18604867,22.5173246 C9.18604867,23.0146211 9.58670807,23.418088 10.0805441,23.418088 Z" id="Path"/>
                            <path d="M7.83382311,23.418088 C8.32824143,23.418088 8.72831852,23.0146211 8.72831852,22.5173246 L8.72831852,21.8212269 C8.72831852,21.3239304 8.32824143,20.9204635 7.83382311,20.9204635 C7.3399871,20.9204635 6.93932769,21.3239304 6.93932769,21.8212269 L6.93932769,22.5173246 C6.93932769,23.0146211 7.3399871,23.418088 7.83382311,23.418088 Z" id="Path"/>
                        </g>
                    </g>
                </g>
            </g>
        </g>
    </g>
</svg>