<?xml version="1.0" encoding="UTF-8"?>
<svg width="74px" height="68px" viewBox="0 0 74 68" version="1.1" xmlns="http://www.w3.org/2000/svg" xmlns:xlink="http://www.w3.org/1999/xlink">
    <!-- Generator: Sketch 54 (76480) - https://sketchapp.com -->
    <title>Manufacturing</title>
    <desc>Created with Sketch.</desc>
    <g id="Page-1" stroke="none" stroke-width="1" fill="none" fill-rule="evenodd">
        <g id="Blog-Detail" transform="translate(-420.000000, -1715.000000)" fill-rule="nonzero">
            <g id="Group-6" transform="translate(391.000000, 1692.000000)">
                <g id="Manufacturing" transform="translate(29.000000, 23.000000)">
                    <path d="M40.0272591,43.8469115 C35.2347766,43.8506997 30.842331,41.1634159 28.6474181,36.8847622 C26.4525052,32.6061085 26.8234831,27.4541436 29.6085385,23.537177 C25.4654887,26.4967901 23.4605068,31.6392822 24.5009872,36.6373162 C25.5414677,41.6353502 29.4299417,45.5403681 34.4066029,46.5850763 C39.383264,47.6297844 44.5036107,45.6159116 47.4503279,41.4548761 C45.2860334,43.0124176 42.689842,43.8490233 40.0272591,43.8469115 Z" id="Path" fill="#D4E1F4"></path>
                    <path d="M69.0785506,37.350354 C68.9589836,37.1312784 68.7543579,36.9717675 68.5133783,36.9097879 C68.2723987,36.8478083 68.0166188,36.8889034 67.806919,37.023292 L59.7254899,42.2022743 C59.4547983,42.3757458 59.2968181,42.6810739 59.3110589,43.0032447 C59.3252998,43.3254154 59.5095982,43.6154834 59.7945306,43.7641827 C60.0794631,43.9128821 60.4217416,43.8976219 60.6924332,43.7241504 L67.1470607,39.5869823 C65.8991649,46.9819604 62.1069797,53.702678 56.4314413,58.5777876 C50.824668,63.4060885 43.7799879,66.1751327 37.1035101,66.1751327 C32.7484453,66.1751327 28.1957976,64.9965664 23.9379514,62.7668584 C19.5174249,60.4487052 15.6833701,57.1458791 12.7290486,53.1110088 C12.5404532,52.8477783 12.2257527,52.7063809 11.9046535,52.7406016 C11.5835543,52.7748224 11.3054104,52.9794015 11.1760227,53.2765207 C11.0466351,53.5736399 11.085891,53.9176311 11.2788583,54.177646 C14.3963044,58.4355629 18.4420666,61.92106 23.1067247,64.3675664 C27.6202753,66.7311681 32.4602348,67.9804425 37.1035101,67.9804425 C44.2027166,67.9804425 51.6738704,65.0528319 57.6015101,59.9483186 C63.4125764,54.9568375 67.3598085,48.1283102 68.7943846,40.5851681 L72.1631822,46.7584248 C72.3175267,47.0412463 72.6103836,47.2198879 72.9314366,47.227057 C73.2524896,47.234226 73.552963,47.0688334 73.7196714,46.7931809 C73.8863799,46.5175283 73.8939963,46.1734941 73.7396518,45.8906726 L69.0785506,37.350354 Z" id="Path" fill="#43D92D"></path>
                    <path d="M14.5487895,24.5511593 C14.4205525,24.3493371 14.2177337,24.2069464 13.984956,24.1553151 C13.7521782,24.1036838 13.5085119,24.1470417 13.3075668,24.2758496 L6.85293927,28.4130177 C8.1007028,21.017823 11.8928993,14.2968726 17.5685587,9.42161062 C23.175332,4.59330973 30.2200121,1.82426549 36.8964899,1.82426549 C41.2515547,1.82426549 45.8042024,3.00283186 50.0620486,5.23253982 C54.4825751,7.55069301 58.3166299,10.8535191 61.2709514,14.8883894 C61.4595468,15.1516199 61.7742473,15.2930174 62.0953465,15.2587966 C62.4164457,15.2245758 62.6945896,15.0199967 62.8239773,14.7228775 C62.9533649,14.4257583 62.914109,14.0817672 62.7211417,13.8217522 C59.6036956,9.56383536 55.5579334,6.07833826 50.8932753,3.63183186 C46.3797247,1.26823009 41.5397652,0.0189557522 36.8964899,0.0189557522 C29.7972834,0.0189557522 22.3261296,2.94656637 16.3984899,8.05107965 C10.5874236,13.0425607 6.64019151,19.871088 5.20561538,27.4142301 L1.83681781,21.2409735 C1.68247329,20.9581519 1.38961637,20.7795103 1.06856341,20.7723413 C0.747510444,20.7651722 0.447037029,20.9305649 0.280328588,21.2062174 C0.113620147,21.4818699 0.106003658,21.8259041 0.260348178,22.1087257 L4.92144939,30.649646 C5.04101642,30.8687216 5.24564207,31.0282325 5.4866217,31.0902121 C5.72760133,31.1521917 5.98338117,31.1110966 6.19308097,30.976708 L14.2745101,25.7977257 C14.4754918,25.6689607 14.6173031,25.4652796 14.6687416,25.231498 C14.7201801,24.9977163 14.6770314,24.7529877 14.5487895,24.5511593 L14.5487895,24.5511593 Z" id="Path" fill="#43D92D"></path>
                    <path d="M61.0538947,29.568115 L56.4811741,29.1256637 C55.9911151,27.1748254 55.209322,25.3099018 54.1624575,23.5944956 L57.0736235,20.0640619 C57.3680743,19.7069803 57.3452814,19.1839349 57.0208947,18.8540531 L52.1205668,13.869292 C51.793076,13.5359753 51.2661699,13.5095166 50.9072065,13.8083628 L47.3857652,16.737177 C45.6768752,15.6906486 43.8229538,14.9043147 41.8844494,14.4038142 L41.4435951,9.82675221 C41.3977604,9.36755812 41.0096727,9.01995166 40.5502024,9.02654867 L33.5133117,9.02654867 C33.0533808,9.01938602 32.6645842,9.36710279 32.6185709,9.82675221 L32.1778664,14.4114867 C30.2354974,14.9020149 28.3785251,15.6858224 26.6704089,16.7361239 L23.1551093,13.8106195 C22.7980968,13.5132676 22.2744219,13.5375764 21.9462429,13.8667345 L16.9831498,18.8504425 C16.6553134,19.1797552 16.6307227,19.7054847 16.9263765,20.0642124 L19.8426356,23.6006637 C18.8005243,25.3168215 18.0175562,27.1786855 17.5192753,29.1255133 L12.9461053,29.568115 C12.4852388,29.6127549 12.1335483,30.0017097 12.1336032,30.466708 L12.1336032,37.533292 C12.1335483,37.9982903 12.4852388,38.3872451 12.9461053,38.431885 L17.5188259,38.8743363 C18.0088849,40.8251746 18.790678,42.6900982 19.8375425,44.4055044 L16.9271255,47.9360885 C16.63138,48.2948411 16.6559725,48.8206762 16.9838988,49.1500088 L21.9469919,54.1346195 C22.2749326,54.4640478 22.7986189,54.4887481 23.1558583,54.1916372 L26.6771498,51.262823 C28.3860863,52.309365 30.2400591,53.0956993 32.1786154,53.5961858 L32.6193198,58.1732478 C32.6653099,58.6326053 33.0536664,58.9802195 33.5133117,58.9734513 L40.5502024,58.9734513 C41.0101297,58.9806795 41.3989215,58.6329088 41.4447935,58.1732478 L41.8856478,53.5885133 C43.8279693,53.097984 45.684892,52.3141761 47.3929555,51.2638761 L50.9078057,54.1893805 C51.2648181,54.4867324 51.7884931,54.4624236 52.1166721,54.1332655 L57.0797652,49.1495575 C57.4075568,48.8202049 57.4320824,48.2944774 57.1363887,47.9357876 L54.2202794,44.3993363 C55.2624171,42.6831202 56.0454337,40.8212103 56.5437895,38.8743363 L61.0549433,38.4323363 C61.5155659,38.3871728 61.8667355,37.998097 61.8663968,37.533292 L61.8663968,30.466708 C61.8664517,30.0017097 61.5147612,29.6127549 61.0538947,29.568115 Z M60.0688259,36.7144336 L55.7287409,37.1397345 C55.3400485,37.1777579 55.0202858,37.4635123 54.9375101,37.8468142 C54.4537095,40.0319289 53.5801987,42.1110907 52.3591943,43.9838142 C52.1466566,44.3146727 52.1721779,44.7457156 52.4222591,45.0489469 L55.2303644,48.4546637 L51.4244575,52.2769558 L48.0339393,49.4570619 C47.7281287,49.2026885 47.2923512,49.1799985 46.9619879,49.4012478 C45.1061025,50.6346738 43.0377439,51.5102293 40.8626802,51.9831416 C40.4828287,52.0593402 40.1971024,52.3757859 40.1586316,52.762885 L39.7333563,57.1681416 L34.3295587,57.1681416 L33.9051822,52.762885 C33.8673236,52.3739471 33.5820991,52.0548878 33.2011336,51.9753186 C31.0253846,51.4911195 28.9548969,50.615311 27.0898421,49.3902655 C26.7599855,49.1773624 26.3307697,49.2037863 26.0292753,49.4555575 L22.6387571,52.2765044 L18.8327004,48.4552655 L21.6405061,45.0504513 C21.8937156,44.743353 21.9163069,44.3057879 21.696081,43.9740354 C20.4680629,42.1100952 19.5962706,40.0328554 19.1252551,37.848469 C19.0423757,37.4648747 18.7221617,37.1790417 18.3331255,37.1413894 L13.9311741,36.713531 L13.9311741,31.286469 L18.3331255,30.8604159 C18.722381,30.8226693 19.0426603,30.5364739 19.1252551,30.1525841 C19.6090557,27.9674693 20.4825665,25.8883075 21.7035709,24.0155841 C21.9161086,23.6847255 21.8905873,23.2536826 21.6405061,22.9504513 L18.8327004,19.5453363 L22.6387571,15.7230442 L26.0292753,18.5429381 C26.3350572,18.7972377 26.7707465,18.8199263 27.1010769,18.5987522 C28.9570309,17.3653526 31.0254333,16.4898001 33.2005344,16.0168584 C33.5804112,15.9407046 33.8661591,15.624235 33.904583,15.237115 L34.3295587,10.8318584 L39.7333563,10.8318584 L40.157583,15.237115 C40.1955344,15.6260119 40.4807167,15.945024 40.8616316,16.0246814 C43.0374156,16.5089172 45.1079461,17.3847223 46.9730729,18.6097345 C47.3029294,18.8226376 47.7321453,18.7962137 48.0336397,18.5444425 L51.4201134,15.7269558 L55.1704453,19.5424779 L52.3593441,22.9512035 C52.1061346,23.2583019 52.0835433,23.6958669 52.3037692,24.0276195 C53.5317873,25.8915597 54.4035796,27.9687994 54.8745951,30.1531858 C54.9571899,30.5370756 55.2774692,30.8232711 55.6667247,30.8610177 L60.0688259,31.286469 L60.0688259,36.7144336 Z" id="Shape" fill="#24527a"></path>
                    <path d="M37.0313077,19.3389292 C28.9689514,19.3390123 22.4331797,25.9030341 22.4332348,34.0001003 C22.43329,42.0971665 28.9691512,48.6610985 37.0315074,48.6610708 C45.0938637,48.6610431 51.6296802,42.0970662 51.6296802,34 C51.6205168,25.9066704 45.0899434,19.3480489 37.0313077,19.3389292 Z M37.0313077,46.8557611 C29.9617224,46.855678 24.2307505,41.0999209 24.2308057,33.9998997 C24.2308608,26.8998785 29.9619221,21.1442112 37.0315074,21.1442389 C44.1010927,21.1442666 49.8321093,26.8999788 49.8321093,34 C49.8241016,41.0967657 44.0976515,46.847802 37.0313077,46.8557611 Z" id="Shape" fill="#24527a"></path>
                    <path d="M37,27.2950796 C38.5711687,27.2968208 39.8444202,28.5755539 39.8461538,30.1534867 C39.8461538,30.6520092 40.2485538,31.0561416 40.7449393,31.0561416 C41.2413248,31.0561416 41.6437247,30.6520092 41.6437247,30.1534867 C41.6407208,27.9269283 40.0733209,26.012009 37.8987854,25.5782301 L37.8987854,24.3265487 C37.8987854,23.8280262 37.4963855,23.4238938 37,23.4238938 C36.5036145,23.4238938 36.1012146,23.8280262 36.1012146,24.3265487 L36.1012146,25.5789823 C33.7572903,26.0441174 32.1473307,28.2195708 32.3796553,30.6077287 C32.61198,32.9958865 34.6107574,34.8172456 37,34.8179558 C38.5467804,34.8452708 39.78859,36.1084153 39.7960827,37.6620769 C39.8035754,39.2157384 38.5740072,40.4909043 37.0275628,40.5332655 C37.0182753,40.5332655 37.0092874,40.5319115 37,40.5319115 C36.9907126,40.5319115 36.9817247,40.5329646 36.9724372,40.5332655 C35.4121636,40.5167847 34.155483,39.2426873 34.1538462,37.6756106 C34.1538462,37.1770881 33.7514462,36.7729558 33.2550607,36.7729558 C32.7586752,36.7729558 32.3562753,37.1770881 32.3562753,37.6756106 C32.3592792,39.902169 33.9266791,41.8170884 36.1012146,42.2508673 L36.1012146,43.6742035 C36.1012146,44.1727261 36.5036145,44.5768584 37,44.5768584 C37.4963855,44.5768584 37.8987854,44.1727261 37.8987854,43.6742035 L37.8987854,42.2508673 C40.2427097,41.7857322 41.8526693,39.6102788 41.6203447,37.2221209 C41.38802,34.833963 39.3892426,33.0126039 37,33.0118938 C35.4281126,33.0118938 34.1538462,31.7321414 34.1538462,30.1534867 C34.1538462,28.5748321 35.4281126,27.2950796 37,27.2950796 Z" id="Path" fill="#24527a"></path>
                </g>
            </g>
        </g>
    </g>
</svg>