<?xml version="1.0" encoding="UTF-8"?>
<svg width="65px" height="71px" viewBox="0 0 65 71" version="1.1" xmlns="http://www.w3.org/2000/svg" xmlns:xlink="http://www.w3.org/1999/xlink">
    <!-- Generator: Sketch 54 (76480) - https://sketchapp.com -->
    <title>UI/UX Designing</title>
    <desc>Created with Sketch.</desc>
    <g id="Page-1" stroke="none" stroke-width="1" fill="none" fill-rule="evenodd">
        <g id="Web-Application-Development" transform="translate(-438.000000, -1357.000000)" fill-rule="nonzero">
            <g id="Group-5" transform="translate(0.000000, 1133.000000)">
                <g id="Group-4" transform="translate(391.000000, 164.000000)">
                    <g id="UI/UX-Designing" transform="translate(47.000000, 60.000000)">
                        <path d="M8.28287844,13.5569213 L5.30122706,13.5569213 C3.38807104,13.5590026 1.83764091,15.1299699 1.83550459,17.0685511 L1.83550459,48.0328596 L4.81715596,48.0328596 L4.81715596,17.0685511 C4.81929228,15.1299699 6.36972241,13.5590026 8.28287844,13.5569213 Z" id="Path" fill="#D4E1F4"/>
                        <path d="M4.81715596,52.9729489 L4.81715596,49.8459277 L1.83550459,49.8459277 L1.83550459,52.9729489 C1.83764075,54.9115546 3.38804692,56.4825652 5.30122706,56.4847298 L8.28287844,56.4847298 C6.3696983,56.4825652 4.81929213,54.9115546 4.81715596,52.9729489 L4.81715596,52.9729489 Z" id="Path" fill="#D4E1F4"/>
                        <path d="M59.6987729,11.7443064 L43.6352752,11.7443064 C43.1412591,11.7443064 42.7407798,12.1501079 42.7407798,12.6506894 C42.7407798,13.1512709 43.1412591,13.5570723 43.6352752,13.5570723 L59.6987729,13.5570723 C61.611929,13.5591537 63.1623591,15.1301209 63.1644954,17.0687021 L63.1644954,48.0330106 L1.83550459,48.0330106 L1.83550459,17.0687021 C1.83764091,15.1301209 3.38807104,13.5591537 5.30122706,13.5570723 L21.3648739,13.5570723 C21.85889,13.5570723 22.2593693,13.1512709 22.2593693,12.6506894 C22.2593693,12.1501079 21.85889,11.7443064 21.3648739,11.7443064 L5.30122706,11.7443064 C2.40054949,11.7476362 0.0498822023,14.1294755 0.0465137615,17.0687021 L0.0465137615,52.9731 C0.0498002232,55.912361 2.40051548,58.294249 5.30122706,58.2974957 L23.264633,58.2974957 L23.264633,69.1485617 L19.099117,69.1485617 C18.6051008,69.1485617 18.2046216,69.5543632 18.2046216,70.0549447 C18.2046216,70.5555262 18.6051008,70.9613277 19.099117,70.9613277 L46.6855046,70.9613277 C47.1795208,70.9613277 47.58,70.5555262 47.58,70.0549447 C47.58,69.5543632 47.1795208,69.1485617 46.6855046,69.1485617 L41.7359633,69.1485617 L41.7359633,58.2974957 L59.6987729,58.2974957 C62.5994845,58.294249 64.9501998,55.912361 64.9534862,52.9731 L64.9534862,17.0687021 C64.9501178,14.1294755 62.5994505,11.7476362 59.6987729,11.7443064 L59.6987729,11.7443064 Z M39.9463761,69.1485617 L25.0530275,69.1485617 L25.0530275,58.2974957 L39.9463761,58.2974957 L39.9463761,69.1485617 Z M59.6987729,56.4847298 L5.30122706,56.4847298 C3.38807104,56.4826485 1.83764091,54.9116812 1.83550459,52.9731 L1.83550459,49.8460787 L63.1644954,49.8460787 L63.1644954,52.9731 C63.1623591,54.9116812 61.611929,56.4826485 59.6987729,56.4847298 L59.6987729,56.4847298 Z" id="Shape" fill="#24527a"/>
                        <g id="Group" transform="translate(9.243119, 0.000000)" fill="#43D92D">
                            <path d="M42.1009174,0.221761702 C40.0371126,0.208004096 38.2414854,1.65026404 37.7836353,3.68943191 L27.7059518,3.68943191 L27.7059518,0.945055319 C27.7059518,0.444473822 27.3054726,0.0386723404 26.8114564,0.0386723404 L19.6058486,0.0386723404 C19.1118324,0.0386723404 18.7113532,0.444473822 18.7113532,0.945055319 L18.7113532,3.68943191 L8.54392202,3.68943191 C8.14949568,1.63438333 6.38253728,0.14424364 4.3165367,0.124325532 C1.93643349,0.12387234 -5.68434189e-14,2.13 -5.68434189e-14,4.59581489 C-5.68434189e-14,7.06162979 1.93643349,9.06730426 4.31668578,9.06730426 C6.38270751,9.04744454 8.14969758,7.55727813 8.5440711,5.50219787 L16.7568807,5.50219787 C12.9251795,7.81404006 10.5817641,12.0030831 10.5923165,16.5218511 C10.5923165,17.0224326 10.9927958,17.428234 11.4868119,17.428234 C11.9808281,17.428234 12.3813073,17.0224326 12.3813073,16.5218511 C12.3702568,12.2144502 14.845256,8.29817755 18.710906,6.50631915 L18.710906,8.2464234 C18.710906,8.7470049 19.1113852,9.15280638 19.6054014,9.15280638 L26.8110092,9.15280638 C27.3050253,9.15280638 27.7055046,8.7470049 27.7055046,8.2464234 L27.7055046,6.46145319 C31.6266664,8.22732055 34.1474599,12.1743271 34.1309633,16.5223043 C34.1309633,17.0228858 34.5314425,17.4286872 35.0254587,17.4286872 C35.5194749,17.4286872 35.9199541,17.0228858 35.9199541,16.5223043 C35.927789,13.7536086 35.0443376,11.0578491 33.4035894,8.84388085 C32.4085115,7.4998726 31.1648651,6.36488983 29.7419725,5.50219787 L37.7834862,5.50219787 C38.2413483,7.54142133 40.0370569,8.98369685 42.1009174,8.96986809 C44.5345413,8.96986809 46.5137615,7.0077 46.5137615,4.59581489 C46.5137615,2.18392979 44.534094,0.221761702 42.1009174,0.221761702 L42.1009174,0.221761702 Z M4.31668578,7.25484043 C2.92291284,7.25484043 1.78899083,6.06143617 1.78899083,4.59611702 C1.78899083,3.13079787 2.92291284,1.93739362 4.31668578,1.93739362 C5.71045872,1.93739362 6.84423165,3.13079787 6.84423165,4.59611702 C6.84423165,6.06143617 5.70986239,7.25484043 4.31668578,7.25484043 Z M20.500344,7.34004043 L20.500344,5.45506596 C20.5622007,5.27141452 20.5640303,5.07245779 20.5055619,4.88767021 C20.5040711,4.88298723 20.5019839,4.87845532 20.500344,4.87377234 L20.500344,1.8514383 L25.916961,1.8514383 L25.916961,4.82331702 C25.9123394,4.83645957 25.9066743,4.84914894 25.9020528,4.86259362 C25.8441562,5.05182253 25.8493957,5.25510827 25.916961,5.44101702 L25.916961,7.34004043 L20.500344,7.34004043 Z M42.1009174,7.15710213 C40.653922,7.15710213 39.4770642,6.00795957 39.4770642,4.59581489 C39.4770642,3.18367021 40.6548165,2.03452766 42.1009174,2.03452766 C43.5470183,2.03452766 44.7247706,3.18351915 44.7247706,4.59581489 C44.7247706,6.00811064 43.5470183,7.15710213 42.1009174,7.15710213 Z" id="Shape"/>
                            <path d="M13.5696445,21.5355085 C13.1591375,20.7226553 12.850481,19.861009 12.6508486,18.9705957 C12.5336831,18.4914493 12.0596633,18.1954133 11.5845889,18.3046925 C11.1095145,18.4139717 10.8080979,18.8883778 10.9065826,19.3718213 C11.1392711,20.4097308 11.4991148,21.4140886 11.9777408,22.3615255 C12.1212884,22.653479 12.4085795,22.8447606 12.7300118,22.8623958 C13.051444,22.8800309 13.357438,22.7212994 13.5312559,22.4467579 C13.7050738,22.1722165 13.7199052,21.8242116 13.5700917,21.5355085 L13.5696445,21.5355085 Z" id="Path"/>
                            <path d="M34.7778326,19.1363128 C34.3053096,18.9904298 33.805536,19.2602746 33.6615023,19.7390574 C33.3986533,20.612504 33.0290955,21.4492362 32.561422,22.2297979 C32.3955905,22.5066095 32.3880964,22.8520398 32.5417625,23.1359685 C32.6954286,23.4198972 32.9869094,23.5991887 33.306407,23.6063058 C33.6259045,23.6134228 33.9248796,23.447284 34.090711,23.1704723 C34.6356759,22.2606618 35.0663785,21.2854514 35.3728211,20.2674787 C35.5167791,19.7886315 35.250396,19.2821957 34.7778326,19.1363128 Z" id="Path"/>
                            <path d="M31.1516972,26.5523383 C31.4976949,26.2737018 31.8291087,25.9769615 32.1445872,25.6633277 C32.3765091,25.4369815 32.4704721,25.1017929 32.3906098,24.7857061 C32.3107475,24.4696193 32.0693861,24.2214205 31.7586553,24.135849 C31.4479245,24.0502776 31.1157837,24.1405411 30.8890138,24.3721851 C30.6488417,24.6119234 30.3962959,24.840483 30.134656,25.0569574 L23.9013647,15.8919149 C23.7332144,15.6446278 23.4551057,15.4977864 23.1587479,15.4998132 C22.8623902,15.50184 22.5862629,15.6524718 22.421422,15.9020362 L16.3756766,25.0539362 C15.9122511,24.6701637 15.4806529,24.2485426 15.0852179,23.7933085 C14.7590849,23.4172884 14.1938752,23.3803605 13.8227867,23.7108277 C13.4516982,24.0412949 13.4152546,24.614016 13.7413876,24.9900362 C14.2393953,25.5634646 14.7866369,26.0909837 15.3766743,26.5663872 L13.579633,29.2867447 C13.4051633,29.55089 13.3799901,29.8883385 13.5132913,30.1760574 L17.698039,39.2140553 C17.4551972,39.3851159 17.312155,39.6673021 17.3163876,39.9669574 L17.3742317,44.7609681 C17.3802718,45.2571786 17.7789873,45.6562101 18.2687271,45.6561723 L18.2745413,45.6561723 L28.5208372,45.5910638 C28.7589862,45.5895534 28.9867089,45.4918746 29.1535487,45.31967 C29.3203885,45.1474654 29.4125696,44.914954 29.4096674,44.6736532 L29.3516743,39.8796426 C29.3479258,39.5747767 29.1929895,39.2922985 28.939461,39.1281 L33.005539,30.052034 C33.1352711,29.76234 33.1056226,29.4249345 32.9274197,29.1630234 L31.1516972,26.5523383 Z M23.2479358,29.8289128 L23.2595642,29.8289128 C24.2612388,29.834264 25.0713648,30.6568701 25.0745568,31.6718656 C25.0777488,32.6868611 24.2728132,33.5146822 23.2711927,33.5265021 L23.2594151,33.5265021 C22.2577517,33.521094 21.4476758,32.6984589 21.4445247,31.6834743 C21.4413737,30.6684897 22.2463258,29.8407066 23.2479358,29.8289128 L23.2479358,29.8289128 Z M19.1523394,43.837817 L19.1167087,40.8975106 C19.1885009,40.8920837 19.2593821,40.8778814 19.3278096,40.8552128 L27.3248968,40.8043043 C27.4055303,40.8302864 27.4894216,40.8444286 27.5740138,40.8463 L27.6094954,43.7840383 L19.1523394,43.837817 Z M27.0349312,38.9933511 L19.593922,39.0407851 L15.3474541,29.8697 L22.2887385,19.3621532 L22.3430046,28.1356383 C20.5851863,28.6024894 19.442938,30.3194508 19.6752254,32.1456896 C19.9075128,33.9719284 21.4420716,35.3393052 23.2592661,35.3392681 L23.2822248,35.3392681 C25.1036939,35.3278529 26.6320128,33.9444736 26.847876,32.111769 C27.0637391,30.2790643 25.8996512,28.5700779 24.1319954,28.1246106 L24.0777294,19.3456872 L29.190367,26.8624723 L31.1666055,29.768034 L27.0349312,38.9933511 Z" id="Shape"/>
                        </g>
                    </g>
                </g>
            </g>
        </g>
    </g>
</svg>