<?xml version="1.0" encoding="UTF-8"?>
<svg width="21px" height="13px" viewBox="0 0 21 13" version="1.1" xmlns="http://www.w3.org/2000/svg" xmlns:xlink="http://www.w3.org/1999/xlink">
    <!-- Generator: Sketch 54 (76480) - https://sketchapp.com -->
    <title>united-kingdom</title>
    <desc>Created with Sketch.</desc>
    <g id="Page-1" stroke="none" stroke-width="1" fill="none" fill-rule="evenodd">
        <g id="Contact-Us" transform="translate(-1197.000000, -987.000000)" fill-rule="nonzero">
            <g id="Group-4" transform="translate(1169.000000, 943.000000)">
                <g id="united-kingdom" transform="translate(28.000000, 44.000000)">
                    <path d="M20.5976842,12.9893601 L0.361380117,12.9893601 C0.161818713,12.9893601 0,12.8364167 0,12.6478006 L0,0.352238095 C0,0.163622024 0.161818713,0.0106785714 0.361380117,0.0106785714 L20.5977251,0.0106785714 C20.7972865,0.0106785714 20.9591053,0.163622024 20.9591053,0.352238095 L20.9591053,12.6478006 C20.9590643,12.8364167 20.7972456,12.9893601 20.5976842,12.9893601 Z" id="Path" fill="#41479B"></path>
                    <path d="M20.9590643,0.352238095 C20.9590643,0.163622024 20.7972456,0.0106785714 20.5976842,0.0106785714 L18.9809298,0.0106785714 L12.2863099,4.15624702 L12.2863099,0.0106785714 L8.67267251,0.0106785714 L8.67267251,4.15624702 L1.97809357,0.0106785714 L0.361380117,0.0106785714 C0.161818713,0.0106785714 0,0.163622024 0,0.352238095 L0,1.23558036 L5.74364327,4.79227976 L0,4.79227976 L0,8.20772024 L5.74364327,8.20772024 L0,11.7644583 L0,12.6478006 C0,12.8364167 0.161818713,12.9893601 0.361380117,12.9893601 L1.9781345,12.9893601 L8.67275439,8.84379167 L8.67275439,12.9893601 L12.2863918,12.9893601 L12.2863918,8.84379167 L18.9810117,12.9893601 L20.5977661,12.9893601 C20.7973275,12.9893601 20.9591462,12.8364167 20.9591462,12.6478006 L20.9591462,11.7644583 L15.2155029,8.20775893 L20.9590643,8.20775893 L20.9590643,4.79231845 L15.2154211,4.79231845 L20.9590643,1.23558036 L20.9590643,0.352238095 Z" id="Path" fill="#F5F5F5"></path>
                    <g id="Group" fill="#FF4B55">
                        <polygon id="Path" points="20.9590643 5.47539881 11.5636316 5.47539881 11.5636316 0.0106785714 9.39543275 0.0106785714 9.39543275 5.47539881 0 5.47539881 0 7.52463988 9.39543275 7.52463988 9.39543275 12.9893601 11.5636316 12.9893601 11.5636316 7.52463988 20.9590643 7.52463988"></polygon>
                        <path d="M7.32535673,8.20772024 L0.0102339181,12.6956994 C0.0358187135,12.8606369 0.179707602,12.9893601 0.361339181,12.9893601 L0.859076023,12.9893601 L8.65281871,8.20772024 L7.32535673,8.20775893 L7.32535673,8.20772024 Z" id="Path"></path>
                        <path d="M14.1796257,8.20772024 L12.8521637,8.20772024 L20.6345673,12.9822798 C20.8159532,12.9640179 20.9591053,12.8240357 20.9591053,12.6477619 L20.9591053,12.3669464 L14.1796257,8.20772024 Z" id="Path"></path>
                        <path d="M0,0.729276786 L6.62253216,4.79231845 L7.94999415,4.79231845 L0.210532164,0.0439910714 C0.0869064327,0.0982738095 0,0.214925595 0,0.352238095 L0,0.729276786 Z" id="Path"></path>
                        <path d="M13.6138129,4.79231845 L20.9464971,0.293505952 C20.9160409,0.13402381 20.7752222,0.0107172619 20.5976842,0.0107172619 L20.0799708,0.0107172619 L12.2863509,4.79231845 L13.6138129,4.79231845 Z" id="Path"></path>
                    </g>
                </g>
            </g>
        </g>
    </g>
</svg>