<?xml version="1.0" encoding="UTF-8"?>
<svg width="74px" height="66px" viewBox="0 0 74 66" version="1.1" xmlns="http://www.w3.org/2000/svg" xmlns:xlink="http://www.w3.org/1999/xlink">
    <!-- Generator: Sketch 54 (76480) - https://sketchapp.com -->
    <title>User Interface</title>
    <desc>Created with Sketch.</desc>
    <g id="Page-1" stroke="none" stroke-width="1" fill="none" fill-rule="evenodd">
        <g id="eCommerce" transform="translate(-1023.000000, -2594.000000)" fill-rule="nonzero">
            <g id="Group-5" transform="translate(391.000000, 2423.000000)">
                <g id="Group-4" transform="translate(585.000000, 114.000000)">
                    <g id="User-Interface" transform="translate(47.000000, 57.000000)">
                        <path d="M72.8186615,58.8633313 L15.2243219,58.8633313 C10.6958579,58.8583734 7.02585488,55.1514924 7.02149168,50.5780749 L7.02149168,1.20532853 C7.02203718,0.819711538 7.04930716,0.434645397 7.10221115,0.0523337692 C3.05533602,0.631310026 0.0458136792,4.12775437 0.0403596,8.25661058 L0.0403596,57.6293569 C0.0447228075,62.2027745 3.71472586,65.9096554 8.24318979,65.9146133 L65.8375294,65.9146133 C69.9253095,65.9096554 73.386424,62.8693409 73.9596404,58.78125 C73.5811321,58.8357873 73.2004423,58.8622296 72.8186615,58.8633313 Z" id="Path" fill="#D4E1F4"/>
                        <path d="M74,8.29682488 L74,57.6695714 C73.9950914,62.2440906 70.3250885,65.9509716 65.7971698,65.9548278 L8.20283019,65.9548278 C3.67491149,65.9509716 0.00490860151,62.2440906 0,57.6695714 L0,8.29682488 C0.00490860151,3.72340749 3.67491149,0.0165265128 8.20283019,0.0115684744 L65.7971698,0.0115684744 C70.3250885,0.0165265128 73.9950914,3.72340749 74,8.29682488 Z M71.5566038,57.6695714 L71.5566038,19.7711337 L2.44339623,19.7711337 L2.44339623,57.6695714 C2.4466687,60.8812099 5.02314262,63.4841246 8.20283019,63.4868791 L65.7971698,63.4868791 C68.9768574,63.4841246 71.5533313,60.8812099 71.5566038,57.6695714 Z M71.5566038,17.303185 L71.5566038,8.29682488 C71.5533313,5.08518633 68.9768574,2.4833734 65.7971698,2.47951719 L8.20283019,2.47951719 C5.02314262,2.4833734 2.4466687,5.08518633 2.44339623,8.29682488 L2.44339623,17.303185 L71.5566038,17.303185 Z" id="Shape" fill="#24527a"/>
                        <g id="Group" transform="translate(5.026415, 5.923077)" fill="#43D92D">
                            <path d="M48.1507223,23.1717248 C46.3034492,23.1629107 44.6623378,24.3632812 44.0945755,26.1382212 L36.2462558,26.1382212 L36.2462558,24.2486978 C36.2462558,23.5672576 35.6992188,23.0147235 35.0245577,23.0147235 L28.8386203,23.0147235 C28.1645047,23.0147235 27.6169222,23.5672576 27.6169222,24.2486978 L27.6169222,26.1382212 L19.6971551,26.1382212 C19.0912146,24.1021635 17.0983196,22.8224659 15.0159788,23.1320613 C12.9336379,23.4411058 11.3901533,25.2463441 11.3901533,27.3721955 C11.3901533,29.4985978 12.9336379,31.3032853 15.0159788,31.6134315 C17.0983196,31.922476 19.0912146,30.6422276 19.6971551,28.6061699 L24.3679688,28.6061699 C22.0756486,30.7402844 20.7737765,33.7453425 20.7759581,36.8936298 L20.7759581,41.7821515 L19.1179392,41.7821515 C18.4427329,41.7821515 17.8962411,42.3341346 17.8962411,43.0161259 L17.8962411,49.2631209 C17.8962411,49.9445613 18.4427329,50.4970953 19.1179392,50.4970953 L25.3044222,50.4970953 C25.9796285,50.4970953 26.5261203,49.9445613 26.5261203,49.2631209 L26.5261203,43.0161259 C26.5261203,42.3341346 25.9796285,41.7821515 25.3044222,41.7821515 L23.2193543,41.7821515 L23.2193543,36.8936298 C23.2166274,33.7299178 24.8953715,30.8096955 27.6169222,29.2446415 L27.6169222,30.496244 C27.6169222,31.1776843 28.1645047,31.7302184 28.8386203,31.7302184 L35.0245577,31.7302184 C35.6992188,31.7302184 36.2462558,31.1776843 36.2462558,30.496244 L36.2462558,29.2429888 C38.9721698,30.8041868 40.6541863,33.7282652 40.6460053,36.8936298 L40.6460053,41.7821515 L38.5598467,41.7821515 C37.8857311,41.7821515 37.3381486,42.3341346 37.3381486,43.0161259 L37.3381486,49.2631209 C37.3381486,49.9445613 37.8857311,50.4970953 38.5598467,50.4970953 L44.7457841,50.4970953 C45.4204452,50.4970953 45.9674822,49.9445613 45.9674822,49.2631209 L45.9674822,43.0161259 C45.9674822,42.3341346 45.4204452,41.7821515 44.7457841,41.7821515 L43.0894015,41.7821515 L43.0894015,36.8936298 C43.0964917,33.7458934 41.7968013,30.7402844 39.5061174,28.6061699 L44.0945755,28.6061699 C44.6896079,30.7325721 46.7921285,32.0491786 48.9415537,31.6431791 C51.0920696,31.2366286 52.5810142,29.2418869 52.3748527,27.0422175 C52.1697819,24.8430989 50.3377801,23.1640124 48.1507223,23.1717248 Z M15.7124557,29.1901042 C14.9778008,29.2248097 14.2949587,28.8039363 13.9895341,28.126903 C13.6841096,27.4509716 13.8171876,26.6538462 14.3255011,26.1161859 C14.8343603,25.5785256 15.6148291,25.4072015 16.2987618,25.683744 C16.9816038,25.9597356 17.4299234,26.6285055 17.4304688,27.3721955 C17.4517395,28.3527644 16.6832694,29.1658654 15.7124557,29.1901042 Z M24.0827241,44.2501002 L24.0827241,48.0291466 L20.3396373,48.0291466 L20.3396373,44.2501002 L24.0827241,44.2501002 Z M33.8028596,26.9474659 C33.8017689,26.9524239 33.8006781,26.95628 33.7995873,26.9595854 C33.7210495,27.2074819 33.7221404,27.4741085 33.8028596,27.7214543 L33.8028596,29.2622697 L30.0603184,29.2622697 L30.0603184,25.4826722 L33.8028596,25.4826722 L33.8028596,26.9474659 Z M43.524086,44.2501002 L43.524086,48.0291466 L39.7815448,48.0291466 L39.7815448,44.2501002 L43.524086,44.2501002 Z M48.1507223,29.1052684 C47.2131781,29.0600962 46.4861586,28.2640726 46.5161557,27.3171074 C46.5456074,26.3701422 47.3217128,25.623147 48.2598024,25.63747 C49.1973467,25.6528947 49.95,26.4252303 49.95,27.3721955 C49.9249115,28.3522136 49.1204452,29.1267528 48.1507223,29.1052684 Z" id="Shape"/>
                            <path d="M27.7150943,7.98006818 L27.7276386,7.98006818 C29.8574292,7.97896635 31.5858048,6.23928292 31.5928951,4.08698922 L31.5928951,4.07486976 C31.5907134,1.92367788 29.8677919,0.17958741 27.7380011,0.170222321 L27.7276386,0.170222321 C25.5923939,0.166917103 23.8585642,1.91266026 23.8552919,4.06881003 C23.8520194,6.22551078 25.5803951,7.97621197 27.7150943,7.98006818 Z M27.7276386,2.63817104 L27.7309109,2.63817104 C28.5162883,2.63927287 29.1527712,3.28380405 29.151135,4.07707328 C29.1505896,4.87034251 28.513016,5.51267031 27.7276386,5.51211946 L27.7221845,5.51211946 C26.9368072,5.51046678 26.3008697,4.86593546 26.3019605,4.07266623 C26.3035967,3.27884615 26.9417159,2.63706935 27.7276386,2.63817104 Z" id="Shape"/>
                            <path d="M15.8597141,0.133313231 L15.8471698,0.133313231 C13.7124706,0.130008013 11.978641,1.87520032 11.9748231,4.03190108 C11.9715508,6.18805085 13.6999263,7.93930288 15.8351709,7.9426081 L15.8471698,7.9426081 C17.9764151,7.94040472 19.7042453,6.201272 19.7129717,4.05063097 L19.7129717,4.03851165 C19.7124263,1.88621795 17.9895047,0.141025641 15.8597141,0.133313231 Z M15.8471698,5.47465938 L15.843352,5.47465938 C15.0579746,5.47410854 14.4220372,4.82957736 14.4231279,4.03630813 C14.4236734,3.2430389 15.0612471,2.6007111 15.8471698,2.60126195 L15.8520784,2.60126195 C16.6380011,2.60236378 17.2739387,3.2468951 17.2723024,4.04016433 C17.2706662,4.83453526 16.6325472,5.47631206 15.8471698,5.47465938 Z" id="Shape"/>
                            <path d="M3.98088152,0.0947516026 L3.96833726,0.0947516026 C1.8336379,0.0914463846 0.0998084075,1.83663869 0.095990566,3.99444114 C0.0927180906,6.1511419 1.82109378,7.90184295 3.95633851,7.90569915 L3.96833726,7.90569915 C6.10467272,7.90900437 7.83850236,6.16326122 7.84177469,4.00656046 C7.84504717,1.84930886 6.11667162,0.0980568205 3.98088152,0.0947516026 Z M3.96833726,5.43775044 L3.96397406,5.43775044 C3.17750583,5.43609776 2.5415684,4.79156644 2.54320463,3.99774636 C2.54429537,3.20392628 3.18241454,2.56104764 3.96833726,2.56270032 L3.97379134,2.56270032 C4.76025943,2.56380215 5.396197,3.20833333 5.39510613,4.00270426 C5.39346989,4.79652447 4.75480549,5.43885213 3.96833726,5.43775044 Z" id="Shape"/>
                        </g>
                    </g>
                </g>
            </g>
        </g>
    </g>
</svg>