<svg color="#4169E1" data-icon="area-chart" fill="#4169E1" height="300" viewBox="0 0 16 16" width="300" xmlns="http://www.w3.org/2000/svg">
  <desc>
    dynamic
  </desc>
  <g stroke-width="1">
    <g transform="">
      <path d="M1 1V15H15V14H2V1H1Z" fill="currentColor" fill-opacity="0.3"/>
      <path d="M3.5 8.11439V12.25C3.5 12.3881 3.61193 12.5 3.75 12.5H14.75C14.8881 12.5 15 12.3881 15 12.25V3.54937C15 3.33484 14.7475 3.21995 14.5858 3.36087L9.41092 7.86927C9.3231 7.94578 9.19408 7.95151 9.09982 7.88308L6.2908 5.8437C6.19686 5.7755 6.06832 5.78094 5.98048 5.85684L3.58655 7.92522C3.53159 7.9727 3.5 8.04175 3.5 8.11439Z" fill="currentColor" fill-opacity="0.3"/>
      <path clip-rule="evenodd" d="M4.5 11.5H14V5.19749L10.0678 8.62326C9.6287 9.00582 8.98359 9.03445 8.51232 8.6923L6.1844 7.00221L4.5 8.45755V11.5ZM14.5858 3.36087C14.7475 3.21995 15 3.33484 15 3.54937V12.25C15 12.3881 14.8881 12.5 14.75 12.5H3.75C3.61193 12.5 3.5 12.3881 3.5 12.25V8.11439C3.5 8.04175 3.53159 7.9727 3.58655 7.92522L5.98048 5.85684C6.06832 5.78094 6.19686 5.7755 6.2908 5.8437L9.09982 7.88308C9.19408 7.95151 9.3231 7.94578 9.41092 7.86927L14.5858 3.36087ZM1 1H2V14H15V15H1V1Z" fill="currentColor" fill-rule="evenodd"/>
    </g>
  </g>
</svg>