<svg color="#717a94" data-icon="line-chart" fill="#717a94" height="300" viewBox="0 0 16 16" width="300" xmlns="http://www.w3.org/2000/svg">
  <desc>
    dynamic
  </desc>
  <g stroke-width="1">
    <g transform="">
      <path clip-rule="evenodd" d="M1 1H2V14H15V15H1V1ZM13.9779 2.14704C14.0591 1.88311 13.911 1.60332 13.647 1.52211C13.3831 1.4409 13.1033 1.58903 13.0221 1.85296L11.3891 7.16019L9.96954 4.32104C9.75974 3.90145 9.14539 3.95229 9.00743 4.40067L7.36152 9.74988L5.95467 7.28789C5.73878 6.91008 5.18199 6.94872 5.02038 7.35276L3.03576 12.3143C2.9332 12.5707 3.05791 12.8617 3.3143 12.9642C3.5707 13.0668 3.86168 12.9421 3.96424 12.6857L5.57965 8.64717L7.04297 11.208C7.26883 11.6032 7.85759 11.538 7.99147 11.1029L9.61089 5.83981L11.0305 8.67896C11.2403 9.09857 11.8546 9.0477 11.9926 8.59933L13.9779 2.14704Z" fill="currentColor" fill-rule="evenodd"/>
    </g>
  </g>
</svg>