<svg
    color="#717a94"
    data-icon="map-legend"
    fill="#717a94"
    height="24"
    viewBox="0 0 16 16"
    width="24"
>
    <desc>dynamic</desc>
    <g strokeWidth="1">
        <g transform="">
            <path
                clipRule="evenodd"
                d="M1 3.5A1.5 1.5 0 0 1 2.5 2h2A1.5 1.5 0 0 1 6 3.5v2A1.5 1.5 0 0 1 4.5 7h-2A1.5 1.5 0 0 1 1 5.5v-2ZM2.5 3a.5.5 0 0 0-.5.5v2a.5.5 0 0 0 .5.5h2a.5.5 0 0 0 .5-.5v-2a.5.5 0 0 0-.5-.5h-2ZM15 5H7V4h8v1ZM1 10.5A1.5 1.5 0 0 1 2.5 9h2A1.5 1.5 0 0 1 6 10.5v2A1.5 1.5 0 0 1 4.5 14h-2A1.5 1.5 0 0 1 1 12.5v-2Zm1.5-.5a.5.5 0 0 0-.5.5v2a.5.5 0 0 0 .5.5h2a.5.5 0 0 0 .5-.5v-2a.5.5 0 0 0-.5-.5h-2ZM7 12v-1h8v1H7Z"
                fill="currentColor"
                fillRule="evenodd"
            ></path>
        </g>
    </g>
</svg>