<?xml version="1.0" encoding="UTF-8" standalone="no"?>
<svg
   color="#717a94"
   data-icon="pie-chart"
   fill="#717a94"
   height="24"
   viewBox="0 0 16 16"
   width="24"
   version="1.1"
   id="svg2"
   sodipodi:docname="pieChart 2.svg"
   inkscape:version="1.3.2 (091e20e, 2023-11-25, custom)"
   xmlns:inkscape="http://www.inkscape.org/namespaces/inkscape"
   xmlns:sodipodi="http://sodipodi.sourceforge.net/DTD/sodipodi-0.dtd"
   xmlns="http://www.w3.org/2000/svg"
   xmlns:svg="http://www.w3.org/2000/svg">
  <defs
     id="defs2" />
  <sodipodi:namedview
     id="namedview2"
     pagecolor="#ffffff"
     bordercolor="#000000"
     borderopacity="0.25"
     inkscape:showpageshadow="2"
     inkscape:pageopacity="0.0"
     inkscape:pagecheckerboard="0"
     inkscape:deskcolor="#d1d1d1"
     inkscape:zoom="33.916667"
     inkscape:cx="11.985258"
     inkscape:cy="12"
     inkscape:window-width="2048"
     inkscape:window-height="1010"
     inkscape:window-x="-6"
     inkscape:window-y="-6"
     inkscape:window-maximized="1"
     inkscape:current-layer="svg2" />
  <desc
     id="desc1">
    dynamic
  </desc>
  <g
     stroke-width="1"
     id="g2">
    <g
       transform=""
       id="g1">
      <path
         clip-rule="evenodd"
         d="M1 8.985a7 7 0 1 1 14 0 7 7 0 0 1-14 0Zm6.5-5.98a6 6 0 1 0 4.374 10.561l-1.931-1.931A3.286 3.286 0 1 1 7.5 5.737V3.005Zm1 0v2.732c.836.128 1.569.57 2.072 1.203l2.545-1.09A5.999 5.999 0 0 0 8.5 3.005Zm5.068 3.74-2.497 1.07c.139.363.215.758.215 1.17a3.27 3.27 0 0 1-.636 1.943l1.931 1.931A5.976 5.976 0 0 0 14 8.985c0-.792-.153-1.548-.432-2.24ZM8 6.699a2.286 2.286 0 1 0 0 4.572 2.286 2.286 0 0 0 0-4.572Z"
         fill="currentColor"
         fill-rule="evenodd"
         id="path1" />
    </g>
  </g>
  <path
     style="fill:#60acbc;stroke-width:0.029484"
     d="M 11.041769,22.408311 C 9.3566497,22.223922 7.7450931,21.561965 6.4127764,20.506925 6.0179726,20.194286 5.2821024,19.459142 4.9746385,19.070206 3.9719719,17.801851 3.3621641,16.387503 3.1023073,14.727643 c -0.052129,-0.332978 -0.062625,-0.53398 -0.063912,-1.223957 -10e-4,-0.536809 0.012217,-0.92352 0.037793,-1.105652 C 3.3192071,10.667433 3.9296925,9.2117018 4.9679755,7.8869779 5.1014287,7.7167076 5.4247152,7.3647301 5.6863899,7.1048057 6.9277931,5.8717061 8.425363,5.0577255 10.128933,4.6901314 c 0.297088,-0.064105 0.953657,-0.1643329 1.076508,-0.1643329 0.03689,0 0.04272,0.2774947 0.04272,2.0330621 v 2.0330619 l -0.110565,0.018657 C 10.080056,8.789028 9.0227931,9.3821954 8.2946635,10.20558 c -0.5899498,0.667129 -0.9777671,1.471463 -1.1637323,2.413585 -0.082656,0.418745 -0.075533,1.338247 0.013802,1.781599 0.3111108,1.543985 1.2723774,2.810655 2.6529783,3.495857 0.1734227,0.08607 0.4115325,0.190703 0.5291315,0.232517 1.463871,0.520492 3.160105,0.313273 4.415176,-0.539374 l 0.176904,-0.120182 1.437338,1.437078 c 1.349096,1.348852 1.433969,1.439801 1.382457,1.481426 -1.460335,1.180002 -3.09497,1.856624 -4.910911,2.032763 -0.421394,0.04087 -1.358002,0.0343 -1.786034,-0.01254 z"
     id="path2"
     transform="scale(0.66666667)" />
</svg>
