<svg color="#717a94" data-icon="pie-chart" fill="#717a94" height="300" viewBox="0 0 16 16" width="300" xmlns="http://www.w3.org/2000/svg">
  <desc>
    dynamic
  </desc>
  <g stroke-width="1">
    <g transform="">
      <path clip-rule="evenodd" d="M1 8.985a7 7 0 1 1 14 0 7 7 0 0 1-14 0Zm6.5-5.98a6 6 0 1 0 4.374 10.561l-1.931-1.931A3.286 3.286 0 1 1 7.5 5.737V3.005Zm1 0v2.732c.836.128 1.569.57 2.072 1.203l2.545-1.09A5.999 5.999 0 0 0 8.5 3.005Zm5.068 3.74-2.497 1.07c.139.363.215.758.215 1.17a3.27 3.27 0 0 1-.636 1.943l1.931 1.931A5.976 5.976 0 0 0 14 8.985c0-.792-.153-1.548-.432-2.24ZM8 6.699a2.286 2.286 0 1 0 0 4.572 2.286 2.286 0 0 0 0-4.572Z" fill="currentColor" fill-rule="evenodd"/>
    </g>
  </g>
</svg>