<svg color="#FF69B4" data-icon="scatter-chart" fill="#FF69B4" height="300" viewBox="0 0 16 16" width="300" xmlns="http://www.w3.org/2000/svg">
  <desc>
    dynamic
  </desc>
  <g stroke-width="1">
    <g transform="">
      <path d="M1 1H2V14H15V15H1V1Z" fill="currentColor"/>
      <path d="M3.75 12.5C4.16421 12.5 4.5 12.1642 4.5 11.75C4.5 11.3358 4.16421 11 3.75 11C3.33579 11 3 11.3358 3 11.75C3 12.1642 3.33579 12.5 3.75 12.5Z" fill="currentColor"/>
      <path d="M5.5 7.75C5.5 8.16421 5.16421 8.5 4.75 8.5C4.33579 8.5 4 8.16421 4 7.75C4 7.33579 4.33579 7 4.75 7C5.16421 7 5.5 7.33579 5.5 7.75Z" fill="currentColor"/>
      <path d="M7.75 9.5C8.16421 9.5 8.5 9.16421 8.5 8.75C8.5 8.33579 8.16421 8 7.75 8C7.33579 8 7 8.33579 7 8.75C7 9.16421 7.33579 9.5 7.75 9.5Z" fill="currentColor"/>
      <path d="M6.5 9.75C6.5 10.1642 6.16421 10.5 5.75 10.5C5.33579 10.5 5 10.1642 5 9.75C5 9.33579 5.33579 9 5.75 9C6.16421 9 6.5 9.33579 6.5 9.75Z" fill="currentColor"/>
      <path d="M6.75 6.5C7.16421 6.5 7.5 6.16421 7.5 5.75C7.5 5.33579 7.16421 5 6.75 5C6.33579 5 6 5.33579 6 5.75C6 6.16421 6.33579 6.5 6.75 6.5Z" fill="currentColor"/>
      <path d="M8.5 11.25C8.5 11.6642 8.16421 12 7.75 12C7.33579 12 7 11.6642 7 11.25C7 10.8358 7.33579 10.5 7.75 10.5C8.16421 10.5 8.5 10.8358 8.5 11.25Z" fill="currentColor"/>
      <path d="M10.75 8.5C11.1642 8.5 11.5 8.16421 11.5 7.75C11.5 7.33579 11.1642 7 10.75 7C10.3358 7 10 7.33579 10 7.75C10 8.16421 10.3358 8.5 10.75 8.5Z" fill="currentColor"/>
      <path d="M9.5 6.75C9.5 7.16421 9.16421 7.5 8.75 7.5C8.33579 7.5 8 7.16421 8 6.75C8 6.33579 8.33579 6 8.75 6C9.16421 6 9.5 6.33579 9.5 6.75Z" fill="currentColor"/>
      <path d="M11.75 3.5C12.1642 3.5 12.5 3.16421 12.5 2.75C12.5 2.33579 12.1642 2 11.75 2C11.3358 2 11 2.33579 11 2.75C11 3.16421 11.3358 3.5 11.75 3.5Z" fill="currentColor"/>
      <path d="M14.5 1.75C14.5 2.16421 14.1642 2.5 13.75 2.5C13.3358 2.5 13 2.16421 13 1.75C13 1.33579 13.3358 1 13.75 1C14.1642 1 14.5 1.33579 14.5 1.75Z" fill="currentColor"/>
      <path d="M11.75 6.5C12.1642 6.5 12.5 6.16421 12.5 5.75C12.5 5.33579 12.1642 5 11.75 5C11.3358 5 11 5.33579 11 5.75C11 6.16421 11.3358 6.5 11.75 6.5Z" fill="currentColor"/>
      <path d="M14 4.25C14 4.66421 13.6642 5 13.25 5C12.8358 5 12.5 4.66421 12.5 4.25C12.5 3.83579 12.8358 3.5 13.25 3.5C13.6642 3.5 14 3.83579 14 4.25Z" fill="currentColor"/>
      <path d="M9.75 4.5C10.1642 4.5 10.5 4.16421 10.5 3.75C10.5 3.33579 10.1642 3 9.75 3C9.33579 3 9 3.33579 9 3.75C9 4.16421 9.33579 4.5 9.75 4.5Z" fill="currentColor"/>
    </g>
  </g>
</svg>