<svg color="#717a94" data-icon="table-cell-icon" fill="#717a94" height="300" viewBox="0 0 16 16" width="300" xmlns="http://www.w3.org/2000/svg">
  <desc>
    dynamic
  </desc>
  <g stroke-width="1">
    <g transform="">
      <path clip-rule="evenodd" d="M2.5 2a.5.5 0 0 0-.5.5V5h3V2H2.5ZM6 2v3h8V2.5a.5.5 0 0 0-.5-.5H6Zm8 4H6v8h7.5a.5.5 0 0 0 .5-.5V6Zm-9 8V6H2v7.5a.5.5 0 0 0 .5.5H5ZM1.44 1.44A1.5 1.5 0 0 1 2.5 1h11A1.5 1.5 0 0 1 15 2.5v11a1.5 1.5 0 0 1-1.5 1.5h-11A1.5 1.5 0 0 1 1 13.5v-11c0-.398.158-.78.44-1.06Z" fill="currentColor" fill-rule="evenodd"/>
    </g>
  </g>
</svg>
