<?xml version="1.0" encoding="UTF-8"?>
<svg width="63px" height="76px" viewBox="0 0 63 76" version="1.1" xmlns="http://www.w3.org/2000/svg" xmlns:xlink="http://www.w3.org/1999/xlink">
    <!-- Generator: Sketch 54 (76480) - https://sketchapp.com -->
    <title>CMS Integration</title>
    <desc>Created with Sketch.</desc>
    <g id="Page-1" stroke="none" stroke-width="1" fill="none" fill-rule="evenodd">
        <g id="eCommerce" transform="translate(-809.000000, -1263.000000)" fill-rule="nonzero">
            <g id="Group-15" transform="translate(0.000000, 1009.000000)">
                <g id="Group-4" transform="translate(781.000000, 195.000000)">
                    <g id="CMS-Integration" transform="translate(28.000000, 59.000000)">
                        <path d="M51.5259424,33.5234509 L20.7530606,33.5234509 C17.7831911,33.5198863 15.376039,31.1041487 15.3719797,28.1236867 L15.3719797,0.663003925 C12.6030445,0.91965058 10.482579,3.24983926 10.4800419,6.0408716 L10.4800419,33.0325632 C10.4830863,36.0135346 12.8902384,38.4292721 15.8606153,38.4323274 L51.6375725,38.4323274 L51.5259424,33.5234509 Z" id="Path" fill="#D4E1F4"/>
                        <path d="M53.7438306,4.39049106 L53.7438306,35.0175011 C53.7412935,37.4413862 51.7842139,39.405446 49.3689433,39.407992 L29.9244926,39.407992 L29.9244926,38.3136792 L27.6558634,38.3136792 L27.6558634,39.407992 L13.7208682,39.407992 C11.3055976,39.405446 9.34851804,37.4413862 9.34598102,35.0175011 L9.34598102,4.39049106 C9.34851804,1.96660598 11.3055976,0.00254609125 13.7208682,2.84217094e-14 L49.3689433,2.84217094e-14 C51.7842139,0.00254609125 53.7412935,1.96660598 53.7438306,4.39049106 Z M51.4757088,35.0175011 L51.4757088,12.3913487 L11.6141027,12.3913487 L11.6141027,35.0175011 C11.615625,36.1846323 12.557885,37.130253 13.7208682,37.1317807 L49.3689433,37.1317807 C50.5319265,37.130253 51.4741865,36.1846323 51.4757088,35.0175011 Z M51.4757088,10.114628 L51.4757088,4.39049106 C51.4741865,3.22386903 50.5319265,2.27773903 49.3689433,2.27672066 L13.7208682,2.27672066 C12.557885,2.27773903 11.615625,3.22386903 11.6141027,4.39049106 L11.6141027,10.114628 L51.4757088,10.114628 Z" id="Shape" fill="#24527a"/>
                        <polygon id="Path" fill="#0635C9" points="27.6558634 38.3136792 29.9244926 38.3136792 29.9244926 39.407992 27.6558634 39.407992"/>
                        <g id="Group" transform="translate(0.000000, 3.389365)" fill="#43D92D">
                            <path d="M62.9040996,55.67552 C62.9030847,55.3730435 62.7813063,55.0832976 62.566672,54.8709531 L55.6384987,47.9969983 C55.4517719,47.8136792 55.2082152,47.6991049 54.947914,47.6736438 L54.8038096,47.6604042 C54.7662612,47.6573488 54.7256685,47.6553119 54.6921795,47.6553119 L50.3670184,47.6766992 L50.3670184,44.7023477 C50.3639739,42.2789719 48.4068943,40.314912 45.9921311,40.3113476 L29.9244926,40.3113476 L29.9244926,36.0186267 L27.6558634,36.0186267 L27.6558634,40.3113476 L11.5882249,40.3113476 C9.17346169,40.314912 7.21638215,42.2789719 7.21333763,44.7023477 L7.21333763,47.8472877 L3.95475187,47.8635827 C1.82058634,47.8742764 0.0989449423,49.6193717 0.109600515,51.7611492 L0.207023196,68.6865888 C0.218186276,70.8197095 1.94388695,72.5439269 4.06993392,72.5454545 L4.0876933,72.5454545 L17.9775291,72.4787468 C19.0030042,72.474673 19.9838273,72.0611867 20.7053641,71.3299474 C21.4263934,70.5987082 21.828262,69.6098038 21.8226804,68.5806712 L21.7465689,55.9535538 L21.7465689,55.837961 C21.7455541,55.5359937 21.6237758,55.2462479 21.4091414,55.033394 L14.4809681,48.1594394 C14.2942413,47.9761203 14.0506846,47.8615459 13.7903833,47.8365941 L13.6462791,47.8228451 C13.6087307,47.8197899 13.5681379,47.817753 13.5346488,47.817753 L9.48196685,47.8376126 L9.48196685,44.7023477 C9.48399649,43.5357258 10.4257491,42.5901051 11.5882249,42.5880681 L45.9921311,42.5880681 C47.1551143,42.5901051 48.0968669,43.5357258 48.0988966,44.7023477 L48.0988966,47.6863744 L45.1122826,47.7011418 C42.9781169,47.7118353 41.2564755,49.4569308 41.2671311,51.5987082 L41.3645538,68.5241478 C41.3752095,70.6572684 43.1014175,72.3809766 45.2274646,72.3830135 L45.2452239,72.3830135 L59.1350596,72.3163058 C60.1605348,72.3117227 61.1413579,71.8982365 61.8628947,71.1669972 C62.583924,70.4362671 62.9857925,69.4468536 62.980211,68.4177209 L62.9040996,55.7911127 L62.9040996,55.67552 Z M17.8785841,54.7309177 L16.4253625,54.7390652 L16.4182587,54.7390652 C15.5414545,54.7380468 14.8285438,54.026667 14.8229623,53.1457172 L14.816366,51.6934231 L17.8785841,54.7309177 Z M12.5396182,50.0995658 L12.5543332,53.15692 C12.5675258,55.2900407 14.2932264,57.0132396 16.4182587,57.0157858 L16.4370328,57.0157858 L19.4845361,57.0010184 L19.5540512,68.5939108 C19.5565883,69.0191092 19.3906653,69.4264848 19.0928157,69.728452 C18.7944588,70.0299099 18.3895457,70.2010077 17.9658586,70.2025354 L4.0775451,70.2692431 L4.06993392,70.2692431 C3.19211505,70.2677155 2.48021907,69.5563357 2.47565242,68.6753859 L2.37822974,51.7484188 C2.37417046,50.8644136 3.08505155,50.1448863 3.96642233,50.1403034 L12.5396182,50.0995658 Z M59.0361147,54.5684766 L57.582893,54.5766241 L57.5757894,54.5766241 C56.6984777,54.5750965 55.9860744,53.8637167 55.980493,52.982767 L55.9738966,51.530982 L59.0361147,54.5684766 Z M60.2498389,69.5665202 C59.9519893,69.8679782 59.5470764,70.0385666 59.1233892,70.0395852 L45.2350757,70.1062928 L45.2274646,70.1062928 C44.3496456,70.1052744 43.6377496,69.3938948 43.633183,68.5124357 L43.5357603,51.5859777 C43.531701,50.7019726 44.2425821,49.981936 45.1239529,49.9778623 L53.6971488,49.9371247 L53.7118638,52.9944791 C53.7250563,55.1275997 55.450757,56.8507987 57.5757894,56.8533448 L57.5945635,56.8533448 L60.6420667,56.8385774 L60.7115818,68.4314697 C60.7146263,68.8561589 60.5481959,69.2645529 60.2498389,69.5665202 L60.2498389,69.5665202 Z" id="Shape"/>
                            <path d="M30.6734295,0.168551705 L30.6653109,0.168551705 C29.1791075,0.166514827 27.9724871,1.3733651 27.9704575,2.86486915 C27.9679205,4.355864 29.1704816,5.56729735 30.6566849,5.56933423 L30.6653109,5.56933423 C32.1515142,5.57137111 33.3576272,4.36401151 33.3596569,2.87301666 C33.362194,1.38151262 32.1591254,0.17109777 30.6734295,0.168551705 Z M30.9631605,3.16836413 C30.8840044,3.24780225 30.7764337,3.29261357 30.6653109,3.29261357 L30.6632813,3.29261357 C30.4303802,3.29108601 30.2421311,3.10165634 30.2421311,2.86792453 C30.2416237,2.75589623 30.2867832,2.64794168 30.3659391,2.56850343 C30.4456024,2.48906518 30.5531734,2.44425386 30.6653109,2.44527223 L30.6663257,2.44527223 C30.8992268,2.44629074 31.0879832,2.6362296 31.0879832,2.86945222 C31.086461,2.98198971 31.0423163,3.08943507 30.9631605,3.16836413 Z" id="Shape"/>
                            <path d="M23.6716817,0.145636858 C22.1854784,0.143599849 20.9783505,1.35146876 20.9758135,2.8429728 C20.9737839,4.33498603 22.1773599,5.54540088 23.6635631,5.54794707 L23.6716817,5.54794707 C25.157885,5.54998395 26.3650129,4.34262436 26.3665351,2.85112032 C26.3690722,1.35961627 25.1660035,0.148182923 23.6798003,0.145636858 L23.6716817,0.145636858 Z M24.094354,2.84857412 C24.0933393,3.08230593 23.9045828,3.27071723 23.6716817,3.2717356 L23.6696521,3.2717356 C23.5580219,3.27020804 23.450451,3.2248874 23.3712951,3.14646766 C23.2926466,3.06652022 23.2479945,2.95856554 23.2485019,2.84602805 C23.2485019,2.73349057 23.2936614,2.62553602 23.3733247,2.54609777 C23.4524807,2.46665952 23.5595442,2.42235739 23.6716817,2.42235739 L23.6726966,2.42235739 C23.7848341,2.4228667 23.892405,2.46818721 23.9715609,2.54813465 C24.0502095,2.62808209 24.094354,2.73603663 24.094354,2.84857412 Z" id="Shape"/>
                            <path d="M16.6760228,0.123231067 C15.1898196,0.120685002 13.9826917,1.32855378 13.9811694,2.82005783 C13.9786324,4.31207118 15.181701,5.52248603 16.6684117,5.5250321 L16.6780525,5.5250321 C18.1642559,5.5270691 19.3713837,4.3202187 19.3739208,2.82820534 C19.3754429,1.3367013 18.1723744,0.125268075 16.686171,0.123231067 L16.6760228,0.123231067 Z M17.0997101,2.82565927 C17.0981878,3.05888189 16.9104462,3.24729306 16.6780525,3.24882075 L16.6760228,3.24882075 C16.5638853,3.24882075 16.4558071,3.20350025 16.3766511,3.12355281 C16.2974952,3.04411443 16.2538579,2.93616001 16.2553802,2.82413158 C16.2553802,2.5903999 16.4436292,2.40046091 16.6760228,2.39995173 L16.6780525,2.39995173 C16.79019,2.40147942 16.897761,2.44578155 16.9779317,2.5252198 C17.0565803,2.60516724 17.1002174,2.71312178 17.0997101,2.82565927 Z" id="Shape"/>
                        </g>
                    </g>
                </g>
            </g>
        </g>
    </g>
</svg>