<?xml version="1.0" encoding="UTF-8"?>
<svg width="71px" height="60px" viewBox="0 0 71 60" version="1.1" xmlns="http://www.w3.org/2000/svg" xmlns:xlink="http://www.w3.org/1999/xlink">
    <!-- Generator: Sketch 54 (76480) - https://sketchapp.com -->
    <title>Integration of Latest  Technologies </title>
    <desc>Created with Sketch.</desc>
    <g id="Page-1" stroke="none" stroke-width="1" fill="none" fill-rule="evenodd">
        <g id="Enterprise-Software-Solutions" transform="translate(-809.000000, -1894.000000)" fill-rule="nonzero">
            <g id="Group-4" transform="translate(781.000000, 1830.000000)">
                <g id="Integration-of-Latest--Technologies-" transform="translate(28.000000, 64.000000)">
                    <path d="M6.74660633,37.7817112 L6.74660633,30.1341176 C6.68379864,30.1119786 6.61809955,30.091123 6.55625566,30.0686631 C4.60536199,29.3635829 3.0520362,28.5240642 1.92760181,27.5881283 L1.92760181,37.7817112 C1.92760181,40.7590909 9.77792081,44.0765775 21.0429864,44.0765775 C21.8651086,44.0765775 22.668276,44.0591979 23.4524887,44.0244385 C13.4932127,43.5936898 6.74660633,40.5418717 6.74660633,37.7817112 Z" id="Path" fill="#D4E1F4"/>
                    <path d="M6.74660633,24.0308021 L6.74660633,16.3819251 C6.68395928,16.3599465 6.61906335,16.3390909 6.55705882,16.3167914 C4.60584389,15.6113904 3.0520362,14.7712299 1.92760181,13.8359358 L1.92760181,24.0308021 C1.92760181,27.0081818 9.77792081,30.3256684 21.0429864,30.3256684 C21.8651086,30.3256684 22.668276,30.3082888 23.4524887,30.2735294 C13.4932127,29.8427807 6.74660633,26.7914439 6.74660633,24.0308021 Z" id="Path" fill="#D4E1F4"/>
                    <path d="M6.82692308,10.279893 C6.82692308,7.52053476 13.5735294,4.46775401 23.5328054,4.03700535 C22.7486998,4.0031016 21.9455324,3.98572193 21.1233032,3.98486631 C9.85823756,3.98486631 2.00791855,7.30251337 2.00791855,10.279893 C2.00791855,13.2572727 9.85823756,16.5745989 21.1233032,16.5745989 C21.9454253,16.5745989 22.7485928,16.5572727 23.5328054,16.5226203 C13.5735294,16.0917112 6.82692308,13.039893 6.82692308,10.279893 Z" id="Path" fill="#D4E1F4"/>
                    <path d="M6.74660633,51.6280749 L6.74660633,43.8850267 C6.68379864,43.8628877 6.61809955,43.8420321 6.55625566,43.8195722 C4.60536199,43.114492 3.0520362,42.274492 1.92760181,41.3391979 L1.92760181,51.6280749 C1.92760181,54.605615 9.77792081,57.9231016 21.0429864,57.9231016 C21.8651086,57.9231016 22.668276,57.9057219 23.4524887,57.8709626 C13.4932127,57.4402139 6.74660633,54.3882353 6.74660633,51.6280749 Z" id="Path" fill="#D4E1F4"/>
                    <path d="M26.9261878,22.8649733 C24.9985441,23.0671982 23.0615515,23.1676054 21.1233032,23.1657754 C18.6985867,23.170683 16.2763186,23.0116564 13.8731109,22.6897861 C13.5309477,22.6410629 13.1888569,22.7790497 12.9765462,23.0514272 C12.7642355,23.3238047 12.7142129,23.6888679 12.8454449,24.0081988 C12.976677,24.3275296 13.2690702,24.5522339 13.6117602,24.5971123 C16.1015782,24.9308468 18.6111659,25.095823 21.1233032,25.0909091 C23.1299577,25.0928948 25.1353162,24.9890067 27.1309955,24.7796791 C27.660316,24.7233727 28.0437112,24.2491776 27.9873326,23.7205348 C27.9309539,23.1918919 27.4561509,22.8089877 26.9268303,22.8652941 L26.9261878,22.8649733 Z" id="Path" fill="#24527a"/>
                    <path d="M33.2390837,19.8503743 C31.7901834,19.8503743 30.6156176,21.0234362 30.6156176,22.4704813 C30.6156176,23.9175264 31.7901834,25.0905882 33.2390837,25.0905882 C34.687984,25.0905882 35.8625498,23.9175264 35.8625498,22.4704813 C35.8609563,21.0240959 34.6873234,19.8519658 33.2390837,19.8503743 L33.2390837,19.8503743 Z M33.2390837,23.1654545 C32.8547685,23.1654545 32.5432195,22.8543044 32.5432195,22.4704813 C32.5432195,22.0866581 32.8547685,21.775508 33.2390837,21.775508 C33.6233989,21.775508 33.934948,22.0866581 33.934948,22.4704813 C33.9347709,22.8542831 33.6233774,23.1654214 33.2390837,23.1657754 L33.2390837,23.1654545 Z" id="Shape" fill="#24527a"/>
                    <path d="M26.9261878,36.954385 C24.9985384,37.1565027 23.0615459,37.2568029 21.1233032,37.2548663 C18.6985287,37.2597535 16.2762049,37.1006731 13.8729502,36.7787166 C13.345537,36.7067276 12.8595507,37.0753744 12.7874695,37.6021123 C12.7153882,38.1288502 13.0845076,38.6142142 13.6119208,38.6862032 C16.1016885,39.0199026 18.6112203,39.1848787 21.1233032,39.18 C23.1299605,39.1819324 25.135319,39.0779908 27.1309955,38.8686096 C27.4757901,38.8350966 27.7760518,38.6193551 27.917472,38.3035169 C28.0588922,37.9876788 28.0197128,37.6203375 27.8148491,37.3413384 C27.6099854,37.0623393 27.2709568,36.9146079 26.9268303,36.954385 L26.9261878,36.954385 Z" id="Path" fill="#24527a"/>
                    <path d="M33.2390837,33.9397861 C31.7901834,33.9397861 30.6156176,35.1128479 30.6156176,36.559893 C30.6156176,38.0069382 31.7901834,39.18 33.2390837,39.18 C34.687984,39.18 35.8625498,38.0069382 35.8625498,36.559893 C35.8609563,35.1135077 34.6873234,33.9413776 33.2390837,33.9397861 L33.2390837,33.9397861 Z M33.2390837,37.2548663 C32.8547685,37.2548663 32.5432195,36.9437162 32.5432195,36.559893 C32.5432195,36.1760699 32.8547685,35.8649198 33.2390837,35.8649198 C33.6233989,35.8649198 33.934948,36.1760699 33.934948,36.559893 C33.9345937,36.9435695 33.6232521,37.2545125 33.2390837,37.2548663 Z" id="Shape" fill="#24527a"/>
                    <path d="M26.9261878,51.0436364 C24.9985457,51.245864 23.0615501,51.3462178 21.1233032,51.3442781 C18.6985841,51.3491016 16.2763181,51.1900215 13.8731109,50.8681283 C13.5309477,50.8194052 13.1888569,50.957392 12.9765462,51.2297695 C12.7642355,51.502147 12.7142129,51.8672102 12.8454449,52.186541 C12.976677,52.5058719 13.2690702,52.7305761 13.6117602,52.7754545 C16.1015773,53.1092148 18.6111631,53.2742446 21.1233032,53.2694118 C23.1299648,53.2713462 25.1353262,53.1673508 27.1309955,52.957861 C27.4757901,52.924348 27.7760518,52.7086064 27.917472,52.3927683 C28.0588922,52.0769302 28.0197128,51.7095888 27.8148491,51.4305897 C27.6099854,51.1515906 27.2709568,51.0038592 26.9268303,51.0436364 L26.9261878,51.0436364 Z" id="Path" fill="#24527a"/>
                    <path d="M33.2390837,48.0290374 C32.1778965,48.0289725 31.2211676,48.6673564 30.8150388,49.6464978 C30.40891,50.6256392 30.6333662,51.7527018 31.3837389,52.5021136 C32.1341115,53.2515255 33.2626191,53.4756943 34.2430158,53.0700855 C35.2234124,52.6644768 35.8626147,51.7089728 35.8625498,50.6491444 C35.8609563,49.202759 34.6873234,48.0306289 33.2390837,48.0290374 L33.2390837,48.0290374 Z M33.2390837,51.3442781 C32.9575533,51.344343 32.7037081,51.1750202 32.595926,50.9152717 C32.488144,50.6555232 32.5476533,50.3565075 32.7467024,50.1576674 C32.9457514,49.9588273 33.2451368,49.8993252 33.5052432,50.0069093 C33.7653496,50.1144933 33.934948,50.3679745 33.934948,50.6491444 C33.9345939,51.0328469 33.6232781,51.3438359 33.2390837,51.3442781 Z" id="Shape" fill="#24527a"/>
                    <path d="M62.68031,5.29411765 C63.1165905,7.05882353 64.7720792,8.49834225 66.7432127,8.49834225 C68.251453,8.52306064 69.6558376,7.73360654 70.417193,6.43306834 C71.1785484,5.13253015 71.1785484,3.52303135 70.417193,2.22249315 C69.6558376,0.921954961 68.251453,0.132500854 66.7432127,0.157219251 C64.796559,0.126875536 63.0977439,1.46980568 62.68031,3.36898396 L50.0373303,3.36898396 C49.5051516,3.36898396 48.9932127,3.79122995 48.9932127,4.3228877 L48.9932127,29.0374332 L41.5237557,29.0374332 C40.9914631,29.0374332 40.5599548,29.468389 40.5599548,30 C40.5599548,30.531611 40.9914631,30.9625668 41.5237557,30.9625668 L48.9932127,30.9625668 L48.9932127,55.6597861 C48.9932127,56.1914439 49.5051516,56.631016 50.0373303,56.631016 L62.68031,56.631016 C63.1165905,58.3957219 64.7720792,59.8352406 66.7432127,59.8352406 C68.251453,59.859959 69.6558376,59.0705049 70.417193,57.7699667 C71.1785484,56.4694285 71.1785484,54.8599297 70.417193,53.5593915 C69.6558376,52.2588534 68.251453,51.4693992 66.7432127,51.4941176 C64.796559,51.4637739 63.0977439,52.8067041 62.68031,54.7058824 L50.9208145,54.7058824 L50.9208145,30.9625668 L62.68031,30.9625668 C63.1165905,32.7272727 64.7720792,34.1667914 66.7432127,34.1667914 C68.251453,34.1915098 69.6558376,33.4020557 70.417193,32.1015175 C71.1785484,30.8009793 71.1785484,29.1914805 70.417193,27.8909424 C69.6558376,26.5904042 68.251453,25.8009501 66.7432127,25.8256684 C64.796559,25.7953247 63.0977439,27.1382549 62.68031,29.0374332 L50.9208145,29.0374332 L50.9208145,5.29411765 L62.68031,5.29411765 Z M66.7432127,2.0768984 C67.9852286,2.0768984 68.9920814,3.08246206 68.9920814,4.3228877 C68.9920814,5.56331334 67.9852286,6.56887701 66.7432127,6.56887701 C65.5011967,6.56887701 64.4943439,5.56331334 64.4943439,4.3228877 C64.4957602,3.08304845 65.5017839,2.07831293 66.7432127,2.0768984 L66.7432127,2.0768984 Z M66.7432127,53.4137968 C67.9852286,53.4137968 68.9920814,54.4193605 68.9920814,55.6597861 C68.9920814,56.9002117 67.9852286,57.9057754 66.7432127,57.9057754 C65.5011967,57.9057754 64.4943439,56.9002117 64.4943439,55.6597861 C64.4957602,54.4199468 65.5017839,53.4152113 66.7432127,53.4137968 L66.7432127,53.4137968 Z M66.7432127,27.7453476 C67.9852286,27.7453476 68.9920814,28.7509113 68.9920814,29.9913369 C68.9920814,31.2317625 67.9852286,32.2373262 66.7432127,32.2373262 C65.5011967,32.2373262 64.4943439,31.2317625 64.4943439,29.9913369 C64.4957602,28.7514976 65.5017839,27.7467621 66.7432127,27.7453476 L66.7432127,27.7453476 Z" id="Shape" fill="#43D92D"/>
                    <path d="M35.6092308,4.24283422 C31.7143507,2.83508021 26.5755249,2.05973262 21.1040271,2.05973262 C15.6325294,2.05973262 10.4427828,2.83508021 6.54790271,4.24283422 C2.34524887,5.76192513 0,7.90588235 0,10.279893 L0,51.6280749 C0,54.0032086 2.35424434,56.1474866 6.55625566,57.6660963 C10.4503326,59.0732086 15.6294774,59.8479144 21.103224,59.8479144 C26.5769706,59.8479144 31.7059977,59.0728877 35.599914,57.6660963 C39.8019253,56.1474866 42.0859729,54.0032086 42.0859729,51.6280749 L42.0859729,10.279893 C42.0859729,7.90588235 39.811724,5.76192513 35.6092308,4.24283422 Z M40.158371,37.4951872 L40.158371,37.7817112 C40.158371,40.7590909 32.308052,44.0765775 21.0429864,44.0765775 C9.77792081,44.0765775 1.92760181,40.7590909 1.92760181,37.7817112 L1.92760181,27.5881283 C3.0520362,28.5234225 4.60536199,29.3635829 6.55625566,30.0686631 C10.4503326,31.4757754 15.6294774,32.2504813 21.103224,32.2504813 C26.5769706,32.2504813 31.7059977,31.4754545 35.599914,30.0686631 C37.5509683,29.3635829 39.1945701,28.5240642 40.158371,27.5881283 L40.158371,37.4951872 Z M40.158371,24.0308021 C40.158371,27.0081818 32.308052,30.3256684 21.0429864,30.3256684 C9.77792081,30.3256684 1.92760181,27.0081818 1.92760181,24.0308021 L1.92760181,13.8359358 C3.0520362,14.7712299 4.60584389,15.6113904 6.55705882,16.3167914 C10.4519389,17.724385 15.6309231,18.4997326 21.103224,18.4997326 C26.5755249,18.4997326 31.7050339,17.724385 35.5991109,16.3167914 C37.5504864,15.6109091 39.1945701,14.7712299 40.158371,13.8359358 L40.158371,24.0308021 Z M21.1233032,3.98486631 C32.3883688,3.98486631 40.2386878,7.30251337 40.2386878,10.279893 C40.2386878,13.2572727 32.3883688,16.5745989 21.1233032,16.5745989 C9.85823756,16.5745989 2.00791855,13.2572727 2.00791855,10.279893 C2.00791855,7.30251337 9.85823756,3.98486631 21.1233032,3.98486631 Z M21.0429864,57.9231016 C9.77792081,57.9231016 1.92760181,54.605615 1.92760181,51.6280749 L1.92760181,41.3391979 C3.0520362,42.274492 4.60536199,43.114492 6.55625566,43.8195722 C10.4503326,45.2268449 15.6294774,46.0013904 21.103224,46.0013904 C26.5769706,46.0013904 31.7059977,45.2265241 35.599914,43.8195722 C37.5509683,43.114492 39.1945701,42.274492 40.158371,41.3391979 L40.158371,51.6280749 C40.158371,54.605615 32.308052,57.9231016 21.0429864,57.9231016 Z" id="Shape" fill="#24527a"/>
                </g>
            </g>
        </g>
    </g>
</svg>