<?xml version="1.0" encoding="UTF-8"?>
<svg width="70px" height="62px" viewBox="0 0 70 62" version="1.1" xmlns="http://www.w3.org/2000/svg" xmlns:xlink="http://www.w3.org/1999/xlink">
    <!-- Generator: Sketch 54 (76480) - https://sketchapp.com -->
    <title>Operational Efficiency</title>
    <desc>Created with Sketch.</desc>
    <g id="Page-1" stroke="none" stroke-width="1" fill="none" fill-rule="evenodd">
        <g id="Mobile-Apps" transform="translate(-1197.000000, -2537.000000)" fill-rule="nonzero">
            <g id="Group-4" transform="translate(1169.000000, 2480.000000)">
                <g id="Operational-Efficiency" transform="translate(28.000000, 57.000000)">
                    <path d="M6.54471545,1.68325792 L3.69918699,1.68325792 C2.5995952,1.68441759 1.70849332,2.56296225 1.70731707,3.64705882 L1.70731707,39.6668145 L4.55284553,39.6668145 L4.55284553,3.64705882 C4.55402177,2.56296225 5.44512365,1.68441759 6.54471545,1.68325792 Z" id="Path" fill="#D4E1F4"/>
                    <path d="M4.55284553,46.1193032 L4.55284553,41.3500724 L1.70731707,41.3500724 L1.70731707,46.1193032 C1.70857156,47.2033677 2.59962766,48.0818673 3.69918699,48.0831041 L6.54471545,48.0831041 C5.44515611,48.0818673 4.55410002,47.2033677 4.55284553,46.1193032 L4.55284553,46.1193032 Z" id="Path" fill="#D4E1F4"/>
                    <g id="Group" transform="translate(6.544715, 12.203620)" fill="#43D92D">
                        <path d="M55.5119919,8.50339819 C55.278862,8.38893808 55.0089828,8.37115927 54.7624797,8.45402262 L44.6750813,11.733009 L43.2267073,1.7748552 C43.2201328,1.56710794 43.1455666,1.36703203 43.0141463,1.20451131 C42.843019,0.992534958 42.5879867,0.862985938 42.3135772,0.848642534 C40.8623577,0.774298643 37.9701626,1.19511312 34.9009756,4.84315385 C30.5745976,9.97445987 31.2662395,17.587767 36.4486585,21.8794072 C38.6371993,23.7049629 41.4116551,24.70587 44.2784146,24.7040543 C44.6432114,24.7040543 45.009668,24.6879698 45.3777846,24.6558009 C48.6171533,24.3795501 51.6085872,22.8332289 53.6814634,20.3634932 C56.3328254,17.2295449 57.2071199,12.9907893 56.0078252,9.08482353 C55.9305356,8.83211317 55.7512351,8.62186132 55.5119919,8.50339819 L55.5119919,8.50339819 Z M52.3701016,19.2856471 C48.6208125,23.6646086 41.984507,24.2268739 37.5324019,20.5427808 C33.0802969,16.8586878 32.4912852,10.3175111 36.2154675,5.91777376 C38.4338415,3.28066968 40.4609959,2.65744344 41.6147154,2.54578733 L43.0955285,12.726552 C43.1058391,13.0300295 43.2614391,13.3107274 43.5149447,13.4831666 C43.7684502,13.6556059 44.0898538,13.6993748 44.3812805,13.6011448 L54.5657114,10.2907376 C55.2951713,13.4625413 54.4833666,16.7883187 52.3701016,19.2856471 L52.3701016,19.2856471 Z" id="Shape"/>
                        <path d="M45.1208333,9.18259276 C45.1645621,9.48522733 45.3403297,9.75387812 45.6019464,9.91794672 C45.863563,10.0820153 46.1848668,10.1250948 46.4814228,10.0358643 L54.1812805,7.71857919 C54.4572105,7.64065433 54.689448,7.45602375 54.8251741,7.20667883 C54.9609003,6.95733391 54.9885773,6.66447085 54.9019106,6.39469683 C54.6732724,5.68141629 53.9771138,3.85914932 52.4581707,2.34590045 C50.4866463,0.382099548 47.8484146,-0.322063348 44.8301626,0.309298643 C44.296594,0.420037028 43.9354641,0.912036357 43.9955691,1.44633937 L45.1208333,9.18259276 Z M51.2446951,3.52965158 C52.0209027,4.33012693 52.6340181,5.27007814 53.050752,6.29847059 L46.7039431,8.20854751 L45.7791463,1.85032127 C47.9714837,1.53569231 49.8081301,2.09930317 51.2446951,3.5300724 L51.2446951,3.52965158 Z" id="Shape"/>
                        <path d="M0.903739837,29.1464525 C1.37520243,29.1464525 1.75739837,28.7696424 1.75739837,28.3048235 L1.75739837,2.93938914 L6.12130081,2.93938914 L6.12130081,28.3048235 C6.12130081,28.7696424 6.50349676,29.1464525 6.97495935,29.1464525 C7.44642194,29.1464525 7.82861789,28.7696424 7.82861789,28.3048235 L7.82861789,2.387 C7.82830503,1.7631137 7.31581089,1.25721401 6.68300813,1.25613122 L1.19512195,1.25613122 C0.562319191,1.25721401 0.049825055,1.7631137 0.0495121951,2.387 L0.0495121951,28.3048235 C0.0495121448,28.5281347 0.139529029,28.7422913 0.299744167,28.9001435 C0.459959306,29.0579957 0.677236929,29.1466014 0.903739837,29.1464525 L0.903739837,29.1464525 Z" id="Path"/>
                        <path d="M10.0061585,29.1464525 C10.2325629,29.1464525 10.4496942,29.0577811 10.6097863,28.8999451 C10.7698783,28.742109 10.8598171,28.5280374 10.8598171,28.3048235 L10.8598171,8.72292308 L15.2235772,8.72292308 L15.2235772,28.3048235 C15.2235772,28.7696424 15.6057732,29.1464525 16.0772358,29.1464525 C16.5486984,29.1464525 16.9308943,28.7696424 16.9308943,28.3048235 L16.9308943,8.17025339 C16.9305814,7.54636709 16.4180873,7.04046741 15.7852846,7.03938462 L10.2981098,7.03938462 C9.665307,7.04046741 9.15281286,7.54636709 9.1525,8.17025339 L9.1525,28.3048235 C9.1525,28.7696424 9.53469595,29.1464525 10.0061585,29.1464525 L10.0061585,29.1464525 Z" id="Path"/>
                        <path d="M19.1087195,29.1464525 C19.5801821,29.1464525 19.962378,28.7696424 19.962378,28.3048235 L19.962378,15.9518145 L24.3264228,15.9518145 L24.3264228,28.3048235 C24.3264228,28.7696424 24.7086187,29.1464525 25.1800813,29.1464525 C25.6515439,29.1464525 26.0337398,28.7696424 26.0337398,28.3048235 L26.0337398,15.3998462 C26.0334268,14.7759827 25.5209098,14.2701232 24.8881301,14.2691176 L19.4006707,14.2691176 C18.767891,14.2701232 18.255374,14.7759827 18.255061,15.3998462 L18.255061,28.3048235 C18.255061,28.7696424 18.6372569,29.1464525 19.1087195,29.1464525 L19.1087195,29.1464525 Z" id="Path"/>
                    </g>
                    <path d="M31.2163008,56.6800633 L22.1675203,56.6800633 C21.6960577,56.6800633 21.3138618,57.0568735 21.3138618,57.5216923 L21.3138618,61.158371 C21.3138618,61.6231899 21.6960577,62 22.1675203,62 L48.294878,62 C48.7663406,62 49.1485366,61.6231899 49.1485366,61.158371 L49.1485366,57.5216923 C49.1485366,57.0568735 48.7663406,56.6800633 48.294878,56.6800633 L39.2460976,56.6800633 L39.2460976,49.766362 L66.300813,49.766362 C68.3428425,49.764043 69.9976479,48.1325568 70,46.1193032 L70,3.64705882 C69.9976479,1.63380519 68.3428425,0.00231897367 66.300813,-8.52651283e-14 L3.69918699,-8.52651283e-14 C1.6571575,0.00231897367 0.00235211924,1.63380519 -1.70530257e-13,3.64705882 L-1.70530257e-13,46.1193032 C0.00235211924,48.1325568 1.6571575,49.764043 3.69918699,49.766362 L31.2163008,49.766362 L31.2163008,56.6800633 Z M47.4412195,60.3167421 L23.0216057,60.3167421 L23.0216057,58.3633213 L47.4412195,58.3633213 L47.4412195,60.3167421 Z M37.5387805,56.6800633 L32.9236179,56.6800633 L32.9236179,49.766362 L37.5392073,49.766362 L37.5387805,56.6800633 Z M3.69918699,1.68325792 L66.300813,1.68325792 C67.4004048,1.68441759 68.2915067,2.56296225 68.2926829,3.64705882 L68.2926829,39.6668145 L1.70731707,39.6668145 L1.70731707,3.64705882 C1.70849332,2.56296225 2.5995952,1.68441759 3.69918699,1.68325792 Z M1.70731707,46.1193032 L1.70731707,41.3500724 L68.2926829,41.3500724 L68.2926829,46.1193032 C68.2914284,47.2033677 67.4003723,48.0818673 66.300813,48.0831041 L3.69918699,48.0831041 C2.59962766,48.0818673 1.70857156,47.2033677 1.70731707,46.1193032 L1.70731707,46.1193032 Z" id="Shape" fill="#24527a"/>
                </g>
            </g>
        </g>
    </g>
</svg>