<?xml version="1.0" encoding="UTF-8"?>
<svg width="60px" height="73px" viewBox="0 0 60 73" version="1.1" xmlns="http://www.w3.org/2000/svg" xmlns:xlink="http://www.w3.org/1999/xlink">
    <!-- Generator: Sketch 54 (76480) - https://sketchapp.com -->
    <title>Organizational Growth</title>
    <desc>Created with Sketch.</desc>
    <g id="Page-1" stroke="none" stroke-width="1" fill="none" fill-rule="evenodd">
        <g id="Web-Application-Development" transform="translate(-438.000000, -2777.000000)" fill-rule="nonzero">
            <g id="Group-5" transform="translate(391.000000, 2243.000000)">
                <g id="Group-4" transform="translate(0.000000, 477.000000)">
                    <g id="Organizational-Growth" transform="translate(47.000000, 57.000000)">
                        <path d="M42.0603015,20.2107438 L40.8877387,20.2107438 C38.4776102,20.2098593 36.1661123,21.1681545 34.4629972,22.8742975 C32.7598822,24.5804405 31.8050415,26.8942913 31.8090452,29.3055785 L31.8090452,30.4785558 C31.8018373,30.7137967 31.8905494,30.9418574 32.0547994,31.1103396 C32.2190493,31.2788218 32.4447155,31.3732399 32.6799497,31.3719008 L33.8526633,31.3719008 C38.8804891,31.371822 42.9581697,27.2975076 42.9648241,22.2672624 L42.9648241,21.0941343 C42.963944,20.856357 42.8676643,20.6288924 42.6975957,20.4627971 C42.5275272,20.2967019 42.2979164,20.2058895 42.0603015,20.2107438 L42.0603015,20.2107438 Z M41.1557789,22.2672624 C41.1502051,26.2983664 37.8818286,29.5629861 33.8526633,29.5619835 L33.6180708,29.5619837 L33.6180905,29.3055785 C33.6136031,27.3741644 34.3776928,25.5203922 35.7416508,24.1535693 C37.1056089,22.7867463 38.9572505,22.0192932 40.8877387,22.0206612 L41.1557789,22.0206593 L41.1557789,22.2672624 Z" id="Shape" fill="#24527a"/>
                        <path d="M30.9045226,17.2017562 L30.9045226,16.3955888 C32.6497475,15.940403 33.7851776,14.2588083 33.5557673,12.4690426 C33.326357,10.6792768 31.8035532,9.33874035 30,9.3388719 C29.2818321,9.33893291 28.6343457,8.90615737 28.3594724,8.24235435 C28.0845992,7.57855133 28.2364729,6.81445071 28.7442728,6.30636291 C29.2520726,5.7982751 30.0157922,5.64626331 30.6792987,5.92121269 C31.3428052,6.19616206 31.7754271,6.84392386 31.7754271,7.56243802 C31.7754271,8.06223289 32.1803957,8.46739669 32.6799497,8.46739669 C33.1795038,8.46739669 33.5844724,8.06223289 33.5844724,7.56243802 C33.5824748,5.93097197 32.4818822,4.50571209 30.9045226,4.09192149 L30.9045226,3.40777273 C30.9045226,2.90797785 30.499554,2.50281405 30,2.50281405 C29.500446,2.50281405 29.0954774,2.90797785 29.0954774,3.40777273 L29.0954774,4.09192149 C27.3504691,4.5473515 26.2152927,6.22885781 26.4446793,8.01847737 C26.674066,9.80809693 28.1965947,11.1486201 30,11.1487893 C30.9753755,11.1502363 31.7668728,11.9387569 31.7724642,12.9145877 C31.7780557,13.8904184 30.9956465,14.6879662 30.0203518,14.7006012 C30.0135678,14.7006012 30.0069347,14.6995455 30,14.6995455 C29.9930653,14.6995455 29.9864322,14.7004504 29.9796482,14.7006012 C29.0080292,14.688562 28.2262294,13.8979871 28.2245729,12.9258264 C28.2245729,12.4260316 27.8196043,12.0208678 27.3200503,12.0208678 C26.8204962,12.0208678 26.4155276,12.4260316 26.4155276,12.9258264 C26.4178145,14.5570298 27.5183579,15.9819163 29.0954774,16.3955888 L29.0954774,17.2017562 C29.0954774,17.701551 29.500446,18.1067148 30,18.1067148 C30.499554,18.1067148 30.9045226,17.701551 30.9045226,17.2017562 L30.9045226,17.2017562 Z" id="Path" fill="#24527a"/>
                        <path d="M40.2848744,10.3047645 C40.2861502,4.73914145 35.8639463,0.181248837 30.3034265,0.0170508303 C24.7429066,-0.147147176 20.0597118,4.14186979 19.7328905,9.6978797 C19.4060693,15.2538896 23.5540916,20.0628864 29.0954774,20.5523657 L29.0954774,34.3296074 C29.0954774,34.8294023 29.500446,35.2345661 30,35.2345661 C30.499554,35.2345661 30.9045226,34.8294023 30.9045226,34.3296074 L30.9045226,20.5523657 C36.2097793,20.0777968 40.2777311,15.6337472 40.2848744,10.3047645 Z M21.5241709,10.3047645 C21.5241099,6.87494516 23.5891407,3.78281405 26.7563362,2.47023675 C29.9235316,1.15765946 33.5691616,1.88312779 35.993263,4.30835471 C38.4173644,6.73358162 39.142548,10.3809562 37.8306595,13.5497019 C36.518771,16.7184476 33.4281666,18.7845289 30,18.7845289 C25.3211573,18.7792925 21.529488,14.9858627 21.5241709,10.3047645 L21.5241709,10.3047645 Z" id="Shape" fill="#24527a"/>
                        <path d="M19.1122613,20.2107438 L17.9396985,20.2107438 C17.7020836,20.2058895 17.4724728,20.2967019 17.3024043,20.4627971 C17.1323357,20.6288924 17.036056,20.856357 17.0351759,21.0941343 L17.0351759,22.2672624 C17.0418303,27.2975076 21.1195109,31.371822 26.1473367,31.3719008 L27.3200503,31.3719008 C27.5552305,31.3732371 27.7808486,31.2788601 27.9450893,31.1104443 C28.10933,30.9420285 28.1980792,30.7140469 28.1909548,30.4788574 L28.1909548,29.3055785 C28.1949585,26.8942913 27.2401178,24.5804405 25.5370028,22.8742975 C23.8338877,21.1681545 21.5223898,20.2098593 19.1122613,20.2107438 Z M26.3819292,29.5619837 L26.1473367,29.5619835 C22.1181714,29.5629861 18.8497949,26.2983664 18.8442211,22.2672624 L18.8442211,22.0206593 L19.1122613,22.0206612 C21.0427495,22.0192932 22.8943911,22.7867463 24.2583492,24.1535693 C25.6223072,25.5203922 26.3863969,27.3741644 26.3819095,29.3055785 L26.3819292,29.5619837 Z" id="Shape" fill="#24527a"/>
                        <path d="M30,35.9173574 C29.500446,35.9173574 29.0954774,36.3225212 29.0954774,36.8223161 L29.0954774,39.7148657 C29.0954774,40.2146606 29.500446,40.6198244 30,40.6198244 C30.499554,40.6198244 30.9045226,40.2146606 30.9045226,39.7148657 L30.9045226,36.8223161 C30.9045226,36.3225212 30.499554,35.9173574 30,35.9173574 Z" id="Path" fill="#24527a"/>
                        <path d="M30,42.1179835 C29.500446,42.1179835 29.0954774,42.5231473 29.0954774,43.0229421 L29.0954774,46.7019008 C29.0954774,47.2016957 29.500446,47.6068595 30,47.6068595 C30.499554,47.6068595 30.9045226,47.2016957 30.9045226,46.7019008 L30.9045226,43.0229421 C30.9045226,42.5231473 30.499554,42.1179835 30,42.1179835 Z" id="Path" fill="#24527a"/>
                        <path d="M27.8193467,54.1768595 C27.5075598,54.0245238 27.1366665,54.0603776 26.859799,54.2696178 L25.6688442,55.1781963 C25.6418714,55.0253867 25.6233007,54.8712114 25.6132161,54.7163657 L25.5105528,52.9702479 C25.5090452,52.9455124 25.5058794,52.9207769 25.5025628,52.8961921 C25.0060298,49.317329 22.5433304,46.3203667 19.1297487,45.1408471 L18.5623116,44.9432645 C17.8034448,44.6780418 17.1139174,44.2454554 16.5447739,43.6775289 L13.8203518,40.9517934 L12.890804,37.8052521 C12.4183342,36.0590016 10.9434217,34.7677641 9.15075377,34.5309607 L9.03015075,34.1320248 C9.02819095,34.1247851 9.02577889,34.1169421 9.02336683,34.110155 C8.57110553,32.7302438 7.10969849,31.8257376 5.58934673,31.861031 L5.58512563,31.8468533 C4.96541566,29.7644792 2.81778209,28.5385005 0.710653266,29.0642562 C0.246178701,29.179656 -0.0480637248,29.6370656 0.0393467337,30.1078244 L3.06180905,46.3821488 C3.06970391,46.4242664 3.08048308,46.4657912 3.09407035,46.5064298 C3.81751136,48.6335949 5.20192374,50.4735504 7.04502513,51.7574525 L13.6463819,56.3078864 C13.6623618,56.3188967 13.6786432,56.3294545 13.6953769,56.3392583 C14.1329625,56.6004464 14.4557278,57.0174313 14.598995,57.506655 L15.7035678,62.4110785 C15.7275615,62.5168198 15.7704071,62.6173691 15.8300503,62.707905 L14.6522111,63.6279463 C14.4348916,63.802007 14.3123631,64.0684241 14.321608,64.3467851 L14.321608,72.0799587 C14.3120467,72.4092395 14.4863763,72.7164981 14.7738693,72.8770764 C14.9012645,72.9477998 15.0445581,72.9849122 15.1902513,72.9849174 C15.3656419,72.9848615 15.537063,72.9326807 15.6827638,72.8349959 L27.920804,64.755374 C28.1779186,64.5894245 28.335694,64.3063999 28.3417085,64.0003368 L28.3417085,54.9889091 C28.3343542,54.6414001 28.1324393,54.3275087 27.8193467,54.1768595 Z M11.1459799,38.2826178 C11.1479397,38.2906116 11.150201,38.2986054 11.1524623,38.3062975 L11.3436181,38.9534938 C11.0354883,38.8203722 10.7142257,38.720024 10.3851256,38.6541033 L9.76552764,36.5859711 C10.4468568,36.9285278 10.9492842,37.546189 11.1461307,38.2832211 L11.1459799,38.2826178 Z M7.30175879,34.6627831 L8.49663317,38.6521426 C8.22179402,38.7069125 7.95227328,38.7856426 7.69115578,38.8874318 L6.14743719,33.7246426 C6.68427136,33.8566157 7.14572864,34.203064 7.30145729,34.6639897 L7.30175879,34.6627831 Z M16.3582915,57.081626 C16.3545226,57.0665434 16.350603,57.0501033 16.3462312,57.0342665 C16.0842956,56.1018822 15.4784233,55.3037074 14.651005,54.8009793 L8.0739196,50.267438 C6.56820196,49.2184886 5.43227076,47.7203573 4.82834171,45.9869835 L2.00321608,30.7747789 C2.87772522,30.89682 3.60046813,31.5185076 3.85221106,32.3652438 L5.96532663,39.4326694 L6.1098995,39.9002314 C6.08683417,39.9225537 6.06301508,39.9438202 6.0401005,39.966595 C5.8655619,40.1414016 5.77005467,40.3800078 5.77574884,40.627026 C5.78144301,40.8740442 5.88784336,41.1079915 6.07025126,41.274562 L9.37688442,44.2965207 C10.3313576,45.1689993 11.204319,46.1267411 11.9849246,47.1578492 C12.2876666,47.552351 12.8518837,47.6284819 13.2482684,47.3283145 C13.644653,47.0281471 13.7246261,46.464195 13.4273367,46.065564 C12.580386,44.9466226 11.6333061,43.907205 10.5978392,42.9601983 L8.10422111,40.6816632 C9.25691379,40.1100511 10.6455327,40.3370086 11.5564824,41.245905 L15.2660804,44.9571405 C16.0283622,45.7178322 16.9518387,46.2973193 17.968191,46.6527314 L18.5356281,46.850314 C21.2958421,47.8039611 23.2916614,50.2212893 23.7064824,53.1132314 L23.8055276,54.822095 C23.8363216,55.3502454 23.9367905,55.8720025 24.1043216,56.3737975 L17.3620101,61.5358326 L16.3582915,57.081626 Z M26.5326633,63.5130165 L16.1306533,70.3967355 L16.1306533,64.7938347 L26.5326633,56.8208471 L26.5326633,63.5130165 Z" id="Shape" fill="#43D92D"/>
                        <path d="M59.2893467,29.0642562 C57.1821099,28.5373122 55.0337158,29.7635542 54.4147236,31.8465517 L54.4105025,31.8616343 C52.8901508,31.8263409 51.4278392,32.7305455 50.9763317,34.1106074 C50.9739196,34.1178471 50.9715075,34.1256901 50.9695477,34.1324773 L50.85,34.531564 C49.0570446,34.7680844 47.5817722,36.0593767 47.109196,37.8058554 L46.1796482,40.9523967 L43.4555276,43.6781322 C42.8863325,44.2459939 42.1968208,44.6785704 41.4379899,44.9438678 L40.870402,45.1414504 C37.4569554,46.3210499 34.9944286,49.3180148 34.4980402,52.8967955 C34.4945729,52.9213802 34.4921608,52.9461157 34.4906533,52.9708512 L34.3893467,54.7174215 C34.380142,54.8722797 34.3623761,55.0265095 34.3361307,55.1794029 L33.149397,54.2708244 C32.869113,54.0613901 32.4955542,54.0256214 32.1806533,54.1780661 C31.8677513,54.3286175 31.6658707,54.6422225 31.6582915,54.9895124 L31.6582915,64.0009401 C31.665543,64.3075003 31.8245124,64.5904372 32.0825126,64.7559773 L44.3143719,72.8355992 C44.4639835,72.9334382 44.638851,72.9855359 44.8175879,72.9855207 C44.9603205,72.9855165 45.1005954,72.9483517 45.2246231,72.8776798 C45.5125702,72.7170744 45.6874348,72.4096641 45.678392,72.0799587 L45.678392,64.3467851 C45.6875889,64.0684765 45.5650651,63.8021257 45.3477889,63.6280971 L44.1578894,62.7080558 C44.2194395,62.6178339 44.2643206,62.5173008 44.290402,62.4112293 L45.3979899,57.5068058 C45.5416825,57.0175368 45.8647364,56.6005964 46.3025126,56.3394091 C46.3192462,56.3296054 46.3362814,56.3190475 46.3522613,56.3080372 L52.9560302,51.756095 C54.7983169,50.4724558 56.1820378,48.6330351 56.9050251,46.5065806 C56.9187145,46.4659495 56.9295944,46.4244245 56.9375879,46.3822996 L59.9600503,30.108126 C60.047682,29.6374476 59.7537152,29.1799234 59.2893467,29.0642562 L59.2893467,29.0642562 Z M52.6985427,34.6641405 C52.8541206,34.2032149 53.3155779,33.8569174 53.8528643,33.7261508 L52.3091457,38.8886384 C52.0480242,38.7868984 51.7785033,38.7082187 51.5036683,38.6535 L52.6985427,34.6641405 Z M48.8543216,38.2839752 C49.0512865,37.5471975 49.5536352,36.9297852 50.2347739,36.5873285 L49.6151759,38.6554607 C49.2860758,38.7213815 48.9648132,38.8217297 48.6566834,38.9548512 L48.8478392,38.307655 C48.8496482,38.2992087 48.8519095,38.2912149 48.8538693,38.2832211 L48.8543216,38.2839752 Z M43.8693467,70.3973388 L33.4673367,63.5130165 L33.4673367,56.8208471 L43.8693467,64.7938347 L43.8693467,70.3973388 Z M55.1716583,45.9869835 C54.5685256,47.7201501 53.4334393,49.2183333 51.9284925,50.2675888 L45.3492965,54.8026384 C44.5218782,55.3053665 43.9160059,56.1035413 43.6540704,57.0359256 C43.6496985,57.0510083 43.6457789,57.0674483 43.6420101,57.0832851 L42.6390452,61.5362851 L35.8967337,56.37425 C36.0642795,55.872407 36.1647486,55.3505982 36.1955276,54.8223967 L36.2945729,53.1136839 C36.7093938,50.2217418 38.7052132,47.8044136 41.4654271,46.8507665 L42.0330151,46.6531839 C43.0493314,46.2976971 43.9727922,45.7182198 44.7351256,44.957593 L48.4444221,41.2465083 C49.3553586,40.3376042 50.7439522,40.1105901 51.8966834,40.6821157 L49.4030653,42.9608017 C48.3675651,43.9077202 47.4204819,44.947091 46.5735678,46.0660165 C46.2762785,46.4646474 46.3562515,47.0285996 46.7526362,47.328767 C47.1490208,47.6289344 47.7132379,47.5528035 48.0159799,47.1583017 C48.7965855,46.1271936 49.6695469,45.1694517 50.6240201,44.2969731 L53.9312563,41.2747128 C54.1136642,41.1081423 54.2200645,40.874195 54.2257587,40.6271768 C54.2314529,40.3801586 54.1359456,40.1415525 53.961407,39.9667459 C53.9384925,39.9439711 53.9146734,39.9227045 53.891608,39.9003822 L54.038593,39.4249773 L56.1491457,32.3653946 C56.400799,31.5187132 57.1235353,30.8970985 57.9979899,30.7752314 L55.1716583,45.9869835 Z" id="Shape" fill="#43D92D"/>
                        <path d="M31.5075377,17.2762645 C28.2727787,17.2789871 25.3190163,15.4378992 23.8956247,12.5317391 C22.4722331,9.62557891 22.8278706,6.16203579 24.8121106,3.6061095 C22.2148032,5.61656852 21.0129463,8.94778532 21.7279887,12.1544469 C22.4430312,15.3611084 24.9461226,17.8653747 28.151248,18.5807212 C31.3563735,19.2960677 34.6859698,18.0935892 36.6954271,15.4950041 C35.2129211,16.6506977 33.3869426,17.2776469 31.5075377,17.2762645 Z" id="Path" fill="#D4E1F4"/>
                        <path d="M13.4265829,46.065564 C13.6584434,46.372889 13.6705406,46.7933464 13.4567337,47.1135062 C13.4680402,47.1285888 13.479799,47.1429174 13.4911055,47.1578492 C13.7938475,47.552351 14.3580646,47.6284819 14.7544493,47.3283145 C15.150834,47.0281471 15.230807,46.464195 14.9335176,46.065564 C14.0865669,44.9466226 13.139487,43.907205 12.1040201,42.9601983 L9.61040201,40.6816632 C9.79607966,40.5902909 9.9907425,40.518464 10.1912563,40.4673388 C9.49196637,40.2858347 8.75076069,40.361902 8.10286432,40.6816632 L10.5964824,42.9601983 C11.6321587,43.9071779 12.5794412,44.9465963 13.4265829,46.065564 Z" id="Path" fill="#D4E1F4"/>
                        <path d="M17.8655276,57.0828326 C17.8617588,57.06775 17.8578392,57.0513099 17.8534673,57.0354731 C17.5915318,56.1030888 16.9856595,55.304914 16.1582412,54.802186 L9.58115578,50.2686446 C8.07534851,49.2193343 6.93950636,47.720759 6.3358794,45.9869835 L3.75949749,32.1153244 C3.44819115,31.3923953 2.78240317,30.8843801 2.00321608,30.7752314 L4.82834171,45.9869835 C5.43188536,47.7209251 6.56773515,49.2196689 8.07361809,50.2690971 L14.6507035,54.8026384 C15.4781218,55.3053665 16.0839941,56.1035413 16.3459296,57.0359256 C16.3503015,57.0510083 16.3542211,57.0674483 16.3579899,57.0832851 L17.3609548,61.5362851 L18.6467337,60.5518409 L17.8655276,57.0828326 Z" id="Path" fill="#D4E1F4"/>
                        <polygon id="Path" fill="#D4E1F4" points="17.638191 64.7938347 26.5326633 57.9764793 26.5326633 56.8208471 16.1306533 64.7938347 16.1306533 70.3973388 17.638191 69.3997727"/>
                        <polygon id="Path" fill="#D4E1F4" points="33.4673367 56.8208471 33.4673367 57.9764793 42.361809 64.7938347 42.361809 69.3997727 43.8693467 70.3973388 43.8693467 64.7938347"/>
                        <path d="M50.388995,40.6816632 L47.8953769,42.9603492 C46.8598767,43.9072678 45.9127935,44.9466385 45.0658794,46.065564 C44.76859,46.464195 44.848563,47.0281471 45.2449477,47.3283145 C45.6413324,47.6284819 46.2055495,47.552351 46.5082915,47.1578492 C46.519598,47.1427665 46.5313568,47.128438 46.5426633,47.1135062 C46.3288564,46.7933464 46.3409535,46.372889 46.5728141,46.065564 C47.4197282,44.9466385 48.3668114,43.9072678 49.4023116,42.9603492 L51.8959296,40.6816632 C51.2485628,40.3619893 50.5079291,40.2857116 49.8090452,40.4667355 C50.0092862,40.5180702 50.2036482,40.5901002 50.388995,40.6816632 Z" id="Path" fill="#D4E1F4"/>
                        <path d="M56.2403518,32.1148719 L53.6641206,45.9869835 C53.0609879,47.7201501 51.9259016,49.2183333 50.4209548,50.2675888 L43.8417588,54.8026384 C43.0143405,55.3053665 42.4084682,56.1035413 42.1465327,57.0359256 C42.1421608,57.0510083 42.1382412,57.0674483 42.1344724,57.0832851 L41.3532663,60.5522934 L42.6390452,61.5367376 L43.6420101,57.0837376 C43.6457789,57.068655 43.6496985,57.0522149 43.6540704,57.0363781 C43.9160059,56.1039938 44.5218782,55.305819 45.3492965,54.8030909 L51.9284925,50.2680413 C53.433515,49.2186678 54.5686089,47.7203163 55.1716583,45.9869835 L57.9967839,30.7752314 C57.2176413,30.8842428 56.5518091,31.3920767 56.2403518,32.1148719 Z" id="Path" fill="#D4E1F4"/>
                        <path d="M26.1473367,28.053719 C22.6051705,28.0530005 19.573858,25.5101137 18.9554774,22.0206612 L18.8442211,22.0206612 L18.8442211,22.2672624 C18.8497949,26.2983664 22.1181714,29.5629861 26.1473367,29.5619835 L26.3819095,29.5619837 L26.3819095,29.3055785 C26.381395,28.8859558 26.3450315,28.467145 26.2732161,28.053719 L26.1473367,28.053719 Z" id="Path" fill="#D4E1F4"/>
                        <path d="M33.8526633,28.053719 L33.7267839,28.053719 C33.6549685,28.467145 33.618605,28.8859558 33.6180905,29.3055785 L33.6180905,29.5619837 L33.8526633,29.5619835 C37.8818286,29.5629861 41.1502051,26.2983664 41.1557789,22.2672624 L41.1557789,22.0206612 L41.0445226,22.0206612 C40.426142,25.5101137 37.3948295,28.0530005 33.8526633,28.053719 L33.8526633,28.053719 Z" id="Path" fill="#D4E1F4"/>
                    </g>
                </g>
            </g>
        </g>
    </g>
</svg>