<?xml version="1.0" encoding="UTF-8"?>
<svg width="74px" height="73px" viewBox="0 0 74 73" version="1.1" xmlns="http://www.w3.org/2000/svg" xmlns:xlink="http://www.w3.org/1999/xlink">
    <!-- Generator: Sketch 54 (76480) - https://sketchapp.com -->
    <title>Time &amp; Material Hiring</title>
    <desc>Created with Sketch.</desc>
    <g id="Page-1" stroke="none" stroke-width="1" fill="none" fill-rule="evenodd">
        <g id="Cloud-Services" transform="translate(-1209.000000, -4799.000000)" fill-rule="nonzero">
            <g id="Group-4" transform="translate(1169.000000, 4762.000000)">
                <g id="Time-&amp;-Material-Hiring" transform="translate(40.000000, 37.000000)">
                    <path d="M27.9949655,22.0259401 L27.8109412,20.7618636 C27.7189784,19.3486944 27.9381211,17.9325267 28.4527748,16.6141364 C29.0494578,16.81358 29.629424,17.0603547 30.1871968,17.3521302 C29.3897201,18.9830458 28.9112924,20.7526493 28.7778945,22.564843 L27.9949655,22.0259401 Z" id="Path" fill="#D4E1F4"></path>
                    <path d="M32.1105963,46.7068781 C31.978285,45.1966767 31.3037041,43.7864236 30.212714,42.7392376 L31.2811359,42.3520661 L30.9612698,41.9234174 L28.7112495,42.7399917 C29.8022396,43.7871777 30.4768205,45.1974308 30.6091318,46.7076322 C30.6110832,46.7325186 30.6202394,46.7577066 30.6202394,46.7830455 L30.6202394,54.2975207 L32.1212696,54.2975207 L32.1212535,46.7819897 C32.1217039,46.7569525 32.1125477,46.7317645 32.1105963,46.7068781 Z" id="Path" fill="#D4E1F4"></path>
                    <path d="M35.1147262,45.4771901 C35.1297363,45.4970992 35.1462475,45.5151983 35.1624584,45.53375 L35.1812211,45.4236467 L35.1132252,45.4750785 L35.1147262,45.4771901 Z" id="Path" fill="#D4E1F4"></path>
                    <path d="M36.474645,40.1851426 L36.474645,37.9055517 C35.9691878,37.8639379 35.467483,37.7848402 34.9736308,37.668905 L34.9736308,40.1851426 L37.3709006,41.8090909 L38.1214077,41.3008058 L36.474645,40.1851426 Z" id="Path" fill="#D4E1F4"></path>
                    <path d="M38.846998,37.9422025 C39.1596592,37.9422025 39.4708195,37.9281756 39.7768763,37.9014793 L39.7768763,37.6559339 C39.2259096,37.7897778 38.6646063,37.876262 38.0990426,37.9144504 C38.3456592,37.9328512 38.5948276,37.9422025 38.846998,37.9422025 Z" id="Path" fill="#D4E1F4"></path>
                    <path d="M33.8744381,16.4551653 C32.3651684,15.6476405 30.9396552,14.8849112 29.6025517,14.6745083 C29.1964763,14.6098723 28.8044358,14.4757551 28.4434686,14.2779855 C30.6206897,13.453719 33.1365396,12.2985393 34.0944868,11.8376136 C34.2217728,11.7763781 34.3484584,11.7147906 34.4745436,11.6528512 C35.0884191,11.3269079 35.7317469,11.0603543 36.3958418,10.8567893 C36.9542892,10.7063851 37.5251619,10.6071875 38.1014442,10.5604153 C37.8530264,10.5414112 37.6032576,10.5287417 37.3509371,10.5287417 C36.5214784,10.5296717 35.6957268,10.6399623 34.8948276,10.8567893 C34.2307327,11.0603543 33.5874049,11.3269079 32.9735294,11.6528512 C32.8472441,11.714489 32.7205585,11.7760764 32.5934726,11.8376136 C31.6355254,12.2985393 29.1196755,13.453719 26.9432049,14.2781364 C27.3041721,14.4759059 27.6962126,14.6100231 28.102288,14.6746591 C29.4393915,14.885062 30.8649047,15.6477913 32.3741744,16.4553161 C34.6681744,17.6825909 37.1999351,19.0361074 39.9074645,18.7495372 C37.7610142,18.5335537 35.7391481,17.4528822 33.8744381,16.4551653 Z" id="Path" fill="#D4E1F4"></path>
                    <path d="M30.3601136,24.8124587 L30.6411034,25.0055165 C30.918647,25.1961201 31.2787337,25.2155325 31.5749796,25.0558623 C31.8712255,24.896192 32.0543101,24.5840218 32.0498053,24.2462562 L32.0433509,23.7636116 C32.0218419,22.0689331 32.3469753,20.3878763 32.9985963,18.8246488 C32.5828154,18.6146983 32.1778418,18.400374 31.7845761,18.1902727 L31.7803732,18.1963058 C30.9415865,19.9297798 30.5176311,21.8362578 30.5423367,23.7636116 L30.5487911,24.2462562 C30.5515666,24.451021 30.4850401,24.6506605 30.3601136,24.8124587 Z" id="Path" fill="#D4E1F4"></path>
                    <path d="M29.8637282,27.0861674 C29.8638475,26.6408396 29.5415142,26.2616135 29.1037647,26.1920682 C28.9550142,26.1397314 28.6327465,26.0080599 28.5156673,25.9546674 C27.9408305,25.5774151 27.6656477,24.8766116 27.8292535,24.2065888 C27.8364584,24.1764236 27.8465152,24.1503306 27.8555213,24.1227293 L26.9558134,23.5043409 C26.6399809,23.6137474 26.4027072,23.8791969 26.3282394,24.206438 C26.1646335,24.8764607 26.4398163,25.5772643 27.0146531,25.9545165 C27.1317323,26.0079091 27.454,26.1395806 27.6027505,26.1919174 C28.0405,26.2614627 28.3628333,26.6406888 28.362714,27.0860165 C28.3723887,32.0808428 32.4017295,36.1264087 37.3725517,36.1321343 C37.6256227,36.1321343 37.8753915,36.1188616 38.1230588,36.0981983 C33.4602872,35.7018016 29.8735467,31.7881895 29.8637282,27.0861674 L29.8637282,27.0861674 Z" id="Path" fill="#D4E1F4"></path>
                    <path d="M27.5418093,44.118093 C27.3155812,43.8881913 27.0644484,43.684463 26.7931034,43.5107149 C25.646462,44.2420359 24.8989801,45.4633122 24.7667343,46.8215062 L24.7667343,54.2975207 L26.2677485,54.2975207 L26.2677485,46.8215062 C26.3659877,45.7987295 26.8166194,44.84254 27.5418093,44.118093 L27.5418093,44.118093 Z" id="Path" fill="#D4E1F4"></path>
                    <path d="M60.7910751,24.4338843 C67.5058718,24.4338843 72.9492901,18.964173 72.9492901,12.2169421 C72.9492901,5.46971131 67.5058718,-1.36750115e-14 60.7910751,-1.42108547e-14 C54.0762783,-1.44787763e-14 48.63286,5.46971131 48.63286,12.2169421 C48.6403876,18.9610374 54.0793988,24.4263203 60.7910751,24.4338843 L60.7910751,24.4338843 Z M52.4341785,11.3119835 L50.4756552,11.3119835 C50.6589065,9.18360791 51.4925018,7.16420176 52.8622677,5.53035331 L54.2444016,6.91916322 C54.471937,7.14779771 54.8035772,7.23708965 55.1143963,7.15340363 C55.4252155,7.0697176 55.6679929,6.82576751 55.7512767,6.513447 C55.8345604,6.20112649 55.7456977,5.86788447 55.5181623,5.63925 L54.1360284,4.25044008 C55.7621117,2.87372565 57.7720445,2.03588299 59.8904665,1.85169628 L59.8904665,3.81967975 C59.8904665,4.31947463 60.2936827,4.72463843 60.7910751,4.72463843 C61.2884674,4.72463843 61.6916836,4.31947463 61.6916836,3.81967975 L61.6916836,1.85169628 C63.809828,2.03583273 65.8195268,2.87345457 67.4455213,4.24983678 L66.0633874,5.63864669 C65.7116481,5.99208497 65.7116481,6.56512164 66.0633874,6.91855992 C66.4151267,7.27199819 66.9854088,7.27199819 67.3371481,6.91855992 L68.7192819,5.52975 C70.0893785,7.16368768 70.9231936,9.18332892 71.1064949,11.3119835 L69.1479716,11.3119835 C68.6505793,11.3119835 68.2473631,11.7171473 68.2473631,12.2169421 C68.2473631,12.716737 68.6505793,13.1219008 69.1479716,13.1219008 L71.1064949,13.1219008 C70.9232436,15.2502764 70.0896483,17.2696825 68.7198824,18.903531 L67.3377485,17.5147211 C66.9860092,17.1612828 66.4157271,17.1612828 66.0639879,17.5147211 C65.7122486,17.8681594 65.7122486,18.441196 66.0639878,18.7946343 L67.4461217,20.1834442 C65.8200384,21.5601586 63.8101056,22.3980013 61.6916836,22.582188 L61.6916836,20.6142045 C61.6916836,20.1144097 61.2884674,19.7092459 60.7910751,19.7092459 C60.2936827,19.7092459 59.8904665,20.1144097 59.8904665,20.6142045 L59.8904665,22.582188 C57.7723221,22.3980516 55.7626233,21.5604297 54.1366288,20.1840475 L55.5187627,18.7952376 C55.8705019,18.4417993 55.8705019,17.8687627 55.5187626,17.5153244 C55.1670234,17.1618862 54.5967413,17.1618861 54.245002,17.5153244 L52.8628682,18.9041343 C51.4927716,17.2701966 50.6589565,15.2505554 50.4756552,13.1219008 L52.4341785,13.1219008 C52.9315708,13.1219008 53.334787,12.716737 53.334787,12.2169421 C53.334787,11.7171473 52.9315708,11.3119835 52.4341785,11.3119835 L52.4341785,11.3119835 Z" id="Shape" fill="#43D92D"></path>
                    <path d="M24.7667343,46.8466942 C24.8990678,45.4885299 25.6465279,44.2672892 26.7931034,43.5359029 C27.9315768,44.2752827 28.6763844,45.4921895 28.8194726,46.8466942 L28.8194726,54.2975207 L30.6206897,54.2975207 L30.6206897,46.8070269 C30.6206897,46.7818388 30.6115335,46.7568017 30.609432,46.7316136 C30.4773138,45.2214342 29.80276,43.8111799 28.7116998,42.764124 L30.9617201,41.9473988 L33.6138621,45.5019256 C33.9003082,45.8861634 34.4357153,45.9783567 34.8331359,45.711876 L35.1378418,45.507657 L33.5317566,54.0844029 L35.3019026,54.4190868 L37.2329574,44.1037645 L37.3748032,44.0087438 L37.7111805,44.2340785 L39.6156673,54.4187851 L41.3859635,54.0845537 L39.8062961,45.6382727 L39.9172211,45.7124793 C40.3149098,45.9788877 40.8504442,45.8867292 41.1372454,45.5025289 L43.7904381,41.9480021 L46.0419594,42.7647273 C44.9497669,43.8114157 44.273806,45.2216003 44.1401744,46.7322169 C44.138073,46.7571033 44.1289168,46.7821405 44.1289168,46.8076302 L44.1289168,54.2975207 L45.9301339,54.2975207 L45.9301339,46.8466942 C46.0732655,45.4922443 46.818068,44.2754012 47.956503,43.5360537 C49.1033827,44.2672105 49.8511893,45.4884188 49.9837728,46.8466942 L49.9837728,54.2975207 L51.7849899,54.2975207 L51.7849899,46.8070269 C51.7849899,46.7818891 51.7839391,46.7567514 51.7818377,46.7316136 C51.5959182,44.5761991 50.3122622,42.6713211 48.3895456,41.6976302 C48.3580243,41.6817934 48.3607262,41.6674649 48.3275538,41.6558512 L44.4300203,40.229938 L44.4300203,38.8459545 C44.4159223,38.5068603 44.2208005,38.2018073 43.9196755,38.0480826 C43.8928073,38.033 43.8474767,38.0221405 43.8195578,38.0106777 L43.7959919,38.0091694 L41.5780933,37.1016467 L41.5780933,37.0833967 C45.1805274,35.5030372 47.8512819,31.9619339 48.1025517,27.7884153 C49.652351,27.1317086 50.5020704,25.4449887 50.1112089,23.8011674 C49.9122095,22.9593294 49.3343301,22.2586661 48.5480527,21.9058822 L48.6765396,21.0111798 C48.6796917,20.9893099 48.6823935,20.9672893 48.6840446,20.9452686 C48.9428152,17.268128 47.4157053,13.6922876 44.5850979,11.3472832 C41.7544905,9.00227872 37.9699595,8.17771298 34.4269615,9.13404959 C33.6516759,9.36599499 32.9006445,9.67306141 32.1844462,10.0509236 C32.0619635,10.1112541 31.9390805,10.1710317 31.8157972,10.2302562 C30.652211,10.7898223 27.1380365,12.3983864 24.8797606,13.1110413 C24.6025446,13.1985369 24.3843705,13.4150532 24.2938521,13.6924978 C24.2033337,13.9699423 24.2515928,14.2742262 24.4234523,14.509655 C25.0233158,15.2571689 25.807618,15.8337152 26.6982394,16.1818678 C26.1379509,17.7032154 25.9055222,19.3267653 26.0163286,20.9451178 C26.0178296,20.9680434 26.0203813,20.9903657 26.0236836,21.0137438 L26.1527708,21.9015083 C25.3612239,22.2527953 24.7788321,22.9559788 24.5788073,23.8019215 C24.2265755,25.2457505 24.8383341,26.7534419 26.0948316,27.5381942 C26.2497205,27.626018 26.4117638,27.7004426 26.5792089,27.7606632 C26.8244127,31.868005 29.358557,35.4834079 33.1246815,37.0989318 L30.948211,37.9996674 L30.9522637,38.0097727 C30.9232941,38.021688 30.8590507,38.0337541 30.8311318,38.0488368 C30.5300068,38.2025614 30.334885,38.5076144 30.320787,38.8467087 L30.320787,40.2306921 L26.4226531,41.656907 C26.3952189,41.6689959 26.3686391,41.6829547 26.3430994,41.698686 C24.4227523,42.6734016 23.1423951,44.5786112 22.9601136,46.7326694 C22.9580122,46.7575558 22.9658174,46.782593 22.9658174,46.8080826 L22.9658174,54.2975207 L24.7670345,54.2975207 L24.7667343,46.8466942 Z M34.5083164,43.7315248 L32.1217039,40.5819669 L32.1217039,40.536719 L35.699071,42.9212851 L34.5083164,43.7315248 Z M39.7768763,40.2044483 L37.3709006,41.833374 L34.9736308,40.2103306 L34.9736308,37.6939421 C35.7513956,37.8762923 36.5474786,37.9679961 37.3461339,37.9672397 C38.1648442,37.9692669 38.9808672,37.8730626 39.7768763,37.6806694 L39.7768763,40.2044483 Z M42.6288032,40.5815145 L40.2429412,43.7309215 L39.0514361,42.9209835 L42.6288032,40.5368698 L42.6288032,40.5815145 Z M32.5934726,11.8626508 C32.7205585,11.8015158 32.8469439,11.7400792 32.9726288,11.6783409 C33.5865151,11.3523006 34.2298377,11.0855978 34.893927,10.8818264 C37.8688011,10.0845261 41.0437468,10.7766651 43.4223524,12.7410254 C45.8009579,14.7053857 47.0916757,17.701194 46.889432,20.7882583 L46.7166653,22.0006012 L46.4692982,22.1926033 L46.4653955,22.1330269 C46.3299767,20.0949639 44.8501697,18.401886 42.856357,18.0038512 C42.6631366,17.9656523 42.4627816,17.9921421 42.2859716,18.0792645 C38.6752819,19.8531343 35.3271197,18.0616178 32.3729736,16.4805041 C30.863854,15.6729793 29.4381907,14.91025 28.1012373,14.6998471 C27.6951088,14.6352336 27.3030152,14.5011157 26.9420041,14.3033244 C29.1181744,13.4793595 31.6347748,12.3237273 32.5934726,11.8626508 Z M27.9948154,22.0508264 L27.8109412,20.7869008 C27.7189703,19.3737445 27.9380604,17.9575858 28.4526247,16.6391736 C29.0493919,16.8385221 29.6294154,17.0852998 30.1871968,17.3771674 C29.3897541,19.0079981 28.9112789,20.7774865 28.7777444,22.5895785 L27.9948154,22.0508264 Z M28.3691684,27.1262872 L28.3691684,27.1112045 C28.3676968,26.6652462 28.044186,26.2863561 27.6057525,26.2171054 C27.457002,26.1647686 27.1332333,26.0330971 27.0163043,25.9798554 C26.4408061,25.6030354 26.1650641,24.9019738 26.3286897,24.231626 C26.4028893,23.9042125 26.6400764,23.6385048 26.9559635,23.5289256 L29.1400892,25.0301012 C29.4177037,25.2208403 29.7779527,25.240263 30.0742849,25.0804682 C30.370617,24.9206733 30.5536563,24.6082865 30.5489412,24.2703884 L30.5423367,23.7877438 C30.5176387,21.8603594 30.9415392,19.9538455 31.7802231,18.2202872 L31.784426,18.2142541 C33.9299757,19.3605351 36.4164057,20.6341136 39.1628114,20.6339628 C40.409074,20.6334108 41.6407635,20.3646429 42.775002,19.8457438 C43.8409334,20.175947 44.5939005,21.1323488 44.6683813,22.2506715 L44.783359,24.0061405 C44.8052403,24.3398361 45.0084833,24.6342055 45.3118896,24.7716441 C45.6152958,24.9090827 45.9694022,24.8671843 46.2327383,24.662688 L47.7074848,23.5176136 C48.0375068,23.6206027 48.2881389,23.8921493 48.3655294,24.2305702 C48.3963894,24.3576461 48.4119115,24.4879931 48.4117606,24.6187975 C48.4231977,25.4017197 47.8693538,26.0780673 47.1025761,26.2175579 C46.6763916,26.2964262 46.370554,26.6749895 46.3813387,27.1102996 L46.3813387,27.1262872 C46.3813387,32.124236 42.3491771,36.175874 37.3752535,36.175874 C32.40133,36.175874 28.3691684,32.124236 28.3691684,27.1262872 Z" id="Shape" fill="#24527a"></path>
                    <path d="M63.6923854,16.9623946 C63.8981856,17.2133513 64.2221617,17.3340628 64.5410379,17.2785975 C64.8599142,17.2231321 65.1246588,17.0000185 65.2345344,16.6941532 C65.3444099,16.3882878 65.2825214,16.046702 65.0724178,15.7993719 L61.6916836,11.7493802 L61.6916836,7.28959298 C61.6916836,6.7897981 61.2884674,6.3846343 60.7910751,6.3846343 C60.2936827,6.3846343 59.8904665,6.7897981 59.8904665,7.28959298 L59.8904665,12.0781818 C59.8903704,12.2907801 59.9647669,12.4966257 60.1006085,12.6596178 L63.6923854,16.9623946 Z" id="Path" fill="#24527a"></path>
                    <path d="M73.6606207,62.8946281 L67.5656024,54.9982603 C66.8445314,53.9029916 65.6253817,53.2434992 64.3184584,53.2417355 L11.0821379,53.2417355 C9.92245039,53.2411585 8.82294042,53.7603618 8.08326166,54.657845 L0.252920892,62.8192149 C0.0734189731,62.9969214 -0.0181585032,63.2456236 0.0030020284,63.4979339 L0,63.4979339 L0,66.4541322 C0,66.9539711 0.403322515,67.4194215 0.900608519,67.4194215 L4.5030426,67.4194215 L4.5030426,72.0950413 C4.5030426,72.5948362 4.90625876,73 5.40365112,73 L68.4462475,73 C68.9436398,73 69.346856,72.5948362 69.346856,72.0950413 L69.346856,67.4194215 L72.9492901,67.4194215 C73.4465761,67.4194215 73.8498986,66.9529153 73.8498986,66.4530764 L73.8498986,63.4979339 L73.848998,63.4979339 C73.872119,63.2792905 73.8039006,63.060811 73.6606207,62.8946281 Z M9.40325355,55.9244855 C9.42081542,55.9063864 9.43762677,55.8679256 9.45353753,55.8490723 C9.84960217,55.3508987 10.4476122,55.0580922 11.0821379,55.0516529 L64.3184584,55.0516529 C65.0294476,55.0520095 65.6919051,55.4140735 66.0785477,56.013624 C66.0920568,56.034438 66.1063164,56.0873781 66.1214767,56.1069855 L71.1093469,62.5925227 L3.02259229,62.5925227 L9.40325355,55.9244855 Z M67.5456389,71.1900826 L6.30425963,71.1900826 L6.30425963,67.4194215 L67.5456389,67.4194215 L67.5456389,71.1900826 Z M1.80121704,65.6095041 L1.80121704,64.4028926 L72.0486815,64.4028926 L72.0486815,65.6095041 L1.80121704,65.6095041 Z" id="Shape" fill="#43D92D"></path>
                </g>
            </g>
        </g>
    </g>
</svg>