<?xml version="1.0" encoding="UTF-8"?>
<svg width="85px" height="46px" viewBox="0 0 85 46" version="1.1" xmlns="http://www.w3.org/2000/svg" xmlns:xlink="http://www.w3.org/1999/xlink">
    <!-- Generator: Sketch 54 (76480) - https://sketchapp.com -->
    <title>Application integration</title>
    <desc>Created with Sketch.</desc>
    <g id="Page-1" stroke="none" stroke-width="1" fill="none" fill-rule="evenodd">
        <g id="Biztalk" transform="translate(-419.000000, -1236.000000)" fill-rule="nonzero">
            <g id="Group-4" transform="translate(391.000000, 1200.000000)">
                <g id="Application-integration" transform="translate(28.000000, 36.000000)">
                    <path d="M28.1075697,2.04429819 L23.0278884,2.04444444 C22.402946,2.03744684 21.8010945,2.28180923 21.3559983,2.72326158 C20.910902,3.16471393 20.6594082,3.76671075 20.6573705,4.39555556 L20.6573705,26.9185185 L25.7370518,26.9185185 L25.7370518,4.39555556 C25.7390894,3.76671075 25.9905833,3.16471393 26.4356796,2.72326158 C26.8807758,2.28180923 27.4826273,2.03744684 28.1075697,2.04429819 Z" id="Path" fill="#D4E1F4"/>
                    <path d="M25.7370518,33.7844444 L25.7370518,28.962963 L20.6573705,28.962963 L20.6573705,33.7844444 C20.660085,34.4115369 20.9123491,35.0114013 21.3577947,35.4499987 C21.8032402,35.888596 22.4047396,36.1293695 23.0278884,36.1185185 L28.1075697,36.1185185 C27.4844209,36.1293695 26.8829215,35.888596 26.4374759,35.4499987 C25.9920304,35.0114013 25.7397663,34.4115369 25.7370518,33.7844444 Z" id="Path" fill="#D4E1F4"/>
                    <path d="M68.4185657,19.9333333 L65.0199203,19.9333333 L65.0199203,21.9777778 L68.4185657,21.9777778 C70.0287951,21.9613936 71.4721712,20.9748349 72.0806773,19.4746963 C72.3747728,18.7379195 73.0767957,18.248247 73.8656773,18.2296296 L74.4784562,18.2296296 C74.8922909,19.4267808 76.019238,20.2246864 77.2788845,20.2124 C78.3497351,20.2205187 79.3427125,19.6503482 79.8804806,18.7185559 C80.4182487,17.7867636 80.4182487,16.6363994 79.8804806,15.7046071 C79.3427125,14.7728148 78.3497351,14.2026442 77.2788845,14.210763 C76.0206966,14.1949332 74.8932014,14.9898657 74.4784562,16.1851852 L73.8656773,16.1851852 C72.2557997,16.2020469 70.8129097,17.1885014 70.2044124,18.6882667 C69.9102325,19.4253522 69.2077724,19.9150974 68.4185657,19.9333333 L68.4185657,19.9333333 Z M76.3284761,17.2169481 C76.3284761,16.688428 76.7542916,16.2599778 77.2795618,16.2599778 C77.8048319,16.2599778 78.2306474,16.688428 78.2306474,17.2169481 C78.2306474,17.7454683 77.8048319,18.1739185 77.2795618,18.1739185 C76.7545624,18.1732614 76.3291291,17.7451959 76.3284761,17.2169481 L76.3284761,17.2169481 Z" id="Shape" fill="#43D92D"/>
                    <path d="M9.65410359,26.1578148 C9.28216358,26.8433327 8.56502507,27.2668065 7.78884462,27.2592593 L6.48844622,27.2592593 C6.06141434,26.237037 4.9747012,25.3359481 3.7012251,25.3359481 C2.18098752,25.3332384 0.90241903,26.4823632 0.734172559,28.0026129 C0.565926089,29.5228627 1.56194194,30.9268411 3.045532,31.2606923 C4.52912206,31.5945435 6.02464314,30.7512339 6.51604582,29.3037037 L7.78884462,29.3037037 C9.31159977,29.3117218 10.7152876,28.4762658 11.4416434,27.1296074 C11.8119101,26.4426051 12.5274867,26.0159699 13.3041932,26.0191333 L20.0242729,26.0462222 L20.0308765,24.0039926 L13.3075797,23.9736667 C11.7829826,23.9693828 10.3793954,24.8084856 9.65410359,26.1578148 Z M3.7012251,29.3122222 C3.17597705,29.3121281 2.75024643,28.8836362 2.75030877,28.3551383 C2.75037111,27.8266403 3.17620279,27.3982501 3.70145085,27.3982815 C4.22669891,27.3983129 4.65248007,27.8267539 4.65248008,28.3552519 C4.65182685,28.883566 4.22629059,29.311659 3.7012251,29.3122222 Z" id="Shape" fill="#43D92D"/>
                    <path d="M3.03087649,12.5116593 C4.31772908,12.5116593 5.41494024,11.5851852 5.83181275,10.562963 L9.58061753,10.562963 C10.132337,10.5449977 10.6201538,10.9208746 10.746743,11.4614963 C11.0800986,12.9395876 12.3922266,13.9840676 13.8985159,13.9703704 L19.9800797,13.9703704 L19.9800797,11.9259259 L13.8985159,11.9259259 C13.3467552,11.9439067 12.8588816,11.5680406 12.7322211,11.0273926 C12.3989365,9.5493277 11.0868657,8.50483708 9.58061753,8.51851852 L5.83096614,8.51851852 C5.32637918,7.08122647 3.82951896,6.25442797 2.35348058,6.59771134 C0.877442204,6.94099471 -0.10698949,8.34486916 0.0664620952,9.8591736 C0.23991368,11.3734781 1.51592588,12.5152226 3.03087649,12.5116593 Z M3.03087649,8.52277778 C3.55612455,8.52287187 3.98185516,8.95136375 3.98179282,9.47986171 C3.98173048,10.0083597 3.5558988,10.4367499 3.03065074,10.4367185 C2.50540268,10.4366871 2.07962152,10.0082461 2.07962151,9.47974815 C2.08018162,8.95139511 2.50577238,8.52324729 3.03087649,8.52277778 Z" id="Shape" fill="#43D92D"/>
                    <path d="M12.1267231,35.3188 C11.7977744,36.4083061 10.7952191,37.1498791 9.66358566,37.1407407 L8.27073705,37.1407407 C7.85386454,36.1185185 6.75733068,35.1920444 5.4698008,35.1920444 C3.82016753,35.2011336 2.48746979,36.5489277 2.48684263,38.2087926 C2.49445218,39.6653991 3.54268582,40.9051918 4.97040089,41.1462077 C6.39811595,41.3872236 7.79108645,40.5595362 8.27073705,39.1851852 L9.66358566,39.1851852 C11.6952847,39.1905834 13.4894334,37.8530817 14.0759661,35.8958444 C14.4048797,34.8063371 15.4074802,34.0648 16.5391036,34.0740741 L19.9800797,34.0740741 L19.9800797,32.0296125 L16.5391036,32.0296296 C14.5074144,32.0240965 12.7132211,33.3615622 12.1267231,35.3188 Z M5.46912351,39.1809259 C5.08442986,39.1809948 4.73757756,38.9478802 4.59031422,38.5902903 C4.44305088,38.2327005 4.52437993,37.8210625 4.7963752,37.5473356 C5.06837047,37.2736086 5.47746265,37.1917031 5.83287979,37.3398139 C6.18829693,37.4879248 6.42003983,37.8368817 6.42003984,38.2239556 C6.41957321,38.7522146 5.99413402,39.1803624 5.46912351,39.1809259 L5.46912351,39.1809259 Z" id="Shape" fill="#43D92D"/>
                    <path d="M14.7955876,18.6882667 C14.1870903,17.1885014 12.7442003,16.2020469 11.1343227,16.1851852 L10.5215438,16.1851852 C10.1067986,14.9898657 8.97930339,14.1949332 7.72111554,14.210763 C6.65026494,14.2026442 5.65728753,14.7728148 5.11951944,15.7046071 C4.58175135,16.6363994 4.58175135,17.7867636 5.11951944,18.7185559 C5.65728753,19.6503482 6.65026494,20.2205187 7.72111554,20.2124 C8.98076195,20.2246864 10.1077091,19.4267808 10.5215438,18.2296296 L11.1343227,18.2296296 C11.9232043,18.248247 12.6252272,18.7379195 12.9193227,19.4746963 C13.5278288,20.9748349 14.9712049,21.9613936 16.5814343,21.9777778 L19.9800797,21.9777778 L19.9800797,19.9333333 L16.5814343,19.9333333 C15.7922276,19.9150974 15.0897675,19.4253522 14.7955876,18.6882667 Z M7.72111554,18.1739185 C7.19584543,18.1739185 6.77002988,17.7454683 6.77002988,17.2169481 C6.77002988,16.688428 7.19584543,16.2599778 7.72111554,16.2599778 C8.24638564,16.2599778 8.6722012,16.688428 8.6722012,17.2169481 C8.67164125,17.7452347 8.24615353,18.1733551 7.72111554,18.1739185 L7.72111554,18.1739185 Z" id="Shape" fill="#43D92D"/>
                    <path d="M81.2987749,25.3359481 C80.0252988,25.3359481 78.938247,26.237037 78.5115538,27.2592593 L77.2111554,27.2592593 C76.4349345,27.266794 75.7177517,26.8433325 75.3457271,26.1578148 C74.6197613,24.8080443 73.2150109,23.9692222 71.6897112,23.9746889 L64.9696315,24.0017778 L64.9762351,26.048437 L71.6929283,26.0269704 C72.4692073,26.0195625 73.1863543,26.4432378 73.5581873,27.1289259 C74.2843916,28.4759019 75.6881947,29.3116496 77.2111554,29.3037037 L78.4839542,29.3037037 C78.9757571,30.7501609 80.4706084,31.5924656 81.9532875,31.2585708 C83.4359665,30.924676 84.4313593,29.5215758 84.2634498,28.0021788 C84.0955404,26.4827818 82.818134,25.3339678 81.2987749,25.3359481 L81.2987749,25.3359481 Z M81.2987749,29.3122222 C80.7735048,29.3122222 80.3476892,28.883772 80.3476892,28.3552519 C80.3476892,27.8267317 80.7735048,27.3982815 81.2987749,27.3982815 C81.824045,27.3982815 82.2498606,27.8267317 82.2498606,28.3552519 C82.2492075,28.8834996 81.8237743,29.3115651 81.2987749,29.3122222 L81.2987749,29.3122222 Z" id="Shape" fill="#43D92D"/>
                    <path d="M79.5308765,35.1920444 C78.2440239,35.1920444 77.1468127,36.1185185 76.7299402,37.1407407 L75.3370916,37.1407407 C74.2055229,37.149845 73.2030126,36.4083745 72.8739542,35.3189704 C72.287446,33.3614229 70.4928824,32.0238173 68.4608964,32.0296296 L65.0199203,32.0296108 L65.0199203,34.0740741 L68.4608964,34.0740741 C69.5925198,34.0648 70.5951203,34.8063371 70.9240339,35.8958444 C71.5105666,37.8530817 73.3047153,39.1905834 75.3364143,39.1851852 L76.7292629,39.1851852 C77.2337839,40.6222943 78.7303445,41.4490963 80.2062529,41.106111 C81.6821612,40.7631258 82.6668,39.3597198 82.4938843,37.8455492 C82.3209686,36.3313786 81.0456353,35.1892611 79.5308765,35.1920444 L79.5308765,35.1920444 Z M79.5308765,39.1809259 C79.0056064,39.1809259 78.5797908,38.7524757 78.5797908,38.2239556 C78.5797908,37.6954354 79.0056064,37.2669852 79.5308765,37.2669852 C80.0561466,37.2669852 80.4819622,37.6954354 80.4819622,38.2239556 C80.4814022,38.7522422 80.0559145,39.1803625 79.5308765,39.1809259 L79.5308765,39.1809259 Z" id="Shape" fill="#43D92D"/>
                    <path d="M81.9699701,6.50814815 C80.705208,6.50691002 79.579569,7.31483675 79.1690339,8.51851852 L75.4193825,8.51851852 C73.9131343,8.50483708 72.6010635,9.5493277 72.2677789,11.0273926 C72.1411184,11.5680406 71.6532448,11.9439067 71.1014841,11.9259259 L65.0199203,11.9259259 L65.0199203,13.9703704 L71.1014841,13.9703704 C72.6077734,13.9840676 73.9199014,12.9395876 74.253257,11.4614963 C74.3798462,10.9208746 74.867663,10.5449977 75.4193825,10.562963 L79.1690339,10.562963 C79.5859064,11.5851852 80.6824402,12.5116593 81.9699701,12.5116593 C83.0356785,12.5116593 84.0204336,11.9395929 84.5532878,11.0109519 C85.086142,10.0823109 85.086142,8.93817799 84.5532878,8.009537 C84.0204336,7.08089601 83.0356785,6.50882958 81.9699701,6.50882963 L81.9699701,6.50814815 Z M81.9699701,10.4358667 C81.4447,10.4357726 81.0189603,10.0072461 81.0190538,9.47872594 C81.0191473,8.95020581 81.4450387,8.52183187 81.9703088,8.52192596 C82.4955789,8.52202005 82.9213186,8.95054654 82.9212251,9.47906667 C82.920945,10.0076193 82.4952724,10.4360782 81.9699701,10.4365481 L81.9699701,10.4358667 Z" id="Shape" fill="#43D92D"/>
                    <path d="M66.374502,4.39555556 C66.3718643,3.22468478 65.9061111,2.10303235 65.0800987,1.27830236 C64.2540862,0.453572362 63.135768,-0.00638736948 61.9721116,1.71582854e-14 L23.0278884,1.71582854e-14 C21.864232,-0.00638736948 20.7459138,0.453572362 19.9199013,1.27830236 C19.0938889,2.10303235 18.6281357,3.22468478 18.625498,4.39555556 L18.625498,33.7844444 C18.6288346,34.9535445 19.0953587,36.0730439 19.9217107,36.894915 C20.7480627,37.7167862 21.8660171,38.1731734 23.0278884,38.162963 L41.4840637,38.162963 L41.4840637,43.9555556 L35.185259,43.9555556 C34.6241729,43.9555556 34.1693227,44.41322 34.1693227,44.9777778 C34.1693227,45.5423355 34.6241729,46 35.185259,46 L49.814741,46 C50.1777001,46 50.5130882,45.8051656 50.6945677,45.4888889 C50.8760473,45.1726122 50.8760473,44.7829433 50.6945677,44.4666666 C50.5130882,44.15039 50.1777001,43.9555555 49.814741,43.9555556 L43.5159363,43.9555556 L43.5159363,38.162963 L61.9721116,38.162963 C63.1339829,38.1731734 64.2519373,37.7167862 65.0782893,36.894915 C65.9046413,36.0730439 66.3711654,34.9535445 66.374502,33.7844444 L66.374502,4.39555556 Z M23.0278884,2.04444444 L61.9721116,2.04444444 C62.597054,2.03744684 63.1989055,2.28180923 63.6440017,2.72326158 C64.089098,3.16471393 64.3405918,3.76671075 64.3426295,4.39555556 L64.3426295,26.9185185 L20.6573705,26.9185185 L20.6573705,4.39555556 C20.6594082,3.76671075 20.910902,3.16471393 21.3559983,2.72326158 C21.8010945,2.28180923 22.402946,2.03744684 23.0278884,2.04444444 Z M61.9721116,36.1185185 L23.0278884,36.1185185 C22.4047396,36.1293695 21.8032402,35.888596 21.3577947,35.4499987 C20.9123491,35.0114013 20.660085,34.4115369 20.6573705,33.7844444 L20.6573705,28.962963 L64.3426295,28.962963 L64.3426295,33.7844444 C64.339915,34.4115369 64.0876509,35.0114013 63.6422053,35.4499987 C63.1967598,35.888596 62.5952604,36.1293695 61.9721116,36.1185185 L61.9721116,36.1185185 Z" id="Shape" fill="#24527a"/>
                </g>
            </g>
        </g>
    </g>
</svg>