<?xml version="1.0" encoding="UTF-8"?>
<svg width="53px" height="66px" viewBox="0 0 53 66" version="1.1" xmlns="http://www.w3.org/2000/svg" xmlns:xlink="http://www.w3.org/1999/xlink">
    <!-- Generator: Sketch 54 (76480) - https://sketchapp.com -->
    <title>Content Streaming Applications</title>
    <desc>Created with Sketch.</desc>
    <g id="Page-1" stroke="none" stroke-width="1" fill="none" fill-rule="evenodd">
        <g id="Android-App-Development" transform="translate(-406.000000, -1463.000000)" fill-rule="nonzero">
            <g id="Group-23" transform="translate(392.000000, 1457.000000)">
                <g id="Content-Streaming-Applications" transform="translate(14.000000, 6.000000)">
                    <path d="M6.10393258,6.86877828 C6.10705036,4.06616739 8.37146907,1.79498229 11.1657303,1.7918552 L6.6994382,1.7918552 C3.90517694,1.79498229 1.64075822,4.06616739 1.63764045,6.86877828 L1.63764045,8.95927602 L6.10393258,8.95927602 L6.10393258,6.86877828 Z" id="Path" fill="#D4E1F4"/>
                    <rect id="Rectangle" fill="#D4E1F4" x="1.63764045" y="10.7511312" width="4.46629213" height="42.7058824"/>
                    <path d="M6.10393258,59.1312217 L6.10393258,55.2488688 L1.63764045,55.2488688 L1.63764045,59.1312217 C1.64075822,61.9338326 3.90517694,64.2050177 6.6994382,64.2081448 L11.1657303,64.2081448 C8.37146907,64.2050177 6.10705036,61.9338326 6.10393258,59.1312217 L6.10393258,59.1312217 Z" id="Path" fill="#D4E1F4"/>
                    <path d="M30.7429775,1.06099142e-15 L6.92275281,1.06099142e-15 C3.14665169,1.06099142e-15 0,3.08139367 0,6.86877828 L0,59.1312217 C0,62.9186063 3.14665169,66 6.92275281,66 L30.7429775,66 C32.5509068,65.9949734 34.2822525,65.2672909 35.5536516,63.9780794 C36.8250508,62.688868 37.5316008,60.9445 37.5168539,59.1312217 L37.5168539,48.081448 L35.7303371,48.081448 L35.7303371,53.4570136 L1.78651685,53.4570136 L1.78651685,10.7511312 L26.127809,10.7511312 C26.621142,10.7511312 27.0210674,10.3500108 27.0210674,9.85520362 C27.0210674,9.36039647 26.621142,8.95927602 26.127809,8.95927602 L1.78651685,8.95927602 L1.78651685,6.86877828 C1.78651685,4.06930317 4.13161798,1.7918552 6.92275281,1.7918552 L30.7429775,1.7918552 C33.5341124,1.7918552 35.7303371,4.06930317 35.7303371,6.86877828 L35.7303371,8.95927602 L33.7205056,8.95927602 C33.2271726,8.95927602 32.8272472,9.36039647 32.8272472,9.85520362 C32.8272472,10.3500108 33.2271726,10.7511312 33.7205056,10.7511312 L35.7303371,10.7511312 L35.7303371,17.1719457 L37.5168539,17.1719457 L37.5168539,6.86877828 C37.5316008,5.05550004 36.8250508,3.31113202 35.5536516,2.02192058 C34.2822525,0.732709139 32.5509068,0.00502662586 30.7429775,1.06099142e-15 Z M35.7303371,55.2488688 L35.7303371,59.1312217 C35.7303371,61.9306968 33.5341124,64.2081448 30.7429775,64.2081448 L6.92275281,64.2081448 C4.13161798,64.2081448 1.78651685,61.9306968 1.78651685,59.1312217 L1.78651685,55.2488688 L35.7303371,55.2488688 Z" id="Shape" fill="#0B75FF"/>
                    <path d="M29.0597809,8.95927602 C28.5664479,8.95927602 28.1665225,9.36039647 28.1665225,9.85520362 C28.1665225,10.3500108 28.5664479,10.7511312 29.0597809,10.7511312 L30.7148399,10.7511312 C31.2081729,10.7511312 31.6080983,10.3500108 31.6080983,9.85520362 C31.6080983,9.36039647 31.2081729,8.95927602 30.7148399,8.95927602 L29.0597809,8.95927602 Z" id="Path" fill="#0B75FF"/>
                    <path d="M18.8328652,62.8642534 C20.5595307,62.8642534 21.9592697,61.4603318 21.9592697,59.7285068 C21.9592697,57.9966818 20.5595307,56.5927602 18.8328652,56.5927602 C17.1061996,56.5927602 15.7064607,57.9966818 15.7064607,59.7285068 C15.7084297,61.4595131 17.1070159,62.8622785 18.8328652,62.8642534 Z M18.8328652,58.3846154 C19.5728647,58.3846154 20.1727528,58.9862961 20.1727528,59.7285068 C20.1727528,60.4707175 19.5728647,61.0723982 18.8328652,61.0723982 C18.0928657,61.0723982 17.4929775,60.4707175 17.4929775,59.7285068 C17.493798,58.9866372 18.0932058,58.3854383 18.8328652,58.3846154 Z" id="Shape" fill="#0B75FF"/>
                    <path d="M49.0547753,49.1266968 C50.0664117,49.1376419 51.0396766,48.7388164 51.7542541,48.0205016 C52.4688316,47.3021867 52.8642948,46.3251256 52.8511236,45.3104932 L52.8511236,20.2705113 C52.8653978,19.2528917 52.4712256,18.2722321 51.7572551,17.5490794 C51.0432846,16.8259268 50.0694543,16.4209905 49.0547753,16.4253394 L44.9606742,16.4253394 L44.9606742,14.7166561 C44.9606742,14.221849 44.5607487,13.8207285 44.0674157,13.8207285 C43.5740827,13.8207285 43.1741573,14.221849 43.1741573,14.7166561 L43.1741573,16.4253394 L31.1151685,16.4253394 L31.1151685,14.7166561 C31.1151685,14.221849 30.7152431,13.8207285 30.2219101,13.8207285 C29.7285771,13.8207285 29.3286517,14.221849 29.3286517,14.7166561 L29.3286517,16.4253394 L25.2345506,16.4253394 C23.1001096,16.4253394 21.2893258,18.1298416 21.2893258,20.2705113 L21.2893258,45.3104932 C21.2893258,47.4513122 23.1001096,49.1266968 25.2345506,49.1266968 L49.0547753,49.1266968 Z M25.2345506,18.2171946 L29.3286517,18.2171946 L29.3286517,19.8516652 C29.3286517,20.3464723 29.7285771,20.7475928 30.2219101,20.7475928 C30.7152431,20.7475928 31.1151685,20.3464723 31.1151685,19.8516652 L31.1151685,18.2171946 L43.1741573,18.2171946 L43.1741573,19.8516652 C43.1741573,20.3464723 43.5740827,20.7475928 44.0674157,20.7475928 C44.5607487,20.7475928 44.9606742,20.3464723 44.9606742,19.8516652 L44.9606742,18.2171946 L49.0547753,18.2171946 C49.5958164,18.2123285 50.1155714,18.4283358 50.4946207,18.8155862 C50.8736699,19.2028367 51.0794233,19.7280352 51.0646067,20.2705113 L51.0646067,22.9954751 L23.0758427,22.9954751 L23.0758427,20.2705113 C23.0758427,19.1177511 24.0852247,18.2171946 25.2345506,18.2171946 Z M23.0758427,45.3104932 L23.0758427,24.7873303 L51.0646067,24.7873303 L51.0646067,45.3104932 C51.0783197,45.8499976 50.87126,46.3716195 50.4915881,46.7540337 C50.1119162,47.136448 49.5927254,47.3463223 49.0547753,47.3348416 L25.2345506,47.3348416 C24.0852247,47.3348416 23.0758427,46.4632534 23.0758427,45.3104932 Z" id="Shape" fill="#43D92D"/>
                    <path d="M28.5556854,34.0452489 L45.7336404,34.0452489 C46.2269735,34.0452489 46.6268989,33.6441284 46.6268989,33.1493213 C46.6268989,32.6545141 46.2269735,32.2533937 45.7336404,32.2533937 L28.5556854,32.2533937 C28.0623524,32.2533937 27.662427,32.6545141 27.662427,33.1493213 C27.662427,33.6441284 28.0623524,34.0452489 28.5556854,34.0452489 Z" id="Path" fill="#43D92D"/>
                    <path d="M28.5556854,39.8687783 L38.4919944,39.8687783 C38.9853274,39.8687783 39.3852528,39.4676578 39.3852528,38.9728507 C39.3852528,38.4780435 38.9853274,38.0769231 38.4919944,38.0769231 L28.5556854,38.0769231 C28.0623524,38.0769231 27.662427,38.4780435 27.662427,38.9728507 C27.662427,39.4676578 28.0623524,39.8687783 28.5556854,39.8687783 Z" id="Path" fill="#43D92D"/>
                </g>
            </g>
        </g>
    </g>
</svg>