<?xml version="1.0" encoding="UTF-8"?>
<svg width="66px" height="66px" viewBox="0 0 66 66" version="1.1" xmlns="http://www.w3.org/2000/svg" xmlns:xlink="http://www.w3.org/1999/xlink">
    <!-- Generator: Sketch 54 (76480) - https://sketchapp.com -->
    <title>Open Source Applications</title>
    <desc>Created with Sketch.</desc>
    <g id="Page-1" stroke="none" stroke-width="1" fill="none" fill-rule="evenodd">
        <g id="Php-Development" transform="translate(-809.000000, -1895.000000)" fill-rule="nonzero">
            <g id="Group-4" transform="translate(781.000000, 1836.000000)">
                <g id="Open-Source-Applications" transform="translate(28.000000, 59.000000)">
                    <path d="M3.6,36.6606186 C5.27191309,36.6581893 6.72275845,35.5089201 7.10454545,33.8845361 L24.8181818,33.8845361 L24.8181818,32.2515464 L7.10454545,32.2515464 C6.67644165,30.4237257 4.91013987,29.233149 3.05117212,29.5193678 C1.19220438,29.8055867 -0.132388011,31.4720577 0.011449507,33.3436459 C0.155287025,35.2152341 1.71903717,36.6606412 3.6,36.6606186 L3.6,36.6606186 Z M3.6,31.1095423 C4.39431602,31.1095424 5.11039801,31.5870985 5.41426758,32.3194798 C5.71813715,33.0518612 5.54993671,33.8948001 4.98811443,34.4551526 C4.42629215,35.015505 3.58151827,35.1828901 2.84779269,34.8792402 C2.1140671,34.5755902 1.63592235,33.8607194 1.63636364,33.0680412 C1.63726594,31.9861641 2.51588755,31.109354 3.6,31.1084536 L3.6,31.1095423 Z" id="Shape" fill="#24527a"/>
                    <path d="M62.4,29.4754639 C60.7280869,29.4778931 59.2772416,30.6271624 58.8954545,32.2515464 L41.1818182,32.2515464 L41.1818182,33.8845361 L58.8954545,33.8845361 C59.3235584,35.7123568 61.0898601,36.9029335 62.9488279,36.6167146 C64.8077956,36.3304958 66.132388,34.6640248 65.9885505,32.7924366 C65.844713,30.9208483 64.2809628,29.4754412 62.4,29.4754639 L62.4,29.4754639 Z M62.4,35.0265402 C61.605684,35.0265401 60.889602,34.548984 60.5857324,33.8166026 C60.2818629,33.0842213 60.4500633,32.2412823 61.0118856,31.6809299 C61.5737079,31.1205775 62.4184817,30.9531923 63.1522073,31.2568423 C63.8859329,31.5604923 64.3640777,32.2753631 64.3636364,33.0680412 C64.3627341,34.1499184 63.4841125,35.0267284 62.4,35.0276289 L62.4,35.0265402 Z" id="Shape" fill="#24527a"/>
                    <path d="M33.8181818,24.9030928 L33.8181818,7.22597938 C35.599226,6.81117629 36.7855737,5.12962478 36.5763705,3.31647092 C36.3671673,1.50331705 34.8289045,0.134838362 33,0.134838362 C31.1710955,0.134838362 29.6328327,1.50331705 29.4236295,3.31647092 C29.2144263,5.12962478 30.400774,6.81117629 32.1818182,7.22597938 L32.1818182,24.9030928 L33.8181818,24.9030928 Z M31.0363636,3.72865979 C31.0358672,2.93596932 31.5139769,2.22105676 32.2476981,1.9173639 C32.9814193,1.61367104 33.8262155,1.78102259 34.3880661,2.34136427 C34.9499167,2.90170595 35.1181421,3.74465553 34.8142806,4.47705362 C34.510419,5.2094517 33.7943284,5.68702253 33,5.68702268 C31.9163661,5.68612341 31.0379422,4.81005864 31.0363636,3.72865979 L31.0363636,3.72865979 Z" id="Shape" fill="#24527a"/>
                    <path d="M33,66 C34.8295209,66.0015007 36.3690622,64.6330448 36.5783723,62.8192834 C36.7876823,61.005522 35.6001515,59.3236555 33.8181818,58.9101031 L33.8181818,41.2329897 L32.1818182,41.2329897 L32.1818182,58.9101031 C30.3998485,59.3236555 29.2123177,61.005522 29.4216277,62.8192834 C29.6309378,64.6330448 31.1704791,66.0015007 33,66 L33,66 Z M33,60.4490598 C33.7943284,60.4490599 34.510419,60.9266308 34.8142806,61.6590289 C35.1181421,62.3914269 34.9499167,63.2343765 34.3880661,63.7947182 C33.8262155,64.3550599 32.9814193,64.5224114 32.2476981,64.2187186 C31.5139769,63.9150257 31.0358672,63.2001132 31.0363636,62.4074227 C31.0379422,61.3260238 31.9163661,60.4499591 33,60.4490598 L33,60.4490598 Z" id="Shape" fill="#24527a"/>
                    <path d="M50.7328636,14.2172165 L38.1681818,26.7562639 L39.3252273,27.9110598 L51.8904545,15.3717402 C53.4438078,16.3351716 55.4741799,15.9831899 56.6109334,14.5534063 C57.7476869,13.1236226 57.6295194,11.0704753 56.3362019,9.77997656 C55.0428845,8.48947786 52.9854812,8.37179601 51.5528774,9.50637417 C50.1202737,10.6409523 49.767804,12.6671796 50.7334091,14.2172165 L50.7328636,14.2172165 Z M52.4011364,10.936268 C52.9626463,10.3756035 53.8073272,10.2077493 54.5412221,10.5109922 C55.2751171,10.8142352 55.7536602,11.528841 55.7536602,12.3215196 C55.7536602,13.1141982 55.2751171,13.828804 54.5412221,14.132047 C53.8073272,14.4352899 52.9626463,14.2674357 52.4011364,13.7067711 C52.0316776,13.3400738 51.8239485,12.8415238 51.8239485,12.3215196 C51.8239485,11.8015154 52.0316776,11.3029653 52.4011364,10.936268 L52.4011364,10.936268 Z" id="Shape" fill="#24527a"/>
                    <path d="M26.6753182,38.225567 L14.1100909,50.7648866 C12.5567377,49.8014552 10.5263655,50.1534369 9.38961205,51.5832206 C8.25285858,53.0130042 8.37102606,55.0661515 9.66434351,56.3566502 C10.957661,57.6471489 13.0150643,57.7648308 14.447668,56.6302526 C15.8802717,55.4956745 16.2327414,53.4694472 15.2671364,51.9194103 L27.8318182,39.3798186 L26.6753182,38.225567 Z M13.5988636,55.1998144 C12.8324052,55.9639499 11.5903956,55.9635486 10.8244332,55.1989179 C10.0584708,54.4342873 10.0584708,53.1948385 10.8244332,52.4302078 C11.5903956,51.6655772 12.8324052,51.6651758 13.5988636,52.4293113 C14.3642189,53.1948928 14.3642189,54.434233 13.5988636,55.1998144 L13.5988636,55.1998144 Z" id="Shape" fill="#24527a"/>
                    <path d="M51.8899091,50.7643423 L39.3246818,38.225567 L38.1676364,39.3803629 L50.7328636,51.9194103 C49.8517151,53.3375443 50.0633659,55.1741916 51.2440909,56.355699 L51.2440909,56.355699 C52.5742253,57.6842104 54.7052571,57.7661991 56.1339393,56.5438295 C57.5626215,55.32146 57.806822,53.2072409 56.6942797,51.6925592 C55.5817375,50.1778776 53.4878982,49.7738876 51.8897727,50.765567 L51.8899091,50.7643423 Z M55.1775,55.1998144 C54.410259,55.9635325 53.1683773,55.9635325 52.4011364,55.1998144 L52.4011364,55.1998144 C51.8393134,54.6394622 51.6711124,53.796523 51.9749819,53.0641412 C52.2788513,52.3317594 52.9949336,51.8542031 53.78925,51.8542031 C54.5835664,51.8542031 55.2996487,52.3317594 55.6035181,53.0641412 C55.9073876,53.796523 55.7391866,54.6394622 55.1773636,55.1998144 L55.1775,55.1998144 Z" id="Shape" fill="#24527a"/>
                    <path d="M12.2106818,15.9117155 C12.88189,15.9120171 13.5398056,15.7249809 14.1100909,15.3717402 L26.6753182,27.9105155 L27.8323636,26.7557196 L15.2671364,14.2166722 C16.1476279,12.7988139 15.9360057,10.9629222 14.7559091,9.78160825 L14.7559091,9.78160825 C13.6043985,8.62993332 11.8210739,8.39425013 10.4088582,9.20710441 C8.99664253,10.0199587 8.30808027,11.6784301 8.73041156,13.2498118 C9.15274285,14.8211936 10.5805372,15.9132071 12.2108182,15.9117155 L12.2106818,15.9117155 Z M10.8225,10.936268 C11.38401,10.3756035 12.2286908,10.2077493 12.9625858,10.5109922 C13.6964807,10.8142352 14.1750238,11.528841 14.1750238,12.3215196 C14.1750238,13.1141982 13.6964807,13.828804 12.9625858,14.132047 C12.2286908,14.4352899 11.38401,14.2674357 10.8225,13.7067711 C10.4529401,13.3401276 10.2451411,12.8415575 10.2451411,12.3215196 C10.2451411,11.8014817 10.4529401,11.3029116 10.8225,10.936268 Z" id="Shape" fill="#24527a"/>
                    <path d="M25.5774545,33.6454392 C25.7309234,33.4923127 25.8171435,33.2846131 25.8171435,33.0680412 C25.8171435,32.8514694 25.7309234,32.6437698 25.5774545,32.4906433 L22.9141364,29.8328165 C22.5933946,29.5213446 22.0813968,29.5248417 21.7649574,29.8406659 C21.448518,30.15649 21.445074,30.6674325 21.7572273,30.9874763 L23.8419545,33.0680412 L21.7572273,35.1486062 C21.5458398,35.3538843 21.4615317,35.6568158 21.5365652,35.9414786 C21.6115986,36.2261414 21.8343577,36.4484674 22.1195998,36.5233797 C22.4048419,36.5982919 22.7084092,36.5141935 22.9141364,36.303266 L25.5774545,33.6454392 Z" id="Path" fill="#43D92D"/>
                    <path d="M40.4225455,32.4906433 C40.2690766,32.6437698 40.1828565,32.8514694 40.1828565,33.0680412 C40.1828565,33.2846131 40.2690766,33.4923127 40.4225455,33.6454392 L43.0858636,36.303266 C43.2915908,36.5141935 43.5951581,36.5982919 43.8804002,36.5233797 C44.1656423,36.4484674 44.3884014,36.2261414 44.4634348,35.9414786 C44.5384683,35.6568158 44.4541602,35.3538843 44.2427727,35.1486062 L42.1580455,33.0680412 L44.2427727,30.9874763 C44.4541602,30.7821981 44.5384683,30.4792667 44.4634348,30.1946039 C44.3884014,29.9099411 44.1656423,29.6876151 43.8804002,29.6127028 C43.5951581,29.5377905 43.2915908,29.621889 43.0858636,29.8328165 L40.4225455,32.4906433 Z" id="Path" fill="#43D92D"/>
                    <path d="M35.0848636,21.8483134 L33,23.9288784 L30.9151364,21.8483134 C30.5948413,21.5339164 30.0804275,21.536067 29.7627832,21.853131 C29.445139,22.170195 29.4431052,22.6835487 29.7582273,23.0031093 L32.4215455,25.6609361 C32.7410453,25.9796809 33.2589547,25.9796809 33.5784545,25.6609361 L36.2417727,23.0031093 C36.5568948,22.6835487 36.554861,22.170195 36.2372168,21.853131 C35.9195725,21.536067 35.4051587,21.5339164 35.0848636,21.8483134 L35.0848636,21.8483134 Z" id="Path" fill="#43D92D"/>
                    <path d="M30.9151364,44.2877691 L33,42.2072041 L35.0848636,44.2877691 C35.4051587,44.602166 35.9195725,44.6000154 36.2372168,44.2829514 C36.554861,43.9658874 36.5568948,43.4525338 36.2417727,43.1329732 L33.5784545,40.4751464 C33.2589547,40.1564016 32.7410453,40.1564016 32.4215455,40.4751464 L29.7582273,43.1329732 C29.5487021,43.3386401 29.4658093,43.6406519 29.5410708,43.9241618 C29.6163323,44.2076716 29.838184,44.4291182 30.122262,44.5042913 C30.4063399,44.5794644 30.7089952,44.4968138 30.9151364,44.2877691 L30.9151364,44.2877691 Z" id="Path" fill="#43D92D"/>
                    <path d="M38.6574545,28.3051546 L42.4240909,28.3051546 C42.8759602,28.3051546 43.2422727,27.9395974 43.2422727,27.4886598 C43.2422727,27.0377221 42.8759602,26.6721649 42.4240909,26.6721649 L39.4090909,26.6721649 L39.4090909,23.6633814 C39.4090909,23.2124438 39.0427784,22.8468866 38.5909091,22.8468866 C38.1390398,22.8468866 37.7727273,23.2124438 37.7727273,23.6633814 L37.7727273,27.4221155 C37.7984259,27.8987259 38.1798633,28.2794356 38.6574545,28.3051546 Z" id="Path" fill="#43D92D"/>
                    <path d="M27.3425455,37.8309278 L23.5759091,37.8309278 C23.1240398,37.8309278 22.7577273,38.196485 22.7577273,38.6474227 C22.7577273,39.0983603 23.1240398,39.4639175 23.5759091,39.4639175 L26.5909091,39.4639175 L26.5909091,42.472701 C26.5909091,42.9236387 26.9572216,43.2891959 27.4090909,43.2891959 C27.8609602,43.2891959 28.2272727,42.9236387 28.2272727,42.472701 L28.2272727,38.713967 C28.2015741,38.2373566 27.8201367,37.8566469 27.3425455,37.8309278 Z" id="Path" fill="#43D92D"/>
                    <path d="M38.5909091,43.2891959 C39.0427784,43.2891959 39.4090909,42.9236387 39.4090909,42.472701 L39.4090909,39.4639175 L42.4240909,39.4639175 C42.8759602,39.4639175 43.2422727,39.0983603 43.2422727,38.6474227 C43.2422727,38.196485 42.8759602,37.8309278 42.4240909,37.8309278 L38.6574545,37.8309278 C38.1798633,37.8566469 37.7984259,38.2373566 37.7727273,38.713967 L37.7727273,42.472701 C37.7727273,42.9236387 38.1390398,43.2891959 38.5909091,43.2891959 Z" id="Path" fill="#43D92D"/>
                    <path d="M27.4090909,22.8468866 C26.9572216,22.8468866 26.5909091,23.2124438 26.5909091,23.6633814 L26.5909091,26.6721649 L23.5759091,26.6721649 C23.1240398,26.6721649 22.7577273,27.0377221 22.7577273,27.4886598 C22.7577273,27.9395974 23.1240398,28.3051546 23.5759091,28.3051546 L27.3425455,28.3051546 C27.8201367,28.2794356 28.2015741,27.8987259 28.2272727,27.4221155 L28.2272727,23.6633814 C28.2272727,23.2124438 27.8609602,22.8468866 27.4090909,22.8468866 L27.4090909,22.8468866 Z" id="Path" fill="#43D92D"/>
                </g>
            </g>
        </g>
    </g>
</svg>