<?xml version="1.0" encoding="UTF-8"?>
<svg width="69px" height="75px" viewBox="0 0 69 75" version="1.1" xmlns="http://www.w3.org/2000/svg" xmlns:xlink="http://www.w3.org/1999/xlink">
    <!-- Generator: Sketch 54 (76480) - https://sketchapp.com -->
    <title>Operational Efficiency</title>
    <desc>Created with Sketch.</desc>
    <g id="Page-1" stroke="none" stroke-width="1" fill="none" fill-rule="evenodd">
        <g id="Frontend-Development" transform="translate(-1023.000000, -1979.000000)" fill-rule="nonzero">
            <g id="Group-4" transform="translate(976.000000, 1926.000000)">
                <g id="Operational-Efficiency" transform="translate(47.000000, 53.000000)">
                    <g id="Group" transform="translate(1.800000, 23.456175)" fill="#D4E1F4">
                        <path d="M6.7614,26.1684263 C6.60116462,26.2161109 6.42834215,26.1967452 6.28275,26.1147908 L1.71405,23.5583665 C1.42555758,23.3993578 1.31775476,23.0397203 1.4715,22.7492032 L12.99,0.854880478 C12.9644039,0.886314386 12.9419946,0.920194707 12.9231,0.956025896 L0.1215,25.2890438 C-0.0322452398,25.5795609 0.0755575776,25.9391985 0.36405,26.0982072 L4.93275,28.6553785 C5.07770099,28.7366663 5.24945201,28.7562562 5.40910053,28.7097112 C5.56874906,28.6631662 5.70278554,28.5544248 5.78085,28.4081175 L7.0992,25.9159363 C7.02052194,26.0376117 6.90068197,26.1271865 6.7614,26.1684263 L6.7614,26.1684263 Z" id="Path"/>
                        <path d="M9.99,38.3021414 C9.90368781,37.7809035 10.0307655,37.2469574 10.3428,36.8197709 L15.3867,29.8689741 C15.8655495,29.2129629 16.693083,28.9075265 17.4855,29.0943227 C17.3451996,28.7374174 17.1038825,28.4287594 16.79085,28.2058267 L16.39485,27.9219622 C15.4930539,27.278293 14.2387,27.480435 13.5867,28.374502 L8.54235,35.325747 C8.23123237,35.7542004 8.10439964,36.2884935 8.18992746,36.8103554 C8.27545528,37.3322173 8.56628909,37.7986035 8.99805,38.1062749 L9.3939,38.3893924 C9.60684204,38.5417578 9.84774903,38.6509955 10.10295,38.7109064 C10.0508802,38.5790174 10.0130179,38.4419942 9.99,38.3021414 L9.99,38.3021414 Z" id="Path"/>
                        <path d="M15.10845,41.9636952 C15.0221378,41.4424573 15.1492155,40.9085112 15.46125,40.4813247 L19.1982,35.3314243 C19.6772827,34.6768018 20.5039687,34.3724393 21.29535,34.5593127 C21.155067,34.202357 20.9137493,33.8936464 20.6007,33.6706673 L20.20485,33.3868028 C19.3039887,32.7436077 18.0508993,32.9445199 17.3982,33.8368028 L13.66125,38.9867032 C13.3501324,39.4151565 13.2232996,39.9494497 13.3088275,40.4713116 C13.3943553,40.9931735 13.6851891,41.4595597 14.11695,41.7672311 L14.5128,42.0510956 C14.725742,42.203461 14.966649,42.3126987 15.22185,42.3726096 C15.1696163,42.2406897 15.131603,42.1036156 15.10845,41.9636952 L15.10845,41.9636952 Z" id="Path"/>
                        <path d="M20.22735,45.6250996 C20.1410452,45.103909 20.268124,44.5700119 20.58015,44.1428785 L23.2446,40.4707171 C23.7236372,39.8147785 24.5512291,39.509423 25.3437,39.6962151 C25.2033617,39.3393313 24.9620523,39.0306831 24.64905,38.8077191 L24.25305,38.5238546 C23.3511774,37.8802091 22.0968037,38.082266 21.4446,38.976245 L18.78,42.6488546 C18.46893,43.0772975 18.3421253,43.6115558 18.4276517,44.1333813 C18.5131781,44.6552067 18.8039823,45.1215638 19.2357,45.4292331 L19.63155,45.7130976 C19.8445253,45.8654058 20.0854205,45.9746381 20.3406,46.0346116 C20.2883918,45.9024888 20.2504286,45.765214 20.22735,45.6250996 L20.22735,45.6250996 Z" id="Path"/>
                        <path d="M25.34625,49.2866534 C25.2599378,48.7654154 25.3870155,48.2314693 25.69905,47.8042829 L27.29295,45.6080677 C27.7715294,44.9515493 28.599642,44.6462375 29.39205,44.8341633 C29.2517099,44.4769935 29.0102915,44.1680798 28.6971,43.9449203 L28.3011,43.6610558 C27.3993428,43.017355 26.1449965,43.2194291 25.49295,44.1134462 L23.89905,46.3096614 C23.5879324,46.7381147 23.4610996,47.2724078 23.5466275,47.7942698 C23.6321553,48.3161317 23.9229891,48.7825179 24.35475,49.0901892 L24.7506,49.3740538 C24.96363,49.5263628 25.2045744,49.6355942 25.4598,49.6955677 C25.4074828,49.5636644 25.3694182,49.4265866 25.34625,49.2866534 L25.34625,49.2866534 Z" id="Path"/>
                        <path d="M22.1178,17.7442231 C22.4073,16.8663347 22.7328,15.9874004 23.0874,15.1316235 L24.5409,11.6154382 C25.1850742,10.100734 26.4643255,8.94401031 28.0401,8.45139442 L32.808,6.95393426 C33.8575158,6.62367783 34.9809757,6.60560876 36.04065,6.90194223 L40.98135,8.28062749 C43.3275,8.93545817 44.9784,8.99312749 47.28945,8.50099602 C47.3456248,8.4890597 47.4005247,8.47179985 47.4534,8.44945219 L48.11415,8.16992032 L47.39775,6.66170319 L46.7034,6.95542829 C46.6505247,6.97777595 46.5956248,6.99503579 46.53945,7.00697211 C44.2284,7.49910359 42.5775,7.44143426 40.23135,6.78660359 L35.29065,5.40836653 C34.2309757,5.11203307 33.1075158,5.13010213 32.058,5.46035857 L27.2901,6.95781873 C25.7143255,7.45043461 24.4350742,8.60715827 23.7909,10.1218625 L22.3374,13.6380478 C21.98355,14.4938247 21.6573,15.372759 21.3678,16.2506474 L20.1741,19.8679781 C20.5486304,19.9966125 20.935792,20.085355 21.3291,20.1327191 L22.1178,17.7442231 Z" id="Path"/>
                        <path d="M59.29575,27.4320717 L48.3192,4.3249004 C48.2472528,4.17285401 48.241927,3.99787744 48.3044949,3.84176934 C48.3670627,3.68566124 48.4919053,3.56244107 48.6492,3.50154382 L53.595,1.56693227 C53.820926,1.47839824 54.0779933,1.5303558 54.2514,1.69960159 L53.62875,0.380976096 C53.4891623,0.089328073 53.1469373,-0.045189947 52.845,0.0729083665 L47.89995,2.00737052 C47.7426553,2.06826776 47.6178127,2.19148794 47.5552449,2.34759603 C47.492677,2.50370413 47.4980028,2.6786807 47.56995,2.83072709 L58.5465,25.9378984 C58.6441849,26.0547353 58.7105047,26.1943515 58.73925,26.3436753 L59.3646,27.6602092 C59.3952749,27.7237595 59.4369059,27.7814568 59.4876,27.8306773 C59.4579321,27.6839834 59.3919912,27.5469785 59.29575,27.4320717 L59.29575,27.4320717 Z" id="Path"/>
                    </g>
                    <path d="M57.05745,23.0741534 C56.5129942,21.9289934 55.1716518,21.3987711 53.98695,21.8604084 L49.04175,23.7948705 C48.4203821,24.0372196 47.9277996,24.5254563 47.6814581,25.1431611 C47.4351165,25.7608658 47.457094,26.4526779 47.74215,27.0536355 L48.4272,28.4958167 L47.87985,28.7275398 C45.90945,29.1375 44.54475,29.0823705 42.51705,28.5165837 L37.57635,27.1378984 C36.1799775,26.7468831 34.6993376,26.7706659 33.31635,27.2063247 L28.5483,28.7037849 C27.5823356,29.0073752 26.6887837,29.5042272 25.9224,30.1638944 C25.0854,29.8579183 23.4879,29.46499 21.29745,29.7794821 L21.9462,28.5530378 C22.5375107,27.4302208 22.1508355,26.0430031 21.063,25.384512 L16.52265,22.6410359 C15.9523022,22.2963293 15.2642974,22.2016774 14.6214888,22.3794846 C13.9786802,22.5572919 13.4382066,22.9917532 13.128,23.5800299 L0.32715,47.9133466 C-0.283646802,49.0623748 0.141074513,50.4869517 1.2825,51.1177291 L5.8512,53.674004 C6.21128039,53.876878 6.61785266,53.9837126 7.03155,53.9841633 C7.26517235,53.9839782 7.49755281,53.9503166 7.72155,53.8842131 C8.34737572,53.7025726 8.87185707,53.274754 9.174,52.6994522 L9.879,51.3658865 L12.1428,53.2404382 L8.8833,57.7317729 C8.29201491,58.5463775 8.05085018,59.5620119 8.21312526,60.5541281 C8.37540034,61.5462443 8.92774839,62.4331203 9.74805,63.0186753 L10.1439,63.3017928 C10.7907957,63.7655676 11.5679028,64.0146499 12.36495,64.0136952 C12.6784882,64.0133707 12.9908087,63.9748374 13.29495,63.8989542 C13.3032,64.0035359 13.3149,64.1081175 13.332,64.2134462 C13.4916729,65.2072167 14.0446694,66.0957511 14.86725,66.6802291 L15.2631,66.9640936 C15.9099957,67.4278684 16.6871028,67.6769507 17.48415,67.675996 C17.7976836,67.6755969 18.109995,67.6370647 18.41415,67.561255 C18.42255,67.6658367 18.4341,67.7704183 18.4512,67.875747 C18.6108304,68.869493 19.1638408,69.7579958 19.98645,70.3423805 L20.3823,70.626245 C21.0292607,71.0898915 21.806325,71.3389602 22.60335,71.3381474 C22.9168836,71.3377482 23.229195,71.2992161 23.53335,71.2234064 C23.54175,71.327988 23.5533,71.4325697 23.5704,71.5371514 C23.7300304,72.5308974 24.2830408,73.4194001 25.10565,74.0037849 L25.5015,74.2876494 C27.2094998,75.5061181 29.5847388,75.1226447 30.81885,73.4291833 L32.09835,71.6662351 L34.11645,73.2672311 C35.3949815,74.3579604 37.1898087,74.6179309 38.7272916,73.9350852 C40.2647746,73.2522394 41.2700674,71.7486455 41.30985,70.0724104 C43.0476615,70.7990034 45.0574557,70.3319539 46.293,68.9143924 C46.9580784,68.1544378 47.3334056,67.185585 47.3532,66.1776394 C49.0910101,66.9040266 51.1006657,66.436935 52.3362,65.0194721 C52.9716979,64.2929875 53.3432387,63.3746246 53.391,62.412251 C55.1899381,63.349618 57.3999511,62.931227 58.72815,61.4018426 L58.78515,61.3364044 C59.5241643,60.4876505 59.8932062,59.3806038 59.8106418,58.2601487 C59.7280773,57.1396936 59.2007114,56.0981764 58.3452,55.3659861 L56.9202,54.1441733 C57.9185343,53.5386312 58.7982399,52.7576487 59.51655,51.8391932 L59.5383,51.884761 C59.9342702,52.7259733 60.7829069,53.2632545 61.7157,53.2632968 C62.0479163,53.2629555 62.3765339,53.1947684 62.68125,53.0629482 L67.49325,50.9932769 C68.0923866,50.7362734 68.5612154,50.2481772 68.7924897,49.6406426 C69.023764,49.0331079 68.9976964,48.3581143 68.72025,47.7700697 L57.05745,23.0741534 Z M7.58085,51.8635458 C7.50278554,52.0098531 7.36874906,52.1185945 7.20910053,52.1651395 C7.04945201,52.2116845 6.87770099,52.1920945 6.73275,52.1108068 L2.16405,49.5543825 C1.87555758,49.3953738 1.76775476,49.0357362 1.9215,48.7452191 L14.7228,24.4123506 C14.8010331,24.2623521 14.9386932,24.1517852 15.10245,24.1074203 C15.157038,24.092167 15.2134546,24.0843765 15.27015,24.0842629 C15.3828066,24.0843044 15.4932646,24.1153245 15.58935,24.1739044 L20.13,26.9173805 C20.4050551,27.0833083 20.5031863,27.433642 20.3541,27.7174303 L7.58085,51.8635458 Z M11.1939,61.8455677 L10.79805,61.5624502 C10.3662891,61.2547788 10.0754553,60.7883926 9.98992746,60.2665307 C9.90439964,59.7446688 10.0312324,59.2103757 10.34235,58.7819223 L15.38625,51.8311255 C16.03825,50.9370586 17.2926039,50.7349165 18.1944,51.3785857 L18.5904,51.6624502 C19.0221177,51.9701194 19.3129219,52.4364765 19.3984483,52.958302 C19.4839747,53.4801274 19.35717,54.0143858 19.0461,54.4428287 L17.739,56.2440239 L17.73735,56.2462649 L14.00235,61.3936255 C13.3501461,62.2876805 12.0955949,62.4895658 11.1939,61.8455677 L11.1939,61.8455677 Z M16.3128,65.5071215 L15.91695,65.223257 C15.4851891,64.9155856 15.1943553,64.4491994 15.1088275,63.9273375 C15.0232996,63.4054755 15.1501324,62.8711824 15.46125,62.4427291 L19.1982,57.2928287 C19.8508993,56.4005458 21.1039887,56.1996336 22.00485,56.8428287 L22.4007,57.1266932 C22.8324373,57.4343873 23.1232411,57.9007844 23.2087405,58.4226449 C23.2942399,58.9445055 23.167383,59.4787861 22.85625,59.9072211 L19.12125,65.0545817 C18.4692321,65.9488361 17.2146507,66.1509932 16.3128,65.5071215 L16.3128,65.5071215 Z M21.4317,69.1686753 L21.03585,68.8848108 C20.6041323,68.5771415 20.3133281,68.1107844 20.2278017,67.588959 C20.1422753,67.0671335 20.26908,66.5328752 20.58015,66.1044323 L23.2446,62.4322709 C23.8968037,61.5382919 25.1511774,61.336235 26.05305,61.9798805 L26.44905,62.263745 C26.8807441,62.571437 27.1715182,63.0378049 27.2570163,63.559629 C27.3425143,64.0814531 27.2156853,64.6156989 26.9046,65.0441235 L24.24,68.7162849 C23.5878981,69.6103205 22.3335047,69.8123913 21.4317,69.1686753 L21.4317,69.1686753 Z M29.3589,72.3776892 C28.7068552,73.2722249 27.4519326,73.4744046 26.55,72.8302291 L26.15415,72.5463645 C25.7223891,72.2386932 25.4315553,71.772307 25.3460275,71.250445 C25.2604996,70.7285831 25.3873324,70.19429 25.69845,69.7658367 L27.29235,67.5696215 C27.9443965,66.6756044 29.1987428,66.4735303 30.1005,67.1172311 L30.4965,67.4010956 C30.9282609,67.708767 31.2190947,68.1751532 31.3046225,68.6970151 C31.3901504,69.218877 31.2633176,69.7531702 30.9522,70.1816235 L29.3589,72.3776892 Z M58.0146,58.3906375 C58.063704,59.0355233 57.8510211,59.6730751 57.4242,60.1604582 L57.3672,60.2260458 C56.4402378,61.2946006 54.8210095,61.4172691 53.74245,60.5006474 C53.16585,60.0058267 52.5369,59.4661853 51.90225,58.9219124 L51.8859,58.9069721 L47.19,54.8792331 L47.1222,54.8209661 L47.0442,54.7540339 L46.9881,54.7060757 C46.6110231,54.3876456 46.0466628,54.4317629 45.7240796,54.8048871 C45.4014964,55.1780113 45.4414655,55.7404447 45.8136,56.0645916 L45.88965,56.1298805 C46.3182,56.4974104 48.54915,58.4108068 50.71965,60.2728088 C51.2294115,60.7122352 51.542851,61.3354973 51.5909073,62.0052696 C51.6389637,62.6750419 51.4176935,63.3363644 50.97585,63.8435259 C50.0486272,64.904719 48.4352969,65.0215616 47.3637,64.1051295 L45.84375,62.8014442 L42.465,59.9046813 C42.2217245,59.6927767 41.8830543,59.6270589 41.5777045,59.7325046 C41.2723546,59.8379503 41.047211,60.0983685 40.9878417,60.4147847 C40.9284724,60.7312009 41.0439935,61.0550299 41.2905,61.2631972 L44.6688,64.1604084 C45.1816641,64.5991748 45.4978139,65.223433 45.5472772,65.8950183 C45.5967405,66.5666035 45.3754381,67.2301311 44.93235,67.738745 C44.005157,68.8000805 42.3917085,68.9169935 41.32005,68.000498 L37.94205,65.1032869 C37.698377,64.8943185 37.3612846,64.8307038 37.0577524,64.9364059 C36.7542201,65.042108 36.5303616,65.3010682 36.4705023,65.6157386 C36.4106431,65.9304091 36.523877,66.2529839 36.76755,66.4619522 L37.86255,67.4007968 L38.62575,68.0553287 C39.1386141,68.4940951 39.4547639,69.1183533 39.5042272,69.7899386 C39.5536905,70.4615238 39.3323881,71.1250514 38.8893,71.6336653 C37.9621205,72.6949039 36.3487867,72.8118134 35.27715,71.8954183 C35.2686,71.8879482 35.2596,71.8804781 35.25075,71.8734562 L32.9817,70.0742032 C33.4295056,68.5339713 32.8548552,66.879786 31.5471,65.9445717 L31.1511,65.6607072 C30.5038421,65.1972099 29.726478,64.9484951 28.9293,64.9498506 C29.3845536,63.406518 28.8109851,61.745153 27.49905,60.8070717 L27.10305,60.5232072 C26.4557603,60.0596781 25.6783222,59.8110087 24.8811,59.8125 C25.3363926,58.2690898 24.7627537,56.607635 23.4507,55.6695717 L23.05485,55.3857072 C22.4418638,54.94636 21.711186,54.6992106 20.95635,54.6758964 C21.6005223,53.0611696 21.0578201,51.2169996 19.6404,50.2041335 L19.2444,49.9202689 C17.5364073,48.7019874 15.1613487,49.0854425 13.9272,50.7787351 L13.2,51.7837649 L10.737,49.7442729 L20.2101,31.8366036 C22.1856,31.2923307 23.685,31.4226096 24.6123,31.6374502 C24.3455706,32.0312248 24.1172804,32.4495152 23.93055,32.8866036 L22.47345,36.4111554 C22.10295,37.3075697 21.76155,38.2274402 21.4581,39.1467131 L20.00415,43.5528884 C19.8598604,43.9901721 20.0715343,44.465235 20.4939,44.6520418 L20.80695,44.7905378 C23.0553049,45.8122198 25.6728074,45.612856 27.73905,44.2625498 C29.5148442,43.0994731 30.6668528,41.1984959 30.8727,39.0915837 C30.8802,39.0134462 30.8877,38.9347112 30.89295,38.8549303 C30.9567,38.5432769 31.4652,36.3286853 33.02295,36.2197709 L35.12295,36.8079681 C35.9382983,37.0367956 36.6824109,37.4670335 37.28625,38.0587649 L50.2923,50.8251992 C50.3073,50.839243 50.3223,50.852988 50.3373,50.8661355 L57.17115,56.7227092 C57.6652099,57.143751 57.9690486,57.7445942 58.0146,58.3906375 L58.0146,58.3906375 Z M55.4631,52.8950199 L51.5331,49.5270418 L38.55,36.7818227 C37.7293803,35.9776744 36.7180904,35.393052 35.61,35.0822211 L33.375,34.4563745 C33.2957291,34.4341091 33.2137626,34.4227981 33.1314,34.422759 L33.12765,34.422759 C31.7349,34.4285857 30.5898,35.1835159 29.8164,36.6061255 C29.4843023,37.2287456 29.2467194,37.8969666 29.1114,38.588994 C29.10645,38.6188745 29.10285,38.648755 29.10075,38.6786355 C29.0952,38.7603586 29.08845,38.8408865 29.08095,38.9200697 C28.9262359,40.4892426 28.0669333,41.9044116 26.7435,42.7695717 C25.3255866,43.6794192 23.5646817,43.8842989 21.9744,43.3244522 L23.1681,39.7071215 C23.4576,38.8292331 23.7831,37.9502988 24.1377,37.0945219 L25.5912,33.5783367 C26.2353742,32.0636324 27.5146255,30.9069087 29.0904,30.4142928 L33.8583,28.9168327 C34.9078158,28.5865762 36.0312757,28.5685072 37.09095,28.8648406 L42.03165,30.2435259 C44.3778,30.8983566 46.0287,30.9560259 48.33975,30.4638944 C48.3959248,30.4519581 48.4508247,30.4346983 48.5037,30.4123506 L49.19805,30.1186255 L58.62555,49.9653884 C57.8665362,51.2167367 56.7710769,52.2315487 55.4631,52.8950199 L55.4631,52.8950199 Z M67.10835,49.0020418 C67.0500552,49.1566481 66.9308318,49.2807941 66.77835,49.3456673 L61.96635,51.415488 C61.6618304,51.5486858 61.3061928,51.4162173 61.16415,51.1166833 L60.5388,49.8001494 C60.5100547,49.6508256 60.4437349,49.5112094 60.34605,49.3943725 L49.3692,26.2870518 C49.2972528,26.1350054 49.291927,25.9600288 49.3544949,25.8039207 C49.4170627,25.6478126 49.5419053,25.5245925 49.6992,25.4636952 L54.645,23.5290837 C54.9469373,23.4109854 55.2891623,23.5455034 55.42875,23.8371514 L67.09005,48.5315737 C67.1605288,48.6792951 67.1671428,48.849332 67.10835,49.0020418 L67.10835,49.0020418 Z" id="Shape" fill="#0B75FF"/>
                    <path d="M34.5,0 C27.9535389,0.00775401498 22.6521652,5.29848123 22.6573537,11.8188634 C22.6625422,18.3392455 27.9723292,23.6215962 34.5187944,23.6190146 C41.0652596,23.616433 46.3708454,18.3298961 46.37085,11.809512 C46.3595197,5.28649622 41.0491166,0.00353258481 34.5,0 Z M34.5,21.8261952 C28.9476525,21.8184416 24.4521664,17.3303922 24.4573544,11.8001625 C24.4625423,6.26993287 28.966441,1.7902587 34.5187934,1.79283962 C40.0711458,1.79542054 44.5708445,6.27927989 44.57085,11.809512 C44.5606771,17.3428537 40.0554839,21.8238155 34.5,21.8261952 L34.5,21.8261952 Z" id="Shape" fill="#43D92D"/>
                    <path d="M34.78035,7.3625498 C35.6350921,7.36158346 36.3864301,7.92632005 36.61995,8.74526892 C36.7379558,9.22414053 37.2221099,9.5181779 37.7035608,9.40336946 C38.1850117,9.28856102 38.4829758,8.80801703 38.37045,8.32783865 C38.01193,6.98596342 36.9300494,5.95649274 35.56785,5.66100598 L35.56785,5.07370518 C35.56785,4.57862921 35.1649063,4.17729084 34.66785,4.17729084 C34.1707937,4.17729084 33.76785,4.57862921 33.76785,5.07370518 L33.76785,5.66757968 C33.2225598,5.78979451 32.7213132,6.05848608 32.31855,6.44447211 C31.3425,7.39078685 31.28445,8.7185259 31.29,9.10293825 C31.3116,10.6051793 32.43,11.8721116 34.0107,12.1837649 L34.1457,12.2106574 C34.25385,12.2321713 34.3842,12.2581673 34.46415,12.2737052 C34.5027,12.2816235 34.6128,12.3150896 34.66095,12.3297311 C34.6691017,12.3322996 34.6771127,12.3352918 34.68495,12.3386952 C34.6968,12.3439243 34.70895,12.3488546 34.72125,12.3536355 L34.92165,12.4313247 C34.9311,12.4350598 34.94025,12.439243 34.9482,12.4432769 C35.03595,12.4880976 35.06325,12.5046813 35.1213,12.5388944 L35.2389,12.6089641 C35.24865,12.615239 35.25795,12.6212151 35.2662,12.6261454 C35.3808,12.6965139 36.38625,13.3387948 36.42255,14.2189243 C36.4443,14.7454183 36.31575,15.13999 36.02925,15.424751 C35.5695,15.8819223 34.8129,15.9775398 34.43925,15.9608068 C33.9087,15.9380976 32.8266,15.4450697 32.73585,14.622012 C32.7027815,14.3019859 32.5000666,14.0241514 32.2046751,13.8940006 C31.9092835,13.7638498 31.5665197,13.801344 31.3065291,13.992247 C31.0465385,14.18315 30.9091961,14.4981827 30.94665,14.8177291 C31.04295,15.6908367 31.54125,16.4786355 32.34975,17.0359064 C32.7797029,17.3303513 33.2603418,17.5435565 33.7677,17.6648904 L33.7677,18.1353586 C33.7677,18.6304345 34.1706437,19.0317729 34.6677,19.0317729 C35.1647563,19.0317729 35.5677,18.6304345 35.5677,18.1353586 L35.5677,17.6273904 C36.2195757,17.4784662 36.818505,17.1557411 37.30035,16.6937749 C37.94535,16.052988 38.26305,15.1716633 38.2206,14.1452689 C38.14965,12.4244522 36.6687,11.3822211 36.2085,11.0991036 C36.19275,11.0890936 36.1485,11.0611554 36.1446,11.0592131 L36.0396,10.9973606 C35.95125,10.9450697 35.90955,10.9204183 35.77455,10.8507968 C35.7094093,10.8174706 35.6425686,10.7875495 35.5743,10.7611554 L35.38995,10.689741 C35.3233714,10.661147 35.2552692,10.6362092 35.18595,10.6150398 C35.0618605,10.5749849 34.9357959,10.5412755 34.80825,10.5140438 C34.7301,10.4991036 34.6035,10.4737052 34.49865,10.4527888 L34.3611,10.4252988 C33.4941,10.2542331 33.0981,9.6250996 33.09015,9.07753984 C33.08445,8.67773904 33.2079,8.08476096 33.5745,7.72933267 C33.8508,7.46040837 34.245,7.33984064 34.78035,7.3625498 L34.78035,7.3625498 Z" id="Path" fill="#43D92D"/>
                </g>
            </g>
        </g>
    </g>
</svg>