<?xml version="1.0" encoding="UTF-8"?>
<svg width="79px" height="67px" viewBox="0 0 79 67" version="1.1" xmlns="http://www.w3.org/2000/svg" xmlns:xlink="http://www.w3.org/1999/xlink">
    <!-- Generator: Sketch 54 (76480) - https://sketchapp.com -->
    <title>Robust and Secure</title>
    <desc>Created with Sketch.</desc>
    <g id="Page-1" stroke="none" stroke-width="1" fill="none" fill-rule="evenodd">
        <g id="Java-App-Development" transform="translate(-1023.000000, -2577.000000)" fill-rule="nonzero">
            <g id="Group-5" transform="translate(391.000000, 2026.000000)">
                <g id="Group-4" transform="translate(585.000000, 497.000000)">
                    <g id="Robust-and-Secure" transform="translate(47.000000, 54.000000)">
                        <path d="M42.6974126,50.621238 L31.8911118,43.2046923 C29.0334634,41.2504183 26.6544715,36.671226 26.6544715,33.2052644 L26.6544715,19.3963389 L23.4430894,20.9795361 L23.4430894,36.4264183 C23.4430894,39.8923798 25.8220813,44.4715721 28.6794085,46.4258462 L39.4857093,53.8423918 L50.3130447,46.4258462 C51.3623638,45.7081731 52.3362154,44.6641971 53.1541545,43.4583582 L42.6974126,50.621238 Z" id="Path" fill="#D4E1F4"/>
                        <path d="M27.6008659,48.0225721 L38.9712459,55.8103558 C39.1286051,55.9198263 39.3155629,55.9784389 39.507065,55.9783389 C39.6996119,55.9784316 39.8876441,55.9198508 40.0462561,55.8103558 L51.4007398,48.0225721 C54.8284085,45.6782163 57.4837398,40.5846058 57.4837398,36.4264183 L57.4837398,20.4011779 C57.4950287,20.0373306 57.2962036,19.6995536 56.9731301,19.5337212 L39.9107358,11.1205505 C39.6455406,10.9890453 39.3343883,10.9890453 39.0691931,11.1205505 L22.0244614,19.5089183 C21.7015985,19.6749071 21.5035336,20.0131754 21.5162602,20.3768582 L21.5162602,36.4264183 C21.5162602,40.5846058 24.1731972,45.6782163 27.6008659,48.0225721 Z M23.4430894,20.9795361 L39.5,13.0641947 L55.5569106,21.0019231 L55.5569106,36.4264183 C55.5569106,39.9522933 53.2201484,44.4379111 50.3133659,46.4258462 L39.4860305,53.8423918 L28.6797297,46.4258462 C25.8220813,44.4715721 23.4430894,39.8923798 23.4430894,36.4264183 L23.4430894,20.9795361 Z" id="Shape" fill="#24527a"/>
                        <path d="M36.7595671,38.7416226 C37.1338494,39.1081529 37.7313356,39.1081529 38.1056179,38.7416226 L47.3985549,29.641863 C47.7712601,29.2676285 47.774728,28.6623746 47.4063356,28.2838681 C47.0379432,27.9053616 46.4346165,27.8942876 46.0526646,28.2590216 L37.4325122,36.7002163 L32.9473354,32.3081731 C32.702045,32.0618763 32.3436373,31.966956 32.0091018,32.0596925 C31.6745662,32.1524289 31.4156186,32.4184858 31.3312331,32.7561719 C31.2468476,33.0938579 31.3500693,33.4509702 31.6014451,33.6910144 L36.7595671,38.7416226 Z" id="Path" fill="#24527a"/>
                        <path d="M70.2086809,24.0897212 C70.0306206,23.8173468 69.7277465,23.6532693 69.4030254,23.6532693 C69.0783043,23.6532693 68.7754302,23.8173468 68.5973699,24.0897212 L59.9638902,37.293875 C59.769706,37.5952374 59.7536038,37.9784893 59.9218211,38.2951707 C60.0885573,38.6106684 60.4134993,38.8099066 60.7694654,38.8149038 L68.1344492,38.8149038 C67.1257215,46.1838143 63.4499582,52.9231171 57.8072866,57.7491683 C52.4792825,62.3317428 45.7861199,64.953601 39.4439614,64.953601 C35.3075407,64.953601 30.9819695,63.8321563 26.9370732,61.7163413 C22.7357093,59.5152573 19.0917913,56.3796406 16.2839553,52.5492596 C16.0848525,52.2598907 15.7447707,52.1018241 15.3959554,52.1365263 C15.0471401,52.1712285 14.74464,52.393223 14.6060864,52.716184 C14.4675328,53.039145 14.5147917,53.4121042 14.7294858,53.6900312 C17.7122374,57.7587857 21.5831677,61.0894348 26.0462358,63.4272572 C30.3655447,65.6862524 34.9986057,66.8801731 39.4439614,66.8801731 C46.2390854,66.8801731 53.3895488,64.0946803 59.0614919,59.2164038 C65.114392,54.009823 69.0373013,46.7446446 70.0774959,38.8149038 L78.0365854,38.8149038 C78.3922173,38.8090664 78.7166949,38.6101568 78.8840856,38.2953734 C79.0514763,37.9805901 79.0354247,37.5994952 78.8421606,37.2999952 L70.2086809,24.0897212 Z M62.5533882,36.8822115 L69.4031057,26.4065361 L76.2526626,36.8822115 L62.5533882,36.8822115 Z" id="Shape" fill="#43D92D"/>
                        <path d="M19.0781789,28.7048293 C18.9114427,28.3893316 18.5865007,28.1900934 18.2305346,28.1850962 L10.8655508,28.1850962 C11.8742785,20.8161857 15.5500418,14.0768829 21.1927134,9.25083173 C26.5207175,4.66825721 33.2138801,2.04639904 39.5560386,2.04639904 C43.6926199,2.04639904 48.0172276,3.16784375 52.0629268,5.28365865 C56.2642907,7.48474269 59.9082087,10.6203594 62.7160447,14.4507404 C62.9151475,14.7401093 63.2552293,14.8981759 63.6040446,14.8634737 C63.9528599,14.8287715 64.25536,14.606777 64.3939136,14.283816 C64.5324672,13.960855 64.4852083,13.5878958 64.2705142,13.3099688 C61.2878506,9.24113246 57.4168996,5.91046555 52.9537642,3.57274279 C48.6344553,1.3137476 44.0013943,0.119826923 39.5560386,0.119826923 C32.7609146,0.119826923 25.6104512,2.906125 19.9385081,7.78359615 C13.885608,12.990177 9.96269867,20.2553554 8.92250407,28.1850962 L0.963414634,28.1850962 C0.607782749,28.1909336 0.283305083,28.3898432 0.115914373,28.7046266 C-0.0514763375,29.0194099 -0.035424726,29.4005048 0.157839431,29.7000048 L8.79131911,42.9067356 C8.96897317,43.1793774 9.27160282,43.3439094 9.59632418,43.3443962 C9.92104553,43.3448831 10.2241642,43.1812593 10.4026301,42.9091514 L19.0361098,29.6991995 C19.2301529,29.4003306 19.2462812,29.019113 19.0781789,28.7048293 Z M9.59689431,40.5934639 L2.7473374,30.1177885 L16.4466118,30.1177885 L9.59689431,40.5934639 Z" id="Shape" fill="#43D92D"/>
                    </g>
                </g>
            </g>
        </g>
    </g>
</svg>