<?xml version="1.0" encoding="UTF-8"?>
<svg width="74px" height="74px" viewBox="0 0 74 74" version="1.1" xmlns="http://www.w3.org/2000/svg" xmlns:xlink="http://www.w3.org/1999/xlink">
    <!-- Generator: Sketch 54 (76480) - https://sketchapp.com -->
    <title>Supports Multiple Languages</title>
    <desc>Created with Sketch.</desc>
    <g id="Page-1" stroke="none" stroke-width="1" fill="none" fill-rule="evenodd">
        <g id="MicrosoftDotNet" transform="translate(-419.000000, -2187.000000)" fill-rule="nonzero">
            <g id="Group-4" transform="translate(391.000000, 2130.000000)">
                <g id="Supports-Multiple-Languages" transform="translate(28.000000, 57.000000)">
                    <path d="M23.0638826,37.0332551 C23.0753212,27.727721 30.0123058,19.8860575 39.2469636,18.7396761 C32.176585,17.8720548 25.2392675,21.1566527 21.4294955,27.1756774 C17.6197236,33.1947021 17.6197236,40.8703101 21.4294955,46.8893347 C25.2392675,52.9083594 32.176585,56.1929574 39.2469636,55.325336 C30.0128382,54.1790889 23.0760092,46.3382433 23.0638826,37.0332551 L23.0638826,37.0332551 Z" id="Path" fill="#D4E1F4"/>
                    <path d="M68.9949636,32.1447611 C66.6486239,32.1478858 64.6392251,33.8262077 64.2182186,36.1344696 L57.2066437,36.1344696 C56.9972955,31.3611203 55.0987314,26.8174355 51.8497328,23.3141943 L56.8230121,18.340915 C58.8698825,19.784296 61.6790375,19.4323809 63.3066052,17.528687 C64.9341729,15.6249931 64.8451581,12.7952807 63.101157,10.9976469 C61.3571559,9.20001313 58.5314364,9.02535539 56.5793327,10.5945329 C54.6272289,12.1637104 54.190414,14.9609213 55.5711538,17.0505587 L50.5731579,22.0485547 C47.0499121,18.8450752 42.5059559,16.9929335 37.7471903,16.8206194 L37.7471903,9.80275304 C40.2255714,9.41838571 42.0039689,7.21055112 41.8516507,4.7071713 C41.6993325,2.20379147 39.6663736,0.227858972 37.1596741,0.146809022 C34.6529746,0.0657590725 32.4966184,1.90623705 32.1829022,4.39454843 C31.869186,6.8828598 33.5012447,9.20096581 35.9496194,9.74463158 L35.9496194,16.832753 C31.2349166,17.0756608 26.7551278,18.9660787 23.2917247,22.1742348 L18.3223401,17.2048502 C19.7782533,15.1714703 19.4472814,12.3640842 17.5584132,10.7250314 C15.6695451,9.08597864 12.8435331,9.15391298 11.0356034,10.8818329 C9.22767366,12.6097528 9.03197935,15.4297994 10.583915,17.3908738 C12.1358506,19.3519482 14.9253923,19.8095682 17.0225466,18.4471215 L22.0257854,23.4503603 C18.8167558,26.9749085 16.9612501,31.5230443 16.7890121,36.2865142 L9.80844534,36.2865142 C9.44109339,33.805765 7.24571024,32.0124118 4.74155045,32.1474953 C2.23739066,32.2825789 0.247665877,34.3016921 0.149310436,36.8075632 C0.050954995,39.3134343 1.87630204,41.4822891 4.36217032,41.8132312 C6.8480386,42.1441733 9.17722959,40.5284097 9.73789069,38.084085 L16.8005466,38.084085 C17.042504,42.7876446 18.9243637,47.2578696 22.1192591,50.7183117 L17.1781862,55.6593846 C15.1313159,54.2160036 12.3221609,54.5679187 10.6945932,56.4716126 C9.06702544,58.3753065 9.15604026,61.2050189 10.9000414,63.0026527 C12.6440425,64.8002865 15.469762,64.9749442 17.4218657,63.4057667 C19.3739694,61.8365892 19.8107844,59.0393783 18.4300445,56.9497409 L23.3929879,51.9867976 C26.8819812,55.1739059 31.3801925,57.0332966 36.1012146,57.2398988 L36.1012146,64.2245101 C33.6379258,64.6885256 31.9327687,66.9514235 32.1657855,69.4471809 C32.3988022,71.9429383 34.4933883,73.8510726 37,73.8510726 C39.5066117,73.8510726 41.6011978,71.9429383 41.8342145,69.4471809 C42.0672313,66.9514235 40.3620742,64.6885256 37.8987854,64.2245101 L37.8987854,57.2398988 C42.6607031,57.0311864 47.1944709,55.1412186 50.6946437,51.9057571 L55.6396113,56.8507247 C54.2091701,58.9078725 54.5797751,61.7157746 56.4949652,63.3313445 C58.4101553,64.9469144 61.2403553,64.8390701 63.0270484,63.0824406 C64.8137414,61.3258111 64.9695927,58.4978485 63.3867522,56.5555212 C61.8039117,54.613194 59.0027022,54.1949981 56.9215789,55.5903279 L51.9623806,50.6315789 C55.1442556,47.1436116 57.0003107,42.6490838 57.2066437,37.9323401 L64.2303522,37.9323401 C64.721899,40.4448108 67.0798801,42.1438755 69.6187733,41.8150156 C72.1576665,41.4861558 74.0049375,39.2423898 73.8401276,36.6875972 C73.6753176,34.1328046 71.5550666,32.1449838 68.9949636,32.1450607 L68.9949636,32.1447611 Z M57.4623482,12.2140445 C58.6564434,11.0199553 60.5924489,11.0199586 61.7865401,12.2140518 C62.9806313,13.408145 62.9806313,15.3441505 61.7865401,16.5382437 C60.5924489,17.732337 58.6564434,17.7323402 57.4623482,16.538251 C56.886412,15.9661614 56.562529,15.1879291 56.562529,14.3761478 C56.562529,13.5643664 56.886412,12.7861341 57.4623482,12.2140445 L57.4623482,12.2140445 Z M33.942332,5.00503644 C33.942332,3.31633302 35.3112966,1.94736842 37,1.94736842 C38.6887034,1.94736842 40.057668,3.31633302 40.057668,5.00503644 C40.057668,6.69373985 38.6887034,8.06270445 37,8.06270445 C35.3120837,8.06080574 33.9442307,6.69295275 33.942332,5.00503644 L33.942332,5.00503644 Z M12.2140445,16.5376518 C11.0199553,15.3435566 11.0199586,13.4075511 12.2140518,12.2134599 C13.408145,11.0193687 15.3441505,11.0193687 16.5382437,12.2134599 C17.732337,13.4075511 17.7323402,15.3435566 16.538251,16.5376518 C15.9674568,17.1160108 15.1887394,17.441573 14.3761478,17.441573 C13.5635561,17.441573 12.7848388,17.1160108 12.2140445,16.5376518 L12.2140445,16.5376518 Z M5.00503644,40.057668 C3.76832517,40.057668 2.65338845,39.3126911 2.18011954,38.1701189 C1.70685063,37.0275467 1.96845172,35.7123891 2.84293865,34.8379022 C3.71742557,33.9634153 5.0325831,33.7018142 6.17515533,34.1750831 C7.31772756,34.648352 8.06270445,35.7632887 8.06270445,37 C8.06080574,38.6879163 6.69295275,40.0557693 5.00503644,40.057668 Z M16.5376518,61.7859555 C15.3565701,62.9699975 13.4433488,62.9854749 12.2432659,61.8206957 C11.0431829,60.6559165 11.0015431,58.7430858 12.1498019,57.5271864 C13.2980607,56.311287 15.2101431,56.2434926 16.4416316,57.3750162 C16.5091546,57.4874286 16.6013582,57.5830129 16.7112672,57.6545385 C17.7332126,58.8684325 17.6578378,60.6620806 16.5376518,61.7859555 L16.5376518,61.7859555 Z M40.0570688,68.9949636 C40.0590078,70.6585825 38.73054,72.0184826 37.0673305,72.0554407 C35.404121,72.0923989 34.0165577,70.7928516 33.9445967,69.1307887 C33.8726358,67.4687257 35.1426865,66.054114 36.8028664,65.9471822 C36.9321996,65.976941 37.066602,65.976941 37.1959352,65.9471822 C38.8035293,66.0511481 40.0550312,67.3840133 40.057668,68.9949636 L40.0570688,68.9949636 Z M61.7859555,57.4623482 C62.9800447,58.6564434 62.9800414,60.5924489 61.7859482,61.7865401 C60.591855,62.9806313 58.6558495,62.9806313 57.4617563,61.7865401 C56.267663,60.5924489 56.2676598,58.6564434 57.461749,57.4623482 C58.0325432,56.8839892 58.8112606,56.558427 59.6238522,56.558427 C60.4364439,56.558427 61.2151612,56.8839892 61.7859555,57.4623482 L61.7859555,57.4623482 Z M37,55.4632996 C26.8213675,55.4632996 18.5699555,47.2118876 18.5699555,37.0332551 C18.5699555,26.8546225 26.8213675,18.6032105 37,18.6032105 C47.1786325,18.6032105 55.4300445,26.8546225 55.4300445,37.0332551 C55.4185697,47.2071308 47.1738757,55.4518248 37,55.4632996 L37,55.4632996 Z M68.9949636,40.057668 C67.7582523,40.057668 66.6433156,39.3126911 66.1700467,38.1701189 C65.6967778,37.0275467 65.9583788,35.7123891 66.8328658,34.8379022 C67.7073527,33.9634153 69.0225102,33.7018142 70.1650825,34.1750831 C71.3076547,34.648352 72.0526316,35.7632887 72.0526316,37 C72.0507329,38.6879163 70.6828799,40.0557693 68.9949636,40.057668 Z" id="Shape" fill="#24527a"/>
                    <path d="M37.4556842,51.3726275 C41.3965927,51.2487325 45.1128986,49.5087321 47.7317976,46.5612794 L47.7340445,46.5596316 C47.7945673,46.5070488 47.8477697,46.4465916 47.8922308,46.3798745 C52.5435352,40.9920151 52.5435352,33.0091833 47.8922308,27.6213239 C47.8477697,27.5546068 47.7945673,27.4941496 47.7340445,27.4415668 L47.7311984,27.4393198 C45.1096879,24.4892067 41.388877,22.749003 37.4441498,22.6281215 C37.3891661,22.6216677 37.3336999,22.6203638 37.2784737,22.6242267 C37.1858988,22.6224291 37.0931741,22.6206316 37.0001498,22.6206316 C36.9071255,22.6206316 36.8144008,22.6224291 36.7216761,22.6242267 C36.6667486,22.6204033 36.6115843,22.6217072 36.5568988,22.6281215 C32.6116686,22.7490919 28.8904401,24.4896927 26.2688016,27.4403684 C26.267004,27.4418664 26.2652065,27.4430648 26.2635587,27.4445628 C26.2045343,27.4964966 26.1526073,27.5559784 26.1091174,27.6214737 C21.4572316,33.0094578 21.4572316,40.9929389 26.1091174,46.3809231 C26.1525982,46.44647 26.2045254,46.5060026 26.2635587,46.5579838 C26.2652065,46.5594818 26.2671538,46.56083 26.2691012,46.5623279 C28.8879413,49.5098797 32.6042707,51.2499453 36.5452146,51.3738259 C36.5832003,51.3789738 36.6214775,51.3816758 36.6598097,51.381915 C36.6783846,51.381915 36.6965101,51.3792186 36.7149352,51.37817 C36.8100567,51.3799676 36.9053279,51.3817652 37.0008988,51.3817652 C37.0964696,51.3817652 37.1917409,51.3799676 37.2868623,51.37817 C37.3052874,51.3792186 37.323413,51.381915 37.3419879,51.381915 C37.3800456,51.3812403 37.4180215,51.3781382 37.4556842,51.3726275 Z M24.4526559,37.8987854 L28.4276842,37.8987854 C28.4869338,39.5167089 28.7508292,41.1206171 29.2130729,42.6722348 C28.3847987,43.2048273 27.6136123,43.8213548 26.9117328,44.5120486 C25.4746014,42.5891716 24.6209643,40.2934617 24.4526559,37.8987854 L24.4526559,37.8987854 Z M26.911583,29.4881012 C27.6135163,30.1790693 28.3846344,30.7960341 29.2127733,31.3292632 C28.7507855,32.8804177 28.4869927,34.4838106 28.4276842,36.1012146 L24.4526559,36.1012146 C24.6209821,33.7066129 25.474562,31.4109693 26.911583,29.4881012 L26.911583,29.4881012 Z M47.0911134,29.4918462 C48.5264781,31.4139775 49.3790748,33.7081943 49.5473441,36.1012146 L45.5723158,36.1012146 C45.513101,34.4883553 45.2505788,32.8894163 44.7909717,31.3422955 C45.6198747,30.8070422 46.3907506,30.1868774 47.0911134,29.4918462 L47.0911134,29.4918462 Z M47.0911134,44.5081538 C46.3906859,43.8134419 45.6197571,43.1936264 44.7908219,42.658753 C45.2505636,41.1112998 45.513137,39.5120033 45.5723158,37.8987854 L49.5473441,37.8987854 C49.3790998,40.2918111 48.5265005,42.5860348 47.0911134,44.5081538 Z M37.8987854,49.1551741 L37.8987854,42.2107085 C39.5321626,42.3175159 41.1282324,42.7466474 42.5949393,43.4733522 C41.5906964,45.9172996 39.985915,47.8821943 37.8987854,49.1551741 Z M37.8987854,40.4102915 L37.8987854,37.8987854 L43.7735466,37.8987854 C43.7194555,39.2041816 43.5195824,40.4994378 43.1776518,41.760417 C41.5213617,40.9747156 39.7289193,40.5162797 37.8987854,40.4102915 L37.8987854,40.4102915 Z M43.7733968,36.1012146 L37.8987854,36.1012146 L37.8987854,33.5906073 C39.7291385,33.4858603 41.5218759,33.0275783 43.1779514,32.241081 C43.5197083,33.5015725 43.7194312,34.7963298 43.7733968,36.1012146 L43.7733968,36.1012146 Z M37.8987854,31.7888421 L37.8987854,24.8455749 C39.9856154,26.1188543 41.5903968,28.0827004 42.5946397,30.5263482 C41.1279144,31.2526994 39.5320042,31.6817645 37.8987854,31.7888421 Z M36.1012146,24.8455749 L36.1012146,31.7849474 C34.4697776,31.6703703 32.8764433,31.2381468 31.410753,30.5125668 C32.4161943,28.0752105 34.0190283,26.1158583 36.1012146,24.8455749 Z M36.1012146,33.5867126 L36.1012146,36.1012146 L30.2266032,36.1012146 C30.2807409,34.7914084 30.4817293,33.4918177 30.8257935,32.2268502 C32.4811485,33.0132602 34.27197,33.474886 36.1012146,33.5867126 L36.1012146,33.5867126 Z M30.2264534,37.8987854 L36.1012146,37.8987854 L36.1012146,40.414336 C34.2723768,40.5279862 32.4820765,40.9898991 30.8265425,41.775247 C30.4820864,40.5096194 30.2807963,39.2093235 30.2264534,37.8987854 L30.2264534,37.8987854 Z M36.1012146,42.2152024 L36.1012146,49.1551741 C34.0181296,47.8845911 32.4152955,45.9250891 31.410753,43.4877328 C32.8765299,42.7623574 34.4698132,42.3300969 36.1012146,42.2152024 L36.1012146,42.2152024 Z M41.1493927,48.8765506 C42.4312053,47.5911214 43.4527939,46.0703099 44.1580769,44.3976032 C44.7871672,44.8344159 45.3745263,45.3284535 45.9126559,45.8734089 C44.5715957,47.2207355 42.9432375,48.2473827 41.1493927,48.8765506 Z M45.9129555,28.1273401 C45.3747581,28.6722945 44.7872949,29.1662851 44.1580769,29.602996 C43.4529448,27.9299422 42.4313449,26.4088087 41.1493927,25.1231498 C42.9434358,25.7525973 44.5719056,26.7796087 45.9129555,28.1273401 Z M32.8506073,25.1231498 C31.5713732,26.4058079 30.5513701,27.9230213 29.846417,29.5917611 C29.2172628,29.1569647 28.6291587,28.6655827 28.0894413,28.1237449 C29.4301718,26.7776249 31.0577619,25.7518806 32.8506073,25.1231498 L32.8506073,25.1231498 Z M28.0897409,45.8756559 C28.6294436,45.333861 29.2174939,44.842482 29.8465668,44.4076397 C30.5514416,46.076474 31.5713951,47.5937908 32.8506073,48.8765506 C31.0578433,48.2476874 29.430358,47.2218421 28.0897409,45.8756559 L28.0897409,45.8756559 Z" id="Shape" fill="#43D92D"/>
                </g>
            </g>
        </g>
    </g>
</svg>