<?xml version="1.0" encoding="UTF-8"?>
<svg width="58px" height="50px" viewBox="0 0 58 50" version="1.1" xmlns="http://www.w3.org/2000/svg" xmlns:xlink="http://www.w3.org/1999/xlink">
    <!-- Generator: Sketch 54 (76480) - https://sketchapp.com -->
    <title>API Integration</title>
    <desc>Created with Sketch.</desc>
    <g id="Page-1" stroke="none" stroke-width="1" fill="none" fill-rule="evenodd">
        <g id="Node-JS" transform="translate(-396.000000, -1553.000000)" fill-rule="nonzero">
            <g id="Group-4" transform="translate(392.000000, 1553.000000)">
                <g id="API-Integration" transform="translate(4.000000, 0.000000)">
                    <path d="M57.0424528,44.6238983 L11.9009434,44.6238983 C8.35203414,44.6209769 5.47554537,41.8127338 5.47169811,38.3471889 L5.47169811,0.943593056 C5.47212556,0.651458974 5.49349944,0.360159615 5.53539207,0.0709467949 C2.36308962,0.50914797 0.00384728226,3.15838675 0,6.2854734 L0,43.6890692 C0.00384728226,47.1546141 2.88033603,49.9628573 6.42924528,49.9657786 L51.5707547,49.9657786 C54.774263,49.96244 57.4874558,47.6591714 57.936306,44.5625501 C57.6404924,44.6030315 57.3416863,44.6238983 57.0424528,44.6238983 Z" id="Path" fill="#D4E1F4"/>
                    <path d="M58,6.2854734 L58,43.6890692 C57.9961527,47.1546141 55.119664,49.9628573 51.5707547,49.9657786 L6.42924528,49.9657786 C2.88033603,49.9628573 0.00384728226,47.1546141 0,43.6890692 L0,6.2854734 C0.00384728226,2.82076325 2.88033603,0.0125200852 6.42924528,0.00876399549 L51.5707547,0.00876399549 C55.119664,0.0125200852 57.9961527,2.82076325 58,6.2854734 Z M56.0849057,43.6890692 L56.0849057,14.9781316 L1.91509434,14.9781316 L1.91509434,43.6890692 C1.91765925,46.1221287 3.93705773,48.0940338 6.42924528,48.0961205 L51.5707547,48.0961205 C54.0629423,48.0940338 56.0823407,46.1221287 56.0849057,43.6890692 Z M56.0849057,13.1084735 L56.0849057,6.2854734 C56.0823407,3.85241389 54.0629423,1.88134348 51.5707547,1.87842212 L6.42924528,1.87842212 C3.93705773,1.88134348 1.91765925,3.85241389 1.91509434,6.2854734 L1.91509434,13.1084735 L56.0849057,13.1084735 Z" id="Shape" fill="#0B75FF"/>
                    <g id="Group" transform="translate(3.939623, 4.487179)" fill="#43D92D">
                        <path d="M35.7836232,31.4244457 C35.7836232,30.9082031 35.3548643,30.4896167 34.826076,30.4896167 L22.5147553,30.4896167 C21.985967,30.4896167 21.5572081,30.9082031 21.5572081,31.4244457 C21.5572081,31.9411058 21.985967,32.3592748 22.5147553,32.3592748 L34.826076,32.3592748 C35.3548643,32.3592748 35.7836232,31.9411058 35.7836232,31.4244457 Z" id="Path"/>
                        <path d="M21.7226415,6.0455062 L21.7324735,6.0455062 C23.4017689,6.04467147 24.7564416,4.72672949 24.7619989,3.09620395 L24.7619989,3.08702254 C24.7602889,1.45733173 23.4098909,0.136051068 21.7405955,0.128956303 L21.7324735,0.128956303 C20.0589033,0.12645235 18.6999558,1.44898504 18.6973909,3.08243184 C18.694826,4.71629605 20.0494989,6.04258483 21.7226415,6.0455062 Z M21.7324735,1.99861442 L21.7350383,1.99861442 C22.3506043,1.99944915 22.8494693,2.48773034 22.8481869,3.08869188 C22.8477594,3.68965342 22.3480395,4.17626538 21.7324735,4.17584808 L21.7281987,4.17584808 C21.1126326,4.17459605 20.6141952,3.68631474 20.6150501,3.08535321 C20.6163325,2.48397436 21.11648,1.99777981 21.7324735,1.99861442 Z" id="Shape"/>
                        <path d="M22.1112175,26.1226295 C22.3249558,25.9448451 22.448069,25.685263 22.448069,25.4106571 C22.448069,25.1368857 22.3249558,24.876469 22.1112175,24.6991019 L15.9158019,19.5483607 C15.6567511,19.3213308 15.2921138,19.2491319 14.9633844,19.3597255 C14.6342275,19.4711538 14.3927034,19.7474293 14.3328567,20.0817141 C14.2725825,20.4168335 14.4033904,20.7569611 14.6735555,20.970219 L20.0127358,25.4106571 L14.6735555,29.8502605 C14.2708726,30.1849626 14.2229953,30.7750735 14.5658313,31.1682025 C14.9086675,31.5613314 15.513119,31.6084903 15.9158019,31.273788 L22.1112175,26.1226295 Z" id="Path"/>
                        <path d="M9.39080189,3.04987981 C9.38823697,4.68290929 10.7390624,6.01003269 12.4113502,6.01712735 L12.4207547,6.01712735 C14.0896226,6.01545812 15.4438679,4.69793333 15.4507075,3.06865983 L15.4507075,3.05947853 C15.4502801,1.42895299 14.0998821,0.106837607 12.4305867,0.100994872 L12.4207547,0.100994872 C10.7510319,0.101412286 9.39678661,1.420189 9.39080189,3.04987981 Z M11.6354806,2.28740983 C11.8432341,2.08375064 12.125796,1.96940107 12.4207547,1.97065299 L12.424602,1.97065299 C13.0405955,1.97148771 13.539033,2.45976902 13.5377506,3.06073056 C13.5364681,3.66252671 13.0363208,4.14872126 12.4207547,4.14746923 L12.4177624,4.14746923 C11.9667747,4.14663462 11.5606722,3.88037521 11.3896816,3.47305684 C11.2182636,3.06573846 11.3153008,2.59707201 11.6354806,2.28740983 Z" id="Shape"/>
                        <path d="M3.12015038,0.0717815171 C1.44658019,0.0663561966 0.085067834,1.38680224 0.080365566,3.02108376 C0.0748084,4.65494786 1.42734378,5.9837406 3.10091397,5.98916603 L3.1103184,5.98916603 C4.78474349,5.99166998 6.14369104,4.66913729 6.14625584,3.03527308 C6.14882075,1.40099156 4.79414802,0.0742854701 3.12015038,0.0717815171 Z M3.1103184,4.11950791 L3.10689858,4.11950791 C2.49047754,4.11825588 1.99204009,3.62997457 1.99332255,3.02859573 C1.99417745,2.42721688 2.49432491,1.94018761 3.1103184,1.94143964 L3.11459322,1.94143964 C3.73101415,1.94227436 4.22945171,2.43055556 4.2285967,3.03235171 C4.22731424,3.63373066 3.72673944,4.12034252 3.1103184,4.11950791 Z" id="Shape"/>
                    </g>
                </g>
            </g>
        </g>
    </g>
</svg>