<?xml version="1.0" encoding="UTF-8"?>
<svg width="65px" height="71px" viewBox="0 0 65 71" version="1.1" xmlns="http://www.w3.org/2000/svg" xmlns:xlink="http://www.w3.org/1999/xlink">
    <!-- Generator: Sketch 54 (76480) - https://sketchapp.com -->
    <title>eCommerce Portals for Web and Data Transformation</title>
    <desc>Created with Sketch.</desc>
    <g id="Page-1" stroke="none" stroke-width="1" fill="none" fill-rule="evenodd">
        <g id="MicrosoftDotNet" transform="translate(-396.000000, -1604.000000)" fill-rule="nonzero">
            <g id="Group-29" transform="translate(392.000000, 1604.000000)">
                <g id="eCommerce-Portals-for-Web-and-Mobile-apps" transform="translate(4.000000, 0.000000)">
                    <g id="Group" transform="translate(17.333333, 2.101480)" fill="#D4E1F4">
                        <path d="M15.5577407,0.10026596 L11.5845457,0.10026596 C9.52644572,0.102611362 7.8576689,1.77840079 7.85533398,3.84587246 L7.85533398,4.59112389 L11.8285291,4.59112389 L11.8285291,3.84587246 C11.8308638,1.77840079 13.4990571,0.102611362 15.5577407,0.10026596 Z" id="Path"/>
                        <polygon id="Path" points="7.26813937 6.60406485 2.05751613 11.1904978 6.03071121 11.1904978 11.2413344 6.60406485"/>
                        <path d="M11.8285291,55.1380484 L11.8285291,49.3243839 L7.85533398,49.3243839 L7.85533398,55.1380484 C7.85533398,57.4558915 9.52878049,59.3410082 11.5845457,59.3410082 L15.5577407,59.3410083 C13.5013919,59.3415945 11.8285291,57.4558915 11.8285291,55.1380484 Z" id="Path"/>
                        <path d="M8.53591954,18.0883242 C8.3170348,18.2237711 8.08997845,18.3451457 7.85591778,18.4506888 L7.85591778,33.9121631 L11.8291127,33.9121631 L11.8291127,19.1361324 C10.5479077,18.9930629 9.39336383,18.6254211 8.53591954,18.0883242 Z" id="Path"/>
                        <path d="M3.98195051,16.8106667 L3.98195051,13.3529581 L0.00875542529,13.3529581 L0.00875542529,16.8106667 C0.740122126,18.0977058 2.10888107,18.8857607 3.58445578,18.8699294 C4.27729885,18.8728611 4.96021903,18.7016468 5.57017784,18.3709451 C4.90710313,18.0085805 4.35726469,17.4685518 3.98195051,16.8106667 Z" id="Path"/>
                        <path d="M12.8838451,16.6201027 C12.7244971,16.311096 12.4069684,16.1170141 12.0602551,16.1176004 C11.7135417,16.1176004 11.3960129,16.3122688 11.2366649,16.6218618 C10.9564925,17.169513 10.5601652,17.6485614 10.074533,18.0249983 C10.7965607,18.5790996 11.6814385,18.8757928 12.5896641,18.8693429 C13.2830908,18.8728611 13.9665948,18.7010605 14.5771373,18.3703587 C13.8498563,17.9716404 13.2597431,17.3618359 12.8838451,16.6201027 Z" id="Path"/>
                        <path d="M30.8936782,16.6201027 C30.7343301,16.311096 30.4162177,16.1170141 30.070088,16.1170141 C29.7227909,16.1176004 29.4052621,16.3116825 29.2459141,16.6212755 C28.9663254,17.169513 28.5694144,17.6485614 28.0837823,18.0249983 C28.80581,18.5796859 29.6912716,18.8769654 30.6000808,18.8705157 C31.2935075,18.8740337 31.9770115,18.7022331 32.587554,18.3715314 C31.860273,17.9722268 31.2695761,17.3618359 30.8936782,16.6201027 L30.8936782,16.6201027 Z" id="Path"/>
                        <path d="M21.8884698,16.620689 C21.8832166,16.6101348 21.8762123,16.5978215 21.8703753,16.5872671 C21.7028557,16.2899875 21.3864943,16.1088051 21.0462015,16.1158413 C20.7059087,16.1222912 20.3971354,16.3157868 20.2407058,16.6195164 C19.9605334,17.1683404 19.5636224,17.647975 19.0774066,18.024412 C19.7994342,18.5790996 20.6848959,18.8763791 21.5937051,18.8699294 C22.2877155,18.8728611 22.9706357,18.7016468 23.5811782,18.3709451 C22.854481,17.9722268 22.2643678,17.3624224 21.8884698,16.620689 Z" id="Path"/>
                        <path d="M39.9018049,16.6242072 C39.7430406,16.3134415 39.4249282,16.1176004 39.0776311,16.1170141 C38.7297503,16.1164278 38.4110543,16.311096 38.2517063,16.6212755 C37.9715338,17.169513 37.5746229,17.6491477 37.0889907,18.0255848 C37.8110184,18.5802722 38.6970635,18.8775519 39.6064566,18.871102 C40.2992995,18.8746202 40.9822198,18.7028194 41.5927621,18.3721178 C40.8666488,17.9739859 40.2771193,17.3647678 39.9018049,16.6242072 L39.9018049,16.6242072 Z" id="Path"/>
                    </g>
                    <path d="M36.2613147,56.7733797 C36.2613147,57.3538666 36.7294361,57.8241196 37.3072917,57.8241196 L43.2866379,57.8241196 C43.8639098,57.8241196 44.3326149,57.3538666 44.3326149,56.7733797 C44.3326149,56.1928928 43.8639098,55.7226397 43.2866379,55.7226397 L37.3072917,55.7226397 C36.7294361,55.7226397 36.2613147,56.1928928 36.2613147,56.7733797 Z" id="Path" fill="#0635C9"/>
                    <path d="M32.9418552,63.6735514 C31.4149156,63.6758968 30.0525773,64.6392706 29.5354256,66.0828654 L23.7165948,66.0828654 C23.2006106,64.6375115 21.8371049,63.6735514 20.3089978,63.6735514 C18.7803071,63.6735514 17.4168014,64.6375115 16.9014009,66.0828654 L16.4356143,66.0828654 C15.1316451,66.0881425 14.0162087,65.1417729 13.8037446,63.8488702 L10.2712374,27.4382681 C10.2689026,27.4171595 10.2665679,27.3960508 10.2630658,27.3755285 C9.90526214,25.047131 7.90611526,23.3314697 5.5602551,23.340265 L1.09442353,23.340265 C0.516567851,23.340265 0.0484465172,23.8111043 0.0484465172,24.391005 C0.0484465172,24.9714918 0.516567851,25.4417449 1.09442353,25.4417449 L5.5602551,25.4417449 C6.86422414,25.4370541 7.97907694,26.3834236 8.19212468,27.67574 L11.7246319,64.0863421 C11.7269666,64.1074507 11.7293014,64.1285594 11.7328035,64.1490817 C12.090607,66.4780655 14.0903376,68.193727 16.4356143,68.1843453 L16.7945851,68.1843453 C17.1944144,69.8073633 18.6443068,70.9472285 20.3084141,70.9472285 C21.9725216,70.9472285 23.4224138,69.8073633 23.8222431,68.1843453 L29.4274425,68.1843453 C29.8809716,70.0231403 31.6635686,71.2046363 33.5249641,70.8991477 C35.3863595,70.5936592 36.7025862,68.9043835 36.5496587,67.0163353 C36.397315,65.1277005 34.8271821,63.6735514 32.9412716,63.6735514 L32.9418552,63.6735514 Z M20.3089978,68.8451622 C19.4649784,68.8457486 18.7803071,68.1579595 18.7803071,67.3100968 C18.7803071,66.4616477 19.4649784,65.774445 20.3089978,65.7750313 C21.1536009,65.7750313 21.8376885,66.4628205 21.8371049,67.3106831 C21.8359374,68.1579595 21.1524336,68.8445758 20.3089978,68.8451622 Z M32.9418552,68.8451622 C32.0978359,68.8457486 31.4137482,68.1579595 31.4137482,67.3100968 C31.4137482,66.4616477 32.0984195,65.774445 32.942439,65.7750313 C33.7864583,65.7750313 34.470546,66.4628205 34.4699623,67.3106831 C34.4687949,68.1579595 33.7852909,68.8445758 32.9418552,68.8451622 Z" id="Shape" fill="#43D92D"/>
                    <path d="M51.4635865,0 L29.1297593,0 C25.8453215,0.00351810254 23.1842672,2.67727611 23.1801814,5.97666982 L23.1801814,7.68119054 C23.1801814,8.26109107 23.6483028,8.7319305 24.2261584,8.7319305 C24.804014,8.7319305 25.2721354,8.26109107 25.2721354,7.68119054 L25.2721354,5.97666982 C25.2744701,3.83766348 27.0004489,2.10382532 29.1297593,2.10147992 L51.4635865,2.10147992 C53.5934805,2.10382532 55.3188758,3.83766348 55.3217942,5.97666982 L55.3217942,7.69467664 C55.3217942,8.27516348 55.7899156,8.74541659 56.3677712,8.74541659 C56.9450431,8.74541659 57.4137482,8.27516348 57.4137482,7.69467664 L57.4137482,5.97666982 C57.4096624,2.67727611 54.7480244,0.00351810254 51.4635865,0 Z" id="Path" fill="#24527a"/>
                    <path d="M55.3217942,50.0010323 L42.0001796,50.0010323 C42.2336566,49.655672 42.4216057,49.2815803 42.5587733,48.8875529 C42.5628592,48.8758258 42.5663614,48.8635125 42.5698635,48.8517855 L46.7222522,35.2719097 C46.8197288,34.9529351 46.7607759,34.6069883 46.5640715,34.3390262 C46.3667834,34.0704776 46.054508,33.9127494 45.7229706,33.9127494 L25.2721354,33.9127494 L25.2721354,21.1455553 L23.1801814,21.1455553 L23.1801814,33.9121631 L9.81245514,33.9121631 L9.81245514,36.013643 L44.3069325,36.013643 L43.2165948,39.5809989 L10.5000449,39.5809989 L10.5000449,41.6824789 L42.5739494,41.6824789 L41.8396641,44.0841702 L10.9483207,44.0841702 L10.9483207,46.1856501 L41.1970187,46.1856501 L40.5759698,48.2155953 C40.205325,49.2669216 39.2253052,49.9775783 38.1151221,50.0004459 L37.7077047,50.0004459 L37.7077047,50.0027914 L11.4526311,50.0027914 L11.4526311,52.1042713 L23.1801814,52.1042713 L23.1801814,57.4887272 C23.1842672,60.788121 25.8453215,63.461879 29.1297593,63.4653971 L51.4635865,63.4653971 C54.7480244,63.461879 57.4096624,60.788121 57.4137482,57.4887272 L57.4137482,21.4481122 L55.3217942,21.4481122 L55.3217942,50.0010323 Z M55.3217942,57.4887272 C55.3188758,59.62832 53.5934805,61.3615717 51.4635865,61.3639172 L29.1297593,61.3639172 C27.0004489,61.3615717 25.2744701,59.62832 25.2721354,57.4887272 L25.2721354,52.1048577 L38.0596713,52.1048577 C38.0777658,52.1048577 38.096444,52.1030986 38.1145385,52.1030986 L55.3217942,52.1030986 L55.3217942,57.4887272 Z" id="Shape" fill="#24527a"/>
                    <path d="M64.8943517,14.2840826 C64.8943517,14.2799781 64.8943517,14.2758738 64.8943517,14.2717693 C64.8896821,14.2248613 64.8815104,14.1779532 64.8704202,14.132218 C64.8680856,14.1234227 64.8663344,14.1146274 64.863416,14.1052458 C64.851742,14.0600968 64.8365661,14.0149479 64.8190552,13.9715579 C64.8003771,13.9275816 64.7787805,13.8853643 64.7548491,13.8443199 C64.7495959,13.8355246 64.7443426,13.8273157 64.7396731,13.8191068 C64.715158,13.7786486 64.6877245,13.7405357 64.6579563,13.7035958 C64.6556213,13.7006641 64.6527029,13.6983185 64.6503681,13.6953868 C64.6211836,13.6607921 64.5896641,13.6285429 64.55581,13.5980527 C64.5517241,13.5939482 64.5482219,13.5892574 64.5435524,13.5857392 L57.0279275,6.95294324 C56.8364764,6.78466078 56.5913254,6.69143103 56.3374192,6.69143103 L24.2255747,6.69143103 C23.9780891,6.69143103 23.7387752,6.77996998 23.5496587,6.94062992 L15.7591146,13.5728396 C15.5268049,13.7716124 15.3925557,14.0624422 15.3919719,14.3685171 C15.3908046,14.3855213 15.3896373,14.4025255 15.3896373,14.4195296 L15.3896373,19.2451937 C15.3896373,19.408199 15.4269936,19.5688591 15.4999551,19.7148603 C15.5017063,19.7189648 15.5046247,19.7248282 15.5069594,19.7289327 C16.470052,21.5976314 18.2835848,22.8735299 20.3609465,23.1432513 C22.4383081,23.412386 24.5150862,22.6419216 25.9194505,21.0798841 C27.1282776,22.4296627 28.8519218,23.1989544 30.6596175,23.1948501 C32.4673132,23.1989544 34.1909572,22.4296627 35.4003681,21.0798841 C36.6091954,22.4302492 38.3340069,23.2001272 40.1422862,23.1960227 C41.9505658,23.2001272 43.6747934,22.4308355 44.8842043,21.0804704 C46.09595,22.4279036 47.8184267,23.196609 49.6261224,23.196609 C51.4332345,23.196609 53.1562949,22.4279036 54.3674569,21.0804704 C55.7712374,22.6425079 57.8480155,23.4141451 59.9253771,23.1450102 C62.0027388,22.8758755 63.8168552,21.6005633 64.779948,19.7312781 C64.8581627,19.5817587 64.8990212,19.4146489 64.8990212,19.24578 L64.8990212,14.3743807 C64.8990212,14.3438904 64.8966865,14.3139865 64.8943517,14.2840826 L64.8943517,14.2840826 Z M24.6096443,8.79232463 L55.9422593,8.79232463 L61.0770026,13.3236407 L19.2875359,13.3236407 L24.6096443,8.79232463 Z M59.1099587,21.0957154 C57.4989673,21.1115469 56.0193068,20.2050493 55.2955281,18.759109 C55.1145833,18.4125759 54.7567799,18.19504 54.3674569,18.1956263 L54.3657058,18.1956263 C53.9752155,18.1967989 53.617412,18.4160941 53.4382184,18.7643862 C52.700431,20.196254 51.2295259,21.0951291 49.6249551,21.0951291 C48.0198006,21.0945428 46.5494792,20.1944949 45.8128592,18.7620409 C45.6324982,18.4137487 45.274111,18.19504 44.883037,18.1956263 C44.491963,18.1956263 44.1335758,18.4149215 43.9543822,18.7643862 C43.2171785,20.1956677 41.746857,21.0945428 40.1422862,21.0945428 C38.5382992,21.0945428 37.0679777,20.1956677 36.3307741,18.7643862 C36.3202676,18.7444503 36.3091775,18.723928 36.2975035,18.7045785 C36.1025503,18.3779813 35.7464978,18.183313 35.3676814,18.19504 C34.9888649,18.2073533 34.6456537,18.4243031 34.4717133,18.7626272 C33.7345097,20.1944949 32.2641882,21.0933702 30.6596175,21.0933702 C29.0550466,21.0933702 27.5847253,20.1944949 26.8475216,18.7626272 C26.6677443,18.4137487 26.309357,18.19504 25.918283,18.1956263 C25.5272091,18.1956263 25.1688218,18.4149215 24.9890445,18.7643862 C24.2716865,20.1569684 22.8579831,21.0482211 21.297773,21.0927837 C19.7375629,21.1373464 18.2759968,20.3270101 17.4815913,18.9772314 L17.4815913,15.4251206 L62.8070672,15.4251206 L62.8070672,18.9766451 C62.0465158,20.301797 60.6333962,21.1121334 59.1105425,21.0957154 L59.1099587,21.0957154 Z" id="Shape" fill="#43D92D"/>
                </g>
            </g>
        </g>
    </g>
</svg>