<?xml version="1.0" encoding="UTF-8"?>
<svg width="64px" height="64px" viewBox="0 0 64 64" version="1.1" xmlns="http://www.w3.org/2000/svg" xmlns:xlink="http://www.w3.org/1999/xlink">
    <!-- Generator: Sketch 54 (76480) - https://sketchapp.com -->
    <title>eCommerce Development</title>
    <desc>Created with Sketch.</desc>
    <g id="Page-1" stroke="none" stroke-width="1" fill="none" fill-rule="evenodd">
        <g id="Php-Development" transform="translate(-392.000000, -1362.000000)" fill-rule="nonzero">
            <g id="Group-4" transform="translate(392.000000, 1362.000000)">
                <g id="eCommerce-Development">
                    <path d="M11.5140187,2.15705886 L7.02803738,2.15705886 C4.30432239,2.1605882 2.09637847,4.38352941 2.09345794,7.12647063 L2.09345794,37.5329413 L6.57943925,37.5329413 L6.57943925,7.12647063 C6.58235978,4.38352941 8.7903037,2.1605882 11.5140187,2.15705886 Z" id="Path" fill="#D4E1F4"/>
                    <path d="M61.4053739,45.8635294 L11.5140187,45.8635294 C8.78971963,45.8605883 6.58235978,43.6376471 6.57943925,40.8941176 L6.57943925,39.6411765 L2.09345794,39.6411765 L2.09345794,43.9058824 C2.09637847,46.6494118 4.30373832,48.872353 7.02803738,48.8752941 L56.9193926,48.8752941 C58.8931074,48.8735294 60.6764019,47.6888236 61.4550234,45.862353 C61.4386683,45.8629412 61.4223131,45.8635294 61.4053739,45.8635294 Z" id="Path" fill="#D4E1F4"/>
                    <path d="M45.0443925,61.79 L33.020444,61.79 L33.020444,49.9294118 C33.020444,49.3476471 32.5519859,48.8752941 31.973715,48.8752941 C31.3960281,48.8752941 30.926986,49.3476471 30.926986,49.9294118 L30.926986,61.79 L19.6185748,61.79 C19.0403037,61.79 18.5718458,62.262353 18.5718458,62.8441177 C18.5718458,63.4264706 19.0403037,63.8982353 19.6185748,63.8982353 L45.0443925,63.8982353 C45.6226635,63.8982353 46.0911215,63.4264706 46.0911215,62.8441177 C46.0911215,62.262353 45.6226635,61.79 45.0443925,61.79 L45.0443925,61.79 Z" id="Path" fill="#43D92D"/>
                    <path d="M15.7494159,20.3488235 C15.4427571,20.3494117 15.1518692,20.2141176 14.952687,19.9794117 L13.223715,17.9399999 C12.8481308,17.497647 12.9001168,16.8317648 13.3399533,16.4541176 C13.7797898,16.0758823 14.4404205,16.1282352 14.8160046,16.5711765 L15.8814252,17.8276471 L19.1156543,15.1770588 C19.5642524,14.8141176 20.2196262,14.8841177 20.582944,15.3335294 C20.9462617,15.7829412 20.8808411,16.4441177 20.4369159,16.8123529 L16.4094626,20.1117648 C16.2231309,20.2652942 15.9900701,20.3488235 15.7494159,20.3488235 Z" id="Path" fill="#43D92D"/>
                    <path d="M56.2383178,29.1405883 L53.7178738,14.8105882 C53.5338784,13.6388235 52.5292055,12.777647 51.3510514,12.7823529 L50.2511683,12.7823529 L50.2511683,11.7682354 C50.2511683,8.70352941 47.7838786,6.21882353 44.7400701,6.21882353 C41.6968458,6.21882353 39.229556,8.70352941 39.229556,11.7682354 L39.229556,12.7823529 L38.1290887,12.7823529 C36.9515187,12.777647 35.9462617,13.6388235 35.7628504,14.8105882 L33.2424066,29.1405883 C33.2318925,29.2017647 33.2260514,29.2629412 33.2260514,29.3247059 C33.228972,31.4082352 34.9053739,33.0964706 36.9742991,33.0994117 L52.5064253,33.0994117 C54.5753504,33.0964706 56.2517524,31.4082352 56.2540888,29.3247059 C56.2540888,29.2629412 56.2488317,29.2017647 56.2383178,29.1405883 L56.2383178,29.1405883 Z M41.323014,11.7682354 C41.323014,9.8676471 42.8528037,8.32705882 44.7400701,8.32705882 C46.6279206,8.32705882 48.1577104,9.8676471 48.1577104,11.7682354 L48.1577104,12.7823529 L41.323014,12.7823529 L41.323014,11.7682354 Z M52.5064253,30.9911764 L36.9742991,30.9911764 C36.0922898,30.99 35.3656541,30.2929411 35.3218458,29.4058824 L37.8259347,15.1694118 C37.8271028,15.1629411 37.828271,15.1558823 37.8288552,15.1488235 C37.8516354,15 37.979556,14.89 38.1290887,14.8905882 L39.229556,14.8905882 L39.229556,16.8029411 C39.229556,17.3852942 39.6980141,17.8570588 40.276285,17.8570588 C40.8545561,17.8570588 41.323014,17.3852942 41.323014,16.8029411 L41.323014,14.8905882 L48.1577104,14.8905882 L48.1577104,16.8029411 C48.1577104,17.3852942 48.6261682,17.8570588 49.2044393,17.8570588 C49.7827103,17.8570588 50.2511683,17.3852942 50.2511683,16.8029411 L50.2511683,14.8905882 L51.3510514,14.8905882 C51.5011681,14.89 51.6285047,15 51.6512851,15.1488235 C51.6524532,15.1558823 51.6536215,15.1629411 51.6547897,15.1694118 L54.1588785,29.4058824 C54.114486,30.2929411 53.3884345,30.99 52.5064253,30.9911764 L52.5064253,30.9911764 Z" id="Shape" fill="#43D92D"/>
                    <g id="Group" fill="#24527a">
                        <path d="M56.9193926,0.0488235671 L7.02803738,0.0488235671 C3.14836456,0.0535294494 0.00408879252,3.21941173 0,7.12647063 L0,43.9058824 C0.00408879252,47.8129411 3.14836456,50.9794117 7.02803738,50.9835294 L56.9193926,50.9835294 C60.7990654,50.9794117 63.9433412,47.8129411 63.94743,43.9058824 L63.94743,7.12647063 C63.9433412,3.21941173 60.7990654,0.0535294494 56.9193926,0.0488235671 Z M7.02803738,2.15705886 L56.9193926,2.15705886 C59.6436917,2.1605882 61.8510514,4.38352941 61.853972,7.12647063 L61.853972,37.5329413 L2.09345794,37.5329413 L2.09345794,7.12647063 C2.09637847,4.38352941 4.30432239,2.1605882 7.02803738,2.15705886 Z M56.9193926,48.8752941 L7.02803738,48.8752941 C4.30373832,48.8717646 2.09637847,46.6488236 2.09345794,43.9058824 L2.09345794,39.6411765 L61.853972,39.6411765 L61.853972,43.9058824 C61.8510514,46.6494118 59.6436917,48.872353 56.9193926,48.8752941 Z" id="Shape"/>
                        <path d="M16.8983644,25.9547059 C20.7570093,25.9547059 24.1004673,23.2611765 24.9480141,19.4694117 C25.7949766,15.6782353 23.9199767,11.8017647 20.4334113,10.1364706 C16.9468458,8.47176463 12.7797898,9.46235302 10.400701,12.5223529 C7.88434572,15.7594118 8.09696269,20.3629411 10.9001168,23.3511764 C12.4608644,25.0094118 14.6290887,25.9505882 16.8983644,25.9547059 Z M12.0484813,13.8235294 C13.9024532,11.4370589 17.1968458,10.7488235 19.8399533,12.1958823 C22.4830608,13.6429411 23.7015187,16.8017647 22.7207943,19.6658824 C21.7406542,22.5305883 18.8487149,24.262353 15.8814252,23.7617647 C12.9141355,23.2611765 10.7400701,20.6747059 10.7400701,17.6452941 C10.7377337,16.2594117 11.1985981,14.9129412 12.0484813,13.8235294 Z" id="Shape"/>
                        <path d="M9.69334116,29.8652942 L23.8989486,29.8652942 C24.4772196,29.8652942 24.9456776,29.3935294 24.9456776,28.8111765 C24.9456776,28.2294118 24.4772196,27.7570589 23.8989486,27.7570589 L9.69334116,27.7570589 C9.11565428,27.7570589 8.64661219,28.2294118 8.64661219,28.8111765 C8.64661219,29.3935294 9.11565428,29.8652942 9.69334116,29.8652942 Z" id="Path"/>
                        <path d="M9.69334116,34.3829412 L18.0671729,34.3829412 C18.6454439,34.3829412 19.1139019,33.9111764 19.1139019,33.3288236 C19.1139019,32.7470589 18.6454439,32.2747059 18.0671729,32.2747059 L9.69334116,32.2747059 C9.11565428,32.2747059 8.64661219,32.7470589 8.64661219,33.3288236 C8.64661219,33.9111764 9.11565428,34.3829412 9.69334116,34.3829412 Z" id="Path"/>
                    </g>
                </g>
            </g>
        </g>
    </g>
</svg>