<?xml version="1.0" encoding="UTF-8"?>
<svg width="72px" height="75px" viewBox="0 0 72 75" version="1.1" xmlns="http://www.w3.org/2000/svg" xmlns:xlink="http://www.w3.org/1999/xlink">
    <!-- Generator: Sketch 54 (76480) - https://sketchapp.com -->
    <title>Future Ready</title>
    <desc>Created with Sketch.</desc>
    <g id="Page-1" stroke="none" stroke-width="1" fill="none" fill-rule="evenodd">
        <g id="iOs-Development" transform="translate(-438.000000, -2344.000000)" fill-rule="nonzero">
            <g id="Group-4" transform="translate(391.000000, 2298.000000)">
                <g id="Future-Ready" transform="translate(47.000000, 46.000000)">
                    <rect id="Rectangle" fill="#D4E1F4" x="1.19502075" y="19.56" width="4.4813278" height="42.99"/>
                    <path d="M11.9502075,10.35 L7.46887967,10.35 C4.00552699,10.3538853 1.19888991,13.1722167 1.19502075,16.65 L1.19502075,17.76 L5.67634855,17.76 L5.67634855,16.65 C5.68021771,13.1722167 8.48685479,10.3538853 11.9502075,10.35 L11.9502075,10.35 Z" id="Path" fill="#D4E1F4"/>
                    <path d="M5.67634855,67.2 L5.67634855,64.05 L1.19502075,64.05 L1.19502075,67.2 C1.19888991,70.6777833 4.00552699,73.4961147 7.46887967,73.5 L11.9502075,73.5 C8.48685479,73.4961147 5.68021771,70.6777833 5.67634855,67.2 Z" id="Path" fill="#D4E1F4"/>
                    <path d="M30.8730622,8.6718 L6.9726473,8.6718 C3.17946936,8.67609852 0.105558694,11.7628172 0.101278008,15.5718 L0.101278008,68.0718 C0.105476547,71.8808171 3.17943528,74.967584 6.9726473,74.9718 L30.8730622,74.9718 C34.6662402,74.9675015 37.7401508,71.8807828 37.7444315,68.0718 L37.7444315,50.0718 L35.9519004,50.0718 L35.9519004,62.3718 L1.89380913,62.3718 L1.89380913,19.4718 L26.2423568,19.4718 C26.7373506,19.4718 27.1386224,19.0688563 27.1386224,18.5718 C27.1386224,18.0747437 26.7373506,17.6718 26.2423568,17.6718 L1.89380913,17.6718 L1.89380913,15.5718 C1.8969374,12.75645 4.16897923,10.4749413 6.9726473,10.4718 L30.8730622,10.4718 C33.6767303,10.4749413 35.9487721,12.75645 35.9519004,15.5718 L35.9519004,17.6718 L33.8606141,17.6718 C33.5404093,17.6718 33.2445278,17.843339 33.0844253,18.1218 C32.9243229,18.400261 32.9243229,18.743339 33.0844253,19.0218 C33.2445278,19.300261 33.5404093,19.4718 33.8606141,19.4718 L35.9519004,19.4718 L35.9519004,34.29765 L37.7444315,34.29765 L37.7444315,15.5718 C37.7400687,11.7628514 34.6662061,8.676181 30.8730622,8.6718 Z M35.9519004,64.1718 L35.9519004,68.0718 C35.9488543,70.8871843 33.6767644,73.1687412 30.8730622,73.1718 L6.9726473,73.1718 C4.16894515,73.1687412 1.89685525,70.8871843 1.89380913,68.0718 L1.89380913,64.1718 L35.9519004,64.1718 Z" id="Shape" fill="#0B75FF"/>
                    <path d="M31.7409461,18.5718 C31.7409461,18.0747437 31.3396743,17.6718 30.8446805,17.6718 L29.1843485,17.6718 C28.6893547,17.6718 28.288083,18.0747437 28.288083,18.5718 C28.288083,19.0688563 28.6893547,19.4718 29.1843485,19.4718 L30.8446805,19.4718 C31.3396743,19.4718 31.7409461,19.0688563 31.7409461,18.5718 L31.7409461,18.5718 Z" id="Path" fill="#0B75FF"/>
                    <path d="M18.9228548,71.8218 C20.6553331,71.8218 22.0597842,70.411497 22.0597842,68.6718 C22.0597842,66.932103 20.6553331,65.5218 18.9228548,65.5218 C17.1903765,65.5218 15.7859253,66.932103 15.7859253,68.6718 C15.787901,70.4106745 17.1911955,71.8198161 18.9228548,71.8218 L18.9228548,71.8218 Z M18.9228548,67.3218 C19.6653455,67.3218 20.2672531,67.9262156 20.2672531,68.6718 C20.2672531,69.4173844 19.6653455,70.0218 18.9228548,70.0218 C18.1803641,70.0218 17.5784564,69.4173844 17.5784564,68.6718 C17.5792797,67.9265583 18.1807053,67.3226267 18.9228548,67.3218 L18.9228548,67.3218 Z" id="Shape" fill="#0B75FF"/>
                    <path d="M4.64235685,27.0468 L9.66144398,27.0468 C10.1564378,27.0468 10.5577095,26.6438563 10.5577095,26.1468 C10.5577095,25.6497437 10.1564378,25.2468 9.66144398,25.2468 L4.64235685,25.2468 C4.14736305,25.2468 3.74609129,25.6497437 3.74609129,26.1468 C3.74609129,26.6438563 4.14736305,27.0468 4.64235685,27.0468 Z" id="Path" fill="#0B75FF"/>
                    <path d="M17.0108216,25.2468 L13.7842656,25.2468 C13.2892718,25.2468 12.888,25.6497437 12.888,26.1468 C12.888,26.6438563 13.2892718,27.0468 13.7842656,27.0468 L17.0108216,27.0468 C17.5058154,27.0468 17.9070871,26.6438563 17.9070871,26.1468 C17.9070871,25.6497437 17.5058154,25.2468 17.0108216,25.2468 Z" id="Path" fill="#0B75FF"/>
                    <path d="M27.8257593,27.0468 C28.3207531,27.0468 28.7220249,26.6438563 28.7220249,26.1468 C28.7220249,25.6497437 28.3207531,25.2468 27.8257593,25.2468 L22.2091618,25.2468 C21.714168,25.2468 21.3128963,25.6497437 21.3128963,26.1468 C21.3128963,26.6438563 21.714168,27.0468 22.2091618,27.0468 L27.8257593,27.0468 Z" id="Path" fill="#0B75FF"/>
                    <path d="M4.64235685,35.4468 L13.2465062,35.4468 C13.7415,35.4468 14.1427718,35.0438563 14.1427718,34.5468 C14.1427718,34.0497437 13.7415,33.6468 13.2465062,33.6468 L4.64235685,33.6468 C4.14736305,33.6468 3.74609129,34.0497437 3.74609129,34.5468 C3.74609129,35.0438563 4.14736305,35.4468 4.64235685,35.4468 L4.64235685,35.4468 Z" id="Path" fill="#0B75FF"/>
                    <path d="M20.2971286,33.6468 L17.3693278,33.6468 C16.874334,33.6468 16.4730622,34.0497437 16.4730622,34.5468 C16.4730622,35.0438563 16.874334,35.4468 17.3693278,35.4468 L20.2971286,35.4468 C20.7921224,35.4468 21.1933942,35.0438563 21.1933942,34.5468 C21.1933942,34.0497437 20.7921224,33.6468 20.2971286,33.6468 Z" id="Path" fill="#0B75FF"/>
                    <path d="M4.64235685,43.8468 L6.79339419,43.8468 C7.28838799,43.8468 7.68965975,43.4438563 7.68965975,42.9468 C7.68965975,42.4497437 7.28838799,42.0468 6.79339419,42.0468 L4.64235685,42.0468 C4.14736305,42.0468 3.74609129,42.4497437 3.74609129,42.9468 C3.74609129,43.4438563 4.14736305,43.8468 4.64235685,43.8468 L4.64235685,43.8468 Z" id="Path" fill="#0B75FF"/>
                    <path d="M18.1759668,42.9468 C18.1759668,42.4497437 17.774695,42.0468 17.2797012,42.0468 L10.9162158,42.0468 C10.421222,42.0468 10.0199502,42.4497437 10.0199502,42.9468 C10.0199502,43.4438563 10.421222,43.8468 10.9162158,43.8468 L17.2797012,43.8468 C17.774695,43.8468 18.1759668,43.4438563 18.1759668,42.9468 Z" id="Path" fill="#0B75FF"/>
                    <path d="M15.1586888,51.3468 C15.1586888,50.8497437 14.757417,50.4468 14.2624232,50.4468 L4.64250622,50.4468 C4.14751242,50.4468 3.74624066,50.8497437 3.74624066,51.3468 C3.74624066,51.8438563 4.14751242,52.2468 4.64250622,52.2468 L14.2624232,52.2468 C14.757417,52.2468 15.1586888,51.8438563 15.1586888,51.3468 L15.1586888,51.3468 Z" id="Path" fill="#0B75FF"/>
                    <path d="M20.1178755,50.4468 L18.3850954,50.4468 C17.8901016,50.4468 17.4888299,50.8497437 17.4888299,51.3468 C17.4888299,51.8438563 17.8901016,52.2468 18.3850954,52.2468 L20.1178755,52.2468 C20.6128693,52.2468 21.0141411,51.8438563 21.0141411,51.3468 C21.0141411,50.8497437 20.6128693,50.4468 20.1178755,50.4468 L20.1178755,50.4468 Z" id="Path" fill="#0B75FF"/>
                    <path d="M4.64235685,56.7468 C4.14736305,56.7468 3.74609129,57.1497437 3.74609129,57.6468 C3.74609129,58.1438563 4.14736305,58.5468 4.64235685,58.5468 L12.7684979,58.5468 C13.2634917,58.5468 13.6647635,58.1438563 13.6647635,57.6468 C13.6647635,57.1497437 13.2634917,56.7468 12.7684979,56.7468 L4.64235685,56.7468 Z" id="Path" fill="#0B75FF"/>
                    <path d="M16.8913195,58.5468 L29.0805311,58.5468 C29.5755249,58.5468 29.9767967,58.1438563 29.9767967,57.6468 C29.9767967,57.1497437 29.5755249,56.7468 29.0805311,56.7468 L16.8913195,56.7468 C16.3963257,56.7468 15.9950539,57.1497437 15.9950539,57.6468 C15.9950539,58.1438563 16.3963257,58.5468 16.8913195,58.5468 L16.8913195,58.5468 Z" id="Path" fill="#0B75FF"/>
                    <path d="M59.7991369,37.25895 C59.7972437,35.589439 58.4499693,34.2364839 56.7873859,34.2345 L47.2367801,34.2345 C46.8030685,34.2350864 46.43879,33.9070151 46.3923485,33.474 C46.2620135,32.2634643 46.4154795,31.0390968 46.8404813,29.89875 C47.3217268,28.6147526 47.567875,27.2539756 47.5670539,25.88205 L47.5670539,25.10385 C47.5640903,22.4943199 45.4581214,20.3796432 42.8594191,20.37675 C42.4167937,20.3767423 42.0404446,20.7011994 41.9734606,21.14055 L41.5447469,23.9508 C41.105455,26.8095585 40.0009351,29.5239835 38.3208797,31.87365 C37.4334093,33.0969596 36.0177694,33.8214382 34.510556,33.82365 L33.3814108,33.82365 L33.3814108,31.7427 C33.3814108,31.2456437 32.980139,30.8427 32.4851452,30.8427 L24.3912697,30.8427 C23.8962759,30.8427 23.4950041,31.2456437 23.4950041,31.7427 L23.4950041,52.54065 C23.4950041,53.0377063 23.8962759,53.44065 24.3912697,53.44065 L32.485444,53.44065 C32.9804378,53.44065 33.3817095,53.0377063 33.3817095,52.54065 L33.3817095,50.8023 L34.3526639,50.8023 C36.5333649,50.8017752 38.6707857,51.4134453 40.5236017,52.56825 C42.7045145,53.92725 45.1344398,54.03975 47.6398008,54.03975 L55.6089461,54.03975 C56.7764561,54.0407423 57.8484551,53.3922649 58.3933422,52.3554032 C58.9382292,51.3185415 58.8663416,50.0639139 58.2066224,49.09665 C59.0728756,48.601969 59.6547641,47.724679 59.7754694,46.731362 C59.8961748,45.738045 59.5414446,44.745989 58.8190705,44.05665 C59.4380804,43.4539566 59.790675,42.6272524 59.7979742,41.7614819 C59.8052735,40.8957113 59.4666681,40.063131 58.8579087,39.45 C59.458588,38.8808618 59.7990748,38.0882551 59.7991369,37.25895 L59.7991369,37.25895 Z M31.5891784,51.64065 L25.2875353,51.64065 L25.2875353,32.6427 L31.5891784,32.6427 L31.5891784,51.64065 Z M56.6415934,44.9763 C57.3954689,44.9763 58.0066058,45.5899833 58.0066058,46.347 C58.0066058,47.1040167 57.3954689,47.7177 56.6415934,47.7177 L52.0497261,47.7177 C51.5547323,47.7177 51.1534606,48.1206437 51.1534606,48.6177 C51.1534606,49.1147563 51.5547323,49.5177 52.0497261,49.5177 L55.6096929,49.5177 C56.0973132,49.5125595 56.5500996,49.7708393 56.7953995,50.1940544 C57.0406993,50.6172695 57.0406993,51.1401805 56.7953995,51.5633956 C56.5500996,51.9866107 56.0973132,52.2448905 55.6096929,52.23975 L47.6405477,52.23975 C45.4043651,52.23975 43.2498921,52.1478 41.4693112,51.0387 C39.3327911,49.7070108 36.8680534,49.001662 34.3534108,49.0023 L33.3824564,49.0023 L33.3824564,35.6238 L34.5116017,35.6238 C36.5938096,35.6204293 38.5492616,34.6188998 39.774473,32.9283 C41.6208455,30.3468479 42.8347476,27.3644326 43.3175602,24.22335 L43.6148216,22.27605 C44.8883189,22.6205788 45.7738226,23.7794499 45.7755685,25.10385 L45.7755685,25.88205 C45.776169,27.0377969 45.5686829,28.1841323 45.1631203,29.26575 C44.6394103,30.6702295 44.4501356,32.1782539 44.6104232,33.6693 C44.7550004,35.0159802 45.8879183,36.0362442 47.2367801,36.0345 L56.7873859,36.0345 C57.4555194,36.0419262 57.9932592,36.5879165 57.9932592,37.258875 C57.9932592,37.9298335 57.4555194,38.4758238 56.7873859,38.48325 L54.8398008,38.48325 C54.7968923,38.4835994 54.7540626,38.487008 54.7116349,38.49345 L53.4568631,38.49345 C52.9618693,38.49345 52.5605975,38.8963937 52.5605975,39.39345 C52.5605975,39.8905063 52.9618693,40.29345 53.4568631,40.29345 L56.5715353,40.29345 C57.3585967,40.3015125 57.9924106,40.944493 57.9924106,41.734875 C57.9924106,42.525257 57.3585967,43.1682375 56.5715353,43.1763 L53.4565643,43.1763 C52.9615705,43.1763 52.5602988,43.5792437 52.5602988,44.0763 C52.5602988,44.5733563 52.9615705,44.9763 53.4565643,44.9763 L56.6415934,44.9763 L56.6415934,44.9763 Z" id="Shape" fill="#43D92D"/>
                    <path d="M67.2878838,19.37055 C66.7535602,16.7109 64.8147884,14.9925 62.3487137,14.9925 C61.23839,14.9925 60.0620415,15.3636 58.911834,16.07175 C57.7481826,15.33 56.5815436,14.95485 55.43761,14.95485 C52.9551037,14.95485 51.0226058,16.6929 50.5151701,19.37985 C49.817278,23.03235 51.9629378,27.85305 58.3294108,30.38985 C58.3474855,30.39675 58.3655602,30.4035 58.3837842,30.4095 C58.7190554,30.5322043 59.0866874,30.5322043 59.4219585,30.4095 C59.4424232,30.40275 59.4624398,30.39525 59.4817095,30.387 C65.845195,27.79845 67.9875685,22.992 67.2887801,19.3779 C67.2889295,19.37565 67.2884813,19.3731 67.2878838,19.37055 Z M58.900332,28.3569 C53.7992365,26.2479 52.0404647,22.5429 52.5695602,19.77375 C52.8860913,18.09675 53.9850622,17.05485 55.43761,17.05485 C56.3113195,17.05485 57.2931784,17.44485 58.2771286,18.1818 C58.6440357,18.4568301 59.1464581,18.4601733 59.5169627,18.19005 C60.487917,17.48235 61.493527,17.0925 62.3488631,17.0925 C63.7960332,17.0925 64.9032199,18.12285 65.2373776,19.782 C65.7634855,22.515 64.0018755,26.205 58.900332,28.3569 Z" id="Shape" fill="#43D92D"/>
                    <path d="M71.7908714,3.72915 C71.3427386,1.4991 69.7113859,0.0582 67.6342905,0.0582 C66.6615316,0.0829597087 65.7130517,0.368414799 64.8870871,0.885 C63.9584066,0.31575 63.0255436,0.0279 62.1058257,0.0279 C60.0145394,0.0279 58.3879668,1.48515 57.9622407,3.73875 C57.3880332,6.7455 59.1379917,10.70775 64.3421577,12.78135 C64.360083,12.78835 64.3781577,12.79495 64.3963817,12.80115 C64.7075691,12.9133482 65.047933,12.9133482 65.3591203,12.80115 C65.3797344,12.79425 65.4000498,12.78615 65.4202158,12.77835 C67.7638008,11.8251 69.5914357,10.4118 70.7060913,8.69175 C71.7218589,7.1247 72.1074025,5.3649 71.7925145,3.73635 L71.7908714,3.72915 Z M64.8746888,10.73205 C60.9647303,9.08475 59.6115187,6.24945 60.0158838,4.13205 C60.2530954,2.877 61.0341909,2.12775 62.1052282,2.12775 C62.7587552,2.12775 63.5008631,2.42505 64.2519336,2.98755 C64.6188735,3.26253526 65.1212957,3.26581765 65.4917676,2.99565 C66.233278,2.45565 66.9940581,2.15775 67.6342905,2.15775 C68.6865062,2.15775 69.4931452,2.9172 69.7405145,4.14015 C70.1420415,6.22935 68.7865892,9.05175 64.8746888,10.73205 Z" id="Shape" fill="#43D92D"/>
                </g>
            </g>
        </g>
    </g>
</svg>