<?xml version="1.0" encoding="UTF-8"?>
<svg width="69px" height="69px" viewBox="0 0 69 69" version="1.1" xmlns="http://www.w3.org/2000/svg" xmlns:xlink="http://www.w3.org/1999/xlink">
    <!-- Generator: Sketch 54 (76480) - https://sketchapp.com -->
    <title>In-built Functionalities </title>
    <desc>Created with Sketch.</desc>
    <g id="Page-1" stroke="none" stroke-width="1" fill="none" fill-rule="evenodd">
        <g id="MicrosoftDotNet" transform="translate(-1199.000000, -2181.000000)" fill-rule="nonzero">
            <g id="Group-4" transform="translate(1171.000000, 2130.000000)">
                <g id="In-built-Functionalities-" transform="translate(28.000000, 51.000000)">
                    <g id="Group" fill="#24527a">
                        <path d="M25.95,0 C25.453125,0 25.05,0.403125 25.05,0.9 L25.05,3.3 L24.7166016,3.3 C24.4816407,3.3011718 24.2566407,3.3978516 24.09375,3.5671875 C23.9302734,3.7365234 23.8423828,3.9650391 23.85,4.2 L23.85,7.8 L23.6666016,7.8 C23.4316407,7.8011718 23.2066407,7.8978516 23.04375,8.0671875 C22.8802734,8.2365234 22.7923828,8.4650391 22.8,8.7 L22.8,16.2 C22.7923828,16.4349609 22.8802734,16.6634766 23.04375,16.8328125 C23.2066407,17.0021484 23.4316407,17.0988282 23.6666016,17.1 L28.1666016,17.1 C28.6705078,17.1023437 29.0841796,16.7033203 29.1,16.2 L29.1,8.7 C29.0841796,8.19667965 28.6705078,7.79765625 28.1666016,7.8 L28.05,7.8 L28.05,4.2 C28.0341796,3.69667965 27.6205078,3.29765625 27.1166016,3.3 L26.85,3.3 L26.85,0.9 C26.85,0.403125 26.446875,0 25.95,0 Z M27.3,9.6 L27.3,15.3 L24.6,15.3 L24.6,9.6 L24.7166016,9.6 C25.2205079,9.60234375 25.6341797,9.20332035 25.65,8.7 L25.65,5.1 L26.25,5.1 L26.25,8.7 C26.2423829,8.9349609 26.3302734,9.1634766 26.49375,9.3328125 C26.6566407,9.5021484 26.8816407,9.5988282 27.1166016,9.6 L27.3,9.6 Z" id="Shape"/>
                        <path d="M45.3333984,7.8 L45.15,7.8 L45.15,4.2 C45.1576171,3.9650391 45.0697266,3.7365234 44.90625,3.5671875 C44.7433593,3.3978516 44.5183593,3.3011718 44.2833984,3.3 L43.95,3.3 L43.95,0.9 C43.95,0.403125 43.546875,0 43.05,0 C42.553125,0 42.15,0.403125 42.15,0.9 L42.15,3.3 L41.8833984,3.3 C41.3794921,3.29765625 40.9658203,3.69667965 40.95,4.2 L40.95,7.8 L40.8333984,7.8 C40.3294921,7.79765625 39.9158203,8.19667965 39.9,8.7 L39.9,16.2 C39.9158204,16.7033203 40.3294921,17.1023437 40.8333984,17.1 L45.3333984,17.1 C45.5683593,17.0988282 45.7933593,17.0021484 45.95625,16.8328125 C46.1197266,16.6634766 46.2076171,16.4349609 46.2,16.2 L46.2,8.7 C46.2076171,8.4650391 46.1197266,8.2365234 45.95625,8.0671875 C45.7933593,7.8978516 45.5683593,7.8011718 45.3333984,7.8 Z M44.4,15.3 L41.7,15.3 L41.7,9.6 L41.8833984,9.6 C42.1183593,9.5988282 42.3433593,9.5021484 42.50625,9.3328125 C42.6697266,9.1634766 42.7576171,8.9349609 42.75,8.7 L42.75,5.1 L43.35,5.1 L43.35,8.7 C43.3658203,9.20332035 43.7794921,9.60234375 44.2833984,9.6 L44.4,9.6 L44.4,15.3 Z" id="Shape"/>
                        <path d="M34.5,0 C34.003125,0 33.6,0.403125 33.6,0.9 L33.6,3.3 L33.3,3.3 C32.803125,3.3 32.4,3.703125 32.4,4.2 L32.4,7.8 L32.25,7.8 C31.753125,7.8 31.35,8.203125 31.35,8.7 L31.35,16.2 C31.35,16.696875 31.753125,17.1 32.25,17.1 L36.75,17.1 C37.246875,17.1 37.65,16.696875 37.65,16.2 L37.65,8.7 C37.65,8.203125 37.246875,7.8 36.75,7.8 L36.6,7.8 L36.6,4.2 C36.6,3.703125 36.196875,3.3 35.7,3.3 L35.4,3.3 L35.4,0.9 C35.4,0.403125 34.996875,0 34.5,0 Z M35.85,9.6 L35.85,15.3 L33.15,15.3 L33.15,9.6 L33.3,9.6 C33.796875,9.6 34.2,9.196875 34.2,8.7 L34.2,5.1 L34.8,5.1 L34.8,8.7 C34.8,9.196875 35.203125,9.6 35.7,9.6 L35.85,9.6 Z" id="Shape"/>
                        <path d="M45.3333984,51.9 L40.8333984,51.9 C40.3294921,51.8976562 39.9158203,52.2966796 39.9,52.8 L39.9,60.3 C39.9158204,60.8033203 40.3294921,61.2023437 40.8333984,61.2 L40.95,61.2 L40.95,64.8 C40.9658204,65.3033203 41.3794921,65.7023437 41.8833984,65.7 L42.15,65.7 L42.15,68.1 C42.15,68.596875 42.553125,69 43.05,69 C43.546875,69 43.95,68.596875 43.95,68.1 L43.95,65.7 L44.2833984,65.7 C44.5183593,65.6988282 44.7433593,65.6021484 44.90625,65.4328125 C45.0697266,65.2634766 45.1576171,65.0349609 45.15,64.8 L45.15,61.2 L45.3333984,61.2 C45.5683593,61.1988282 45.7933593,61.1021484 45.95625,60.9328125 C46.1197266,60.7634766 46.2076171,60.5349609 46.2,60.3 L46.2,52.8 C46.2076171,52.5650391 46.1197266,52.3365234 45.95625,52.1671875 C45.7933593,51.9978516 45.5683593,51.9011718 45.3333984,51.9 Z M44.4,59.4 L44.2833984,59.4 C43.7794921,59.3976562 43.3658203,59.7966796 43.35,60.3 L43.35,63.9 L42.75,63.9 L42.75,60.3 C42.7576171,60.0650391 42.6697266,59.8365234 42.50625,59.6671875 C42.3433593,59.4978516 42.1183593,59.4011718 41.8833984,59.4 L41.7,59.4 L41.7,53.7 L44.4,53.7 L44.4,59.4 Z" id="Shape"/>
                        <path d="M22.8,60.3 C22.7923828,60.5349609 22.8802734,60.7634766 23.04375,60.9328125 C23.2066407,61.1021484 23.4316407,61.1988282 23.6666016,61.2 L23.85,61.2 L23.85,64.8 C23.8423828,65.0349609 23.9302734,65.2634766 24.09375,65.4328125 C24.2566407,65.6021484 24.4816407,65.6988282 24.7166016,65.7 L25.05,65.7 L25.05,68.1 C25.05,68.596875 25.453125,69 25.95,69 C26.446875,69 26.85,68.596875 26.85,68.1 L26.85,65.7 L27.1166016,65.7 C27.6205078,65.7023437 28.0341796,65.3033203 28.05,64.8 L28.05,61.2 L28.1666016,61.2 C28.6705078,61.2023437 29.0841796,60.8033203 29.1,60.3 L29.1,52.8 C29.0841796,52.2966796 28.6705078,51.8976562 28.1666016,51.9 L23.6666016,51.9 C23.4316407,51.9011718 23.2066407,51.9978516 23.04375,52.1671875 C22.8802734,52.3365234 22.7923828,52.5650391 22.8,52.8 L22.8,60.3 Z M24.6,53.7 L27.3,53.7 L27.3,59.4 L27.1166016,59.4 C26.8816407,59.4011718 26.6566407,59.4978516 26.49375,59.6671875 C26.3302734,59.8365234 26.2423829,60.0650391 26.25,60.3 L26.25,63.9 L25.65,63.9 L25.65,60.3 C25.6341797,59.7966796 25.2205079,59.3976562 24.7166016,59.4 L24.6,59.4 L24.6,53.7 Z" id="Shape"/>
                        <path d="M31.35,60.3 C31.35,60.796875 31.753125,61.2 32.25,61.2 L32.4,61.2 L32.4,64.8 C32.4,65.296875 32.803125,65.7 33.3,65.7 L33.6,65.7 L33.6,68.1 C33.6,68.596875 34.003125,69 34.5,69 C34.996875,69 35.4,68.596875 35.4,68.1 L35.4,65.7 L35.7,65.7 C36.196875,65.7 36.6,65.296875 36.6,64.8 L36.6,61.2 L36.75,61.2 C37.246875,61.2 37.65,60.796875 37.65,60.3 L37.65,52.8 C37.65,52.303125 37.246875,51.9 36.75,51.9 L32.25,51.9 C31.753125,51.9 31.35,52.303125 31.35,52.8 L31.35,60.3 Z M33.15,53.7 L35.85,53.7 L35.85,59.4 L35.7,59.4 C35.203125,59.4 34.8,59.803125 34.8,60.3 L34.8,63.9 L34.2,63.9 L34.2,60.3 C34.2,59.803125 33.796875,59.4 33.3,59.4 L33.15,59.4 L33.15,53.7 Z" id="Shape"/>
                        <path d="M68.1,25.05 L65.7,25.05 L65.7,24.7166016 C65.6988282,24.4816407 65.6021484,24.2566407 65.4328125,24.09375 C65.2634766,23.9302734 65.0349609,23.8423828 64.8,23.85 L61.2,23.85 L61.2,23.6666016 C61.1988282,23.4316407 61.1021484,23.2066407 60.9328125,23.04375 C60.7634766,22.8802734 60.5349609,22.7923828 60.3,22.8 L52.8,22.8 C52.5650391,22.7923828 52.3365234,22.8802734 52.1671875,23.04375 C51.9978516,23.2066407 51.9011718,23.4316407 51.9,23.6666016 L51.9,28.1666016 C51.8976562,28.6705078 52.2966796,29.0841796 52.8,29.1 L60.3,29.1 C60.8033203,29.0841796 61.2023437,28.6705078 61.2,28.1666016 L61.2,28.05 L64.8,28.05 C65.3033203,28.0341796 65.7023437,27.6205078 65.7,27.1166016 L65.7,26.85 L68.1,26.85 C68.596875,26.85 69,26.446875 69,25.95 C69,25.453125 68.596875,25.05 68.1,25.05 Z M63.9,26.25 L60.3,26.25 C60.0650391,26.2423829 59.8365234,26.3302734 59.6671875,26.49375 C59.4978516,26.6566407 59.4011718,26.8816407 59.4,27.1166016 L59.4,27.3 L53.7,27.3 L53.7,24.6 L59.4,24.6 L59.4,24.7166016 C59.3976562,25.2205079 59.7966796,25.6341797 60.3,25.65 L63.9,25.65 L63.9,26.25 Z" id="Shape"/>
                        <path d="M68.1,42.15 L65.7,42.15 L65.7,41.8833984 C65.7023437,41.3794921 65.3033203,40.9658203 64.8,40.95 L61.2,40.95 L61.2,40.8333984 C61.2023437,40.3294921 60.8033203,39.9158203 60.3,39.9 L52.8,39.9 C52.2966796,39.9158204 51.8976562,40.3294921 51.9,40.8333984 L51.9,45.3333984 C51.9011718,45.5683593 51.9978516,45.7933593 52.1671875,45.95625 C52.3365234,46.1197266 52.5650391,46.2076171 52.8,46.2 L60.3,46.2 C60.5349609,46.2076171 60.7634766,46.1197266 60.9328125,45.95625 C61.1021484,45.7933593 61.1988282,45.5683593 61.2,45.3333984 L61.2,45.15 L64.8,45.15 C65.0349609,45.1576171 65.2634766,45.0697266 65.4328125,44.90625 C65.6021484,44.7433593 65.6988282,44.5183593 65.7,44.2833984 L65.7,43.95 L68.1,43.95 C68.596875,43.95 69,43.546875 69,43.05 C69,42.553125 68.596875,42.15 68.1,42.15 Z M63.9,43.35 L60.3,43.35 C59.7966796,43.3658203 59.3976562,43.7794921 59.4,44.2833984 L59.4,44.4 L53.7,44.4 L53.7,41.7 L59.4,41.7 L59.4,41.8833984 C59.4011718,42.1183593 59.4978516,42.3433593 59.6671875,42.50625 C59.8365234,42.6697266 60.0650391,42.7576171 60.3,42.75 L63.9,42.75 L63.9,43.35 Z" id="Shape"/>
                        <path d="M68.1,33.6 L65.7,33.6 L65.7,33.3 C65.7,32.803125 65.296875,32.4 64.8,32.4 L61.2,32.4 L61.2,32.25 C61.2,31.753125 60.796875,31.35 60.3,31.35 L52.8,31.35 C52.303125,31.35 51.9,31.753125 51.9,32.25 L51.9,36.75 C51.9,37.246875 52.303125,37.65 52.8,37.65 L60.3,37.65 C60.796875,37.65 61.2,37.246875 61.2,36.75 L61.2,36.6 L64.8,36.6 C65.296875,36.6 65.7,36.196875 65.7,35.7 L65.7,35.4 L68.1,35.4 C68.596875,35.4 69,34.996875 69,34.5 C69,34.003125 68.596875,33.6 68.1,33.6 Z M63.9,34.8 L60.3,34.8 C59.803125,34.8 59.4,35.203125 59.4,35.7 L59.4,35.85 L53.7,35.85 L53.7,33.15 L59.4,33.15 L59.4,33.3 C59.4,33.796875 59.803125,34.2 60.3,34.2 L63.9,34.2 L63.9,34.8 Z" id="Shape"/>
                        <path d="M0.9,43.95 L3.3,43.95 L3.3,44.2833984 C3.3011718,44.5183593 3.3978516,44.7433593 3.5671875,44.90625 C3.7365234,45.0697266 3.9650391,45.1576171 4.2,45.15 L7.8,45.15 L7.8,45.3333984 C7.8011718,45.5683593 7.8978516,45.7933593 8.0671875,45.95625 C8.2365234,46.1197266 8.4650391,46.2076171 8.7,46.2 L16.2,46.2 C16.4349609,46.2076171 16.6634766,46.1197266 16.8328125,45.95625 C17.0021484,45.7933593 17.0988282,45.5683593 17.1,45.3333984 L17.1,40.8333984 C17.1023437,40.3294921 16.7033203,39.9158203 16.2,39.9 L8.7,39.9 C8.19667965,39.9158204 7.79765625,40.3294921 7.8,40.8333984 L7.8,40.95 L4.2,40.95 C3.69667965,40.9658204 3.29765625,41.3794921 3.3,41.8833984 L3.3,42.15 L0.9,42.15 C0.403125,42.15 0,42.553125 0,43.05 C0,43.546875 0.403125,43.95 0.9,43.95 Z M5.1,42.75 L8.7,42.75 C8.9349609,42.7576171 9.1634766,42.6697266 9.3328125,42.50625 C9.5021484,42.3433593 9.5988282,42.1183593 9.6,41.8833984 L9.6,41.7 L15.3,41.7 L15.3,44.4 L9.6,44.4 L9.6,44.2833984 C9.60234375,43.7794921 9.20332035,43.3658203 8.7,43.35 L5.1,43.35 L5.1,42.75 Z" id="Shape"/>
                        <path d="M8.7,29.1 L16.2,29.1 C16.7033203,29.0841796 17.1023437,28.6705078 17.1,28.1666016 L17.1,23.6666016 C17.0988282,23.4316407 17.0021484,23.2066407 16.8328125,23.04375 C16.6634766,22.8802734 16.4349609,22.7923828 16.2,22.8 L8.7,22.8 C8.4650391,22.7923828 8.2365234,22.8802734 8.0671875,23.04375 C7.8978516,23.2066407 7.8011718,23.4316407 7.8,23.6666016 L7.8,23.85 L4.2,23.85 C3.9650391,23.8423828 3.7365234,23.9302734 3.5671875,24.09375 C3.3978516,24.2566407 3.3011718,24.4816407 3.3,24.7166016 L3.3,25.05 L0.9,25.05 C0.403125,25.05 0,25.453125 0,25.95 C0,26.446875 0.403125,26.85 0.9,26.85 L3.3,26.85 L3.3,27.1166016 C3.29765625,27.6205078 3.69667965,28.0341796 4.2,28.05 L7.8,28.05 L7.8,28.1666016 C7.79765625,28.6705078 8.19667965,29.0841796 8.7,29.1 Z M5.1,26.25 L5.1,25.65 L8.7,25.65 C9.20332035,25.6341797 9.60234375,25.2205079 9.6,24.7166016 L9.6,24.6 L15.3,24.6 L15.3,27.3 L9.6,27.3 L9.6,27.1166016 C9.5988282,26.8816407 9.5021484,26.6566407 9.3328125,26.49375 C9.1634766,26.3302734 8.9349609,26.2423829 8.7,26.25 L5.1,26.25 Z" id="Shape"/>
                        <path d="M0.9,35.4 L3.3,35.4 L3.3,35.7 C3.3,36.196875 3.703125,36.6 4.2,36.6 L7.8,36.6 L7.8,36.75 C7.8,37.246875 8.203125,37.65 8.7,37.65 L16.2,37.65 C16.696875,37.65 17.1,37.246875 17.1,36.75 L17.1,32.25 C17.1,31.753125 16.696875,31.35 16.2,31.35 L8.7,31.35 C8.203125,31.35 7.8,31.753125 7.8,32.25 L7.8,32.4 L4.2,32.4 C3.703125,32.4 3.3,32.803125 3.3,33.3 L3.3,33.6 L0.9,33.6 C0.403125,33.6 0,34.003125 0,34.5 C0,34.996875 0.403125,35.4 0.9,35.4 Z M5.1,34.2 L8.7,34.2 C9.196875,34.2 9.6,33.796875 9.6,33.3 L9.6,33.15 L15.3,33.15 L15.3,35.85 L9.6,35.85 L9.6,35.7 C9.6,35.203125 9.196875,34.8 8.7,34.8 L5.1,34.8 L5.1,34.2 Z" id="Shape"/>
                    </g>
                    <path d="M50.4,46.5 L50.4,22.5 C50.3976562,20.3472657 48.6527343,18.6023438 46.5,18.6 L22.5,18.6 C20.3472657,18.6023438 18.6023438,20.3472657 18.6,22.5 L18.6,46.5 C18.6023438,48.6527343 20.3472657,50.3976562 22.5,50.4 L46.5,50.4 C48.6527343,50.3976562 50.3976562,48.6527343 50.4,46.5 Z M48.6,46.5 C48.5988282,47.6595704 47.6595704,48.5988282 46.5,48.6 L22.5,48.6 C21.3404297,48.5988282 20.4011718,47.6595704 20.4,46.5 L20.4,22.5 C20.4011718,21.3404297 21.3404297,20.4011718 22.5,20.4 L46.5,20.4 C47.6595704,20.4011718 48.5988282,21.3404297 48.6,22.5 L48.6,46.5 Z" id="Shape" fill="#43D92D"/>
                    <path d="M46.2,23.7 C46.2,23.203125 45.796875,22.8 45.3,22.8 L23.7,22.8 C23.203125,22.8 22.8,23.203125 22.8,23.7 L22.8,45.3 C22.8,45.796875 23.203125,46.2 23.7,46.2 L45.3,46.2 C45.796875,46.2 46.2,45.796875 46.2,45.3 L46.2,23.7 Z M44.4,44.4 L24.6,44.4 L24.6,24.6 L44.4,24.6 L44.4,44.4 Z" id="Shape" fill="#43D92D"/>
                </g>
            </g>
        </g>
    </g>
</svg>