<?xml version="1.0" encoding="UTF-8"?>
<svg width="57px" height="54px" viewBox="0 0 57 54" version="1.1" xmlns="http://www.w3.org/2000/svg" xmlns:xlink="http://www.w3.org/1999/xlink">
    <!-- Generator: Sketch 54 (76480) - https://sketchapp.com -->
    <title>Integration of diversified</title>
    <desc>Created with Sketch.</desc>
    <g id="Page-1" stroke="none" stroke-width="1" fill="none" fill-rule="evenodd">
        <g id="Biztalk" transform="translate(-808.000000, -1874.000000)" fill-rule="nonzero">
            <g id="Group-4" transform="translate(780.000000, 1839.000000)">
                <g id="Integration-of-diversified" transform="translate(28.000000, 35.000000)">
                    <path d="M6.33925678,1.56 L2.76931942,1.56 C2.41702481,1.55318511 2.07673218,1.68910984 1.82461949,1.93734606 C1.5725068,2.18558228 1.42963052,2.52539726 1.42797495,2.88072 L1.42797495,8.52 L4.99791232,8.52 L4.99791232,2.88072 C4.99956789,2.52539726 5.14244417,2.18558228 5.39455686,1.93734606 C5.64666955,1.68910984 5.98696218,1.55318511 6.33925678,1.56 Z" id="Path" fill="#D4E1F4"/>
                    <path d="M4.99791232,37.24188 L4.99791232,9.96 L1.42797495,9.96 L1.42797495,37.24188 C1.42797495,37.9878 2.02974739,38.64 2.76931942,38.64 L6.33925678,38.64 C5.59968476,38.64 4.99791232,37.9878 4.99791232,37.24188 Z" id="Path" fill="#D4E1F4"/>
                    <path d="M28.3215031,38.76 C28.3224461,36.1850575 30.3852209,34.0941896 32.9386221,34.08 L30.5586639,34.08 C27.9955553,34.08 25.9177453,36.1753074 25.9177453,38.76 C25.9177453,41.3446926 27.9955553,43.44 30.5586639,43.44 L32.9386221,43.44 C30.3852209,43.4258104 28.3224461,41.3349425 28.3215031,38.76 Z" id="Path" fill="#D4E1F4"/>
                    <path d="M28.3215031,25.56 C28.3224461,22.9850575 30.3852209,20.8941896 32.9386221,20.88 L30.5586639,20.88 C27.9955553,20.88 25.9177453,22.9753074 25.9177453,25.56 C25.9177453,28.1446926 27.9955553,30.24 30.5586639,30.24 L32.9386221,30.24 C30.3852209,30.2258104 28.3224461,28.1349425 28.3215031,25.56 L28.3215031,25.56 Z" id="Path" fill="#D4E1F4"/>
                    <path d="M43.8778622,0.12 L2.76931942,0.12 C2.03840676,0.113607539 1.33513881,0.401390743 0.815323864,0.91959154 C0.295508915,1.43779234 0.00206344653,2.14362751 0,2.88072 L0,37.24188 C0,38.78184 1.2423382,40.08 2.76931942,40.08 L25.2275574,40.08 L25.2275574,38.64 L2.76931942,38.64 C2.02974739,38.64 1.42797495,37.9878 1.42797495,37.24188 L1.42797495,9.96 L45.2192067,9.96 L45.2192067,20.16 L46.6471816,20.16 L46.6471816,2.88072 C46.6451182,2.14362751 46.3516727,1.43779234 45.8318578,0.91959154 C45.3120428,0.401390743 44.6087749,0.113607539 43.8778622,0.12 Z M1.42797495,8.52 L1.42797495,2.88072 C1.42963052,2.52539726 1.5725068,2.18558228 1.82461949,1.93734606 C2.07673218,1.68910984 2.41702481,1.55318511 2.76931942,1.56 L43.8778622,1.56 C44.2301568,1.55318511 44.5704494,1.68910984 44.8225621,1.93734606 C45.0746748,2.18558228 45.2175511,2.52539726 45.2192067,2.88072 L45.2192067,8.52 L1.42797495,8.52 Z" id="Shape" fill="#2282FF"/>
                    <path d="M4.91294781,2.62128 C3.97093344,2.62123146 3.1216491,3.19342846 2.76112246,4.07105123 C2.40059582,4.94867401 2.59982812,5.95888562 3.26591585,6.63061684 C3.93200359,7.30234805 4.93376902,7.50330972 5.80408142,7.1397919 C6.67439383,6.77627409 7.24185595,5.91986713 7.24185595,4.96992 C7.24041332,3.67345185 6.19858943,2.62280102 4.91294781,2.62128 L4.91294781,2.62128 Z M4.91294781,5.87844 C4.54848456,5.87848854 4.21988419,5.6571233 4.08038791,5.31757691 C3.94089163,4.97803052 4.01797427,4.58717916 4.2756887,4.3272945 C4.53340314,4.06740984 4.9209906,3.98967809 5.25770153,4.13034907 C5.59441246,4.27102006 5.81392913,4.60238759 5.813881,4.96992 C5.8133563,5.47146241 5.41030197,5.87791088 4.91294781,5.87844 L4.91294781,5.87844 Z" id="Shape" fill="#2282FF"/>
                    <path d="M10.7268288,2.62128 C9.78481444,2.62123146 8.93553011,3.19342846 8.57500346,4.07105123 C8.21447682,4.94867401 8.41370912,5.95888562 9.07979686,6.63061684 C9.74588459,7.30234805 10.74765,7.50330972 11.6179624,7.1397919 C12.4882748,6.77627409 13.055737,5.91986713 13.055737,4.96992 C13.0542943,3.67345185 12.0124704,2.62280102 10.7268288,2.62128 Z M10.7268288,5.87844 C10.3623656,5.87848854 10.0337652,5.6571233 9.89426891,5.31757691 C9.75477263,4.97803052 9.83185527,4.58717916 10.0895697,4.3272945 C10.3472841,4.06740984 10.7348716,3.98967809 11.0715825,4.13034907 C11.4082935,4.27102006 11.6278101,4.60238759 11.627762,4.96992 C11.6271719,5.47143503 11.2241558,5.87784489 10.7268288,5.87844 Z" id="Shape" fill="#2282FF"/>
                    <path d="M16.4336117,2.62128 C15.4915973,2.62123146 14.642313,3.19342846 14.2817863,4.07105123 C13.9212597,4.94867401 14.120492,5.95888562 14.7865797,6.63061684 C15.4526675,7.30234805 16.4544329,7.50330972 17.3247453,7.1397919 C18.1950577,6.77627409 18.7625198,5.91986713 18.7625198,4.96992 C18.7606848,3.67361603 17.7190905,2.62319668 16.4336117,2.62128 L16.4336117,2.62128 Z M16.4336117,5.87844 C16.0691484,5.87848854 15.7405481,5.6571233 15.6010518,5.31757691 C15.4615555,4.97803052 15.5386382,4.58717916 15.7963526,4.3272945 C16.054067,4.06740984 16.4416545,3.98967809 16.7783654,4.13034907 C17.1150763,4.27102006 17.334593,4.60238759 17.3345449,4.96992 C17.3339547,5.47143503 16.9309387,5.87784489 16.4336117,5.87844 Z" id="Shape" fill="#2282FF"/>
                    <path d="M43.4568476,4.2 L24.9385115,4.2 C24.5441871,4.2 24.224524,4.52235498 24.224524,4.92 C24.224524,5.31764502 24.5441871,5.64 24.9385115,5.64 L43.4568476,5.64 C43.851172,5.64 44.1708351,5.31764502 44.1708351,4.92 C44.1708351,4.52235498 43.851172,4.2 43.4568476,4.2 Z" id="Path" fill="#2282FF"/>
                    <path d="M56.888261,25.548 C56.8822443,22.178987 54.1767819,19.4486496 50.8359081,19.44 L30.5586639,19.44 C27.347541,19.4397049 24.6942387,21.9665469 24.510989,25.1994337 C24.3277394,28.4323206 26.6782348,31.2475898 29.868476,31.61628 L29.868476,32.66808 C26.8935282,33.00792 24.5063111,35.62368 24.5063111,38.75448 C24.5111092,42.1268504 27.2144947,44.8629173 30.5586639,44.88 L40.9352818,44.88 L40.9352818,47.47008 C39.7333203,47.7599095 38.7955119,48.7073788 38.5103424,49.92 L34.2475992,49.92 C33.9339207,48.84 32.8923319,47.93628 31.6582046,47.93628 C30.6944289,47.9298107 29.8011057,48.4445978 29.3173564,49.2852191 C28.8336071,50.1258404 28.8336071,51.1633996 29.3173564,52.0040209 C29.8011057,52.8446422 30.6944289,53.3594293 31.6582046,53.35296 C32.8741419,53.3712995 33.9443763,52.5475802 34.2475992,51.36 L38.5098664,51.36 C38.8430999,52.8462319 40.1526445,53.9015548 41.6636681,53.9015548 C43.1746917,53.9015548 44.4842362,52.8462319 44.8174697,51.36 L49.079737,51.36 C49.3828332,52.5478501 50.452958,53.3720305 51.6691315,53.35428 C53.1461602,53.3443679 54.3383417,52.1341198 54.3383417,50.64462 C54.3383417,49.1551202 53.1461602,47.9448721 51.6691315,47.93496 C50.4350042,47.93496 49.3934154,48.84 49.079737,49.92 L44.8179457,49.92 C44.5200319,48.7037882 43.5723254,47.7579229 42.3632568,47.47008 L42.3632568,44.88 L50.8359081,44.88 C54.1799378,44.8627201 56.8831071,42.1267107 56.887904,38.75448 C56.887904,35.62368 54.5006868,33.00792 51.525739,32.66808 L51.525739,31.61628 C54.5742506,31.2452249 56.8725437,28.6444549 56.888261,25.548 Z M31.6586806,51.91956 C30.9636838,51.91956 30.4002777,51.3514093 30.4002777,50.65056 C30.4002777,49.9497107 30.9636838,49.38156 31.6586806,49.38156 C32.3536773,49.38156 32.9170835,49.9497107 32.9170835,50.65056 C32.9162966,51.3510804 32.3533511,51.9187664 31.6586806,51.91956 Z M51.6696075,49.38156 C52.3646043,49.38156 52.9280104,49.9497107 52.9280104,50.65056 C52.9280104,51.3514093 52.3646043,51.91956 51.6696075,51.91956 C50.9746108,51.91956 50.4112046,51.3514093 50.4112046,50.65056 C50.4119915,49.9500396 50.974937,49.3823536 51.6696075,49.38156 L51.6696075,49.38156 Z M43.4706514,50.65056 C43.4706514,51.3872799 43.030568,52.0514576 42.3556114,52.3333881 C41.6806548,52.6153186 40.9037462,52.4594805 40.3871568,51.9385409 C39.8705674,51.4176012 39.7160306,50.6341502 39.9956068,49.9535098 C40.275183,49.2728694 40.9338143,48.82908 41.664382,48.82908 C42.6611075,48.8308645 43.4685619,49.6454405 43.4699374,50.65056 L43.4706514,50.65056 Z M31.2964509,32.64 L31.2964509,31.68 L50.0981211,31.68 L50.0981211,32.64 L31.2964509,32.64 Z M25.9415449,25.56 C25.9424878,22.9850575 28.0052627,20.8941896 30.5586639,20.88 L50.8359081,20.88 C53.3990167,20.88 55.4768267,22.9753074 55.4768267,25.56 C55.4768267,28.1446926 53.3990167,30.24 50.8359081,30.24 L30.5586639,30.24 C28.0052627,30.2258104 25.9424878,28.1349425 25.9415449,25.56 L25.9415449,25.56 Z M55.4530271,38.76 C55.4520842,41.3349425 53.3893094,43.4258104 50.8359081,43.44 L30.5586639,43.44 C27.9955553,43.44 25.9177453,41.3446926 25.9177453,38.76 C25.9177453,36.1753074 27.9955553,34.08 30.5586639,34.08 L50.8359081,34.08 C53.3893094,34.0941896 55.4520842,36.1850575 55.4530271,38.76 Z" id="Shape" fill="#43D92D"/>
                    <path d="M50.9752547,28.51944 C52.1624766,28.51944 53.232788,27.7982267 53.6870737,26.6921215 C54.1413594,25.5860162 53.8901487,24.3128642 53.0505879,23.4663708 C52.2110272,22.6198774 50.9484662,22.3667577 49.8516715,22.8250483 C48.7548767,23.2833389 48.0398597,24.3627805 48.0400522,25.56 C48.0420852,27.193791 49.3551067,28.5176549 50.9752547,28.51944 Z M50.9752547,24.03972 C51.807627,24.03972 52.4824165,24.7201383 52.4824822,25.55952 C52.4825479,26.3989018 51.8078649,27.0794274 50.9754926,27.07956 C50.1431203,27.0796925 49.4682243,26.3993817 49.4680271,25.56 C49.4687486,24.7208146 50.1430773,24.0406462 50.9752547,24.03972 L50.9752547,24.03972 Z" id="Shape" fill="#43D92D"/>
                    <path d="M31.5344468,26.904 L31.5344468,24.216 C31.5344468,23.818355 31.2147837,23.496 30.8204593,23.496 C30.4261349,23.496 30.1064718,23.818355 30.1064718,24.216 L30.1064718,26.904 C30.1064718,27.301645 30.4261349,27.624 30.8204593,27.624 C31.2147837,27.624 31.5344468,27.301645 31.5344468,26.904 Z" id="Path" fill="#43D92D"/>
                    <path d="M33.4384134,27.624 C33.8327378,27.624 34.1524008,27.301645 34.1524008,26.904 L34.1524008,24.216 C34.1524008,23.818355 33.8327378,23.496 33.4384134,23.496 C33.044089,23.496 32.7244259,23.818355 32.7244259,24.216 L32.7244259,26.904 C32.7244259,27.301645 33.044089,27.624 33.4384134,27.624 Z" id="Path" fill="#43D92D"/>
                    <path d="M36.0563674,27.624 C36.4506918,27.624 36.7703549,27.301645 36.7703549,26.904 L36.7703549,24.216 C36.7703549,23.818355 36.4506918,23.496 36.0563674,23.496 C35.662043,23.496 35.34238,23.818355 35.34238,24.216 L35.34238,26.904 C35.34238,27.301645 35.662043,27.624 36.0563674,27.624 Z" id="Path" fill="#43D92D"/>
                    <path d="M38.6743215,27.624 C39.0686459,27.624 39.388309,27.301645 39.388309,26.904 L39.388309,24.216 C39.388309,23.818355 39.0686459,23.496 38.6743215,23.496 C38.2799971,23.496 37.960334,23.818355 37.960334,24.216 L37.960334,26.904 C37.960334,27.301645 38.2799971,27.624 38.6743215,27.624 Z" id="Path" fill="#43D92D"/>
                    <path d="M41.2922756,27.624 C41.6866,27.624 42.006263,27.301645 42.006263,26.904 L42.006263,24.216 C42.006263,23.818355 41.6866,23.496 41.2922756,23.496 C40.8979512,23.496 40.5782881,23.818355 40.5782881,24.216 L40.5782881,26.904 C40.5782881,27.301645 40.8979512,27.624 41.2922756,27.624 Z" id="Path" fill="#43D92D"/>
                    <path d="M48.0400522,38.72472 C48.0400041,39.9219068 48.7551127,41.0012379 49.8519189,41.4594151 C50.9487251,41.9175923 52.2112275,41.6643837 53.0507142,40.8178619 C53.8902009,39.9713402 54.1413462,38.6982164 53.6870396,37.5921554 C53.232733,36.4860943 52.1624441,35.76492 50.9752547,35.76492 C49.3549947,35.7667715 48.0419539,37.0908158 48.0400522,38.72472 Z M50.9752547,37.20492 C51.5848822,37.20492 52.1344796,37.5752496 52.3677628,38.1432195 C52.601046,38.7111894 52.4720722,39.3649435 52.0409834,39.7996282 C51.6098947,40.2343128 50.9615897,40.3643211 50.3983812,40.1290285 C49.8351727,39.893736 49.467979,39.3394812 49.4680271,38.72472 C49.4689454,37.8856947 50.1432358,37.2057798 50.9752547,37.20492 L50.9752547,37.20492 Z" id="Shape" fill="#43D92D"/>
                    <path d="M30.8204593,36.66084 C30.4261349,36.66084 30.1064718,36.983195 30.1064718,37.38084 L30.1064718,40.06884 C30.1064718,40.466485 30.4261349,40.78884 30.8204593,40.78884 C31.2147837,40.78884 31.5344468,40.466485 31.5344468,40.06884 L31.5344468,37.38084 C31.5344468,36.983195 31.2147837,36.66084 30.8204593,36.66084 L30.8204593,36.66084 Z" id="Path" fill="#43D92D"/>
                    <path d="M33.4384134,36.66084 C33.044089,36.66084 32.7244259,36.983195 32.7244259,37.38084 L32.7244259,40.06884 C32.7244259,40.466485 33.044089,40.78884 33.4384134,40.78884 C33.8327378,40.78884 34.1524008,40.466485 34.1524008,40.06884 L34.1524008,37.38084 C34.1524008,36.983195 33.8327378,36.66084 33.4384134,36.66084 L33.4384134,36.66084 Z" id="Path" fill="#43D92D"/>
                    <path d="M36.0563674,36.66084 C35.662043,36.66084 35.34238,36.983195 35.34238,37.38084 L35.34238,40.06884 C35.34238,40.466485 35.662043,40.78884 36.0563674,40.78884 C36.4506918,40.78884 36.7703549,40.466485 36.7703549,40.06884 L36.7703549,37.38084 C36.7703549,36.983195 36.4506918,36.66084 36.0563674,36.66084 L36.0563674,36.66084 Z" id="Path" fill="#43D92D"/>
                    <path d="M38.6743215,36.66084 C38.2799971,36.66084 37.960334,36.983195 37.960334,37.38084 L37.960334,40.06884 C37.960334,40.466485 38.2799971,40.78884 38.6743215,40.78884 C39.0686459,40.78884 39.388309,40.466485 39.388309,40.06884 L39.388309,37.38084 C39.388309,36.983195 39.0686459,36.66084 38.6743215,36.66084 L38.6743215,36.66084 Z" id="Path" fill="#43D92D"/>
                    <path d="M41.2922756,36.66084 C40.8979512,36.66084 40.5782881,36.983195 40.5782881,37.38084 L40.5782881,40.06884 C40.5782881,40.466485 40.8979512,40.78884 41.2922756,40.78884 C41.6866,40.78884 42.006263,40.466485 42.006263,40.06884 L42.006263,37.38084 C42.006263,36.983195 41.6866,36.66084 41.2922756,36.66084 L41.2922756,36.66084 Z" id="Path" fill="#43D92D"/>
                </g>
            </g>
        </g>
    </g>
</svg>