<?xml version="1.0" encoding="UTF-8"?>
<svg width="69px" height="70px" viewBox="0 0 69 70" version="1.1" xmlns="http://www.w3.org/2000/svg" xmlns:xlink="http://www.w3.org/1999/xlink">
    <!-- Generator: Sketch 54 (76480) - https://sketchapp.com -->
    <title>Loyal Consumer Base</title>
    <desc>Created with Sketch.</desc>
    <g id="Page-1" stroke="none" stroke-width="1" fill="none" fill-rule="evenodd">
        <g id="iOs-Development" transform="translate(-438.000000, -1978.000000)" fill-rule="nonzero">
            <g id="Group-4" transform="translate(391.000000, 1915.000000)">
                <g id="Loyal-Consumer-Base" transform="translate(47.000000, 63.000000)">
                    <polygon id="Path" fill="#D4E1F4" points="3.53244156 44.6870043 10.5086104 44.6870043 10.0256104 43.0881681 1.94962338 43.0881681 5.0019026 68.3497198 6.39146104 68.3497198"/>
                    <path d="M37.2047403,50.1676724 C37.0319287,50.1916249 36.8559257,50.1668239 36.6962013,50.0960129 C36.2597684,50.2864428 36.0299674,50.7735025 36.1584039,51.2358664 C36.2868403,51.6982303 36.7339402,51.993434 37.2047403,51.9267241 C39.2297718,51.6442598 41.2760808,51.5488722 43.3182597,51.6417457 L50.2972662,51.960819 C50.3122013,51.960819 50.3259416,51.961875 50.3402792,51.961875 C50.5921471,51.961875 50.8336969,51.860798 51.0117804,51.680884 C51.1898639,51.5009701 51.2898903,51.2569599 51.2898506,51.0025431 C51.2898506,50.8589224 51.284474,50.7168103 51.275961,50.5753017 L52.2144805,50.0753448 L62.324026,44.5658621 C63.4058752,43.9741928 64.6981566,43.9225958 65.8228636,44.4261638 L67.0805455,43.5537284 C65.8414873,42.2530437 63.8954076,41.9475735 62.324026,42.8071121 L52.2144805,48.3162931 L51.275961,48.8160991 C51.284474,48.9576078 51.2898506,49.0998707 51.2898506,49.2433405 C51.2898903,49.4977573 51.1898639,49.7417675 51.0117804,49.9216815 C50.8336969,50.1015954 50.5921471,50.2026724 50.3402792,50.2026724 C50.3253442,50.2026724 50.3116039,50.2026724 50.2972662,50.2016164 L43.3182597,49.8825431 C41.2760762,49.7896441 39.2297604,49.8850825 37.2047403,50.1676724 L37.2047403,50.1676724 Z" id="Path" fill="#D4E1F4"/>
                    <path d="M15.4767597,47.4056897 L17.4841818,45.6004741 C21.2684697,42.7277242 26.3263291,42.2365439 30.5831299,44.3284052 L31.4268117,44.7357328 C32.8771422,45.4402381 34.4657381,45.8063074 36.0750519,45.8068534 L44.2570779,45.8068534 C46.0060377,45.8087458 47.6337173,46.7099335 48.5761494,48.1981681 L49.2930325,48.2306034 C48.8140087,45.8032382 46.7072484,44.0535672 44.2569286,44.0481034 L36.0750519,44.0481034 C34.4657381,44.0475574 32.8771422,43.6814881 31.4268117,42.9769828 L30.5831299,42.5696552 C26.3263755,40.4776447 21.2684603,40.9687722 17.4841818,43.8415733 L15.4767597,45.6467888 C14.5141094,46.5119111 13.3776798,47.1565861 12.1453442,47.5366379 L12.6264026,49.1307974 C13.6750171,48.7409916 14.6418771,48.1558236 15.4767597,47.4056897 Z" id="Path" fill="#D4E1F4"/>
                    <path d="M61.2487013,41.3663793 L60.8944416,41.5594828 C59.4633636,39.8052586 56.9839935,39.1254741 55.0950065,40.0925 C55.0882857,40.095819 55.0815649,40.0994397 55.0749935,40.1029095 L54.2386299,40.5577586 C52.1950886,38.8099005 49.2858409,38.5443926 46.9652532,39.8939655 L42.4615844,42.3681034 L36.4687403,42.3681034 C35.1711045,42.3663567 33.890459,42.0699463 32.7215325,41.5007974 L31.8971169,41.0979957 C27.1112227,38.7458042 21.4232208,39.30694 17.1783117,42.5500431 C17.1587468,42.5651293 17.1396299,42.5802155 17.1214091,42.5972629 L15.131013,44.3870905 C14.3788147,45.0619265 13.4896955,45.562551 12.5258896,45.8539224 L11.3954545,42.1056034 C11.2804722,41.7247031 10.9325564,41.4644476 10.5383312,41.4644397 L0.912233766,41.4644397 C0.655679011,41.464436 0.411427043,41.5755088 0.241343231,41.7695251 C0.0712594186,41.9635413 -0.00834182677,42.221891 0.0227012987,42.4791379 L3.23135065,69.055 C3.28616065,69.5091974 3.6679079,69.850653 4.12088312,69.8506466 L18.5592078,69.8506466 C18.8431802,69.8506408 19.1103428,69.7146743 19.2793379,69.4841522 C19.448333,69.2536301 19.4991565,68.9558396 19.4163312,68.6814655 L17.5195779,62.3944397 L23.4269935,58.6228879 C24.2174321,58.1811036 25.1447402,58.0598972 26.0204675,58.2839009 C26.038987,58.2885776 26.0576558,58.2928017 26.076474,58.2961207 L38.0930779,60.5312931 C41.358721,61.1215457 44.7256537,60.641344 47.7018506,59.1608621 C47.739885,59.1419228 47.7765208,59.1202433 47.811474,59.0959914 L68.5957078,44.680819 C68.986556,44.4097317 69.100721,43.8780286 68.8561753,43.4677371 C67.2850477,40.8245401 63.9327465,39.8985581 61.2487013,41.3663793 L61.2487013,41.3663793 Z M55.9143442,41.7025 C57.0068442,41.1498922 58.3822143,41.602931 59.2606948,42.4497198 L51.3791623,46.7447629 L50.9161753,46.9911207 C50.6665959,46.2753428 50.3018669,45.6060396 49.8366688,45.0101509 L55.9143442,41.7025 Z M47.8325325,41.4784698 C47.8395519,41.4743966 47.8474675,41.4704741 47.8537403,41.46625 C49.2914339,40.6268214 51.0673325,40.6436983 52.4891364,41.5103017 L48.4819091,43.6896552 C47.7179771,43.1264422 46.8462694,42.7301578 45.9223377,42.526056 L47.8325325,41.4784698 Z M4.91363636,68.0403017 L1.92438312,43.2747845 L9.87416883,43.2747845 L17.3491688,68.0403017 L4.91363636,68.0403017 Z M46.8489091,57.5657974 C44.2321611,58.8524947 41.278642,59.2670521 38.4137338,58.7497629 L26.4267013,56.5200216 C25.1081917,56.1912244 23.7152107,56.3819095 22.5308896,57.053319 C22.517,57.0610129 22.5031104,57.0694612 22.4895195,57.0782112 L16.9762403,60.5988793 L13.0483182,47.586875 C14.2595111,47.2181594 15.3765573,46.5871336 16.3216364,45.7377586 L18.2839545,43.9726724 C21.9907346,41.1576801 26.9458155,40.6761955 31.1158636,42.7257974 L31.9401299,43.1285991 C33.3524963,43.8162388 34.8998313,44.1743637 36.4676948,44.1764871 L44.4616883,44.1764871 C46.8848325,44.1799565 48.9647946,45.9196191 49.4201299,48.3236853 L43.6260714,48.0589224 C41.5197225,47.9632957 39.4091286,48.061814 37.320487,48.3532543 C36.8343175,48.4261481 36.4970035,48.8810056 36.5644236,49.3727824 C36.6318437,49.8645592 37.0788341,50.2097053 37.5663182,50.1464009 C39.5466554,49.8699223 41.5478422,49.7766041 43.544974,49.8676078 L50.3637273,50.1791379 C50.3773182,50.1791379 50.3909091,50.1800431 50.4043506,50.1800431 C50.8992552,50.1800431 51.3004545,49.7747836 51.3004545,49.2748707 C51.3004545,49.1283836 51.2943312,48.9832543 51.2855195,48.8388793 L52.2206039,48.3410345 L62.1,42.9588793 C63.6600743,42.1055388 65.5932244,42.4185276 66.8111169,43.7216379 L46.8489091,57.5657974 Z" id="Shape" fill="#0B75FF"/>
                    <path d="M7.76235065,64.2956034 C7.76235065,65.4482337 8.44972219,66.4873685 9.50394499,66.928461 C10.5581678,67.3695535 11.7716307,67.125738 12.5784979,66.3107054 C13.3853651,65.4956727 13.6267379,64.2699296 13.1900645,63.2050381 C12.7533912,62.1401467 11.724667,61.445819 10.5835844,61.445819 C9.02617656,61.4475649 7.76407914,62.7224347 7.76235065,64.2956034 Z M10.5835844,63.2561638 C11.1518998,63.2561638 11.6126104,63.7215368 11.6126104,64.2956034 C11.6126104,64.8696701 11.1518998,65.3350431 10.5835844,65.3350431 C10.0152691,65.3350431 9.55455844,64.8696701 9.55455844,64.2956034 C9.55554543,63.7219991 10.0157265,63.257296 10.5835844,63.2564655 L10.5835844,63.2561638 Z" id="Shape" fill="#0B75FF"/>
                    <path d="M34.5117987,0.149353448 C30.7571122,0.154008174 27.7144633,3.22738103 27.7097727,7.02006466 L27.7097727,10.0029095 C27.7273173,13.7849732 30.76751,16.8415761 34.511724,16.8415761 C38.2559381,16.8415761 41.2961307,13.7849732 41.3136753,10.0029095 L41.3136753,7.02006466 C41.308985,3.22743984 38.2664269,0.154091274 34.5117987,0.149353448 Z M39.5214675,10.0029095 C39.5064189,12.7869302 37.267894,15.0357964 34.511724,15.0357964 C31.7555541,15.0357964 29.5170291,12.7869302 29.5019805,10.0029095 L29.5019805,7.02006466 C29.5170291,4.23604393 31.7555541,1.98717773 34.511724,1.98717773 C37.267894,1.98717773 39.5064189,4.23604393 39.5214675,7.02006466 L39.5214675,10.0029095 Z" id="Shape" fill="#43D92D"/>
                    <path d="M45.7207143,10.0884483 L45.7207143,12.6994181 C45.7207143,16.083162 48.4362992,18.8262284 51.7861429,18.8262284 C55.1359866,18.8262284 57.8515714,16.083162 57.8515714,12.6994181 L57.8515714,10.0884483 C57.8515715,7.8995497 56.6955074,5.87692397 54.8188572,4.78247466 C52.942207,3.68802534 50.6300787,3.68802534 48.7534285,4.78247466 C46.8767783,5.87692397 45.7207142,7.8995497 45.7207143,10.0884483 Z M56.0593636,10.0884483 L56.0593636,12.6994181 C56.0593636,15.0833362 54.1461775,17.0158836 51.7861429,17.0158836 C49.4261082,17.0158836 47.5129221,15.0833362 47.5129221,12.6994181 L47.5129221,10.0884483 C47.5129221,7.7045302 49.4261082,5.77198276 51.7861429,5.77198276 C54.1461775,5.77198276 56.0593636,7.7045302 56.0593636,10.0884483 L56.0593636,10.0884483 Z" id="Shape" fill="#43D92D"/>
                    <path d="M55.9903636,18.986444 C55.5124416,18.9509914 55.2667597,19.2566379 55.067526,19.5020905 C54.2641569,20.4935869 53.0527849,21.055127 51.7847515,21.0238439 C50.516718,20.9925609 49.3339287,20.3719555 48.5794351,19.3420259 C48.4058164,19.1046296 48.1285185,18.967646 47.8364156,18.9749784 C46.6723529,19.0013829 45.535606,19.3363739 44.5400974,19.9463793 C43.2122374,18.386675 41.3157633,17.4365155 39.2829545,17.3124784 C38.8199675,17.2934698 38.5857857,17.5773922 38.3589221,17.8555819 C37.4163044,19.0192136 35.9947817,19.678273 34.5067458,19.6415633 C33.0187099,19.6048535 31.6307326,18.8764839 30.745474,17.6677586 C30.5721248,17.4300538 30.2946308,17.2930297 30.0024545,17.3008621 C28.0372742,17.3467724 26.1684955,18.1702162 24.7983312,19.5939655 C24.6851234,19.7108836 24.5777403,19.8320259 24.4730455,19.9549784 C23.5477386,19.3859464 22.4990293,19.0533968 21.4177792,18.9861422 C20.9415,18.9506897 20.694026,19.2563362 20.4949416,19.5017888 C19.6916022,20.4932819 18.4802529,21.0548233 17.2122409,21.0235401 C15.9442288,20.9922568 14.7614629,20.3716499 14.007,19.3417241 C13.8331318,19.1046307 13.5560001,18.9677292 13.2639805,18.9746767 C9.62401787,19.068273 6.72130096,22.075523 6.72077922,25.7535129 L6.72077922,31.6286853 C6.72077922,32.1285983 7.1219786,32.5338578 7.61688312,32.5338578 L22.6517143,32.5338578 L22.6517143,34.6115302 C22.6517143,35.1114431 23.0529137,35.5167026 23.5478182,35.5167026 L45.4757792,35.5167026 C45.9706837,35.5167026 46.3718831,35.1114431 46.3718831,34.6115302 L46.3718831,32.5338578 L61.3831169,32.5338578 C61.8780214,32.5338578 62.2792208,32.1285983 62.2792208,31.6286853 L62.2792208,25.7535129 C62.2772006,22.1757207 59.5251177,19.2143663 55.9903636,18.986444 Z M8.51298701,30.7235129 L8.51298701,25.7535129 C8.52865576,23.2300978 10.4014436,21.113061 12.8820909,20.8145905 C13.9996172,22.0954466 15.6069363,22.831186 17.2971229,22.8355414 C18.9873095,22.8398968 20.5983239,22.1124507 21.7223052,20.8373707 C22.3393045,20.9305425 22.9329487,21.1421361 23.4712013,21.4607328 C22.9309293,22.5308984 22.6500567,23.715397 22.6517143,24.916681 L22.6517143,30.7235129 L8.51298701,30.7235129 Z M44.5796753,33.7063578 L24.4439221,33.7063578 L24.4439221,24.916681 C24.4622975,21.9424151 26.6879061,19.4558886 29.6156364,19.1386638 C30.8692633,20.6046546 32.690768,21.4492953 34.6085381,21.4538971 C36.5263081,21.4584988 38.3517649,20.6226089 39.6122727,19.1626509 C42.457396,19.5601254 44.5770217,22.0154105 44.5796753,24.916681 L44.5796753,33.7063578 Z M60.487013,30.7235129 L46.3718831,30.7235129 L46.3718831,24.916681 C46.3728319,23.711269 46.0889145,22.5230403 45.5437338,21.4507759 C46.1292929,21.1058538 46.7800013,20.8889145 47.4537792,20.8139871 C48.5713131,22.0952479 50.1788563,22.8313057 51.8693482,22.8357767 C53.5598402,22.8402476 55.171177,22.1127029 56.2953377,20.8373707 C58.7034166,21.2043487 60.4847332,23.2935386 60.487013,25.7535129 L60.487013,30.7235129 Z" id="Shape" fill="#43D92D"/>
                    <path d="M17.2138571,18.8262284 C20.5620973,18.8223211 23.2754175,16.0815422 23.2792857,12.6994181 L23.2792857,10.0884483 C23.2792858,7.89954973 22.1232216,5.87692405 20.2465715,4.78247477 C18.3699213,3.68802548 16.057793,3.68802548 14.1811428,4.78247477 C12.3044927,5.87692405 11.1484285,7.89954973 11.1484286,10.0884483 L11.1484286,12.6994181 C11.1522146,16.0815766 13.8655829,18.8224041 17.2138571,18.8262284 Z M12.9406364,10.0884483 C12.9406364,7.7045302 14.8538225,5.77198276 17.2138571,5.77198276 C19.5738918,5.77198276 21.4870779,7.7045302 21.4870779,10.0884483 L21.4870779,12.6994181 C21.487078,14.2415427 20.6726067,15.6665247 19.3504676,16.437587 C18.0283284,17.2086493 16.3993859,17.2086493 15.0772467,16.437587 C13.7551076,15.6665247 12.9406363,14.2415427 12.9406364,12.6994181 L12.9406364,10.0884483 Z" id="Shape" fill="#43D92D"/>
                </g>
            </g>
        </g>
    </g>
</svg>