<?xml version="1.0" encoding="UTF-8"?>
<svg width="30px" height="27px" viewBox="0 0 30 27" version="1.1" xmlns="http://www.w3.org/2000/svg" xmlns:xlink="http://www.w3.org/1999/xlink">
    <!-- Generator: Sketch 54 (76480) - https://sketchapp.com -->
    <title>React Native</title>
    <desc>Created with Sketch.</desc>
    <g id="Page-1" stroke="none" stroke-width="1" fill="none" fill-rule="evenodd">
        <g id="Frontend-Development" transform="translate(-1161.000000, -5043.000000)" fill-rule="nonzero">
            <g id="Group-32" transform="translate(1155.000000, 5035.000000)">
                <g id="Group-15">
                    <g id="React-Native" transform="translate(6.000000, 8.000000)">
                        <path d="M0.088359375,13.1713043 C0.088359375,15.3768522 2.28714844,17.4357078 5.75355469,18.5962748 C5.06132812,22.0095652 5.62957031,24.7607896 7.52730469,25.8327443 C9.47789062,26.9346574 12.3839062,26.171927 15.1421484,23.8102748 C17.8307813,26.0765426 20.5480078,26.9684035 22.4441016,25.8933496 C24.3929297,24.7883374 24.9855469,21.8505913 24.2742187,18.3306678 C27.8847656,17.1614922 29.904375,15.4058922 29.904375,13.1713043 C29.904375,11.0169496 27.7016016,9.15322435 24.2818359,8.00011826 C25.0476562,4.33476522 24.3987891,1.65034435 22.4224219,0.534083478 C20.5170703,-0.542118261 17.7682031,0.395885217 15.0400781,2.72138087 C12.2017969,0.253095652 9.48011719,-0.500452174 7.50585937,0.618907826 C5.60226562,1.6982087 5.05910156,4.49947826 5.75355469,7.97589913 C2.40410156,9.11970783 0.088359375,11.025673 0.088359375,13.1713043 Z" id="Path" fill="#FFFFFF"/>
                        <path d="M23.5576172,9.14518957 C23.2757776,9.05049707 22.9915467,8.96277532 22.7051953,8.88210783 C22.7526827,8.69310744 22.7965964,8.50326278 22.8369141,8.3126713 C23.4821484,5.24476174 23.0602734,2.77326261 21.6195703,1.95968348 C20.2382812,1.1793913 17.9791406,1.99297043 15.6975,3.93773217 C15.4726738,4.12980286 15.252838,4.32740678 15.0382031,4.53035478 C14.894468,4.39540639 14.7481929,4.2630776 14.5994531,4.13343652 C12.2082422,2.05380522 9.81140625,1.17755478 8.37222656,1.99354435 C6.99222656,2.77601739 6.58347656,5.09956174 7.164375,8.00700522 C7.22217034,8.29492694 7.28742577,8.58136373 7.36007812,8.86603826 C7.0209375,8.96038957 6.69339844,9.06093913 6.38003906,9.16791652 C3.57667969,10.1252035 1.78628906,11.6256417 1.78628906,13.1818643 C1.78628906,14.78928 3.70816406,16.4015165 6.62824219,17.3790052 C6.8650174,17.4578988 7.10376341,17.5309998 7.34425781,17.59824 C7.26612913,17.9049323 7.19676611,18.2137032 7.13625,18.5241913 C6.58242187,21.3811304 7.01496094,23.6495791 8.39132812,24.4272313 C9.81292969,25.2301357 12.1988672,24.4048487 14.5222266,22.4156661 C14.7058594,22.2584139 14.8901953,22.0916348 15.0747656,21.9168209 C15.3072448,22.1365216 15.5459312,22.3498323 15.7905469,22.5565043 C18.0410156,24.453287 20.2635938,25.2192313 21.6387891,24.439513 C23.0591016,23.6341983 23.5205859,21.1972487 22.9212891,18.2322991 C22.8755859,18.005833 22.8222656,17.7745461 22.7625,17.5390122 C22.9300781,17.4905739 23.0944922,17.4405287 23.2549219,17.3884174 C26.2905469,16.403353 28.2655078,14.8107443 28.2655078,13.1818643 C28.2655078,11.6200174 26.4174609,10.1094783 23.5576172,9.14518957 Z" id="Path" fill="#949CA6"/>
                        <path d="M22.8991406,16.3367791 C22.7544141,16.3837252 22.6058203,16.4290643 22.4544141,16.4730261 C22.1192578,15.4338991 21.6669141,14.328887 21.1135547,13.1873739 C21.6417188,12.0728348 22.0764844,10.9820557 22.4022656,9.94958609 C22.6730859,10.0264904 22.9360547,10.1074122 23.1894141,10.1929252 C25.6398047,11.0190157 27.1344141,12.240647 27.1344141,13.1818643 C27.1344141,14.1844904 25.5201563,15.4861252 22.8992578,16.3367791 L22.8991406,16.3367791 Z M21.8116406,18.4475165 C22.0766016,19.7585635 22.1144531,20.9439235 21.9389062,21.8705635 C21.7811719,22.7031965 21.4640625,23.2582852 21.0719531,23.4806191 C20.2374609,23.953753 18.4528125,23.3387478 16.5283594,21.71664 C16.3076953,21.5306922 16.0853906,21.3321183 15.8625,21.1220661 C16.6086328,20.32272 17.3542969,19.39344 18.0820312,18.3615443 C19.3621875,18.25032 20.5715625,18.0683896 21.6683203,17.8201148 C21.7222266,18.0336104 21.7702734,18.2428591 21.8116406,18.4475165 L21.8116406,18.4475165 Z M10.8135937,23.3988939 C9.99832031,23.6809148 9.34898437,23.6889496 8.95652344,23.4673043 C8.12121094,22.9955478 7.77410156,21.1739478 8.24765625,18.7308 C8.30396953,18.4420713 8.36844745,18.1549278 8.44101563,17.8697009 C9.52558594,18.1046609 10.7261719,18.2737357 12.009375,18.3756626 C12.7419141,19.3854052 13.5091406,20.3135374 14.2823437,21.126313 C14.1180175,21.2820115 13.9498025,21.4337235 13.7778516,21.5813113 C12.7504688,22.4610052 11.7209766,23.0849635 10.8137109,23.3988939 L10.8135937,23.3988939 Z M6.99410156,16.3305809 C5.70292969,15.8983096 4.63664063,15.3365635 3.90574219,14.7236243 C3.24902344,14.1726678 2.91738281,13.6257287 2.91738281,13.1818643 C2.91738281,12.2375478 4.35492188,11.0329043 6.75246094,10.21416 C7.05338662,10.1118448 7.35730587,10.0181803 7.66382813,9.93328696 C7.99523438,10.9889426 8.42988281,12.0926922 8.95441406,13.2088383 C8.42308594,14.3416278 7.98222656,15.4629391 7.64777344,16.5309913 C7.42823922,16.469444 7.21028277,16.4026203 6.99410156,16.3305809 L6.99410156,16.3305809 Z M8.27449219,7.79419826 C7.77679688,5.30307131 8.10726563,3.42396522 8.93894531,2.95243826 C9.82488281,2.45014957 11.7836719,3.16639304 13.8482813,4.96193739 C13.9802344,5.07672 14.1127734,5.19689739 14.2455469,5.32120696 C13.4763281,6.13030957 12.7161328,7.05144 11.9899219,8.0553287 C10.7445703,8.16838957 9.55242188,8.34997565 8.45648438,8.5932 C8.3889754,8.32836779 8.32829207,8.061911 8.27449219,7.79408348 L8.27449219,7.79419826 Z M19.6964062,10.5566713 C19.4375481,10.1187102 19.1690874,9.68626208 18.8912109,9.25962783 C19.7361328,9.36408 20.5455469,9.50296696 21.305625,9.67296 C21.0774609,10.3893183 20.7930469,11.1383896 20.458125,11.9062852 C20.2134161,11.4514924 19.9594592,11.0015314 19.6964062,10.5566713 L19.6964062,10.5566713 Z M15.0385547,6.11297739 C15.5602734,6.66657391 16.0828125,7.28479304 16.5967969,7.95546783 C15.5541809,7.90721094 14.5098255,7.90698112 13.4671875,7.95477913 C13.9816406,7.29030261 14.5086328,6.67300174 15.0385547,6.11297739 L15.0385547,6.11297739 Z M10.3508203,10.564247 C10.0910609,11.0055691 9.84185239,11.4527691 9.60339844,11.9054817 C9.27398437,11.1402261 8.99214844,10.3878261 8.76199219,9.66125217 C9.5175,9.49562087 10.3231641,9.36029217 11.1625781,9.25756174 C10.8815875,9.68684003 10.610927,10.1225218 10.3508203,10.564247 L10.3508203,10.564247 Z M11.1867188,17.1852522 C10.3195312,17.0904417 9.50167969,16.962 8.74640625,16.80096 C8.98019531,16.0615304 9.26824219,15.2929461 9.6046875,14.5112765 C9.84414671,14.9643247 10.0944503,15.4117945 10.3553906,15.8533148 C10.6216537,16.303702 10.8988418,16.7478073 11.1867188,17.1852522 L11.1867188,17.1852522 Z M15.0698437,20.329033 C14.5337109,19.7623513 13.9989844,19.1356383 13.4766797,18.46152 C13.9836328,18.481033 14.5005469,18.4909043 15.0258984,18.4909043 C15.5656641,18.4909043 16.0992187,18.4790817 16.6243359,18.4561252 C16.1087109,19.1425252 15.5880469,19.7701565 15.0698437,20.329033 Z M20.4689063,14.471447 C20.8228125,15.2616104 21.1211719,16.0260626 21.358125,16.7529809 C20.5903125,16.9245809 19.7614453,17.0627791 18.8880469,17.1653948 C19.1679318,16.730795 19.438962,16.2907845 19.7009766,15.8456243 C19.9673303,15.3932025 20.2233703,14.9350299 20.4689063,14.471447 L20.4689063,14.471447 Z M18.7210547,15.2921426 C18.3199453,15.974635 17.8962839,16.6441714 17.4507422,17.2996904 C16.6651172,17.3546713 15.8532422,17.3830226 15.0258984,17.3830226 C14.2019531,17.3830226 13.4003906,17.3578852 12.6284766,17.308873 C12.1713793,16.6548803 11.7397034,15.9841851 11.334375,15.2982261 C10.9309411,14.6159065 10.5541071,13.9188269 10.2046875,13.2084939 C10.5532184,12.4979482 10.9289136,11.8004951 11.3309766,11.1176139 L11.3309766,11.1178435 C11.7329133,10.4348169 12.1611908,9.76698945 12.6148828,9.11580522 C13.4023828,9.05749565 14.2098047,9.02696348 15.0260156,9.02696348 C15.8458594,9.02696348 16.6543359,9.05772522 17.4416016,9.11649391 C17.8907046,9.7666761 18.3162428,10.4321789 18.7174219,11.11176 C19.1208674,11.7931219 19.5015765,12.4871585 19.8589453,13.1927687 C19.5052526,13.905568 19.1257543,14.6058031 18.7211719,15.2921426 L18.7210547,15.2921426 Z M21.0546094,2.91949565 C21.94125,3.42040696 22.2861328,5.44023652 21.7290234,8.08907478 C21.6925079,8.26163059 21.6528139,8.43352644 21.6099609,8.60467826 C20.5114453,8.35640348 19.3184766,8.17160348 18.0694922,8.05682087 C17.341875,7.04202783 16.5880078,6.11929043 15.8312109,5.32063304 C16.029523,5.13337072 16.2325544,4.95096314 16.4401172,4.77357913 C18.3950391,3.10716522 20.2221094,2.4492313 21.0546094,2.91949565 L21.0546094,2.91949565 Z" id="Shape" fill="#FFFFFF"/>
                        <path d="M15.0258984,10.8658957 C16.3318359,10.8658957 17.3903906,11.9028417 17.3903906,13.1818643 C17.3903906,14.4610017 16.3318359,15.4979478 15.0258984,15.4979478 C13.7200781,15.4979478 12.6614063,14.4610017 12.6614063,13.1818643 C12.6614063,11.9028417 13.7200781,10.8658957 15.0258984,10.8658957" id="Path" fill="#949CA6"/>
                    </g>
                </g>
            </g>
        </g>
    </g>
</svg>