<?xml version="1.0" encoding="UTF-8"?>
<svg width="53px" height="69px" viewBox="0 0 53 69" version="1.1" xmlns="http://www.w3.org/2000/svg" xmlns:xlink="http://www.w3.org/1999/xlink">
    <!-- Generator: Sketch 54 (76480) - https://sketchapp.com -->
    <title>secure-shopping</title>
    <desc>Created with Sketch.</desc>
    <g id="Page-1" stroke="none" stroke-width="1" fill="none" fill-rule="evenodd">
        <g id="Android-App-Development" transform="translate(-407.000000, -1237.000000)" fill-rule="nonzero">
            <g id="Group-22" transform="translate(392.000000, 1233.000000)">
                <g id="secure-shopping" transform="translate(15.000000, 4.000000)">
                    <path d="M25.3231295,42.5649351 C25.0169564,42.5655184 24.7265295,42.4313363 24.5276628,42.1985593 L22.5372469,39.8667056 C22.1622578,39.4274047 22.2141616,38.7675782 22.6533011,38.3924513 C23.0918574,38.0179079 23.7520246,38.0698306 24.1264304,38.5085481 L25.4549296,40.0638951 L29.2987126,36.9345322 C29.5879732,36.6935877 29.9839569,36.62708 30.3362015,36.7595119 C30.6884464,36.8925274 30.9415493,37.2040636 30.999868,37.5756899 C31.0581866,37.9473163 30.91239,38.3218598 30.6178807,38.5563869 L25.9821303,42.3292411 C25.7960937,42.4815087 25.5634022,42.5649351 25.3231295,42.5649351 Z" id="Path" fill="#43D92D"/>
                    <path d="M29.8638204,60.895977 L23.4633472,60.895977 C22.8859926,60.895977 22.4182768,61.3644481 22.4182768,61.9414316 C22.4182768,62.5189986 22.8859926,62.9868861 23.4633472,62.9868861 L29.8638204,62.9868861 C30.4411753,62.9868861 30.9088908,62.5189986 30.9088908,61.9414316 C30.9088908,61.3644481 30.4411753,60.895977 29.8638204,60.895977 Z" id="Path" fill="#0B75FF"/>
                    <path d="M25.9512214,50.2331575 C26.2165712,50.3486709 26.5180788,50.3492543 26.7834288,50.2343242 L27.9328895,49.7378501 C32.2210607,47.9345576 35.0098592,43.7352375 35.0098592,39.0820313 L35.0098592,33.9160157 C35.0098592,33.5298041 34.7969961,33.1750964 34.4564151,32.9936586 L26.8866528,28.9588576 C26.5758142,28.7931716 26.2019916,28.7955054 25.8929028,28.9646916 L18.5325043,33.0000761 C18.1983384,33.183264 17.9901408,33.5344714 17.9901408,33.9160157 L17.9901408,39.1870434 C17.9948063,43.7854099 20.7182879,47.9456423 24.9300616,49.7874391 L25.9512214,50.2331575 Z M20.0802817,39.1870434 L20.0802817,34.5355874 L26.4020246,31.0696023 L32.9197183,34.5437551 L32.9197183,39.0820313 C32.918552,42.8968902 30.6307109,46.3383726 27.1146788,47.8137936 C27.1117627,47.8149605 27.10943,47.8161272 27.1070972,47.8172941 L26.3711158,48.1352476 L25.7669345,47.8715503 C22.3162191,46.3628755 20.084364,42.9546469 20.0802817,39.1870434 Z" id="Shape" fill="#0B75FF"/>
                    <path d="M42.8222271,54.7959364 L10.5049405,54.7959364 L10.5049405,22.4667716 L8.4147997,22.4667716 L8.4147997,62.7039367 C8.41888204,66.1798398 11.2350902,68.9959162 14.709133,69 L38.6174515,69 C42.0926606,68.9959162 44.9082856,66.1792563 44.912368,62.7033533 L44.912368,22.767223 L42.8222271,22.767223 L42.8222271,54.7959364 Z M38.6174515,66.9090909 L14.709133,66.9090909 C12.3886334,66.9061739 10.5078564,65.0252892 10.5049405,62.7033533 L10.5049405,56.8868455 L42.8222271,56.8868455 L42.8222271,62.7039367 C42.8193112,65.0252892 40.9385344,66.9061739 38.6174515,66.9090909 Z" id="Shape" fill="#0B75FF"/>
                    <path d="M38.6174515,0 L14.709133,0 C11.234507,0.00408381429 8.41888204,2.82074375 8.4147997,6.29664668 L8.4147997,8.24112223 L10.5049405,8.24112223 L10.5049405,6.29606331 C10.5078564,3.9747108 12.3886334,2.09382606 14.709133,2.09090909 L38.6174515,2.09090909 C40.9385344,2.09382606 42.8193112,3.9747108 42.8222271,6.29664668 L42.8222271,8.44706274 L44.912368,8.44706274 L44.912368,6.29664668 C44.9082856,2.82074375 42.0926606,0.00408381429 38.6174515,0 Z" id="Path" fill="#0B75FF"/>
                    <path d="M52.9206866,15.1590909 C52.9206866,15.1550071 52.9206866,15.1509232 52.9206866,15.1468395 C52.9160211,15.1001674 52.9078564,15.0534954 52.896776,15.00799 C52.8950264,14.9992391 52.8926937,14.9899047 52.8903609,14.9811536 C52.878114,14.9362317 52.8629511,14.8913098 52.8454556,14.8481382 C52.8267936,14.8043831 52.8052156,14.7623782 52.781305,14.7215401 C52.7760563,14.7127892 52.7713908,14.7046215 52.7661422,14.696454 C52.7416483,14.6561992 52.7142386,14.6176948 52.6844961,14.5815239 C52.6821633,14.5786069 52.6792473,14.5762733 52.6774978,14.5733563 C52.6477553,14.539519 52.6162633,14.5068485 52.5824384,14.4765118 C52.578356,14.472428 52.574857,14.4677608 52.5701915,14.4642603 L44.5245489,7.39285714 C44.3338468,7.22542103 44.0883253,7.13266023 43.8346391,7.13266023 L9.45987012,7.13266023 C9.21259899,7.13266023 8.97290926,7.22075382 8.78454009,7.38060576 L0.44380498,14.4508421 C0.209364034,14.6509486 0.0746478873,14.9443994 0.0769806338,15.2524351 C0.0769806338,15.2676034 0.0746478873,15.2821886 0.0746478873,15.2973569 L0.0746478873,20.4412034 C0.0746478873,20.6033888 0.11255498,20.7638241 0.184870121,20.9090909 L0.19245151,20.9242593 C1.21885996,22.9072392 3.15737243,24.2560623 5.37348159,24.5279272 C7.58959074,24.799792 9.79695206,23.9596946 11.271831,22.2830002 C12.5560078,23.7409193 14.4047095,24.575766 16.3473042,24.575766 C18.2893155,24.575766 20.1380172,23.7409193 21.4221941,22.2830002 C22.7040383,23.745003 24.5550726,24.5810167 26.4982504,24.5769329 C28.4420114,24.5810167 30.2924626,23.745003 31.5743067,22.2835836 C32.8584838,23.7426694 34.7077684,24.5780996 36.6503631,24.5780996 C38.5935409,24.5780996 40.4428257,23.7426694 41.7264194,22.2835836 C43.2024648,23.9614448 45.4115757,24.8015422 47.628268,24.5285106 C49.8455436,24.2554789 51.7852222,22.9049056 52.8104644,20.9195921 C52.8862786,20.7714083 52.9265184,20.6074726 52.9265184,20.4412034 L52.9265184,15.2489346 C52.9253521,15.2185979 52.9236025,15.1888444 52.9206866,15.1590909 Z M9.84302384,9.22298596 L43.4409881,9.22298596 L49.1072293,14.20348 L3.96916821,14.20348 L9.84302384,9.22298596 Z M46.8042254,22.4883574 C45.0546655,22.5064427 43.4474032,21.5280793 42.6583517,19.9663149 C42.4798965,19.6174411 42.1212367,19.3974989 41.7293353,19.3969156 C41.3374339,19.3963322 40.9781909,19.6145241 40.7979863,19.9628145 C39.9961048,21.5140777 38.3958407,22.4877739 36.6503631,22.4871905 C34.9048856,22.4871905 33.3052046,21.5123274 32.5033231,19.9610644 C32.3237015,19.6139407 31.965625,19.3963322 31.57489,19.3963322 C31.1841549,19.3969156 30.8254951,19.6151076 30.6458736,19.9622311 C29.8439922,21.512911 28.2443112,22.4871905 26.4994169,22.4871905 C24.7539393,22.4871905 23.1542584,21.512911 22.3523768,19.9622311 C22.3459617,19.9499797 22.3389634,19.9365614 22.3319652,19.9248934 C22.1424296,19.5917716 21.7861025,19.3887479 21.4029489,19.3963322 C21.0197954,19.4039164 20.671633,19.6203582 20.4955106,19.9610644 C19.6936289,21.5117441 18.093948,22.4860238 16.3484705,22.4860238 C14.602993,22.4860238 13.003312,21.5117441 12.2014304,19.9610644 C12.0218091,19.6139407 11.6631492,19.3963322 11.2729973,19.3963322 C10.8816792,19.3969156 10.5236025,19.6151076 10.343981,19.9622311 C9.56192782,21.4749898 8.0188161,22.4422687 6.31707746,22.4866071 C4.61533883,22.5309456 3.02440574,21.645343 2.16478873,20.1751726 L2.16478873,16.2943891 L50.8352113,16.2943891 L50.8352113,20.174589 C50.0105853,21.6202567 48.4680567,22.5058593 46.8042254,22.4883574 Z" id="Shape" fill="#43D92D"/>
                    <g id="Group" transform="translate(2.090141, 2.090909)" fill="#D4E1F4">
                        <path d="M17.0978654,0 L12.6189922,0 C10.2984926,0.00291696753 8.41771559,1.88380171 8.4147997,4.20573758 L8.4147997,5.04233466 L12.8936729,5.04233466 L12.8936729,4.20573758 C12.8965888,1.88380171 14.7773658,0.00291696753 17.0978654,0 Z" id="Path"/>
                        <polygon id="Path" points="7.752883 7.13207687 1.87902736 12.1119876 6.3579006 12.1119876 12.2317562 7.13207687"/>
                        <path d="M12.8936729,60.6130276 L12.8936729,54.7959364 L8.4147997,54.7959364 L8.4147997,60.6130276 C8.41771559,62.9343801 10.2984926,64.8152649 12.6189922,64.8181818 L17.0978654,64.8181818 C14.7773658,64.8152649 12.8965888,62.9343801 12.8936729,60.6130276 Z" id="Path"/>
                        <path d="M9.18169014,20.1920911 C8.9466659,20.4604556 8.69006378,20.7101512 8.415383,20.9376775 L8.415383,52.704444 L12.8942562,52.704444 L12.8942562,22.3465909 C11.4543684,22.0537235 10.1503631,21.2970525 9.18169014,20.1920911 Z" id="Path"/>
                        <path d="M4.55352113,18.0842635 L4.55352113,14.20348 L0.0746478873,14.20348 L0.0746478873,18.0848468 C0.899273842,19.529931 2.44238556,20.4143669 4.1056338,20.3962814 C4.88710387,20.3997819 5.65691021,20.2072595 6.34507042,19.8367998 C5.59684195,19.4301694 4.97691469,18.8234324 4.55352113,18.0842635 Z" id="Path"/>
                        <path d="M14.5884133,17.8695719 C14.4087919,17.5230317 14.0507152,17.3054231 13.6599802,17.3054231 C13.2692451,17.3060065 12.9111686,17.5241985 12.7315471,17.871322 C12.4160431,18.4868101 11.9681557,19.0247057 11.4211268,19.4470881 C12.2352553,20.0684101 13.2325043,20.4021155 14.2565802,20.3951147 C15.0380501,20.398615 15.8078564,20.2060928 16.4960168,19.8344664 C15.6766395,19.3869978 15.0118067,18.702085 14.5884133,17.8695719 Z" id="Path"/>
                        <path d="M34.8914722,17.8701553 C34.7118508,17.5230317 34.3537742,17.3054231 33.9630391,17.3054231 C33.571721,17.3060065 33.2136444,17.5241985 33.0340229,17.871322 C32.718519,18.4868101 32.2712148,19.0247057 31.7236025,19.4470881 C32.537731,20.0701602 33.5355634,20.4038657 34.5602222,20.3962814 C35.3422755,20.3997819 36.1120818,20.2072595 36.7996589,19.8362165 C35.9802817,19.3881645 35.3154489,18.7026684 34.8914722,17.8701553 L34.8914722,17.8701553 Z" id="Path"/>
                        <path d="M24.7399429,17.871322 C24.7335278,17.8590706 24.7265295,17.8456524 24.7195313,17.8339843 C24.5299957,17.5008625 24.1736686,17.2978388 23.7905149,17.3054231 C23.4073613,17.3130073 23.0591989,17.5294491 22.8830767,17.8701553 C22.5675726,18.4856433 22.1196853,19.0241223 21.5714898,19.4470881 C22.3856184,20.0695769 23.3834507,20.4032822 24.4081096,20.3962814 C25.1895796,20.3997819 25.959386,20.2072595 26.6475462,19.8362165 C25.828169,19.3881645 25.1633363,18.7032519 24.7399429,17.871322 Z" id="Path"/>
                        <path d="M45.0465008,17.8754058 C44.8674626,17.526532 44.509386,17.3065899 44.1174846,17.3060065 C43.7255831,17.3054231 43.365757,17.523615 43.1861356,17.8719054 C42.8706316,18.4873934 42.4227443,19.0252892 41.875132,19.4482549 C42.6898437,20.0713271 43.6888424,20.4050325 44.7140845,20.3974483 C45.4955546,20.401532 46.2653609,20.2090097 46.9535211,19.8373834 C46.1347271,19.3904981 45.4698944,18.7067522 45.0465008,17.8754058 L45.0465008,17.8754058 Z" id="Path"/>
                    </g>
                </g>
            </g>
        </g>
    </g>
</svg>