<?xml version="1.0" encoding="UTF-8"?>
<svg width="79px" height="59px" viewBox="0 0 79 59" version="1.1" xmlns="http://www.w3.org/2000/svg" xmlns:xlink="http://www.w3.org/1999/xlink">
    <!-- Generator: Sketch 54 (76480) - https://sketchapp.com -->
    <title>Simplicity</title>
    <desc>Created with Sketch.</desc>
    <g id="Page-1" stroke="none" stroke-width="1" fill="none" fill-rule="evenodd">
        <g id="Php-Development" transform="translate(-419.000000, -1898.000000)" fill-rule="nonzero">
            <g id="Group-4" transform="translate(391.000000, 1836.000000)">
                <g id="Simplicity" transform="translate(28.000000, 62.000000)">
                    <path d="M63.8140891,7.26816216 L63.8140891,23.1343784 L61.5752227,23.1343784 L61.5752227,7.26816216 C61.5716966,4.49928932 59.3210239,2.25579779 56.54417,2.25316216 L7.34827935,2.25316216 C4.57197707,2.25650099 2.32217436,4.49983831 2.31882591,7.26816216 L2.31882591,40.363973 C2.32217436,43.1322968 4.57197707,45.3756341 7.34827935,45.378973 L9.85101215,45.378973 C11.4198496,45.3620038 12.7738724,46.4719775 13.060587,48.0100541 C13.9401417,52.9804054 16.5532186,55.2686486 18.077247,56.2046757 C18.0820445,56.1408919 18.0884413,56.0771081 18.0948381,56.0117297 C18.2547571,54.3055135 18.4962348,51.7254595 19.6716397,49.5360811 C21.1524899,46.7774324 23.674413,45.378973 27.1686437,45.378973 L39.5271862,45.378973 L39.5271862,47.6114054 L27.1686437,47.6114054 C21.5970648,47.6114054 20.7319028,51.8641892 20.3241093,56.219027 C20.2885188,56.8249194 20.2040213,57.4269669 20.0714372,58.0193243 C19.8603441,58.7735676 19.3070243,58.933027 19.0799393,58.9665135 C19.0233511,58.9754571 18.9661187,58.9797239 18.9088259,58.9792703 C18.7102462,58.9793496 18.5150936,58.9276783 18.3427126,58.8293784 C17.2648583,58.417973 12.2210121,56.1026216 10.8553036,48.3991351 C10.7516987,47.9313924 10.3313084,47.6016535 9.85101215,47.6114054 L7.34827935,47.6114054 C3.33592391,47.6070113 0.0843662787,44.3647979 0.0799595142,40.363973 L0.0799595142,7.26816216 C0.0843662787,3.26733726 3.33592391,0.0251238302 7.34827935,0.0207297297 L56.54417,0.0207297297 C60.5567123,0.0252974023 63.8086255,3.2671521 63.8140891,7.26816216 Z" id="Path" fill="#24527a"/>
                    <path d="M78.9176417,40.188727 C78.8496761,41.9775432 77.3184514,43.3665946 75.5235202,43.3665946 L73.4765567,43.3665946 C72.9487226,43.3744125 72.5083114,42.9664035 72.4773826,42.4409324 C72.4689334,42.1818411 72.5662823,41.9304207 72.74715,41.7442114 C72.9280177,41.5580022 73.1769215,41.4529441 73.4368968,41.4530811 L75.5553441,41.4530811 C76.3016745,41.4630082 76.9300725,40.8987836 76.9981336,40.1576324 C77.0243762,39.7727281 76.8894912,39.3941881 76.6255737,39.1120829 C76.3616561,38.8299778 75.9923029,38.6695308 75.6053988,38.6689189 L64.9687045,38.6689189 C63.486257,38.6703702 62.2413055,37.5569163 62.082166,36.0872703 C61.9045019,34.4448521 62.1142426,32.783761 62.6946559,31.2365135 C63.1480851,30.0356113 63.3799677,28.7628413 63.3791093,27.4796486 L63.3791093,26.6201622 C63.3771568,25.1220737 62.3577644,23.8155678 60.9019636,23.4453243 L60.5645344,25.6410811 C60.0287672,29.1086743 58.6791959,32.40106 56.6257287,35.2501081 C55.2686915,37.1094072 53.1028643,38.2108345 50.7966802,38.2144595 L48.5851599,38.2144595 C48.057586,38.2223803 47.6172452,37.8147879 47.5859858,37.2895946 C47.5773152,37.0303675 47.6745657,36.7787381 47.8554578,36.5923534 C48.03635,36.4059687 48.2853813,36.3008018 48.5455,36.3009459 L50.7971599,36.3009459 C52.4878984,36.2983432 54.0759239,35.4915062 55.0717955,34.1291081 C56.94635,31.5258007 58.1785796,28.518273 58.6683745,25.3508649 L59.1465324,22.243 C59.2174248,21.7756029 59.6207785,21.4303802 60.0948522,21.4313514 L60.1108441,21.4313514 C60.8641955,21.4406949 61.600867,21.6538193 62.2422449,22.0479811 L63.3396093,22.7092595 C63.7343512,22.943628 64.0763512,23.2566885 64.3442206,23.6288622 C64.9663107,24.5028978 65.300048,25.5483821 65.2990972,26.6201622 L65.2990972,27.4796486 C65.2997264,28.9925539 65.026692,30.493169 64.4931053,31.9094324 C64.0169819,33.1756658 63.8450043,34.5355182 63.9909595,35.879973 C64.0445525,36.3784705 64.466866,36.7562219 64.969664,36.7554054 L75.6058785,36.7554054 C76.5068441,36.7566786 77.3685726,37.1231456 77.9931362,37.7706338 C78.6176997,38.418122 78.9514185,39.2909812 78.9176417,40.188727 L78.9176417,40.188727 Z" id="Path" fill="#43D92D"/>
                    <path d="M55.0071883,29.5763811 C55.6254341,29.5763811 56.1266215,29.0766341 56.1266215,28.4601649 C56.1266215,27.8436957 55.6254341,27.3439486 55.0071883,27.3439486 L37.0623543,27.3439486 C36.4441084,27.3439486 35.9429211,27.8436957 35.9429211,28.4601649 C35.9429211,29.0766341 36.4441084,29.5763811 37.0623543,29.5763811 L55.0071883,29.5763811 Z" id="Path" fill="#24527a"/>
                    <path d="M34.4588725,28.4601649 C34.4588725,27.8436957 33.9576852,27.3439486 33.3394393,27.3439486 L17.9134899,27.3439486 C17.295244,27.3439486 16.7940567,27.8436957 16.7940567,28.4601649 C16.7940567,29.0766341 17.295244,29.5763811 17.9134899,29.5763811 L33.3394393,29.5763811 C33.9576852,29.5763811 34.4588725,29.0766341 34.4588725,28.4601649 L34.4588725,28.4601649 Z" id="Path" fill="#24527a"/>
                    <path d="M8.88622065,29.5763811 L14.3065162,29.5763811 C14.9247621,29.5763811 15.4259494,29.0766341 15.4259494,28.4601649 C15.4259494,27.8436957 14.9247621,27.3439486 14.3065162,27.3439486 L8.88622065,27.3439486 C8.26797476,27.3439486 7.76678745,27.8436957 7.76678745,28.4601649 C7.76678745,29.0766341 8.26797476,29.5763811 8.88622065,29.5763811 Z" id="Path" fill="#24527a"/>
                    <path d="M49.7736781,20.795427 C49.7736781,21.4118962 50.2748655,21.9116432 50.8931113,21.9116432 L55.0071883,21.9116432 C55.6254341,21.9116432 56.1266215,21.4118962 56.1266215,20.795427 C56.1266215,20.1789578 55.6254341,19.6792108 55.0071883,19.6792108 L50.8931113,19.6792108 C50.2748655,19.6792108 49.7736781,20.1789578 49.7736781,20.795427 L49.7736781,20.795427 Z" id="Path" fill="#24527a"/>
                    <path d="M38.2443158,19.6792108 C37.6260699,19.6792108 37.1248826,20.1789578 37.1248826,20.795427 C37.1248826,21.4118962 37.6260699,21.9116432 38.2443158,21.9116432 L47.3200405,21.9116432 C47.9382864,21.9116432 48.4394737,21.4118962 48.4394737,20.795427 C48.4394737,20.1789578 47.9382864,19.6792108 47.3200405,19.6792108 L38.2443158,19.6792108 Z" id="Path" fill="#24527a"/>
                    <path d="M8.88622065,21.9116432 L34.6248684,21.9116432 C35.2431143,21.9116432 35.7443016,21.4118962 35.7443016,20.795427 C35.7443016,20.1789578 35.2431143,19.6792108 34.6248684,19.6792108 L8.88622065,19.6792108 C8.26797476,19.6792108 7.76678745,20.1789578 7.76678745,20.795427 C7.76678745,21.4118962 8.26797476,21.9116432 8.88622065,21.9116432 Z" id="Path" fill="#24527a"/>
                    <path d="M55.0071883,12.7138622 C55.6254341,12.7138622 56.1266215,12.2141151 56.1266215,11.5976459 C56.1266215,10.9811768 55.6254341,10.4814297 55.0071883,10.4814297 L51.6808725,10.4814297 C51.0626266,10.4814297 50.5614393,10.9811768 50.5614393,11.5976459 C50.5614393,12.2141151 51.0626266,12.7138622 51.6808725,12.7138622 L55.0071883,12.7138622 Z" id="Path" fill="#24527a"/>
                    <path d="M49.1490344,11.5976459 C49.1490344,10.9811768 48.6478471,10.4814297 48.0296012,10.4814297 L16.2781579,10.4814297 C15.659912,10.4814297 15.1587247,10.9811768 15.1587247,11.5976459 C15.1587247,12.2141151 15.659912,12.7138622 16.2781579,12.7138622 L48.0296012,12.7138622 C48.6478471,12.7138622 49.1490344,12.2141151 49.1490344,11.5976459 Z" id="Path" fill="#24527a"/>
                    <path d="M8.88622065,12.7138622 L12.6585506,12.7138622 C13.2767965,12.7138622 13.7779838,12.2141151 13.7779838,11.5976459 C13.7779838,10.9811768 13.2767965,10.4814297 12.6585506,10.4814297 L8.88622065,10.4814297 C8.26797476,10.4814297 7.76678745,10.9811768 7.76678745,11.5976459 C7.76678745,12.2141151 8.26797476,12.7138622 8.88622065,12.7138622 Z" id="Path" fill="#24527a"/>
                    <path d="M31.9187186,37.2411189 L35.4259028,37.2411189 C36.0441487,37.2411189 36.545336,36.7413719 36.545336,36.1249027 C36.545336,35.5084335 36.0441487,35.0086865 35.4259028,35.0086865 L31.9187186,35.0086865 C31.3004727,35.0086865 30.7992854,35.5084335 30.7992854,36.1249027 C30.7992854,36.7413719 31.3004727,37.2411189 31.9187186,37.2411189 L31.9187186,37.2411189 Z" id="Path" fill="#24527a"/>
                    <path d="M8.88622065,37.2411189 L28.1580628,37.2411189 C28.7763086,37.2411189 29.277496,36.7413719 29.277496,36.1249027 C29.277496,35.5084335 28.7763086,35.0086865 28.1580628,35.0086865 L8.88622065,35.0086865 C8.26797476,35.0086865 7.76678745,35.5084335 7.76678745,36.1249027 C7.76678745,36.7413719 8.26797476,37.2411189 8.88622065,37.2411189 Z" id="Path" fill="#24527a"/>
                    <path d="M78.9200405,45.0112595 C78.9177493,43.0538601 77.3269617,41.4676441 75.3639211,41.4653595 L71.8952773,41.4653595 C71.3653523,41.4653595 70.9357632,41.8937141 70.9357632,42.4221162 C70.9357632,42.9505184 71.3653523,43.378873 71.8952773,43.378873 L75.3639211,43.378873 C76.2617933,43.3877215 76.9849912,44.1160035 76.9849912,45.0113392 C76.9849912,45.9066749 76.2617933,46.6349568 75.3639211,46.6438054 L71.8952773,46.6438054 C71.3653523,46.6438054 70.9357632,47.07216 70.9357632,47.6005622 C70.9357632,48.1289643 71.3653523,48.5573189 71.8952773,48.5573189 L75.4422814,48.5573189 C76.3034096,48.5573189 77.0014919,49.2533951 77.0014919,50.1120486 C77.0014919,50.9707022 76.3034096,51.6667784 75.4422814,51.6667784 L70.3285506,51.6667784 C69.7986256,51.6667784 69.3690364,52.095133 69.3690364,52.6235351 C69.3690364,53.1519373 69.7986256,53.5802919 70.3285506,53.5802919 L74.2931032,53.5802919 C74.8498766,53.5746489 75.3667952,53.8675957 75.6468283,54.3474714 C75.9268615,54.8273472 75.9268615,55.4202123 75.6468283,55.900088 C75.3667952,56.3799638 74.8498766,56.6729105 74.2931032,56.6672676 L65.4175972,56.6672676 C62.921581,56.6672676 60.5162389,56.565373 58.525087,55.3333892 C56.1517232,53.8645241 53.413812,53.0864765 50.6204494,53.0870838 L49.4997368,53.0870838 L49.4997368,33.9615162 C49.4997368,33.4331141 49.0701477,33.0047595 48.5402227,33.0047595 L39.5263866,33.0047595 C38.9964616,33.0047595 38.5668725,33.4331141 38.5668725,33.9615162 L38.5668725,56.960673 C38.5668725,57.4890751 38.9964616,57.9174297 39.5263866,57.9174297 L48.5405425,57.9174297 C49.0704676,57.9174297 49.5000567,57.4890751 49.5000567,56.960673 L49.5000567,54.9993216 L50.6207692,54.9993216 C53.0564624,54.9989153 55.4437823,55.6773738 57.5132794,56.9581216 C59.9336538,58.4556054 62.6334069,58.5795054 65.4175972,58.5795054 L74.2931032,58.5795054 C75.5861381,58.5806176 76.772166,57.8635726 77.369065,56.7198502 C77.965964,55.5761277 77.8743662,54.1961276 77.1315061,53.1408216 C78.1040498,52.6029721 78.7594705,51.6332562 78.8944197,50.5325345 C79.029369,49.4318128 78.6275243,48.3332195 77.8135607,47.5776 C78.5200567,46.9098781 78.9201593,45.9818904 78.9200405,45.0112595 L78.9200405,45.0112595 Z M47.5810283,56.0039162 L40.4859008,56.0039162 L40.4859008,34.918273 L47.5810283,34.918273 L47.5810283,56.0039162 Z" id="Shape" fill="#43D92D"/>
                    <path d="M6.35902024,44.6681027 L6.35902024,11.8301378 C6.34546501,9.07776928 8.56998506,6.83445381 11.3302632,6.81689189 L61.1370445,6.81689189 C61.2827308,6.81689189 61.4268178,6.82454595 61.5688259,6.83698378 C61.3608281,4.25949182 59.2101634,2.2688924 56.6169332,2.25364054 L6.81095142,2.25364054 C4.05039722,2.2709397 1.82551435,4.51440374 1.83906883,7.26704595 L1.83906883,40.1050108 C1.83906883,42.7262054 3.84029555,44.9037838 6.38076923,45.127027 C6.36701619,44.9757 6.35902024,44.8227784 6.35902024,44.6681027 Z" id="Path" fill="#D4E1F4"/>
                </g>
            </g>
        </g>
    </g>
</svg>