<?xml version="1.0" encoding="UTF-8"?>
<svg width="24px" height="22px" viewBox="0 0 24 22" version="1.1" xmlns="http://www.w3.org/2000/svg" xmlns:xlink="http://www.w3.org/1999/xlink">
    <!-- Generator: Sketch 54 (76480) - https://sketchapp.com -->
    <title>Swift App</title>
    <desc>Created with Sketch.</desc>
    <g id="Page-1" stroke="none" stroke-width="1" fill="none" fill-rule="evenodd">
        <g id="Frontend-Development" transform="translate(-783.000000, -5108.000000)" fill="#949CA6" fill-rule="nonzero">
            <g id="Group-25" transform="translate(774.000000, 5098.000000)">
                <g id="Group-15">
                    <g id="Swift-App" transform="translate(9.000000, 10.000000)">
                        <path d="M21.9632779,15.1829027 L21.9613599,15.1809675 C21.9958825,15.0603373 22.0316837,14.9409973 22.0630098,14.8177868 C23.3761468,9.53844324 20.1706604,3.2966387 14.7474172,0.0105956755 C17.1243614,3.26180432 18.1747432,7.19937924 17.2407154,10.6428221 C17.1576054,10.9505257 17.0578735,11.2453278 16.9472733,11.5317438 C16.7927618,11.4313207 16.6345258,11.3368558 16.4729074,11.2485532 C16.4729074,11.2485532 11.0771544,7.88768076 5.23005045,1.94196843 C5.07661672,1.78585881 8.34795181,6.66009146 12.0610482,10.618309 C10.3119036,9.62810951 5.43654669,6.04855459 2.35061069,3.19858638 C2.72971988,3.83721665 3.18107078,4.45133384 3.67653389,5.04287319 C6.25358133,8.34052768 9.61505873,12.4096991 13.6414157,15.5344719 C10.8124812,17.2813515 6.81489307,17.4168185 2.83456627,15.5364071 C1.86009277,15.0746122 0.933274212,14.5166967 0.0676445783,13.8708078 C1.84745078,16.723104 4.44002324,18.9660532 7.50534488,20.3054916 C11.2721431,21.9388369 15.0172048,21.8278829 17.8065023,20.332585 L17.8045843,20.3358104 C17.8173705,20.3274243 17.8333532,20.3190383 17.8467786,20.3100071 C17.9612146,20.2487244 18.0750113,20.1848614 18.1856114,20.1184181 C19.5262387,19.4165698 22.1736099,18.7044003 23.5941506,21.4937309 C23.942573,22.1768718 24.6822515,18.558612 21.9639172,15.1835478 L21.9632779,15.1829027 Z" id="Path"/>
                    </g>
                </g>
            </g>
        </g>
    </g>
</svg>