<?xml version="1.0" encoding="UTF-8"?>
<svg width="68px" height="59px" viewBox="0 0 68 59" version="1.1" xmlns="http://www.w3.org/2000/svg" xmlns:xlink="http://www.w3.org/1999/xlink">
    <!-- Generator: Sketch 54 (76480) - https://sketchapp.com -->
    <title>Web and Desktop</title>
    <desc>Created with Sketch.</desc>
    <g id="Page-1" stroke="none" stroke-width="1" fill="none" fill-rule="evenodd">
        <g id="Node-JS" transform="translate(-399.000000, -1203.000000)" fill-rule="nonzero">
            <g id="Group-4" transform="translate(392.000000, 1196.000000)">
                <g id="Web-and-Desktop" transform="translate(7.000000, 7.000000)">
                    <path d="M12.9970195,41.3603007 C9.12117438,41.3560386 5.98051601,38.1708343 5.97584514,34.2411842 L5.97584514,1.12898116 C5.97631231,0.797485017 5.99966634,0.466935941 6.04497337,0.139228442 C2.58062719,0.635999067 0.00420373068,3.64077483 0,7.18778354 L0,40.2999867 C0.00467081851,44.2296366 3.14532924,47.4148411 7.02164143,47.4186296 L37.4468861,47.4186296 L37.4468861,41.3603007 L12.9970195,41.3603007 Z" id="Path" fill="#D4E1F4"/>
                    <path d="M52.8853425,7.18778354 L52.8853425,27.2253049 C52.5509119,27.2025738 52.2127446,27.1907347 51.872242,27.1902611 C51.5093194,27.1902611 51.1510676,27.2039945 50.79375,27.2300407 L50.79375,14.5095864 L2.09159259,14.5095864 L2.09159259,40.2999867 C2.09486207,43.0594553 4.30042263,45.29516 7.02164143,45.298475 L36.8611655,45.298475 C36.9826067,46.017348 37.1563613,46.7258027 37.3810276,47.4186296 L7.02164143,47.4186296 C3.14532924,47.4148411 0.00467081851,44.2296366 -2.84217094e-14,40.2999867 L-2.84217094e-14,7.18778354 C0.00420373068,3.25766003 3.14532924,0.0729290918 7.02164143,0.0686670288 L45.8637011,0.0686670288 C49.7395462,0.0734027486 52.8806717,3.25766003 52.8853425,7.18778354 Z M50.79375,12.3889581 L50.79375,7.18778354 C50.7900134,4.42878853 48.5849199,2.19261029 45.8637011,2.1892953 L7.02164143,2.1892953 C4.29995558,2.19213663 2.09439502,4.42831499 2.09159259,7.18778354 L2.09159259,12.3889581 L50.79375,12.3889581 Z" id="Shape" fill="#0B75FF"/>
                    <g id="Group" transform="translate(3.587189, 4.243151)" fill="#43D92D">
                        <path d="M49.2981539,22.9821543 C48.9637233,22.9594231 48.625556,22.947584 48.2850534,22.9471104 C47.9221308,22.9471104 47.563879,22.9608438 47.2065614,22.98689 C42.9056717,23.2961285 38.935476,25.4380672 36.2805828,28.8823121 C33.6247553,32.32561 32.532718,36.7487158 33.2739769,41.0553243 C33.3954181,41.7741973 33.5691727,42.482652 33.793839,43.1754789 C36.1661477,50.5706844 43.5890124,55.025519 51.124444,53.5764074 C58.6603425,52.1277692 63.958919,45.226493 63.4951068,37.4642739 C63.0317616,29.7020548 56.9508229,23.4992884 49.2981539,22.9821543 L49.2981539,22.9821543 Z M43.5385677,25.9675139 C42.4185053,27.1779485 41.5020908,28.5669173 40.8257563,30.0785397 C40.2545152,29.6835857 39.7150356,29.2422223 39.2138568,28.759185 C40.4614323,27.5506448 41.9308719,26.6025658 43.5385677,25.9675139 L43.5385677,25.9675139 Z M37.8186833,30.3418424 C38.5085631,30.9991519 39.2582295,31.5882679 40.0578736,32.1020869 C39.5370774,33.8002944 39.2372108,35.5595917 39.1662144,37.336411 L35.1801379,37.336411 C35.3791147,34.7962034 36.2950622,32.368231 37.8186833,30.3418424 L37.8186833,30.3418424 Z M35.1801379,39.4570393 L39.1662144,39.4570393 C39.237678,41.2343322 39.5370774,42.9945767 40.0578736,44.6932577 C39.2582295,45.2066032 38.5085631,45.7961927 37.8186833,46.4535022 C36.2950622,44.4271137 35.3786477,41.9977205 35.1801379,39.4570393 L35.1801379,39.4570393 Z M39.2138568,48.0352124 C39.7159698,47.5526488 40.2545152,47.1122324 40.8257563,46.7172784 C41.5020908,48.2279538 42.4189724,49.6164491 43.5385677,50.82641 C41.9304048,50.1923052 40.4609653,49.2437526 39.2138568,48.0352124 Z M47.2392571,51.1896351 C45.2452847,49.9119542 43.6852313,48.0091662 42.6557829,45.6631207 C44.0990659,44.9802387 45.6516458,44.5668156 47.2392571,44.4408471 L47.2392571,51.1896351 Z M47.2392571,42.3154832 C45.4073621,42.4409782 43.6123665,42.8974957 41.9388122,43.6637253 C41.5525355,42.2927521 41.3241325,40.8810521 41.2592082,39.4570393 L47.2392571,39.4570393 L47.2392571,42.3154832 Z M47.2392571,37.336411 L41.2592082,37.336411 C41.3245996,35.9128719 41.5530027,34.5011719 41.9388122,33.1301986 C43.6123665,33.8964282 45.4073621,34.3534194 47.2392571,34.4789143 L47.2392571,37.336411 Z M47.2392571,32.3535504 C45.6516458,32.2280555 44.0995329,31.8146324 42.6557829,31.1326974 C43.6852313,28.7852312 45.2452847,26.8824433 47.2392571,25.6042889 L47.2392571,32.3535504 Z M57.322153,28.7260355 C56.8265792,29.2067048 56.29504,29.6475947 55.7308051,30.0434958 C55.0554048,28.5456069 54.1441281,27.1694242 53.0329404,25.9675139 C54.6252225,26.5964094 56.0820507,27.5331229 57.322153,28.7260355 Z M49.3308497,25.6042889 C51.3196841,26.8791283 52.8774021,28.7743391 53.9068505,31.111387 C52.4687055,31.804214 50.9179937,32.225214 49.3308497,32.3535504 L49.3308497,25.6042889 Z M49.3308497,34.4789143 C51.1632117,34.3501044 52.9577402,33.8869568 54.6270907,33.1107824 C55.0171041,34.4874384 55.2469083,35.9057684 55.312767,37.336411 L49.3308497,37.336411 L49.3308497,34.4789143 Z M49.3308497,39.4570393 L55.312767,39.4570393 C55.2469083,40.8886291 55.0171041,42.3074325 54.6270907,43.6845623 C52.9577402,42.9083878 51.1632117,42.4447667 49.3308497,42.316904 L49.3308497,39.4570393 Z M49.3308497,51.1896351 L49.3308497,44.4417942 C50.9179937,44.569657 52.4687055,44.9901836 53.9068505,45.6825369 C52.8774021,48.0195848 51.3196841,49.9157427 49.3308497,51.1896351 Z M53.0329404,50.82641 C54.1445952,49.6254468 55.0554048,48.2497379 55.7308051,46.7518488 C56.29504,47.1472764 56.8270463,47.5876926 57.322153,48.0697827 C56.0825179,49.2622217 54.6252225,50.1989351 53.0329404,50.82641 L53.0329404,50.82641 Z M58.7233986,46.4913875 C58.0391237,45.834078 57.2959964,45.2430677 56.5033586,44.7249867 C57.0302269,43.0168343 57.333363,41.2456978 57.4052937,39.4570393 L61.3913701,39.4570393 C61.190992,42.0142953 60.2643016,44.4574219 58.7233986,46.4913875 Z M57.4052937,37.336411 C57.333363,35.5491733 57.0297597,33.7780367 56.5033586,32.0698844 C57.2964635,31.5527504 58.0391237,30.9612666 58.7233986,30.3025364 C60.2643016,32.3369756 61.190992,34.7796286 61.3913701,37.336411 L57.4052937,37.336411 Z" id="Shape"/>
                        <path d="M19.8318283,6.08626926 L19.8407029,6.08626926 C21.4502669,6.08390146 22.7562278,4.76454674 22.762767,3.13263862 L22.762767,3.12222011 C22.762767,1.48604981 21.4554048,0.160065222 19.841637,0.159118151 C18.2288034,0.157697423 16.919573,1.48131421 16.9163034,3.11748451 C16.913968,4.75270762 18.2185276,6.08153354 19.8318283,6.08626926 Z M19.2535809,2.52505351 C19.4086521,2.36688255 19.6207073,2.27879923 19.8407029,2.27974642 L19.841637,2.27974642 C20.3012456,2.28021996 20.6735098,2.65765197 20.6730427,3.1231673 C20.6721085,3.58868252 20.2998443,3.96564111 19.8407029,3.96564111 L19.8379004,3.96564111 C19.5016014,3.96469392 19.1989324,3.75869271 19.070952,3.44329787 C18.9429715,3.1279029 19.0149022,2.76515146 19.2535809,2.52505351 Z" id="Shape"/>
                        <path d="M14.3314724,3.1046982 C14.3338078,1.46947509 13.0311166,0.140175514 11.418283,0.131651388 L11.4075401,0.131651388 C10.2272242,0.132124923 9.16274463,0.852418664 8.70920824,1.95772159 C8.25613879,3.0630244 8.50322506,4.33596961 9.3350978,5.18459974 C9.8797153,5.74435461 10.6233096,6.05927604 11.3981984,6.05832884 L11.4089412,6.05832884 C13.0180383,6.05690824 14.3244662,4.73707997 14.3314724,3.1046982 Z M11.4056717,3.93817423 C10.9465302,3.93817423 10.5747331,3.55979503 10.5752001,3.09475335 C10.5761344,2.62923801 10.9483986,2.251806 11.4075401,2.25227954 L11.4103425,2.25227954 C11.869951,2.25370027 12.2408141,2.63207947 12.2398799,3.09759468 C12.2384786,3.56263648 11.8652803,3.93959496 11.4056717,3.93817423 Z" id="Shape"/>
                        <path d="M2.9757785,6.03322988 C4.58580955,6.03086208 5.89177052,4.71056028 5.89924383,3.07770497 L5.89924383,3.06870719 C5.89690833,1.43632542 4.59421708,0.112235094 2.98418591,0.106552303 L2.9757785,0.106552303 C1.36154362,0.103237311 0.0509118918,1.42827483 0.0485765125,3.0653922 C0.0462411331,4.70203604 1.35266904,6.03086208 2.96690391,6.03322988 L2.9757785,6.03322988 Z M2.14530691,3.06586574 C2.14577396,2.60129759 2.51757123,2.22575985 2.9757785,2.22670704 L2.97858093,2.22670704 C3.43772242,2.22765411 3.80951957,2.60555978 3.80858535,3.07107499 C3.80765125,3.53659033 3.43491987,3.91307527 2.9757785,3.91260173 L2.9725089,3.91260173 C2.51336741,3.91023381 2.14297153,3.53138107 2.14530691,3.06586574 Z" id="Shape"/>
                    </g>
                </g>
            </g>
        </g>
    </g>
</svg>