<?xml version="1.0" encoding="UTF-8"?>
<svg width="64px" height="56px" viewBox="0 0 64 56" version="1.1" xmlns="http://www.w3.org/2000/svg" xmlns:xlink="http://www.w3.org/1999/xlink">
    <!-- Generator: Sketch 54 (76480) - https://sketchapp.com -->
    <title>Website Development</title>
    <desc>Created with Sketch.</desc>
    <g id="Page-1" stroke="none" stroke-width="1" fill="none" fill-rule="evenodd">
        <g id="Php-Development" transform="translate(-388.000000, -1171.000000)" fill-rule="nonzero">
            <g id="Group-23" transform="translate(388.000000, 1171.000000)">
                <g id="Website-Development">
                    <path d="M62.9433962,49.9787661 L13.1320755,49.9787661 C9.21603768,49.9754942 6.0419811,46.8302618 6.03773585,42.9488516 L6.03773585,1.05682422 C6.03820752,0.729634051 6.06179248,0.403378769 6.10801884,0.0794604103 C2.60754717,0.570245726 0.00424527698,3.53739316 0,7.03973021 L0,48.9317575 C0.00424527698,52.8131678 3.17830183,55.9584001 7.09433962,55.9616721 L56.9056604,55.9616721 C60.4405661,55.9579328 63.4344339,53.3782719 63.929717,49.9100561 C63.6033019,49.9553953 63.2735849,49.9787661 62.9433962,49.9787661 Z" id="Path" fill="#D4E1F4"/>
                    <path d="M64,7.03973021 L64,48.9317575 C63.9957547,52.8131678 60.8216982,55.9584001 56.9056604,55.9616721 L7.09433962,55.9616721 C3.17830183,55.9584001 0.00424527698,52.8131678 0,48.9317575 L0,7.03973021 C0.00424527698,3.15925484 3.17830183,0.0140224957 7.09433962,0.00981567521 L56.9056604,0.00981567521 C60.8216982,0.0140224957 63.9957547,3.15925484 64,7.03973021 Z M61.8867925,48.9317575 L61.8867925,16.7755074 L2.11320755,16.7755074 L2.11320755,48.9317575 C2.1160378,51.6567842 4.34433956,53.8653178 7.09433962,53.867655 L56.9056604,53.867655 C59.6556604,53.8653178 61.8839622,51.6567842 61.8867925,48.9317575 Z M61.8867925,14.6814903 L61.8867925,7.03973021 C61.8839622,4.31470356 59.6556604,2.1071047 56.9056604,2.10383277 L7.09433962,2.10383277 C4.34433956,2.1071047 2.1160378,4.31470356 2.11320755,7.03973021 L2.11320755,14.6814903 L61.8867925,14.6814903 Z" id="Shape" fill="#24527a"/>
                    <g id="Group" transform="translate(4.347170, 5.025641)" fill="#43D92D">
                        <path d="M41.9226415,28.0743189 L35.0849057,22.3054888 C34.6396226,21.9465144 33.9867925,22.0063435 33.614151,22.4391694 C33.2419811,22.8724627 33.2872641,23.5212339 33.7165095,23.8998397 L39.6075472,28.8712607 L33.7165095,33.8436165 C33.4188679,34.0829328 33.2754717,34.4629407 33.3419811,34.8368724 C33.4080188,35.2112714 33.6735849,35.5202323 34.0353774,35.6445647 C34.3976415,35.7693644 34.7990567,35.6903712 35.0849057,35.4379674 L41.9226415,29.6686698 C42.1584906,29.4695513 42.2948113,29.1788194 42.2948113,28.8712607 C42.2948113,28.5646368 42.1584906,28.2729701 41.9226415,28.0743189 L41.9226415,28.0743189 Z" id="Path"/>
                        <path d="M29.7099056,17.8944979 C29.139151,17.7753071 28.5792453,18.1375534 28.4589622,18.7031251 L24.1976415,38.7524038 C24.0773585,39.317508 24.4424528,39.8723291 25.0132075,39.9924546 C25.0849057,40.0069444 25.1580189,40.0144231 25.2320755,40.0144231 C25.7311321,40.0139557 26.1622642,39.6676014 26.2655661,39.1828926 L30.5264151,19.1345486 C30.6457547,18.5689771 30.2806604,18.0136886 29.7099056,17.8944979 Z" id="Path"/>
                        <path d="M23.9698113,6.77096694 L23.9806604,6.77096694 C25.8226415,6.77003205 27.3174528,5.29393703 27.323585,3.46774843 L27.323585,3.45746525 C27.3216981,1.63221154 25.8316038,0.152377197 23.9896226,0.14443106 L23.9806604,0.14443106 C22.1339623,0.141626632 20.6344339,1.62286325 20.6316038,3.45232366 C20.6287736,5.28225157 22.123585,6.76769501 23.9698113,6.77096694 Z M23.9806604,2.23844815 L23.9834905,2.23844815 C24.6627358,2.23938304 25.2132075,2.78625798 25.2117924,3.45933491 C25.2113208,4.13241183 24.6599057,4.67741723 23.9806604,4.67694985 L23.9759434,4.67694985 C23.2966981,4.67554757 22.7466981,4.12867251 22.7476415,3.45559559 C22.7490566,2.78205128 23.3009435,2.23751338 23.9806604,2.23844815 Z" id="Shape"/>
                        <path d="M13.0113208,28.8712607 C13.0113208,29.1778846 13.1471698,29.4695513 13.3830189,29.6686698 L20.2207547,35.4379674 C20.6660377,35.7964744 21.3188679,35.7371127 21.6915094,35.303352 C22.0636793,34.8705262 22.0183963,34.2222222 21.5891509,33.8436165 L15.6981132,28.8712607 L21.5891509,23.8998397 C22.0183963,23.5212339 22.0636793,22.8724627 21.6915094,22.4391694 C21.3188679,22.0063435 20.6660377,21.9465144 20.2207547,22.3054888 L13.3830189,28.0743189 C13.1471698,28.2734375 13.0113208,28.5646368 13.0113208,28.8712607 L13.0113208,28.8712607 Z" id="Path"/>
                        <path d="M10.3622642,3.41586538 C10.3594339,5.24485841 11.8499999,6.73123662 13.695283,6.73918263 L13.7056604,6.73918263 C15.5471698,6.73731309 17.0415094,5.26168533 17.0490566,3.43689901 L17.0490566,3.42661595 C17.0485849,1.60042735 15.5584906,0.11965812 13.7165095,0.113114256 L13.7056604,0.113114256 C11.8632076,0.113581761 10.368868,1.59061168 10.3622642,3.41586538 Z M12.839151,2.56189901 C13.0683962,2.33380072 13.3801887,2.2057292 13.7056604,2.20713135 L13.7099056,2.20713135 C14.3896226,2.20806624 14.9396226,2.7549413 14.9382075,3.42801822 C14.9367924,4.10202991 14.3849057,4.64656781 13.7056604,4.64516554 L13.7023585,4.64516554 C13.2047169,4.64423077 12.7566038,4.34602024 12.5679245,3.88982366 C12.3787736,3.43362708 12.4858491,2.90872065 12.839151,2.56189901 Z" id="Shape"/>
                        <path d="M3.44292456,0.0803952991 C1.59622642,0.0743189402 0.0938679547,1.55321851 0.0886792453,3.38361381 C0.0825472,5.21354161 1.57500003,6.70178947 3.42169817,6.70786595 L3.43207547,6.70786595 C5.27971695,6.71067038 6.77924528,5.22943376 6.78207541,3.39950585 C6.78490566,1.56911055 5.29009437,0.0831997265 3.44292456,0.0803952991 Z M3.43207547,4.61384885 L3.42830189,4.61384885 C2.74811315,4.61244658 2.19811321,4.06557152 2.19952833,3.39202721 C2.20047167,2.71848291 2.75235852,2.17301012 3.43207547,2.17441239 L3.43679251,2.17441239 C4.11698113,2.17534728 4.66698119,2.72222222 4.66603774,3.39623391 C4.66462261,4.06977834 4.11226421,4.61478362 3.43207547,4.61384885 Z" id="Shape"/>
                    </g>
                </g>
            </g>
        </g>
    </g>
</svg>